<?xml version="1.0" encoding="utf-8"?>
<!-- Generator: Adobe Illustrator 19.0.0, SVG Export Plug-In . SVG Version: 6.00 Build 0)  -->
<svg version="1.1" id="Layer_1" xmlns="http://www.w3.org/2000/svg" xmlns:xlink="http://www.w3.org/1999/xlink" x="0px" y="0px"
	 viewBox="704 -284 1920 1080" style="enable-background:new 704 -284 1920 1080;" xml:space="preserve">
<style type="text/css">
	.st0{clip-path:url(#SVGID_2_);}
	.st1{fill:#FFFFFF;}
	.st2{opacity:0.4;}
	.st3{fill:#BBCEE1;}
	.st4{opacity:0.2;fill:#FFFFFF;enable-background:new    ;}
	.st5{fill:#0B3B56;}
	.st6{opacity:0.2;}
	.st7{fill:#666666;}
	.st8{fill:#F33052;}
	.st9{fill:url(#Path_2_1_);}
	.st10{fill:url(#Path_1-2_1_);}
	.st11{fill:url(#Path_2-2_1_);}
</style>
<g>
	<defs>
		<rect id="SVGID_1_" x="-6275.6" y="-4604" width="9600" height="5400"/>
	</defs>
	<clipPath id="SVGID_2_">
		<use xlink:href="#SVGID_1_"  style="overflow:visible;"/>
	</clipPath>
	<g id="Portfolio_Site_Footer_-_Desktop" class="st0">
		<rect x="-6275.6" y="-4604" class="st1" width="9600" height="5400"/>
		<g id="Group_403" transform="translate(2214.567 700.792) rotate(149)">
			<g id="Group_363" transform="translate(205.777 106.863)" class="st2">
				<g id="Group_362">
					<path id="Path_1532" class="st1" d="M-2318.2,915.7V900l408.2-235.4v15.7L-2318.2,915.7z"/>
					<path id="Path_1533" class="st1" d="M-1819.1,640.9v15.7l-66.1,38.1V679L-1819.1,640.9z"/>
					<path id="Path_1534" class="st1" d="M-2318.2,944.5v-15.7l408.2-235.4v15.7L-2318.2,944.5z"/>
					<path id="Path_1535" class="st1" d="M-1819.1,727.1v15.7l-66.1,38.2v-15.7L-1819.1,727.1z"/>
					<path id="Path_1536" class="st1" d="M-1819.1,755.9v15.8l-66.1,38.1v-15.7L-1819.1,755.9z"/>
					<path id="Path_1537" class="st1" d="M-1819.1,870.9v15.7l-66.1,38.1v-15.7L-1819.1,870.9z"/>
					<path id="Path_1538" class="st1" d="M-1819.1,899.7v15.7l-66.1,38.1v-15.7L-1819.1,899.7z"/>
					<g id="Group_356" transform="translate(30.132 62.257)">
						<path id="Path_1539" class="st1" d="M-2197.7,1038.4l257.5-148.5v15.7l-257.5,148.5V1038.4z"/>
					</g>
					<g id="Group_357" transform="translate(0 56.505)">
						<path id="Path_1540" class="st1" d="M-2039.4,941.5l129.4-74.6v15.7l-129.4,74.6V941.5z"/>
						<path id="Path_1541" class="st1" d="M-2053,949.3v15.7l-265.2,153v-15.7L-2053,949.3z"/>
					</g>
					<path id="Path_1542" class="st1" d="M-2283.3,1052.4v15.7l-34.9,20.1v-15.7L-2283.3,1052.4z"/>
					<path id="Path_1543" class="st1" d="M-2093.5,914.1l183.4-105.8v15.7l-183.4,105.8V914.1z"/>
					<g id="Group_358" transform="translate(24.493 1.538)">
						<path id="Path_1544" class="st1" d="M-2220.2,741.5l163.9-94.5v15.7l-163.9,94.5V741.5z"/>
					</g>
					<path id="Path_1545" class="st1" d="M-2100.2,716.8l115.4-66.5V666l-115.4,66.5V716.8z"/>
					<g id="Group_359" transform="translate(0 16.741)">
						<path id="Path_1546" class="st1" d="M-2221.3,769.8l107.5-62v15.7l-107.5,62V769.8z"/>
						<path id="Path_1547" class="st1" d="M-2234.9,777.7v15.7l-83.3,48.1v-15.7L-2234.9,777.7z"/>
					</g>
					<path id="Path_1548" class="st1" d="M-1931.4,648.1v15.7l-86.9,50.1v-15.7L-1931.4,648.1z"/>
					<path id="Path_1549" class="st1" d="M-2284.2,851.6l252.3-145.5v15.7l-252.3,145.5V851.6z"/>
					<path id="Path_1550" class="st1" d="M-2139.7,854.6l164.9-95.1v15.7l-164.9,95.1V854.6z"/>
					<path id="Path_1551" class="st1" d="M-2284.2,937.9l130.9-75.5v15.7l-130.9,75.5V937.9z"/>
					<g id="Group_360" transform="translate(9.692 56.22)">
						<path id="Path_1552" class="st1" d="M-2279.4,959.6l162.7-93.9v15.7l-162.7,93.9V959.6z"/>
					</g>
					<path id="Path_1553" class="st1" d="M-2181.1,993.5v15.7l-88.6,51.1v-15.7L-2181.1,993.5z"/>
					<path id="Path_1554" class="st1" d="M-1942,855.5l31.9-18.4v15.7l-31.9,18.4V855.5z"/>
					<g id="Group_361" transform="translate(30.132 44.497)">
						<path id="Path_1555" class="st1" d="M-2031.9,845.5v15.7l-165.8,95.6v-15.7L-2031.9,845.5z"/>
						<path id="Path_1556" class="st1" d="M-2018.3,837.7l32.6-18.8v15.7l-32.6,18.8V837.7z"/>
					</g>
					<path id="Path_1557" class="st1" d="M-2136.9,996.7l181.3-104.6v15.7l-181.3,104.6V996.7z"/>
				</g>
			</g>
			<g id="Group_364" transform="translate(205.777 0)" class="st2">
				<path id="Path_1558" class="st1" d="M-2171.7,372.2l274.2-158.8v13.9l-274.2,158.8V372.2z"/>
				<path id="Path_1559" class="st1" d="M-1897.5,254.8l-420.7,243.3v-13.9l420.7-243.4L-1897.5,254.8z"/>
				<path id="Path_1560" class="st1" d="M-2190.1,382.6v13.9l-128.1,74.2v-13.9L-2190.1,382.6z"/>
				<path id="Path_1561" class="st1" d="M-2171.7,425.7l274.2-158.8v13.9l-274.2,158.8V425.7z"/>
				<path id="Path_1562" class="st1" d="M-1897.5,308.2l-420.7,243.3v-13.9l420.7-243.4V308.2z"/>
				<path id="Path_1563" class="st1" d="M-2190.1,450l-128.1,74.2v-13.9l128.1-74.2V450z"/>
				<path id="Path_1564" class="st1" d="M-2171.7,513.9l274.2-158.8V369l-274.2,158.8V513.9z"/>
				<path id="Path_1565" class="st1" d="M-1897.5,396.4l-420.7,243.3v-14l420.7-243.3V396.4z"/>
				<path id="Path_1566" class="st1" d="M-2190.1,538.2l-128.1,74.2v-14l128.1-74.2V538.2z"/>
				<path id="Path_1567" class="st1" d="M-2171.7,567.4l274.2-158.8v13.9l-274.2,158.8V567.4z"/>
				<path id="Path_1568" class="st1" d="M-1897.5,449.9l-420.7,243.3v-13.9l420.7-243.3V449.9z"/>
				<path id="Path_1569" class="st1" d="M-2190.1,591.6l-128.1,74.2v-14l128.1-74.2V591.6z"/>
				<path id="Path_1570" class="st1" d="M-2171.7,655.6l274.2-158.8v13.9l-274.2,158.8V655.6z"/>
				<path id="Path_1571" class="st1" d="M-1897.5,538.1l-420.7,243.3v-14l420.7-243.3V538.1z"/>
				<path id="Path_1572" class="st1" d="M-2190.1,679.9l-128.1,74.2v-14l128.1-74.2V679.9z"/>
				<path id="Path_1573" class="st1" d="M-2171.7,709l274.2-158.8v13.9L-2171.7,723V709z"/>
				<path id="Path_1574" class="st1" d="M-2190.1,733.3l-128.1,74.2v-13.9l128.1-74.2V733.3z"/>
			</g>
			<g id="Group_366" transform="translate(411.257 196.791)">
				<g id="Group_365">
					<path id="Path_1575" class="st3" d="M-1496.3,1000.6l0.4,0.2l0,0C-1496,1000.7-1496.2,1000.7-1496.3,1000.6z"/>
				</g>
			</g>
			<g id="Group_374" transform="translate(428.261 115.571)" class="st2">
				<g id="Group_373">
					<path id="Path_1576" class="st1" d="M-929.2,675.7v15.7l-66.1,38.1v-15.7L-929.2,675.7z"/>
					<path id="Path_1577" class="st1" d="M-929.2,704.5v15.7l-66.1,38.1v-15.7L-929.2,704.5z"/>
					<path id="Path_1578" class="st1" d="M-929.2,733.2V749l-66.1,38.1l0-15.7L-929.2,733.2z"/>
					<path id="Path_1579" class="st1" d="M-1428.3,1065.6v-15.8l408.2-235.4v15.7L-1428.3,1065.6z"/>
					<path id="Path_1580" class="st1" d="M-929.2,762v15.7l-66.1,38.1v-15.7L-929.2,762z"/>
					<path id="Path_1581" class="st1" d="M-929.2,790.7v15.7l-66.1,38.1v-15.7L-929.2,790.7z"/>
					<path id="Path_1582" class="st1" d="M-1428.3,1094.4v-15.7l408.2-235.4v15.7L-1428.3,1094.4z"/>
					<path id="Path_1583" class="st1" d="M-929.2,877v15.7l-66.1,38.1v-15.8L-929.2,877z"/>
					<path id="Path_1584" class="st1" d="M-929.2,905.8v15.7l-66.1,38.1v-15.7L-929.2,905.8z"/>
					<path id="Path_1585" class="st1" d="M-929.2,1020.8v15.7l-66.1,38.1v-15.7L-929.2,1020.8z"/>
					<path id="Path_1586" class="st1" d="M-929.2,1049.6v15.7l-66.1,38.1v-15.7L-929.2,1049.6z"/>
					<g id="Group_367" transform="translate(0 85.264)">
						<path id="Path_1587" class="st1" d="M-1277.6,1165.3l257.5-148.5v15.7l-257.5,148.5V1165.3z"/>
						<path id="Path_1588" class="st1" d="M-1291.2,1173.1v15.7l-137.1,79.1v-15.7L-1291.2,1173.1z"/>
					</g>
					<g id="Group_368" transform="translate(0 79.512)">
						<path id="Path_1589" class="st1" d="M-1149.5,1068.4l129.4-74.6v15.7l-129.4,74.6V1068.4z"/>
						<path id="Path_1590" class="st1" d="M-1163.1,1076.2v15.7l-265.2,153v-15.7L-1163.1,1076.2z"/>
					</g>
					<path id="Path_1591" class="st1" d="M-1393.4,1202.3v15.7l-34.9,20.1v-15.7L-1393.4,1202.3z"/>
					<path id="Path_1592" class="st1" d="M-1203.5,1064l183.4-105.8V974l-183.4,105.8V1064z"/>
					<path id="Path_1593" class="st1" d="M-1128.4,790.6l108.2-62.4v15.7l-108.2,62.4V790.6z"/>
					<g id="Group_369" transform="translate(24.493 24.544)">
						<path id="Path_1594" class="st1" d="M-1330.3,868.4l163.9-94.5v15.7l-163.9,94.5V868.4z"/>
					</g>
					<path id="Path_1595" class="st1" d="M-1210.3,866.6l115.4-66.5v15.7l-115.4,66.5V866.6z"/>
					<g id="Group_370" transform="translate(0 39.748)">
						<path id="Path_1596" class="st1" d="M-1331.3,896.7l107.5-62v15.7l-107.5,62V896.7z"/>
						<path id="Path_1597" class="st1" d="M-1344.9,904.5v15.8l-83.3,48.1v-15.7L-1344.9,904.5z"/>
					</g>
					<path id="Path_1598" class="st1" d="M-1041.4,798v15.7l-86.9,50.1v-15.7L-1041.4,798z"/>
					<path id="Path_1599" class="st1" d="M-1394.3,1001.5l252.3-145.5v15.7l-252.3,145.5V1001.5z"/>
					<path id="Path_1600" class="st1" d="M-1249.8,1004.4l164.9-95.1v15.7l-164.9,95.1V1004.4z"/>
					<path id="Path_1601" class="st1" d="M-1394.3,1087.8l130.9-75.5v15.7l-130.9,75.5V1087.8z"/>
					<g id="Group_371" transform="translate(9.692 79.227)">
						<path id="Path_1602" class="st1" d="M-1389.5,1086.5l162.7-93.9v15.7l-162.7,93.9V1086.5z"/>
					</g>
					<path id="Path_1603" class="st1" d="M-1291.2,1143.3v15.7l-88.6,51.1v-15.7L-1291.2,1143.3z"/>
					<path id="Path_1604" class="st1" d="M-1052,1005.4l31.9-18.4v15.7l-31.9,18.4V1005.4z"/>
					<g id="Group_372" transform="translate(30.132 67.504)">
						<path id="Path_1605" class="st1" d="M-1141.9,972.4v15.8l-165.8,95.6V1068L-1141.9,972.4z"/>
						<path id="Path_1606" class="st1" d="M-1128.4,964.5l32.6-18.8v15.7l-32.6,18.8V964.5z"/>
					</g>
					<path id="Path_1607" class="st1" d="M-1246.9,1146.6l181.3-104.6v15.7l-181.3,104.6V1146.6z"/>
				</g>
			</g>
			<path id="Path_1608" class="st4" d="M-2473,995.9l204.9-118.2c7.2-4.1,16.3-1.7,20.5,5.5c1.3,2.3,2,4.9,2,7.5V1136
				c0,11.9-6.4,23-16.7,29l-204.8,118.4c-7.4,4.2-16.8,1.7-21-5.6c-1.4-2.3-2.1-5-2.1-7.7v-244.2
				C-2490.3,1013.5-2483.7,1002.1-2473,995.9z"/>
			<path id="Path_1683" class="st4" d="M-1446,388.6l204.9-118.2c7.2-4.1,16.3-1.7,20.5,5.5c1.3,2.3,2,4.9,2,7.5v245.2
				c0,11.9-6.4,23-16.7,29L-1440.1,676c-7.4,4.2-16.8,1.7-21-5.6c-1.4-2.3-2.1-5-2.1-7.7V418.5
				C-1463.2,406.2-1456.6,394.8-1446,388.6z"/>
			<path id="Path_1609" class="st4" d="M-2752.8,522l204.9-118.2c7.2-4.1,16.3-1.7,20.5,5.5c1.3,2.3,2,4.9,2,7.5V662
				c0,11.9-6.4,23-16.7,29L-2747,809.4c-7.4,4.2-16.8,1.7-21-5.6c-1.4-2.3-2.1-5-2.1-7.7V551.9C-2770,539.5-2763.5,528.1-2752.8,522
				z"/>
			<path id="Path_1610" class="st4" d="M-1602.2,1200.8l204.9-118.2c7.2-4.1,16.3-1.7,20.5,5.5c1.3,2.3,2,4.9,2,7.5l0,245.2
				c0,11.9-6.4,23-16.7,29l-204.9,118.4c-7.3,4.2-16.7,1.7-21-5.6c-1.4-2.3-2.1-5-2.1-7.7l0-244.2
				C-1619.4,1218.3-1612.9,1206.9-1602.2,1200.8z"/>
			<g id="Group_377" transform="translate(436.567 214.398)">
				<g id="Group_376">
					<path id="Path_1612" class="st5" d="M-1395,1104.2"/>
				</g>
			</g>
			<g id="Group_378" transform="translate(38.091 458.119)">
				<path id="Path_1613" class="st1" d="M-2988.9,2045.9"/>
			</g>
			<g id="Group_380" transform="translate(51.215 390.213)">
				<g id="Group_379">
					<path id="Path_1614" class="st3" d="M-2936.5,1774.3l0.4,0.2l0-0.1C-2936.2,1774.4-2936.3,1774.3-2936.5,1774.3z"/>
				</g>
			</g>
			<g id="Group_382" transform="translate(169.374 261.739)">
				<g id="Group_381">
					<path id="Path_1615" class="st3" d="M-2463.8,1260.4l0.4,0.2l0-0.1C-2463.5,1260.5-2463.7,1260.5-2463.8,1260.4z"/>
				</g>
			</g>
			<g id="Group_384" transform="translate(287.012 136.268)">
				<g id="Group_383">
					<path id="Path_1616" class="st3" d="M-1993.3,758.5l0.4,0.2l0,0C-1993,758.6-1993.1,758.6-1993.3,758.5z"/>
				</g>
			</g>
			<g id="Group_394" transform="translate(124.263 261.825)" class="st2">
				<g id="Group_393">
					<path id="Path_1621" class="st1" d="M-2145.2,1260.7v15.7l-66.1,38.1v-15.7L-2145.2,1260.7z"/>
					<path id="Path_1622" class="st1" d="M-2145.2,1289.5v15.7l-66.1,38.1v-15.7L-2145.2,1289.5z"/>
					<path id="Path_1623" class="st1" d="M-2145.2,1318.2v15.7l-66.1,38.2v-15.8L-2145.2,1318.2z"/>
					<path id="Path_1624" class="st1" d="M-2644.3,1650.6v-15.7l408.2-235.4v15.7L-2644.3,1650.6z"/>
					<path id="Path_1625" class="st1" d="M-2145.2,1347v15.7l-66.1,38.1v-15.7L-2145.2,1347z"/>
					<path id="Path_1626" class="st1" d="M-2145.2,1375.8v15.7l-66.1,38.1v-15.7L-2145.2,1375.8z"/>
					<path id="Path_1627" class="st1" d="M-2644.3,1679.4v-15.7l408.1-235.4v15.7L-2644.3,1679.4z"/>
					<path id="Path_1628" class="st1" d="M-2145.2,1462v15.7l-66.1,38.1v-15.7L-2145.2,1462z"/>
					<path id="Path_1629" class="st1" d="M-2145.2,1490.8v15.7l-66.1,38.1v-15.7L-2145.2,1490.8z"/>
					<path id="Path_1630" class="st1" d="M-2145.2,1605.8v15.7l-66.1,38.1v-15.8L-2145.2,1605.8z"/>
					<path id="Path_1631" class="st1" d="M-2145.2,1634.6v15.7l-66.1,38.1v-15.7L-2145.2,1634.6z"/>
					<g id="Group_387" transform="translate(0 85.263)">
						<path id="Path_1632" class="st1" d="M-2493.6,1750.3l257.5-148.5v15.7l-257.5,148.5V1750.3z"/>
						<path id="Path_1633" class="st1" d="M-2507.2,1758.1v15.7l-137.1,79.1v-15.7L-2507.2,1758.1z"/>
					</g>
					<g id="Group_388" transform="translate(0 79.511)">
						<path id="Path_1634" class="st1" d="M-2365.5,1653.4l129.4-74.6v15.7l-129.4,74.6V1653.4z"/>
						<path id="Path_1635" class="st1" d="M-2379.1,1661.2v15.8l-265.2,153v-15.7L-2379.1,1661.2z"/>
					</g>
					<path id="Path_1636" class="st1" d="M-2609.4,1787.3v15.7l-34.9,20.1v-15.7L-2609.4,1787.3z"/>
					<path id="Path_1637" class="st1" d="M-2419.5,1649l183.4-105.8v15.7l-183.4,105.8V1649z"/>
					<path id="Path_1638" class="st1" d="M-2344.4,1375.6l108.3-62.4v15.7l-108.3,62.4V1375.6z"/>
					<g id="Group_389" transform="translate(24.493 24.544)">
						<path id="Path_1639" class="st1" d="M-2546.3,1453.4l163.9-94.5v15.7l-163.9,94.5L-2546.3,1453.4z"/>
					</g>
					<path id="Path_1640" class="st1" d="M-2426.3,1451.6l115.4-66.5v15.7l-115.4,66.5V1451.6z"/>
					<g id="Group_390" transform="translate(0 39.748)">
						<path id="Path_1641" class="st1" d="M-2547.3,1481.7l107.5-62v15.7l-107.5,62V1481.7z"/>
						<path id="Path_1642" class="st1" d="M-2560.9,1489.5v15.7l-83.4,48.1v-15.7L-2560.9,1489.5z"/>
					</g>
					<path id="Path_1643" class="st1" d="M-2257.4,1383v15.7l-86.9,50.1v-15.7L-2257.4,1383z"/>
					<path id="Path_1644" class="st1" d="M-2610.3,1586.5l252.3-145.5v15.7l-252.3,145.5V1586.5z"/>
					<path id="Path_1645" class="st1" d="M-2465.8,1589.5l164.9-95.1v15.7l-164.9,95.1V1589.5z"/>
					<path id="Path_1646" class="st1" d="M-2610.3,1672.8l130.9-75.5v15.7l-130.9,75.5V1672.8z"/>
					<g id="Group_391" transform="translate(9.692 79.227)">
						<path id="Path_1647" class="st1" d="M-2605.5,1671.5l162.7-93.9v15.7l-162.7,93.9V1671.5z"/>
					</g>
					<path id="Path_1648" class="st1" d="M-2507.2,1728.4v15.7l-88.6,51.1v-15.7L-2507.2,1728.4z"/>
					<path id="Path_1649" class="st1" d="M-2268,1590.4l31.9-18.4v15.7l-31.9,18.4V1590.4z"/>
					<g id="Group_392" transform="translate(30.132 67.504)">
						<path id="Path_1650" class="st1" d="M-2357.9,1557.4v15.7l-165.8,95.6V1653L-2357.9,1557.4z"/>
						<path id="Path_1651" class="st1" d="M-2344.4,1549.6l32.6-18.8v15.7l-32.6,18.8V1549.6z"/>
					</g>
					<path id="Path_1652" class="st1" d="M-2462.9,1731.6l181.3-104.6v15.7l-181.3,104.6V1731.6z"/>
				</g>
			</g>
			<g id="Group_402" transform="translate(0 140.62)" class="st2">
				<g id="Group_401" transform="translate(0)">
					<path id="Path_1653" class="st1" d="M-2642.2,775.9v15.7l-66.1,38.1V814L-2642.2,775.9z"/>
					<path id="Path_1654" class="st1" d="M-2642.2,804.7v15.8l-66.1,38.1v-15.7L-2642.2,804.7z"/>
					<path id="Path_1655" class="st1" d="M-2642.2,833.4v15.7l-66.1,38.1v-15.7L-2642.2,833.4z"/>
					<path id="Path_1656" class="st1" d="M-3141.3,1165.8V1150l408.2-235.4v15.7L-3141.3,1165.8z"/>
					<path id="Path_1657" class="st1" d="M-2642.2,862.2v15.7l-66.1,38.1v-15.7L-2642.2,862.2z"/>
					<path id="Path_1658" class="st1" d="M-2642.2,890.9v15.7l-66.1,38.1v-15.7L-2642.2,890.9z"/>
					<path id="Path_1659" class="st1" d="M-3141.3,1194.6v-15.7l408.2-235.4v15.7L-3141.3,1194.6z"/>
					<path id="Path_1660" class="st1" d="M-2642.2,977.2V993l-66.1,38.1v-15.7L-2642.2,977.2z"/>
					<path id="Path_1661" class="st1" d="M-2642.2,1006v15.7l-66.1,38.1v-15.7L-2642.2,1006z"/>
					<path id="Path_1662" class="st1" d="M-2642.2,1121v15.7l-66.1,38.1v-15.7L-2642.2,1121z"/>
					<path id="Path_1663" class="st1" d="M-2642.2,1149.8v15.7l-66.1,38.1v-15.7L-2642.2,1149.8z"/>
					<g id="Group_395" transform="translate(30.132 85.264)">
						<path id="Path_1664" class="st1" d="M-3020.8,1265.5l257.5-148.5v15.7l-257.5,148.5V1265.5z"/>
					</g>
					<g id="Group_396" transform="translate(55.757 79.512)">
						<path id="Path_1665" class="st1" d="M-2918.3,1168.6l129.4-74.6v15.7l-129.4,74.6V1168.6z"/>
					</g>
					<path id="Path_1666" class="st1" d="M-3106.4,1302.5v15.7l-34.9,20.1v-15.7L-3106.4,1302.5z"/>
					<path id="Path_1667" class="st1" d="M-2916.6,1164.2l183.4-105.8v15.7l-183.4,105.8V1164.2z"/>
					<path id="Path_1668" class="st1" d="M-2841.4,890.8l108.2-62.4v15.7l-108.2,62.5V890.8z"/>
					<g id="Group_397" transform="translate(24.493 24.544)">
						<path id="Path_1669" class="st1" d="M-3043.3,968.6l163.9-94.5v15.7l-163.9,94.5V968.6z"/>
					</g>
					<path id="Path_1670" class="st1" d="M-2923.3,966.8l115.4-66.5V916l-115.4,66.5L-2923.3,966.8z"/>
					<g id="Group_398" transform="translate(0 39.748)">
						<path id="Path_1671" class="st1" d="M-3044.4,996.9l107.5-62v15.7l-107.5,62V996.9z"/>
						<path id="Path_1672" class="st1" d="M-3058,1004.7v15.7l-83.4,48.1v-15.7L-3058,1004.7z"/>
					</g>
					<path id="Path_1673" class="st1" d="M-2754.5,898.2v15.7l-86.9,50.1v-15.7L-2754.5,898.2z"/>
					<path id="Path_1674" class="st1" d="M-3107.3,1101.7l252.3-145.5v15.8l-252.3,145.5V1101.7z"/>
					<path id="Path_1675" class="st1" d="M-2962.8,1104.6l164.9-95.1v15.7l-164.9,95.1V1104.6z"/>
					<path id="Path_1676" class="st1" d="M-3107.3,1188l130.9-75.5v15.7l-130.9,75.5V1188z"/>
					<g id="Group_399" transform="translate(9.692 79.227)">
						<path id="Path_1677" class="st1" d="M-3102.5,1186.7l162.7-93.9v15.7l-162.7,93.9V1186.7z"/>
					</g>
					<path id="Path_1678" class="st1" d="M-3004.2,1243.5v15.7l-88.6,51.1v-15.7L-3004.2,1243.5z"/>
					<path id="Path_1679" class="st1" d="M-2765.1,1105.6l31.9-18.4v15.7l-31.9,18.4V1105.6z"/>
					<g id="Group_400" transform="translate(30.132 67.504)">
						<path id="Path_1680" class="st1" d="M-2855,1072.6v15.7l-165.8,95.6v-15.7L-2855,1072.6z"/>
						<path id="Path_1681" class="st1" d="M-2841.4,1064.7l32.6-18.8v15.7l-32.6,18.8V1064.7z"/>
					</g>
					<path id="Path_1682" class="st1" d="M-2960,1246.8l181.3-104.6v15.7l-181.3,104.6L-2960,1246.8z"/>
				</g>
			</g>
		</g>
		<g id="gear" transform="matrix(-0.946, 0.326, -0.326, -0.946, 1884.169, 198.028)" class="st6">
			<g id="Group_118">
				<g id="Group_117">
					<path id="Path_501" class="st1" d="M-1662.6,3637.9v-123.4l-90.2-15c-7.1-27.2-17.9-53.2-32.2-77.4l53.2-74.5l-87.3-87.3
						l-74.5,53.2c-24.2-14.3-50.2-25.1-77.4-32.2l-15-90.2h-123.5l-15,90.2c-27.2,7.1-53.2,17.9-77.4,32.2l-74.5-53.2l-87.3,87.3
						l53.2,74.5c-14.3,24.2-25.1,50.2-32.2,77.4l-90.2,15v123.4l90.2,15c7.1,27.2,17.9,53.2,32.2,77.4l-53.2,74.5l87.3,87.3
						l74.5-53.2c24.2,14.3,50.2,25.1,77.4,32.1l15,90.2h123.5l15-90.2c27.2-7.1,53.2-17.9,77.4-32.2l74.5,53.2l87.3-87.3l-53.2-74.5
						c14.2-24.2,25.1-50.2,32.1-77.4L-1662.6,3637.9z M-1781.6,3635.4c-6.9,30.9-19.1,60.4-36.1,87l-5.8,9.1l49.9,69.8l-48.9,48.9
						l-69.8-49.9l-9.1,5.8c-26.7,17.1-56.1,29.3-87,36.2l-10.6,2.3l-14.1,84.5h-69.1l-14.1-84.5l-10.6-2.3
						c-30.9-6.9-60.4-19.1-87-36.2l-9.1-5.8l-69.8,49.9l-48.8-48.9l49.9-69.8l-5.8-9.1c-17-26.7-29.3-56.1-36.1-87l-2.3-10.6
						l-84.5-14.1v-69.1l84.5-14.1l2.3-10.6c6.9-30.9,19.1-60.4,36.1-87l5.8-9.1l-49.9-69.8l48.8-48.9l69.8,49.9l9.1-5.8
						c26.7-17.1,56.1-29.3,87-36.1l10.6-2.4l14.1-84.5h69.1l14.1,84.5l10.6,2.4c30.9,6.9,60.4,19.1,87,36.1l9.1,5.8l69.8-49.9
						l48.9,48.9l-49.9,69.8l5.8,9.1c17,26.7,29.3,56.1,36.1,87l2.3,10.6l84.5,14.1v69.1l-84.5,14.1L-1781.6,3635.4z"/>
				</g>
			</g>
			<g id="Group_120" transform="translate(44.929 44.929)">
				<g id="Group_119">
					<path id="Path_502" class="st1" d="M-2092.6,3370.8c-88.6,0-160.5,71.8-160.5,160.5c0,88.6,71.8,160.5,160.5,160.5
						c88.6,0,160.5-71.8,160.5-160.5C-1932.3,3442.7-2004,3370.9-2092.6,3370.8z M-2092.6,3659.7c-70.9,0-128.4-57.5-128.4-128.4
						c0-70.9,57.5-128.4,128.4-128.4c70.9,0,128.4,57.5,128.4,128.4l0,0C-1964.3,3602.2-2021.8,3659.6-2092.6,3659.7z"/>
				</g>
			</g>
		</g>
		<g id="gear-2" transform="matrix(-0.695, 0.719, -0.719, -0.695, 1999.811, 155.169)" class="st6">
			<g id="Group_118-2">
				<g id="Group_117-2">
					<path id="Path_501-2" class="st1" d="M-3470.4,1872.3v-94.8l-69.3-11.6c-5.4-20.9-13.7-40.9-24.7-59.5l40.9-57.2l-67.1-67
						l-57.2,40.9c-18.6-11-38.6-19.3-59.5-24.7l-11.5-69.3h-94.8l-11.5,69.3c-20.9,5.4-40.9,13.8-59.5,24.7l-57.2-40.9l-67.1,67
						l40.9,57.2c-11,18.6-19.3,38.6-24.7,59.5l-69.3,11.6v94.8l69.3,11.6c5.4,20.9,13.7,40.9,24.7,59.5l-40.9,57.2l67.1,67
						l57.2-40.9c18.6,11,38.6,19.3,59.5,24.7l11.5,69.3h94.8l11.5-69.3c20.9-5.4,40.9-13.7,59.5-24.7l57.2,40.9l67.1-67l-40.9-57.2
						c11-18.6,19.3-38.6,24.7-59.5L-3470.4,1872.3z M-3561.8,1870.4c-5.3,23.7-14.7,46.4-27.8,66.8l-4.5,7l38.3,53.6l-37.5,37.5
						l-53.7-38.3l-7,4.5c-20.5,13.1-43.1,22.5-66.9,27.8l-8.1,1.8l-10.8,64.9h-53.1l-10.8-64.9l-8.1-1.8
						c-23.7-5.3-46.3-14.7-66.8-27.8l-7-4.5l-53.6,38.3l-37.5-37.5l38.3-53.6l-4.5-7c-13.1-20.5-22.5-43.1-27.8-66.8l-1.8-8.1
						l-65-10.8v-53.1l64.9-10.8l1.8-8.1c5.3-23.7,14.7-46.4,27.8-66.8l4.5-7l-38.3-53.6l37.5-37.5l53.6,38.3l7-4.5
						c20.5-13.1,43.1-22.5,66.9-27.8l8.1-1.8l10.8-64.9h53.1l10.8,64.9l8.1,1.8c23.7,5.3,46.4,14.7,66.8,27.8l7,4.5l53.6-38.3
						l37.5,37.5l-38.3,53.6l4.5,7c13.1,20.5,22.5,43.1,27.8,66.8l1.8,8.1l64.9,10.8v53.1l-64.9,10.8L-3561.8,1870.4z"/>
				</g>
			</g>
			<g id="Group_120-2" transform="translate(34.511 34.511)">
				<g id="Group_119-2">
					<path id="Path_502-2" class="st1" d="M-3800.7,1667.1c-68.1,0-123.3,55.2-123.3,123.2c0,68.1,55.2,123.3,123.2,123.3
						s123.3-55.2,123.3-123.2c0,0,0,0,0,0C-3677.6,1722.4-3732.7,1667.2-3800.7,1667.1z M-3800.7,1889c-54.5,0-98.6-44.1-98.6-98.6
						c0-54.5,44.1-98.6,98.6-98.6s98.6,44.1,98.6,98.6l0,0C-3702.2,1844.8-3746.3,1888.9-3800.7,1889z"/>
				</g>
			</g>
		</g>
		<path id="microchip" class="st4" d="M-6134-1970.2l-100.1-84l21.5-25.6l110.4-9.7l35.4-42.2c9.1,0.5,16.8-6.5,17.3-15.5
			s-6.5-16.8-15.5-17.3s-16.8,6.5-17.3,15.5c-0.1,1.6,0.1,3.1,0.4,4.6l-30.2,35.9l-110.4,9.7l-26.8,31.9l-45.3-38.1l31.5-37.6
			c9.1,0.5,16.8-6.5,17.3-15.5c0.5-9.1-6.5-16.8-15.5-17.3s-16.8,6.5-17.3,15.5c-0.1,1.6,0.1,3.1,0.4,4.6l-31.5,37.6l-39.7-33.3
			l89.7-106.9l44.1,37l2.7,30.7c-6.9,6.1-7.5,16.5-1.4,23.4c6.1,6.9,16.5,7.5,23.4,1.4c6.9-6.1,7.5-16.5,1.4-23.4
			c-1.1-1.2-2.3-2.3-3.7-3.1l-3.4-38.9l-50.4-42.3l29.2-34.9l79.9,67l29-0.5c5.6,7.2,15.9,8.5,23.1,2.9c7.2-5.6,8.5-15.9,2.9-23.1
			c-5.6-7.2-15.9-8.5-23.1-2.9c-0.9,0.7-1.8,1.5-2.5,2.4c-0.3,0.3-0.5,0.6-0.7,0.9l-21.6,0.4l-74.2-62.3l36.5-43.5l183.8,154.2
			l5.1,58.2l-114.2,136.1l-31.3-26.3c0.5-9.1-6.5-16.8-15.5-17.3c-9.1-0.5-16.8,6.5-17.3,15.5s6.5,16.8,15.5,17.3
			c1.6,0.1,3.1-0.1,4.6-0.4l31.3,26.3L-6134-1970.2L-6134-1970.2z"/>
		<g id="gear-3" transform="matrix(-0.946, 0.326, -0.326, -0.946, 1813.592, 576.384)" class="st6">
			<g id="Group_118-3">
				<g id="Group_117-3">
					<path id="Path_501-3" class="st1" d="M-590.4,2481.3v-173.6l-126.8-21.2c-9.9-38.2-25.2-74.8-45.2-108.9l74.8-104.7
						l-122.7-122.7l-104.7,74.8c-34-20.1-70.6-35.3-108.8-45.2L-1045,1853h-173.6l-21.2,126.8c-38.2,9.9-74.8,25.1-108.8,45.2
						l-104.7-74.8L-1576,2073l74.8,104.7c-20.1,34-35.3,70.6-45.2,108.8l-126.8,21.2v173.6l126.8,21.1
						c9.9,38.2,25.2,74.9,45.2,108.9L-1576,2716l122.7,122.7l104.7-74.8c34,20.1,70.6,35.3,108.8,45.2l21.1,126.8h173.6l21.1-126.8
						c38.2-9.9,74.8-25.2,108.8-45.2l104.7,74.8l122.7-122.7l-74.8-104.7c20.1-34,35.3-70.6,45.2-108.9L-590.4,2481.3z
						 M-757.6,2477.8c-9.6,43.4-26.8,84.9-50.8,122.4l-8.2,12.8l70.1,98.1l-68.7,68.7l-98.2-70.1l-12.8,8.2
						c-37.5,24-78.9,41.2-122.4,50.8l-14.9,3.3l-19.8,118.8h-97.1l-19.8-118.8l-14.9-3.3c-43.4-9.6-84.9-26.8-122.4-50.8l-12.8-8.2
						l-98.2,70.1l-68.7-68.7l70.1-98.2l-8.2-12.8c-24-37.5-41.2-78.9-50.8-122.4l-3.3-14.9l-118.8-19.8v-97.1l118.8-19.8l3.3-14.9
						c9.6-43.4,26.8-84.9,50.8-122.4l8.2-12.8l-70.1-98.2l68.7-68.7l98.2,70.1l12.8-8.2c37.5-24,78.9-41.2,122.4-50.8l14.9-3.3
						l19.8-118.8h97.1l19.8,118.8l14.9,3.3c43.4,9.6,84.9,26.9,122.4,50.8l12.8,8.2l98.2-70.1l68.7,68.7l-70.1,98.2l8.2,12.8
						c24,37.5,41.2,78.9,50.8,122.4l3.3,14.9l118.9,19.8v97.1l-118.9,19.8L-757.6,2477.8z"/>
				</g>
			</g>
			<g id="Group_120-3" transform="translate(63.168 63.168)">
				<g id="Group_119-3">
					<path id="Path_502-3" class="st1" d="M-1195,2105.7c-124.6,0-225.6,101-225.6,225.6s101,225.6,225.6,225.6
						s225.6-101,225.6-225.6l0,0C-969.5,2206.8-1070.5,2105.9-1195,2105.7z M-1195,2511.8c-99.7,0-180.5-80.8-180.5-180.5
						s80.8-180.5,180.5-180.5c99.7,0,180.5,80.8,180.5,180.5C-1014.6,2430.9-1095.3,2511.7-1195,2511.8z"/>
				</g>
			</g>
		</g>
		<g id="angleBrackets" transform="translate(51.971 309.031) rotate(129)" class="st6">
			<path id="Path_517" class="st7" d="M1582.7,7027.9"/>
			<path id="Path_503" d="M1548.1,7088.6"/>
			<path id="Path_504" d="M1626.2,7101.3"/>
			<path id="Path_505" d="M1700.4,7088.6"/>
			<path id="Path_507" class="st8" d="M1625.9,7046.8"/>
			<path id="Path_508" d="M1201.2,7088.6"/>
			<path id="Path_512" class="st8" d="M1306.2,7046.8"/>
			<g id="Group_121" transform="translate(0.35 0)">
				<path id="Path_514" class="st1" d="M1382.4,7071.8l-179.8-78.2v-43.3l179.8-77.8v51l-125.4,47.9l125.4,49.7L1382.4,7071.8
					L1382.4,7071.8z"/>
				<path id="Path_515" class="st1" d="M1399,7106.2l64.9-271.2h37.8l-65.7,271.2H1399z"/>
				<path id="Path_516" class="st1" d="M1518.4,7072v-50.6L1644,6972l-125.6-48.8l0-50.3l180,77.8v42.9L1518.4,7072z"/>
			</g>
		</g>
		<g id="binaryTree" transform="translate(210.519 864.579) rotate(171)" class="st6">
			<path id="Path_518" class="st1" d="M5740.6,2450.5l-80.8-131.9c27.4-9.6,41.7-39.6,32.1-66.9c-7.4-21-27.3-35.1-49.6-35.1
				c-8.5,0.1-16.8,2.2-24.3,6.3l-99.7-155.5c18.3-22.5,14.9-55.5-7.6-73.8c-22.5-18.3-55.5-14.9-73.8,7.6
				c-17,20.9-15.4,51.4,3.8,70.4l-93.6,146.2c-3.5-0.7-7.1-1.1-10.7-1.1c-29-0.1-52.5,23.3-52.6,52.3c-0.1,22.8,14.5,43,36.2,50
				l-78,127.4c-0.7,0-1.3-0.2-2-0.2c-29.2-0.1-53,23.4-53.1,52.6c-0.1,29.2,23.4,53,52.6,53.1c29.2,0.1,53-23.4,53.1-52.6
				c0.1-21.6-13-41.1-33-49.2l77.4-126.3l79.4,129.6c-27.4,9.3-42,39.1-32.7,66.4s39.1,42,66.4,32.7s42-39.1,32.7-66.4
				c-7.1-20.8-26.3-34.9-48.2-35.5l-80.8-131.9c27.3-9.4,41.7-39.2,32.3-66.4c-4.1-11.8-12.2-21.7-23-28l91.6-142.9
				c16.2,8.2,35.5,7.3,50.8-2.5l98.9,154.3c-20,20.8-19.4,53.8,1.4,73.8c5.7,5.5,12.6,9.6,20.2,12.1l-78,127.4c-0.7,0-1.3-0.2-2-0.2
				c-29.2-0.1-52.9,23.4-53,52.6c-0.1,29.2,23.4,52.9,52.6,53s52.9-23.4,53-52.6c0.1-21.6-13-41-32.9-49.1l77.4-126.3l79.4,129.6
				c-27.4,9.3-42.1,39.1-32.8,66.5c9.3,27.4,39.1,42.1,66.5,32.8c27.4-9.3,42.1-39.1,32.8-66.5
				C5781.8,2465.2,5762.5,2451.1,5740.6,2450.5L5740.6,2450.5z M5275.6,2498.7c0,19.7-15.9,35.6-35.6,35.6s-35.6-15.9-35.6-35.6
				s15.9-35.6,35.6-35.6c0,0,0,0,0,0C5259.6,2463.1,5275.6,2479,5275.6,2498.7L5275.6,2498.7z M5468.6,2502.9
				c0,19.7-15.9,35.6-35.6,35.6c-19.7,0-35.6-15.9-35.6-35.6s15.9-35.6,35.6-35.6c0,0,0,0,0,0
				C5452.7,2467.3,5468.6,2483.3,5468.6,2502.9L5468.6,2502.9z M5336.4,2304.8c-19.7,0-35.6-16-35.6-35.6s16-35.6,35.6-35.6
				c19.6,0,35.6,15.9,35.6,35.6C5372,2288.8,5356.1,2304.8,5336.4,2304.8z M5581.5,2498.7c0,19.7-15.9,35.6-35.6,35.6
				c-19.7,0-35.6-15.9-35.6-35.6c0-19.6,15.9-35.6,35.6-35.6C5565.6,2463.1,5581.5,2479,5581.5,2498.7z M5442.2,2034.2
				c0-19.7,15.9-35.6,35.6-35.6s35.6,15.9,35.6,35.6c0,19.7-15.9,35.6-35.6,35.6C5458.2,2069.8,5442.3,2053.9,5442.2,2034.2z
				 M5606.8,2269.2c0-19.7,15.9-35.6,35.6-35.6c19.7,0,35.6,15.9,35.6,35.6c0,19.7-15.9,35.6-35.6,35.6c0,0,0,0,0,0
				C5622.7,2304.8,5606.8,2288.8,5606.8,2269.2L5606.8,2269.2z M5739,2538.5c-19.7,0-35.6-15.9-35.6-35.6s15.9-35.6,35.6-35.6
				c19.7,0,35.6,15.9,35.6,35.6c0,0,0,0,0,0C5774.5,2522.6,5758.6,2538.5,5739,2538.5L5739,2538.5z"/>
		</g>
		<path id="microchip-2" class="st4" d="M-5826.3,351.4l-83.3,187.1l-47.9-21.3l-62.2-162.2l-78.8-35.1c-3.2-13.9-17-22.5-30.9-19.4
			c-13.9,3.2-22.5,17-19.4,30.9c3.2,13.9,17,22.5,30.9,19.4c2.4-0.5,4.7-1.4,6.8-2.6l67.1,29.9l62.2,162.2l59.6,26.5l-37.7,84.7
			l-70.3-31.3c-3.2-13.9-17-22.5-30.9-19.4c-13.9,3.2-22.5,17-19.4,30.9c3.2,13.9,17,22.5,30.9,19.4c2.4-0.5,4.7-1.4,6.8-2.6
			l70.3,31.3l-33,74.1l-199.7-88.9l36.7-82.4l45.1-17.3c12.1,7.7,28.2,4.2,35.9-7.9c7.7-12.1,4.2-28.2-7.9-35.9
			c-12.1-7.7-28.2-4.2-35.9,7.9c-1.4,2.2-2.4,4.5-3.1,7l-57.1,21.9l-41.9,94.1l-65.1-29l66.4-149.2l-13.3-43.5
			c8.4-11.5,5.9-27.6-5.6-36c-11.5-8.4-27.6-5.9-36,5.6c-8.4,11.5-5.9,27.6,5.6,36c1.5,1.1,3.1,2,4.7,2.7c0.6,0.2,1.1,0.4,1.7,0.7
			l9.9,32.4l-61.8,138.7l-81.2-36.2l152.9-343.4l85.4-32.8l254.3,113.2l-26,58.5c-13.9,3.2-22.5,17-19.4,30.9
			c3.2,13.9,17,22.5,30.9,19.4c13.9-3.2,22.5-17,19.4-30.9c-0.5-2.4-1.4-4.7-2.6-6.8l26-58.5L-5826.3,351.4z"/>
		<g id="Group_404" transform="translate(-409.061 1655.493) rotate(-77)">
			
				<linearGradient id="Path_2_1_" gradientUnits="userSpaceOnUse" x1="1513.9741" y1="1512.0349" x2="1510.5492" y2="1507.7699" gradientTransform="matrix(146.9144 968.8987 636.3566 -223.6878 -1186397.375 -1135700.25)">
				<stop  offset="0" style="stop-color:#2BA6F8"/>
				<stop  offset="1" style="stop-color:#000000"/>
			</linearGradient>
			<path id="Path_2" class="st9" d="M-2429.3-7253.5c0,0,1603.7-83.6,1889.3,970.2c311.1,1148.3-684,1688.2-1021.5,1424.6
				s-352.8-621.8,172.6-858.2c525.4-236.4,472.6-965.1-676.3-783.2c-1148.9,181.9-1281.8,1643.6-449.4,1993.4
				c832.3,349.8,629.5,761.5-265.8,1199.1S-3186-2283.1-3186-2283.1h-560l0-4970.4H-2429.3z"/>
		</g>
		<g id="Group_405" transform="translate(1310.945 1879.215) rotate(-101)">
			
				<linearGradient id="Path_1-2_1_" gradientUnits="userSpaceOnUse" x1="1326.3943" y1="359.1152" x2="1321.3943" y2="353.5452" gradientTransform="matrix(-228.7005 982.593 1176.5619 190.9968 -116597.1953 -1367178.375)">
				<stop  offset="0" style="stop-color:#2BA6F8"/>
				<stop  offset="0.906" style="stop-color:#090909"/>
				<stop  offset="1" style="stop-color:#000000"/>
			</linearGradient>
			<path id="Path_1-2" class="st10" d="M3264.6,3436.3c0,0,430.3-972.6-909.3-540.3c-1339.6,432.3-1132-164.3-951.4-464.8
				c195.9-325.8,457.1-524.1,433.8-846.4c-30.6-422.8-645.9-438.2-1161.9-707C-570,228.8-410.5,612.3,64.2,302
				S272.4-109.6-384.3-85.9c-1418.2,51.2,277-404.9,513.9-623.7s196.2-718.9-920.1-380.8s-696.6-478.2-696.6-478.2l-1175.5,0
				l0,5004.9L3264.6,3436.3z"/>
			
				<linearGradient id="Path_2-2_1_" gradientUnits="userSpaceOnUse" x1="1325.501" y1="355.8566" x2="1322.0759" y2="351.5916" gradientTransform="matrix(-124.6165 982.9028 641.0961 191.057 -63654.8242 -1367609.875)">
				<stop  offset="0" style="stop-color:#2BA6F8"/>
				<stop  offset="1" style="stop-color:#000000"/>
			</linearGradient>
			<path id="Path_2-2" class="st11" d="M-1345.7,3436.3c0,0,1603.7,84.2,1889.3-977c311.1-1156.3-684-1699.9-1021.5-1434.5
				s-352.8,626.1,172.6,864.2s472.6,971.8-676.3,788.7S-2263.3,1022.6-1431,670.4S-801.5-96.4-1696.8-537
				s-405.7-1031.6-405.7-1031.6l-560,0l0,5004.9H-1345.7z"/>
		</g>
		<path id="microchip-3" class="st4" d="M2928.4,564.3l167.8-117.6l30.1,42.9l-30.1,171.1l49.5,70.7c-4.4,13.5,3,28.1,16.5,32.5
			c13.5,4.4,28.1-3,32.5-16.5c4.4-13.5-3-28.1-16.5-32.5c-2.3-0.8-4.7-1.2-7.2-1.3l-42.2-60.2l30.1-171.1l-37.4-53.4l76-53.2
			l44.1,63c-4.4,13.5,3,28.1,16.5,32.5s28.1-3,32.5-16.5s-3-28.1-16.5-32.5c-2.3-0.8-4.7-1.2-7.2-1.3l-44.1-63l66.5-46.6l125.5,179
			l-73.9,51.8l-47.6-8.4c-6.4-12.9-22-18.1-34.9-11.7s-18.1,22-11.7,34.9c6.4,12.9,22,18.1,34.9,11.7c2.3-1.2,4.4-2.6,6.3-4.4
			l60.2,10.6l84.4-59.1l40.9,58.4l-133.8,93.8l-11,44.1c-13.1,5.5-19.3,20.6-13.7,33.8c5.5,13.1,20.6,19.3,33.8,13.7
			c13.1-5.5,19.3-20.6,13.7-33.8c-0.7-1.7-1.6-3.3-2.6-4.8c-0.4-0.5-0.7-1-1.1-1.4l8.2-32.9l124.3-87.1l51,72.8L3234.3,888
			l-90.1-15.9l-159.8-228l52.4-36.7c13.5,4.4,28.1-3,32.5-16.5c4.4-13.5-3-28.1-16.5-32.5s-28.1,3-32.5,16.5
			c-0.8,2.3-1.2,4.7-1.3,7.2l-52.4,36.7L2928.4,564.3z"/>
		<path id="microchip-4" class="st4" d="M2400.1-20.6l201.7-35.6l9.1,51.6l-99.6,142.3l15,85c-9.7,10.4-9.2,26.7,1.2,36.4
			c10.4,9.7,26.7,9.2,36.4-1.2c9.7-10.4,9.2-26.7-1.2-36.4c-1.8-1.7-3.8-3.1-6-4.2L2544,145l99.6-142.3l-11.3-64.2l91.3-16.1
			L2737-1.9c-9.7,10.4-9.2,26.7,1.2,36.4s26.7,9.2,36.4-1.2s9.2-26.7-1.2-36.4c-1.8-1.7-3.8-3.1-6-4.2L2754.1-83l79.9-14.1l38,215.3
			l-88.8,15.7l-39.6-27.7c-0.4-14.4-12.3-25.7-26.7-25.3c-14.4,0.4-25.7,12.3-25.3,26.7c0.4,14.4,12.3,25.7,26.7,25.3
			c2.6-0.1,5.1-0.5,7.6-1.3l50.1,35.1l101.5-17.9l12.4,70.2l-160.9,28.4l-28.6,35.3c-14.2-0.5-26.2,10.6-26.7,24.8
			s10.6,26.2,24.8,26.7c14.2,0.5,26.2-10.6,26.7-24.8c0.1-1.8-0.1-3.7-0.4-5.4c-0.1-0.6-0.3-1.2-0.4-1.8l21.4-26.3l149.5-26.4
			l15.4,87.5l-370.2,65.3l-74.9-52.5l-48.3-274.2l63-11.1c10.4,9.7,26.7,9.2,36.4-1.2s9.2-26.7-1.2-36.4s-26.7-9.2-36.4,1.2
			c-1.7,1.8-3.1,3.8-4.2,6l-63,11.1L2400.1-20.6z"/>
	</g>
</g>
</svg>
