<?xml version="1.0" encoding="UTF-8"?>
<svg enable-background="new 704 -284 1920 1080" version="1.1" viewBox="704 -284 1920 1080" xml:space="preserve" xmlns="http://www.w3.org/2000/svg" xmlns:xlink="http://www.w3.org/1999/xlink">
<style type="text/css">
	.st0{clip-path:url(#a);}
	.st1{fill:#FFFFFF;}
	.st2{opacity:0.4;}
	.st3{fill:#BBCEE1;}
	.st4{opacity:0.2;fill:#FFFFFF;enable-background:new    ;}
	.st5{fill:#0B3B56;}
	.st6{opacity:0.2;}
	.st7{fill:#666666;}
	.st8{fill:#F33052;}
	.st9{fill:url(#c);}
	.st10{fill:url(#e);}
	.st11{fill:url(#d);}
</style>
	<defs>
		<rect id="b" x="-6275.6" y="-4604" width="9600" height="5400"/>
	</defs>
	<clipPath id="a">
		<use xlink:href="#b"/>
	</clipPath>
	<g class="st0">
		<rect class="st1" x="-6275.6" y="-4604" width="9600" height="5400"/>
		<g transform="translate(2214.6 700.79) rotate(149)">
			<g class="st2" transform="translate(205.78 106.86)">
					<path class="st1" d="M-2318.2,915.7V900l408.2-235.4v15.7L-2318.2,915.7z"/>
					<path class="st1" d="m-1819.1 640.9v15.7l-66.1 38.1v-15.7l66.1-38.1z"/>
					<path class="st1" d="m-2318.2 944.5v-15.7l408.2-235.4v15.7l-408.2 235.4z"/>
					<path class="st1" d="m-1819.1 727.1v15.7l-66.1 38.2v-15.7l66.1-38.2z"/>
					<path class="st1" d="m-1819.1 755.9v15.8l-66.1 38.1v-15.7l66.1-38.2z"/>
					<path class="st1" d="m-1819.1 870.9v15.7l-66.1 38.1v-15.7l66.1-38.1z"/>
					<path class="st1" d="m-1819.1 899.7v15.7l-66.1 38.1v-15.7l66.1-38.1z"/>
					<g transform="translate(30.132 62.257)">
						<path class="st1" d="m-2197.7 1038.4l257.5-148.5v15.7l-257.5 148.5v-15.7z"/>
					</g>
					<g transform="translate(0 56.505)">
						<path class="st1" d="m-2039.4 941.5l129.4-74.6v15.7l-129.4 74.6v-15.7z"/>
						<path class="st1" d="m-2053 949.3v15.7l-265.2 153v-15.7l265.2-153z"/>
					</g>
					<path class="st1" d="m-2283.3 1052.4v15.7l-34.9 20.1v-15.7l34.9-20.1z"/>
					<path class="st1" d="m-2093.5 914.1l183.4-105.8v15.7l-183.4 105.8v-15.7z"/>
					<g transform="translate(24.493 1.538)">
						<path class="st1" d="m-2220.2 741.5l163.9-94.5v15.7l-163.9 94.5v-15.7z"/>
					</g>
					<path class="st1" d="M-2100.2,716.8l115.4-66.5V666l-115.4,66.5V716.8z"/>
					<g transform="translate(0 16.741)">
						<path class="st1" d="m-2221.3 769.8l107.5-62v15.7l-107.5 62v-15.7z"/>
						<path class="st1" d="m-2234.9 777.7v15.7l-83.3 48.1v-15.7l83.3-48.1z"/>
					</g>
					<path class="st1" d="m-1931.4 648.1v15.7l-86.9 50.1v-15.7l86.9-50.1z"/>
					<path class="st1" d="m-2284.2 851.6l252.3-145.5v15.7l-252.3 145.5v-15.7z"/>
					<path class="st1" d="m-2139.7 854.6l164.9-95.1v15.7l-164.9 95.1v-15.7z"/>
					<path class="st1" d="m-2284.2 937.9l130.9-75.5v15.7l-130.9 75.5v-15.7z"/>
					<g transform="translate(9.692 56.22)">
						<path class="st1" d="m-2279.4 959.6l162.7-93.9v15.7l-162.7 93.9v-15.7z"/>
					</g>
					<path class="st1" d="m-2181.1 993.5v15.7l-88.6 51.1v-15.7l88.6-51.1z"/>
					<path class="st1" d="m-1942 855.5l31.9-18.4v15.7l-31.9 18.4v-15.7z"/>
					<g transform="translate(30.132 44.497)">
						<path class="st1" d="m-2031.9 845.5v15.7l-165.8 95.6v-15.7l165.8-95.6z"/>
						<path class="st1" d="m-2018.3 837.7l32.6-18.8v15.7l-32.6 18.8v-15.7z"/>
					</g>
					<path class="st1" d="m-2136.9 996.7l181.3-104.6v15.7l-181.3 104.6v-15.7z"/>
			</g>
			<g class="st2" transform="translate(205.78)">
				<path class="st1" d="m-2171.7 372.2l274.2-158.8v13.9l-274.2 158.8v-13.9z"/>
				<path class="st1" d="m-1897.5 254.8l-420.7 243.3v-13.9l420.7-243.4v14z"/>
				<path class="st1" d="m-2190.1 382.6v13.9l-128.1 74.2v-13.9l128.1-74.2z"/>
				<path class="st1" d="m-2171.7 425.7l274.2-158.8v13.9l-274.2 158.8v-13.9z"/>
				<path class="st1" d="m-1897.5 308.2l-420.7 243.3v-13.9l420.7-243.4v14z"/>
				<path class="st1" d="M-2190.1,450l-128.1,74.2v-13.9l128.1-74.2V450z"/>
				<path class="st1" d="M-2171.7,513.9l274.2-158.8V369l-274.2,158.8V513.9z"/>
				<path class="st1" d="m-1897.5 396.4l-420.7 243.3v-14l420.7-243.3v14z"/>
				<path class="st1" d="m-2190.1 538.2l-128.1 74.2v-14l128.1-74.2v14z"/>
				<path class="st1" d="m-2171.7 567.4l274.2-158.8v13.9l-274.2 158.8v-13.9z"/>
				<path class="st1" d="m-1897.5 449.9l-420.7 243.3v-13.9l420.7-243.3v13.9z"/>
				<path class="st1" d="m-2190.1 591.6l-128.1 74.2v-14l128.1-74.2v14z"/>
				<path class="st1" d="m-2171.7 655.6l274.2-158.8v13.9l-274.2 158.8v-13.9z"/>
				<path class="st1" d="m-1897.5 538.1l-420.7 243.3v-14l420.7-243.3v14z"/>
				<path class="st1" d="m-2190.1 679.9l-128.1 74.2v-14l128.1-74.2v14z"/>
				<path class="st1" d="M-2171.7,709l274.2-158.8v13.9L-2171.7,723V709z"/>
				<path class="st1" d="m-2190.1 733.3l-128.1 74.2v-13.9l128.1-74.2v13.9z"/>
			</g>
			<g transform="translate(411.26 196.79)">
					<path class="st3" d="m-1496.3 1000.6l0.4 0.2c-0.1-0.1-0.3-0.1-0.4-0.2z"/>
			</g>
			<g class="st2" transform="translate(428.26 115.57)">
					<path class="st1" d="m-929.2 675.7v15.7l-66.1 38.1v-15.7l66.1-38.1z"/>
					<path class="st1" d="m-929.2 704.5v15.7l-66.1 38.1v-15.7l66.1-38.1z"/>
					<path class="st1" d="m-929.2 733.2v15.8l-66.1 38.1v-15.7l66.1-38.2z"/>
					<path class="st1" d="m-1428.3 1065.6v-15.8l408.2-235.4v15.7l-408.2 235.5z"/>
					<path class="st1" d="m-929.2 762v15.7l-66.1 38.1v-15.7l66.1-38.1z"/>
					<path class="st1" d="m-929.2 790.7v15.7l-66.1 38.1v-15.7l66.1-38.1z"/>
					<path class="st1" d="m-1428.3 1094.4v-15.7l408.2-235.4v15.7l-408.2 235.4z"/>
					<path class="st1" d="m-929.2 877v15.7l-66.1 38.1v-15.8l66.1-38z"/>
					<path class="st1" d="m-929.2 905.8v15.7l-66.1 38.1v-15.7l66.1-38.1z"/>
					<path class="st1" d="m-929.2 1020.8v15.7l-66.1 38.1v-15.7l66.1-38.1z"/>
					<path class="st1" d="m-929.2 1049.6v15.7l-66.1 38.1v-15.7l66.1-38.1z"/>
					<g transform="translate(0 85.264)">
						<path class="st1" d="m-1277.6 1165.3l257.5-148.5v15.7l-257.5 148.5v-15.7z"/>
						<path class="st1" d="m-1291.2 1173.1v15.7l-137.1 79.1v-15.7l137.1-79.1z"/>
					</g>
					<g transform="translate(0 79.512)">
						<path class="st1" d="m-1149.5 1068.4l129.4-74.6v15.7l-129.4 74.6v-15.7z"/>
						<path class="st1" d="m-1163.1 1076.2v15.7l-265.2 153v-15.7l265.2-153z"/>
					</g>
					<path class="st1" d="m-1393.4 1202.3v15.7l-34.9 20.1v-15.7l34.9-20.1z"/>
					<path class="st1" d="M-1203.5,1064l183.4-105.8V974l-183.4,105.8V1064z"/>
					<path class="st1" d="m-1128.4 790.6l108.2-62.4v15.7l-108.2 62.4v-15.7z"/>
					<g transform="translate(24.493 24.544)">
						<path class="st1" d="m-1330.3 868.4l163.9-94.5v15.7l-163.9 94.5v-15.7z"/>
					</g>
					<path class="st1" d="m-1210.3 866.6l115.4-66.5v15.7l-115.4 66.5v-15.7z"/>
					<g transform="translate(0 39.748)">
						<path class="st1" d="m-1331.3 896.7l107.5-62v15.7l-107.5 62v-15.7z"/>
						<path class="st1" d="m-1344.9 904.5v15.8l-83.3 48.1v-15.7l83.3-48.2z"/>
					</g>
					<path class="st1" d="m-1041.4 798v15.7l-86.9 50.1v-15.7l86.9-50.1z"/>
					<path class="st1" d="m-1394.3 1001.5l252.3-145.5v15.7l-252.3 145.5v-15.7z"/>
					<path class="st1" d="m-1249.8 1004.4l164.9-95.1v15.7l-164.9 95.1v-15.7z"/>
					<path class="st1" d="m-1394.3 1087.8l130.9-75.5v15.7l-130.9 75.5v-15.7z"/>
					<g transform="translate(9.692 79.227)">
						<path class="st1" d="m-1389.5 1086.5l162.7-93.9v15.7l-162.7 93.9v-15.7z"/>
					</g>
					<path class="st1" d="m-1291.2 1143.3v15.7l-88.6 51.1v-15.7l88.6-51.1z"/>
					<path class="st1" d="m-1052 1005.4l31.9-18.4v15.7l-31.9 18.4v-15.7z"/>
					<g transform="translate(30.132 67.504)">
						<path class="st1" d="m-1141.9 972.4v15.8l-165.8 95.6v-15.8l165.8-95.6z"/>
						<path class="st1" d="m-1128.4 964.5l32.6-18.8v15.7l-32.6 18.8v-15.7z"/>
					</g>
					<path class="st1" d="m-1246.9 1146.6l181.3-104.6v15.7l-181.3 104.6v-15.7z"/>
			</g>
			<path class="st4" d="m-2473 995.9l204.9-118.2c7.2-4.1 16.3-1.7 20.5 5.5 1.3 2.3 2 4.9 2 7.5v245.3c0 11.9-6.4 23-16.7 29l-204.8 118.4c-7.4 4.2-16.8 1.7-21-5.6-1.4-2.3-2.1-5-2.1-7.7v-244.2c-0.1-12.4 6.5-23.8 17.2-30z"/>
			<path class="st4" d="m-1446 388.6l204.9-118.2c7.2-4.1 16.3-1.7 20.5 5.5 1.3 2.3 2 4.9 2 7.5v245.2c0 11.9-6.4 23-16.7 29l-204.8 118.4c-7.4 4.2-16.8 1.7-21-5.6-1.4-2.3-2.1-5-2.1-7.7v-244.2c0-12.3 6.6-23.7 17.2-29.9z"/>
			<path class="st4" d="m-2752.8 522l204.9-118.2c7.2-4.1 16.3-1.7 20.5 5.5 1.3 2.3 2 4.9 2 7.5v245.2c0 11.9-6.4 23-16.7 29l-204.9 118.4c-7.4 4.2-16.8 1.7-21-5.6-1.4-2.3-2.1-5-2.1-7.7v-244.2c0.1-12.4 6.6-23.8 17.3-29.9z"/>
			<path class="st4" d="m-1602.2 1200.8l204.9-118.2c7.2-4.1 16.3-1.7 20.5 5.5 1.3 2.3 2 4.9 2 7.5v245.2c0 11.9-6.4 23-16.7 29l-204.9 118.4c-7.3 4.2-16.7 1.7-21-5.6-1.4-2.3-2.1-5-2.1-7.7v-244.2c0.1-12.4 6.6-23.8 17.3-29.9z"/>
			<g transform="translate(436.57 214.4)">
					<path class="st5" d="m-1395 1104.2"/>
			</g>
			<g transform="translate(38.091 458.12)">
				<path class="st1" d="m-2988.9 2045.9"/>
			</g>
			<g transform="translate(51.215 390.21)">
					<path class="st3" d="m-2936.5 1774.3l0.4 0.2v-0.1c-0.1 0-0.2-0.1-0.4-0.1z"/>
			</g>
			<g transform="translate(169.37 261.74)">
					<path class="st3" d="m-2463.8 1260.4l0.4 0.2v-0.1c-0.1 0-0.3 0-0.4-0.1z"/>
			</g>
			<g transform="translate(287.01 136.27)">
					<path class="st3" d="m-1993.3 758.5l0.4 0.2c-0.1-0.1-0.2-0.1-0.4-0.2z"/>
			</g>
			<g class="st2" transform="translate(124.26 261.82)">
					<path class="st1" d="m-2145.2 1260.7v15.7l-66.1 38.1v-15.7l66.1-38.1z"/>
					<path class="st1" d="m-2145.2 1289.5v15.7l-66.1 38.1v-15.7l66.1-38.1z"/>
					<path class="st1" d="m-2145.2 1318.2v15.7l-66.1 38.2v-15.8l66.1-38.1z"/>
					<path class="st1" d="m-2644.3 1650.6v-15.7l408.2-235.4v15.7l-408.2 235.4z"/>
					<path class="st1" d="m-2145.2 1347v15.7l-66.1 38.1v-15.7l66.1-38.1z"/>
					<path class="st1" d="m-2145.2 1375.8v15.7l-66.1 38.1v-15.7l66.1-38.1z"/>
					<path class="st1" d="m-2644.3 1679.4v-15.7l408.1-235.4v15.7l-408.1 235.4z"/>
					<path class="st1" d="m-2145.2 1462v15.7l-66.1 38.1v-15.7l66.1-38.1z"/>
					<path class="st1" d="m-2145.2 1490.8v15.7l-66.1 38.1v-15.7l66.1-38.1z"/>
					<path class="st1" d="m-2145.2 1605.8v15.7l-66.1 38.1v-15.8l66.1-38z"/>
					<path class="st1" d="m-2145.2 1634.6v15.7l-66.1 38.1v-15.7l66.1-38.1z"/>
					<g transform="translate(0 85.263)">
						<path class="st1" d="m-2493.6 1750.3l257.5-148.5v15.7l-257.5 148.5v-15.7z"/>
						<path class="st1" d="m-2507.2 1758.1v15.7l-137.1 79.1v-15.7l137.1-79.1z"/>
					</g>
					<g transform="translate(0 79.511)">
						<path class="st1" d="m-2365.5 1653.4l129.4-74.6v15.7l-129.4 74.6v-15.7z"/>
						<path class="st1" d="m-2379.1 1661.2v15.8l-265.2 153v-15.7l265.2-153.1z"/>
					</g>
					<path class="st1" d="m-2609.4 1787.3v15.7l-34.9 20.1v-15.7l34.9-20.1z"/>
					<path class="st1" d="M-2419.5,1649l183.4-105.8v15.7l-183.4,105.8V1649z"/>
					<path class="st1" d="m-2344.4 1375.6l108.3-62.4v15.7l-108.3 62.4v-15.7z"/>
					<g transform="translate(24.493 24.544)">
						<path class="st1" d="m-2546.3 1453.4l163.9-94.5v15.7l-163.9 94.5v-15.7z"/>
					</g>
					<path class="st1" d="m-2426.3 1451.6l115.4-66.5v15.7l-115.4 66.5v-15.7z"/>
					<g transform="translate(0 39.748)">
						<path class="st1" d="m-2547.3 1481.7l107.5-62v15.7l-107.5 62v-15.7z"/>
						<path class="st1" d="m-2560.9 1489.5v15.7l-83.4 48.1v-15.7l83.4-48.1z"/>
					</g>
					<path class="st1" d="m-2257.4 1383v15.7l-86.9 50.1v-15.7l86.9-50.1z"/>
					<path class="st1" d="m-2610.3 1586.5l252.3-145.5v15.7l-252.3 145.5v-15.7z"/>
					<path class="st1" d="m-2465.8 1589.5l164.9-95.1v15.7l-164.9 95.1v-15.7z"/>
					<path class="st1" d="m-2610.3 1672.8l130.9-75.5v15.7l-130.9 75.5v-15.7z"/>
					<g transform="translate(9.692 79.227)">
						<path class="st1" d="m-2605.5 1671.5l162.7-93.9v15.7l-162.7 93.9v-15.7z"/>
					</g>
					<path class="st1" d="m-2507.2 1728.4v15.7l-88.6 51.1v-15.7l88.6-51.1z"/>
					<path class="st1" d="m-2268 1590.4l31.9-18.4v15.7l-31.9 18.4v-15.7z"/>
					<g transform="translate(30.132 67.504)">
						<path class="st1" d="m-2357.9 1557.4v15.7l-165.8 95.6v-15.7l165.8-95.6z"/>
						<path class="st1" d="m-2344.4 1549.6l32.6-18.8v15.7l-32.6 18.8v-15.7z"/>
					</g>
					<path class="st1" d="m-2462.9 1731.6l181.3-104.6v15.7l-181.3 104.6v-15.7z"/>
			</g>
			<g class="st2" transform="translate(0 140.62)">
				<g transform="translate(0)">
					<path class="st1" d="m-2642.2 775.9v15.7l-66.1 38.1v-15.7l66.1-38.1z"/>
					<path class="st1" d="m-2642.2 804.7v15.8l-66.1 38.1v-15.7l66.1-38.2z"/>
					<path class="st1" d="m-2642.2 833.4v15.7l-66.1 38.1v-15.7l66.1-38.1z"/>
					<path class="st1" d="m-3141.3 1165.8v-15.8l408.2-235.4v15.7l-408.2 235.5z"/>
					<path class="st1" d="m-2642.2 862.2v15.7l-66.1 38.1v-15.7l66.1-38.1z"/>
					<path class="st1" d="m-2642.2 890.9v15.7l-66.1 38.1v-15.7l66.1-38.1z"/>
					<path class="st1" d="m-3141.3 1194.6v-15.7l408.2-235.4v15.7l-408.2 235.4z"/>
					<path class="st1" d="m-2642.2 977.2v15.8l-66.1 38.1v-15.7l66.1-38.2z"/>
					<path class="st1" d="m-2642.2 1006v15.7l-66.1 38.1v-15.7l66.1-38.1z"/>
					<path class="st1" d="m-2642.2 1121v15.7l-66.1 38.1v-15.7l66.1-38.1z"/>
					<path class="st1" d="m-2642.2 1149.8v15.7l-66.1 38.1v-15.7l66.1-38.1z"/>
					<g transform="translate(30.132 85.264)">
						<path class="st1" d="m-3020.8 1265.5l257.5-148.5v15.7l-257.5 148.5v-15.7z"/>
					</g>
					<g transform="translate(55.757 79.512)">
						<path class="st1" d="m-2918.3 1168.6l129.4-74.6v15.7l-129.4 74.6v-15.7z"/>
					</g>
					<path class="st1" d="m-3106.4 1302.5v15.7l-34.9 20.1v-15.7l34.9-20.1z"/>
					<path class="st1" d="m-2916.6 1164.2l183.4-105.8v15.7l-183.4 105.8v-15.7z"/>
					<path class="st1" d="m-2841.4 890.8l108.2-62.4v15.7l-108.2 62.5v-15.8z"/>
					<g transform="translate(24.493 24.544)">
						<path class="st1" d="m-3043.3 968.6l163.9-94.5v15.7l-163.9 94.5v-15.7z"/>
					</g>
					<path class="st1" d="m-2923.3 966.8l115.4-66.5v15.7l-115.4 66.5v-15.7z"/>
					<g transform="translate(0 39.748)">
						<path class="st1" d="m-3044.4 996.9l107.5-62v15.7l-107.5 62v-15.7z"/>
						<path class="st1" d="m-3058 1004.7v15.7l-83.4 48.1v-15.7l83.4-48.1z"/>
					</g>
					<path class="st1" d="m-2754.5 898.2v15.7l-86.9 50.1v-15.7l86.9-50.1z"/>
					<path class="st1" d="m-3107.3 1101.7l252.3-145.5v15.8l-252.3 145.5v-15.8z"/>
					<path class="st1" d="m-2962.8 1104.6l164.9-95.1v15.7l-164.9 95.1v-15.7z"/>
					<path class="st1" d="M-3107.3,1188l130.9-75.5v15.7l-130.9,75.5V1188z"/>
					<g transform="translate(9.692 79.227)">
						<path class="st1" d="m-3102.5 1186.7l162.7-93.9v15.7l-162.7 93.9v-15.7z"/>
					</g>
					<path class="st1" d="m-3004.2 1243.5v15.7l-88.6 51.1v-15.7l88.6-51.1z"/>
					<path class="st1" d="m-2765.1 1105.6l31.9-18.4v15.7l-31.9 18.4v-15.7z"/>
					<g transform="translate(30.132 67.504)">
						<path class="st1" d="m-2855 1072.6v15.7l-165.8 95.6v-15.7l165.8-95.6z"/>
						<path class="st1" d="m-2841.4 1064.7l32.6-18.8v15.7l-32.6 18.8v-15.7z"/>
					</g>
					<path class="st1" d="m-2960 1246.8l181.3-104.6v15.7l-181.3 104.6v-15.7z"/>
				</g>
			</g>
		</g>
		<g class="st6" transform="matrix(-.946 .326 -.326 -.946 1884.2 198.03)">
					<path class="st1" d="m-1662.6 3637.9v-123.4l-90.2-15c-7.1-27.2-17.9-53.2-32.2-77.4l53.2-74.5-87.3-87.3-74.5 53.2c-24.2-14.3-50.2-25.1-77.4-32.2l-15-90.2h-123.5l-15 90.2c-27.2 7.1-53.2 17.9-77.4 32.2l-74.5-53.2-87.3 87.3 53.2 74.5c-14.3 24.2-25.1 50.2-32.2 77.4l-90.2 15v123.4l90.2 15c7.1 27.2 17.9 53.2 32.2 77.4l-53.2 74.5 87.3 87.3 74.5-53.2c24.2 14.3 50.2 25.1 77.4 32.1l15 90.2h123.5l15-90.2c27.2-7.1 53.2-17.9 77.4-32.2l74.5 53.2 87.3-87.3-53.2-74.5c14.2-24.2 25.1-50.2 32.1-77.4l90.3-14.9zm-119-2.5c-6.9 30.9-19.1 60.4-36.1 87l-5.8 9.1 49.9 69.8-48.9 48.9-69.8-49.9-9.1 5.8c-26.7 17.1-56.1 29.3-87 36.2l-10.6 2.3-14.1 84.5h-69.1l-14.1-84.5-10.6-2.3c-30.9-6.9-60.4-19.1-87-36.2l-9.1-5.8-69.8 49.9-48.8-48.9 49.9-69.8-5.8-9.1c-17-26.7-29.3-56.1-36.1-87l-2.3-10.6-84.5-14.1v-69.1l84.5-14.1 2.3-10.6c6.9-30.9 19.1-60.4 36.1-87l5.8-9.1-49.9-69.8 48.8-48.9 69.8 49.9 9.1-5.8c26.7-17.1 56.1-29.3 87-36.1l10.6-2.4 14.1-84.5h69.1l14.1 84.5 10.6 2.4c30.9 6.9 60.4 19.1 87 36.1l9.1 5.8 69.8-49.9 48.9 48.9-49.9 69.8 5.8 9.1c17 26.7 29.3 56.1 36.1 87l2.3 10.6 84.5 14.1v69.1l-84.5 14.1-2.3 10.6z"/>
			<g transform="translate(44.929 44.929)">
					<path class="st1" d="m-2092.6 3370.8c-88.6 0-160.5 71.8-160.5 160.5 0 88.6 71.8 160.5 160.5 160.5 88.6 0 160.5-71.8 160.5-160.5-0.2-88.6-71.9-160.4-160.5-160.5zm0 288.9c-70.9 0-128.4-57.5-128.4-128.4s57.5-128.4 128.4-128.4 128.4 57.5 128.4 128.4c-0.1 70.9-57.6 128.3-128.4 128.4z"/>
			</g>
		</g>
		<g class="st6" transform="matrix(-.695 .719 -.719 -.695 1999.8 155.17)">
					<path class="st1" d="m-3470.4 1872.3v-94.8l-69.3-11.6c-5.4-20.9-13.7-40.9-24.7-59.5l40.9-57.2-67.1-67-57.2 40.9c-18.6-11-38.6-19.3-59.5-24.7l-11.5-69.3h-94.8l-11.5 69.3c-20.9 5.4-40.9 13.8-59.5 24.7l-57.2-40.9-67.1 67 40.9 57.2c-11 18.6-19.3 38.6-24.7 59.5l-69.3 11.6v94.8l69.3 11.6c5.4 20.9 13.7 40.9 24.7 59.5l-40.9 57.2 67.1 67 57.2-40.9c18.6 11 38.6 19.3 59.5 24.7l11.5 69.3h94.8l11.5-69.3c20.9-5.4 40.9-13.7 59.5-24.7l57.2 40.9 67.1-67-40.9-57.2c11-18.6 19.3-38.6 24.7-59.5l69.3-11.6zm-91.4-1.9c-5.3 23.7-14.7 46.4-27.8 66.8l-4.5 7 38.3 53.6-37.5 37.5-53.7-38.3-7 4.5c-20.5 13.1-43.1 22.5-66.9 27.8l-8.1 1.8-10.8 64.9h-53.1l-10.8-64.9-8.1-1.8c-23.7-5.3-46.3-14.7-66.8-27.8l-7-4.5-53.6 38.3-37.5-37.5 38.3-53.6-4.5-7c-13.1-20.5-22.5-43.1-27.8-66.8l-1.8-8.1-65-10.8v-53.1l64.9-10.8 1.8-8.1c5.3-23.7 14.7-46.4 27.8-66.8l4.5-7-38.3-53.6 37.5-37.5 53.6 38.3 7-4.5c20.5-13.1 43.1-22.5 66.9-27.8l8.1-1.8 10.8-64.9h53.1l10.8 64.9 8.1 1.8c23.7 5.3 46.4 14.7 66.8 27.8l7 4.5 53.6-38.3 37.5 37.5-38.3 53.6 4.5 7c13.1 20.5 22.5 43.1 27.8 66.8l1.8 8.1 64.9 10.8v53.1l-64.9 10.8-1.6 8.1z"/>
			<g transform="translate(34.511 34.511)">
					<path class="st1" d="m-3800.7 1667.1c-68.1 0-123.3 55.2-123.3 123.2 0 68.1 55.2 123.3 123.2 123.3s123.3-55.2 123.3-123.2c-0.1-68-55.2-123.2-123.2-123.3zm0 221.9c-54.5 0-98.6-44.1-98.6-98.6s44.1-98.6 98.6-98.6 98.6 44.1 98.6 98.6c-0.1 54.4-44.2 98.5-98.6 98.6z"/>
			</g>
		</g>
		<path class="st4" d="m-6134-1970.2l-100.1-84 21.5-25.6 110.4-9.7 35.4-42.2c9.1 0.5 16.8-6.5 17.3-15.5s-6.5-16.8-15.5-17.3-16.8 6.5-17.3 15.5c-0.1 1.6 0.1 3.1 0.4 4.6l-30.2 35.9-110.4 9.7-26.8 31.9-45.3-38.1 31.5-37.6c9.1 0.5 16.8-6.5 17.3-15.5 0.5-9.1-6.5-16.8-15.5-17.3s-16.8 6.5-17.3 15.5c-0.1 1.6 0.1 3.1 0.4 4.6l-31.5 37.6-39.7-33.3 89.7-106.9 44.1 37 2.7 30.7c-6.9 6.1-7.5 16.5-1.4 23.4s16.5 7.5 23.4 1.4 7.5-16.5 1.4-23.4c-1.1-1.2-2.3-2.3-3.7-3.1l-3.4-38.9-50.4-42.3 29.2-34.9 79.9 67 29-0.5c5.6 7.2 15.9 8.5 23.1 2.9s8.5-15.9 2.9-23.1-15.9-8.5-23.1-2.9c-0.9 0.7-1.8 1.5-2.5 2.4-0.3 0.3-0.5 0.6-0.7 0.9l-21.6 0.4-74.2-62.3 36.5-43.5 183.8 154.2 5.1 58.2-114.2 136.1-31.3-26.3c0.5-9.1-6.5-16.8-15.5-17.3-9.1-0.5-16.8 6.5-17.3 15.5s6.5 16.8 15.5 17.3c1.6 0.1 3.1-0.1 4.6-0.4l31.3 26.3-27.5 32.9z"/>
		<g class="st6" transform="matrix(-.946 .326 -.326 -.946 1813.6 576.38)">
					<path class="st1" d="m-590.4 2481.3v-173.6l-126.8-21.2c-9.9-38.2-25.2-74.8-45.2-108.9l74.8-104.7-122.7-122.7-104.7 74.8c-34-20.1-70.6-35.3-108.8-45.2l-21.2-126.8h-173.6l-21.2 126.8c-38.2 9.9-74.8 25.1-108.8 45.2l-104.7-74.8-122.7 122.8 74.8 104.7c-20.1 34-35.3 70.6-45.2 108.8l-126.8 21.2v173.6l126.8 21.1c9.9 38.2 25.2 74.9 45.2 108.9l-74.8 104.7 122.7 122.7 104.7-74.8c34 20.1 70.6 35.3 108.8 45.2l21.1 126.8h173.6l21.1-126.8c38.2-9.9 74.8-25.2 108.8-45.2l104.7 74.8 122.7-122.7-74.8-104.7c20.1-34 35.3-70.6 45.2-108.9l127-21.1zm-167.2-3.5c-9.6 43.4-26.8 84.9-50.8 122.4l-8.2 12.8 70.1 98.1-68.7 68.7-98.2-70.1-12.8 8.2c-37.5 24-78.9 41.2-122.4 50.8l-14.9 3.3-19.8 118.8h-97.1l-19.8-118.8-14.9-3.3c-43.4-9.6-84.9-26.8-122.4-50.8l-12.8-8.2-98.2 70.1-68.7-68.7 70.1-98.2-8.2-12.8c-24-37.5-41.2-78.9-50.8-122.4l-3.3-14.9-118.8-19.8v-97.1l118.8-19.8 3.3-14.9c9.6-43.4 26.8-84.9 50.8-122.4l8.2-12.8-70.1-98.2 68.7-68.7 98.2 70.1 12.8-8.2c37.5-24 78.9-41.2 122.4-50.8l14.9-3.3 19.8-118.8h97.1l19.8 118.8 14.9 3.3c43.4 9.6 84.9 26.9 122.4 50.8l12.8 8.2 98.2-70.1 68.7 68.7-70.1 98.2 8.2 12.8c24 37.5 41.2 78.9 50.8 122.4l3.3 14.9 118.9 19.8v97.1l-118.9 19.8-3.3 15z"/>
			<g transform="translate(63.168 63.168)">
					<path class="st1" d="m-1195 2105.7c-124.6 0-225.6 101-225.6 225.6s101 225.6 225.6 225.6 225.6-101 225.6-225.6c-0.1-124.5-101.1-225.4-225.6-225.6zm0 406.1c-99.7 0-180.5-80.8-180.5-180.5s80.8-180.5 180.5-180.5 180.5 80.8 180.5 180.5c-0.1 99.6-80.8 180.4-180.5 180.5z"/>
			</g>
		</g>
		<g class="st6" transform="translate(51.971 309.03) rotate(129)">
			<path class="st7" d="m1582.7 7027.9"/>
			<path d="m1548.1 7088.6"/>
			<path d="m1626.2 7101.3"/>
			<path d="m1700.4 7088.6"/>
			<path class="st8" d="m1625.9 7046.8"/>
			<path d="m1201.2 7088.6"/>
			<path class="st8" d="m1306.2 7046.8"/>
			<g transform="translate(.35)">
				<path class="st1" d="m1382.4 7071.8l-179.8-78.2v-43.3l179.8-77.8v51l-125.4 47.9 125.4 49.7v50.7z"/>
				<path class="st1" d="m1399 7106.2l64.9-271.2h37.8l-65.7 271.2h-37z"/>
				<path class="st1" d="m1518.4 7072v-50.6l125.6-49.4-125.6-48.8v-50.3l180 77.8v42.9l-180 78.4z"/>
			</g>
		</g>
		<g class="st6" transform="translate(210.52 864.58) rotate(171)">
			<path class="st1" d="m5740.6 2450.5l-80.8-131.9c27.4-9.6 41.7-39.6 32.1-66.9-7.4-21-27.3-35.1-49.6-35.1-8.5 0.1-16.8 2.2-24.3 6.3l-99.7-155.5c18.3-22.5 14.9-55.5-7.6-73.8s-55.5-14.9-73.8 7.6c-17 20.9-15.4 51.4 3.8 70.4l-93.6 146.2c-3.5-0.7-7.1-1.1-10.7-1.1-29-0.1-52.5 23.3-52.6 52.3-0.1 22.8 14.5 43 36.2 50l-78 127.4c-0.7 0-1.3-0.2-2-0.2-29.2-0.1-53 23.4-53.1 52.6s23.4 53 52.6 53.1 53-23.4 53.1-52.6c0.1-21.6-13-41.1-33-49.2l77.4-126.3 79.4 129.6c-27.4 9.3-42 39.1-32.7 66.4s39.1 42 66.4 32.7 42-39.1 32.7-66.4c-7.1-20.8-26.3-34.9-48.2-35.5l-80.8-131.9c27.3-9.4 41.7-39.2 32.3-66.4-4.1-11.8-12.2-21.7-23-28l91.6-142.9c16.2 8.2 35.5 7.3 50.8-2.5l98.9 154.3c-20 20.8-19.4 53.8 1.4 73.8 5.7 5.5 12.6 9.6 20.2 12.1l-78 127.4c-0.7 0-1.3-0.2-2-0.2-29.2-0.1-52.9 23.4-53 52.6s23.4 52.9 52.6 53 52.9-23.4 53-52.6c0.1-21.6-13-41-32.9-49.1l77.4-126.3 79.4 129.6c-27.4 9.3-42.1 39.1-32.8 66.5s39.1 42.1 66.5 32.8 42.1-39.1 32.8-66.5c-7.2-21.1-26.5-35.2-48.4-35.8zm-465 48.2c0 19.7-15.9 35.6-35.6 35.6s-35.6-15.9-35.6-35.6 15.9-35.6 35.6-35.6c19.6 0 35.6 15.9 35.6 35.6zm193 4.2c0 19.7-15.9 35.6-35.6 35.6s-35.6-15.9-35.6-35.6 15.9-35.6 35.6-35.6 35.6 16 35.6 35.6zm-132.2-198.1c-19.7 0-35.6-16-35.6-35.6s16-35.6 35.6-35.6 35.6 15.9 35.6 35.6c0 19.6-15.9 35.6-35.6 35.6zm245.1 193.9c0 19.7-15.9 35.6-35.6 35.6s-35.6-15.9-35.6-35.6c0-19.6 15.9-35.6 35.6-35.6s35.6 15.9 35.6 35.6zm-139.3-464.5c0-19.7 15.9-35.6 35.6-35.6s35.6 15.9 35.6 35.6-15.9 35.6-35.6 35.6c-19.6 0-35.5-15.9-35.6-35.6zm164.6 235c0-19.7 15.9-35.6 35.6-35.6s35.6 15.9 35.6 35.6-15.9 35.6-35.6 35.6-35.6-16-35.6-35.6zm132.2 269.3c-19.7 0-35.6-15.9-35.6-35.6s15.9-35.6 35.6-35.6 35.6 15.9 35.6 35.6c-0.1 19.7-16 35.6-35.6 35.6z"/>
		</g>
		<path class="st4" d="m-5826.3 351.4l-83.3 187.1-47.9-21.3-62.2-162.2-78.8-35.1c-3.2-13.9-17-22.5-30.9-19.4-13.9 3.2-22.5 17-19.4 30.9 3.2 13.9 17 22.5 30.9 19.4 2.4-0.5 4.7-1.4 6.8-2.6l67.1 29.9 62.2 162.2 59.6 26.5-37.7 84.7-70.3-31.3c-3.2-13.9-17-22.5-30.9-19.4-13.9 3.2-22.5 17-19.4 30.9 3.2 13.9 17 22.5 30.9 19.4 2.4-0.5 4.7-1.4 6.8-2.6l70.3 31.3-33 74.1-199.7-88.9 36.7-82.4 45.1-17.3c12.1 7.7 28.2 4.2 35.9-7.9s4.2-28.2-7.9-35.9-28.2-4.2-35.9 7.9c-1.4 2.2-2.4 4.5-3.1 7l-57.1 21.9-41.9 94.1-65.1-29 66.4-149.2-13.3-43.5c8.4-11.5 5.9-27.6-5.6-36s-27.6-5.9-36 5.6-5.9 27.6 5.6 36c1.5 1.1 3.1 2 4.7 2.7 0.6 0.2 1.1 0.4 1.7 0.7l9.9 32.4-61.8 138.7-81.2-36.2 152.9-343.4 85.4-32.8 254.3 113.2-26 58.5c-13.9 3.2-22.5 17-19.4 30.9 3.2 13.9 17 22.5 30.9 19.4 13.9-3.2 22.5-17 19.4-30.9-0.5-2.4-1.4-4.7-2.6-6.8l26-58.5 60.9 27.2z"/>
		<g transform="translate(-409.06 1655.5) rotate(-77)">
				<linearGradient id="c" x1="1514" x2="1510.5" y1="1512" y2="1507.8" gradientTransform="matrix(146.91 968.9 636.36 -223.69 -1.1864e6 -1.1357e6)" gradientUnits="userSpaceOnUse">
				<stop stop-color="#2BA6F8" offset="0"/>
				<stop offset="1"/>
			</linearGradient>
			<path class="st9" d="m-2429.3-7253.5s1603.7-83.6 1889.3 970.2c311.1 1148.3-684 1688.2-1021.5 1424.6s-352.8-621.8 172.6-858.2 472.6-965.1-676.3-783.2-1281.8 1643.6-449.4 1993.4c832.3 349.8 629.5 761.5-265.8 1199.1s-405.6 1024.5-405.6 1024.5h-560v-4970.4h1316.7z"/>
		</g>
		<g transform="translate(1310.9 1879.2) rotate(259)">
				<linearGradient id="e" x1="1326.4" x2="1321.4" y1="359.12" y2="353.55" gradientTransform="matrix(-228.7 982.59 1176.6 191 -1.166e5 -1.3672e6)" gradientUnits="userSpaceOnUse">
				<stop stop-color="#2BA6F8" offset="0"/>
				<stop stop-color="#090909" offset=".906"/>
				<stop offset="1"/>
			</linearGradient>
			<path class="st10" d="m3264.6 3436.3s430.3-972.6-909.3-540.3-1132-164.3-951.4-464.8c195.9-325.8 457.1-524.1 433.8-846.4-30.6-422.8-645.9-438.2-1161.9-707-1245.8-649-1086.3-265.5-611.6-575.8s208.2-411.6-448.5-387.9c-1418.2 51.2 277-404.9 513.9-623.7s196.2-718.9-920.1-380.8-696.6-478.2-696.6-478.2h-1175.5v5004.9h5927.2z"/>
				<linearGradient id="d" x1="1325.5" x2="1322.1" y1="355.86" y2="351.59" gradientTransform="matrix(-124.62 982.9 641.1 191.06 -63655 -1.3676e6)" gradientUnits="userSpaceOnUse">
				<stop stop-color="#2BA6F8" offset="0"/>
				<stop offset="1"/>
			</linearGradient>
			<path class="st11" d="m-1345.7 3436.3s1603.7 84.2 1889.3-977c311.1-1156.3-684-1699.9-1021.5-1434.5s-352.8 626.1 172.6 864.2 472.6 971.8-676.3 788.7-1281.7-1655.1-449.4-2007.3 629.5-766.8-265.8-1207.4-405.7-1031.6-405.7-1031.6h-560v5004.9h1316.8z"/>
		</g>
		<path class="st4" d="m2928.4 564.3l167.8-117.6 30.1 42.9-30.1 171.1 49.5 70.7c-4.4 13.5 3 28.1 16.5 32.5s28.1-3 32.5-16.5-3-28.1-16.5-32.5c-2.3-0.8-4.7-1.2-7.2-1.3l-42.2-60.2 30.1-171.1-37.4-53.4 76-53.2 44.1 63c-4.4 13.5 3 28.1 16.5 32.5s28.1-3 32.5-16.5-3-28.1-16.5-32.5c-2.3-0.8-4.7-1.2-7.2-1.3l-44.1-63 66.5-46.6 125.5 179-73.9 51.8-47.6-8.4c-6.4-12.9-22-18.1-34.9-11.7s-18.1 22-11.7 34.9 22 18.1 34.9 11.7c2.3-1.2 4.4-2.6 6.3-4.4l60.2 10.6 84.4-59.1 40.9 58.4-133.8 93.8-11 44.1c-13.1 5.5-19.3 20.6-13.7 33.8 5.5 13.1 20.6 19.3 33.8 13.7 13.1-5.5 19.3-20.6 13.7-33.8-0.7-1.7-1.6-3.3-2.6-4.8-0.4-0.5-0.7-1-1.1-1.4l8.2-32.9 124.3-87.1 51 72.8-307.9 215.7-90.1-15.9-159.8-228 52.4-36.7c13.5 4.4 28.1-3 32.5-16.5s-3-28.1-16.5-32.5-28.1 3-32.5 16.5c-0.8 2.3-1.2 4.7-1.3 7.2l-52.4 36.7-38.2-54.5z"/>
		<path class="st4" d="m2400.1-20.6l201.7-35.6 9.1 51.6-99.6 142.3 15 85c-9.7 10.4-9.2 26.7 1.2 36.4s26.7 9.2 36.4-1.2 9.2-26.7-1.2-36.4c-1.8-1.7-3.8-3.1-6-4.2l-12.7-72.3 99.6-142.3-11.3-64.2 91.3-16.1 13.4 75.7c-9.7 10.4-9.2 26.7 1.2 36.4s26.7 9.2 36.4-1.2 9.2-26.7-1.2-36.4c-1.8-1.7-3.8-3.1-6-4.2l-13.3-75.7 79.9-14.1 38 215.3-88.8 15.7-39.6-27.7c-0.4-14.4-12.3-25.7-26.7-25.3s-25.7 12.3-25.3 26.7 12.3 25.7 26.7 25.3c2.6-0.1 5.1-0.5 7.6-1.3l50.1 35.1 101.5-17.9 12.4 70.2-160.9 28.4-28.6 35.3c-14.2-0.5-26.2 10.6-26.7 24.8s10.6 26.2 24.8 26.7 26.2-10.6 26.7-24.8c0.1-1.8-0.1-3.7-0.4-5.4-0.1-0.6-0.3-1.2-0.4-1.8l21.4-26.3 149.5-26.4 15.4 87.5-370.2 65.3-74.9-52.5-48.3-274.2 63-11.1c10.4 9.7 26.7 9.2 36.4-1.2s9.2-26.7-1.2-36.4-26.7-9.2-36.4 1.2c-1.7 1.8-3.1 3.8-4.2 6l-63 11.1-11.8-65.8z"/>
	</g>
</svg>
