<svg xmlns="http://www.w3.org/2000/svg" xmlns:xlink="http://www.w3.org/1999/xlink" width="256" height="256" viewBox="0 0 256 256"><defs><filter id="a" x="-97.5" y="-97.5" width="471" height="471" filterUnits="userSpaceOnUse"><feOffset dx="10" dy="10" input="SourceAlpha"/><feGaussianBlur stdDeviation="49.5" result="b"/><feFlood flood-opacity="0.161"/><feComposite operator="in" in2="b"/><feComposite in="SourceGraphic"/></filter><filter id="c" x="-35.988" y="-35.988" width="347.977" height="347.977" filterUnits="userSpaceOnUse"><feOffset dx="10" dy="10" input="SourceAlpha"/><feGaussianBlur stdDeviation="49.5" result="d"/><feFlood flood-opacity="0.161"/><feComposite operator="in" in2="d"/><feComposite in="SourceGraphic"/></filter><filter id="e" x="-23.647" y="-32.68" width="323.295" height="341.36" filterUnits="userSpaceOnUse"><feOffset dx="10" dy="10" input="SourceAlpha"/><feGaussianBlur stdDeviation="49.5" result="f"/><feFlood flood-opacity="0.161"/><feComposite operator="in" in2="f"/><feComposite in="SourceGraphic"/></filter><clipPath id="h"><rect width="256" height="256"/></clipPath></defs><g id="g" clip-path="url(#h)"><rect width="225" height="225" rx="10" transform="translate(16 16)" fill="#62a5fd"/><g transform="translate(41 41)"><g transform="matrix(1, 0, 0, 1, -41, -41)" filter="url(#a)"><path d="M174,71.707v-10.2H143.074V41.121h-10.2v-10.2H112.488V0h-10.2V30.926H92.1V0H81.9V30.926h-10.2V0h-10.2V30.926H41.121v10.2h-10.2V61.512H0v10.2H30.926V81.9H0V92.1H30.926v10.2H0v10.2H30.926v20.391h10.2v10.2H61.512V174h10.2V143.074H81.9V174H92.1V143.074h10.2V174h10.2V143.074h20.391v-10.2h10.2V112.488H174v-10.2H143.074V92.1H174V81.9H143.074v-10.2Zm-51.316,50.977H51.316V51.316h71.367Z" transform="translate(41 41)" fill="#fff"/></g><g transform="matrix(1, 0, 0, 1, -41, -41)" filter="url(#c)"><path d="M181,181h50.977v50.977H181Z" transform="translate(-78.49 -78.49)" fill="#fff"/></g></g><g transform="translate(114.853 105.82)"><g transform="matrix(1, 0, 0, 1, -114.85, -105.82)" filter="url(#e)"><path d="M151.374,35.415l-17.53,23.566h11.687l-2.922,20.794,17.53-27.725H148.452Z" transform="translate(-18.99 70.4)" fill="#62a5fd"/></g><path d="M260.274,95.826l4.168-25.006Z" transform="translate(-242.45 -64.354)" fill="#62a5fd"/></g></g></svg>