<svg width="100" height="100" viewBox="0 0 100 100" fill="none" xmlns="http://www.w3.org/2000/svg">
<g clip-path="url(#clip0_60_2)">
<mask id="mask0_60_2" style="mask-type:luminance" maskUnits="userSpaceOnUse" x="0" y="0" width="100" height="100">
<path d="M100 0H0V100H100V0Z" fill="white"/>
</mask>
<g mask="url(#mask0_60_2)">
<path d="M100 0H0V100H100V0Z" fill="#D9D9D9"/>
<path d="M179.585 108.554H-44.6571V-8.61243H179.585V108.554Z" fill="#111111"/>
<path d="M34.8712 31.2019H44.9583V57.0455C44.946 59.4997 44.3262 61.6595 43.0991 63.5247C41.8843 65.3777 40.2031 66.8257 38.0555 67.8688C35.9205 68.8995 33.46 69.415 30.6744 69.415C28.257 69.415 26.048 68.9978 24.0479 68.1633C22.0476 67.3166 20.4524 65.9912 19.2621 64.1874C18.0717 62.3712 17.4827 60.0152 17.4949 57.119H27.7292C27.7661 58.064 27.9256 58.8616 28.2079 59.512C28.5024 60.1624 28.9074 60.6531 29.4227 60.9845C29.9504 61.3035 30.5886 61.4632 31.337 61.4632C32.0978 61.4632 32.7359 61.2975 33.2514 60.966C33.779 60.6348 34.1779 60.1439 34.4479 59.4935C34.7177 58.831 34.8589 58.0149 34.8712 57.0455V31.2019ZM48.7777 39.4483V31.2019H81.5422V39.4483H70.2034V68.8995H60.1165V39.4483H48.7777Z" fill="white"/>
</g>
</g>
<defs>
<clipPath id="clip0_60_2">
<rect width="100" height="100" fill="white"/>
</clipPath>
</defs>
</svg>
