<?xml version="1.0" encoding="UTF-8"?>
<svg width="226.41" height="331.94" viewBox="0 0 226.408 331.943" xmlns="http://www.w3.org/2000/svg">
<g transform="translate(0)">
<path transform="translate(-15.103 -236.06)" d="M228.117,326.8,71.091,237.981c-4.8-2.714-10.308-2.6-15.716.607h0L20.9,258.1l16.026,21.313L42.9,286.12V438.608a25.351,25.351,0,0,0,12.957,22.013l117.52,66.6,1.2,6.405,23.987,32.943L235.45,545.31l.181-.1.249-.143v-.017a11.509,11.509,0,0,0,5.623-9.9l.009-185.635A26.121,26.121,0,0,0,228.117,326.8Z" fill="#ffc73b"/>
<path transform="translate(-25.168 -218)" d="m201.48 329.89-158.88-89.864c-7.755-4.382-17.436 1.112-17.436 9.877v186.42a25.333 25.333 0 0 0 12.956 22.013l158.85 90.023c7.953 4.509 17.892-1.121 17.892-10.113v-185.64a26.126 26.126 0 0 0 -13.387 -22.72z" fill="#f9b800"/>
<g transform="translate(183.44 104.86)">
<path transform="translate(-25.867 -49.738)" d="m26.116 275.26l-0.224 0.135-0.026-0.034c0.087-0.042 0.173-0.061 0.25-0.101z" fill="#bbcee1"/>
<path transform="translate(-20.563 -248.5)" d="M26.822,463.884V278.249a25.437,25.437,0,0,0-1.814-8.95l36.849-20.8a25.454,25.454,0,0,1,1.677,8.6l-.009,185.635a11.509,11.509,0,0,1-5.623,9.9v.017l-.249.143-.181.1L20.9,473.972A11.53,11.53,0,0,0,26.822,463.884Z" fill="#ce8900"/>
</g>
<g transform="translate(20.153 134.13)" fill="#fff">
<path transform="translate(-39.143 -251.97)" d="M39.143,260l49.214,52.384.038-13.348L54.478,264.053l34.014,1.509.04-13.431-49.366-.158Z"/>
<path transform="translate(20.477 -244.77)" d="m33.8 319.42l13.733 7.773 27.335-66.457-13.768-7.793z"/>
<path transform="translate(72.464 -226.52)" d="M27.686,255.4l-.039,13.431L61.6,305.789,27.55,302.3l-.038,13.349,49.392,3.42.023-8.025Z"/>
</g>
</g>
</svg>
