<?xml version="1.0" encoding="UTF-8"?>
<svg enable-background="new 704 -824 1920 2160" version="1.1" viewBox="704 -824 1920 2160" xml:space="preserve" xmlns="http://www.w3.org/2000/svg" xmlns:xlink="http://www.w3.org/1999/xlink">
<style type="text/css">
	.st0{clip-path:url(#a);}
	.st1{fill:#FFFFFF;}
	.st2{fill:url(#e);}
	.st3{fill:url(#c);}
	.st4{fill:url(#f);}
	.st5{fill:url(#d);}
	.st6{opacity:0.4;}
	.st7{fill:#BBCEE1;}
	.st8{opacity:0.2;fill:#FFFFFF;enable-background:new    ;}
	.st9{fill:#0B3B56;}
	.st10{opacity:0.2;}
	.st11{fill:#FFC73B;}
	.st12{fill:#F9B800;}
	.st13{fill:#CE8900;}
	.st14{opacity:0.27;}
</style>
	<defs>
		<rect id="b" x="704" y="-824" width="1920" height="2160"/>
	</defs>
	<clipPath id="a">
		<use xlink:href="#b"/>
	</clipPath>
	<g class="st0">
		<rect class="st1" x="704" y="-824" width="1920" height="2160"/>
		<g transform="translate(3507.8 1702.1) rotate(149)">
				<linearGradient id="e" x1="1186" x2="1185.4" y1="2101.8" y2="2102.5" gradientTransform="matrix(2297.8 1215 -1536.1 2280.9 5.0576e5 -6.2333e6)" gradientUnits="userSpaceOnUse">
				<stop offset="0"/>
				<stop stop-color="#2BA6F8" offset="1"/>
				<stop offset="1"/>
			</linearGradient>
			<path class="st2" d="m3004.3 3146.6l-1858.5 988.2-233.7-439.5s785.5-199.6 170.1-283c-615.5-83.4-521.7-497.9-351.9-473.6s580.7 108.3 279.7-411.9c-139.4-240.9-111-394.8 98.6-278.6s288.7 749.2 282 155.2c-2.8-246-106.7-488.7 44.2-583.7 115-72.3 703.1 189.5 863 198.4 147.5 8.2 1283.8 348.4 857-67.1s-1328.9-1020.7-1328.9-1020.7l1178.4 2216.3z"/>
				<linearGradient id="c" x1="1186" x2="1185.3" y1="2101.7" y2="2102.6" gradientTransform="matrix(1514 537.51 -1259.2 1476.2 8.5337e5 -3.7375e6)" gradientUnits="userSpaceOnUse">
				<stop stop-color="#2BA6F8" offset="0"/>
				<stop offset="1"/>
			</linearGradient>
			<path class="st3" d="m3004.3 3146.6l-1858.5 988.2-111.3-209.4s316.8 66.4 302.4-355.4 99.3-579.5 395.5-337.8 816.4-98.6 656-564.4-443.4-340.6-427.3-97.1-120.9 309-286.6 235.2-161.6-553.2 329.6-665.2c450.8-102.8 738.4 513.5 738.4 513.5l261.8 492.4z"/>
		</g>
		<g transform="translate(3929.8 3320.1) rotate(149)">
				<linearGradient id="f" x1="714.41" x2="713.77" y1="3706" y2="3706.7" gradientTransform="matrix(2297.8 1215 -1536.1 2280.9 4.0544e6 -9.319e6)" gradientUnits="userSpaceOnUse">
				<stop offset="0"/>
				<stop stop-color="#2BA6F8" offset="1"/>
				<stop offset="1"/>
			</linearGradient>
			<path class="st4" d="m3727.8 3581.3l-1858.5 988.2-233.7-439.5s785.5-199.6 170.1-283c-615.5-83.4-521.7-497.9-351.9-473.6s580.7 108.4 279.7-411.8c-139.4-240.9-111-394.8 98.6-278.6s288.7 749.2 282 155.2c-2.8-246-106.7-488.7 44.2-583.7 115-72.3 703.1 189.5 863 198.4 147.5 8.2 1283.8 348.4 857-67.1s-1328.9-1020.8-1328.9-1020.8l1178.4 2216.3z"/>
				<linearGradient id="d" x1="714.39" x2="713.7" y1="3706" y2="3706.8" gradientTransform="matrix(1514 537.51 -1259.2 1476.2 3.5881e6 -5.8518e6)" gradientUnits="userSpaceOnUse">
				<stop stop-color="#2BA6F8" offset="0"/>
				<stop offset="1"/>
			</linearGradient>
			<path class="st5" d="m3727.8 3581.3l-1858.5 988.2-111.3-209.4s316.8 66.4 302.4-355.4 99.3-579.5 395.5-337.8 816.4-98.6 656-564.4-443.4-340.6-427.3-97.1-120.9 309-286.6 235.2-161.6-553.2 329.6-665.2c450.8-102.8 738.4 513.5 738.4 513.5l261.8 492.4z"/>
		</g>
		<g transform="translate(2176.6 706.79) rotate(149)">
			<g class="st6" transform="translate(205.78 106.86)">
					<path class="st1" d="m615.7 1290.1l2.8-1.5-3.2 94.2-2.8 1.5 3.2-94.2z"/>
					<path class="st1" d="m613.6 1285.6l-2.8 1.5 0.5-15.3 2.8-1.5-0.5 15.3z"/>
					<path class="st1" d="m610.7 1292.8l2.8-1.5-3.2 94.2-2.8 1.5 3.2-94.2z"/>
					<path class="st1" d="m598.4 1293.7l-2.8 1.5 0.5-15.3 2.8-1.5-0.5 15.3z"/>
					<path class="st1" d="m593.3 1296.4l-2.8 1.5 0.5-15.3 2.8-1.5-0.5 15.3z"/>
					<path class="st1" d="m573 1307.2l-2.8 1.5 0.5-15.3 2.8-1.5-0.5 15.3z"/>
					<path class="st1" d="m567.9 1309.9l-2.8 1.5 0.5-15.3 2.8-1.5-0.5 15.3z"/>
					<g transform="translate(30.132 62.257)">
						<path class="st1" d="m532.8 1314.3l2-59.4 2.8-1.5-2 59.4-2.8 1.5z"/>
					</g>
					<g transform="translate(0 56.505)">
						<path class="st1" d="m569 1287.8l1-29.9 2.8-1.5-1 29.9-2.8 1.5z"/>
						<path class="st1" d="m569.6 1350.6l-2.8 1.5 2.1-61.2 2.8-1.5-2.1 61.2z"/>
					</g>
					<path class="st1" d="m584.8 1399l-2.8 1.5 0.3-8.1 2.8-1.5-0.3 8.1z"/>
					<path class="st1" d="m588.9 1345.9l1.5-42.3 2.8-1.5-1.5 42.3-2.8 1.5z"/>
					<g transform="translate(24.493 1.538)">
						<path class="st1" d="m604.2 1346.4l1.3-37.8 2.8-1.5-1.3 37.8-2.8 1.5z"/>
					</g>
					<path class="st1" d="m624.4 1328.6l0.9-26.6 2.8-1.5-0.9 26.6-2.8 1.5z"/>
					<g transform="translate(0 16.741)">
						<path class="st1" d="m623.4 1339.8l0.9-24.8 2.8-1.5-0.9 24.8-2.8 1.5z"/>
						<path class="st1" d="m625.4 1360.7l-2.8 1.5 0.7-19.2 2.8-1.5-0.7 19.2z"/>
					</g>
					<path class="st1" d="m622.7 1310.9l-2.8 1.5 0.7-20.1 2.8-1.5-0.7 20.1z"/>
					<path class="st1" d="m617.8 1373.8l2-58.2 2.8-1.5-2 58.2-2.8 1.5z"/>
					<path class="st1" d="m603.8 1348.5l1.3-38 2.8-1.5-1.3 38-2.8 1.5z"/>
					<path class="st1" d="m602.6 1381.9l1-30.2 2.8-1.5-1 30.2-2.8 1.5z"/>
					<g transform="translate(9.692 56.22)">
						<path class="st1" d="m577.8 1330.4l1.3-37.5 2.8-1.5-1.3 37.5-2.8 1.5z"/>
					</g>
					<path class="st1" d="m585.2 1387.8l-2.8 1.5 0.7-20.5 2.8-1.5-0.7 20.5z"/>
					<path class="st1" d="m585 1313.7l0.3-7.4 2.8-1.5-0.3 7.4-2.8 1.5z"/>
					<g transform="translate(30.132 44.497)">
						<path class="st1" d="m555.9 1319.8l-2.8 1.5 1.3-38.3 2.8-1.5-1.3 38.3z"/>
						<path class="st1" d="m554.5 1279.9l0.3-7.5 2.8-1.5-0.3 7.5-2.8 1.5z"/>
					</g>
					<path class="st1" d="m578.4 1361.4l1.4-41.8 2.8-1.5-1.4 41.8-2.8 1.5z"/>
			</g>
			<g class="st6" transform="translate(205.78)">
				<path class="st1" d="m711.1 1405.5l2.3-63.3 2.5-1.3-2.3 63.3-2.5 1.3z"/>
				<path class="st1" d="m711 1343.5l-3.5 97.1-2.5 1.3 3.5-97.1 2.5-1.3z"/>
				<path class="st1" d="m712.4 1438l-2.5 1.3 1.1-29.6 2.5-1.3-1.1 29.6z"/>
				<path class="st1" d="m701.7 1410.6l2.3-63.3 2.5-1.3-2.3 63.3-2.5 1.3z"/>
				<path class="st1" d="m701.6 1348.5l-3.5 97.1-2.5 1.3 3.5-97.1 2.5-1.3z"/>
				<path class="st1" d="m704 1413.5l-1.1 29.6-2.5 1.3 1.1-29.6 2.5-1.3z"/>
				<path class="st1" d="m686.1 1418.8l2.3-63.3 2.5-1.3-2.3 63.3-2.5 1.3z"/>
				<path class="st1" d="m686 1356.8l-3.5 97.1-2.5 1.3 3.5-97.1 2.5-1.3z"/>
				<path class="st1" d="m688.5 1421.7l-1.1 29.6-2.5 1.3 1.1-29.6 2.5-1.3z"/>
				<path class="st1" d="m676.7 1423.9l2.3-63.3 2.5-1.3-2.3 63.3-2.5 1.3z"/>
				<path class="st1" d="m676.6 1361.8l-3.5 97.1-2.5 1.3 3.5-97.1 2.5-1.3z"/>
				<path class="st1" d="m679 1426.8l-1.1 29.6-2.5 1.3 1.1-29.6 2.5-1.3z"/>
				<path class="st1" d="m661.1 1432.1l2.3-63.3 2.5-1.3-2.3 63.3-2.5 1.3z"/>
				<path class="st1" d="m661 1370.1l-3.5 97.1-2.5 1.3 3.5-97.1 2.5-1.3z"/>
				<path class="st1" d="m663.4 1435l-1.1 29.6-2.5 1.3 1.1-29.6 2.5-1.3z"/>
				<path class="st1" d="m651.6 1437.2l2.3-63.3 2.5-1.3-2.3 63.3-2.5 1.3z"/>
				<path class="st1" d="m654 1440.1l-1.1 29.6-2.5 1.3 1.1-29.6 2.5-1.3z"/>
			</g>
			<g transform="translate(411.26 196.79)">
					<path class="st7" d="m279.6 1129.3c0.1 0 0 0 0 0z"/>
			</g>
			<g class="st6" transform="translate(428.26 115.57)">
					<path class="st1" d="m279 1084.6l-2.8 1.5 0.5-15.3 2.8-1.5-0.5 15.3z"/>
					<path class="st1" d="m273.9 1087.3l-2.8 1.5 0.5-15.3 2.8-1.5-0.5 15.3z"/>
					<path class="st1" d="m268.9 1090l-2.8 1.5 0.5-15.3 2.8-1.5-0.5 15.3z"/>
					<path class="st1" d="m260.8 1099.9l2.8-1.5-3.2 94.2-2.8 1.5 3.2-94.2z"/>
					<path class="st1" d="m263.8 1092.7l-2.8 1.5 0.5-15.3 2.8-1.5-0.5 15.3z"/>
					<path class="st1" d="m258.7 1095.4l-2.8 1.5 0.5-15.3 2.8-1.5-0.5 15.3z"/>
					<path class="st1" d="m255.7 1102.6l2.8-1.5-3.2 94.2-2.8 1.5 3.2-94.2z"/>
					<path class="st1" d="m243.5 1103.5l-2.8 1.5 0.5-15.3 2.8-1.5-0.5 15.3z"/>
					<path class="st1" d="m238.4 1106.2l-2.8 1.5 0.5-15.3 2.8-1.5-0.5 15.3z"/>
					<path class="st1" d="m218.1 1117l-2.8 1.5 0.5-15.3 2.8-1.5-0.5 15.3z"/>
					<path class="st1" d="m213 1119.7l-2.8 1.5 0.5-15.3 2.8-1.5-0.5 15.3z"/>
					<g transform="translate(0 85.264)">
						<path class="st1" d="m208 1101l2-59.4 2.8-1.5-2 59.4-2.8 1.5z"/>
						<path class="st1" d="m209.5 1134.3l-2.8 1.5 1.1-31.6 2.8-1.5-1.1 31.6z"/>
					</g>
					<g transform="translate(0 79.512)">
						<path class="st1" d="m214.1 1074.5l1-29.9 2.8-1.5-1 29.9-2.8 1.5z"/>
						<path class="st1" d="m214.6 1137.4l-2.8 1.5 2.1-61.2 2.8-1.5-2.1 61.2z"/>
					</g>
					<path class="st1" d="m229.9 1208.8l-2.8 1.5 0.3-8 2.8-1.5-0.3 8z"/>
					<path class="st1" d="m234 1155.7l1.5-42.3 2.8-1.5-1.5 42.3-2.8 1.5z"/>
					<path class="st1" d="m275.2 1116.7l0.9-25 2.8-1.5-0.9 25-2.8 1.5z"/>
					<g transform="translate(24.493 24.544)">
						<path class="st1" d="m249.3 1133.1l1.3-37.8 2.8-1.5-1.3 37.8-2.8 1.5z"/>
					</g>
					<path class="st1" d="m269.4 1138.3l0.9-26.6 2.8-1.5-0.9 26.6-2.8 1.5z"/>
					<g transform="translate(0 39.748)">
						<path class="st1" d="m268.5 1126.5l0.9-24.8 2.8-1.5-0.9 24.8-2.8 1.5z"/>
						<path class="st1" d="m270.5 1147.4l-2.8 1.5 0.7-19.2 2.8-1.5-0.7 19.2z"/>
					</g>
					<path class="st1" d="m267.8 1120.7l-2.8 1.5 0.7-20.1 2.8-1.5-0.7 20.1z"/>
					<path class="st1" d="m262.9 1183.5l2-58.2 2.8-1.5-2 58.2-2.8 1.5z"/>
					<path class="st1" d="m248.8 1158.3l1.3-38 2.8-1.5-1.3 38-2.8 1.5z"/>
					<path class="st1" d="m247.7 1191.6l1-30.2 2.8-1.5-1 30.2-2.8 1.5z"/>
					<g transform="translate(9.692 79.227)">
						<path class="st1" d="m222.9 1117.1l1.3-37.5 2.8-1.5-1.3 37.5-2.8 1.5z"/>
					</g>
					<path class="st1" d="m230.2 1197.6l-2.8 1.5 0.7-20.5 2.8-1.5-0.7 20.5z"/>
					<path class="st1" d="m230.1 1123.4l0.3-7.4 2.8-1.5-0.3 7.4-2.8 1.5z"/>
					<g transform="translate(30.132 67.504)">
						<path class="st1" d="m200.9 1106.5l-2.8 1.5 1.3-38.3 2.8-1.5-1.3 38.3z"/>
						<path class="st1" d="m199.6 1066.6l0.3-7.5 2.8-1.5-0.3 7.5-2.8 1.5z"/>
					</g>
					<path class="st1" d="m223.4 1171.1l1.4-41.8 2.8-1.5-1.4 41.8-2.8 1.5z"/>
			</g>
			<path class="st8" d="m853.2 1558.2l-43.1 22.9c-0.5 0.3-1 0.4-1.6 0.4-1.7-0.1-3-1.5-3-3.2l1.7-47.3c0.1-2.4 1.4-4.5 3.5-5.7l43.3-23c0.5-0.2 1-0.4 1.5-0.4 1.7 0.1 3 1.4 2.9 3.1l-1.6 47.3c-0.1 2.5-1.4 4.7-3.6 5.9z"/>
			<path class="st8" d="m864 1319.8l-43.1 22.9c-0.5 0.3-1 0.4-1.6 0.4-1.7-0.1-3-1.5-3-3.2l1.7-47.3c0.1-2.4 1.4-4.5 3.5-5.7l43.3-23c0.5-0.2 1-0.4 1.5-0.4 1.7 0.1 3 1.4 2.9 3.1l-1.6 47.3c0 2.5-1.4 4.7-3.6 5.9z"/>
			<path class="st8" d="m963.1 1563.1l-43.1 22.9c-0.5 0.3-1 0.4-1.6 0.4-1.7-0.1-3-1.5-3-3.2l1.7-47.3c0.1-2.4 1.4-4.5 3.5-5.7l43.3-23c0.5-0.2 1-0.4 1.5-0.4 1.7 0.1 3 1.4 2.9 3.1l-1.6 47.3c0 2.5-1.4 4.7-3.6 5.9z"/>
			<path class="st8" d="m735.2 1423.6l-43.1 22.9c-0.5 0.3-1 0.4-1.6 0.4-1.7-0.1-3-1.5-3-3.2l1.7-47.3c0.1-2.4 1.4-4.5 3.5-5.7l43.3-23c0.5-0.2 1-0.4 1.5-0.4 1.7 0.1 3 1.4 2.9 3.1l-1.6 47.3c0 2.6-1.4 4.8-3.6 5.9z"/>
			<g transform="translate(436.57 214.4)">
					<path class="st9" d="m221.1 1100.8"/>
			</g>
			<g transform="translate(38.091 458.12)">
				<path class="st1" d="m597.3 1320.2"/>
			</g>
			<g transform="translate(51.215 390.21)">
					<path class="st7" d="m637.9 1344.6z"/>
			</g>
			<g transform="translate(169.37 261.74)">
					<path class="st7" d="m577.7 1308.4v0z"/>
			</g>
			<g transform="translate(287.01 136.27)">
					<path class="st7" d="m515.6 1271.1c0.1 0 0 0 0 0z"/>
			</g>
			<g class="st6" transform="translate(124.26 261.82)">
					<path class="st1" d="m596.6 1275.4l-2.8 1.5 0.5-15.3 2.8-1.5-0.5 15.3z"/>
					<path class="st1" d="m591.5 1278.1l-2.8 1.5 0.5-15.3 2.8-1.5-0.5 15.3z"/>
					<path class="st1" d="m586.4 1280.8l-2.8 1.5 0.5-15.3 2.8-1.5-0.5 15.3z"/>
					<path class="st1" d="m578.4 1290.7l2.8-1.5-3.2 94.2-2.8 1.5 3.2-94.2z"/>
					<path class="st1" d="m581.4 1283.5l-2.8 1.5 0.5-15.3 2.8-1.5-0.5 15.3z"/>
					<path class="st1" d="m576.3 1286.2l-2.8 1.5 0.5-15.3 2.8-1.5-0.5 15.3z"/>
					<path class="st1" d="m573.3 1293.4l2.8-1.5-3.2 94.2-2.8 1.5 3.2-94.2z"/>
					<path class="st1" d="m561.1 1294.3l-2.8 1.5 0.5-15.3 2.8-1.5-0.5 15.3z"/>
					<path class="st1" d="m556 1297l-2.8 1.5 0.5-15.3 2.8-1.5-0.5 15.3z"/>
					<path class="st1" d="m535.7 1307.8l-2.8 1.5 0.5-15.3 2.8-1.5-0.5 15.3z"/>
					<path class="st1" d="m530.6 1310.5l-2.8 1.5 0.5-15.3 2.8-1.5-0.5 15.3z"/>
					<g transform="translate(0 85.263)">
						<path class="st1" d="m525.6 1291.8l2-59.4 2.8-1.5-2 59.4-2.8 1.5z"/>
						<path class="st1" d="m527.1 1325.1l-2.8 1.5 1.1-31.6 2.8-1.5-1.1 31.6z"/>
					</g>
					<g transform="translate(0 79.511)">
						<path class="st1" d="m531.6 1265.3l1-29.9 2.8-1.5-1 29.9-2.8 1.5z"/>
						<path class="st1" d="m532.2 1328.2l-2.8 1.5 2.1-61.2 2.8-1.5-2.1 61.2z"/>
					</g>
					<path class="st1" d="m547.4 1399.6l-2.8 1.5 0.3-8 2.8-1.5-0.3 8z"/>
					<path class="st1" d="m551.5 1346.5l1.5-42.3 2.8-1.5-1.5 42.3-2.8 1.5z"/>
					<path class="st1" d="m592.8 1307.6l0.9-25 2.8-1.5-0.9 25-2.8 1.5z"/>
					<g transform="translate(24.493 24.544)">
						<path class="st1" d="m566.9 1324l1.3-37.8 2.8-1.5-1.3 37.8-2.8 1.5z"/>
					</g>
					<path class="st1" d="m587 1329.2l0.9-26.6 2.8-1.5-0.9 26.6-2.8 1.5z"/>
					<g transform="translate(0 39.748)">
						<path class="st1" d="m586.1 1317.3l0.9-24.8 2.8-1.5-0.9 24.8-2.8 1.5z"/>
						<path class="st1" d="m588.1 1338.2l-2.8 1.5 0.7-19.2 2.8-1.5-0.7 19.2z"/>
					</g>
					<path class="st1" d="m585.4 1311.5l-2.8 1.5 0.7-20.1 2.8-1.5-0.7 20.1z"/>
					<path class="st1" d="m580.5 1374.3l2-58.2 2.8-1.5-2 58.2-2.8 1.5z"/>
					<path class="st1" d="m566.4 1349.1l1.3-38 2.8-1.5-1.3 38-2.8 1.5z"/>
					<path class="st1" d="m565.2 1382.4l1-30.2 2.8-1.5-1 30.2-2.8 1.5z"/>
					<g transform="translate(9.692 79.227)">
						<path class="st1" d="m540.4 1308l1.3-37.5 2.8-1.5-1.3 37.5-2.8 1.5z"/>
					</g>
					<path class="st1" d="m547.8 1388.4l-2.8 1.5 0.7-20.5 2.8-1.5-0.7 20.5z"/>
					<path class="st1" d="m547.7 1314.2l0.3-7.4 2.8-1.5-0.3 7.4-2.8 1.5z"/>
					<g transform="translate(30.132 67.504)">
						<path class="st1" d="m518.5 1297.3l-2.8 1.5 1.3-38.3 2.8-1.5-1.3 38.3z"/>
						<path class="st1" d="m517.2 1257.4l0.3-7.5 2.8-1.5-0.3 7.5-2.8 1.5z"/>
					</g>
					<path class="st1" d="m541 1361.9l1.4-41.8 2.8-1.5-1.4 41.8-2.8 1.5z"/>
			</g>
			<g class="st6" transform="translate(0 140.62)">
				<g transform="translate(0)">
					<path class="st1" d="m886.2 1449.4l-2.8 1.5 0.5-15.3 2.8-1.5-0.5 15.3z"/>
					<path class="st1" d="m881.1 1452.1l-2.8 1.5 0.5-15.3 2.8-1.5-0.5 15.3z"/>
					<path class="st1" d="m876.1 1454.8l-2.8 1.5 0.5-15.3 2.8-1.5-0.5 15.3z"/>
					<path class="st1" d="m868 1464.7l2.8-1.5-3.2 94.2-2.8 1.5 3.2-94.2z"/>
					<path class="st1" d="m871 1457.5l-2.8 1.5 0.5-15.3 2.8-1.5-0.5 15.3z"/>
					<path class="st1" d="m865.9 1460.2l-2.8 1.5 0.5-15.3 2.8-1.5-0.5 15.3z"/>
					<path class="st1" d="m862.9 1467.4l2.8-1.5-3.2 94.2-2.8 1.5 3.2-94.2z"/>
					<path class="st1" d="m850.7 1468.3l-2.8 1.5 0.5-15.3 2.8-1.5-0.5 15.3z"/>
					<path class="st1" d="m845.6 1471l-2.8 1.5 0.5-15.3 2.8-1.5-0.5 15.3z"/>
					<path class="st1" d="m825.3 1481.8l-2.8 1.5 0.5-15.3 2.8-1.5-0.5 15.3z"/>
					<path class="st1" d="m820.2 1484.5l-2.8 1.5 0.5-15.3 2.8-1.5-0.5 15.3z"/>
					<g transform="translate(30.132 85.264)">
						<path class="st1" d="m785 1465.9l2-59.4 2.8-1.5-2 59.4-2.8 1.5z"/>
					</g>
					<g transform="translate(55.757 79.512)">
						<path class="st1" d="m765.5 1439.3l1-29.9 2.8-1.5-1 29.9-2.8 1.5z"/>
					</g>
					<path class="st1" d="m837.1 1573.6l-2.8 1.5 0.3-8.1 2.8-1.5-0.3 8.1z"/>
					<path class="st1" d="m841.2 1520.5l1.5-42.3 2.8-1.5-1.5 42.3-2.8 1.5z"/>
					<path class="st1" d="m882.4 1481.6l0.9-25 2.8-1.5-0.9 25-2.8 1.5z"/>
					<g transform="translate(24.493 24.544)">
						<path class="st1" d="m856.5 1498l1.3-37.8 2.8-1.5-1.3 37.8-2.8 1.5z"/>
					</g>
					<path class="st1" d="m876.6 1503.2l0.9-26.6 2.8-1.5-0.9 26.6-2.8 1.5z"/>
					<g transform="translate(0 39.748)">
						<path class="st1" d="m875.7 1491.4l0.9-24.8 2.8-1.5-0.9 24.8-2.8 1.5z"/>
						<path class="st1" d="m877.7 1512.3l-2.8 1.5 0.7-19.2 2.8-1.5-0.7 19.2z"/>
					</g>
					<path class="st1" d="m875 1485.5l-2.8 1.5 0.7-20.1 2.8-1.5-0.7 20.1z"/>
					<path class="st1" d="m870.1 1548.3l2-58.2 2.8-1.5-2 58.2-2.8 1.5z"/>
					<path class="st1" d="m856 1523.1l1.3-38 2.8-1.5-1.3 38-2.8 1.5z"/>
					<path class="st1" d="m854.9 1556.4l1-30.2 2.8-1.5-1 30.2-2.8 1.5z"/>
					<g transform="translate(9.692 79.227)">
						<path class="st1" d="m830.1 1482l1.3-37.5 2.8-1.5-1.3 37.5-2.8 1.5z"/>
					</g>
					<path class="st1" d="m837.4 1562.4l-2.8 1.5 0.7-20.4 2.8-1.5-0.7 20.4z"/>
					<path class="st1" d="m837.3 1488.3l0.3-7.4 2.8-1.5-0.3 7.4-2.8 1.5z"/>
					<g transform="translate(30.132 67.504)">
						<path class="st1" d="m808.1 1471.3l-2.8 1.5 1.3-38.3 2.8-1.5-1.3 38.3z"/>
						<path class="st1" d="m806.8 1431.4l0.3-7.5 2.8-1.5-0.3 7.5-2.8 1.5z"/>
					</g>
					<path class="st1" d="m830.6 1535.9l1.4-41.8 2.8-1.5-1.4 41.8-2.8 1.5z"/>
				</g>
			</g>
		</g>
		<g class="st10" transform="matrix(-.946 .326 -.326 -.946 1765.2 146.03)">
					<path class="st1" d="m424 1062.7c-2.2 5.1-3.7 10.6-4.5 16.1l-17.5 5.2 3 24.5 18.3 0.8c2.1 5.2 4.8 10.1 8.2 14.6l-8.7 16.1 19.5 15.2 13.5-12.4c5.2 2.2 10.6 3.7 16.2 4.5l5.2 17.6 24.5-3 0.8-18.3c5.2-2.1 10.1-4.8 14.6-8.2l16.1 8.7 15.2-19.4-12.4-13.5c2.2-5.2 3.7-10.6 4.5-16.2l17.6-5.2-3-24.5-18.3-0.8c-2.1-5.2-4.8-10.1-8.2-14.6l8.7-16.1-19.5-15.2-13.5 12.4c-5.2-2.2-10.6-3.7-16.2-4.5l-5.2-17.6-24.5 3-0.8 18.3c-5.2 2.1-10.1 4.8-14.6 8.2l-16.1-8.7-15.2 19.4 12.3 13.6zm7.7-1.2l-11.6-12.6 8.5-10.9 15.1 8.2 1.7-1.4c4.9-4 10.4-7.2 16.4-9.3l2-0.7 0.7-17.1 13.7-1.7 4.9 16.5 2.2 0.2c6.3 0.6 12.5 2.3 18.2 5l2 0.9 12.5-11.6 10.9 8.5-8.2 15 1.4 1.7c4 4.9 7.2 10.4 9.3 16.4l0.7 2 17.1 0.7 1.7 13.7-16.5 4.9-0.2 2.2c-0.6 6.3-2.3 12.5-5 18.2l-0.9 2 11.6 12.6-8.5 10.9-15.1-8.2-1.7 1.4c-4.9 4-10.4 7.2-16.4 9.3l-2 0.7-0.7 17.1-13.7 1.7-4.9-16.5-2.2-0.2c-6.3-0.6-12.5-2.3-18.2-5l-2-0.9-12.6 11.6-10.9-8.5 8.2-15-1.4-1.7c-4-4.9-7.2-10.4-9.3-16.4l-0.7-2-17.1-0.7-1.7-13.7 16.5-4.9 0.2-2.2c0.6-6.3 2.3-12.5 5-18.2l1-2z"/>
			<g transform="translate(44.929 44.929)">
					<path class="st1" d="m409.7 1022.2c-10.9 14-8.5 34.1 5.5 45s34.1 8.5 45-5.5 8.5-34.1-5.5-45c-13.9-10.9-34-8.4-45 5.5zm5.1 4c8.7-11.2 24.9-13.1 36-4.4 11.2 8.7 13.1 24.9 4.4 36-8.7 11.2-24.9 13.1-36 4.4s-13.1-24.9-4.4-36z"/>
			</g>
		</g>
		<g class="st10" transform="matrix(-.695 .719 -.719 -.695 1880.8 103.17)">
					<path class="st1" d="m130.8 1283.8c-4.2 0.9-8.3 2.5-12.1 4.5l-11.2-8.6-13.9 12.9 7.8 11.7c-2.3 3.6-4.1 7.6-5.3 11.7l-13.9 1.8-0.6 19 13.8 2.8c0.9 4.2 2.5 8.3 4.5 12.1l-8.6 11.2 12.9 13.9 11.7-7.8c3.6 2.3 7.6 4.1 11.7 5.3l1.8 13.9 19 0.6 2.8-13.8c4.2-0.9 8.3-2.5 12.1-4.5l11.2 8.6 13.9-12.9-7.8-11.7c2.3-3.6 4.1-7.6 5.3-11.7l13.9-1.8 0.6-19-13.8-2.8c-0.9-4.2-2.5-8.3-4.5-12.1l8.6-11.2-12.9-13.9-11.7 7.8c-3.6-2.3-7.6-4.1-11.7-5.3l-1.8-13.9-19-0.6-2.8 13.8zm4.2 4.2l2.6-12.9 10.6 0.4 1.7 13.1 1.6 0.4c4.7 1.2 9.2 3.2 13.2 6l1.4 0.9 11-7.3 7.2 7.8-8 10.5 0.8 1.4c2.5 4.2 4.2 8.8 5.1 13.6l0.3 1.6 12.9 2.6-0.4 10.6-13.1 1.7-0.4 1.6c-1.2 4.7-3.2 9.2-6 13.2l-0.9 1.4 7.3 11-7.8 7.2-10.5-8-1.4 0.8c-4.2 2.5-8.8 4.2-13.6 5.1l-1.6 0.3-2.6 12.9-10.6-0.4-1.7-13.1-1.6-0.4c-4.7-1.2-9.2-3.2-13.2-6l-1.4-0.9-11 7.3-7.2-7.8 8-10.5-0.8-1.4c-2.5-4.2-4.2-8.8-5.1-13.5l-0.3-1.6-12.9-2.6 0.4-10.6 13.1-1.7 0.4-1.6c1.2-4.7 3.2-9.2 6-13.2l0.9-1.4-7.3-11 7.8-7.2 10.5 8 1.4-0.8c4.2-2.5 8.8-4.2 13.6-5.1l1.6-0.4z"/>
			<g transform="translate(34.511 34.511)">
					<path class="st1" d="m107.4 1270.4c-13.6-0.5-25 10.2-25.5 23.8s10.2 25 23.8 25.5 25-10.2 25.5-23.8c0.4-13.7-10.2-25.1-23.8-25.5zm-0.2 4.9c10.9 0.4 19.4 9.5 19 20.4s-9.5 19.4-20.4 19-19.4-9.5-19-20.4c0.4-10.8 9.6-19.4 20.4-19z"/>
			</g>
		</g>
		<path class="st8" d="m2595.7-297.2l-5.5-6.5 6.3-5.3c0.3 0.1 0.6 0.1 0.9 0.1 1.8-0.1 3.2-1.6 3.1-3.5-0.1-1.8-1.6-3.2-3.5-3.1s-3.2 1.6-3.1 3.5l-6.3 5.3-22.8-27.2 1-11.6 36.8-30.8 7.3 8.7-14.8 12.5-4.3-0.1c0-0.1-0.1-0.1-0.1-0.2-0.1-0.2-0.3-0.3-0.5-0.5-1.4-1.1-3.5-0.9-4.6 0.6s-0.9 3.5 0.6 4.6c1.4 1.1 3.5 0.9 4.6-0.6l5.8 0.1 16-13.4 5.8 7-10.1 8.5-0.7 7.8c-0.3 0.2-0.5 0.4-0.7 0.6-1.2 1.4-1.1 3.5 0.3 4.7s3.5 1.1 4.7-0.3 1.1-3.5-0.3-4.7l0.5-6.1 8.8-7.4 17.9 21.4-7.9 6.7-6.3-7.5c0.1-0.3 0.1-0.6 0.1-0.9-0.1-1.8-1.6-3.2-3.5-3.1-1.8 0.1-3.2 1.6-3.1 3.5s1.6 3.2 3.5 3.1l6.3 7.5-9.1 7.6-5.4-6.4-22.1-1.9-6-7.2c0.1-0.3 0.1-0.6 0.1-0.9-0.1-1.8-1.6-3.2-3.5-3.1s-3.2 1.6-3.1 3.5 1.6 3.2 3.5 3.1l7.1 8.4 22.1 1.9 4.3 5.1-20.1 16.5z"/>
		<g class="st10" transform="matrix(-.946 .326 -.326 -.946 1813.6 576.38)">
					<path class="st1" d="m448.9 1089.7c-3.1 7.2-5.3 14.9-6.3 22.7l-24.7 7.3 4.2 34.5 25.7 1.1c2.9 7.4 6.8 14.3 11.6 20.5l-12.3 22.6 27.3 21.4 19-17.4c7.2 3.1 14.9 5.3 22.7 6.3l7.3 24.7 34.5-4.2 1.1-25.7c7.4-2.9 14.3-6.8 20.5-11.6l22.6 12.3 21.4-27.3-17.4-19c3.1-7.2 5.3-14.9 6.3-22.7l24.7-7.3-4.2-34.5-25.7-1.1c-2.9-7.3-6.8-14.3-11.6-20.5l12.3-22.6-27.3-21.4-18.9 17.4c-7.2-3.1-14.9-5.3-22.7-6.3l-7.3-24.7-34.5 4.2-1.1 25.7c-7.4 2.9-14.3 6.8-20.5 11.6l-22.6-12.3-21.4 27.3 17.3 19zm10.8-1.6l-16.3-17.8 12-15.3 21.2 11.5 2.4-1.9c6.9-5.7 14.7-10.1 23.1-13l2.9-1 1.1-24.1 19.3-2.4 6.8 23.1 3 0.3c8.9 0.8 17.5 3.2 25.5 7.1l2.7 1.3 17.8-16.3 15.3 12-11.5 21.2 1.9 2.4c5.7 6.9 10.1 14.7 13 23.1l1 2.9 24.1 1 2.4 19.3-23.1 6.8-0.3 3c-0.8 8.9-3.2 17.5-7.1 25.5l-1.3 2.7 16.3 17.8-12 15.3-21.2-11.5-2.4 1.9c-6.9 5.7-14.7 10.1-23.1 13l-2.9 1-1 24.1-19.3 2.4-6.8-23.1-3-0.3c-8.9-0.8-17.5-3.2-25.5-7.1l-2.7-1.3-17.8 16.3-15.3-12 11.5-21.2-1.9-2.4c-5.7-6.9-10.1-14.7-13-23.1l-1-2.9-24.1-1-2.4-19.3 23.1-6.8 0.3-3c0.8-8.9 3.2-17.5 7.1-25.5l1.2-2.7z"/>
			<g transform="translate(63.168 63.168)">
					<path class="st1" d="m428.9 1032.8c-15.4 19.6-11.9 48 7.7 63.3 19.6 15.4 48 11.9 63.3-7.7s11.9-48-7.7-63.3-48-11.9-63.3 7.7zm7.1 5.6c12.3-15.7 35-18.5 50.7-6.2s18.5 35 6.2 50.7-35 18.5-50.7 6.2-18.5-35-6.2-50.7z"/>
			</g>
		</g>
		<g transform="translate(24.481 -583.89)">
			<g transform="translate(0)">
							<path class="st11" d="m2575-710.5v185.6c0 4-2.1 7.8-5.5 9.9l-0.2 0.1-0.2 0.1-36.2 21.3-23.5-32.9-1.2-6.4-115.2-66.6c-7.9-4.5-12.7-12.9-12.7-22v-152.5l-5.9-6.7-15.7-21.3 33.8-19.5c5.3-3.2 10.7-3.3 15.4-0.6l153.9 88.8c8.2 4.6 13.2 13.3 13.2 22.7z"/>
							<path class="st12" d="m2539.1-689.4v185.6c0 2.1-0.5 4.1-1.6 5.8-3.2 5.6-10.4 7.5-16 4.3l-155.7-90c-7.9-4.5-12.7-12.9-12.7-22v-186.4c0-2 0.5-4 1.5-5.7 3.1-5.5 10.1-7.3 15.6-4.2l155.7 89.9c8.2 4.7 13.2 13.3 13.2 22.7z"/>
					<g transform="translate(0 104.86)">
						<path class="st7" d="m2532.9-598.4l0.2-0.1c0 0.1-0.1 0.1-0.2 0.1z"/>
						<path class="st13" d="m2533.2-598.5l35.9-21.1 0.2-0.1 0.2-0.1c3.4-2.1 5.5-5.9 5.5-9.9v-185.6c-0.1-2.9-0.6-5.8-1.6-8.6l-36.1 20.8c1.1 2.9 1.7 5.9 1.8 9v185.6c0 4-2.2 7.9-5.9 10z"/>
					</g>
				<g transform="translate(55.74 134.13)">
					<path class="st1" d="m2317.1-824l48.4 0.2v13.4l-33.3-1.5 33.2 35v13.3l-48.2-52.4-0.1-8z"/>
					<path class="st1" d="m2397.1-815.8l13.5 7.8-26.8 66.5-13.5-7.8 26.8-66.5z"/>
					<path class="st1" d="m2463.6-739.5v8l-48.4-3.4v-13.3l33.4 3.5-33.3-37v-13.4l48.3 55.6z"/>
				</g>
			</g>
		</g>
		<g class="st14" transform="translate(1845.5 184.41) rotate(22)">
			<path class="st1" d="m-1319-154.3c-4.5 4.6-5.6 11.4-2.9 17.2 3.6 7.6 12.7 10.9 20.3 7.3s10.9-12.7 7.3-20.3-12.7-10.9-20.3-7.3l-9.6-43.2 41.7 10.8c-2.5 5.7-1.3 12.4 3 16.9 5.9 6.1 15.6 6.2 21.7 0.3s6.2-15.6 0.3-21.7-15.6-6.2-21.7-0.3c-0.1 0.1-0.2 0.3-0.4 0.4l-42.1-10.9c1.1-2 1.7-4.3 1.8-6.6 0.3-8.4-6.2-15.4-14.6-15.7l-10.5-52.3c5.2-1 9.4-4.8 11.1-9.7l48 11.4c-1 3.5-0.7 7.2 0.8 10.5 3.5 7.6 12.6 10.9 20.2 7.4l9.7 43.9c-4.5 4.5-5.6 11.4-2.9 17.2 3.6 7.6 12.7 10.9 20.3 7.3s10.9-12.7 7.3-20.3-12.7-10.9-20.3-7.3l-9.6-43.2 41.7 10.8c-2.5 5.7-1.3 12.5 3 17 5.9 6.1 15.7 6.2 21.7 0.3 6.1-5.9 6.2-15.7 0.3-21.7-5.9-6.1-15.7-6.2-21.7-0.3-0.1 0.1-0.2 0.3-0.4 0.4l-42.1-10.9c3.1-5.8 2.1-13-2.5-17.8-5.9-6-15.5-6.2-21.6-0.3-0.7 0.7-1.4 1.5-2 2.4l-49.1-11.7c0.2-7.9-5.6-14.6-13.4-15.5-8.4-1-16 5-17 13.3-1 8.4 5 16 13.3 17l10.6 52.7c-2.4 0.7-4.6 1.9-6.3 3.6-4.7 4.5-6 11.5-3.3 17.4 3.5 7.7 12.6 11 20.3 7.5l9.9 44zm107.3-98.6c4.1-4 10.7-3.9 14.7 0.3 4 4.1 3.9 10.7-0.3 14.7s-10.7 3.9-14.7-0.3-3.8-10.7 0.3-14.7zm-39.8 54.6c-4-4.1-3.9-10.7 0.3-14.6 4.1-4 10.7-3.9 14.6 0.3 4 4.1 3.9 10.7-0.3 14.6-4.1 3.9-10.7 3.8-14.6-0.3zm-27.1-68.5c-4-4.1-3.9-10.7 0.3-14.6 4.1-4 10.7-3.9 14.6 0.3s3.9 10.7-0.3 14.6c-4 4-10.6 3.8-14.6-0.3zm2.6 90.4c-4-4.1-3.9-10.7 0.3-14.6 4.1-4 10.7-3.9 14.6 0.3 4 4.1 3.9 10.7-0.3 14.6s-10.6 3.8-14.6-0.3zm-65-110.7c-4.1 4-10.7 3.9-14.7-0.2s-3.9-10.7 0.3-14.6c4.1-4 10.7-3.9 14.6 0.3 4 4 3.9 10.5-0.2 14.5zm13.1 82.4c-4.1 4-10.7 3.9-14.6-0.2-4-4.1-3.9-10.7 0.2-14.6 4.1-4 10.7-3.9 14.6 0.2 4 4.1 3.9 10.6-0.2 14.6zm27 68.5c-4.1 4-10.7 3.8-14.6-0.3-4-4.1-3.9-10.7 0.3-14.6 4.1-4 10.7-3.9 14.6 0.3 3.9 4 3.8 10.6-0.3 14.6z"/>
		</g>
		<g class="st10" transform="matrix(-.946 .326 -.326 -.946 1782.5 1273.9)">
					<path class="st1" d="m456.9 1074c-2.2 5.1-3.7 10.6-4.5 16.1l-17.6 5.2 3 24.5 18.3 0.8c2.1 5.2 4.8 10.1 8.2 14.6l-8.7 16.1 19.5 15.2 13.5-12.4c5.2 2.2 10.6 3.7 16.2 4.5l5.2 17.6 24.5-3 0.8-18.3c5.2-2.1 10.1-4.8 14.6-8.2l16.1 8.7 15.2-19.4-12.4-13.5c2.2-5.2 3.7-10.6 4.5-16.2l17.6-5.2-3-24.5-18.3-0.8c-2.1-5.2-4.8-10.1-8.2-14.6l8.7-16.1-19.5-15.2-13.5 12.4c-5.2-2.2-10.6-3.7-16.2-4.5l-5.2-17.6-24.5 3-0.8 18.3c-5.2 2.1-10.1 4.8-14.6 8.2l-16.1-8.7-15.2 19.4 12.4 13.6zm7.6-1.2l-11.6-12.6 8.5-10.9 15.1 8.2 1.7-1.4c4.9-4 10.4-7.2 16.4-9.3l2-0.7 0.7-17.1 13.7-1.7 4.9 16.5 2.2 0.2c6.3 0.6 12.5 2.3 18.2 5l2 0.9 12.6-11.6 10.9 8.5-8.2 15 1.4 1.7c4 4.9 7.2 10.4 9.3 16.4l0.7 2 17.1 0.7 1.7 13.7-16.5 4.9-0.2 2.2c-0.6 6.3-2.3 12.5-5 18.2l-0.9 2 11.6 12.6-8.5 10.9-15.1-8.2-1.7 1.4c-4.9 4-10.4 7.2-16.4 9.3l-2 0.7-0.7 17.1-13.7 1.7-4.9-16.5-2.2-0.2c-6.3-0.6-12.5-2.3-18.2-5l-2-0.9-12.6 11.6-10.9-8.5 8.2-15-1.4-1.7c-4-4.9-7.2-10.4-9.3-16.4l-0.7-2-17.1-0.7-1.7-13.7 16.5-4.9 0.2-2.2c0.6-6.3 2.3-12.5 5-18.2l0.9-2z"/>
			<g transform="translate(44.929 44.929)">
					<path class="st1" d="m442.6 1033.5c-10.9 14-8.5 34.1 5.5 45s34.1 8.5 45-5.5 8.5-34.1-5.5-45-34.1-8.4-45 5.5zm5 4c8.7-11.2 24.9-13.1 36-4.4 11.2 8.7 13.1 24.9 4.4 36-8.7 11.2-24.9 13.1-36 4.4s-13.1-24.9-4.4-36z"/>
			</g>
		</g>
		<g class="st14" transform="translate(1315.2 2054.7) rotate(40)">
			<path class="st1" d="m-428.2-444.9c-0.9 6.3 2.2 12.5 7.8 15.6 7.4 4 16.7 1.3 20.7-6 4-7.4 1.3-16.7-6-20.7-7.4-4-16.7-1.3-20.7 6l-33.1-29.3 40.1-15.8c1.3 6.1 6.2 10.9 12.4 11.9 8.4 1.4 16.3-4.2 17.8-12.5s-4.2-16.3-12.5-17.8c-8.4-1.4-16.3 4.2-17.8 12.5v0.6l-40.4 15.9c-0.3-2.3-1.2-4.5-2.4-6.4-4.7-7-14.1-8.8-21.1-4.1l-39.2-36.1c3.6-3.9 4.8-9.4 3.3-14.4l45.6-19c1.3 3.4 3.7 6.3 6.9 8 7.3 4.1 16.6 1.4 20.7-5.9l33.7 29.8c-0.9 6.3 2.1 12.5 7.7 15.6 7.4 4.1 16.6 1.4 20.7-6s1.4-16.6-6-20.7-16.6-1.4-20.7 6l-33.1-29.3 40.1-15.8c1.3 6.1 6.2 10.9 12.4 11.9 8.4 1.4 16.3-4.2 17.8-12.6 1.4-8.4-4.2-16.3-12.6-17.8-8.4-1.4-16.3 4.2-17.8 12.6v0.6l-40.4 15.9c-0.9-6.6-6-11.8-12.5-12.9-8.3-1.4-16.2 4.1-17.6 12.4-0.2 1-0.3 2.1-0.2 3.1l-46.6 19.4c-4.5-6.5-13.1-8.5-20-4.6-7.4 4.1-10 13.4-5.9 20.8s13.4 10 20.8 5.9l39.5 36.4c-1.5 1.9-2.6 4.2-3 6.6-1.2 6.4 1.9 12.9 7.6 16 7.4 4.1 16.7 1.5 20.8-5.9l33.2 30.1zm28.9-142.8c1-5.6 6.4-9.4 12-8.4s9.4 6.4 8.4 12-6.4 9.4-12 8.4-9.3-6.4-8.4-12zm-0.1 67.5c-5.6-1-9.4-6.4-8.4-12s6.4-9.4 12-8.4 9.4 6.4 8.4 12-6.4 9.4-12 8.4zm-62.1-39.5c-5.6-1-9.4-6.4-8.4-12s6.4-9.4 12-8.4 9.4 6.4 8.4 12c-1 5.7-6.3 9.4-12 8.4zm55.2 71.6c-5.6-1-9.4-6.4-8.4-12s6.4-9.4 12-8.4 9.4 6.4 8.4 12-6.4 9.4-12 8.4zm-117.6-51.3c-1 5.6-6.4 9.4-12 8.4s-9.4-6.4-8.4-12 6.4-9.4 12-8.4 9.3 6.3 8.4 12zm59 59c-1 5.6-6.4 9.4-12 8.4s-9.4-6.4-8.4-12 6.4-9.4 12-8.4 9.3 6.3 8.4 12zm62 39.5c-1 5.6-6.4 9.4-12 8.4s-9.4-6.4-8.4-12 6.4-9.4 12-8.4c5.7 1 9.4 6.3 8.4 12z"/>
		</g>
		<g class="st10" transform="translate(1373.9 1988.4) rotate(152)">
					<path class="st1" d="m-394.9 738.7c-2.9 3.2-5.2 6.9-7.1 10.7l-14.1-0.4-3.6 18.6 13.2 4.9c0.3 4.3 1.1 8.6 2.6 12.6l-10.2 9.7 10.6 15.7 12.8-5.8c3.2 2.9 6.9 5.2 10.7 7.1l-0.4 14.1 18.6 3.6 4.9-13.2c4.3-0.3 8.6-1.1 12.6-2.6l9.7 10.2 15.7-10.6-5.8-12.8c2.9-3.2 5.2-6.9 7.1-10.7l14.1 0.4 3.6-18.6-13.2-4.9c-0.3-4.3-1.1-8.6-2.6-12.6l10.2-9.7-10.6-15.7-12.8 5.8c-3.2-2.9-6.9-5.2-10.7-7.1l0.4-14.1-18.6-3.6-4.9 13.2c-4.3 0.3-8.6 1.1-12.6 2.6l-9.7-10.2-15.7 10.6 5.8 12.8zm5.9 0.9l-5.5-12 8.8-5.9 9.1 9.6 1.5-0.6c4.5-1.8 9.3-2.8 14.2-2.9h1.7l4.6-12.3 10.4 2-0.4 13.2 1.5 0.7c4.5 1.9 8.6 4.6 12.1 8l1.2 1.1 12-5.5 5.9 8.8-9.6 9.1 0.6 1.5c1.8 4.5 2.8 9.3 2.9 14.2v1.7l12.4 4.6-2 10.4-13.2-0.4-0.7 1.5c-1.9 4.5-4.6 8.6-8 12.1l-1.1 1.2 5.5 12-8.8 5.9-9.1-9.6-1.5 0.6c-4.5 1.8-9.3 2.8-14.2 2.9h-1.7l-4.6 12.3-10.4-2 0.4-13.2-1.5-0.7c-4.5-1.9-8.5-4.6-12.1-8l-1.2-1.1-12 5.5-5.9-8.8 9.6-9.1-0.6-1.5c-1.8-4.5-2.8-9.3-2.9-14.2v-1.7l-12.4-4.6 2-10.4 13.2 0.4 0.7-1.5c1.9-4.5 4.6-8.6 8-12.1l1.1-1.2z"/>
			<g transform="translate(34.511 34.511)">
					<path class="st1" d="m-408 714.7c-11.3 7.6-14.3 22.9-6.7 34.2s22.9 14.3 34.2 6.6 14.3-22.9 6.6-34.2c-7.5-11.2-22.8-14.2-34.1-6.6zm2.7 4.1c9-6.1 21.3-3.7 27.4 5.3s3.7 21.3-5.3 27.4-21.3 3.7-27.4-5.3c-6.1-9.1-3.7-21.3 5.3-27.4z"/>
			</g>
		</g>
		<g class="st10" transform="matrix(-1 .017 -.017 -1 1250.6 1993.4)">
					<path class="st1" d="m-275.8 909.4c1.2 5.5 3.2 10.8 5.9 15.7l-11.1 14.5 16.9 18 15.3-10.1c4.7 3 9.9 5.4 15.3 7l2.4 18.1 24.7 0.8 3.6-17.9c5.5-1.2 10.8-3.2 15.7-5.9l14.5 11.1 18-16.8-10.1-15.3c3-4.7 5.4-9.9 7-15.3l18.1-2.4 0.8-24.7-17.9-3.6c-1.2-5.5-3.2-10.8-5.9-15.7l11.1-14.5-16.9-18-15.2 10.1c-4.7-3-9.9-5.4-15.3-7l-2.4-18.1-24.7-0.8-3.6 17.9c-5.5 1.2-10.8 3.2-15.7 5.9l-14.5-11.1-18 16.8 10.1 15.3c-3 4.7-5.4 9.9-7 15.3l-18.1 2.4-0.8 24.7 17.8 3.6zm5.5-5.5l-16.8-3.4 0.5-13.8 17-2.2 0.5-2.1c1.6-6.1 4.2-11.9 7.8-17.2l1.2-1.8-9.5-14.3 10.1-9.4 13.6 10.4 1.9-1.1c5.4-3.2 11.4-5.5 17.6-6.6l2.1-0.4 3.4-16.8 13.8 0.5 2.2 17 2.1 0.5c6.1 1.6 11.9 4.2 17.2 7.8l1.8 1.2 14.3-9.5 9.4 10.1-10.4 13.6 1.1 1.9c3.2 5.4 5.5 11.4 6.6 17.6l0.4 2.1 16.8 3.4-0.5 13.8-17 2.2-0.5 2.1c-1.6 6.1-4.2 11.9-7.8 17.2l-1.2 1.8 9.5 14.3-10.1 9.4-13.6-10.4-1.9 1.1c-5.4 3.2-11.4 5.5-17.6 6.6l-2.1 0.4-3.4 16.8-13.8-0.5-2.2-17-2.1-0.5c-6.1-1.6-11.9-4.2-17.2-7.8l-1.8-1.2-14.3 9.5-9.4-10.1 10.4-13.6-1.1-1.9c-3.2-5.4-5.5-11.4-6.6-17.6l-0.4-2.1z"/>
			<g transform="translate(44.929 44.929)">
					<path class="st1" d="m-293.3 850c-0.6 17.7 13.3 32.6 31 33.2s32.6-13.3 33.2-31-13.3-32.6-31-33.2c-17.7-0.5-32.6 13.3-33.2 31zm6.4 0.2c0.5-14.2 12.4-25.3 26.5-24.8 14.2 0.5 25.3 12.4 24.8 26.5-0.5 14.2-12.4 25.3-26.5 24.8-14.2-0.4-25.3-12.3-24.8-26.5z"/>
			</g>
		</g>
	</g>
</svg>
