<svg xmlns="http://www.w3.org/2000/svg" xmlns:xlink="http://www.w3.org/1999/xlink" width="1024" height="1366" viewBox="0 0 1024 1366">
  <defs>
    <linearGradient id="linear-gradient" x1="0.565" y1="0.178" x2="-0.079" y2="0.9" gradientUnits="objectBoundingBox">
      <stop offset="0"/>
      <stop offset="1" stop-color="#2ba6f8"/>
      <stop offset="1"/>
    </linearGradient>
    <linearGradient id="linear-gradient-2" x1="0.606" y1="0.047" x2="-0.079" y2="0.9" gradientUnits="objectBoundingBox">
      <stop offset="0" stop-color="#2ba6f8"/>
      <stop offset="1"/>
    </linearGradient>
    <clipPath id="clip-Portfolio_Site_HomePage_Middle_Div_-_Tablet">
      <rect width="1024" height="1366"/>
    </clipPath>
  </defs>
  <g id="Portfolio_Site_HomePage_Middle_Div_-_Tablet" data-name="Portfolio Site HomePage Middle Div - Tablet" clip-path="url(#clip-Portfolio_Site_HomePage_Middle_Div_-_Tablet)">
    <rect width="1024" height="1366" fill="#fff"/>
    <g id="Group_417" data-name="Group 417" transform="translate(2059.382 1467.426) rotate(167)">
      <path id="Path_1" data-name="Path 1" d="M1462.479,143.224S904.384-155.224,573.857-261.16s155.33,385.582,199.908,459.217c48.327,79.83,343.869,310.733,338.115,389.694-7.549,103.609-160.852,116.542-288.161,182.4-307.411,159.037-402.856-54.618-285.737,21.433S522.042,913.954,360,908.138c-349.94-12.557,310.041,267.39,369.027,348.083s-128.622,242.3-339.885-51.5-99.092,164.917-99.092,164.917H0V143.224Z" transform="translate(0 -63.48)" fill="url(#linear-gradient)"/>
      <path id="Path_2" data-name="Path 2" d="M324.9,64.069s395.716-20.627,466.169,239.4C867.835,586.8,622.309,720.025,539.023,654.992S451.961,501.561,581.61,443.227s116.612-238.132-166.862-193.26S98.484,655.523,303.859,741.826s155.326,187.9-65.582,295.876-100.1,252.781-100.1,252.781H0V64.069Z" transform="translate(0 15.674)" fill="url(#linear-gradient-2)"/>
    </g>
    <g id="Group_418" data-name="Group 418" transform="translate(1275.741 1156.219) rotate(167)">
      <g id="Group_363" data-name="Group 363" transform="translate(205.777 106.863)" opacity="0.4">
        <g id="Group_362" data-name="Group 362">
          <path id="Path_1532" data-name="Path 1532" d="M452.65,230.77v-3.148l81.63-47.084v3.149Z" transform="translate(-452.65 -175.798)" fill="#fff"/>
          <path id="Path_1533" data-name="Path 1533" d="M495.317,178.926v3.149L482.09,189.7v-3.149Z" transform="translate(-395.498 -178.926)" fill="#fff"/>
          <path id="Path_1534" data-name="Path 1534" d="M452.65,232.726v-3.149l81.63-47.084v3.149Z" transform="translate(-452.65 -172.001)" fill="#fff"/>
          <path id="Path_1535" data-name="Path 1535" d="M495.317,184.792v3.148L482.09,195.57v-3.149Z" transform="translate(-395.498 -167.537)" fill="#fff"/>
          <path id="Path_1536" data-name="Path 1536" d="M495.317,186.748V189.9l-13.226,7.629v-3.149Z" transform="translate(-395.498 -163.741)" fill="#fff"/>
          <path id="Path_1537" data-name="Path 1537" d="M495.317,194.57v3.149l-13.226,7.629V202.2Z" transform="translate(-395.498 -148.556)" fill="#fff"/>
          <path id="Path_1538" data-name="Path 1538" d="M495.317,196.525v3.149L482.09,207.3v-3.149Z" transform="translate(-395.498 -144.76)" fill="#fff"/>
          <g id="Group_356" data-name="Group 356" transform="translate(30.132 62.257)">
            <path id="Path_1539" data-name="Path 1539" d="M462.895,229.8l51.5-29.7v3.149l-51.5,29.7Z" transform="translate(-462.895 -200.092)" fill="#fff"/>
          </g>
          <g id="Group_357" data-name="Group 357" transform="translate(0 56.505)">
            <path id="Path_1540" data-name="Path 1540" d="M471.606,213.06l25.874-14.924v3.149l-25.874,14.924Z" transform="translate(-415.85 -198.137)" fill="#fff"/>
            <path id="Path_1541" data-name="Path 1541" d="M505.692,203.743v3.148l-53.042,30.6v-3.149Z" transform="translate(-452.65 -187.253)" fill="#fff"/>
          </g>
          <path id="Path_1542" data-name="Path 1542" d="M459.628,206.91v3.149l-6.978,4.025v-3.149Z" transform="translate(-452.65 -124.6)" fill="#fff"/>
          <path id="Path_1543" data-name="Path 1543" d="M467.933,211.471l36.679-21.156v3.149L467.933,214.62Z" transform="translate(-422.982 -156.817)" fill="#fff"/>
          <g id="Group_358" data-name="Group 358" transform="translate(24.493 1.538)">
            <path id="Path_1544" data-name="Path 1544" d="M460.977,198.352l32.773-18.9V182.6l-32.773,18.9Z" transform="translate(-460.977 -179.449)" fill="#fff"/>
          </g>
          <path id="Path_1545" data-name="Path 1545" d="M467.471,192.87l23.074-13.309v3.149l-23.074,13.309Z" transform="translate(-423.878 -177.694)" fill="#fff"/>
          <g id="Group_359" data-name="Group 359" transform="translate(0 16.741)">
            <path id="Path_1546" data-name="Path 1546" d="M459.241,197.016l21.5-12.4v3.148l-21.5,12.4Z" transform="translate(-439.857 -184.618)" fill="#fff"/>
            <path id="Path_1547" data-name="Path 1547" d="M469.32,189.365v3.149l-16.669,9.615V198.98Z" transform="translate(-452.65 -175.401)" fill="#fff"/>
          </g>
          <path id="Path_1548" data-name="Path 1548" d="M490.428,179.418v3.149l-17.385,10.028v-3.149Z" transform="translate(-413.062 -177.97)" fill="#fff"/>
          <path id="Path_1549" data-name="Path 1549" d="M454.963,212.468l50.465-29.108v3.148l-50.465,29.108Z" transform="translate(-448.161 -170.319)" fill="#fff"/>
          <path id="Path_1550" data-name="Path 1550" d="M464.785,206.012l32.979-19.022v3.149L464.785,209.16Z" transform="translate(-429.092 -163.272)" fill="#fff"/>
          <path id="Path_1551" data-name="Path 1551" d="M454.963,209.088l26.178-15.1v3.149l-26.178,15.1Z" transform="translate(-448.161 -149.684)" fill="#fff"/>
          <g id="Group_360" data-name="Group 360" transform="translate(9.692 56.22)">
            <path id="Path_1552" data-name="Path 1552" d="M455.945,216.812,488.49,198.04v3.149L455.945,219.96Z" transform="translate(-455.945 -198.04)" fill="#fff"/>
          </g>
          <path id="Path_1553" data-name="Path 1553" d="M473.671,202.9v3.149l-17.725,10.224v-3.149Z" transform="translate(-446.253 -132.382)" fill="#fff"/>
          <path id="Path_1554" data-name="Path 1554" d="M478.233,195.952l6.383-3.682v3.149l-6.383,3.682Z" transform="translate(-402.986 -153.02)" fill="#fff"/>
          <g id="Group_361" data-name="Group 361" transform="translate(30.132 44.497)">
            <path id="Path_1555" data-name="Path 1555" d="M496.053,195.867v3.149l-33.159,19.126v-3.149Z" transform="translate(-462.895 -190.536)" fill="#fff"/>
            <path id="Path_1556" data-name="Path 1556" d="M475.091,197.819l6.528-3.765V197.2l-6.528,3.765Z" transform="translate(-439.218 -194.054)" fill="#fff"/>
          </g>
          <path id="Path_1557" data-name="Path 1557" d="M464.98,216.928l36.266-20.918v3.149L464.98,220.077Z" transform="translate(-428.714 -145.761)" fill="#fff"/>
        </g>
      </g>
      <g id="Group_364" data-name="Group 364" transform="translate(205.777 0)" opacity="0.4">
        <path id="Path_1558" data-name="Path 1558" d="M462.61,174.356l54.848-31.762v2.79L462.61,177.147Z" transform="translate(-433.314 -142.594)" fill="#fff"/>
        <path id="Path_1559" data-name="Path 1559" d="M536.794,147.247,452.65,195.916v-2.789l84.144-48.67Z" transform="translate(-452.65 -138.978)" fill="#fff"/>
        <path id="Path_1560" data-name="Path 1560" d="M478.278,154.1v2.79L452.65,171.727v-2.79Z" transform="translate(-452.65 -120.266)" fill="#fff"/>
        <path id="Path_1561" data-name="Path 1561" d="M462.61,177.992l54.848-31.763v2.79L462.61,180.781Z" transform="translate(-433.314 -135.54)" fill="#fff"/>
        <path id="Path_1562" data-name="Path 1562" d="M536.794,150.881,452.65,199.55v-2.789l84.144-48.67Z" transform="translate(-452.65 -131.923)" fill="#fff"/>
        <path id="Path_1563" data-name="Path 1563" d="M478.278,160.519,452.65,175.361v-2.79l25.628-14.841Z" transform="translate(-452.65 -113.211)" fill="#fff"/>
        <path id="Path_1564" data-name="Path 1564" d="M462.61,183.991l54.848-31.763v2.79L462.61,186.781Z" transform="translate(-433.314 -123.892)" fill="#fff"/>
        <path id="Path_1565" data-name="Path 1565" d="M536.794,156.881,452.65,205.55V202.76l84.144-48.669Z" transform="translate(-452.65 -120.276)" fill="#fff"/>
        <path id="Path_1566" data-name="Path 1566" d="M478.278,166.52,452.65,181.36v-2.79l25.628-14.841Z" transform="translate(-452.65 -101.564)" fill="#fff"/>
        <path id="Path_1567" data-name="Path 1567" d="M462.61,187.625l54.848-31.763v2.79L462.61,190.414Z" transform="translate(-433.314 -116.837)" fill="#fff"/>
        <path id="Path_1568" data-name="Path 1568" d="M536.794,160.515,452.65,209.184v-2.789l84.144-48.669Z" transform="translate(-452.65 -113.221)" fill="#fff"/>
        <path id="Path_1569" data-name="Path 1569" d="M478.278,170.153,452.65,184.995V182.2l25.628-14.841Z" transform="translate(-452.65 -94.509)" fill="#fff"/>
        <path id="Path_1570" data-name="Path 1570" d="M462.61,193.624l54.848-31.763v2.79L462.61,196.415Z" transform="translate(-433.314 -105.19)" fill="#fff"/>
        <path id="Path_1571" data-name="Path 1571" d="M536.794,166.515,452.65,215.183v-2.79l84.144-48.669Z" transform="translate(-452.65 -101.573)" fill="#fff"/>
        <path id="Path_1572" data-name="Path 1572" d="M478.278,176.153,452.65,190.994V188.2l25.628-14.841Z" transform="translate(-452.65 -82.862)" fill="#fff"/>
        <path id="Path_1573" data-name="Path 1573" d="M462.61,197.259,517.458,165.5v2.79L462.61,200.048Z" transform="translate(-433.314 -98.135)" fill="#fff"/>
        <path id="Path_1574" data-name="Path 1574" d="M478.278,179.788,452.65,194.628v-2.79L478.278,177Z" transform="translate(-452.65 -75.807)" fill="#fff"/>
      </g>
      <g id="Group_366" data-name="Group 366" transform="translate(411.257 196.791)">
        <g id="Group_365" data-name="Group 365">
          <path id="Path_1575" data-name="Path 1575" d="M522.51,209.5l.079.044.006-.009C522.566,209.521,522.536,209.515,522.51,209.5Z" transform="translate(-522.51 -209.5)" fill="#bbcee1"/>
        </g>
      </g>
      <g id="Group_374" data-name="Group 374" transform="translate(428.261 115.571)" opacity="0.4">
        <g id="Group_373" data-name="Group 373">
          <path id="Path_1576" data-name="Path 1576" d="M570.958,181.887v3.149l-13.227,7.629v-3.149Z" transform="translate(-471.139 -181.887)" fill="#fff"/>
          <path id="Path_1577" data-name="Path 1577" d="M570.958,183.842v3.149l-13.227,7.629v-3.149Z" transform="translate(-471.139 -178.09)" fill="#fff"/>
          <path id="Path_1578" data-name="Path 1578" d="M570.958,185.8v3.149l-13.227,7.629v-3.149Z" transform="translate(-471.139 -174.294)" fill="#fff"/>
          <path id="Path_1579" data-name="Path 1579" d="M528.291,241.553V238.4l81.63-47.084v3.148Z" transform="translate(-528.291 -163.573)" fill="#fff"/>
          <path id="Path_1580" data-name="Path 1580" d="M570.958,187.753V190.9l-13.227,7.629v-3.149Z" transform="translate(-471.139 -170.498)" fill="#fff"/>
          <path id="Path_1581" data-name="Path 1581" d="M570.958,189.709v3.148l-13.227,7.629v-3.149Z" transform="translate(-471.139 -166.702)" fill="#fff"/>
          <path id="Path_1582" data-name="Path 1582" d="M528.291,243.509V240.36l81.63-47.084v3.149Z" transform="translate(-528.291 -159.777)" fill="#fff"/>
          <path id="Path_1583" data-name="Path 1583" d="M570.958,195.575v3.149l-13.227,7.629V203.2Z" transform="translate(-471.139 -155.313)" fill="#fff"/>
          <path id="Path_1584" data-name="Path 1584" d="M570.958,197.53v3.149l-13.227,7.629v-3.149Z" transform="translate(-471.139 -151.517)" fill="#fff"/>
          <path id="Path_1585" data-name="Path 1585" d="M570.958,205.352V208.5l-13.227,7.629v-3.149Z" transform="translate(-471.139 -136.332)" fill="#fff"/>
          <path id="Path_1586" data-name="Path 1586" d="M570.958,207.308v3.149l-13.227,7.629v-3.149Z" transform="translate(-471.139 -132.536)" fill="#fff"/>
          <g id="Group_367" data-name="Group 367" transform="translate(0 85.264)">
            <path id="Path_1587" data-name="Path 1587" d="M538.535,240.579l51.5-29.7v3.148l-51.5,29.7Z" transform="translate(-508.404 -210.875)" fill="#fff"/>
            <path id="Path_1588" data-name="Path 1588" d="M555.708,221.506v3.149l-27.417,15.814V237.32Z" transform="translate(-528.291 -190.236)" fill="#fff"/>
          </g>
          <g id="Group_368" data-name="Group 368" transform="translate(0 79.512)">
            <path id="Path_1589" data-name="Path 1589" d="M547.247,223.843l25.873-14.924v3.149l-25.873,14.924Z" transform="translate(-491.491 -208.919)" fill="#fff"/>
            <path id="Path_1590" data-name="Path 1590" d="M581.333,214.525v3.149l-53.042,30.595V245.12Z" transform="translate(-528.291 -198.036)" fill="#fff"/>
          </g>
          <path id="Path_1591" data-name="Path 1591" d="M535.269,217.692v3.149l-6.977,4.025v-3.149Z" transform="translate(-528.291 -112.376)" fill="#fff"/>
          <path id="Path_1592" data-name="Path 1592" d="M543.574,222.254,580.252,201.1v3.148L543.574,225.4Z" transform="translate(-498.623 -144.592)" fill="#fff"/>
          <path id="Path_1593" data-name="Path 1593" d="M548.683,197.941l21.649-12.488V188.6L548.683,201.09Z" transform="translate(-488.703 -174.962)" fill="#fff"/>
          <g id="Group_369" data-name="Group 369" transform="translate(24.493 24.544)">
            <path id="Path_1594" data-name="Path 1594" d="M536.618,209.135l32.773-18.9v3.149l-32.773,18.9Z" transform="translate(-536.618 -190.231)" fill="#fff"/>
          </g>
          <path id="Path_1595" data-name="Path 1595" d="M543.112,203.652l23.074-13.309v3.149L543.112,206.8Z" transform="translate(-499.519 -165.47)" fill="#fff"/>
          <g id="Group_370" data-name="Group 370" transform="translate(0 39.748)">
            <path id="Path_1596" data-name="Path 1596" d="M534.881,207.8l21.5-12.4v3.149l-21.5,12.4Z" transform="translate(-515.497 -195.4)" fill="#fff"/>
            <path id="Path_1597" data-name="Path 1597" d="M544.961,200.148V203.3l-16.669,9.615v-3.149Z" transform="translate(-528.291 -186.184)" fill="#fff"/>
          </g>
          <path id="Path_1598" data-name="Path 1598" d="M566.069,190.2v3.149l-17.385,10.028v-3.149Z" transform="translate(-488.703 -165.746)" fill="#fff"/>
          <path id="Path_1599" data-name="Path 1599" d="M530.6,223.251l50.465-29.108v3.149L530.6,226.4Z" transform="translate(-523.802 -158.094)" fill="#fff"/>
          <path id="Path_1600" data-name="Path 1600" d="M540.426,216.794l32.979-19.022v3.149l-32.979,19.023Z" transform="translate(-504.733 -151.048)" fill="#fff"/>
          <path id="Path_1601" data-name="Path 1601" d="M530.6,219.871l26.178-15.1v3.148l-26.178,15.1Z" transform="translate(-523.802 -137.46)" fill="#fff"/>
          <g id="Group_371" data-name="Group 371" transform="translate(9.692 79.227)">
            <path id="Path_1602" data-name="Path 1602" d="M531.586,227.594l32.544-18.772v3.149l-32.544,18.772Z" transform="translate(-531.586 -208.822)" fill="#fff"/>
          </g>
          <path id="Path_1603" data-name="Path 1603" d="M549.312,213.684v3.148l-17.725,10.224v-3.148Z" transform="translate(-521.894 -120.157)" fill="#fff"/>
          <path id="Path_1604" data-name="Path 1604" d="M553.874,206.735l6.383-3.682V206.2l-6.383,3.682Z" transform="translate(-478.627 -140.796)" fill="#fff"/>
          <g id="Group_372" data-name="Group 372" transform="translate(30.132 67.504)">
            <path id="Path_1605" data-name="Path 1605" d="M571.694,206.649V209.8l-33.159,19.126v-3.149Z" transform="translate(-538.535 -201.318)" fill="#fff"/>
            <path id="Path_1606" data-name="Path 1606" d="M550.732,208.6l6.528-3.765v3.149l-6.528,3.765Z" transform="translate(-514.858 -204.837)" fill="#fff"/>
          </g>
          <path id="Path_1607" data-name="Path 1607" d="M540.621,227.711l36.267-20.918v3.148l-36.267,20.919Z" transform="translate(-504.355 -133.536)" fill="#fff"/>
        </g>
      </g>
      <path id="Path_1608" data-name="Path 1608" d="M430.411,211.675l40.973-23.642a3,3,0,0,1,4.5,2.6v49.047a6.693,6.693,0,0,1-3.341,5.792l-40.967,23.683a3.076,3.076,0,0,1-4.615-2.662V217.652A6.9,6.9,0,0,1,430.411,211.675Z" transform="translate(-296.751 -55.171)" fill="#fff" opacity="0.2"/>
      <path id="Path_1683" data-name="Path 1683" d="M430.411,211.675l40.973-23.642a3,3,0,0,1,4.5,2.6v49.047a6.693,6.693,0,0,1-3.341,5.792l-40.967,23.683a3.076,3.076,0,0,1-4.615-2.662V217.652A6.9,6.9,0,0,1,430.411,211.675Z" transform="translate(-91.339 -176.632)" fill="#fff" opacity="0.2"/>
      <path id="Path_1609" data-name="Path 1609" d="M411.387,179.445l40.973-23.639a3,3,0,0,1,4.5,2.6v49.047a6.7,6.7,0,0,1-3.341,5.791l-40.967,23.684a3.076,3.076,0,0,1-4.615-2.662V185.422A6.9,6.9,0,0,1,411.387,179.445Z" transform="translate(-333.683 -117.734)" fill="#fff" opacity="0.2"/>
      <path id="Path_1610" data-name="Path 1610" d="M489.623,225.6,530.6,201.962a3,3,0,0,1,4.5,2.6v49.044a6.689,6.689,0,0,1-3.341,5.791l-40.97,23.686a3.073,3.073,0,0,1-4.612-2.662V231.581A6.9,6.9,0,0,1,489.623,225.6Z" transform="translate(-181.801 -28.13)" fill="#fff" opacity="0.2"/>
      <g id="Group_377" data-name="Group 377" transform="translate(436.567 214.398)">
        <g id="Group_376" data-name="Group 376">
          <path id="Path_1612" data-name="Path 1612" d="M534.936,215.486m-3.821,6.633" transform="translate(-531.115 -215.486)" fill="#0b3b56"/>
        </g>
      </g>
      <g id="Group_378" data-name="Group 378" transform="translate(38.091 458.119)">
        <path id="Path_1613" data-name="Path 1613" d="M395.64,298.347" transform="translate(-395.64 -298.347)" fill="#fff"/>
      </g>
      <g id="Group_380" data-name="Group 380" transform="translate(51.215 390.213)">
        <g id="Group_379" data-name="Group 379">
          <path id="Path_1614" data-name="Path 1614" d="M400.1,275.26l.079.047.006-.012C400.161,275.281,400.128,275.275,400.1,275.26Z" transform="translate(-400.102 -275.26)" fill="#bbcee1"/>
        </g>
      </g>
      <g id="Group_382" data-name="Group 382" transform="translate(169.374 261.739)">
        <g id="Group_381" data-name="Group 381">
          <path id="Path_1615" data-name="Path 1615" d="M440.274,231.581l.079.047.006-.012C440.333,231.6,440.3,231.6,440.274,231.581Z" transform="translate(-440.274 -231.581)" fill="#bbcee1"/>
        </g>
      </g>
      <g id="Group_384" data-name="Group 384" transform="translate(287.012 136.268)">
        <g id="Group_383" data-name="Group 383">
          <path id="Path_1616" data-name="Path 1616" d="M480.269,188.923l.077.044.009-.009C480.328,188.944,480.3,188.938,480.269,188.923Z" transform="translate(-480.269 -188.923)" fill="#bbcee1"/>
        </g>
      </g>
      <g id="Group_394" data-name="Group 394" transform="translate(124.263 261.825)" opacity="0.4">
        <g id="Group_393" data-name="Group 393">
          <path id="Path_1621" data-name="Path 1621" d="M467.6,231.61v3.148l-13.227,7.629v-3.149Z" transform="translate(-367.785 -231.61)" fill="#fff"/>
          <path id="Path_1622" data-name="Path 1622" d="M467.6,233.566v3.149l-13.227,7.629v-3.149Z" transform="translate(-367.785 -227.814)" fill="#fff"/>
          <path id="Path_1623" data-name="Path 1623" d="M467.6,235.521v3.149L454.377,246.3V243.15Z" transform="translate(-367.785 -224.018)" fill="#fff"/>
          <path id="Path_1624" data-name="Path 1624" d="M424.937,291.276v-3.149l81.63-47.084v3.149Z" transform="translate(-424.937 -213.297)" fill="#fff"/>
          <path id="Path_1625" data-name="Path 1625" d="M467.6,237.477v3.149l-13.227,7.629v-3.149Z" transform="translate(-367.785 -220.222)" fill="#fff"/>
          <path id="Path_1626" data-name="Path 1626" d="M467.6,239.432v3.149l-13.227,7.629v-3.149Z" transform="translate(-367.785 -216.425)" fill="#fff"/>
          <path id="Path_1627" data-name="Path 1627" d="M424.937,293.232v-3.149L506.567,243v3.148Z" transform="translate(-424.937 -209.501)" fill="#fff"/>
          <path id="Path_1628" data-name="Path 1628" d="M467.6,245.3v3.149l-13.227,7.629v-3.149Z" transform="translate(-367.785 -205.037)" fill="#fff"/>
          <path id="Path_1629" data-name="Path 1629" d="M467.6,247.254V250.4l-13.227,7.629v-3.149Z" transform="translate(-367.785 -201.241)" fill="#fff"/>
          <path id="Path_1630" data-name="Path 1630" d="M467.6,255.076v3.149l-13.227,7.629V262.7Z" transform="translate(-367.785 -186.056)" fill="#fff"/>
          <path id="Path_1631" data-name="Path 1631" d="M467.6,257.031v3.149l-13.227,7.629V264.66Z" transform="translate(-367.785 -182.259)" fill="#fff"/>
          <g id="Group_387" data-name="Group 387" transform="translate(0 85.263)">
            <path id="Path_1632" data-name="Path 1632" d="M435.181,290.3l51.5-29.7v3.149l-51.5,29.7Z" transform="translate(-405.049 -260.598)" fill="#fff"/>
            <path id="Path_1633" data-name="Path 1633" d="M452.354,271.229v3.149l-27.417,15.814v-3.149Z" transform="translate(-424.937 -239.959)" fill="#fff"/>
          </g>
          <g id="Group_388" data-name="Group 388" transform="translate(0 79.511)">
            <path id="Path_1634" data-name="Path 1634" d="M443.893,273.567l25.874-14.924v3.149l-25.874,14.924Z" transform="translate(-388.137 -258.643)" fill="#fff"/>
            <path id="Path_1635" data-name="Path 1635" d="M477.979,264.249V267.4l-53.042,30.595v-3.149Z" transform="translate(-424.937 -247.759)" fill="#fff"/>
          </g>
          <path id="Path_1636" data-name="Path 1636" d="M431.914,267.416v3.149l-6.977,4.025V271.44Z" transform="translate(-424.937 -162.1)" fill="#fff"/>
          <path id="Path_1637" data-name="Path 1637" d="M440.22,271.977,476.9,250.821v3.149L440.22,275.126Z" transform="translate(-395.268 -194.316)" fill="#fff"/>
          <path id="Path_1638" data-name="Path 1638" d="M445.329,247.664l21.65-12.487v3.149l-21.65,12.488Z" transform="translate(-385.349 -224.686)" fill="#fff"/>
          <g id="Group_389" data-name="Group 389" transform="translate(24.493 24.544)">
            <path id="Path_1639" data-name="Path 1639" d="M433.264,258.858l32.773-18.9V243.1l-32.773,18.9Z" transform="translate(-433.264 -239.955)" fill="#fff"/>
          </g>
          <path id="Path_1640" data-name="Path 1640" d="M439.758,253.376l23.074-13.31v3.149l-23.074,13.309Z" transform="translate(-396.164 -215.194)" fill="#fff"/>
          <g id="Group_390" data-name="Group 390" transform="translate(0 39.748)">
            <path id="Path_1641" data-name="Path 1641" d="M431.527,257.522l21.5-12.4v3.149l-21.5,12.4Z" transform="translate(-412.143 -245.124)" fill="#fff"/>
            <path id="Path_1642" data-name="Path 1642" d="M441.607,249.871v3.149l-16.67,9.615v-3.148Z" transform="translate(-424.937 -235.907)" fill="#fff"/>
          </g>
          <path id="Path_1643" data-name="Path 1643" d="M462.715,239.924v3.149L445.329,253.1v-3.149Z" transform="translate(-385.349 -215.47)" fill="#fff"/>
          <path id="Path_1644" data-name="Path 1644" d="M427.249,272.974l50.465-29.108v3.149l-50.465,29.108Z" transform="translate(-420.448 -207.818)" fill="#fff"/>
          <path id="Path_1645" data-name="Path 1645" d="M437.072,266.518,470.051,247.5v3.149l-32.979,19.023Z" transform="translate(-401.379 -200.772)" fill="#fff"/>
          <path id="Path_1646" data-name="Path 1646" d="M427.249,269.595l26.178-15.1v3.149l-26.178,15.1Z" transform="translate(-420.448 -187.184)" fill="#fff"/>
          <g id="Group_391" data-name="Group 391" transform="translate(9.692 79.227)">
            <path id="Path_1647" data-name="Path 1647" d="M428.232,277.318l32.545-18.772v3.149l-32.545,18.772Z" transform="translate(-428.232 -258.546)" fill="#fff"/>
          </g>
          <path id="Path_1648" data-name="Path 1648" d="M445.957,263.407v3.149l-17.725,10.224v-3.149Z" transform="translate(-418.54 -169.881)" fill="#fff"/>
          <path id="Path_1649" data-name="Path 1649" d="M450.52,256.458l6.383-3.682v3.149l-6.383,3.682Z" transform="translate(-375.273 -190.52)" fill="#fff"/>
          <g id="Group_392" data-name="Group 392" transform="translate(30.132 67.504)">
            <path id="Path_1650" data-name="Path 1650" d="M468.34,256.373v3.149l-33.159,19.126V275.5Z" transform="translate(-435.181 -251.042)" fill="#fff"/>
            <path id="Path_1651" data-name="Path 1651" d="M447.377,258.326l6.528-3.765v3.149l-6.528,3.765Z" transform="translate(-411.504 -254.56)" fill="#fff"/>
          </g>
          <path id="Path_1652" data-name="Path 1652" d="M437.267,277.435l36.266-20.919v3.149l-36.266,20.918Z" transform="translate(-401.001 -183.26)" fill="#fff"/>
        </g>
      </g>
      <g id="Group_402" data-name="Group 402" transform="translate(0 140.62)" opacity="0.4">
        <g id="Group_401" data-name="Group 401" transform="translate(0)">
          <path id="Path_1653" data-name="Path 1653" d="M426.267,164.594v3.149l-13.226,7.629v-3.149Z" transform="translate(-326.448 -164.594)" fill="#fff"/>
          <path id="Path_1654" data-name="Path 1654" d="M426.267,166.549V169.7l-13.226,7.629v-3.149Z" transform="translate(-326.448 -160.797)" fill="#fff"/>
          <path id="Path_1655" data-name="Path 1655" d="M426.267,168.5v3.149l-13.226,7.629v-3.149Z" transform="translate(-326.448 -157.001)" fill="#fff"/>
          <path id="Path_1656" data-name="Path 1656" d="M383.6,224.26v-3.149l81.63-47.084v3.149Z" transform="translate(-383.601 -146.281)" fill="#fff"/>
          <path id="Path_1657" data-name="Path 1657" d="M426.267,170.46v3.149l-13.226,7.629v-3.149Z" transform="translate(-326.448 -153.205)" fill="#fff"/>
          <path id="Path_1658" data-name="Path 1658" d="M426.267,172.416v3.149l-13.226,7.629v-3.149Z" transform="translate(-326.448 -149.409)" fill="#fff"/>
          <path id="Path_1659" data-name="Path 1659" d="M383.6,226.215v-3.148l81.63-47.084v3.149Z" transform="translate(-383.601 -142.484)" fill="#fff"/>
          <path id="Path_1660" data-name="Path 1660" d="M426.267,178.282v3.149l-13.226,7.629v-3.148Z" transform="translate(-326.448 -138.02)" fill="#fff"/>
          <path id="Path_1661" data-name="Path 1661" d="M426.267,180.238v3.149l-13.226,7.629v-3.149Z" transform="translate(-326.448 -134.224)" fill="#fff"/>
          <path id="Path_1662" data-name="Path 1662" d="M426.267,188.059v3.149l-13.226,7.629v-3.149Z" transform="translate(-326.448 -119.039)" fill="#fff"/>
          <path id="Path_1663" data-name="Path 1663" d="M426.267,190.015v3.149l-13.226,7.629v-3.149Z" transform="translate(-326.448 -115.243)" fill="#fff"/>
          <g id="Group_395" data-name="Group 395" transform="translate(30.132 85.264)">
            <path id="Path_1664" data-name="Path 1664" d="M393.845,223.286l51.5-29.7v3.148l-51.5,29.7Z" transform="translate(-393.845 -193.582)" fill="#fff"/>
          </g>
          <g id="Group_396" data-name="Group 396" transform="translate(55.757 79.512)">
            <path id="Path_1665" data-name="Path 1665" d="M402.557,206.55l25.873-14.924v3.149L402.557,209.7Z" transform="translate(-402.557 -191.626)" fill="#fff"/>
          </g>
          <path id="Path_1666" data-name="Path 1666" d="M390.578,200.4v3.148l-6.978,4.025v-3.149Z" transform="translate(-383.601 -95.083)" fill="#fff"/>
          <path id="Path_1667" data-name="Path 1667" d="M398.883,204.961,435.562,183.8v3.148L398.883,208.11Z" transform="translate(-353.932 -127.299)" fill="#fff"/>
          <path id="Path_1668" data-name="Path 1668" d="M403.993,180.648l21.649-12.488v3.149L403.993,183.8Z" transform="translate(-344.012 -157.669)" fill="#fff"/>
          <g id="Group_397" data-name="Group 397" transform="translate(24.493 24.544)">
            <path id="Path_1669" data-name="Path 1669" d="M391.928,191.842l32.773-18.9v3.149l-32.773,18.9Z" transform="translate(-391.928 -172.938)" fill="#fff"/>
          </g>
          <path id="Path_1670" data-name="Path 1670" d="M398.422,186.359,421.5,173.05V176.2l-23.074,13.309Z" transform="translate(-354.828 -148.177)" fill="#fff"/>
          <g id="Group_398" data-name="Group 398" transform="translate(0 39.748)">
            <path id="Path_1671" data-name="Path 1671" d="M390.191,190.506l21.5-12.4v3.149l-21.5,12.4Z" transform="translate(-370.807 -178.107)" fill="#fff"/>
            <path id="Path_1672" data-name="Path 1672" d="M400.27,182.855V186l-16.67,9.615V192.47Z" transform="translate(-383.601 -168.891)" fill="#fff"/>
          </g>
          <path id="Path_1673" data-name="Path 1673" d="M421.378,172.908v3.148l-17.385,10.028v-3.149Z" transform="translate(-344.012 -148.453)" fill="#fff"/>
          <path id="Path_1674" data-name="Path 1674" d="M385.913,205.957l50.465-29.108V180l-50.465,29.108Z" transform="translate(-379.112 -140.801)" fill="#fff"/>
          <path id="Path_1675" data-name="Path 1675" d="M395.736,199.5l32.979-19.022v3.149L395.736,202.65Z" transform="translate(-360.042 -133.755)" fill="#fff"/>
          <path id="Path_1676" data-name="Path 1676" d="M385.913,202.578l26.178-15.1v3.148l-26.178,15.1Z" transform="translate(-379.112 -120.167)" fill="#fff"/>
          <g id="Group_399" data-name="Group 399" transform="translate(9.692 79.227)">
            <path id="Path_1677" data-name="Path 1677" d="M386.9,210.3,419.44,191.53v3.149L386.9,213.45Z" transform="translate(-386.896 -191.53)" fill="#fff"/>
          </g>
          <path id="Path_1678" data-name="Path 1678" d="M404.621,196.391v3.148L386.9,209.764v-3.148Z" transform="translate(-377.204 -102.864)" fill="#fff"/>
          <path id="Path_1679" data-name="Path 1679" d="M409.183,189.442l6.383-3.682v3.149l-6.383,3.682Z" transform="translate(-333.936 -123.503)" fill="#fff"/>
          <g id="Group_400" data-name="Group 400" transform="translate(30.132 67.504)">
            <path id="Path_1680" data-name="Path 1680" d="M427,189.356v3.149l-33.159,19.126v-3.149Z" transform="translate(-393.845 -184.026)" fill="#fff"/>
            <path id="Path_1681" data-name="Path 1681" d="M406.041,191.309l6.527-3.765v3.148l-6.527,3.766Z" transform="translate(-370.168 -187.544)" fill="#fff"/>
          </g>
          <path id="Path_1682" data-name="Path 1682" d="M395.931,210.418,432.2,189.5v3.148l-36.266,20.919Z" transform="translate(-359.664 -116.243)" fill="#fff"/>
        </g>
      </g>
    </g>
    <g id="gear" transform="matrix(-1, 0.017, -0.017, -1, 1163.697, 696.649)" opacity="0.2">
      <g id="Group_118" data-name="Group 118">
        <g id="Group_117" data-name="Group 117">
          <path id="Path_501" data-name="Path 501" d="M216.576,125.644V90.932L191.218,86.7a84.925,84.925,0,0,0-9.044-21.771l14.959-20.943L172.584,19.445,151.641,34.4a84.762,84.762,0,0,0-21.769-9.046L125.647,0H90.93L86.7,25.358A84.762,84.762,0,0,0,64.935,34.4L43.992,19.445,19.443,43.988,34.4,64.931A84.926,84.926,0,0,0,25.358,86.7L0,90.932v34.712l25.358,4.23A84.926,84.926,0,0,0,34.4,151.646L19.443,172.589l24.549,24.543,20.943-14.959A84.761,84.761,0,0,0,86.7,191.218l4.226,25.358h34.717l4.226-25.358a84.762,84.762,0,0,0,21.769-9.046l20.943,14.959,24.549-24.543-14.959-20.943a84.926,84.926,0,0,0,9.044-21.771Zm-33.452-.7a76.04,76.04,0,0,1-10.163,24.472l-1.637,2.569,14.023,19.63L171.61,185.349l-19.634-14.025-2.567,1.635a76.016,76.016,0,0,1-24.472,10.165l-2.974.661L118,207.552H98.575l-3.961-23.767-2.974-.661a76.016,76.016,0,0,1-24.472-10.165L64.6,171.324,44.966,185.349,31.229,171.61l14.023-19.63-1.637-2.569a76.04,76.04,0,0,1-10.163-24.472l-.659-2.974L9.024,118V98.572l23.77-3.961.659-2.974A76.04,76.04,0,0,1,43.615,67.165L45.252,64.6,31.229,44.966,44.966,31.227,64.6,45.252l2.567-1.635A76.016,76.016,0,0,1,91.639,33.452l2.974-.661L98.575,9.024H118l3.961,23.767,2.974.661a76.017,76.017,0,0,1,24.472,10.165l2.567,1.635L171.61,31.227l13.736,13.739L171.324,64.6l1.637,2.569a76.04,76.04,0,0,1,10.163,24.472l.659,2.974,23.77,3.961V118l-23.77,3.961Z" fill="#fff"/>
        </g>
      </g>
      <g id="Group_120" data-name="Group 120" transform="translate(63.168 63.168)">
        <g id="Group_119" data-name="Group 119">
          <path id="Path_502" data-name="Path 502" d="M45.12,0A45.12,45.12,0,1,0,90.24,45.12,45.172,45.172,0,0,0,45.12,0Zm0,81.216a36.1,36.1,0,1,1,36.1-36.1A36.137,36.137,0,0,1,45.12,81.216Z" fill="#fff"/>
        </g>
      </g>
    </g>
    <g id="gear-2" data-name="gear" transform="matrix(-1, 0.017, -0.017, -1, 918.611, 1350.448)" opacity="0.2">
      <g id="Group_118-2" data-name="Group 118">
        <g id="Group_117-2" data-name="Group 117">
          <path id="Path_501-2" data-name="Path 501" d="M154.041,89.365V64.676L136,61.667a60.4,60.4,0,0,0-6.432-15.485l10.64-14.9L122.751,13.83l-14.9,10.64a60.287,60.287,0,0,0-15.483-6.434L89.367,0H64.674L61.669,18.036A60.287,60.287,0,0,0,46.185,24.47L31.29,13.83,13.829,31.286l10.64,14.9a60.4,60.4,0,0,0-6.432,15.485L0,64.676V89.365l18.036,3.009a60.4,60.4,0,0,0,6.432,15.485l-10.64,14.9L31.29,140.211l14.9-10.64A60.288,60.288,0,0,0,61.669,136l3.005,18.036H89.367L92.372,136a60.288,60.288,0,0,0,15.483-6.434l14.9,10.64,17.461-17.456-10.64-14.9A60.4,60.4,0,0,0,136,92.374Zm-23.793-.5a54.083,54.083,0,0,1-7.228,17.406l-1.164,1.827,9.974,13.962-9.77,9.772-13.965-9.975-1.826,1.163a54.067,54.067,0,0,1-17.406,7.23l-2.115.47-2.817,16.9H70.112l-2.817-16.9-2.115-.47a54.066,54.066,0,0,1-17.406-7.23l-1.826-1.163L31.982,131.83l-9.77-9.772L32.186,108.1l-1.164-1.827a54.084,54.084,0,0,1-7.229-17.406l-.469-2.115L6.418,83.931V70.11l16.906-2.817.469-2.115a54.084,54.084,0,0,1,7.228-17.406l1.164-1.827L22.212,31.982l9.77-9.772,13.965,9.975,1.826-1.163a54.067,54.067,0,0,1,17.406-7.23l2.115-.47,2.817-16.9H83.929l2.817,16.9,2.115.47a54.067,54.067,0,0,1,17.406,7.23l1.826,1.163,13.965-9.975,9.77,9.772-9.974,13.962,1.164,1.827a54.084,54.084,0,0,1,7.228,17.406l.469,2.115,16.906,2.817V83.931l-16.906,2.817Z" fill="#fff"/>
        </g>
      </g>
      <g id="Group_120-2" data-name="Group 120" transform="translate(44.929 44.929)">
        <g id="Group_119-2" data-name="Group 119">
          <path id="Path_502-2" data-name="Path 502" d="M32.092,0A32.092,32.092,0,1,0,64.184,32.092,32.129,32.129,0,0,0,32.092,0Zm0,57.765A25.673,25.673,0,1,1,57.765,32.092,25.7,25.7,0,0,1,32.092,57.765Z" fill="#fff"/>
        </g>
      </g>
    </g>
  </g>
</svg>
