<?xml version="1.0" encoding="UTF-8"?>
<svg viewBox="0 0 1024 1366" xmlns="http://www.w3.org/2000/svg">
<defs>
<linearGradient id="b" x1=".565" x2="-.079" y1=".178" y2=".9">
<stop offset="0"/>
<stop stop-color="#2ba6f8" offset="1"/>
<stop offset="1"/>
</linearGradient>
<linearGradient id="a" x1=".606" x2="-.079" y1=".047" y2=".9">
<stop stop-color="#2ba6f8" offset="0"/>
<stop offset="1"/>
</linearGradient>
<clipPath id="c">
<rect width="1024" height="1366"/>
</clipPath>
</defs>
<g clip-path="url(#c)" data-name="Portfolio Site HomePage Middle Div - Tablet">
<rect width="1024" height="1366" fill="#fff"/>
<g transform="translate(2059.4 1467.4) rotate(167)" data-name="Group 417">
<path transform="translate(0 -63.48)" d="m1462.5 143.22s-558.1-298.45-888.62-404.38 155.33 385.58 199.91 459.22c48.327 79.83 343.87 310.73 338.12 389.69-7.549 103.61-160.85 116.54-288.16 182.4-307.41 159.04-402.86-54.618-285.74 21.433s-15.94 122.37-177.98 116.55c-349.94-12.557 310.04 267.39 369.03 348.08s-128.62 242.3-339.88-51.5-99.092 164.92-99.092 164.92h-290.05v-1226.4z" fill="url(#b)" data-name="Path 1"/>
<path transform="translate(0 15.674)" d="m324.9 64.069s395.72-20.627 466.17 239.4c76.766 283.33-168.76 416.56-252.05 351.52s-87.062-153.43 42.587-211.76 116.61-238.13-166.86-193.26-316.26 405.56-110.89 491.86 155.33 187.9-65.582 295.88-100.1 252.78-100.1 252.78h-138.18v-1226.4z" fill="url(#a)" data-name="Path 2"/>
</g>
<g transform="translate(1275.7 1156.2) rotate(167)" data-name="Group 418">
<g transform="translate(205.78 106.86)" opacity=".4" data-name="Group 363">
<g data-name="Group 362">
<path transform="translate(-452.65 -175.8)" d="m452.65 230.77v-3.148l81.63-47.084v3.149z" fill="#fff" data-name="Path 1532"/>
<path transform="translate(-395.5 -178.93)" d="m495.32 178.93v3.149l-13.227 7.625v-3.149z" fill="#fff" data-name="Path 1533"/>
<path transform="translate(-452.65 -172)" d="m452.65 232.73v-3.149l81.63-47.084v3.149z" fill="#fff" data-name="Path 1534"/>
<path transform="translate(-395.5 -167.54)" d="m495.32 184.79v3.148l-13.227 7.63v-3.149z" fill="#fff" data-name="Path 1535"/>
<path transform="translate(-395.5 -163.74)" d="m495.32 186.75v3.152l-13.226 7.629v-3.149z" fill="#fff" data-name="Path 1536"/>
<path transform="translate(-395.5 -148.56)" d="m495.32 194.57v3.149l-13.226 7.629v-3.148z" fill="#fff" data-name="Path 1537"/>
<path transform="translate(-395.5 -144.76)" d="m495.32 196.52v3.149l-13.227 7.626v-3.149z" fill="#fff" data-name="Path 1538"/>
<g transform="translate(30.132 62.257)" data-name="Group 356">
<path transform="translate(-462.9 -200.09)" d="m462.9 229.8l51.5-29.7v3.149l-51.5 29.7z" fill="#fff" data-name="Path 1539"/>
</g>
<g transform="translate(0 56.505)" fill="#fff" data-name="Group 357">
<path transform="translate(-415.85 -198.14)" d="m471.61 213.06l25.874-14.924v3.149l-25.874 14.924z" data-name="Path 1540"/>
<path transform="translate(-452.65 -187.25)" d="m505.69 203.74v3.148l-53.042 30.6v-3.149z" data-name="Path 1541"/>
</g>
<path transform="translate(-452.65 -124.6)" d="m459.63 206.91v3.149l-6.978 4.025v-3.149z" fill="#fff" data-name="Path 1542"/>
<path transform="translate(-422.98 -156.82)" d="m467.93 211.47l36.679-21.156v3.149l-36.679 21.156z" fill="#fff" data-name="Path 1543"/>
<g transform="translate(24.493 1.538)" data-name="Group 358">
<path transform="translate(-460.98 -179.45)" d="m460.98 198.35l32.773-18.9v3.148l-32.773 18.9z" fill="#fff" data-name="Path 1544"/>
</g>
<path transform="translate(-423.88 -177.69)" d="m467.47 192.87l23.074-13.309v3.149l-23.074 13.309z" fill="#fff" data-name="Path 1545"/>
<g transform="translate(0 16.741)" fill="#fff" data-name="Group 359">
<path transform="translate(-439.86 -184.62)" d="m459.24 197.02l21.5-12.4v3.148l-21.5 12.4z" data-name="Path 1546"/>
<path transform="translate(-452.65 -175.4)" d="m469.32 189.36v3.149l-16.669 9.615v-3.149z" data-name="Path 1547"/>
</g>
<path transform="translate(-413.06 -177.97)" d="m490.43 179.42v3.149l-17.385 10.028v-3.149z" fill="#fff" data-name="Path 1548"/>
<path transform="translate(-448.16 -170.32)" d="m454.96 212.47l50.465-29.108v3.148l-50.465 29.108z" fill="#fff" data-name="Path 1549"/>
<path transform="translate(-429.09 -163.27)" d="m464.78 206.01l32.979-19.022v3.149l-32.979 19.021z" fill="#fff" data-name="Path 1550"/>
<path transform="translate(-448.16 -149.68)" d="m454.96 209.09l26.178-15.1v3.149l-26.178 15.1z" fill="#fff" data-name="Path 1551"/>
<g transform="translate(9.692 56.22)" data-name="Group 360">
<path transform="translate(-455.94 -198.04)" d="m455.94 216.81 32.545-18.772v3.149l-32.545 18.771z" fill="#fff" data-name="Path 1552"/>
</g>
<path transform="translate(-446.25 -132.38)" d="m473.67 202.9v3.149l-17.725 10.224v-3.149z" fill="#fff" data-name="Path 1553"/>
<path transform="translate(-402.99 -153.02)" d="m478.23 195.95l6.383-3.682v3.149l-6.383 3.682z" fill="#fff" data-name="Path 1554"/>
<g transform="translate(30.132 44.497)" fill="#fff" data-name="Group 361">
<path transform="translate(-462.9 -190.54)" d="m496.05 195.87v3.149l-33.159 19.126v-3.149z" data-name="Path 1555"/>
<path transform="translate(-439.22 -194.05)" d="m475.09 197.82l6.528-3.765v3.146l-6.528 3.765z" data-name="Path 1556"/>
</g>
<path transform="translate(-428.71 -145.76)" d="m464.98 216.93l36.266-20.918v3.149l-36.266 20.918z" fill="#fff" data-name="Path 1557"/>
</g>
</g>
<g transform="translate(205.78)" fill="#fff" opacity=".4" data-name="Group 364">
<path transform="translate(-433.31 -142.59)" d="m462.61 174.36l54.848-31.762v2.79l-54.848 31.763z" data-name="Path 1558"/>
<path transform="translate(-452.65 -138.98)" d="m536.79 147.25-84.144 48.669v-2.789l84.144-48.67z" data-name="Path 1559"/>
<path transform="translate(-452.65 -120.27)" d="m478.28 154.1v2.79l-25.628 14.837v-2.79z" data-name="Path 1560"/>
<path transform="translate(-433.31 -135.54)" d="m462.61 177.99l54.848-31.763v2.79l-54.848 31.762z" data-name="Path 1561"/>
<path transform="translate(-452.65 -131.92)" d="m536.79 150.88-84.144 48.669v-2.789l84.144-48.67z" data-name="Path 1562"/>
<path transform="translate(-452.65 -113.21)" d="m478.28 160.52-25.628 14.842v-2.79l25.628-14.841z" data-name="Path 1563"/>
<path transform="translate(-433.31 -123.89)" d="m462.61 183.99l54.848-31.763v2.79l-54.848 31.763z" data-name="Path 1564"/>
<path transform="translate(-452.65 -120.28)" d="m536.79 156.88-84.144 48.669v-2.79l84.144-48.669z" data-name="Path 1565"/>
<path transform="translate(-452.65 -101.56)" d="m478.28 166.52-25.628 14.84v-2.79l25.628-14.841z" data-name="Path 1566"/>
<path transform="translate(-433.31 -116.84)" d="m462.61 187.62l54.848-31.763v2.79l-54.848 31.762z" data-name="Path 1567"/>
<path transform="translate(-452.65 -113.22)" d="m536.79 160.52-84.144 48.669v-2.789l84.144-48.669z" data-name="Path 1568"/>
<path transform="translate(-452.65 -94.509)" d="m478.28 170.15-25.628 14.842v-2.795l25.628-14.841z" data-name="Path 1569"/>
<path transform="translate(-433.31 -105.19)" d="m462.61 193.62l54.848-31.763v2.79l-54.848 31.764z" data-name="Path 1570"/>
<path transform="translate(-452.65 -101.57)" d="m536.79 166.52-84.144 48.668v-2.79l84.144-48.669z" data-name="Path 1571"/>
<path transform="translate(-452.65 -82.862)" d="m478.28 176.15-25.628 14.841v-2.794l25.628-14.841z" data-name="Path 1572"/>
<path transform="translate(-433.31 -98.135)" d="m462.61 197.26 54.848-31.759v2.79l-54.848 31.758z" data-name="Path 1573"/>
<path transform="translate(-452.65 -75.807)" d="m478.28 179.79-25.628 14.84v-2.79l25.628-14.838z" data-name="Path 1574"/>
</g>
<g transform="translate(411.26 196.79)" data-name="Group 366">
<g data-name="Group 365">
<path transform="translate(-522.51 -209.5)" d="m522.51 209.5l0.079 0.044 6e-3 -9e-3c-0.029-0.014-0.059-0.02-0.085-0.035z" fill="#bbcee1" data-name="Path 1575"/>
</g>
</g>
<g transform="translate(428.26 115.57)" opacity=".4" data-name="Group 374">
<g data-name="Group 373">
<path transform="translate(-471.14 -181.89)" d="m570.96 181.89v3.149l-13.227 7.629v-3.149z" fill="#fff" data-name="Path 1576"/>
<path transform="translate(-471.14 -178.09)" d="m570.96 183.84v3.149l-13.227 7.629v-3.149z" fill="#fff" data-name="Path 1577"/>
<path transform="translate(-471.14 -174.29)" d="m570.96 185.8v3.149l-13.227 7.629v-3.149z" fill="#fff" data-name="Path 1578"/>
<path transform="translate(-528.29 -163.57)" d="m528.29 241.55v-3.153l81.63-47.084v3.148z" fill="#fff" data-name="Path 1579"/>
<path transform="translate(-471.14 -170.5)" d="m570.96 187.75v3.147l-13.227 7.629v-3.149z" fill="#fff" data-name="Path 1580"/>
<path transform="translate(-471.14 -166.7)" d="m570.96 189.71v3.148l-13.227 7.629v-3.149z" fill="#fff" data-name="Path 1581"/>
<path transform="translate(-528.29 -159.78)" d="m528.29 243.51v-3.149l81.63-47.084v3.149z" fill="#fff" data-name="Path 1582"/>
<path transform="translate(-471.14 -155.31)" d="m570.96 195.58v3.149l-13.227 7.629v-3.153z" fill="#fff" data-name="Path 1583"/>
<path transform="translate(-471.14 -151.52)" d="m570.96 197.53v3.149l-13.227 7.629v-3.149z" fill="#fff" data-name="Path 1584"/>
<path transform="translate(-471.14 -136.33)" d="m570.96 205.35v3.148l-13.227 7.629v-3.149z" fill="#fff" data-name="Path 1585"/>
<path transform="translate(-471.14 -132.54)" d="m570.96 207.31v3.149l-13.227 7.629v-3.149z" fill="#fff" data-name="Path 1586"/>
<g transform="translate(0 85.264)" fill="#fff" data-name="Group 367">
<path transform="translate(-508.4 -210.88)" d="m538.54 240.58l51.5-29.7v3.148l-51.5 29.7z" data-name="Path 1587"/>
<path transform="translate(-528.29 -190.24)" d="m555.71 221.51v3.149l-27.417 15.814v-3.149z" data-name="Path 1588"/>
</g>
<g transform="translate(0 79.512)" fill="#fff" data-name="Group 368">
<path transform="translate(-491.49 -208.92)" d="m547.25 223.84l25.873-14.924v3.149l-25.873 14.924z" data-name="Path 1589"/>
<path transform="translate(-528.29 -198.04)" d="m581.33 214.52v3.149l-53.042 30.595v-3.149z" data-name="Path 1590"/>
</g>
<path transform="translate(-528.29 -112.38)" d="m535.27 217.69v3.149l-6.977 4.025v-3.149z" fill="#fff" data-name="Path 1591"/>
<path transform="translate(-498.62 -144.59)" d="m543.57 222.25 36.678-21.154v3.148l-36.678 21.152z" fill="#fff" data-name="Path 1592"/>
<path transform="translate(-488.7 -174.96)" d="m548.68 197.94l21.649-12.488v3.147l-21.649 12.49z" fill="#fff" data-name="Path 1593"/>
<g transform="translate(24.493 24.544)" data-name="Group 369">
<path transform="translate(-536.62 -190.23)" d="m536.62 209.14l32.773-18.9v3.149l-32.773 18.9z" fill="#fff" data-name="Path 1594"/>
</g>
<path transform="translate(-499.52 -165.47)" d="m543.11 203.65l23.074-13.309v3.149l-23.074 13.308z" fill="#fff" data-name="Path 1595"/>
<g transform="translate(0 39.748)" fill="#fff" data-name="Group 370">
<path transform="translate(-515.5 -195.4)" d="m534.88 207.8l21.5-12.4v3.149l-21.5 12.4z" data-name="Path 1596"/>
<path transform="translate(-528.29 -186.18)" d="m544.96 200.15v3.152l-16.669 9.615v-3.149z" data-name="Path 1597"/>
</g>
<path transform="translate(-488.7 -165.75)" d="m566.07 190.2v3.149l-17.385 10.028v-3.149z" fill="#fff" data-name="Path 1598"/>
<path transform="translate(-523.8 -158.09)" d="M530.6,223.251l50.465-29.108v3.149L530.6,226.4Z" fill="#fff" data-name="Path 1599"/>
<path transform="translate(-504.73 -151.05)" d="m540.43 216.79l32.979-19.022v3.149l-32.979 19.023z" fill="#fff" data-name="Path 1600"/>
<path transform="translate(-523.8 -137.46)" d="m530.6 219.87l26.178-15.1v3.148l-26.178 15.1z" fill="#fff" data-name="Path 1601"/>
<g transform="translate(9.692 79.227)" data-name="Group 371">
<path transform="translate(-531.59 -208.82)" d="m531.59 227.59l32.544-18.772v3.149l-32.544 18.772z" fill="#fff" data-name="Path 1602"/>
</g>
<path transform="translate(-521.89 -120.16)" d="m549.31 213.68v3.148l-17.725 10.224v-3.148z" fill="#fff" data-name="Path 1603"/>
<path transform="translate(-478.63 -140.8)" d="m553.87 206.74l6.383-3.682v3.147l-6.383 3.682z" fill="#fff" data-name="Path 1604"/>
<g transform="translate(30.132 67.504)" fill="#fff" data-name="Group 372">
<path transform="translate(-538.54 -201.32)" d="m571.69 206.65v3.151l-33.159 19.126v-3.149z" data-name="Path 1605"/>
<path transform="translate(-514.86 -204.84)" d="m550.73 208.6l6.528-3.765v3.149l-6.528 3.765z" data-name="Path 1606"/>
</g>
<path transform="translate(-504.36 -133.54)" d="m540.62 227.71l36.267-20.918v3.148l-36.267 20.919z" fill="#fff" data-name="Path 1607"/>
</g>
</g>
<path transform="translate(-296.75 -55.171)" d="m430.41 211.68l40.973-23.642a3 3 0 0 1 4.5 2.6v49.047a6.693 6.693 0 0 1 -3.341 5.792l-40.967 23.683a3.076 3.076 0 0 1 -4.615 -2.662v-48.841a6.9 6.9 0 0 1 3.45 -5.977z" fill="#fff" opacity=".2" data-name="Path 1608"/>
<path transform="translate(-91.339 -176.63)" d="m430.41 211.68l40.973-23.642a3 3 0 0 1 4.5 2.6v49.047a6.693 6.693 0 0 1 -3.341 5.792l-40.967 23.683a3.076 3.076 0 0 1 -4.615 -2.662v-48.841a6.9 6.9 0 0 1 3.45 -5.977z" fill="#fff" opacity=".2" data-name="Path 1683"/>
<path transform="translate(-333.68 -117.73)" d="m411.39 179.44l40.973-23.639a3 3 0 0 1 4.5 2.6v49.047a6.7 6.7 0 0 1 -3.341 5.791l-40.967 23.684a3.076 3.076 0 0 1 -4.615 -2.662v-48.844a6.9 6.9 0 0 1 3.45 -5.977z" fill="#fff" opacity=".2" data-name="Path 1609"/>
<path transform="translate(-181.8 -28.13)" d="m489.62 225.6 40.977-23.638a3 3 0 0 1 4.5 2.6v49.044a6.689 6.689 0 0 1 -3.341 5.791l-40.97 23.686a3.073 3.073 0 0 1 -4.612 -2.662v-48.84a6.9 6.9 0 0 1 3.446 -5.981z" fill="#fff" opacity=".2" data-name="Path 1610"/>
<g transform="translate(436.57 214.4)" data-name="Group 377">
<g data-name="Group 376">
<path transform="translate(-531.12 -215.49)" d="m534.94 215.49m-3.821 6.633" fill="#0b3b56" data-name="Path 1612"/>
</g>
</g>
<g transform="translate(38.091 458.12)" data-name="Group 378">
<path transform="translate(-395.64 -298.35)" d="m395.64 298.35" fill="#fff" data-name="Path 1613"/>
</g>
<g transform="translate(51.215 390.21)" data-name="Group 380">
<g data-name="Group 379">
<path transform="translate(-400.1 -275.26)" d="m400.1 275.26l0.079 0.047 6e-3 -0.012c-0.024-0.014-0.057-0.02-0.085-0.035z" fill="#bbcee1" data-name="Path 1614"/>
</g>
</g>
<g transform="translate(169.37 261.74)" data-name="Group 382">
<g data-name="Group 381">
<path transform="translate(-440.27 -231.58)" d="m440.27 231.58l0.079 0.047 6e-3 -0.012c-0.026-0.016-0.059-0.016-0.085-0.035z" fill="#bbcee1" data-name="Path 1615"/>
</g>
</g>
<g transform="translate(287.01 136.27)" data-name="Group 384">
<g data-name="Group 383">
<path transform="translate(-480.27 -188.92)" d="m480.27 188.92l0.077 0.044 9e-3 -9e-3c-0.027-0.014-0.055-0.02-0.086-0.035z" fill="#bbcee1" data-name="Path 1616"/>
</g>
</g>
<g transform="translate(124.26 261.82)" opacity=".4" data-name="Group 394">
<g data-name="Group 393">
<path transform="translate(-367.78 -231.61)" d="m467.6 231.61v3.148l-13.227 7.629v-3.149z" fill="#fff" data-name="Path 1621"/>
<path transform="translate(-367.78 -227.81)" d="m467.6 233.57v3.149l-13.227 7.629v-3.149z" fill="#fff" data-name="Path 1622"/>
<path transform="translate(-367.78 -224.02)" d="m467.6 235.52v3.149l-13.223 7.63v-3.15z" fill="#fff" data-name="Path 1623"/>
<path transform="translate(-424.94 -213.3)" d="m424.94 291.28v-3.149l81.63-47.084v3.149z" fill="#fff" data-name="Path 1624"/>
<path transform="translate(-367.78 -220.22)" d="m467.6 237.48v3.149l-13.227 7.629v-3.149z" fill="#fff" data-name="Path 1625"/>
<path transform="translate(-367.78 -216.42)" d="m467.6 239.43v3.149l-13.227 7.629v-3.149z" fill="#fff" data-name="Path 1626"/>
<path transform="translate(-424.94 -209.5)" d="m424.94 293.23v-3.149l81.63-47.083v3.148z" fill="#fff" data-name="Path 1627"/>
<path transform="translate(-367.78 -205.04)" d="m467.6 245.3v3.149l-13.227 7.629v-3.149z" fill="#fff" data-name="Path 1628"/>
<path transform="translate(-367.78 -201.24)" d="m467.6 247.25v3.146l-13.227 7.629v-3.149z" fill="#fff" data-name="Path 1629"/>
<path transform="translate(-367.78 -186.06)" d="m467.6 255.08v3.149l-13.227 7.629v-3.154z" fill="#fff" data-name="Path 1630"/>
<path transform="translate(-367.78 -182.26)" d="m467.6 257.03v3.149l-13.227 7.629v-3.149z" fill="#fff" data-name="Path 1631"/>
<g transform="translate(0 85.263)" fill="#fff" data-name="Group 387">
<path transform="translate(-405.05 -260.6)" d="m435.18 290.3l51.5-29.7v3.149l-51.5 29.7z" data-name="Path 1632"/>
<path transform="translate(-424.94 -239.96)" d="m452.35 271.23v3.149l-27.417 15.814v-3.149z" data-name="Path 1633"/>
</g>
<g transform="translate(0 79.511)" fill="#fff" data-name="Group 388">
<path transform="translate(-388.14 -258.64)" d="m443.89 273.57l25.874-14.924v3.149l-25.874 14.924z" data-name="Path 1634"/>
<path transform="translate(-424.94 -247.76)" d="m477.98 264.25v3.151l-53.042 30.595v-3.149z" data-name="Path 1635"/>
</g>
<path transform="translate(-424.94 -162.1)" d="m431.91 267.42v3.149l-6.977 4.025v-3.15z" fill="#fff" data-name="Path 1636"/>
<path transform="translate(-395.27 -194.32)" d="m440.22 271.98 36.68-21.156v3.149l-36.68 21.156z" fill="#fff" data-name="Path 1637"/>
<path transform="translate(-385.35 -224.69)" d="m445.33 247.66l21.65-12.487v3.149l-21.65 12.488z" fill="#fff" data-name="Path 1638"/>
<g transform="translate(24.493 24.544)" data-name="Group 389">
<path transform="translate(-433.26 -239.96)" d="m433.26 258.86l32.773-18.9v3.142l-32.773 18.9z" fill="#fff" data-name="Path 1639"/>
</g>
<path transform="translate(-396.16 -215.19)" d="m439.76 253.38l23.074-13.31v3.149l-23.074 13.309z" fill="#fff" data-name="Path 1640"/>
<g transform="translate(0 39.748)" fill="#fff" data-name="Group 390">
<path transform="translate(-412.14 -245.12)" d="m431.53 257.52l21.5-12.4v3.149l-21.5 12.4z" data-name="Path 1641"/>
<path transform="translate(-424.94 -235.91)" d="m441.61 249.87v3.149l-16.67 9.615v-3.148z" data-name="Path 1642"/>
</g>
<path transform="translate(-385.35 -215.47)" d="m462.72 239.92v3.149l-17.386 10.027v-3.149z" fill="#fff" data-name="Path 1643"/>
<path transform="translate(-420.45 -207.82)" d="m427.25 272.97l50.465-29.108v3.149l-50.465 29.108z" fill="#fff" data-name="Path 1644"/>
<path transform="translate(-401.38 -200.77)" d="m437.07 266.52 32.979-19.018v3.149l-32.979 19.023z" fill="#fff" data-name="Path 1645"/>
<path transform="translate(-420.45 -187.18)" d="m427.25 269.6l26.178-15.1v3.149l-26.178 15.1z" fill="#fff" data-name="Path 1646"/>
<g transform="translate(9.692 79.227)" data-name="Group 391">
<path transform="translate(-428.23 -258.55)" d="m428.23 277.32l32.545-18.772v3.149l-32.545 18.772z" fill="#fff" data-name="Path 1647"/>
</g>
<path transform="translate(-418.54 -169.88)" d="m445.96 263.41v3.149l-17.725 10.224v-3.149z" fill="#fff" data-name="Path 1648"/>
<path transform="translate(-375.27 -190.52)" d="m450.52 256.46l6.383-3.682v3.149l-6.383 3.682z" fill="#fff" data-name="Path 1649"/>
<g transform="translate(30.132 67.504)" fill="#fff" data-name="Group 392">
<path transform="translate(-435.18 -251.04)" d="m468.34 256.37v3.149l-33.159 19.126v-3.148z" data-name="Path 1650"/>
<path transform="translate(-411.5 -254.56)" d="m447.38 258.33l6.528-3.765v3.149l-6.528 3.765z" data-name="Path 1651"/>
</g>
<path transform="translate(-401 -183.26)" d="m437.27 277.44l36.266-20.919v3.149l-36.266 20.918z" fill="#fff" data-name="Path 1652"/>
</g>
</g>
<g transform="translate(0 140.62)" opacity=".4" data-name="Group 402">
<g transform="translate(0)" data-name="Group 401">
<path transform="translate(-326.45 -164.59)" d="m426.27 164.59v3.149l-13.226 7.629v-3.149z" fill="#fff" data-name="Path 1653"/>
<path transform="translate(-326.45 -160.8)" d="m426.27 166.55v3.151l-13.226 7.629v-3.149z" fill="#fff" data-name="Path 1654"/>
<path transform="translate(-326.45 -157)" d="m426.27 168.5v3.149l-13.226 7.629v-3.149z" fill="#fff" data-name="Path 1655"/>
<path transform="translate(-383.6 -146.28)" d="m383.6 224.26v-3.149l81.63-47.084v3.149z" fill="#fff" data-name="Path 1656"/>
<path transform="translate(-326.45 -153.2)" d="m426.27 170.46v3.149l-13.226 7.629v-3.149z" fill="#fff" data-name="Path 1657"/>
<path transform="translate(-326.45 -149.41)" d="m426.27 172.42v3.149l-13.226 7.629v-3.149z" fill="#fff" data-name="Path 1658"/>
<path transform="translate(-383.6 -142.48)" d="m383.6 226.22v-3.148l81.63-47.084v3.149z" fill="#fff" data-name="Path 1659"/>
<path transform="translate(-326.45 -138.02)" d="m426.27 178.28v3.149l-13.226 7.629v-3.148z" fill="#fff" data-name="Path 1660"/>
<path transform="translate(-326.45 -134.22)" d="m426.27 180.24v3.149l-13.226 7.629v-3.149z" fill="#fff" data-name="Path 1661"/>
<path transform="translate(-326.45 -119.04)" d="m426.27 188.06v3.149l-13.226 7.629v-3.149z" fill="#fff" data-name="Path 1662"/>
<path transform="translate(-326.45 -115.24)" d="m426.27 190.02v3.149l-13.226 7.629v-3.149z" fill="#fff" data-name="Path 1663"/>
<g transform="translate(30.132 85.264)" data-name="Group 395">
<path transform="translate(-393.84 -193.58)" d="m393.84 223.29l51.5-29.7v3.148l-51.5 29.7z" fill="#fff" data-name="Path 1664"/>
</g>
<g transform="translate(55.757 79.512)" data-name="Group 396">
<path transform="translate(-402.56 -191.63)" d="m402.56 206.55l25.873-14.924v3.149l-25.873 14.925z" fill="#fff" data-name="Path 1665"/>
</g>
<path transform="translate(-383.6 -95.083)" d="m390.58 200.4v3.148l-6.978 4.025v-3.149z" fill="#fff" data-name="Path 1666"/>
<path transform="translate(-353.93 -127.3)" d="m398.88 204.96 36.679-21.161v3.148l-36.679 21.162z" fill="#fff" data-name="Path 1667"/>
<path transform="translate(-344.01 -157.67)" d="m403.99 180.65l21.649-12.488v3.149l-21.649 12.491z" fill="#fff" data-name="Path 1668"/>
<g transform="translate(24.493 24.544)" data-name="Group 397">
<path transform="translate(-391.93 -172.94)" d="m391.93 191.84l32.773-18.9v3.149l-32.773 18.9z" fill="#fff" data-name="Path 1669"/>
</g>
<path transform="translate(-354.83 -148.18)" d="m398.42 186.36 23.078-13.309v3.15l-23.074 13.309z" fill="#fff" data-name="Path 1670"/>
<g transform="translate(0 39.748)" fill="#fff" data-name="Group 398">
<path transform="translate(-370.81 -178.11)" d="m390.19 190.51l21.5-12.4v3.149l-21.5 12.4z" data-name="Path 1671"/>
<path transform="translate(-383.6 -168.89)" d="M400.27,182.855V186l-16.67,9.615V192.47Z" data-name="Path 1672"/>
</g>
<path transform="translate(-344.01 -148.45)" d="m421.38 172.91v3.148l-17.385 10.028v-3.149z" fill="#fff" data-name="Path 1673"/>
<path transform="translate(-379.11 -140.8)" d="m385.91 205.96l50.465-29.108v3.151l-50.465 29.108z" fill="#fff" data-name="Path 1674"/>
<path transform="translate(-360.04 -133.76)" d="m395.74 199.5l32.979-19.022v3.149l-32.979 19.023z" fill="#fff" data-name="Path 1675"/>
<path transform="translate(-379.11 -120.17)" d="m385.91 202.58l26.178-15.1v3.148l-26.178 15.1z" fill="#fff" data-name="Path 1676"/>
<g transform="translate(9.692 79.227)" data-name="Group 399">
<path transform="translate(-386.9 -191.53)" d="m386.9 210.3 32.54-18.77v3.149l-32.54 18.771z" fill="#fff" data-name="Path 1677"/>
</g>
<path transform="translate(-377.2 -102.86)" d="m404.62 196.39v3.148l-17.721 10.225v-3.148z" fill="#fff" data-name="Path 1678"/>
<path transform="translate(-333.94 -123.5)" d="m409.18 189.44l6.383-3.682v3.149l-6.383 3.682z" fill="#fff" data-name="Path 1679"/>
<g transform="translate(30.132 67.504)" fill="#fff" data-name="Group 400">
<path transform="translate(-393.84 -184.03)" d="m427 189.36v3.149l-33.159 19.126v-3.149z" data-name="Path 1680"/>
<path transform="translate(-370.17 -187.54)" d="m406.04 191.31l6.527-3.765v3.148l-6.527 3.766z" data-name="Path 1681"/>
</g>
<path transform="translate(-359.66 -116.24)" d="m395.93 210.42 36.269-20.918v3.148l-36.266 20.919z" fill="#fff" data-name="Path 1682"/>
</g>
</g>
</g>
<g transform="matrix(-1 .017 -.017 -1 1163.7 696.65)" opacity=".2">
<g data-name="Group 118">
<g data-name="Group 117">
<path d="M216.576,125.644V90.932L191.218,86.7a84.925,84.925,0,0,0-9.044-21.771l14.959-20.943L172.584,19.445,151.641,34.4a84.762,84.762,0,0,0-21.769-9.046L125.647,0H90.93L86.7,25.358A84.762,84.762,0,0,0,64.935,34.4L43.992,19.445,19.443,43.988,34.4,64.931A84.926,84.926,0,0,0,25.358,86.7L0,90.932v34.712l25.358,4.23A84.926,84.926,0,0,0,34.4,151.646L19.443,172.589l24.549,24.543,20.943-14.959A84.761,84.761,0,0,0,86.7,191.218l4.226,25.358h34.717l4.226-25.358a84.762,84.762,0,0,0,21.769-9.046l20.943,14.959,24.549-24.543-14.959-20.943a84.926,84.926,0,0,0,9.044-21.771Zm-33.452-.7a76.04,76.04,0,0,1-10.163,24.472l-1.637,2.569,14.023,19.63L171.61,185.349l-19.634-14.025-2.567,1.635a76.016,76.016,0,0,1-24.472,10.165l-2.974.661L118,207.552H98.575l-3.961-23.767-2.974-.661a76.016,76.016,0,0,1-24.472-10.165L64.6,171.324,44.966,185.349,31.229,171.61l14.023-19.63-1.637-2.569a76.04,76.04,0,0,1-10.163-24.472l-.659-2.974L9.024,118V98.572l23.77-3.961.659-2.974A76.04,76.04,0,0,1,43.615,67.165L45.252,64.6,31.229,44.966,44.966,31.227,64.6,45.252l2.567-1.635A76.016,76.016,0,0,1,91.639,33.452l2.974-.661L98.575,9.024H118l3.961,23.767,2.974.661a76.017,76.017,0,0,1,24.472,10.165l2.567,1.635L171.61,31.227l13.736,13.739L171.324,64.6l1.637,2.569a76.04,76.04,0,0,1,10.163,24.472l.659,2.974,23.77,3.961V118l-23.77,3.961Z" fill="#fff" data-name="Path 501"/>
</g>
</g>
<g transform="translate(63.168 63.168)" data-name="Group 120">
<g data-name="Group 119">
<path d="M45.12,0A45.12,45.12,0,1,0,90.24,45.12,45.172,45.172,0,0,0,45.12,0Zm0,81.216a36.1,36.1,0,1,1,36.1-36.1A36.137,36.137,0,0,1,45.12,81.216Z" fill="#fff" data-name="Path 502"/>
</g>
</g>
</g>
<g transform="matrix(-1 .017 -.017 -1 918.61 1350.4)" opacity=".2" data-name="gear">
<g data-name="Group 118">
<g data-name="Group 117">
<path d="M154.041,89.365V64.676L136,61.667a60.4,60.4,0,0,0-6.432-15.485l10.64-14.9L122.751,13.83l-14.9,10.64a60.287,60.287,0,0,0-15.483-6.434L89.367,0H64.674L61.669,18.036A60.287,60.287,0,0,0,46.185,24.47L31.29,13.83,13.829,31.286l10.64,14.9a60.4,60.4,0,0,0-6.432,15.485L0,64.676V89.365l18.036,3.009a60.4,60.4,0,0,0,6.432,15.485l-10.64,14.9L31.29,140.211l14.9-10.64A60.288,60.288,0,0,0,61.669,136l3.005,18.036H89.367L92.372,136a60.288,60.288,0,0,0,15.483-6.434l14.9,10.64,17.461-17.456-10.64-14.9A60.4,60.4,0,0,0,136,92.374Zm-23.793-.5a54.083,54.083,0,0,1-7.228,17.406l-1.164,1.827,9.974,13.962-9.77,9.772-13.965-9.975-1.826,1.163a54.067,54.067,0,0,1-17.406,7.23l-2.115.47-2.817,16.9H70.112l-2.817-16.9-2.115-.47a54.066,54.066,0,0,1-17.406-7.23l-1.826-1.163L31.982,131.83l-9.77-9.772L32.186,108.1l-1.164-1.827a54.084,54.084,0,0,1-7.229-17.406l-.469-2.115L6.418,83.931V70.11l16.906-2.817.469-2.115a54.084,54.084,0,0,1,7.228-17.406l1.164-1.827L22.212,31.982l9.77-9.772,13.965,9.975,1.826-1.163a54.067,54.067,0,0,1,17.406-7.23l2.115-.47,2.817-16.9H83.929l2.817,16.9,2.115.47a54.067,54.067,0,0,1,17.406,7.23l1.826,1.163,13.965-9.975,9.77,9.772-9.974,13.962,1.164,1.827a54.084,54.084,0,0,1,7.228,17.406l.469,2.115,16.906,2.817V83.931l-16.906,2.817Z" fill="#fff" data-name="Path 501"/>
</g>
</g>
<g transform="translate(44.929 44.929)" data-name="Group 120">
<g data-name="Group 119">
<path d="M32.092,0A32.092,32.092,0,1,0,64.184,32.092,32.129,32.129,0,0,0,32.092,0Zm0,57.765A25.673,25.673,0,1,1,57.765,32.092,25.7,25.7,0,0,1,32.092,57.765Z" fill="#fff" data-name="Path 502"/>
</g>
</g>
</g>
</g>
</svg>
