<svg xmlns="http://www.w3.org/2000/svg" xmlns:xlink="http://www.w3.org/1999/xlink" viewBox="704 -5144 1920 10800" width="1920" height="10800"><defs><path id="A" d="M704-5144h1920V5656H704z"/><path id="B" d="M10670.2 8038.4S5356.9 5197 2210.1 4188.5s1478.8 3670.9 1903.2 4372c460.1 760 3273.8 2958.3 3219 3710.1-71.9 986.4-1531.4 1109.5-2743.4 1736.6-2926.7 1514.1 379.6 253.1 1494.6 977.1 1115 724.1 434.9 1263.7-1107.8 1208.3-3331.6-119.6-1849.9 1673.9-1288.3 2442.1s-1224.5 2306.8-3235.9-490.3-943.4 1570.1-943.4 1570.1h-2761.4v-11676l13923.5-.1z"/><path id="C" d="M9309.5 9759.4S3996.2 6918 849.4 5909.5s1478.8 3670.9 1903.2 4372c460.1 760 3273.8 2958.3 3219 3710.1-71.9 986.4-1531.4 1109.5-2743.4 1736.6-2926.7 1514.1 379.6 253.1 1494.6 977.1 1115 724.1 434.9 1263.7-1107.8 1208.3-3331.6-119.6-1849.9 1673.9-1288.3 2442.1s-1224.5 2306.8-3235.9-490.3-943.4 1570.1-943.4 1570.1H-4614v-11676l13923.5-.1z"/><path id="D" d="M-159.6 8038.4s3767.4-196.4 4438.1 2279.2c730.8 2697.5-1606.7 3965.8-2399.6 3346.7-793-619.2-828.9-1460.7 405.4-2016.1 1234.4-555.4 1110.2-2267.1-1588.6-1839.9S-2315.3 13669.4-360 14491s1478.8 1788.9-624.4 2816.9-953 2406.6-953 2406.6h-1315.5v-11676l3093.3-.1z"/></defs><clipPath id="E"><use xlink:href="#A"/></clipPath><g clip-path="url(#E)"><g transform="matrix(-.857167 .515038 -.515038 -.857167 14675 10781)"><linearGradient id="F" gradientUnits="userSpaceOnUse" x1="5206.206" y1="9051.804" x2="7716.788" y2="20780.949"><stop offset="0"/><stop offset="1" stop-color="#2ba6f8"/><stop offset="1"/></linearGradient><use xlink:href="#B" fill="url(#F)"/><linearGradient id="G" gradientUnits="userSpaceOnUse" x1="3846.206" y1="10763.804" x2="6356.788" y2="22492.949"><stop offset="0"/><stop offset="1" stop-color="#2ba6f8"/><stop offset="1"/></linearGradient><use xlink:href="#C" fill="url(#G)"/><linearGradient id="H" gradientUnits="userSpaceOnUse" x1="1369.601" y1="12138.946" x2="2505.849" y2="17598.549"><stop offset="0" stop-color="#2ba6f8"/><stop offset="1"/></linearGradient><use xlink:href="#D" fill="url(#H)"/></g><g transform="matrix(-.857167 .515038 -.515038 -.857167 14939 10813)"><linearGradient id="I" gradientUnits="userSpaceOnUse" x1="5210.141" y1="9049.26" x2="7720.722" y2="20778.404"><stop offset="0"/><stop offset="1" stop-color="#2ba6f8"/><stop offset="1"/></linearGradient><use xlink:href="#B" fill="url(#I)"/><linearGradient id="J" gradientUnits="userSpaceOnUse" x1="3850.141" y1="10761.26" x2="6360.722" y2="22490.404"><stop offset="0"/><stop offset="1" stop-color="#2ba6f8"/><stop offset="1"/></linearGradient><use xlink:href="#C" fill="url(#J)"/><linearGradient id="K" gradientUnits="userSpaceOnUse" x1="1367.829" y1="12142.44" x2="2499.863" y2="17605.671"><stop offset="0" stop-color="#2ba6f8"/><stop offset="1"/></linearGradient><use xlink:href="#D" fill="url(#K)"/></g><g transform="matrix(-.857167 .515038 -.515038 -.857167 15131 10805)"><linearGradient id="L" gradientUnits="userSpaceOnUse" x1="5209.748" y1="9046.597" x2="7720.329" y2="20775.741"><stop offset="0"/><stop offset="1" stop-color="#2ba6f8"/><stop offset="1"/></linearGradient><use xlink:href="#B" fill="url(#L)"/><linearGradient id="M" gradientUnits="userSpaceOnUse" x1="3849.748" y1="10774.597" x2="6360.329" y2="22503.741"><stop offset="0"/><stop offset="1" stop-color="#2ba6f8"/><stop offset="1"/></linearGradient><use xlink:href="#C" fill="url(#M)"/><linearGradient id="N" gradientUnits="userSpaceOnUse" x1="1370.676" y1="12144.285" x2="2506.266" y2="17603.63"><stop offset="0" stop-color="#2ba6f8"/><stop offset="1"/></linearGradient><use xlink:href="#D" fill="url(#N)"/></g><g transform="matrix(-.857167 .515038 -.515038 -.857167 14931 12829)"><linearGradient id="O" gradientUnits="userSpaceOnUse" x1="5215.003" y1="9039.111" x2="7718.415" y2="20778.922"><stop offset="0"/><stop offset="1" stop-color="#2ba6f8"/><stop offset="1"/></linearGradient><path d="M10670.2 8038.4S5356.9 5197 2210.1 4188.5s1478.8 3670.9 1903.2 4372c460.1 760 3284.2 4602.5 3229.4 5354.2-71.9 986.4-1541.8-534.6-2753.8 92.4-2926.7 1514.1 379.6 253.1 1494.6 977.1 1115 724.1 434.9 1263.7-1107.8 1208.3-3331.6-119.6-1849.9 1673.9-1288.3 2442.1s-1224.5 2306.8-3235.9-490.3-943.4 1570.1-943.4 1570.1h-2761.4v-11676h13923.5z" fill="url(#O)"/><linearGradient id="P" gradientUnits="userSpaceOnUse" x1="3867.02" y1="10754.731" x2="6370.431" y2="22494.455"><stop offset="0"/><stop offset="1" stop-color="#2ba6f8"/><stop offset="1"/></linearGradient><use xlink:href="#C" fill="url(#P)"/><linearGradient id="Q" gradientUnits="userSpaceOnUse" x1="1374.049" y1="12143.251" x2="2503.058" y2="17605.875"><stop offset="0" stop-color="#2ba6f8"/><stop offset="1"/></linearGradient><use xlink:href="#D" fill="url(#Q)"/></g></g></svg>