<svg xmlns="http://www.w3.org/2000/svg" xmlns:xlink="http://www.w3.org/1999/xlink" viewBox="-68 -77 375 667"><defs><path id="A" d="M-66.9-76.5h375v667h-375z"/><path id="B" d="M6.127-61.473c-11.7 0-21.2 9.5-21.2 21.2s9.5 21.2 21.2 21.2 21.2-9.4 21.2-21.1h0c0-11.8-9.5-21.3-21.2-21.3zm0 38.2a16.99 16.99 0 1 1 0-34 16.99 16.99 0 0 1 17 17h0a16.99 16.99 0 0 1-17 17z"/><path id="C" d="M57.1-32v-16.3l-11.9-2c-.9-3.6-2.4-7-4.3-10.2l7-9.9L36.4-82l-9.9 7c-3.2-1.9-6.6-3.3-10.2-4.3l-2-11.9H-2l-2 11.9c-3.6.9-7 2.4-10.2 4.3l-9.9-7-11.5 11.5 7 9.9c-1.9 3.2-3.3 6.6-4.3 10.2l-11.9 2v16.3l11.9 2c.9 3.6 2.4 7 4.3 10.2l-7 9.9 11.5 11.6 9.9-7C-11.1-3.6-7.6-2.1-4-1.2l2 11.9h16.3l2-11.9c3.6-.9 7-2.4 10.2-4.3l9.9 7L47.9-10l-7-9.9c1.9-3.2 3.3-6.6 4.3-10.2L57.1-32zm-15.8-.4c-.9 4.1-2.5 8-4.8 11.5l-.8 1.2 6.6 9.2-6.4 6.6-9.2-6.6-1.2.8C22-7.4 18.1-5.8 14-4.9l-1.4.3-1.9 11.1H1.6L-.3-4.7-1.7-5c-4.1-.9-8-2.5-11.5-4.8l-1.2-.8-9.2 6.6-6.5-6.5 6.6-9.2-.8-1.2c-2.3-3.5-3.9-7.4-4.8-11.5l-.3-1.4-11.2-1.9v-9.1l11.2-1.9.3-1.4c.9-4.1 2.5-8 4.8-11.5l.8-1.2-6.6-9.2 6.5-6.5 9.2 6.6 1.2-.8c3.5-2.3 7.4-3.9 11.5-4.8l1.4-.3L1.6-87h9.1l1.9 11.2 1.4.3c4.1.9 8 2.5 11.5 4.8l1.2.8 9.2-6.6 6.5 6.5-6.6 9.2.8 1.2c2.3 3.5 3.9 7.4 4.8 11.5l.3 1.4 11.2 1.9v9.1l-11.2 1.9-.4 1.4z"/><path id="D" d="M75.922 154.323l-2.5-1.5-2.9 1.7 2.5 1.5 2.9-1.7z"/><path id="E" d="M30.022 177.823l-2.9 1.7 2.5 1.5 2.9-1.7-2.5-1.5z"/><path id="F" d="M76.322 157.823l2.9-1.7-2.5-1.5-2.9 1.7 2.5 1.5z"/><path id="G" d="M70.122 158.523l2.5 1.5 2.9-1.7-2.5-1.5-2.9 1.7z"/><path id="H" d="M-14.214 90.164v.6l-2.5 1.5v-.6l2.5-1.5z"/><path id="I" d="M-33.314 105.064v-.6l15.6-9v.6l-15.6 9z"/><path id="J" d="M-27.514 112.2l9.9-5.7v.6l-9.9 5.7v-.6z"/><path id="K" d="M-28.014 112.5v.6l-5.3 3v-.6l5.3-3z"/><path id="L" d="M-22.614 108.298l5-2.9v.6l-5 2.9v-.6z"/><path id="M" d="M-32.014 110.364v.6l-1.3.8v-.6l1.3-.8z"/><path id="N" d="M-24.714 105.064l7-4.1v.6l-7 4.1v-.6z"/><path id="O" d="M-21.814 94.564l4.1-2.4v.6l-4.1 2.4v-.6z"/><path id="P" d="M-28.62 98.466l6.3-3.6v.6l-6.3 3.6v-.6z"/><path id="Q" d="M-30.114 100.48v.6l-3.2 1.8v-.6l3.2-1.8z"/><path id="R" d="M-18.514 94.864v.6l-3.3 1.9v-.6l3.3-1.9z"/><path id="S" d="M-32.014 102.664l9.7-5.6v.6l-9.7 5.6v-.6z"/><path id="T" d="M-31.457 108.943l6.2-3.6v.6l-6.2 3.6v-.6z"/><path id="U" d="M-28.114 108.064v.6l-3.4 2v-.6l3.4-2z"/><path id="V" d="M-18.914 102.764l1.2-.7v.6l-1.2.7v-.6z"/><path id="W" d="M-21.24 104.097v.6l-6.4 3.7v-.6l6.4-3.7z"/><path id="X" d="M-20.64 103.797l1.3-.7v.6l-1.3.7v-.6z"/><path id="Y" d="M-26.414 108.164l6.9-4v.6l-6.9 4v-.6z"/><path id="Z" d="M-25.014 116.1l4.4-2.5v.6l-4.4 2.5v-.6z"/><path id="a" d="M65.143 44.423l3-1.7c.1-.1.2 0 .3.1v3.7c0 .2-.1.3-.2.4l-3 1.8c-.1.1-.2 0-.3-.1v-3.7c-.1-.3 0-.4.2-.5z"/><path id="b" d="M65.143 49.823l3-1.7c.1-.1.2 0 .3.1v3.7c0 .2-.1.3-.2.4l-3 1.8c-.1.1-.2 0-.3-.1v-3.7c-.1-.2 0-.4.2-.5z"/><path id="c" d="M65.143 60.723l3-1.7c.1-.1.2 0 .3.1v3.7c0 .2-.1.3-.2.4l-3 1.8c-.1.1-.2 0-.3-.1v-3.7c-.1-.3 0-.5.2-.5z"/><path id="d" d="M94.82 20.524v1.1l-4.5 2.6v-1.1l4.5-2.6z"/></defs><clipPath id="e"><use xlink:href="#A"/></clipPath><g clip-path="url(#e)"><g transform="matrix(.798636 .601815 -.601815 .798636 -124.62 -524.65)"><linearGradient id="f" gradientUnits="userSpaceOnUse" x1="273.135" y1="175.507" x2="-207.761" y2="682.879"><stop offset="0" stop-color="#2ba6f8"/><stop offset="1" stop-color="#090909"/><stop offset="1"/></linearGradient><path d="M449.2 160.3S559.9 32.7 351-25.8s113.8 235.5 201 280.5c55 24.1 71.3 70.9 67.6 114.4-4.8 57.2-100.7 59.3-181.2 95.6-194.3 87.8 25.2 14.7 99.2 56.6s28.9 73.2-73.5 70c-221.1-6.9-147.8 58.4-110.8 88s30.6 97.2-143.5 51.5c-174-45.7-108.6 64.7-108.6 64.7H-82.1V118.8l531.3 41.5z" fill="url(#f)"/><linearGradient id="g" gradientUnits="userSpaceOnUse" x1="124.239" y1="323.023" x2="-180.318" y2="572.104"><stop offset="0" stop-color="#2ba6f8"/><stop offset="1"/></linearGradient><path d="M79.8 131.3S298.2 119.9 337 263.4c42.4 156.4-93.1 229.9-139.1 194s-48-84.7 23.5-116.9 64.3-131.4-92.1-106.6-174.4 223.8-61.1 271.4S153.9 609 32 668.6-23.2 808.1-23.2 808.1h-76.2V131.4l179.2-.1z" fill="url(#g)"/></g><g transform="matrix(.695 -.719 .719 .695 -623.16 600.79)"><linearGradient id="h" gradientUnits="userSpaceOnUse" x1="498.186" y1="168.837" x2="-10.857" y2="857.903"><stop offset="0" stop-color="#2ba6f8"/><stop offset="1" stop-color="#090909"/><stop offset="1"/></linearGradient><path d="M751.6-40.9s-136 3-303.9-50.9.6 134.7 70.6 176c44.3 22.2 57.3 65.3 54.4 105.4-3.8 52.6-81 54.6-145.7 88-156.2 80.8 20.3 13.5 79.8 52.2s23.2 67.4-59.1 64.5c-177.8-6.4-300.6-187.9-270.9-160.6s159.1 248.1 19.1 206.1-40.1 142.6-40.1 142.6H8.5V-40.9h743.1z" fill="url(#h)"/><linearGradient id="i" gradientUnits="userSpaceOnUse" x1="270.329" y1="390.097" x2="-10.122" y2="619.467"><stop offset="0" stop-color="#2ba6f8"/><stop offset="1"/></linearGradient><path d="M173.6-40.9S374.7-51.4 410.5 80.7c39 144-85.8 211.7-128.1 178.6s-44.2-78 21.6-107.6 59.3-121-84.8-98.2-160.7 206.2-56.3 250 78.9 95.5-33.3 150.3-50.9 128.5-50.9 128.5H8.5V-40.9h165.1z" fill="url(#i)"/></g><path d="M73.448.38h0z" fill="#bbcee1"/><g opacity=".4" fill="#fff"><path d="M88.798 11.4l16.8-9.7v1l-16.8 9.7v-1zm8.4-6.678l8.5-4.9v1l-8.5 4.9v-1z"/></g><g fill="#bbcee1"><path d="M-44.145 63.547h0zm38.59-41.955h0zm38.422-40.98h0z"/></g><g opacity=".4" fill="#fff"><path d="M-32.172-10.366v-1m4.3-2.5v1"/></g><g transform="matrix(.966 -.259 .259 .966 148.42 101.78)" opacity=".2" fill="#fff"><path d="M57.1-32v-16.3l-11.9-2c-.9-3.6-2.4-7-4.3-10.2l7-9.9L36.4-82l-9.9 7c-3.2-1.9-6.6-3.3-10.2-4.3l-2-11.9H-2l-2 11.9c-3.6.9-7 2.4-10.2 4.3l-9.9-7-11.6 11.5 7 9.9C-30.6-57.4-32-54-33-50.4l-11.9 2v16.3l11.9 2c.9 3.6 2.4 7 4.3 10.2l-7 9.9 11.6 11.6 9.9-7C-11.1-3.6-7.6-2.1-4-1.2l2 11.9h16.3l2-11.9c3.6-.9 7-2.4 10.2-4.3l9.9 7L47.9-10l-7-9.9c1.9-3.2 3.3-6.6 4.3-10.2L57.1-32zm-15.8-.4c-.9 4.1-2.5 8-4.8 11.5l-.8 1.2 6.6 9.2-6.4 6.6-9.2-6.6-1.2.8C22-7.4 18.1-5.8 14-4.9l-1.4.3-1.9 11.1H1.6L-.3-4.7-1.7-5c-4.1-.9-8-2.5-11.5-4.8l-1.2-.8-9.2 6.6-6.5-6.5 6.6-9.2-.8-1.2c-2.3-3.5-3.9-7.4-4.8-11.5l-.3-1.4-11.2-1.9v-9.1l11.2-1.9.3-1.4c.9-4.1 2.5-8 4.8-11.5l.8-1.2-6.6-9.2 6.5-6.5 9.2 6.6 1.2-.8c3.5-2.3 7.4-3.9 11.5-4.8l1.4-.3L1.6-87h9.1l1.9 11.2 1.4.3c4.1.9 8 2.5 11.5 4.8l1.2.8 9.2-6.6 6.5 6.5-6.6 9.2.8 1.2c2.3 3.5 3.9 7.4 4.8 11.5l.3 1.4 11.2 1.9v9.1l-11.2 1.9-.4 1.4z"/><use xlink:href="#B"/></g><g transform="matrix(.966 -.259 .259 .966 -82.575 118.78)" opacity=".2" fill="#fff"><use xlink:href="#C"/><use xlink:href="#B"/></g><g transform="matrix(.966 -.259 .259 .966 107.42 -52.223)" opacity=".2" fill="#fff"><use xlink:href="#C"/><use xlink:href="#B"/></g><path d="M96.063 162.78l-20.4-11.8a2.89 2.89 0 0 0-3.1 0l-62.8 36.3c-.7.4-.9 1.2-.5 1.9.1.2.3.4.5.5l19.8 11.5c1.1.7 2.5.7 3.7 0l62.8-36.3c.6-.3.8-1.1.4-1.7l-.4-.4z" fill="#0f4463"/><path d="M96.063 164.88l-62.8 36.3c-1.1.7-2.5.7-3.7 0l-19.8-11.5c-.4-.2-.7-.7-.7-1.2v2.4c0 .5.3.9.7 1.1l19.8 11.6c1.1.7 2.5.7 3.7 0l62.8-36.3c.4-.2.6-.6.6-1.1v-2.4c0 .5-.3.9-.6 1.1h0z" fill="#0b3b56"/><g fill="#1f5e77"><use xlink:href="#D"/><path d="M72.322 156.423l-2.5-1.5-2.9 1.7 2.5 1.5 2.9-1.7zm-3.6 2l-2.5-1.5-2.9 1.7 2.5 1.5 2.9-1.7zm-3.7 2.1l-2.5-1.5-2.9 1.7 2.5 1.5 2.9-1.7zm-3.6 2.1l-2.5-1.5-2.9 1.7 2.5 1.5 2.9-1.7zm-3.6 2.1l-2.5-1.5-2.9 1.7 2.5 1.5 2.9-1.7zm-3.6 2l-2.5-1.5-2.9 1.7 2.5 1.5 2.9-1.7zm-3.6 2.1l-2.5-1.5-2.9 1.7 2.5 1.5 2.9-1.7zm-3.6 2.1l-2.5-1.5-2.9 1.7 2.5 1.5 2.9-1.7zm-3.6 2.1l-2.5-1.5-2.9 1.7 2.5 1.5 2.9-1.7zm-3.6 2.1l-2.5-1.5-2.9 1.7 2.5 1.5 2.9-1.7zm-3.7 2l-2.5-1.5-2.9 1.7 2.5 1.5 2.9-1.7z"/><use xlink:href="#E"/><use xlink:href="#F"/><use xlink:href="#G"/><path d="M66.522 160.523l2.5 1.5 2.9-1.7-2.5-1.5-2.9 1.7zm-3.6 2.1l2.5 1.5 2.9-1.7-2.5-1.5-2.9 1.7zm-3.6 2.1l2.5 1.5 2.9-1.7-2.5-1.5-2.9 1.7zm-3.6 2.1l2.5 1.5 2.9-1.7-2.5-1.5-2.9 1.7zm-3.6 2.1l2.5 1.5 2.9-1.7-2.5-1.5-2.9 1.7zm-3.6 2l2.5 1.5 2.9-1.7-2.5-1.5-2.9 1.7zm-3.7 2.1l2.5 1.5 2.9-1.7-2.5-1.5-2.9 1.7zm-3.6 2.1l2.5 1.5 2.9-1.7-2.5-1.5-2.9 1.7zm-3.6 2.1l2.5 1.5 2.9-1.7-2.5-1.5-2.9 1.7zm-3.6 2.1l2.5 1.5 2.9-1.7-2.5-1.5-2.9 1.7zm-.7.4l-2.9 1.7 2.5 1.5 2.9-1.7-2.5-1.5zm46.3-19.9l2.9-1.7-2.5-1.5-2.9 1.7 2.5 1.5zm-6.2.6l2.5 1.5 2.9-1.7-2.5-1.5-2.9 1.7zm1.9 1.9l-2.5-1.5-2.9 1.7 2.5 1.5 2.9-1.7zm-9.1 2.2l2.5 1.5 2.9-1.7-2.5-1.5-2.9 1.7zm-3.6 2.1l2.5 1.5 2.9-1.7-2.5-1.5-2.9 1.7zm-3.6 2.1l2.5 1.5 2.9-1.7-2.5-1.5-2.9 1.7zm-3.6 2.1l2.5 1.5 2.9-1.7-2.5-1.5-2.9 1.7zm-3.7 2l2.5 1.5 2.9-1.7-2.5-1.5-2.9 1.7zm-3.6 2.1l2.5 1.5 2.9-1.7-2.5-1.5-2.9 1.7zm-3.6 2.1l2.5 1.5 2.9-1.7-2.5-1.5-2.9 1.7zm-3.6 2.1l2.5 1.5 2.9-1.7-2.5-1.5-2.9 1.7zm1.9 1.9l-2.5-1.5-2.9 1.7 2.5 1.5 2.9-1.7zm-6.2.6l-2.9 1.7 2.5 1.5 2.9-1.7-2.5-1.5zm46.3-19.9l2.9-1.7-2.5-1.5-2.9 1.7 2.5 1.5zm-.7.4l-2.5-1.5-2.9 1.7 2.5 1.5 2.9-1.7zm-3.6 2.1l-2.5-1.5-2.9 1.7 2.5 1.5 2.9-1.7zm-3.7 2l-2.5-1.5-2.9 1.7 2.5 1.5 2.9-1.7zm-3.6 2.1l-2.5-1.5-2.9 1.7 2.5 1.5 2.9-1.7zm-3.6 2.1l-2.5-1.5-2.9 1.7 2.5 1.5 2.9-1.7zm-3.6 2.1l-2.5-1.5-2.9 1.7 2.5 1.5 2.9-1.7zm-3.6 2.1l-2.5-1.5-2.9 1.7 2.5 1.5 2.9-1.7zm-3.6 2l-2.5-1.5-2.9 1.7 2.5 1.5 2.9-1.7zm-3.6 2.1l-2.6-1.5-2.9 1.7 2.5 1.5 3-1.7zm-3.6 2.1l-2.5-1.5-2.9 1.7 2.5 1.5 2.9-1.7zm-3.7 2.1l-2.5-1.5-2.9 1.7 2.5 1.5 2.9-1.7zm-6.1.6l-2.9 1.7 2.5 1.5 2.9-1.7-2.5-1.5zm46.3-19.9l2.9-1.7-2.5-1.5-2.9 1.7 2.5 1.5zm-.7.4l-2.5-1.5-2.9 1.7 2.5 1.5 2.9-1.7zm-3.7 2.1l-2.5-1.5-2.9 1.7 2.5 1.5 2.9-1.7zm-3.6 2.1l-2.5-1.5-2.9 1.7 2.5 1.5 2.9-1.7zm-3.6 2l-2.5-1.4-2.9 1.7 2.5 1.5 2.9-1.8zm-3.6 2.1l-2.5-1.5-2.9 1.7 2.5 1.5 2.9-1.7zm-3.6 2.1l-2.5-1.5-2.9 1.7 2.5 1.5 2.9-1.7zm-3.6 2.1l-2.5-1.5-2.9 1.7 2.5 1.5 2.9-1.7zm-3.6 2l-2.5-1.5-2.9 1.7 2.5 1.5 2.9-1.7zm-3.6 2.1l-2.5-1.5-3 1.7 2.5 1.5 3-1.7zm-3.6 2.1l-2.5-1.5-2.9 1.7 2.5 1.5 2.9-1.7zm-3.7 2.1l-2.5-1.5-2.9 1.7 2.5 1.5 2.9-1.7zm-6.1.6l-2.9 1.7 2.5 1.5 2.9-1.7-2.5-1.5zm46.6-23l-2.9 1.7 2.5 1.5 2.9-1.7-2.5-1.5zm-6.5 3.7l2.5 1.5 2.9-1.7-2.5-1.5-2.9 1.7zm-3.6 2.1l2.5 1.5 2.9-1.7-2.5-1.5-2.9 1.7zm-3.6 2l2.5 1.5 2.9-1.7-2.5-1.5-2.9 1.7zm-3.6 2.1l2.5 1.5 2.9-1.7-2.5-1.5-2.9 1.7zm-3.6 2.1l2.5 1.5 2.9-1.7-2.5-1.5-2.9 1.7zm-.7.4l-3.6 2.1-.7.4-2.9 1.7-1.5.8-2.1 1.2-2.3 1.3-4.2 2.4 2.5 1.5 6.5-3.7 2.2-1.3 1.4-.8 2.9-1.6.8-.4 3.6-2.1-2.6-1.5zm-21 12.1l2.5 1.5 2.9-1.7-2.5-1.5-2.9 1.7zm-3.6 2.1l2.5 1.5 2.9-1.7-2.5-1.5-2.9 1.7zm-18.245-5.6l-2.5-1.5-2.9 1.7 2.5 1.5 2.9-1.7zm-3.7 2l-2.5-1.5-2.9 1.7 2.5 1.5 2.9-1.7zm-3.6 2.1l-2.5-1.5-2.9 1.7 2.5 1.5 2.9-1.7zm5.1-2l2.5 1.5 2.9-1.7-2.5-1.5-2.9 1.7zm-3.6 2.1l2.5 1.5 2.9-1.7-2.5-1.5-2.9 1.7zm-3.6 2l2.5 1.5 2.9-1.7-2.5-1.5-2.9 1.7zm10.5-2.2l2.5 1.5 2.9-1.7-2.5-1.5-2.9 1.7zm-3.6 2.1l2.5 1.5 2.9-1.7-2.5-1.5-2.9 1.7zm-3.6 2l2.5 1.5 2.9-1.7-2.5-1.5-2.9 1.7zm16-2.4l-2.5-1.5-2.9 1.7 2.5 1.5 2.9-1.7zm-3.6 2.1l-2.5-1.5-2.9 1.7 2.4 1.5 3-1.7zm-3.7 2.1l-2.5-1.5-2.9 1.7 2.5 1.5 2.9-1.7zm10.5-2.3l-2.5-1.5-2.9 1.7 2.5 1.5 2.9-1.7zm-3.6 2.1l-2.5-1.5-2.9 1.7 2.5 1.5 2.9-1.7zm-3.6 2.1l-2.5-1.5-2.9 1.7 2.5 1.5 2.9-1.7zm5.1-2.1l2.5 1.5 2.9-1.7-2.5-1.5-2.9 1.7zm-3.6 2.1l2.5 1.5 2.9-1.7-2.5-1.5-2.9 1.7zm18.155-51.974l-20-11.6a2.62 2.62 0 0 0-2.7 0l-47.5 27.4c-.6.3-.8 1.1-.4 1.7.1.2.3.3.4.4l19.6 11.4a3.25 3.25 0 0 0 3.3 0l47.2-27.4c.5-.3.7-1 .4-1.5-.1-.2-.2-.3-.3-.4z"/></g><path d="M50.832 145.15l-47.4 27.4a3.25 3.25 0 0 1-3.3 0l-19.6-11.4a1.1 1.1 0 0 1-.6-1v2.5a1.1 1.1 0 0 0 .6 1l19.6 11.4a3.25 3.25 0 0 0 3.3 0l47.4-27.5c.3-.2.5-.6.5-.9v-2.4c.1.3-.1.7-.5.9h0z" fill="#07304b"/><path d="M50.832 145.15l-47.4 27.4c-.5.3-1 .4-1.5.4v2.4c.5 0 1-.2 1.5-.4l47.4-27.4c.3-.2.5-.6.5-.9h0v-2.4c.1.3-.1.7-.5.9z" fill="#0b3b56"/><path d="M-1.096 145.066l37-21.3v18.3l-36.9 21.3-.1-18.3z" fill="#0f4463"/><g fill="#07304b"><path d="M30.704 120.766l5.1 2.9-36.9 21.4-5.2-3 37-21.3z"/><path d="M-6.196 142.066l5.2 3v18.3l-5.2-3v-18.3z"/></g><path d="M73.15 30.64l-112.2 65.1v82.6l112.2-65.4v-82.3z" fill="#3a3a3a"/><path d="M-39.05 95.74l-3.7-2.3v82.6l3.7 2.3v-82.6z" fill="#07304b"/><path d="M73.15 30.64l-3.8-2.2-112.1 65 3.7 2.3 112.2-65.1z" fill="#1f5e77"/><path d="M-39.05 95.74v82.6l112.2-65.4v-82.3l-112.2 65.1zm2.7 1.5l106.9-62v76.2l-106.9 62.2v-76.4z" fill="#0b3b56"/><path d="M59.202 47.8V50l-9.2 5.3v-2.2l9.2-5.3z" fill="#f5d012"/><g fill="#edf0f8"><path d="M59.202 51.8V54l-9.2 5.3v-2.2l9.2-5.3zm0 4V58l-9.2 5.3v-2.2l9.2-5.3zm-69.4 46.2v-2.2l56.8-32.7v2.2l-56.8 32.7zm69.4-42.2V62l-9.2 5.3v-2.2l9.2-5.3zm0 4V66l-9.2 5.3v-2.2l9.2-5.3z"/></g><path d="M-10.198 106v-2.2l56.8-32.7v2.2l-56.8 32.7z" fill="#ebf2eb"/><path d="M59.202 75.8V78l-9.2 5.3v-2.2l9.2-5.3z" fill="#edf0f8"/><path d="M59.202 79.8V82l-9.2 5.3v-2.2l9.2-5.3z" fill="#f5d012"/><g fill="#edf0f8"><path d="M59.202 95.8V98l-9.2 5.3v-2.2l9.2-5.3zm0 4v2.2l-9.2 5.3v-2.2l9.2-5.3z"/></g><path d="M10.802 127.787l35.8-20.7v2.2l-35.8 20.6v-2.1z" fill="#ebf2eb"/><g fill="#edf0f8"><path d="M8.902 128.787v2.2l-19.1 11v-2.2l19.1-11zm19.7-15.3l18-10.4v2.2l-18 10.4v-2.2zm-1.9 1.1v2.2l-36.9 21.2v-2.2l36.9-21.2zM-5.398 121v2.2l-4.8 2.8v-2.2l4.8-2.8z"/></g><path d="M21.102 101.8l25.5-14.7v2.2l-25.5 14.7v-2.2z" fill="#ed5561"/><g fill="#edf0f8"><path d="M31.502 63.8l15.1-8.7v2.2l-15.1 8.7v-2.2zM6.833 77.967l22.8-13.1v2.2l-22.8 13.1v-2.2zm13.27-3.567l16-9.3v2.2l-16 9.3v-2.2z"/></g><path d="M3.302 84.04l14.9-8.6v2.2l-14.9 8.6v-2.2z" fill="#ed5561"/><path d="M1.402 85.14v2.2l-11.6 6.7v-2.2l11.6-6.7z" fill="#edf0f8"/><path d="M43.602 64.8V67l-12.1 7v-2.2l12.1-7z" fill="#ed5561"/><g fill="#edf0f8"><path d="M-5.498 93.1l35.1-20.2v2.2l-35.1 20.2v-2.2zm20.1.4l22.9-13.2v2.2l-22.9 13.2v-2.2zm-20.1 11.6l18.2-10.5v2.2l-18.2 10.5v-2.2zm2.038 10.8l22.6-13v2.2l-22.6 13v-2.2z"/></g><path d="M8.902 112.8v2.2l-12.3 7.1v-2.2l12.3-7.1z" fill="#50e85e"/><g fill="#edf0f8"><path d="M42.102 93.7l4.4-2.6v2.2l-4.4 2.6v-2.2zm-8.25 4.738v2.2l-23.1 13.3v-2.2l23.1-13.3zm1.8-1.1l4.5-2.6v2.2l-4.5 2.6v-2.2zM15.002 113.3l25.2-14.5v2.2l-25.2 14.5v-2.2z"/><use xlink:href="#H"/><path d="M-14.214 91.264v.6l-2.5 1.5v-.6l2.5-1.5zm0 1.1v.6l-2.5 1.5v-.6l2.5-1.5z"/><use xlink:href="#I"/><path d="M-14.214 93.464v.6l-2.5 1.5v-.6l2.5-1.5zm0 1.1v.6l-2.5 1.5v-.6l2.5-1.5zm-19.1 11.7v-.6l15.6-9v.6l-15.6 9zm19.1-8.4v.6l-2.5 1.5v-.6l2.5-1.5zm0 1.1v.6l-2.5 1.5v-.6l2.5-1.5zm0 4.4v.6l-2.5 1.5v-.6l2.5-1.5zm0 1.1v.6l-2.5 1.5v-.6l2.5-1.5z"/><use xlink:href="#J"/><use xlink:href="#K"/><use xlink:href="#L"/><path d="M-23.114 108.598v.6l-10.2 5.8v-.6l10.2-5.8z"/><use xlink:href="#M"/><use xlink:href="#N"/><use xlink:href="#O"/><use xlink:href="#P"/><path d="M-25.014 97.464l4.4-2.6v.6l-4.4 2.6v-.6zm-4.6 2.716l4.1-2.4v.6l-4.1 2.4v-.6z"/><use xlink:href="#Q"/><use xlink:href="#R"/><use xlink:href="#S"/><path d="M-26.514 102.764l6.3-3.6v.6l-6.3 3.6v-.6zm-5.5 3.2l5-2.9v.6l-5 2.9v-.6z"/><use xlink:href="#T"/><use xlink:href="#U"/><use xlink:href="#V"/><use xlink:href="#W"/><use xlink:href="#X"/><use xlink:href="#Y"/><path d="M-14.214 108.8v.6l-2.5 1.5v-.6l2.5-1.5zm0 1.1v.6l-2.5 1.5v-.6l2.5-1.5zm0 1.1v.6l-2.5 1.5v-.6l2.5-1.5zm-19.1 12.7v-.6l15.6-9v.6l-15.6 9zm19.1-11.6v.6l-2.5 1.5v-.6l2.5-1.5zm0 1.1v.6l-2.5 1.5v-.6l2.5-1.5zm-19.1 11.6v-.6l15.6-9v.6l-15.6 9zm19.1-8.3v.6l-2.5 1.5v-.6l2.5-1.5zm0 1.1v.6l-2.5 1.5v-.6l2.5-1.5zm0 4.4v.6l-2.5 1.5v-.6l2.5-1.5zm0 1.1v.6l-2.5 1.5v-.6l2.5-1.5zm-13.3 7.746l9.9-5.7v.6l-9.9 5.7v-.6zm-.5.3v.6l-5.3 3v-.6l5.3-3zm5.4-4.202l5-2.9v.6l-5 2.9v-.6zm-.5.2v.6l-10.2 5.9v-.6l10.2-5.9zm-8.9 1.856v.6l-1.3.8v-.6l1.3-.8zm7.3-5.3l7-4.1v.6l-7 4.1v-.6zm2.9-10.5l4.1-2.4v.6l-4.1 2.4v-.6zm-6.806 3.913l6.3-3.6v.6l-6.3 3.6v-.6z"/><use xlink:href="#Z"/><path d="M-29.614 118.825l4.1-2.4v.6l-4.1 2.4v-.6zm-.5.3v.6l-3.2 1.8v-.6l3.2-1.8zm11.6-5.625v.6l-3.3 1.9v-.6l3.3-1.9zm-13.5 7.8l9.7-5.6v.6l-9.7 5.6v-.6zm5.5.1l6.3-3.6v.6l-6.3 3.6v-.6zm-5.5 3.2l5-2.9v.6l-5 2.9v-.6zm.557 3l6.2-3.6v.6l-6.2 3.6v-.6zm3.343-.9v.6l-3.4 2v-.6l3.4-2zm9.2-5.3l1.2-.7v.6l-1.2.7v-.6zm-2.326 1.343v.6l-6.4 3.7v-.6l6.4-3.7zm.6-.3l1.3-.7v.6l-1.3.7v-.6zm-5.774 4.357l6.9-4v.6l-6.9 4v-.6zm12.2.656v.6l-2.5 1.5v-.6l2.5-1.5zm0 1.1v.6l-2.5 1.5v-.6l2.5-1.5zm0 1.1v.6l-2.5 1.5v-.6l2.5-1.5zm-19.1 12.7v-.6l15.6-9v.6l-15.6 9zm19.1-11.6v.6l-2.5 1.5v-.6l2.5-1.5zm0 1.1v.6l-2.5 1.5v-.6l2.5-1.5zm-19.1 11.6v-.6l15.6-9v.6l-15.6 9zm19.1-8.3v.6l-2.5 1.5v-.6l2.5-1.5zm0 1.1v.6l-2.5 1.5v-.6l2.5-1.5zm0 4.4v.6l-2.5 1.5v-.6l2.5-1.5zm0 1.1v.6l-2.5 1.5v-.6l2.5-1.5zm-13.3 7.736l9.9-5.7v.6l-9.9 5.7v-.6zm-.5.3v.6l-5.3 3v-.6l5.3-3zm5.4-4.192l5-2.9v.6l-5 2.9v-.6zm-.5.3v.6l-10.2 5.8v-.6l10.2-5.8zm-8.9 1.756v.6l-1.3.8v-.6l1.3-.8zm7.3-5.3l7-4.1v.6l-7 4.1v-.6zm2.9-10.5l4.1-2.4v.6l-4.1 2.4v-.6zm-6.806 3.904l6.3-3.6v.6l-6.3 3.6v-.6zm3.606-1.004l4.4-2.5v.6l-4.4 2.5v-.6zm-4.6 2.714l4.1-2.4v.6l-4.1 2.4v-.6zm-.5.3v.6l-3.2 1.8v-.6l3.2-1.8zm11.6-5.614v.6l-3.3 1.9v-.6l3.3-1.9zm-13.5 7.8l9.7-5.6v.6l-9.7 5.6v-.6zm5.5.1l6.3-3.6v.6l-6.3 3.6v-.6zm-5.5 3.2l5-2.9v.6l-5 2.9v-.6zm.557 2.98l6.2-3.6v.6l-6.2 3.6v-.6zm3.343-.88v.6l-3.4 2v-.6l3.4-2zm9.2-5.3l1.2-.7v.6l-1.2.7v-.6zm-2.326 1.334v.6l-6.4 3.7v-.6l6.4-3.7zm.6-.3l1.3-.7v.6l-1.3.7v-.6zm-5.774 4.466l6.9-4v.6l-6.9 4v-.6zm12.2.547v.6l-2.5 1.5v-.6l2.5-1.5zm0 1.1v.6l-2.5 1.5v-.6l2.5-1.5zm0 1.1v.6l-2.5 1.5v-.6l2.5-1.5zm-19.1 12.7v-.6l15.6-9v.6l-15.6 9zm19.1-11.6v.6l-2.5 1.5v-.6l2.5-1.5zm0 1.1v.6l-2.5 1.5v-.6l2.5-1.5zm-19.1 11.6v-.6l15.6-9v.6l-15.6 9zm19.1-8.3v.6l-2.5 1.5v-.6l2.5-1.5zm0 1.1v.6l-2.5 1.5v-.6l2.5-1.5zm-17.8 11.4v.6l-1.3.8v-.6l1.3-.8zm7.3-5.3l7-4.1v.6l-7 4.1v-.6zm2.9-10.5l4.1-2.4v.6l-4.1 2.4v-.6zm-6.806 3.902l6.3-3.6v.6l-6.3 3.6v-.6zm3.606-1.002l4.4-2.5v.6l-4.4 2.5v-.6zm-4.6 2.715l4.1-2.4v.6l-4.1 2.4v-.6zm-.5.3v.6l-3.2 1.8v-.6l3.2-1.8zm11.6-5.615v.6l-3.3 1.9v-.6l3.3-1.9zm-13.5 7.8l9.7-5.6v.6l-9.7 5.6v-.6zm5.5.1l6.3-3.6v.6l-6.3 3.6v-.6zm-5.5 3.2l5-2.9v.6l-5 2.9v-.6zm.557 2.98l6.2-3.6v.6l-6.2 3.6v-.6zm3.343-.88v.6l-3.4 2v-.6l3.4-2zm9.2-5.3l1.2-.7v.6l-1.2.7v-.6zm-2.326 1.333v.6l-6.4 3.7v-.6l6.4-3.7zm.6-.3l1.3-.7v.6l-1.3.7v-.6zm-5.774 4.367l6.9-4v.6l-6.9 4v-.6z"/></g><g fill="#ebf2eb"><use xlink:href="#a"/><use xlink:href="#b"/><path d="M65.143 55.223l3-1.7c.1-.1.2 0 .3.1v3.7c0 .2-.1.3-.2.4l-3 1.8c-.1.1-.2 0-.3-.1v-3.7c-.1-.2 0-.4.2-.5z"/><use xlink:href="#c"/><path d="M65.143 66.123l3-1.7c.1-.1.2 0 .3.1v3.7c0 .2-.1.3-.2.4l-3 1.8c-.1.1-.2 0-.3-.1v-3.7c-.1-.3 0-.4.2-.5z"/><path d="M65.143 71.523l3-1.7c.1-.1.2 0 .3.1v3.7c0 .2-.1.3-.2.4l-3 1.8c-.1.1-.2 0-.3-.1v-3.7c-.1-.2 0-.4.2-.5z"/><path d="M65.143 76.923l3-1.7c.1-.1.2 0 .3.1v3.7c0 .2-.1.3-.2.4l-3 1.8c-.1.1-.2 0-.3-.1v-3.7c-.1-.2 0-.4.2-.5z"/><path d="M65.143 82.423l3-1.7c.1-.1.2 0 .3.1v3.7c0 .2-.1.3-.2.4l-3 1.8c-.1.1-.2 0-.3-.1v-3.7c-.1-.3 0-.5.2-.5z"/><path d="M65.143 87.823l3-1.7c.1-.1.2 0 .3.1v3.7c0 .2-.1.3-.2.4l-3 1.8c-.1.1-.2 0-.3-.1v-3.7c-.1-.3 0-.4.2-.5z"/><path d="M65.143 93.223l3-1.7c.1-.1.2 0 .3.1v3.7c0 .2-.1.3-.2.4l-3 1.8c-.1.1-.2 0-.3-.1v-3.7c-.1-.2 0-.4.2-.5z"/><path d="M65.143 98.623l3-1.7c.1-.1.2 0 .3.1v3.7c0 .2-.1.3-.2.4l-3 1.8c-.1.1-.2 0-.3-.1v-3.7c-.1-.2 0-.4.2-.5z"/><path d="M65.143 104.123l3-1.7c.1-.1.2 0 .3.1v3.7c0 .2-.1.3-.2.4l-3 1.8c-.1.1-.2 0-.3-.1v-3.7c-.1-.3 0-.4.2-.5z"/></g><path d="M104.95 133.94s5.2-2.3 11.3 1.7 10.2 9.7 7.7 11.8-7.3 4.3-10.4 3.2-18.7-10.3-8.6-16.7h0z" fill="#0f4463"/><path d="M-9.236 195.8h4.5v4.9h-4.5a3.01 3.01 0 0 0-3 3v7.9a3.01 3.01 0 0 0 3 3h6.6v4.9h-6.6a7.85 7.85 0 0 1-7.9-7.9v-7.9a7.85 7.85 0 0 1 7.9-7.9z" fill="#a7bcce"/><path d="M-7.536 193.1v27.3c0 4.2 6.3 7.7 14.1 7.7s14.1-3.4 14.1-7.7V193l-28.2.1z" fill="#bbcee1"/><path d="M20.664 193.1c0 4.2-6.3 7.7-14.1 7.7s-14.1-3.4-14.1-7.7 6.3-7.7 14.1-7.7 14.1 3.4 14.1 7.7z" fill="#fff"/><path d="M17.864 193c0 3.3-5.1 6-11.3 6s-11.3-2.7-11.3-6 5.1-6 11.3-6 11.3 2.7 11.3 6z" fill="#a7bcce"/><path d="M6.564 190.9c5 0 9.1 1.7 10.7 4-1.5 2.4-5.7 4-10.7 4s-9.1-1.7-10.7-4c1.6-2.3 5.8-4 10.7-4z" fill="#52281c"/><path d="M1.264 200.2v27.4c-2.4-.5-4.7-1.5-6.7-3.1v-27.4a15.26 15.26 0 0 0 6.7 3.1h0z" fill="#a7bcce"/><path d="M86.2 85.88l18.4-10.6c.6-.3 1.3-.3 1.8.1h0l4 2.3-1.9 2.5-.7.8v18.2c0 1.1-.6 2.1-1.5 2.6l-13.8 8-.1.8-2.8 3.9-4.3-2.5c-.4-.3-.7-.7-.7-1.2v-22.2c0-1.1.6-2.1 1.6-2.7z" fill="#00dd05"/><path d="M90.5 88.48l18.6-10.7c.7-.4 1.5-.2 1.9.5.1.2.2.4.2.7v22.3c0 1.1-.6 2.1-1.5 2.6l-18.6 10.8c-.7.4-1.5.2-1.9-.5-.1-.2-.2-.4-.2-.7v-22.2c-.1-1.2.5-2.3 1.5-2.8h0z" fill="#00a508"/><path d="M88.9 113.306v-22.2c0-.4.1-.7.2-1.1l-4.3-2.5c-.1.3-.2.7-.2 1v22.2c0 .5.2.9.7 1.2h0l4.3 2.5c-.4-.1-.7-.6-.7-1.1z" fill="#006602"/><g fill="#fff"><path d="M105.03 87.02c.2.4.4.8.3 1.2v2.8c0 .5.2.8.5.8.5 0 1-.2 1.4-.5v1.9a7.55 7.55 0 0 0-1.4 1.1c-.3.4-.5.9-.5 1.4v2.6a4.53 4.53 0 0 1-.3 1.6c-.2.5-.5.9-.9 1.3-.6.5-1.2.9-1.8 1.3v-1.8c.4-.2.7-.5 1-.9a1.93 1.93 0 0 0 .3-1v-2.6c.1-1.1.7-2.2 1.7-2.8v-.1c-1.1.5-1.7.1-1.7-.9v-2.5c0-.4-.1-.7-.3-.7s-.5 0-1 .3v-1.8l1.8-.8c.2-.2.6-.1.9.1zm-10.4 11.2c.3-.4.5-.9.5-1.4h0v-2.7c0-.8.2-1.6.7-2.2.7-.8 1.5-1.4 2.4-1.9v1.8c-.4.2-.7.5-1 .9a1.93 1.93 0 0 0-.3 1v2.5c-.1 1.2-.7 2.2-1.7 2.9v.1c.4-.2.8-.3 1.3-.1.3.1.4.5.4 1v2.6c0 .4.1.7.3.8s.5 0 1-.3v1.8c-.7.5-1.5.8-2.4.8-.5-.1-.7-.6-.7-1.4v-2.6c0-.6-.2-.8-.5-.9-.5 0-1 .2-1.4.5v-1.9c.5-.4 1-.8 1.4-1.3z"/></g><path d="M86.02 48.55l17.8-10.3c.6-.3 1.2-.3 1.8.1h0l3.9 2.3-1.8 2.5-.7.8v17.6c0 1-.6 2-1.5 2.5l-13.3 7.7-.1.7-2.7 3.8-4.2-2.5c-.4-.2-.6-.7-.6-1.1v-21.5c-.1-1.1.5-2.1 1.4-2.6z" fill="#ffc73b"/><path d="M90.22 50.95l18-10.4c.6-.4 1.4-.1 1.8.5.1.2.2.4.2.7v21.5c0 1-.6 2-1.5 2.5l-18 10.4c-.6.4-1.5.2-1.8-.5-.1-.2-.2-.4-.2-.7v-21.4c0-1 .5-2 1.5-2.6z" fill="#f9b800"/><path d="M89.32 76.27h0z" fill="#bbcee1"/><path d="M88.72 75.07v-21.5c0-.4.1-.7.2-1l-4.2-2.4c-.1.3-.2.7-.2 1v21.5c0 .5.2.9.6 1.1h0l4.1 2.4c-.3-.2-.5-.6-.5-1.1z" fill="#ce8900"/><g fill="#fff"><path d="M107.862 54.452l-5.6 6.1v-1.5l3.8-4-3.9.2v-1.7h5.6l.1.9zm-6.1 7.7l-1.6.9-3.1-7.7 1.6-.9 3.1 7.7zm-5.2-5.3v1.6l-3.8 4.3 3.9-.4v1.5l-5.6.4v-.9l5.5-6.5z"/><use xlink:href="#d"/><path d="M94.82 22.424v1.1l-4.5 2.6v-1.1l4.5-2.6zm0 2v1.1l-4.5 2.6v-1.1l4.5-2.6zm0 1.9v1.1l-4.5 2.6v-1.1l4.5-2.6zm0 2v1.1l-4.5 2.6v-1.1l4.5-2.6zm0 5.8v1.1l-4.5 2.6v-1.1l4.5-2.6z"/></g><path d="M85.102 9.924l18.3-10.5c.6-.3 1.3-.3 1.8.1h0l4 2.3-1.9 2.5-.7.8v18c0 1.1-.6 2.1-1.5 2.6l-13.7 7.9-.1.8-2.8 3.9-4.3-2.5c-.4-.3-.7-.7-.7-1.2v-22c0-1.2.6-2.2 1.6-2.7z" fill="#f94848"/><path d="M89.302 12.424l18.5-10.7c.6-.4 1.5-.2 1.8.5.1.2.2.4.2.7v22.1c0 1.1-.6 2.1-1.5 2.6l-18.5 10.7c-.7.4-1.5.2-1.9-.5-.1-.2-.2-.4-.2-.7v-22c.1-1.1.7-2.2 1.6-2.7z" fill="#f70000"/><path d="M88.502 38.258h0z" fill="#bbcee1"/><path d="M87.802 37.058v-22c0-.4.1-.7.2-1.1l-4.3-2.5c-.1.3-.2.7-.2 1v22c0 .5.2.9.7 1.2h0l4.3 2.5c-.5-.1-.7-.6-.7-1.1z" fill="#c40000"/><g fill="#fff"><path d="M93.177 26.72c.3-.2.6-.4.8-.7.3-.3.6-.6.8-.9l.5 1.2a10.04 10.04 0 0 1-2.2 1.9c-.6.4-1.2.6-1.9.5-.5 0-1-.4-1.2-.8-.3-.7-.5-1.4-.4-2.1a8.49 8.49 0 0 1 .9-3.8c.6-1.1 1.4-2 2.5-2.6.6-.4 1.3-.6 2.1-.7v1.5c-.7.1-1.3.3-1.9.6-1.3.7-1.9 2-1.9 4-.1.7.1 1.3.5 1.9.4.3.8.3 1.4 0zm12.2-12.9l1.1-.6v2.3l2-1.1v1.3l-2 1.1v2.3l-1.1.6v-2.3l-2 1.1v-1.3l2-1.1v-2.3zm-6.2 5.9v-2.3l1.1-.6v2.3l2-1.1v1.3l-2 1.1v2.3l-1.1.6v-2.3l-2 1.1v-1.3l2-1.1z"/></g><g transform="matrix(.966 -.259 .259 .966 -61.278 -85.429)" opacity=".2" fill="#fff"><use xlink:href="#C"/><use xlink:href="#B"/></g></g></svg>