<svg xmlns="http://www.w3.org/2000/svg" xmlns:xlink="http://www.w3.org/1999/xlink" viewBox="-68 -77 375 667" width="375" height="667"><defs><path id="A" d="M-68-77h375v667H-68z"/><path id="B" d="M5.2-62.2C-6.5-62.2-16-52.7-16-41s9.5 21.2 21.2 21.2 21.2-9.4 21.2-21.1h0c0-11.8-9.5-21.3-21.2-21.3zm0 38.2a16.99 16.99 0 1 1 0-34 16.99 16.99 0 0 1 17 17h0c0 9.3-7.6 17-17 17z"/><path id="C" d="M56.2-32.8v-16.3l-11.9-2c-.9-3.6-2.4-7-4.3-10.2l7-9.9-11.5-11.6-9.9 7c-3.2-1.9-6.6-3.3-10.2-4.3l-2-11.9H-2.9l-2 11.9c-3.6.9-7 2.4-10.2 4.3l-9.9-7-11.5 11.5 7 9.9c-1.9 3.2-3.3 6.6-4.3 10.2l-11.9 2v16.3l11.9 2c.9 3.6 2.4 7 4.3 10.2l-7 9.9L-25 .8l9.9-7C-12-4.4-8.5-2.9-4.9-2l2 11.9h16.3l2-11.9c3.6-.9 7-2.4 10.2-4.3l9.9 7L47-10.8l-7-9.9c1.9-3.2 3.3-6.6 4.3-10.2l11.9-1.9zm-15.8-.4c-.9 4.1-2.5 8-4.8 11.5l-.8 1.2 6.6 9.2L35-4.7l-9.2-6.6-1.2.8c-3.5 2.3-7.4 3.9-11.5 4.8l-1.4.3L9.8 5.7H.7L-1.2-5.5l-1.4-.3c-4.1-.9-8-2.5-11.5-4.8l-1.2-.8-9.2 6.6-6.5-6.5 6.6-9.2-.8-1.2c-2.3-3.5-3.9-7.4-4.8-11.5l-.3-1.4-11.2-1.9v-9.1l11.2-1.9.3-1.4c.9-4.1 2.5-8 4.8-11.5l.8-1.2-6.6-9.2 6.5-6.5 9.2 6.6 1.2-.8c3.5-2.3 7.4-3.9 11.5-4.8l1.4-.3L.7-87.8h9.1l1.9 11.2 1.4.3c4.1.9 8 2.5 11.5 4.8l1.2.8 9.2-6.6 6.5 6.5-6.6 9.2.8 1.2c2.3 3.5 3.9 7.4 4.8 11.5l.3 1.4L52-45.6v9.1l-11.2 1.9-.4 1.4z"/><path id="D" d="M58.1 47.3v2.2l-9.2 5.3v-2.2l9.2-5.3z"/><path id="E" d="M-33.3 101.9l3-1.7c.1-.1.2 0 .3.1v3.7c0 .2-.1.3-.2.4l-3 1.8c-.1.1-.2 0-.3-.1v-3.7c-.1-.3 0-.4.2-.5z"/><path id="F" d="M-33.3 107.3l3-1.7c.1-.1.2 0 .3.1v3.7c0 .2-.1.3-.2.4l-3 1.8c-.1.1-.2 0-.3-.1v-3.7c-.1-.2 0-.4.2-.5z"/><path id="G" d="M-33.3 118.2l3-1.7c.1-.1.2 0 .3.1v3.7c0 .2-.1.3-.2.4l-3 1.8c-.1.1-.2 0-.3-.1v-3.7c-.1-.3 0-.5.2-.5z"/></defs><clipPath id="H"><use xlink:href="#A"/></clipPath><g clip-path="url(#H)"><g transform="matrix(.798636 .601815 -.601815 .798636 -124.62 -524.65)"><linearGradient id="I" gradientUnits="userSpaceOnUse" x1="340.951" y1="241.218" x2="262.244" y2="935.808"><stop offset="0" stop-color="#2ba6f8"/><stop offset="1" stop-color="#090909"/><stop offset="1"/></linearGradient><path d="M448 160.6S558.7 33 349.8-25.5 463.6 210 550.8 255c55 24.1 71.3 70.9 67.6 114.4-4.8 57.2-100.7 59.3-181.2 95.6-194.3 87.8 25.2 14.7 99.2 56.6s28.9 73.2-73.5 70c-221.1-6.9-147.8 58.4-110.8 88s30.6 97.2-143.5 51.5C34.6 685.4 100 795.8 100 795.8H-83.3V119.1L448 160.6z" fill="url(#I)"/><linearGradient id="J" gradientUnits="userSpaceOnUse" x1="120.586" y1="320.308" x2="27.263" y2="702.507"><stop offset="0" stop-color="#2ba6f8"/><stop offset="1"/></linearGradient><path d="M78.6 131.6S297 120.2 335.8 263.7c42.4 156.4-93.1 229.9-139.1 194s-48-84.7 23.5-116.9 64.3-131.4-92.1-106.6S-46.3 458 67 505.6s85.7 103.7-36.2 163.3-55.2 139.5-55.2 139.5h-76.2V131.7l179.2-.1z" fill="url(#J)"/></g><g transform="matrix(.695 -.719 .719 .695 -623.16 600.79)"><linearGradient id="K" gradientUnits="userSpaceOnUse" x1="349.713" y1="58.315" x2="-499.51" y2="171.214"><stop offset="0" stop-color="#2ba6f8"/><stop offset="1" stop-color="#090909"/><stop offset="1"/></linearGradient><path d="M751.2-42s-136 3-303.9-50.9.6 134.7 70.6 176c44.3 22.2 57.3 65.3 54.4 105.4-3.8 52.6-81 54.6-145.7 88-156.2 80.8 20.3 13.5 79.8 52.2s23.2 67.4-59.1 64.5c-177.8-6.4-300.6-187.9-270.9-160.6s159.1 248.1 19.1 206.1-40.1 142.6-40.1 142.6H8.1V-42h743.1z" fill="url(#K)"/><linearGradient id="L" gradientUnits="userSpaceOnUse" x1="120.539" y1="206.305" x2="-239.292" y2="164.073"><stop offset="0" stop-color="#2ba6f8"/><stop offset="1"/></linearGradient><path d="M173.2-42S374.3-52.5 410.1 79.6c39 144-85.8 211.7-128.1 178.6s-44.2-78 21.6-107.6 59.3-121-84.8-98.2-160.7 206.2-56.3 250 78.9 95.5-33.3 150.3-50.9 128.5-50.9 128.5H8.1V-42h165.1z" fill="url(#L)"/></g><path d="M72.3-.1h0z" fill="#bbcee1"/><g opacity=".4"><path d="M87.7 10.9l16.8-9.7v1l-16.8 9.7v-1zm8.4-6.7l8.5-4.9v1l-8.5 4.9v-1z" fill="#fff"/></g><path d="M-45.2 63h0zm38.5-41.9h0zm38.5-41h0z" fill="#bbcee1"/><g opacity=".4"><path d="M-33.3-10.9v-1m4.3-2.5v1" fill="#fff"/></g><g transform="matrix(.966 -.259 .259 .966 148.42 101.78)" opacity=".2" fill="#fff"><path d="M56.2-32.8v-16.3l-11.9-2c-.9-3.6-2.4-7-4.3-10.2l7-9.9-11.5-11.6-9.9 7c-3.2-1.9-6.6-3.3-10.2-4.3l-2-11.9H-2.9l-2 11.9c-3.6.9-7 2.4-10.2 4.3l-9.9-7-11.6 11.5 7 9.9c-1.9 3.2-3.3 6.6-4.3 10.2l-11.9 2v16.3l11.9 2c.9 3.6 2.4 7 4.3 10.2l-7 9.9L-25 .8l9.9-7C-12-4.4-8.5-2.9-4.9-2l2 11.9h16.3l2-11.9c3.6-.9 7-2.4 10.2-4.3l9.9 7L47-10.8l-7-9.9c1.9-3.2 3.3-6.6 4.3-10.2l11.9-1.9zm-15.8-.4c-.9 4.1-2.5 8-4.8 11.5l-.8 1.2 6.6 9.2L35-4.7l-9.2-6.6-1.2.8c-3.5 2.3-7.4 3.9-11.5 4.8l-1.4.3L9.8 5.7H.7L-1.2-5.5l-1.4-.3c-4.1-.9-8-2.5-11.5-4.8l-1.2-.8-9.2 6.6-6.5-6.5 6.6-9.2-.8-1.2c-2.3-3.5-3.9-7.4-4.8-11.5l-.3-1.4-11.2-1.9v-9.1l11.2-1.9.3-1.4c.9-4.1 2.5-8 4.8-11.5l.8-1.2-6.6-9.2 6.5-6.5 9.2 6.6 1.2-.8c3.5-2.3 7.4-3.9 11.5-4.8l1.4-.3L.7-87.8h9.1l1.9 11.2 1.4.3c4.1.9 8 2.5 11.5 4.8l1.2.8 9.2-6.6 6.5 6.5-6.6 9.2.8 1.2c2.3 3.5 3.9 7.4 4.8 11.5l.3 1.4L52-45.6v9.1l-11.2 1.9-.4 1.4z"/><use xlink:href="#B"/></g><g transform="matrix(.966 -.259 .259 .966 -82.575 118.78)" opacity=".2" fill="#fff"><use xlink:href="#C"/><use xlink:href="#B"/></g><g transform="matrix(.966 -.259 .259 .966 107.42 -52.223)" opacity=".2" fill="#fff"><use xlink:href="#C"/><use xlink:href="#B"/></g><path d="M95 162.3l-20.4-11.8c-.9-.6-2.2-.6-3.1 0L8.7 186.8c-.7.4-.9 1.2-.5 1.9.1.2.3.4.5.5l19.8 11.5c1.1.7 2.5.7 3.7 0L95 164.4c.6-.3.8-1.1.4-1.7l-.4-.4z" fill="#0f4463"/><path d="M95 164.4l-62.8 36.3c-1.1.7-2.5.7-3.7 0L8.7 189.2c-.4-.2-.7-.7-.7-1.2v2.4c0 .5.3.9.7 1.1l19.8 11.6c1.1.7 2.5.7 3.7 0L95 166.8c.4-.2.6-.6.6-1.1v-2.4c0 .5-.3.9-.6 1.1h0z" fill="#0b3b56"/><g fill="#1f5e77"><path d="M74.8 153.8l-2.5-1.5-2.9 1.7 2.5 1.5 2.9-1.7zm-3.6 2.1l-2.5-1.5-2.9 1.7 2.5 1.5 2.9-1.7zm-3.6 2l-2.5-1.5-2.9 1.7 2.5 1.5 2.9-1.7zm-3.7 2.1l-2.5-1.5-2.9 1.7 2.5 1.5 2.9-1.7zm-3.6 2.1l-2.5-1.5-2.9 1.7 2.5 1.5 2.9-1.7zm-3.6 2.1l-2.5-1.5-2.9 1.7 2.5 1.5 2.9-1.7zm-3.6 2l-2.5-1.5-2.9 1.7 2.5 1.5 2.9-1.7zm-3.6 2.1l-2.5-1.5-2.9 1.7 2.5 1.5 2.9-1.7zm-3.6 2.1l-2.5-1.5-2.9 1.7 2.5 1.5 2.9-1.7zm-3.6 2.1l-2.5-1.5-2.9 1.7 2.5 1.5 2.9-1.7zm-3.6 2.1l-2.5-1.5-2.9 1.7 2.5 1.5 2.9-1.7zm-3.7 2l-2.5-1.5-2.9 1.7 2.5 1.5 2.9-1.7zm-6.1.7L26 179l2.5 1.5 2.9-1.7-2.5-1.5zm46.3-20l2.9-1.7-2.5-1.5-2.9 1.7 2.5 1.5zm-6.2.7l2.5 1.5 2.9-1.7-2.5-1.5L69 158zm-3.6 2l2.5 1.5 2.9-1.7-2.5-1.5-2.9 1.7zm-3.6 2.1l2.5 1.5 2.9-1.7-2.5-1.5-2.9 1.7zm-3.6 2.1l2.5 1.5 2.9-1.7-2.5-1.5-2.9 1.7zm-3.6 2.1l2.5 1.5 2.9-1.7-2.5-1.5-2.9 1.7zm-3.6 2.1l2.5 1.5 2.9-1.7-2.5-1.5-2.9 1.7zm-3.6 2l2.5 1.5 2.9-1.7-2.5-1.5-2.9 1.7zm-3.7 2.1l2.5 1.5 2.9-1.7-2.5-1.5-2.9 1.7zm-3.6 2.1l2.5 1.5 2.9-1.7-2.5-1.5-2.9 1.7zm-3.6 2.1l2.5 1.5 2.9-1.7-2.5-1.5-2.9 1.7zm-3.6 2.1l2.5 1.5 2.9-1.7-2.5-1.5-2.9 1.7zm-.7.4l-2.9 1.7 2.5 1.5 2.9-1.7-2.5-1.5zm46.3-19.9l2.9-1.7-2.5-1.5-2.9 1.7 2.5 1.5zm-6.2.6l2.5 1.5 2.9-1.7-2.5-1.5-2.9 1.7zm1.9 1.9l-2.5-1.5-2.9 1.7 2.5 1.5 2.9-1.7zm-9.1 2.2l2.5 1.5 2.9-1.7-2.5-1.5-2.9 1.7zm-3.6 2.1l2.5 1.5 2.9-1.7-2.5-1.5-2.9 1.7zm-3.6 2.1l2.5 1.5 2.9-1.7-2.5-1.5-2.9 1.7zm-3.6 2.1l2.5 1.5 2.9-1.7-2.5-1.5-2.9 1.7zm-3.7 2l2.5 1.5 2.9-1.7-2.5-1.5-2.9 1.7zm-3.6 2.1l2.5 1.5 2.9-1.7-2.5-1.5-2.9 1.7zm-3.6 2.1l2.5 1.5 2.9-1.7-2.5-1.5-2.9 1.7zm-3.6 2.1l2.5 1.5 2.9-1.7-2.5-1.5-2.9 1.7zm1.9 1.9l-2.5-1.5-2.9 1.7 2.5 1.5 2.9-1.7zm-6.2.6l-2.9 1.7 2.5 1.5 2.9-1.7-2.5-1.5zm46.3-19.9l2.9-1.7-2.5-1.5-2.9 1.7 2.5 1.5zm-.7.4l-2.5-1.5-2.9 1.7 2.5 1.5 2.9-1.7zm-3.6 2.1l-2.5-1.5-2.9 1.7 2.5 1.5 2.9-1.7zm-3.7 2l-2.5-1.5-2.9 1.7 2.5 1.5 2.9-1.7zm-3.6 2.1l-2.5-1.5-2.9 1.7 2.5 1.5 2.9-1.7zm-3.6 2.1l-2.5-1.5-2.9 1.7 2.5 1.5 2.9-1.7zM63 172l-2.5-1.5-2.9 1.7 2.5 1.5L63 172zm-3.6 2.1l-2.5-1.5-2.9 1.7 2.5 1.5 2.9-1.7zm-3.6 2l-2.5-1.5-2.9 1.7 2.5 1.5 2.9-1.7zm-3.6 2.1l-2.6-1.5-2.9 1.7 2.5 1.5 3-1.7zm-3.6 2.1l-2.5-1.5-2.9 1.7 2.5 1.5 2.9-1.7zm-3.7 2.1l-2.5-1.5-2.9 1.7 2.5 1.5 2.9-1.7zm-6.1.6l-2.9 1.7 2.5 1.5 2.9-1.7-2.5-1.5zm46.3-19.9l2.9-1.7-2.5-1.5-2.9 1.7 2.5 1.5zm-.7.4l-2.5-1.5-2.9 1.7 2.5 1.5 2.9-1.7zm-3.7 2.1l-2.5-1.5-2.9 1.7 2.5 1.5 2.9-1.7zm-3.6 2.1l-2.5-1.5-2.9 1.7 2.5 1.5 2.9-1.7zm-3.6 2l-2.5-1.4-2.9 1.7 2.5 1.5 2.9-1.8zm-3.6 2.1l-2.5-1.5-2.9 1.7 2.5 1.5 2.9-1.7zm-3.6 2.1l-2.5-1.5-2.9 1.7 2.5 1.5 2.9-1.7zm-3.6 2.1l-2.5-1.5-2.9 1.7 2.5 1.5 2.9-1.7zm-3.6 2l-2.5-1.5-2.9 1.7 2.5 1.5 2.9-1.7zm-3.6 2.1l-2.5-1.5-3 1.7 2.5 1.5 3-1.7zm-3.6 2.1l-2.5-1.5-2.9 1.7 2.5 1.5 2.9-1.7zm-3.7 2.1l-2.5-1.5-2.9 1.7 2.5 1.5 2.9-1.7zm-6.1.6l-2.9 1.7 2.5 1.5 2.9-1.7-2.5-1.5zm46.6-23l-2.9 1.7 2.5 1.5 2.9-1.7-2.5-1.5zm-6.5 3.7l2.5 1.5 2.9-1.7-2.5-1.5-2.9 1.7zm-3.6 2.1l2.5 1.5 2.9-1.7-2.5-1.5-2.9 1.7zm-3.6 2l2.5 1.5 2.9-1.7-2.5-1.5-2.9 1.7zm-3.6 2.1l2.5 1.5 2.9-1.7-2.5-1.5-2.9 1.7zm-3.6 2.1l2.5 1.5 2.9-1.7-2.5-1.5-2.9 1.7zm-.7.4l-3.6 2.1-.7.4-2.9 1.7-1.5.8-2.1 1.2-2.3 1.3-4.2 2.4 2.5 1.5 6.5-3.7 2.2-1.3 1.4-.8 2.9-1.6.8-.4 3.6-2.1-2.6-1.5zm-21 12.1l2.5 1.5 2.9-1.7-2.5-1.5-2.9 1.7zm-3.6 2.1L45 190l2.9-1.7-2.5-1.5-2.9 1.7zm-18.2-5.6l-2.5-1.5-2.9 1.7 2.5 1.5 2.9-1.7zm-3.7 2l-2.5-1.5-2.9 1.7 2.5 1.5 2.9-1.7zM17 187l-2.5-1.5-2.9 1.7 2.5 1.5L17 187zm5.1-2l2.5 1.5 2.9-1.7-2.5-1.5-2.9 1.7zm-3.6 2.1l2.5 1.5 2.9-1.7-2.5-1.5-2.9 1.7zm-3.6 2l2.5 1.5 2.9-1.7-2.5-1.5-2.9 1.7zm10.5-2.2l2.5 1.5 2.9-1.7-2.5-1.5-2.9 1.7zm-3.6 2.1l2.5 1.5 2.9-1.7-2.5-1.5-2.9 1.7zm-3.6 2l2.5 1.5 2.9-1.7-2.5-1.5-2.9 1.7zm16-2.4l-2.5-1.5-2.9 1.7 2.5 1.5 2.9-1.7zm-3.6 2.1l-2.5-1.5-2.9 1.7 2.4 1.5 3-1.7zm-3.7 2.1l-2.5-1.5-2.9 1.7 2.5 1.5 2.9-1.7zm10.5-2.3l-2.5-1.5-2.9 1.7 2.5 1.5 2.9-1.7zm-3.6 2.1l-2.5-1.5-2.9 1.7 2.5 1.5 2.9-1.7zm-3.6 2.1l-2.5-1.5-2.9 1.7 2.5 1.5 2.9-1.7zm5.1-2.1l2.5 1.5 2.9-1.7-2.5-1.5-2.9 1.7zm-3.6 2.1l2.5 1.5 2.9-1.7-2.5-1.5-2.9 1.7zm18.1-52l-20-11.6a2.62 2.62 0 0 0-2.7 0l-47.5 27.4c-.6.3-.8 1.1-.4 1.7.1.2.3.3.4.4L-.8 172a3.25 3.25 0 0 0 3.3 0l47.2-27.4c.5-.3.7-1 .4-1.5-.1-.2-.2-.3-.3-.4h0z"/></g><path d="M49.7 144.6L2.3 172a3.25 3.25 0 0 1-3.3 0l-19.6-11.4a1.1 1.1 0 0 1-.6-1v2.5a1.1 1.1 0 0 0 .6 1L-1 174.5a3.25 3.25 0 0 0 3.3 0L49.7 147c.3-.2.5-.6.5-.9v-2.4c.1.4-.1.7-.5.9h0z" fill="#07304b"/><path d="M49.7 144.6L2.3 172c-.5.3-1 .4-1.5.4v2.4c.5 0 1-.2 1.5-.4L49.7 147c.3-.2.5-.6.5-.9h0v-2.4c.1.4-.1.7-.5.9z" fill="#0b3b56"/><path d="M-2.2 144.6l37-21.3v18.3l-36.9 21.3-.1-18.3z" fill="#0f4463"/><g fill="#07304b"><path d="M29.6 120.3l5.1 2.9-36.9 21.4-5.2-3 37-21.3z"/><path d="M-7.3,141.6l5.2,3v18.3l-5.2-3V141.6z"/></g><path d="M72 30.1L-40.2 95.2v82.6L72 112.4V30.1z" fill="#3a3a3a"/><path d="M-40.2,95.2l-3.7-2.3v82.6l3.7,2.3V95.2z" fill="#07304b"/><path d="M72 30.1l-3.8-2.2-112.1 65 3.7 2.3L72 30.1z" fill="#1f5e77"/><path d="M-40.2 95.2v82.6L72 112.4V30.1L-40.2 95.2zm2.7 1.5l106.9-62v76.2l-106.9 62.2V96.7z" fill="#0b3b56"/><use xlink:href="#D" fill="#f5d012"/><path d="M58.1 51.3v2.2l-9.2 5.3v-2.2l9.2-5.3zm0 4v2.2l-9.2 5.3v-2.2l9.2-5.3zm-69.4 46.2v-2.2l56.8-32.7v2.2l-56.8 32.7zm69.4-42.2v2.2l-9.2 5.3v-2.2l9.2-5.3zm0 4v2.2l-9.2 5.3v-2.2l9.2-5.3z" fill="#edf0f8"/><path d="M-11.3 105.5v-2.2l56.8-32.7v2.2l-56.8 32.7z" fill="#ebf2eb"/><path d="M58.1 75.3v2.2l-9.2 5.3v-2.2l9.2-5.3z" fill="#edf0f8"/><path d="M58.1 79.3v2.2l-9.2 5.3v-2.2l9.2-5.3z" fill="#f5d012"/><path d="M58.1 95.3v2.2l-9.2 5.3v-2.2l9.2-5.3zm0 4v2.2l-9.2 5.3v-2.2l9.2-5.3z" fill="#edf0f8"/><path d="M9.7 127.3l35.8-20.7v2.2L9.7 129.4v-2.1z" fill="#ebf2eb"/><path d="M7.8 128.3v2.2l-19.1 11v-2.2l19.1-11zM27.5 113l18-10.4v2.2l-18 10.4V113zm-1.9 1.1v2.2l-36.9 21.2v-2.2l36.9-21.2zm-32.1 6.4v2.2l-4.8 2.8v-2.2l4.8-2.8z" fill="#edf0f8"/><path d="M20 101.3l25.5-14.7v2.2L20 103.5v-2.2z" fill="#ed5561"/><path d="M30.4 63.3l15.1-8.7v2.2l-15.1 8.7v-2.2zM5.7 77.5l22.8-13.1v2.2L5.7 79.7v-2.2zM19 73.9l16-9.3v2.2l-16 9.3v-2.2z" fill="#edf0f8"/><path d="M2.2,83.5l14.9-8.6v2.2L2.2,85.7V83.5z" fill="#ed5561"/><path d="M.3 84.6v2.2l-11.6 6.7v-2.2L.3 84.6z" fill="#edf0f8"/><path d="M42.5 64.3v2.2l-12.1 7v-2.2l12.1-7z" fill="#ed5561"/><path d="M-6.6 92.6l35.1-20.2v2.2L-6.6 94.8v-2.2zm20.1.4l22.9-13.2V82L13.5 95.2V93zm-20.1 11.6l18.2-10.5v2.2l-18.2 10.5v-2.2zm2 10.8l22.6-13v2.2l-22.6 13v-2.2z" fill="#edf0f8"/><path d="M7.8 112.3v2.2l-12.3 7.1v-2.2l12.3-7.1z" fill="#50e85e"/><path d="M41 93.2l4.4-2.6v2.2L41 95.4v-2.2zm-8.2 4.7v2.2L9.7 113.4v-2.2l23.1-13.3zm1.8-1.1l4.5-2.6v2.2L34.6 99v-2.2zm-20.7 16l25.2-14.5v2.2L13.9 115v-2.2z" fill="#edf0f8"/><g fill="#ebf2eb"><use xlink:href="#E"/><use xlink:href="#F"/><path d="M-33.3 112.7l3-1.7c.1-.1.2 0 .3.1v3.7c0 .2-.1.3-.2.4l-3 1.8c-.1.1-.2 0-.3-.1v-3.7c-.1-.2 0-.4.2-.5z"/><use xlink:href="#G"/><path d="M-33.3 123.6l3-1.7c.1-.1.2 0 .3.1v3.7c0 .2-.1.3-.2.4l-3 1.8c-.1.1-.2 0-.3-.1v-3.7c-.1-.3 0-.4.2-.5z"/><path d="M-33.3 129l3-1.7c.1-.1.2 0 .3.1v3.7c0 .2-.1.3-.2.4l-3 1.8c-.1.1-.2 0-.3-.1v-3.7c-.1-.2 0-.4.2-.5z"/><path d="M-33.3 134.4l3-1.7c.1-.1.2 0 .3.1v3.7c0 .2-.1.3-.2.4l-3 1.8c-.1.1-.2 0-.3-.1v-3.7c-.1-.2 0-.4.2-.5z"/><path d="M-33.3 139.9l3-1.7c.1-.1.2 0 .3.1v3.7c0 .2-.1.3-.2.4l-3 1.8c-.1.1-.2 0-.3-.1v-3.7c-.1-.3 0-.5.2-.5z"/><path d="M-33.3 145.3l3-1.7c.1-.1.2 0 .3.1v3.7c0 .2-.1.3-.2.4l-3 1.8c-.1.1-.2 0-.3-.1v-3.7c-.1-.3 0-.4.2-.5z"/><path d="M-33.3 150.7l3-1.7c.1-.1.2 0 .3.1v3.7c0 .2-.1.3-.2.4l-3 1.8c-.1.1-.2 0-.3-.1v-3.7c-.1-.2 0-.4.2-.5z"/><path d="M-33.3 156.1l3-1.7c.1-.1.2 0 .3.1v3.7c0 .2-.1.3-.2.4l-3 1.8c-.1.1-.2 0-.3-.1v-3.7c-.1-.2 0-.4.2-.5z"/><path d="M-33.3 161.6l3-1.7c.1-.1.2 0 .3.1v3.7c0 .2-.1.3-.2.4l-3 1.8c-.1.1-.2 0-.3-.1v-3.7c-.1-.3 0-.4.2-.5z"/></g><path d="M103.8 133.4s5.2-2.3 11.3 1.7 10.2 9.7 7.7 11.8-7.3 4.3-10.4 3.2-18.7-10.3-8.6-16.7h0z" fill="#0f4463"/><path d="M-10.3 195.3h4.5v4.9h-4.5c-1.7 0-3 1.3-3 3v7.9c0 1.7 1.3 3 3 3h6.6v4.9h-6.6c-4.3 0-7.9-3.5-7.9-7.8v-8c0-4.3 3.5-7.9 7.8-7.9h.1z" fill="#a7bcce"/><path d="M-8.6 192.6v27.3c0 4.2 6.3 7.7 14.1 7.7s14.1-3.4 14.1-7.7v-27.4l-28.2.1z" fill="#bbcee1"/><path d="M19.6 192.6c0 4.2-6.3 7.7-14.1 7.7s-14.1-3.4-14.1-7.7 6.3-7.7 14.1-7.7 14.1 3.4 14.1 7.7z" fill="#fff"/><path d="M16.8 192.5c0 3.3-5.1 6-11.3 6s-11.3-2.7-11.3-6 5.1-6 11.3-6 11.3 2.7 11.3 6z" fill="#a7bcce"/><path d="M5.5 190.4c5 0 9.1 1.7 10.7 4-1.5 2.4-5.7 4-10.7 4s-9.1-1.7-10.7-4c1.6-2.3 5.8-4 10.7-4z" fill="#52281c"/><path d="M.2 199.7v27.4c-2.4-.5-4.7-1.5-6.7-3.1v-27.4c1.9 1.6 4.2 2.6 6.7 3.1z" fill="#a7bcce"/><path d="M85.1 85.4l18.4-10.6c.6-.3 1.3-.3 1.8.1h0l4 2.3-1.9 2.5-.7.8v18.2c0 1.1-.6 2.1-1.5 2.6l-13.8 8-.1.8-2.8 3.9-4.3-2.5c-.4-.3-.7-.7-.7-1.2V88.1c0-1.1.6-2.1 1.6-2.7h0z" fill="#00dd05"/><path d="M89.4 88L108 77.3c.7-.4 1.5-.2 1.9.5.1.2.2.4.2.7v22.3c0 1.1-.6 2.1-1.5 2.6L90 114.2c-.7.4-1.5.2-1.9-.5-.1-.2-.2-.4-.2-.7V90.8c-.1-1.2.5-2.3 1.5-2.8z" fill="#00a508"/><path d="M87.8 112.8V90.6c0-.4.1-.7.2-1.1L83.7 87c-.1.3-.2.7-.2 1v22.2c0 .5.2.9.7 1.2h0l4.3 2.5c-.4-.1-.7-.6-.7-1.1z" fill="#006602"/><path d="M103.9 86.5c.2.4.4.8.3 1.2v2.8c0 .5.2.8.5.8.5 0 1-.2 1.4-.5v1.9a7.55 7.55 0 0 0-1.4 1.1c-.3.4-.5.9-.5 1.4v2.6a4.53 4.53 0 0 1-.3 1.6c-.2.5-.5.9-.9 1.3-.6.5-1.2.9-1.8 1.3v-1.8c.4-.2.7-.5 1-.9a1.69 1.69 0 0 0 .3-1v-2.6c.1-1.1.7-2.2 1.7-2.8v-.1c-1.1.5-1.7.1-1.7-.9v-2.5c0-.4-.1-.7-.3-.7s-.5 0-1 .3v-1.8l1.8-.8c.2-.2.6-.1.9.1zM93.5 97.7c.3-.4.5-.9.5-1.4h0v-2.7c0-.8.2-1.6.7-2.2.7-.8 1.5-1.4 2.4-1.9v1.8c-.4.2-.7.5-1 .9a1.69 1.69 0 0 0-.3 1v2.5c-.1 1.2-.7 2.2-1.7 2.9v.1c.4-.2.8-.3 1.3-.1.3.1.4.5.4 1v2.6c0 .4.1.7.3.8s.5 0 1-.3v1.8c-.7.5-1.5.8-2.4.8-.5-.1-.7-.6-.7-1.4v-2.6c0-.6-.2-.8-.5-.9-.5 0-1 .2-1.4.5V99c.5-.4 1-.8 1.4-1.3z" fill="#fff"/><path d="M84.9 48l17.8-10.3c.6-.3 1.2-.3 1.8.1h0l3.9 2.3-1.8 2.5-.7.8V61c0 1-.6 2-1.5 2.5l-13.3 7.7-.1.7-2.7 3.8-4.2-2.5c-.4-.2-.6-.7-.6-1.1V50.6c-.1-1.1.5-2.1 1.4-2.6z" fill="#ffc73b"/><path d="M89.1 50.5l18-10.4c.6-.4 1.4-.1 1.8.5.1.2.2.4.2.7v21.5c0 1-.6 2-1.5 2.5l-18 10.4c-.6.4-1.5.2-1.8-.5-.1-.2-.2-.4-.2-.7V53.1c0-1 .5-2 1.5-2.6z" fill="#f9b800"/><path d="M88.2 75.8h0z" fill="#bbcee1"/><path d="M87.6 74.6V53.1c0-.4.1-.7.2-1l-4.2-2.4c-.1.3-.2.7-.2 1v21.5c0 .5.2.9.6 1.1h0l4.1 2.4c-.3-.2-.5-.6-.5-1.1z" fill="#ce8900"/><g fill="#fff"><path d="M106.8 54l-5.6 6.1v-1.5l3.8-4-3.9.2v-1.7h5.6l.1.9zm-6.1 7.7l-1.6.9-3.1-7.7 1.6-.9 3.1 7.7zm-5.2-5.3V58l-3.8 4.3 3.9-.4v1.5l-5.6.4v-.9l5.5-6.5zM93.7 20v1.1l-4.5 2.6v-1.1l4.5-2.6zm0 1.9V23l-4.5 2.6v-1.1l4.5-2.6zm0 2V25l-4.5 2.6v-1.1l4.5-2.6zm0 1.9v1.1l-4.5 2.6v-1.1l4.5-2.6zm0 2v1.1l-4.5 2.6v-1.1l4.5-2.6zm0 5.8v1.1l-4.5 2.6v-1.1l4.5-2.6z"/></g><path d="M84 9.4l18.3-10.5c.6-.3 1.3-.3 1.8.1h0l4 2.3-1.9 2.5-.7.8v18c0 1.1-.6 2.1-1.5 2.6l-13.7 7.9-.1.8-2.8 3.9-4.3-2.5c-.4-.3-.7-.7-.7-1.2v-22c0-1.2.6-2.2 1.6-2.7z" fill="#f94848"/><path d="M88.2 11.9l18.5-10.7c.6-.4 1.5-.2 1.8.5.1.2.2.4.2.7v22.1c0 1.1-.6 2.1-1.5 2.6L88.7 37.8c-.7.4-1.5.2-1.9-.5-.1-.2-.2-.4-.2-.7v-22c.1-1.1.7-2.2 1.6-2.7z" fill="#f70000"/><path d="M87.4 37.8h0z" fill="#bbcee1"/><path d="M86.7 36.6v-22c0-.4.1-.7.2-1.1L82.6 11c-.1.3-.2.7-.2 1v22c0 .5.2.9.7 1.2h0l4.3 2.5c-.5-.1-.7-.6-.7-1.1z" fill="#c40000"/><path d="M92.1 26.2c.3-.2.6-.4.8-.7.3-.3.6-.6.8-.9l.5 1.2a10.04 10.04 0 0 1-2.2 1.9c-.6.4-1.2.6-1.9.5-.5 0-1-.4-1.2-.8-.3-.7-.5-1.4-.4-2.1a8.49 8.49 0 0 1 .9-3.8c.6-1.1 1.4-2 2.5-2.6.6-.4 1.3-.6 2.1-.7v1.5c-.7.1-1.3.3-1.9.6-1.3.7-1.9 2-1.9 4-.1.7.1 1.3.5 1.9.4.3.8.3 1.4 0zm12.2-12.9l1.1-.6V15l2-1.1v1.3l-2 1.1v2.3l-1.1.6v-2.3l-2 1.1v-1.3l2-1.1v-2.3zm-6.2 5.9v-2.3l1.1-.6v2.3l2-1.1v1.3l-2 1.1v2.3l-1.1.6v-2.3l-2 1.1v-1.3l2-1.1z" fill="#fff"/><g transform="matrix(.966 -.259 .259 .966 -61.278 -85.429)" opacity=".2" fill="#fff"><use xlink:href="#C"/><use xlink:href="#B"/></g></g></svg>