<svg xmlns="http://www.w3.org/2000/svg" xmlns:xlink="http://www.w3.org/1999/xlink" viewBox="704 -284 1920 1080"><style><![CDATA[.g{fill:#edf0f8}.h{fill:#fff}.i{fill:#ebf2eb}.j{fill:#bbcee1}.k{fill:#0f4463}.l{fill:#0b3b56}.m{fill:#07304b}.n{fill:#ed5561}.o{fill:#a7bcce}.p{opacity:.2}.q{fill:#1f5e77}.r{fill:#f5d012}]]></style><defs><path id="A" d="M704-284h1920V796H704z"/><path id="B" d="M1422.74 144.03l5.6-3.2c.2-.1.4 0 .6.1 0 .1.1.1.1.2v6.7c0 .3-.2.6-.5.8l-5.6 3.2c-.2.1-.5 0-.6-.2 0-.1-.1-.1-.1-.2v-6.7c0-.2.2-.5.5-.7z"/><path id="C" d="M1159.42 187v4.1l-17 9.8v-4l17-9.9z"/><path id="D" d="M1159.42 194.4v4.1l-17 9.8v-4.1l17-9.8z"/><path id="E" d="M1585.8-102.67v3.8l-15.8 9.1v-3.8l15.8-9.1z"/><path id="F" d="M1503.036 432.848l-9.7-5.6-11.1 6.4 9.7 5.6 11.1-6.4z"/><path id="G" d="M1327.736 522.548l-11.1 6.4 9.7 5.6 11.1-6.4-9.7-5.6z"/><path id="H" d="M1504.536 446.548l11.1-6.4-9.7-5.6-11.1 6.4 9.7 5.6z"/><path id="I" d="M1481.036 448.848l9.7 5.6 11.1-6.4-9.7-5.6-11.1 6.4z"/><path id="J" d="M1439.25 26v8.4l-35.2 20.2v-8.4l35.2-20.2z"/><path id="K" d="M1439.25 71.8v8.4l-35.2 20.3v-8.4l35.2-20.3z"/><path id="L" d="M1158.835 187.855v2.3l-9.7 5.6v-2.3l9.7-5.6z"/><path id="M" d="M1085.735 244.955v-2.3l59.8-34.5v2.3l-59.8 34.5z"/><path id="N" d="M1107.835 271.965l37.7-21.7v2.3l-37.7 21.7v-2.3z"/><path id="O" d="M1105.835 273.165v2.3l-20.1 11.6v-2.3l20.1-11.6z"/><path id="P" d="M1126.535 256.956l18.9-10.9v2.3l-18.9 10.9v-2.3z"/><path id="Q" d="M1124.535 258.156v2.3l-38.8 22.4v-2.3l38.8-22.4z"/><path id="R" d="M1090.835 264.955v2.3l-5.1 2.9v-2.3l5.1-2.9z"/><path id="S" d="M1118.635 244.655l26.8-15.5v2.3l-26.8 15.5v-2.3z"/><path id="T" d="M1129.635 204.655l15.8-9.1v2.3l-15.8 9.1v-2.3z"/><path id="U" d="M1103.663 219.62l24-13.8v2.3l-24 13.8v-2.3z"/><path id="V" d="M1117.635 215.855l16.9-9.7v2.3l-16.9 9.7v-2.3z"/><path id="W" d="M1099.935 226.05l15.7-9.1v2.3l-15.7 9.1v-2.3z"/><path id="X" d="M1097.935 227.15v2.3l-12.2 7v-2.3l12.2-7z"/><path id="Y" d="M1142.335 205.755v2.3l-12.7 7.3v-2.3l12.7-7.3z"/><path id="Z" d="M1090.735 235.555l36.9-21.3v2.3l-36.9 21.3v-2.3z"/><path id="a" d="M1111.835 235.955l24.1-13.9v2.3l-24.1 13.9v-2.3z"/><path id="b" d="M1090.735 248.155l19.2-11.1v2.3l-19.2 11.1v-2.3z"/><path id="c" d="M1105.835 256.255v2.3l-13 7.5v-2.3l13-7.5z"/><path id="d" d="M1140.835 236.155l4.7-2.7v2.3l-4.7 2.7v-2.3z"/><path id="e" d="M1132.09 241.166v2.3l-24.3 14v-2.3l24.3-14z"/><path id="f" d="M1134.09 239.966l4.8-2.8v2.3l-4.8 2.8v-2.3z"/><path id="g" d="M1112.235 256.755l26.5-15.3v2.3l-26.5 15.3v-2.3z"/><path id="h" d="M1092.83 330.787l23.8-13.7v2.3l-23.8 13.7v-2.3z"/><path id="i" d="M1461.745 13.025l11.6-6.7c.4-.2.9-.1 1.2.3.1.1.1.3.1.4v13.9c0 .7-.4 1.3-.9 1.6l-11.6 6.7c-.4.2-.9.1-1.2-.3-.1-.1-.1-.3-.1-.4v-13.8c-.1-.7.3-1.4.9-1.7z"/><path id="j" d="M1461.745 33.725l11.6-6.7c.4-.2.9-.1 1.2.3.1.1.1.3.1.4v13.9c0 .7-.4 1.3-.9 1.6l-11.6 6.7c-.4.2-.9.1-1.2-.3-.1-.1-.1-.3-.1-.4v-13.8c-.1-.7.3-1.3.9-1.7z"/><path id="k" d="M1461.745 75.225l11.6-6.7c.4-.2.9-.1 1.2.3.1.1.1.3.1.4v13.9c0 .7-.4 1.3-.9 1.6l-11.6 6.7c-.4.2-1 .1-1.2-.3-.1-.1-.1-.3-.1-.4v-13.8c-.1-.7.3-1.4.9-1.7z"/><path id="l" d="M1461.745 95.925l11.6-6.7c.4-.2.9-.1 1.2.3.1.1.1.3.1.4v13.9c0 .7-.4 1.3-.9 1.6l-11.6 6.7c-.4.2-1 .1-1.2-.3-.1-.1-.1-.3-.1-.4v-13.8c-.1-.7.3-1.3.9-1.7z"/><path id="m" d="M2645.04 2138.85l-7.6-4.4-8.6 5 7.5 4.4 8.7-5z"/><path id="n" d="M2508.74 2208.55l-8.6 5 7.5 4.4 8.6-4.9-7.5-4.5z"/><path id="o" d="M2646.24 2149.45l8.6-4.9-7.6-4.4-8.6 5 7.6 4.3z"/><path id="p" d="M2627.94 2151.25l7.5 4.4 8.6-4.9-7.6-4.4-8.5 4.9z"/><path id="q" d="M2595.49 1822.507v6.5l-27.3 15.8v-6.5l27.3-15.8z"/><path id="r" d="M2377.43 1948.336v1.8l-7.5 4.3v-1.8l7.5-4.3z"/><path id="s" d="M2320.63 1992.736v-1.8l46.5-26.8v1.8l-46.5 26.8z"/><path id="t" d="M2337.83 2013.756l29.3-16.9v1.8l-29.3 16.9v-1.8z"/><path id="u" d="M2336.23 2014.656v1.8l-15.6 9v-1.8l15.6-9z"/><path id="v" d="M2352.33 2002.084l14.7-8.5v1.8l-14.7 8.5v-1.8z"/><path id="w" d="M2350.83 2002.984v1.8l-30.2 17.4v-1.8l30.2-17.4z"/><path id="x" d="M2324.63 2008.236v1.8l-4 2.3v-1.8l4-2.3z"/><path id="y" d="M2346.23 1992.536l20.9-12v1.8l-20.9 12v-1.8z"/><path id="z" d="M2354.73 1961.436l12.3-7.1v1.8l-12.3 7.1v-1.8z"/><path id="AA" d="M2334.57 1973.104l18.6-10.8v1.8l-18.6 10.8v-1.8z"/><path id="AB" d="M2345.43 1970.036l13.1-7.6v1.8l-13.1 7.6v-1.8z"/><path id="AC" d="M2331.63 1978.055l12.2-7.1v1.8l-12.2 7.1v-1.8z"/><path id="AD" d="M2330.13 1978.955v1.8l-9.5 5.5v-1.8l9.5-5.5z"/><path id="AE" d="M2364.63 1962.236v1.8l-9.9 5.7v-1.8l9.9-5.7z"/><path id="AF" d="M2324.53 1985.436l28.7-16.6v1.8l-28.7 16.6v-1.8z"/><path id="AG" d="M2340.93 1985.736l18.8-10.8v1.8l-18.8 10.8v-1.8z"/><path id="AH" d="M2324.53 1995.236l14.9-8.6v1.8l-14.9 8.6v-1.8z"/><path id="AI" d="M2326.147 2004.122l18.5-10.7v1.8l-18.5 10.7v-1.8z"/><path id="AJ" d="M2336.23 2001.536v1.8l-10.1 5.8v-1.8l10.1-5.8z"/><path id="AK" d="M2363.43 1985.836l3.6-2.1v1.8l-3.6 2.1v-1.8z"/><path id="AL" d="M2356.678 1989.75v1.8l-18.9 10.9v-1.8l18.9-10.9z"/><path id="AM" d="M2358.178 1988.85l3.7-2.1v1.8l-3.7 2.1v-1.8z"/><path id="AN" d="M2341.23 2001.936l20.6-11.9v1.8l-20.6 11.9v-1.8z"/><path id="AO" d="M2612.98 1812.426l9-5.2c.3-.2.7-.1.9.2.1.1.1.2.1.3v10.8c0 .5-.3 1-.7 1.3l-9 5.2c-.3.2-.7.1-.9-.2-.1-.1-.1-.2-.1-.3v-10.7c-.1-.6.2-1.1.7-1.4z"/><path id="AP" d="M2612.98 1860.726l9-5.2c.3-.2.7-.1.9.2.1.1.1.2.1.3v10.8c0 .5-.3 1-.7 1.3l-9 5.2c-.3.2-.7.1-.9-.3-.1-.1-.1-.2-.1-.3v-10.7c-.1-.5.2-1 .7-1.3z"/><path id="AQ" d="M2612.98 1876.926l9-5.2c.3-.2.7-.1.9.2.1.1.1.2.1.3v10.8c0 .5-.3 1-.7 1.3l-9 5.2c-.3.2-.7.1-.9-.3-.1-.1-.1-.2-.1-.3v-10.7c-.1-.6.2-1.1.7-1.3z"/><path id="AR" d="M827.7-309.3v-31.8l-23.2-3.9c-1.8-7-4.6-13.7-8.3-19.9l13.7-19.2-22.5-22.5-19.2 13.7c-6.2-3.7-12.9-6.5-19.9-8.3l-3.9-23.2h-31.8l-3.9 23.2c-7 1.8-13.7 4.6-19.9 8.3l-19.2-13.7-22.2 22.6 13.7 19.2c-3.7 6.2-6.5 12.9-8.3 19.9l-23.2 3.9v31.8l23.2 3.9c1.8 7 4.6 13.7 8.3 19.9l-13.7 19.2 22.5 22.5 19.2-13.7c6.2 3.7 12.9 6.5 19.9 8.3l3.9 23.2h31.8l3.9-23.2c7-1.8 13.7-4.6 19.9-8.3l19.2 13.7 22.5-22.5-13.7-19.2c3.7-6.2 6.5-12.9 8.3-19.9l22.9-4zm-30.6-.7c-1.8 7.9-4.9 15.5-9.3 22.4l-1.5 2.4 12.8 18-12.6 12.6-18-12.8-2.3 1.5c-6.9 4.4-14.4 7.5-22.4 9.3l-2.7.6-3.6 21.7h-17.8l-3.6-21.7-2.7-.6c-7.9-1.8-15.5-4.9-22.4-9.3l-2.3-1.5-18 12.8-12.6-12.6 12.8-18-1.5-2.4c-4.4-6.9-7.5-14.4-9.3-22.4l-.6-2.7-21.7-3.6v-17.8l21.7-3.6.6-2.7c1.8-7.9 4.9-15.5 9.3-22.4l1.5-2.4-12.8-18 12.6-12.6 18 12.8 2.3-1.5c6.9-4.4 14.4-7.5 22.4-9.3l2.7-.6 3.6-21.7h17.8l3.6 21.7 2.7.6c7.9 1.8 15.5 4.9 22.4 9.3l2.3 1.5 18-12.8 12.6 12.6-12.8 18 1.5 2.4c4.4 6.9 7.5 14.4 9.3 22.4l.6 2.7 21.7 3.6v17.8l-21.7 3.6-.6 2.7z"/><path id="AS" d="M728.7-366.5c-22.8 0-41.3 18.5-41.3 41.3s18.5 41.3 41.3 41.3 41.3-18.5 41.3-41.3c-.1-22.8-18.5-41.3-41.3-41.3zm0 74.3c-18.2 0-33-14.8-33-33s14.8-33 33-33 33 14.8 33 33-14.8 33-33 33z"/></defs><clipPath id="AT"><use xlink:href="#A"/></clipPath><g clip-path="url(#AT)"><g transform="translate(-295.76 -249.98)"><linearGradient id="AU" gradientUnits="userSpaceOnUse" x1="1650.687" y1="-310.063" x2="606.226" y2="1103.764"><stop offset="0" stop-color="#2ba6f8"/><stop offset="1" stop-color="#090909"/><stop offset="1"/></linearGradient><path d="M2228.8-160s-279 6.1-623.6-104.3 1.1 276.3 144.9 361.1c90.8 45.5 117.6 133.9 111.6 216.2-7.9 108-166.2 112-298.9 180.6-320.5 165.8 41.6 27.7 163.7 107S1774.1 739 1605.2 733c-364.8-13.1-243.8 110.3-182.9 166.2s50.5 183.7-236.7 97.3-179.2 122.2-179.2 122.2H704V-159.9l1524.8-.1z" fill="url(#AU)"/><linearGradient id="AV" gradientUnits="userSpaceOnUse" x1="1209.952" y1="206.129" x2="634.521" y2="676.685"><stop offset="0" stop-color="#2ba6f8"/><stop offset="1"/></linearGradient><path d="M1042.7-160s412.6-21.5 486 249.6c80 295.4-175.9 434.3-262.8 366.5-86.8-67.8-90.8-160 44.4-220.8s121.6-248.3-174-201.5-329.7 422.8-115.6 512.8 161.9 195.9-68.4 308.5-104.4 263.5-104.4 263.5H704V-159.9l338.7-.1z" fill="url(#AV)"/></g><path d="M1400.16 95.95h0z" class="j"/><g opacity=".4" class="h"><path d="M1457.34 141.35v4.1l-35.3 20.3v-4.1l35.3-20.3zm32.9-26.4v4.1l-68.2 39.3v-4.1l68.2-39.3zm-59.2 12.03v4.1l-9 5.2v-4.1l9-5.2zm15.9-68.373l27.6-15.9v4l-27.6 16v-4.1zm-3.5 2v4l-21.4 12.4v-4.1l21.4-12.3zm-12.7 36.873l33.7-19.4v4.1l-33.7 19.4v-4.1zm3.766 20.02l41.9-24.1v4l-41.9 24.2v-4.1zm22.834-5.72v4.1l-22.8 13.2v-4.1l22.8-13.2z"/></g><path d="M1267.08 96.82l52.7-30.4c1.8-1.1 4.2-.4 5.3 1.4.3.6.5 1.3.5 1.9v63.1c0 3.1-1.6 5.9-4.3 7.4l-52.7 30.5c-1.9 1.1-4.3.4-5.4-1.5-.3-.6-.5-1.3-.5-2v-62.8c0-3.1 1.7-6 4.4-7.6h0z" enable-background="new" class="h p"/><g class="j"><path d="M937.056 344.74l.1.1c0-.1-.1-.1-.1-.1zm151.984-165.26h0zm151.3-161.38l.1.1c0-.1-.1-.1-.1-.1z"/></g><g class="i"><use xlink:href="#B"/><path d="M1422.74 154.03l5.6-3.2c.2-.1.4 0 .6.1 0 .1.1.1.1.2v6.7c0 .3-.2.6-.5.8l-5.6 3.2c-.2.1-.5 0-.6-.2 0-.1-.1-.1-.1-.2v-6.7c0-.2.2-.5.5-.7zm0 10.1l5.6-3.2c.2-.1.4 0 .6.1 0 .1.1.1.1.2v6.7c0 .3-.2.6-.5.8l-5.6 3.2c-.2.1-.5 0-.6-.2 0-.1-.1-.1-.1-.2v-6.7c0-.3.2-.6.5-.7zm0 10l5.6-3.2c.2-.1.4 0 .6.2 0 .1.1.1.1.2v6.7c0 .3-.2.6-.5.8l-5.6 3.2c-.2.1-.5 0-.6-.2 0-.1-.1-.1-.1-.2v-6.7c0-.3.2-.6.5-.8z"/></g><g opacity=".4" class="h"><path d="M1159.42 179.6v4l-17 9.8v-4.1l17-9.7z"/><use xlink:href="#C"/><use xlink:href="#D"/><path d="M1159.42 201.8v4.1l-17 9.8v-4.1l17-9.8zm0 7.4v4.1l-17 9.8V219l17-9.8zm0 22.2v4.1l-17 9.8v-4.1l17-9.8zm0 7.4v4.1l-17 9.8v-4l17-9.9zm0 29.6v4.1l-17 9.8v-4l17-9.9zm0 7.4v4l-17 9.8v-4.1l17-9.7zm-89.6 51.67l66.2-38.2v4l-66.2 38.2v-4zm32.9-26.4l33.3-19.2v4l-33.3 19.2v-4zm-13.9-21.57l47.2-27.2v4.1l-47.2 27.2v-4.1zm19.4-70.3l27.8-16.1v4l-27.8 16.1v-4zm-45.696 26.27l42.2-24.3v4l-42.2 24.4v-4.1zm24.596-6.77l29.7-17.1v4.1l-29.7 17.1v-4.1zm-31.2 18.026l27.6-15.9v4l-27.6 15.9v-4zm74.6-35.726v4.1l-22.4 12.9v-4.1l22.4-12.9zm-53.6 53.2l42.4-24.5v4.1l-42.4 24.5v-4.1zm50.9.2l8.2-4.7v4l-8.2 4.7v-4zm-15.443 8.828v4l-42.6 24.7v-4l42.6-24.7zm3.5-2l8.4-4.8v4.1l-8.4 4.8v-4.1zM1077.72 300.7l46.6-26.9v4l-46.6 26.9v-4z"/></g><path d="M1555.43 127.9l64.8-37.4c2-1.2 4.6-1.1 6.5.3h0l14.2 8.2-6.6 9-2.5 2.8V175c0 3.8-2 7.4-5.3 9.3l-48.5 28-.5 2.7-9.9 13.9-15.2-8.9h-.1l-.1-.1c-1.4-.9-2.3-2.5-2.3-4.2v-78.1c0-4.1 2.1-7.7 5.5-9.7z" fill="#00dd05"/><path d="M1570.63 136.8l65.6-37.8c2.3-1.3 5.2-.5 6.6 1.8.4.7.6 1.6.6 2.4v78.5c0 3.8-2 7.4-5.3 9.3l-65.5 37.9c-2.4 1.4-5.4.6-6.7-1.8-.4-.7-.7-1.6-.7-2.5v-78.1c-.2-4.1 2-7.7 5.4-9.7z" fill="#00a508"/><path d="M1565.03 224.54v-78.1c0-1.3.3-2.6.7-3.8l-15.2-8.8c-.4 1.2-.7 2.4-.7 3.6v78.1c0 1.7.9 3.3 2.3 4.2h0l.1.1h.1l15.1 8.9c-1.4-.9-2.4-2.5-2.4-4.2z" fill="#006602"/><g class="h"><path d="M1621.877 131.872c.7.7 1.1 2.2 1.1 4.3v9.6c0 1.8.6 2.7 1.7 2.9 1.1.1 2.8-.4 4.9-1.6v6.5c-1.9 1-3.5 2.4-4.9 4-1.1 1.5-1.7 3.3-1.7 5.1v9.3c.1 1.9-.3 3.8-1 5.5-.8 1.7-1.9 3.2-3.3 4.5-1.9 1.7-4.1 3.2-6.3 4.5v-6.2c1.4-.8 2.6-1.8 3.5-3.2.6-1.1 1-2.4.9-3.7v-9.3c0-3.5 1.9-6.8 5.9-9.7v-.3c-3.9 1.6-5.8.5-5.9-3.3v-8.9c0-1.4-.3-2.3-1-2.6s-1.8 0-3.5.9v-6.2c2-1.2 4.1-2.2 6.3-2.8 1.5-.3 2.6-.1 3.3.7zm-36.6 39.5c1.1-1.4 1.7-3.1 1.7-4.8v-9.6c-.1-2.8.8-5.5 2.4-7.8 1.6-2.2 4.4-4.4 8.4-6.7v6.2c-1.4.8-2.6 1.8-3.5 3.1-.6 1.1-1 2.4-.9 3.7v8.9c-.1 3.8-2 7.2-5.9 10.1v.3c1.9-.8 3.4-.9 4.4-.4s1.5 1.6 1.5 3.4v9.2c0 1.4.3 2.3.9 2.6s1.8 0 3.5-1v6.2c-4 2.3-6.7 3.3-8.4 3-1.6-.3-2.4-2-2.4-5v-9.3c0-1.9-.6-3-1.7-3.1-1.1-.2-2.7.4-4.9 1.6v-6.5c1.9-1.1 3.5-2.5 4.9-4.1z"/></g><path d="M1554.97-3.8l62.7-36.2c2-1.1 4.4-1 6.3.2h0l13.8 7.9-6.4 8.7-2.4 2.7v62.1c0 3.7-2 7.1-5.2 9l-46.9 27.1-.5 2.6-9.6 13.4-14.7-8.7h-.1l-.1-.1c-1.4-.9-2.3-2.4-2.2-4V5.3c0-3.7 2-7.2 5.3-9.1z" fill="#ffc73b"/><path d="M1569.67 4.8l63.4-36.6c2.2-1.3 5.1-.5 6.3 1.7.4.7.6 1.5.6 2.3v75.9c0 3.7-2 7.1-5.2 9l-63.4 36.7c-2.3 1.3-5.2.5-6.5-1.7-.4-.7-.6-1.5-.6-2.4V14.1c.1-3.9 2.1-7.4 5.4-9.3z" fill="#f9b800"/><path d="M1566.77 93.808h0z" class="j"/><path d="M1564.37 89.608v-75.6c0-1.2.3-2.5.7-3.6l-14.7-8.5c-.4 1.1-.6 2.3-.7 3.5v75.6c0 1.6.8 3.2 2.2 4h0l.1.1h.1l14.6 8.6c-1.4-.8-2.4-2.4-2.3-4.1z" fill="#ce8900"/><g class="h"><path d="M1631.972 17.13l-19.6 21.3v-5.4l13.5-14.2-13.6.6v-5.5l19.7-.1v3.3zm-21.6 27.1l-5.5 3.2-10.9-27.1 5.5-3.2 10.9 27.1zm-18.3-18.6v5.5l-13.6 15.1 13.6-1.4v5.4l-19.7 1.4v-3.3l19.7-22.7z"/><use xlink:href="#E"/><path d="M1585.8-95.77v3.8l-15.8 9.1v-3.8l15.8-9.1zm0 6.9v3.8l-15.8 9.1v-3.8l15.8-9.1zm0 6.9v3.8l-15.8 9.1v-3.8l15.8-9.1zm0 6.9v3.8l-15.8 9.1v-3.8l15.8-9.1zm0 20.6v3.8l-15.8 9.1v-3.8l15.8-9.1z"/></g><path d="M1551.603-140.07l64.3-37.1c2-1.2 4.5-1.1 6.4.3h0l14.1 8.2-6.6 8.9-2.4 2.8v63.7c0 3.8-2 7.3-5.3 9.2l-48.1 27.8-.5 2.7-9.8 13.8-15.1-8.9h-.1l-.1-.1c-1.4-.9-2.3-2.5-2.3-4.1v-77.6c0-4 2.1-7.6 5.5-9.6z" fill="#f94848"/><path d="M1566.603-131.17l65.1-37.6a4.76 4.76 0 0 1 6.5 1.8c.4.7.6 1.5.6 2.4v77.9c0 3.8-2 7.3-5.3 9.2l-65.1 37.6c-2.3 1.3-5.3.6-6.7-1.8-.4-.7-.7-1.6-.7-2.4v-77.6c.1-4 2.2-7.6 5.6-9.5h0z" fill="#f70000"/><path d="M1563.603-39.95h0c.1.1 0 .1 0 0h0z" class="j"/><path d="M1561.103-44.15v-77.6c0-1.3.3-2.5.7-3.7l-15.1-8.7c-.4 1.2-.7 2.4-.7 3.6v77.6c0 1.7.9 3.3 2.3 4.1h0l.1.1h.1l15 8.8c-1.4-.8-2.4-2.4-2.4-4.2z" fill="#c40000"/><g class="h"><path d="M1580.265-80.747c1.1-.6 2.1-1.4 2.9-2.3l3-3.1 1.8 4.2c-2.2 2.6-4.8 4.8-7.7 6.6-2.5 1.5-4.7 2.1-6.6 1.9s-3.5-1.3-4.3-3c-1.1-2.3-1.6-4.9-1.5-7.4-.1-4.6.9-9.2 3-13.3 2-3.8 5.1-7 8.8-9.1a17.32 17.32 0 0 1 7.3-2.6v5.4c-2.4.4-4.6 1.1-6.7 2.3-4.4 2.5-6.6 7.2-6.6 14 0 3.3.6 5.4 1.8 6.6 1.1 1 2.7 1 4.8-.2zm43-45.6l3.9-2.3v8.1l7-4v4.5l-7 4v8l-3.9 2.3v-8l-7 4v-4.5l7-4v-8.1zm-22 20.9v-8.1l4-2.3v8.1l7-4v4.5l-7 4v8l-4 2.3v-8l-7 4v-4.5l7-4z"/></g><path d="M1579.84 465.28l-77.7-45c-3.7-2.1-8.2-2.1-11.8 0l-240.1 138.8c-2.5 1.4-3.3 4.6-1.9 7.1a5.75 5.75 0 0 0 1.9 1.9l75.8 43.9c4.3 2.5 9.7 2.5 14 0l239.8-138.6c2.2-1.3 3-4.1 1.7-6.4a4.62 4.62 0 0 0-1.7-1.7h0z" class="k"/><path d="M1579.84 473.28l-239.7 138.7c-4.3 2.5-9.7 2.5-14 0l-75.8-43.9c-1.6-.9-2.6-2.6-2.6-4.5v9.3c0 1.8 1 3.5 2.6 4.4l75.8 43.9c4.3 2.5 9.7 2.5 14 0l239.7-138.7c1.5-.8 2.3-2.4 2.3-4.1h0v-9.2c0 1.8-.9 3.3-2.3 4.1z" class="l"/><g class="q"><use xlink:href="#F"/><path d="M1489.236 440.848l-9.7-5.6-11.1 6.4 9.7 5.6 11.1-6.4zm-13.8 7.9l-9.7-5.6-11.1 6.4 9.7 5.6 11.1-6.4zm-13.8 8l-9.7-5.6-11.1 6.4 9.7 5.6 11.1-6.4zm-13.8 7.9l-9.7-5.6-11.1 6.4 9.7 5.6 11.1-6.4zm-13.8 8l-9.7-5.6-11.1 6.4 9.7 5.6 11.1-6.4zm-13.8 7.9l-9.7-5.6-11.1 6.4 9.7 5.6 11.1-6.4zm-13.8 7.9l-9.7-5.6-11.1 6.4 9.7 5.6 11.1-6.4zm-13.8 8l-9.7-5.6-11.1 6.4 9.7 5.6 11.1-6.4zm-13.8 7.9l-9.7-5.6-11.1 6.4 9.7 5.6 11.1-6.4zm-13.8 8l-9.7-5.6-11.1 6.4 9.7 5.6 11.1-6.4zm-13.8 7.9l-9.7-5.6-11.1 6.4 9.7 5.6 11.1-6.4z"/><use xlink:href="#G"/><use xlink:href="#H"/><use xlink:href="#I"/><path d="M1467.236 456.848l9.7 5.6 11.1-6.4-9.7-5.6-11.1 6.4zm-13.8 7.9l9.7 5.6 11.1-6.4-9.7-5.6-11.1 6.4zm-13.8 7.9l9.7 5.6 11.1-6.4-9.7-5.6-11.1 6.4zm-13.8 8l9.7 5.6 11.1-6.4-9.7-5.6-11.1 6.4zm-13.8 7.9l9.7 5.6 11.1-6.4-9.7-5.6-11.1 6.4zm-13.8 8l9.7 5.6 11.1-6.4-9.7-5.6-11.1 6.4zm-13.8 7.9l9.7 5.6 11.1-6.4-9.7-5.6-11.1 6.4zm-13.8 7.9l9.7 5.6 11.1-6.4-9.7-5.6-11.1 6.4zm-13.8 8l9.7 5.6 11.1-6.4-9.7-5.6-11.1 6.4zm-13.8 7.9l9.7 5.6 11.1-6.4-9.7-5.6-11.1 6.4zm-2.7 1.6l-11.1 6.4 9.7 5.6 11.1-6.4-9.7-5.6zm176.8-76l11.1-6.4-9.7-5.6-11.1 6.4 9.7 5.6zm-23.5 2.3l9.7 5.6 11.1-6.4-9.7-5.6-11.1 6.4zm7 7.2l-9.7-5.6-11.1 6.4 9.7 5.6 11.1-6.4zm-34.6 8.7l9.7 5.6 11.1-6.4-9.7-5.6-11.1 6.4zm-13.8 7.9l9.7 5.6 11.1-6.4-9.7-5.6-11.1 6.4zm-13.8 8l9.7 5.6 11.1-6.4-9.7-5.6-11.1 6.4zm-13.8 7.9l9.7 5.6 11.1-6.4-9.7-5.6-11.1 6.4zm-13.8 8l9.7 5.6 11.1-6.4-9.7-5.6-11.1 6.4zm-13.8 7.9l9.7 5.6 11.1-6.4-9.7-5.6-11.1 6.4zm-13.8 8l9.7 5.6 11.1-6.4-9.7-5.6-11.1 6.4zm-13.8 7.9l9.7 5.6 11.1-6.4-9.7-5.6-11.1 6.4zm7 7.2l-9.8-5.6-11.1 6.4 9.7 5.6 11.2-6.4zm-23.5 2.3l-11.1 6.4 9.7 5.6 11.1-6.4-9.7-5.6zm176.8-76l11.1-6.4-9.7-5.6-11.1 6.4 9.7 5.6zm-2.7 1.6l-9.7-5.6-11.1 6.4 9.7 5.6 11.1-6.4zm-13.8 7.9l-9.7-5.6-11.1 6.4 9.7 5.6 11.1-6.4zm-13.8 8l-9.7-5.6-11.1 6.4 9.7 5.6 11.1-6.4zm-13.8 7.9l-9.7-5.6-11.1 6.4 9.7 5.6 11.1-6.4zm-13.8 7.9l-9.7-5.6-11.1 6.4 9.7 5.6 11.1-6.4zm-13.8 8l-9.7-5.6-11.1 6.4 9.7 5.6 11.1-6.4zm-13.8 7.9l-9.7-5.6-11.1 6.4 9.7 5.6 11.1-6.4zm-13.8 8l-9.7-5.6-11.1 6.4 9.7 5.6 11.1-6.4zm-13.8 7.9l-9.7-5.6-11.1 6.4 9.7 5.6 11.1-6.4zm-13.8 7.9l-9.7-5.6-11.1 6.4 9.7 5.6 11.1-6.4zm-13.8 8l-9.7-5.6-11.1 6.4 9.7 5.6 11.1-6.4zm-23.6 2.3l-11.1 6.4 9.7 5.6 11.1-6.4-9.7-5.6zm176.9-76l11.1-6.4-9.7-5.6-11.1 6.4 9.7 5.6zm-2.8 1.6l-9.7-5.6-11.1 6.4 9.7 5.6 11.1-6.4zm-13.8 7.9l-9.7-5.6-11.1 6.4 9.7 5.6 11.1-6.4zm-13.7 7.9l-9.7-5.6-11.1 6.4 9.7 5.6 11.1-6.4zm-13.8 8l-9.7-5.6-11.1 6.4 9.7 5.6 11.1-6.4zm-13.8 7.9l-9.7-5.6-11.1 6.4 9.7 5.6 11.1-6.4zm-13.8 8l-9.7-5.6-11.1 6.4 9.7 5.6 11.1-6.4zm-13.8 7.9l-9.7-5.6-11.1 6.4 9.7 5.6 11.1-6.4zm-13.8 8l-9.7-5.6-11.1 6.4 9.7 5.6 11.1-6.4zm-13.8 7.9l-9.7-5.6-11.1 6.4 9.7 5.6 11.1-6.4zm-13.8 7.9l-9.7-5.6-11.1 6.4 9.7 5.6 11.1-6.4zm-13.8 8l-9.7-5.6-11.1 6.4 9.7 5.6 11.1-6.4zm-23.6 2.3l-11.1 6.4 9.7 5.6 11.1-6.4-9.7-5.6zm178.2-88l-11.1 6.4 9.7 5.6 11.1-6.4-9.7-5.6zm-24.8 14.3l9.7 5.6 11.1-6.4-9.7-5.6-11.1 6.4zm-13.9 7.9l9.7 5.6 11.1-6.4-9.7-5.6-11.1 6.4zm-13.7 8l9.7 5.6 11.1-6.4-9.7-5.6-11.1 6.4zm-13.8 7.9l9.7 5.6 11.1-6.4-9.7-5.6-11.1 6.4zm-13.8 8l9.7 5.6 11.1-6.4-9.7-5.6-11.1 6.4zm-2.8 1.5l-13.8 7.9-2.7 1.6-11.1 6.4-13.8 7.9-8.7 5-16.1 9.3 9.7 5.6 38.7-22.2 10.9-6.3 2.9-1.7 13.8-7.9-9.8-5.6zm-80 46.1l9.7 5.6 11.1-6.4-9.7-5.6-11.1 6.4zm-13.8 8l9.7 5.6 11.1-6.4-9.7-5.6-11.1 6.4zm-69.79-21.418l-9.7-5.6-11.1 6.4 9.7 5.6 11.1-6.4zm-13.8 8l-9.7-5.6-11.1 6.4 9.7 5.6 11.1-6.4zm-13.8 7.9l-9.7-5.6-11.1 6.4 9.7 5.6 11.1-6.4zm19.4-7.8l9.7 5.6 11.1-6.4-9.7-5.6-11.1 6.4zm-13.8 7.9l9.7 5.6 11.1-6.4-9.7-5.6-11.1 6.4zm-13.8 8l9.7 5.6 11.1-6.4-9.7-5.6-11.1 6.4zm40.2-8.6l9.7 5.6 11.1-6.4-9.7-5.6-11.1 6.4zm-13.8 7.9l9.7 5.6 11.1-6.4-9.7-5.6-11.1 6.4zm-13.8 8l9.7 5.6 11.1-6.4-9.7-5.6-11.1 6.4zm61-9.4l-9.7-5.6-11.1 6.4 9.7 5.6 11.1-6.4zm-13.8 8l-9.7-5.6-11.1 6.4 9.7 5.6 11.1-6.4zm-13.8 7.9l-9.7-5.6-11.1 6.4 9.7 5.6 11.1-6.4zm40.2-8.6l-9.7-5.6-11.1 6.4 9.7 5.6 11.1-6.4zm-13.8 8l-9.7-5.6-11.1 6.4 9.7 5.6 11.1-6.4zm-13.8 7.9l-9.7-5.6-11.1 6.4 9.7 5.6 11.1-6.4zm19.4-7.8l9.7 5.6 11.1-6.4-9.7-5.6-11.1 6.4zm-13.8 7.9l9.7 5.6 11.1-6.4-9.7-5.6-11.1 6.4zm69.177-198.6l-76.5-44.4c-3.2-1.9-7.2-1.9-10.5 0l-181.4 104.7c-2.2 1.3-3 4.1-1.7 6.3a4.62 4.62 0 0 0 1.7 1.7l74.8 43.4c3.8 2.2 8.6 2.2 12.5 0l181.1-104.5c2-1.1 2.7-3.7 1.5-5.6a4.63 4.63 0 0 0-1.5-1.6h0z"/></g><path d="M1407.424 397.84l-181.2 104.5a12.66 12.66 0 0 1-12.5 0l-74.8-43.4a4.58 4.58 0 0 1-2.3-4v9.4c0 1.6.9 3.1 2.3 3.9l74.8 43.4c3.8 2.2 8.6 2.2 12.5 0l181.1-104.6c1.3-.7 2.1-2.1 2.1-3.6h0v-9.3c0 1.6-.8 2.9-2 3.7z" class="m"/><path d="M1407.424 397.84l-181.2 104.5c-1.7 1-3.7 1.6-5.7 1.6v9.3c2-.1 4-.6 5.7-1.6l181.1-104.6c1.3-.7 2.1-2.1 2.1-3.6v-9.3c0 1.6-.8 2.9-2 3.7h0z" class="l"/><path d="M1209.04 397.67l141-81.6v69.9l-141 81.5v-69.8z" class="k"/><g class="m"><path d="M1330.44 304.77l19.6 11.3-141 81.6-19.7-11.3 141.1-81.6z"/><path d="M1189.34 386.37l19.7 11.3v69.8l-19.7-11.5v-69.6z"/></g><path d="M1492.58-39.46l-428.6 248.6v315.4l428.6-249.6v-314.4z" fill="#3a3a3a"/><path d="M1063.98 209.14l-14.3-8.7v315.4l14.3 8.7v-315.4z" class="m"/><path d="M1492.58-39.46l-14.6-8.5-428.3 248.4 14.3 8.7 428.6-248.6z" class="q"/><path d="M1063.88 209.04v315.4l428.6-249.6v-314.4l-428.6 248.6zm10.2 5.9l408.3-236.8v290.9l-408.3 237.8v-291.9z" class="l"/><use xlink:href="#J" class="r"/><g class="g"><path d="M1439.25 41.3v8.4l-35.2 20.2v-8.4l35.2-20.2zm0 15.3V65l-35.2 20.2v-8.4l35.2-20.2zm-265.2 176.5v-8.4l216.9-125.1v8.4l-216.9 125.1z"/><use xlink:href="#K"/><path d="M1439.25 87.1v8.4l-35.2 20.3v-8.4l35.2-20.3z"/></g><path d="M1174.05 248.4V240l216.9-125v8.4l-216.9 125z" class="i"/><path d="M1439.25 133v8.4l-35.2 20.2v-8.4l35.2-20.2z" class="g"/><path d="M1439.25 148.2v8.4l-35.2 20.3v-8.4l35.2-20.3z" class="r"/><g class="g"><path d="M1439.25 209.4v8.4l-35.2 20.2v-8.4l35.2-20.2zm0 15.2v8.4l-35.2 20.3v-8.4l35.2-20.3z"/></g><path d="M1254.05 331.4l136.8-78.9v8.4l-136.8 78.9v-8.4z" class="i"/><g class="g"><path d="M1246.85 335.6v8.4l-72.8 42v-8.4l72.8-42zm75.3-58.77l68.7-39.6v8.4l-68.7 39.6v-8.4zm-7.2 4.2v8.4l-140.9 81.2v-8.4l140.9-81.2zm-122.4 24.77v8.4l-18.5 10.6v-8.3l18.5-10.7z"/></g><path d="M1293.45 232.3l97.4-56.2v8.4l-97.4 56.2v-8.4z" class="n"/><g class="g"><path d="M1333.35 87l57.5-33.2v8.4l-57.5 33.2V87zm-94.234 54.413l87.1-50.2v8.4l-87.1 50.2v-8.4zm50.734-14.013l61.3-35.4v8.4l-61.3 35.4v-8.4z"/></g><path d="M1225.55 164.5l57.1-32.9v8.4l-57.1 32.9v-8.4z" class="n"/><path d="M1218.35 168.7v8.4l-44.3 25.5v-8.4l44.3-25.5z" class="g"/><path d="M1379.55 91v8.4l-46.2 26.6v-8.4l46.2-26.6z" class="n"/><g class="g"><path d="M1192.15 199.1l134.1-77.3v8.4l-134.1 77.3v-8.4zm76.7 1.6l87.6-50.5v8.4l-87.6 50.4v-8.3zm-76.7 44.2l69.5-40.1v8.4l-69.5 40.1v-8.4zm7.648 41.48l86.5-49.9v8.4l-86.5 49.8v-8.3z"/></g><path d="M1246.85 274.5v8.4l-47.1 27.1v-8.4l47.1-27.1z" fill="#50e85e"/><g class="g"><path d="M1373.95 201.2l17-9.8v8.4l-17 9.8v-8.4zm-31.754 18.33v8.4l-88.1 50.7v-8.4l88.1-50.7zm7.2-4.2l17.3-10v8.4l-17.3 10v-8.4zm-79.046 60.87l96.3-55.6v8.4l-96.3 55.6v-8.4z"/><use xlink:href="#L"/><path d="M1158.835 192.055v2.3l-9.7 5.6v-2.3l9.7-5.6zm0 4.2v2.3l-9.7 5.6v-2.3l9.7-5.6z"/><use xlink:href="#M"/><path d="M1158.835 200.455v2.3l-9.7 5.6v-2.3l9.7-5.6zm0 4.2v2.3l-9.7 5.6v-2.3l9.7-5.6zm-73.1 44.5v-2.3l59.8-34.5v2.3l-59.8 34.5zm73.1-31.8v2.3l-9.7 5.6v-2.3l9.7-5.6zm0 4.2v2.3l-9.7 5.6v-2.3l9.7-5.6zm0 16.8v2.3l-9.7 5.6v-2.3l9.7-5.6zm0 4.2v2.3l-9.7 5.6v-2.3l9.7-5.6z"/><use xlink:href="#N"/><use xlink:href="#O"/><use xlink:href="#P"/><use xlink:href="#Q"/><use xlink:href="#R"/><use xlink:href="#S"/><use xlink:href="#T"/><use xlink:href="#U"/><use xlink:href="#V"/><use xlink:href="#W"/><use xlink:href="#X"/><use xlink:href="#Y"/><use xlink:href="#Z"/><use xlink:href="#a"/><use xlink:href="#b"/><path d="M1092.83 259.547l23.8-13.7v2.3l-23.8 13.8v-2.4z"/><use xlink:href="#c"/><use xlink:href="#d"/><use xlink:href="#e"/><use xlink:href="#f"/><use xlink:href="#g"/><path d="M1158.835 259.095v2.3l-9.7 5.6v-2.3l9.7-5.6zm0 4.2v2.3l-9.7 5.6v-2.3l9.7-5.6zm0 4.2v2.3l-9.7 5.6v-2.3l9.7-5.6zm-73.1 48.7v-2.3l59.8-34.5v2.3l-59.8 34.5zm73.1-44.5v2.3l-9.7 5.6v-2.3l9.7-5.6zm0 4.2v2.3l-9.7 5.6v-2.3l9.7-5.6zm-73.1 44.5v-2.3l59.8-34.5v2.3l-59.8 34.5zm73.1-31.8v2.3l-9.7 5.6v-2.3l9.7-5.6zm0 4.2v2.3l-9.7 5.6v-2.3l9.7-5.6zm0 16.8v2.3l-9.7 5.6v-2.3l9.7-5.6zm0 4.2v2.3l-9.7 5.6v-2.3l9.7-5.6zm-51 29.41l37.7-21.7v2.3l-37.7 21.7v-2.3zm-2 1.2v2.3l-20.1 11.6v-2.3l20.1-11.6zm20.7-16.2l18.9-10.9v2.3l-18.9 10.9v-2.3zm-2 1.2v2.3l-38.8 22.4v-2.3l38.8-22.4zm-33.7 6.8v2.3l-5.1 2.9v-2.3l5.1-2.9zm27.8-20.2l26.8-15.5v2.3l-26.8 15.5v-2.3zm11-40.1l15.8-9.1v2.3l-15.8 9.1v-2.3zm-25.972 14.967l24-13.8v2.3l-24 13.8v-2.3zm13.972-3.867l16.9-9.7v2.3l-16.9 9.7v-2.3zm-17.7 10.305l15.7-9.1v2.3l-15.7 9.1v-2.3zm-2 1.1v2.3l-12.2 7v-2.3l12.2-7zm44.4-21.405v2.3l-12.7 7.3v-2.3l12.7-7.3zm-51.6 29.8l36.9-21.3v2.3l-36.9 21.3v-2.3zm21.1.4l24.1-13.9v2.3l-24.1 13.9v-2.3zm-21.1 12.2l19.2-11.1v2.3l-19.2 11.1v-2.3z"/><use xlink:href="#h"/><path d="M1105.835 327.595v2.3l-13 7.5v-2.3l13-7.5zm35-20.2l4.7-2.7v2.3l-4.7 2.7v-2.3zm-8.745 5.012v2.3l-24.3 14v-2.3l24.3-14zm2-1.1l4.8-2.8v2.3l-4.8 2.8v-2.3zm-21.855 16.688l26.5-15.3v2.3l-26.5 15.3v-2.3zm46.6 2.34v2.3l-9.7 5.6v-2.3l9.7-5.6zm0 4.2v2.3l-9.7 5.6v-2.3l9.7-5.6zm0 4.2v2.3l-9.7 5.6v-2.3l9.7-5.6zm-73.1 48.7v-2.3l59.8-34.5v2.3l-59.8 34.5zm73.1-44.5v2.3l-9.7 5.6v-2.3l9.7-5.6zm0 4.2v2.3l-9.7 5.6v-2.3l9.7-5.6zm-73.1 44.5v-2.3l59.8-34.5v2.3l-59.8 34.5zm73.1-31.8v2.3l-9.7 5.6v-2.3l9.7-5.6zm0 4.2v2.3l-9.7 5.6v-2.3l9.7-5.6zm0 16.8v2.3l-9.7 5.6v-2.3l9.7-5.6zm0 4.2v2.3l-9.7 5.6v-2.3l9.7-5.6zm-51 29.41l37.7-21.7v2.3l-37.7 21.7v-2.3zm-2 1.2v2.3l-20.1 11.6v-2.3l20.1-11.6zm20.7-16.2l18.9-10.9v2.3l-18.9 10.9v-2.3zm-2 1.2v2.3l-38.8 22.4v-2.3l38.8-22.4zm-33.7 6.8v2.3l-5.1 2.9v-2.3l5.1-2.9zm27.8-20.2l26.8-15.5v2.3l-26.8 15.5v-2.3zm11-40.1l15.8-9.1v2.3l-15.8 9.1v-2.3zm-25.972 14.967l24-13.8v2.3l-24 13.8v-2.3zm13.972-3.767l16.9-9.7v2.3l-16.9 9.7v-2.3zm-17.7 10.195l15.7-9.1v2.3l-15.7 9.1v-2.3zm-2 1.1v2.3l-12.2 7v-2.3l12.2-7zm44.4-21.395v2.3l-12.7 7.3v-2.3l12.7-7.3zm-51.6 29.8l36.9-21.3v2.3l-36.9 21.3v-2.3zm21.1.4l24.1-13.9v2.3l-24.1 13.9v-2.3zm-21.1 12.2l19.2-11.1v2.3l-19.2 11.1v-2.3zm2.095 11.392l23.8-13.7v2.3l-23.8 13.7v-2.3zm13.005-3.192v2.3l-13 7.5v-2.3l13-7.5zm35-20.2l4.7-2.7v2.3l-4.7 2.7v-2.3zm-8.745 5.01v2.3l-24.3 14v-2.3l24.3-14zm2-1.1l4.8-2.8v2.3l-4.8 2.8v-2.3zm-21.855 16.69l26.5-15.3v2.3l-26.5 15.3v-2.3zm46.6 2.33v2.3l-9.7 5.6v-2.3l9.7-5.6zm0 4.2v2.3l-9.7 5.6v-2.3l9.7-5.6zm0 4.2v2.3l-9.7 5.6v-2.3l9.7-5.6zm-73.1 48.7v-2.3l59.8-34.5v2.3l-59.8 34.5zm73.1-44.5v2.3l-9.7 5.6v-2.3l9.7-5.6zm0 4.2v2.3l-9.7 5.6v-2.3l9.7-5.6zm-73.1 44.5v-2.3l59.8-34.5v2.3l-59.8 34.5zm73.1-31.8v2.3l-9.7 5.6v-2.3l9.7-5.6zm0 4.2v2.3l-9.7 5.6v-2.3l9.7-5.6zm-68 43.4v2.3l-5.1 2.9v-2.3l5.1-2.9zm27.8-20.3l26.8-15.5v2.3l-26.8 15.5v-2.3zm11-40l15.8-9.1v2.3l-15.8 9.1v-2.3zm-25.972 14.965l24-13.8v2.3l-24 13.8v-2.3zm13.972-3.765l16.9-9.7v2.3l-16.9 9.7v-2.3zm-17.7 10.195l15.7-9.1v2.3l-15.7 9.1v-2.3zm-2 1.1v2.3l-12.2 7v-2.3l12.2-7zm44.4-21.395v2.3l-12.7 7.3v-2.3l12.7-7.3zm-51.6 29.8l36.9-21.3v2.3l-36.9 21.3v-2.3zm21.1.4l24.1-13.9v2.3l-24.1 13.9v-2.3zm-21.1 12.2l19.2-11.1v2.3l-19.2 11.1v-2.3zm2.095 11.392l23.8-13.7v2.3l-23.8 13.7v-2.3zm13.005-3.192v2.3l-13 7.5v-2.3l13-7.5zm35-20.2l4.7-2.7v2.3l-4.7 2.7v-2.3zm-8.745 5.01v2.3l-24.3 14v-2.3l24.3-14zm2-1.2l4.8-2.8v2.3l-4.8 2.8v-2.3zm-21.855 16.79l26.5-15.3v2.3l-26.5 15.3v-2.3z"/></g><g class="i"><use xlink:href="#i"/><use xlink:href="#j"/><path d="M1461.745 54.525l11.6-6.7c.4-.2.9-.1 1.2.3.1.1.1.3.1.4v13.9c0 .7-.4 1.3-.9 1.6l-11.6 6.7c-.4.2-.9.1-1.2-.3-.1-.1-.1-.3-.1-.4v-13.8c-.1-.7.3-1.4.9-1.7z"/><use xlink:href="#k"/><use xlink:href="#l"/><path d="M1461.745 116.625l11.6-6.7c.4-.2.9-.1 1.2.3.1.1.1.3.1.4v13.9c0 .7-.4 1.3-.9 1.6l-11.6 6.7c-.4.2-.9.1-1.2-.3-.1-.1-.1-.3-.1-.4v-13.8c-.1-.7.3-1.3.9-1.7z"/><path d="M1461.745 137.425l11.6-6.7c.4-.2.9-.1 1.2.3.1.1.1.3.1.4v13.9c0 .7-.4 1.3-.9 1.6l-11.6 6.7c-.4.2-.9.1-1.2-.3-.1-.1-.1-.3-.1-.4v-13.8c-.1-.7.3-1.4.9-1.7z"/><path d="M1461.745 158.125l11.6-6.7c.4-.2.9-.1 1.2.3.1.1.1.3.1.4v13.9c0 .7-.4 1.3-.9 1.6l-11.6 6.7c-.4.2-.9.1-1.2-.3-.1-.1-.1-.3-.1-.4v-13.8c-.1-.7.3-1.3.9-1.7z"/><path d="M1461.745 178.825l11.6-6.7c.4-.2.9-.1 1.2.3.1.1.1.3.1.4v13.9c0 .7-.4 1.3-.9 1.6l-11.6 6.7c-.4.2-.9.1-1.2-.3-.1-.1-.1-.3-.1-.4v-13.8c-.1-.7.3-1.3.9-1.7z"/><path d="M1461.745 199.625l11.6-6.7c.4-.2.9-.1 1.2.3.1.1.1.3.1.4v13.9c0 .7-.4 1.3-.9 1.6l-11.6 6.7c-.4.2-1 .1-1.2-.3-.1-.1-.1-.3-.1-.4v-13.8c-.1-.7.3-1.4.9-1.7z"/><path d="M1461.745 220.325l11.6-6.7c.4-.2.9-.1 1.2.3.1.1.1.3.1.4v13.9c0 .7-.4 1.3-.9 1.6l-11.6 6.7c-.4.2-1 .1-1.2-.3-.1-.1-.1-.3-.1-.4v-13.8c-.1-.7.3-1.3.9-1.7z"/><path d="M1461.745 241.025l11.6-6.7c.4-.2.9-.1 1.2.3.1.1.1.3.1.4v13.9c0 .7-.4 1.3-.9 1.6l-11.6 6.7c-.4.2-.9.1-1.2-.3-.1-.1-.1-.3-.1-.4v-13.8c-.1-.7.3-1.3.9-1.7z"/></g><path d="M1613.78 355.04s19.8-8.8 43.1 6.6 39 37 29.5 45c-9.5 7.9-27.9 16.5-39.8 12.2s-71-39.1-32.8-63.8h0z" class="k"/><path d="M1177.743 591.33h17.2v18.6h-17.2a11.61 11.61 0 0 0-11.6 11.6v30.2a11.61 11.61 0 0 0 11.6 11.6h25.2v18.6h-25.2c-16.7 0-30.2-13.5-30.2-30.2v-30.2c0-16.7 13.5-30.2 30.2-30.2z" class="o"/><path d="M1184.143 581.13v104.6c0 16.2 24.2 29.3 54 29.3s54-13.1 54-29.3v-104.6h-108z" class="j"/><path d="M1292.143 581.03c0 16.2-24.2 29.3-54 29.3s-54-13.1-54-29.3 24.2-29.3 54-29.3 54 13.1 54 29.3z" class="h"/><path d="M1281.343 580.73c0 12.7-19.3 22.9-43.2 22.9s-43.2-10.3-43.2-22.9 19.4-22.9 43.2-22.9c23.9-.1 43.2 10.2 43.2 22.9z" class="o"/><path d="M1238.143 572.83c18.9 0 35 6.5 40.8 15.4-5.9 9-21.9 15.4-40.8 15.4s-34.9-6.5-40.8-15.4c5.9-9 21.9-15.4 40.8-15.4z" fill="#52281c"/><path d="M1217.743 608.23v104.6c-10.6-2.4-19.5-6.5-25.4-11.7v-104.6c6 5.2 14.8 9.3 25.4 11.7h0z" class="o"/><path d="M2704.8 2164l-60.4-35c-2.8-1.6-6.3-1.7-9.2 0l-186.7 108c-1.9 1.1-2.6 3.6-1.5 5.5.4.6.9 1.1 1.5 1.5l58.9 34.1a10.65 10.65 0 0 0 10.9 0l186.4-107.8c1.7-1 2.3-3.2 1.3-4.9-.2-.6-.7-1.1-1.2-1.4h0z" class="k"/><path d="M2704.8 2170.3l-186.4 107.8c-3.4 2-7.5 1.9-10.9 0l-59-34.1c-1.2-.7-2-2-2-3.5v7.2c0 1.4.8 2.7 2 3.4l58.9 34.1a10.65 10.65 0 0 0 10.9 0l186.4-107.8c1.1-.6 1.8-1.9 1.8-3.2h0v-7.1c.1 1.3-.6 2.5-1.7 3.2z" class="l"/><g class="q"><use xlink:href="#m"/><path d="M2634.34 2145.05l-7.6-4.4-8.6 5 7.5 4.4 8.7-5zm-10.8 6.1l-7.6-4.4-8.6 5 7.5 4.4 8.7-5zm-10.7 6.2l-7.6-4.4-8.6 5 7.5 4.4 8.7-5zm-10.7 6.2l-7.6-4.4-8.6 5 7.5 4.4 8.7-5zm-10.7 6.2l-7.6-4.4-8.6 5 7.5 4.4 8.7-5zm-10.8 6.1l-7.5-4.4-8.6 5 7.5 4.4 8.6-5zm-10.7 6.2l-7.6-4.4-8.6 5 7.5 4.4 8.7-5zm-10.7 6.2l-7.6-4.4-8.6 5 7.5 4.4 8.7-5zm-10.8 6.2l-7.6-4.4-8.6 5 7.5 4.4 8.7-5zm-10.7 6.1l-7.6-4.4-8.6 5 7.5 4.4 8.7-5zm-10.7 6.2l-7.6-4.4-8.6 5 7.5 4.4 8.7-5z"/><use xlink:href="#n"/><use xlink:href="#o"/><use xlink:href="#p"/><path d="M2617.24 2157.45l7.5 4.4 8.6-4.9-7.6-4.4-8.5 4.9zm-10.8 6.2l7.5 4.4 8.6-4.9-7.6-4.4-8.5 4.9zm-10.7 6.1l7.5 4.4 8.6-4.9-7.6-4.4-8.5 4.9zm-10.7 6.2l7.5 4.4 8.6-4.9-7.6-4.4-8.5 4.9zm-10.7 6.2l7.5 4.4 8.6-4.9-7.6-4.4-8.5 4.9zm-10.8 6.2l7.5 4.4 8.6-4.9-7.6-4.4-8.5 4.9zm-10.7 6.1l7.5 4.4 8.6-4.9-7.6-4.4-8.5 4.9zm-10.7 6.2l7.5 4.4 8.6-4.9-7.6-4.4-8.5 4.9zm-10.7 6.2l7.5 4.4 8.6-4.9-7.6-4.4-8.5 4.9zm-10.8 6.2l7.5 4.4 8.6-4.9-7.6-4.4-8.5 4.9zm-2.1 1.2l-8.6 5 7.5 4.4 8.6-4.9-7.5-4.5zm137.4-59.1l8.6-4.9-7.6-4.4-8.6 5 7.6 4.3zm-18.2 1.8l7.5 4.4 8.6-4.9-7.6-4.4-8.5 4.9zm5.4 5.6l-7.6-4.4-8.6 5 7.5 4.4 8.7-5zm-26.9 6.7l7.5 4.4 8.6-4.9-7.6-4.4-8.5 4.9zm-10.7 6.2l7.5 4.4 8.6-4.9-7.6-4.4-8.5 4.9zm-10.7 6.2l7.5 4.4 8.6-4.9-7.6-4.4-8.5 4.9zm-10.8 6.1l7.5 4.4 8.6-4.9-7.6-4.4-8.5 4.9zm-10.7 6.2l7.5 4.4 8.6-4.9-7.6-4.4-8.5 4.9zm-10.7 6.2l7.5 4.4 8.6-4.9-7.6-4.4-8.5 4.9zm-10.7 6.2l7.5 4.4 8.6-4.9-7.6-4.4-8.5 4.9zm-10.8 6.1l7.5 4.4 8.6-4.9-7.6-4.4-8.5 4.9zm5.5 5.7l-7.6-4.4-8.6 5 7.5 4.4 8.7-5zm-18.3 1.7l-8.6 5 7.5 4.4 8.6-4.9-7.5-4.5zm137.4-59.1l8.6-4.9-7.6-4.4-8.6 5 7.6 4.3zm-2.1 1.3l-7.6-4.4-8.6 5 7.5 4.4 8.7-5zm-10.7 6.2l-7.6-4.4-8.6 5 7.5 4.4 8.7-5zm-10.7 6.1l-7.6-4.4-8.6 5 7.5 4.4 8.7-5zm-10.7 6.2l-7.6-4.4-8.6 5 7.5 4.4 8.7-5zm-10.8 6.2l-7.6-4.4-8.6 5 7.5 4.4 8.7-5zm-10.7 6.2l-7.6-4.4-8.6 5 7.5 4.4 8.7-5zm-10.7 6.1l-7.6-4.4-8.6 5 7.5 4.4 8.7-5zm-10.8 6.2l-7.6-4.4-8.6 5 7.5 4.4 8.7-5zm-10.7 6.2l-7.6-4.4-8.6 5 7.5 4.4 8.7-5zm-10.7 6.2l-7.6-4.4-8.6 5 7.5 4.4 8.7-5zm-10.7 6.1l-7.6-4.4-8.6 5 7.5 4.4 8.7-5zm-18.3 1.8l-8.6 5 7.5 4.4 8.6-4.9-7.5-4.5zm137.4-59.1l8.6-4.9-7.6-4.4-8.6 5 7.6 4.3zm-2.1 1.2l-7.6-4.4-8.6 5 7.5 4.4 8.7-5zm-10.7 6.2l-7.6-4.4-8.6 5 7.5 4.4 8.7-5zm-10.7 6.2l-7.6-4.4-8.6 5 7.5 4.4 8.7-5zm-10.7 6.2l-7.6-4.4-8.6 5 7.5 4.4 8.7-5zm-10.8 6.1l-7.6-4.4-8.6 5 7.5 4.4 8.7-5zm-10.7 6.2l-7.6-4.4-8.6 5 7.5 4.4 8.7-5zm-10.7 6.2l-7.6-4.4-8.6 5 7.5 4.4 8.7-5zm-10.8 6.2l-7.6-4.4-8.6 5 7.5 4.4 8.7-5zm-10.7 6.1l-7.6-4.4-8.6 5 7.5 4.4 8.7-5zm-10.7 6.2l-7.6-4.4-8.6 5 7.5 4.4 8.7-5zm-10.7 6.2l-7.6-4.4-8.6 5 7.5 4.4 8.7-5zm-18.3 1.8l-8.6 5 7.5 4.4 8.6-4.9-7.5-4.5zm138.5-68.4l-8.6 5 7.5 4.4 8.6-4.9-7.5-4.5zm-19.3 11.1l7.5 4.4 8.6-4.9-7.6-4.4-8.5 4.9zm-10.8 6.2l7.5 4.4 8.6-4.9-7.6-4.4-8.5 4.9zm-10.7 6.1l7.5 4.4 8.6-4.9-7.6-4.4-8.5 4.9zm-10.7 6.2l7.5 4.4 8.6-4.9-7.6-4.4-8.5 4.9zm-10.7 6.2l7.5 4.4 8.6-4.9-7.6-4.4-8.5 4.9zm-2.2 1.2l-10.7 6.2-2.1 1.2-8.6 5-4.4 2.5-6.3 3.7-6.8 3.9-12.6 7.2 7.5 4.4 13.1-7.5 6.2-3.6 6.5-3.8 4.2-2.4 8.5-4.9 2.3-1.3 10.7-6.2-7.5-4.4zm-62.2 35.8l7.5 4.4 8.6-4.9-7.6-4.4-8.5 4.9zm-10.7 6.2l7.5 4.4 8.6-4.9-7.6-4.4-8.5 4.9zm-54.306-16.562l-7.6-4.4-8.6 5 7.5 4.4 8.7-5zm-10.7 6.2l-7.6-4.4-8.6 5 7.5 4.4 8.7-5zm-10.7 6.1l-7.6-4.4-8.6 5 7.5 4.4 8.7-5zm15.1-6.1l7.5 4.4 8.6-4.9-7.6-4.4-8.5 4.9zm-10.8 6.2l7.5 4.4 8.6-4.9-7.6-4.4-8.5 4.9zm-10.7 6.2l7.5 4.4 8.6-4.9-7.6-4.4-8.5 4.9zm31.2-6.7l7.5 4.4 8.6-4.9-7.6-4.4-8.5 4.9zm-10.7 6.2l7.5 4.4 8.6-4.9-7.6-4.4-8.5 4.9zm-10.7 6.1l7.5 4.4 8.6-4.9-7.6-4.4-8.5 4.9zm47.4-7.2l-7.6-4.4-8.6 5 7.5 4.4 8.7-5zm-10.7 6.2l-7.6-4.4-8.6 5 7.5 4.4 8.7-5zm-10.8 6.2l-7.6-4.4-8.6 5 7.5 4.4 8.7-5zm31.3-6.7l-7.6-4.4-8.6 5 7.5 4.4 8.7-5zm-10.7 6.1l-7.6-4.4-8.6 5 7.5 4.4 8.7-5zm-10.8 6.2l-7.6-4.4-8.6 5 7.5 4.4 8.7-5zm15.1-6.1l7.5 4.4 8.6-4.9-7.6-4.4-8.5 4.9zm-10.7 6.2l7.5 4.4 8.6-4.9-7.6-4.4-8.5 4.9zm53.738-154.408l-59.4-34.5a7.85 7.85 0 0 0-8.1 0l-141.1 81.4c-1.7 1-2.3 3.2-1.3 4.9a4.04 4.04 0 0 0 1.3 1.3l58.1 33.7c3 1.7 6.7 1.7 9.7 0l140.8-81.3c1.5-.9 2.1-2.9 1.2-4.4-.3-.4-.7-.8-1.2-1.1h0z"/></g><path d="M2570.672 2111.58l-140.8 81.3c-3 1.7-6.7 1.7-9.7 0l-58.1-33.7c-1.1-.6-1.8-1.8-1.8-3.1v7.3c0 1.3.7 2.4 1.8 3l58.1 33.7c3 1.7 6.7 1.7 9.7 0l140.8-81.3a3.19 3.19 0 0 0 1.6-2.8h0v-7.2c0 1.1-.6 2.2-1.6 2.8z" class="m"/><path d="M2570.672 2111.58l-140.8 81.3c-1.3.8-2.9 1.2-4.4 1.3v7.2c1.6-.1 3.1-.5 4.4-1.3l140.8-81.3a3.19 3.19 0 0 0 1.6-2.8v-7.2c0 1.1-.6 2.2-1.6 2.8h0z" class="l"/><path d="M2416.48 2111.43l109.6-63.4v54.3l-109.6 63.4v-54.3z" class="k"/><g class="m"><path d="M2510.88 2039.23l15.3 8.8-109.6 63.4-15.3-8.8 109.6-63.4zm-109.7 63.4l15.3 8.8v54.3l-15.3-8.9v-54.2z"/></g><path d="M2636.9 1771.6l-333.2 193.3v245.2l333.2-194v-244.5z" fill="#3a3a3a"/><path d="M2303.7 1964.8l-11.1-6.7v245.2l11.1 6.7v-245.2z" class="m"/><path d="M2636.9 1771.6l-11.3-6.6-333 193.1 11.1 6.7 333.2-193.2z" class="q"/><path d="M2303.7 1964.8V2210l333.2-194v-244.4l-333.2 193.2zm7.9 4.6l317.4-184.1v226.2l-317.4 184.8v-226.9z" class="l"/><use xlink:href="#q" class="r"/><g class="g"><path d="M2595.5 1834.407v6.5l-27.3 15.8v-6.5l27.3-15.8zm0 11.9v6.5l-27.4 15.7v-6.5l27.4-15.7zm-206.2 137.2v-6.5l168.6-97.3v6.5l-168.6 97.3zm206.2-125.4v6.5l-27.3 15.8v-6.5l27.3-15.8zm0 11.9v6.5l-27.3 15.8v-6.5l27.3-15.8z"/></g><path d="M2389.29 1995.407v-6.5l168.6-97.2v6.5l-168.6 97.2z" class="i"/><path d="M2595.49 1905.607v6.5l-27.3 15.8v-6.5l27.3-15.8z" class="g"/><path d="M2595.49 1917.507v6.5l-27.3 15.8v-6.5l27.3-15.8z" class="r"/><g class="g"><path d="M2595.5 1965.107v6.5l-27.3 15.8v-6.5l27.3-15.8zm0 11.8v6.5l-27.3 15.8v-6.5l27.3-15.8z"/></g><path d="M2451.49 2059.897l106.4-61.3v6.5l-106.4 61.4v-6.6z" class="i"/><g class="g"><path d="M2445.9 2063.197v6.5l-56.6 32.6v-6.5l56.6-32.6zm58.6-45.67l53.4-30.8v6.5l-53.4 30.8v-6.5zm-5.7 3.3v6.5l-109.5 63.2v-6.5l109.5-63.2zm-95.1 19.18v6.5l-14.4 8.3v-6.5l14.4-8.3z"/></g><path d="M2482.09 1982.907l75.8-43.7v6.5l-75.8 43.7v-6.5z" class="n"/><g class="g"><path d="M2513.2 1870.007l44.7-25.8v6.5l-44.7 25.8v-6.5zm-73.314 42.193l67.7-39v6.5l-67.7 39v-6.5zm39.414-10.893l47.7-27.5v6.5l-47.7 27.5v-6.5z"/></g><path d="M2429.29 1930.198l44.4-25.6v6.5l-44.4 25.6v-6.5z" class="n"/><path d="M2423.69 1933.398v6.5l-34.4 19.9v-6.5l34.4-19.9z" class="g"/><path d="M2549.09 1873.007v6.5l-35.9 20.7v-6.5l35.9-20.7z" class="n"/><g class="g"><path d="M2403.3 1957.107l104.2-60.1v6.5l-104.2 60.1v-6.5zm59.7 1.2l68.1-39.3v6.5l-68.1 39.3v-6.5zm-59.7 34.4l54.1-31.2v6.5l-54.1 31.2v-6.5zm6.018 32.23l67.2-38.8v6.5l-67.2 38.8v-6.5z"/></g><path d="M2445.89 2015.707v6.5l-36.6 21.1v-6.5l36.6-21.1z" fill="#50e85e"/><g class="g"><path d="M2544.7 1958.707l13.2-7.6v6.5l-13.2 7.6v-6.5zm-24.668 14.22v6.5l-68.5 39.5v-6.5l68.5-39.5zm5.6-3.2l13.5-7.8v6.5l-13.5 7.8v-6.5zm-61.432 47.28l74.9-43.2v6.5l-74.9 43.2v-6.5z"/><use xlink:href="#r"/><path d="M2377.43 1951.636v1.8l-7.5 4.3v-1.8l7.5-4.3zm0 3.2v1.8l-7.5 4.3v-1.8l7.5-4.3z"/><use xlink:href="#s"/><path d="M2377.43 1958.136v1.8l-7.5 4.3v-1.8l7.5-4.3zm0 3.3v1.8l-7.5 4.3v-1.8l7.5-4.3zm-56.8 34.5v-1.8l46.5-26.8v1.8l-46.5 26.8zm56.8-24.7v1.8l-7.5 4.3v-1.8l7.5-4.3zm0 3.3v1.8l-7.5 4.3v-1.8l7.5-4.3zm0 13.1v1.8l-7.5 4.3v-1.8l7.5-4.3zm0 3.3v1.8l-7.5 4.3v-1.8l7.5-4.3z"/><use xlink:href="#t"/><use xlink:href="#u"/><use xlink:href="#v"/><use xlink:href="#w"/><use xlink:href="#x"/><use xlink:href="#y"/><use xlink:href="#z"/><use xlink:href="#AA"/><use xlink:href="#AB"/><use xlink:href="#AC"/><use xlink:href="#AD"/><use xlink:href="#AE"/><use xlink:href="#AF"/><use xlink:href="#AG"/><use xlink:href="#AH"/><use xlink:href="#AI"/><use xlink:href="#AJ"/><use xlink:href="#AK"/><use xlink:href="#AL"/><use xlink:href="#AM"/><use xlink:href="#AN"/><path d="M2377.43 2003.716v1.8l-7.5 4.3v-1.8l7.5-4.3zm0 3.3v1.8l-7.5 4.3v-1.8l7.5-4.3zm0 3.3v1.8l-7.5 4.3v-1.8l7.5-4.3zm-56.8 37.8v-1.8l46.5-26.8v1.8l-46.5 26.8zm56.8-34.6v1.8l-7.5 4.3v-1.8l7.5-4.3zm0 3.3v1.8l-7.5 4.3v-1.8l7.5-4.3zm-56.8 34.5v-1.8l46.5-26.8v1.8l-46.5 26.8zm56.8-24.7v1.8l-7.5 4.3v-1.8l7.5-4.3zm0 3.3v1.8l-7.5 4.3v-1.8l7.5-4.3zm0 13.1v1.8l-7.5 4.3v-1.8l7.5-4.3zm0 3.3v1.8l-7.5 4.3v-1.8l7.5-4.3zm-39.6 22.82l29.3-16.9v1.8l-29.3 16.9v-1.8zm-1.6.9v1.8l-15.6 9v-1.8l15.6-9zm16.1-12.573l14.7-8.5v1.8l-14.7 8.5v-1.8zm-1.5.9v1.8l-30.2 17.4v-1.8l30.2-17.4zm-26.2 5.252v1.8l-4 2.3v-1.8l4-2.3zm21.6-15.7l20.9-12v1.8l-20.9 12v-1.8zm8.5-31.1l12.3-7.1v1.8l-12.3 7.1v-1.8zm-20.16 11.668l18.6-10.8v1.8l-18.6 10.8v-1.8zm10.86-3.068l13.1-7.6v1.8l-13.1 7.6v-1.8zm-13.8 8.02l12.2-7.1v1.8l-12.2 7.1v-1.8zm-1.5.9v1.8l-9.5 5.5v-1.8l9.5-5.5zm34.5-16.72v1.8l-9.9 5.7v-1.8l9.9-5.7zm-40.1 23.2l28.7-16.6v1.8l-28.7 16.6v-1.8zm16.4.3l18.8-10.8v1.8l-18.8 10.8v-1.8zm-16.4 9.5l14.9-8.6v1.8l-14.9 8.6v-1.8zm1.617 8.886l18.5-10.7v1.8l-18.5 10.7v-1.8zm10.083-2.586v1.8l-10.1 5.8v-1.8l10.1-5.8zm27.2-15.7l3.6-2.1v1.8l-3.6 2.1v-1.8zm-6.752 3.914v1.8l-18.9 10.9v-1.8l18.9-10.9zm1.5-.8l3.7-2.1v1.8l-3.7 2.1v-1.8zm-16.948 12.986l20.6-11.9v1.8l-20.6 11.9v-1.8zm36.2 1.8v1.8l-7.5 4.3v-1.8l7.5-4.3zm0 3.3v1.8l-7.5 4.3v-1.8l7.5-4.3zm0 3.2v1.8l-7.5 4.3v-1.8l7.5-4.3zm-56.8 37.9v-1.8l46.5-26.8v1.8l-46.5 26.8zm56.8-34.6v1.8l-7.5 4.3v-1.8l7.5-4.3zm0 3.3v1.8l-7.5 4.3v-1.8l7.5-4.3zm-56.8 34.6v-1.8l46.5-26.8v1.8l-46.5 26.8zm56.8-24.8v1.8l-7.5 4.3v-1.8l7.5-4.3zm0 3.3v1.8l-7.5 4.3v-1.8l7.5-4.3zm0 13.1v1.8l-7.5 4.3v-1.8l7.5-4.3zm0 3.3v1.8l-7.5 4.3v-1.8l7.5-4.3zm-39.6 22.82l29.3-16.9v1.8l-29.3 16.9v-1.8zm-1.6.9v1.8l-15.6 9v-1.8l15.6-9zm16.1-12.573l14.7-8.5v1.8l-14.7 8.5v-1.8zm-1.5.9v1.8l-30.2 17.4v-1.8l30.2-17.4zm-26.2 5.252v1.8l-4 2.3v-1.8l4-2.3zm21.6-15.7l20.9-12v1.8l-20.9 12v-1.8zm8.5-31.1l12.3-7.1v1.8l-12.3 7.1v-1.8zm-20.16 11.568l18.6-10.8v1.8l-18.6 10.8v-1.8zm10.86-2.968l13.1-7.6v1.8l-13.1 7.6v-1.8zm-13.8 8.02l12.2-7.1v1.8l-12.2 7.1v-1.8zm-1.5.9v1.8l-9.5 5.5v-1.8l9.5-5.5zm34.5-16.72v1.8l-9.9 5.7v-1.8l9.9-5.7zm-40.1 23.2l28.7-16.6v1.8l-28.7 16.6v-1.8zm16.4.3l18.8-10.8v1.8l-18.8 10.8v-1.8zm-16.4 9.5l14.9-8.6v1.8l-14.9 8.6v-1.8zm1.617 8.886l18.5-10.7v1.8l-18.5 10.7v-1.8zm10.083-2.586v1.8l-10.1 5.8v-1.8l10.1-5.8zm27.2-15.7l3.6-2.1v1.8l-3.6 2.1v-1.8zm-6.752 3.914v1.8l-18.9 10.9v-1.8l18.9-10.9zm1.5-.9l3.7-2.1v1.8l-3.7 2.1v-1.8zm-16.948 13.086l20.6-11.9v1.8l-20.6 11.9v-1.8zm36.2 1.78v1.8l-7.5 4.3v-1.8l7.5-4.3zm0 3.3v1.8l-7.5 4.3v-1.8l7.5-4.3zm0 3.2v1.8l-7.5 4.3v-1.8l7.5-4.3zm-56.8 37.9v-1.8l46.5-26.8v1.8l-46.5 26.8zm56.8-34.6v1.8l-7.5 4.3v-1.8l7.5-4.3zm0 3.3v1.8l-7.5 4.3v-1.8l7.5-4.3zm-56.8 34.5v-1.8l46.5-26.8v1.8l-46.5 26.8zm56.8-24.7v1.8l-7.5 4.3v-1.8l7.5-4.3zm0 3.3v1.8l-7.5 4.3v-1.8l7.5-4.3zm-52.8 33.7v1.8l-4 2.3v-1.8l4-2.3zm21.6-15.7l20.9-12v1.8l-20.9 12v-1.8zm8.5-31.1l12.3-7.1v1.8l-12.3 7.1v-1.8zm-20.16 11.667l18.6-10.8v1.8l-18.6 10.8v-1.8zm10.86-3.067l13.1-7.6v1.8l-13.1 7.6v-1.8zm-13.8 8.02l12.2-7.1v1.8l-12.2 7.1v-1.8zm-1.5.9v1.8l-9.5 5.5v-1.8l9.5-5.5zm34.5-16.72v1.8l-9.9 5.7v-1.8l9.9-5.7zm-40.1 23.2l28.7-16.6v1.8l-28.7 16.6v-1.8zm16.4.3l18.8-10.8v1.8l-18.8 10.8v-1.8zm-16.4 9.5l14.9-8.6v1.8l-14.9 8.6v-1.8zm1.617 8.886l18.5-10.7v1.8l-18.5 10.7v-1.8zm10.083-2.586v1.8l-10.1 5.8v-1.8l10.1-5.8zm27.2-15.7l3.6-2.1v1.8l-3.6 2.1v-1.8zm-6.752 3.914v1.8l-18.9 10.9v-1.8l18.9-10.9zm1.5-.9l3.7-2.1v1.8l-3.7 2.1v-1.8zm-16.948 13.086l20.6-11.9v1.8l-20.6 11.9v-1.8z"/></g><g class="i"><use xlink:href="#AO"/><path d="M2612.98 1828.526l9-5.2c.3-.2.7-.1.9.2.1.1.1.2.1.3v10.8c0 .5-.3 1-.7 1.3l-9 5.2c-.3.2-.7.1-.9-.2-.1-.1-.1-.2-.1-.3v-10.7c-.1-.6.2-1.1.7-1.4z"/><path d="M2612.98 1844.626l9-5.2c.3-.2.7-.1.9.2.1.1.1.2.1.3v10.8c0 .5-.3 1-.7 1.3l-9 5.2c-.3.2-.7.1-.9-.2-.1-.1-.1-.2-.1-.3v-10.7c-.1-.6.2-1.1.7-1.4z"/><use xlink:href="#AP"/><use xlink:href="#AQ"/><path d="M2612.98 1893.026l9-5.2c.3-.2.7-.1.9.2.1.1.1.2.1.3v10.8c0 .5-.3 1-.7 1.3l-9 5.2c-.3.2-.7.1-.9-.3-.1-.1-.1-.2-.1-.3v-10.7c-.1-.6.2-1.1.7-1.3z"/><path d="M2612.98 1909.126l9-5.2c.3-.2.7-.1.9.2.1.1.1.2.1.3v10.8c0 .5-.3 1-.7 1.3l-9 5.2c-.3.2-.7.1-.9-.2-.1-.1-.1-.2-.1-.3v-10.7c-.1-.6.2-1.1.7-1.4z"/><path d="M2612.98 1925.226l9-5.2c.3-.2.7-.1.9.2.1.1.1.2.1.3v10.8c0 .5-.3 1-.7 1.3l-9 5.2c-.3.2-.7.1-.9-.2-.1-.1-.1-.2-.1-.3v-10.7c-.1-.6.2-1.1.7-1.4z"/><path d="M2612.98 1941.326l9-5.2c.3-.2.7-.1.9.2.1.1.1.2.1.3v10.8c0 .5-.3 1-.7 1.3l-9 5.2c-.3.2-.7.1-.9-.2-.1-.1-.1-.2-.1-.3v-10.7c-.1-.6.2-1.1.7-1.4z"/><path d="M2612.98 1957.426l9-5.2c.3-.2.7-.1.9.2.1.1.1.2.1.3v10.8c0 .5-.3 1-.7 1.3l-9 5.2c-.3.2-.7.1-.9-.3-.1-.1-.1-.2-.1-.3v-10.7c-.1-.5.2-1 .7-1.3z"/><path d="M2612.98 1973.626l9-5.2c.3-.2.7-.1.9.2.1.1.1.2.1.3v10.8c0 .5-.3 1-.7 1.3l-9 5.2c-.3.2-.7.1-.9-.3-.1-.1-.1-.2-.1-.3v-10.7c-.1-.6.2-1.1.7-1.3z"/><path d="M2612.98 1989.726l9-5.2c.3-.2.7-.1.9.2.1.1.1.2.1.3v10.8c0 .5-.3 1-.7 1.3l-9 5.2c-.3.2-.7.1-.9-.2-.1-.1-.1-.2-.1-.3v-10.7c-.1-.7.2-1.2.7-1.4z"/></g><path d="M2731.2 2078.3s15.4-6.9 33.5 5.1 30.3 28.8 22.9 34.9c-7.4 6.2-21.7 12.8-31 9.5-9.2-3.3-55.2-30.3-25.4-49.5h0z" class="k"/><path d="M2392.183 2262.03h13.4v14.4h-13.4a8.96 8.96 0 0 0-9 9v23.5a8.96 8.96 0 0 0 9 9h19.6v14.4h-19.6c-13 0-23.4-10.5-23.5-23.5v-23.5c0-12.8 10.5-23.3 23.5-23.3z" class="o"/><path d="M2397.183 2254.03v81.3c0 12.6 18.8 22.8 42 22.8s42-10.2 42-22.8v-81.3h-84z" class="j"/><path d="M2481.083 2254.03c0 12.6-18.8 22.8-42 22.8s-42-10.2-42-22.8 18.8-22.8 42-22.8 42 10.2 42 22.8z" class="h"/><path d="M2472.683 2253.73c0 9.9-15 17.8-33.6 17.8s-33.6-8-33.6-17.8 15-17.8 33.6-17.8 33.6 8 33.6 17.8z" class="o"/><path d="M2439.083 2247.63c14.7 0 27.2 5 31.7 12-4.6 7-17 12-31.7 12s-27.2-5-31.7-12c4.6-7 17-12 31.7-12z" fill="#52281c"/><path d="M2423.283 2275.13v81.3c-8.2-1.8-15.1-5-19.8-9.1v-81.3c4.7 4.1 11.6 7.3 19.8 9.1z" class="o"/><g transform="matrix(.978 .208 -.208 .978 198.39 900.02)" class="h p"><use xlink:href="#AR"/><use xlink:href="#AS"/></g><g transform="matrix(.978 .208 -.208 .978 628.31 20.379)" class="h p"><use xlink:href="#AR"/><use xlink:href="#AS"/></g><g transform="matrix(.978 .208 -.208 .978 -88.761 90.696)" class="h p"><path d="M908.2-262.7v-44.6l-32.6-5.4c-2.6-9.8-6.5-19.3-11.6-28l19.2-26.9-31.6-31.6-27 19.2c-8.7-5.2-18.2-9.1-28-11.6l-5.4-32.6h-44.7l-5.4 32.6c-9.8 2.6-19.3 6.5-28 11.6l-26.9-19.2-31.6 31.6 19.2 26.9c-5.2 8.7-9.1 18.2-11.6 28l-32.6 5.4v44.6l32.6 5.4c2.6 9.8 6.5 19.3 11.6 28l-19.2 26.9 31.6 31.6 26.9-19.2c8.7 5.2 18.2 9.1 28 11.6l5.4 32.6h44.7l5.4-32.6c9.8-2.6 19.3-6.5 28-11.6l26.9 19.2 31.6-31.6-19.2-26.9c5.2-8.7 9.1-18.2 11.6-28l32.7-5.4zm-43.1-.9a97.92 97.92 0 0 1-13.1 31.5l-2.1 3.3 18 25.3-17.7 17.7-25.3-18-3.3 2.1c-9.6 6.2-20.3 10.6-31.5 13.1l-3.8.9-5.1 30.6h-25l-5.1-30.6-3.8-.9a97.92 97.92 0 0 1-31.5-13.1l-3.3-2.1-25.3 18-17.7-17.7 18-25.2-2.1-3.3c-6.2-9.6-10.6-20.3-13.1-31.5l-.8-3.8-30.6-5.1v-25l30.6-5.1.8-3.8a97.92 97.92 0 0 1 13.1-31.5l2.1-3.3-18-25.3 17.7-17.7 25.3 18 3.3-2.1c9.6-6.2 20.3-10.6 31.5-13.1l3.8-.9 5.1-30.6h25l5.1 30.6 3.8.9a97.92 97.92 0 0 1 31.5 13.1l3.3 2.1 25.3-18 17.7 17.7-18 25.2 2.1 3.3c6.2 9.6 10.6 20.3 13.1 31.5l.8 3.8 30.6 5.1v25l-30.6 5.1-.8 3.8zm-96.25-79.45c-32.1 0-58 26-58 58s26 58 58 58c32.1 0 58-26 58-58h0c0-32-25.9-58-58-58zm0 104.5c-25.6 0-46.4-20.8-46.4-46.4s20.8-46.4 46.4-46.4 46.4 20.8 46.4 46.4h0c0 25.6-20.7 46.3-46.4 46.4z"/></g><g transform="matrix(.966 -.259 .259 .966 42.497 870.66)" class="h p"><path d="M905.6-3.7v-24.4l-17.8-3c-1.4-5.4-3.5-10.5-6.4-15.3L892-61.1l-17.3-17.2L860-67.8c-4.8-2.8-9.9-5-15.3-6.4l-3-17.8h-24.4l-3 17.8c-5.4 1.4-10.5 3.5-15.3 6.4l-14.7-10.5L767-61.1l10.5 14.7c-2.8 4.8-5 9.9-6.4 15.3l-17.8 3v24.4l17.8 3c1.4 5.4 3.5 10.5 6.4 15.3L767 29.3l17.3 17.2L799.1 36c4.8 2.8 9.9 5 15.3 6.4l3 17.8h24.4l3-17.8c5.4-1.4 10.5-3.5 15.3-6.4l14.7 10.5L892 29.3l-10.5-14.7c2.8-4.8 5-9.9 6.4-15.3l17.7-3zm-23.5-.5c-1.4 6.1-3.8 11.9-7.1 17.2l-1.1 1.8 9.9 13.8-9.6 9.7-13.8-9.9-1.8 1.1c-5.3 3.4-11.1 5.8-17.2 7.1l-2.1.5-2.8 16.7h-13.7L820 37.1l-2.1-.5c-6.1-1.4-11.9-3.8-17.2-7.1l-1.8-1.1-13.9 9.9-9.7-9.7 9.9-13.8L784 13c-3.4-5.3-5.8-11.1-7.1-17.2l-.5-2.1-16.7-2.8v-13.7l16.7-2.8.5-2.1c1.4-6.1 3.8-11.9 7.1-17.2l1.2-1.8-9.9-13.8L785-70l13.8 9.9 1.8-1.1c5.3-3.4 11.1-5.8 17.2-7.1l2.1-.5 2.8-16.7h13.6l2.8 16.7 2.1.5c6.1 1.4 11.9 3.8 17.2 7.1l1.8 1.1L874-70l9.7 9.7-9.9 13.8 1.2 1.8c3.4 5.3 5.8 11.1 7.1 17.2l.5 2.1 16.7 2.8v13.7l-16.7 2.8-.5 1.9zm-52.6-43.4c-17.5 0-31.7 14.2-31.7 31.7s14.2 31.7 31.7 31.7 31.7-14.2 31.7-31.7h0a31.65 31.65 0 0 0-31.7-31.7zm0 57.1c-14 0-25.4-11.4-25.4-25.4s11.4-25.4 25.4-25.4 25.4 11.4 25.4 25.4-11.3 25.4-25.4 25.4z"/></g></g></svg>