<svg xmlns="http://www.w3.org/2000/svg" xmlns:xlink="http://www.w3.org/1999/xlink" viewBox="256 -427 1024 1366" width="1024" height="1366" xmlns:v="https://vecta.io/nano"><defs><path id="A" d="M256-427h1024V939H256z"/><path id="B" d="M687-118.4l5.9-3.4c.2-.1.5 0 .6.2 0 .1.1.1.1.2v7.1c0 .3-.2.7-.5.8l-5.9 3.4c-.2.1-.5 0-.6-.2 0-.1-.1-.1-.1-.2v-7c0-.4.3-.7.5-.9z"/><path id="C" d="M577-156.8v5.4l-22.5 13v-5.4l22.5-13z"/><path id="D" d="M575.2-220v-34.9l-25.5-4.2c-2-7.7-5.1-15-9.1-21.9l15-21-24.6-24.6-21 15c-6.8-4-14.2-7.1-21.9-9.1l-4.2-25.5H449l-4.2 25.5c-7.7 2-15 5.1-21.9 9.1l-21-15-24.6 24.6 15 21c-4 6.8-7.1 14.2-9.1 21.9l-25.5 4.2v34.8l25.5 4.2c2 7.7 5.1 15 9.1 21.9l-15 21 24.6 24.6 21-15c6.8 4 14.2 7.1 21.9 9.1l4.2 25.5h34.9l4.2-25.5c7.7-2 15-5.1 21.9-9.1l21 15 24.6-24.6-15-21c4-6.8 7.1-14.2 9.1-21.9l25.5-4.1zm-33.5-.7c-1.9 8.7-5.4 17-10.2 24.6l-1.6 2.6 14.1 19.7-13.9 13.8-19.7-14.1-2.6 1.6c-7.5 4.8-15.8 8.3-24.6 10.2l-3 .7-4 23.9h-19.5l-4-23.9-3-.7c-8.7-1.9-17-5.4-24.6-10.2l-2.6-1.6-19.6 14.1-13.8-13.8 14.1-19.7-1.6-2.6c-4.8-7.5-8.3-15.8-10.2-24.6l-.7-3-23.9-4v-19.5l23.9-4 .7-3c1.9-8.7 5.4-17 10.2-24.6l1.6-2.6-14-19.6 13.8-13.8 19.7 14.1 2.6-1.6c7.5-4.8 15.8-8.3 24.6-10.2l3-.7 4-23.9h19.5l4 23.9 3 .7c8.7 1.9 17 5.4 24.6 10.2l2.6 1.6 19.7-14.1 13.8 13.8-14.1 19.7 1.6 2.6c4.8 7.5 8.3 15.8 10.2 24.6l.7 3 23.9 4v19.5l-23.9 4-.8 2.9z"/><path id="E" d="M466.5-282.7c-25 0-45.3 20.3-45.3 45.3s20.3 45.3 45.3 45.3 45.3-20.3 45.3-45.3-20.3-45.3-45.3-45.3zm0 81.5c-20 0-36.2-16.2-36.2-36.2s16.2-36.2 36.2-36.2 36.2 16.2 36.2 36.2-16.2 36.2-36.2 36.2z"/></defs><clipPath id="F"><use xlink:href="#A"/></clipPath><g clip-path="url(#F)"><path d="M806.8-358.4l33.6-23.5 6 8.6-6 34.2 9.9 14.1c-.9 2.7.6 5.6 3.3 6.5s5.6-.6 6.5-3.3-.6-5.6-3.3-6.5c-.5-.2-.9-.2-1.4-.3l-8.4-12 6-34.2-7.5-10.7 15.2-10.6 8.8 12.6c-.5 1.5-.3 3.2.7 4.6 1.6 2.3 4.8 2.9 7.2 1.3 2.3-1.6 2.9-4.8 1.3-7.2-.9-1.3-2.4-2.1-4-2.2l-8.8-12.6 13.3-9.3 25.1 35.8-14.8 10.3-9.5-1.7c-1.3-2.6-4.4-3.6-7-2.3s-3.6 4.4-2.3 7 4.4 3.6 7 2.3c.5-.2.9-.5 1.3-.9l12 2.1 16.9-11.8 8.2 11.7-27.1 18.8-2.2 8.8c-2.6 1.1-3.9 4.1-2.8 6.7s4.1 3.9 6.7 2.8 3.9-4.1 2.8-6.7c-.1-.4-.3-.7-.5-1-.1-.1-.1-.2-.2-.3l1.6-6.6 24.9-17.4 10.2 14.6-61.6 43.1-18-3.2-31.9-45.6 10.5-7.3c2.7.9 5.6-.6 6.5-3.3s-.6-5.6-3.3-6.5-5.6.6-6.5 3.3c-.2.5-.2.9-.3 1.4l-10.5 7.3-7.6-10.9z" opacity=".2" fill="#fff"/><g transform="matrix(.93358 .358368 -.358368 .93358 -612.13 -1180.8)"><linearGradient id="G" gradientUnits="userSpaceOnUse" x1="1263.724" y1="-613.607" x2="1469.029" y2="1950.272"><stop offset="0" stop-color="#2ba6f8"/><stop offset="1" stop-color="#090909"/><stop offset="1"/></linearGradient><path d="M2264.4-313.2s-398.6 8.7-890.9-149.1 1.6 394.7 207.1 516c129.7 65 168 191.3 159.4 308.9-11.2 154.3-237.4 159.9-427 258-457.9 236.9 59.4 39.6 233.8 152.9s68 197.7-173.3 189c-521.2-18.7-348.4 157.6-261.3 237.5s72.1 262.4-338.2 139-256 174.6-256 174.6H86V-313.2h2178.4z" fill="url(#G)"/><linearGradient id="H" gradientUnits="userSpaceOnUse" x1="586.681" y1="199.346" x2="506.974" y2="1109.61"><stop offset="0" stop-color="#2ba6f8"/><stop offset="1"/></linearGradient><path d="M569.9-313.2s589.4-30.7 694.4 356.6c114.3 422-251.4 620.5-375.4 523.6s-129.7-228.5 63.4-315.4S1126-103.1 703.7-36.3s-471 604.1-165.1 732.6S770 976.2 440.9 1137s-149.1 376.5-149.1 376.5H86V-313.3l483.9.1z" fill="url(#H)"/></g><g transform="matrix(.695 -.719 .719 .695 -1813.5 1176.1)"><linearGradient id="I" gradientUnits="userSpaceOnUse" x1="1921.242" y1="824.226" x2="101.16" y2="-717.149"><stop offset="0" stop-color="#2ba6f8"/><stop offset="1" stop-color="#090909"/><stop offset="1"/></linearGradient><path d="M2663.3 64.5s-398.6 8.7-890.9-149.1 1.6 394.7 207.1 516c129.7 65 168 191.3 159.4 308.9-11.2 154.3-237.4 159.9-427 258-457.9 236.9 59.4 39.6 233.8 152.9s68 197.7-173.3 189c-521.2-18.7-881.1-550.8-794-470.9s466.2 727.4 56 604-117.4 418-117.4 418H485V64.4l2178.3.1z" fill="url(#I)"/><linearGradient id="J" gradientUnits="userSpaceOnUse" x1="1252.591" y1="937.567" x2="286.973" y2="52.46"><stop offset="0" stop-color="#2ba6f8"/><stop offset="1"/></linearGradient><path d="M968.9 64.5s589.4-30.7 694.4 356.6c114.3 422-251.4 620.5-375.4 523.6s-129.7-228.5 63.4-315.4 173.7-354.7-248.5-287.9S631.6 945.5 937.5 1074s231.4 279.9-97.7 440.7-149.1 376.5-149.1 376.5H484.9V64.4l484 .1z" fill="url(#J)"/></g><path d="M663.3-190.2l.1.1c0-.1-.1-.1-.1-.1z" fill="#bbcee1"/><g opacity=".4" fill="#fff"><path d="M695.8-157.6v4.3l-9.5 5.5v-4.3l9.5-5.5z"/></g><path d="M175.4 71.9l.1.1c0-.1-.1-.1-.1-.1zm160.1-174.1l.1.1c0-.1-.1-.1-.1-.1h0zm159.4-170l.1.1c0-.1-.1-.1-.1-.1z" fill="#bbcee1"/><g fill="#ebf2eb"><path d="M687-139.5l5.9-3.4c.2-.1.5-.1.6.2 0 .1.1.1.1.2v7.1c0 .3-.2.7-.5.8l-5.9 3.4c-.2.1-.5.1-.6-.2 0-.1-.1-.1-.1-.2v-7c0-.4.3-.8.5-.9h0zm0 10.5l5.9-3.4c.2-.1.5-.1.6.2 0 .1.1.1.1.2v7.1c0 .3-.2.7-.5.8l-5.9 3.4c-.2.1-.5.1-.6-.2 0-.1-.1-.1-.1-.2v-7c0-.4.3-.7.5-.9h0z"/><use xlink:href="#B"/><path d="M687-107.8l5.9-3.4c.2-.1.5 0 .6.2 0 .1.1.1.1.2v7.1c0 .3-.2.7-.5.8l-5.9 3.4c-.2.1-.5 0-.6-.2 0-.1-.1-.1-.1-.2v-7c0-.4.3-.7.5-.9z"/></g><g fill="#fff"><g opacity=".4"><path d="M409.7-102.1v4.3l-17.9 10.3v-4.3l17.9-10.3zm0 7.8v4.3l-17.9 10.3V-84l17.9-10.3zm0 7.8v4.3l-17.9 10.3v-4.3l17.9-10.3zm0 7.8v4.3l-18 10.3v-4.3l18-10.3zm0 7.8v4.3l-17.9 10.3v-4.3l17.9-10.3zm0 23.4v4.3l-17.9 10.3v-4.3l17.9-10.3zm0 7.8v4.3l-18 10.3v-4.3l18-10.3zm0 31.1v4.3L391.8 6V1.7l17.9-10.3zm0 7.8v4.3l-17.9 10.3V9.5L409.7-.8zM350 25.9l35.1-20.2V10L350 30.2v-4.3zM335.3 3.1L385-25.6v4.3L335.3 7.4V3.1zM355.7-71L385-87.9v4.3l-29.3 16.9V-71zm-48.1 27.8L352-68.8v4.3l-44.4 25.6v-4.3zm25.9-7.2l31.3-18v4.3l-31.3 18v-4.3zM379.2-69v4.3l-23.5 13.6v-4.3L379.2-69zm-2.8 56.2l8.6-5v4.3l-8.6 5v-4.3zm-12.6 7.3l8.8-5.1v4.3l-8.8 5.1v-4.3z"/></g><g opacity=".4"><path d="M241.3-266.3v4.3l-17.9 10.3v-4.3l17.9-10.3zm0 7.8v4.3l-17.9 10.3v-4.3l17.9-10.3zm0 7.8v4.3l-17.9 10.3v-4.3l17.9-10.3zM106-160.6v-4.3l110.6-63.8v4.3L106-160.6zm135.3-82.3v4.3l-18 10.3v-4.3l18-10.3zm0 7.8v4.3l-17.9 10.3v-4.3l17.9-10.3zM106-152.8v-4.3l110.6-63.8v4.3L106-152.8zm135.3-58.9v4.3l-17.9 10.3v-4.3l17.9-10.3zm0 7.8v4.3l-18 10.3v-4.3l18-10.3zm0 31.1v4.3l-17.9 10.3v-4.3l17.9-10.3zm0 7.8v4.3l-17.9 10.3v-4.3l17.9-10.3zm-94.5 54.4l69.8-40.3v4.3l-69.8 40.3v-4.3zm34.8-27.8l35.1-20.2v4.3l-35.1 20.2v-4.3zm-66.1 14.8v4.3l-9.5 5.5v-4.3l9.5-5.5zm51.4-37.5l49.7-28.7v4.3l-49.7 28.7v-4.3zm20.4-74.1l29.3-16.9v4.3l-29.3 16.9v-4.3zm-48.1 27.7l44.4-25.6v4.3l-44.4 25.6v-4.3zm25.9-7.1l31.3-18v4.3l-31.3 18v-4.3zm-32.8 18.9l29.1-16.8v4.3l-29.1 16.8v-4.3zm-3.7 2.1v4.3l-22.6 13v-4.3l22.6-13zm82.2-39.6v4.3l-23.5 13.6v-4.3l23.5-13.6zM115.2-178l68.4-39.4v4.3l-68.4 39.4v-4.3zm39.2.8l44.7-25.8v4.3l-44.7 25.8v-4.3zm-39.2 22.6l35.5-20.5v4.3l-35.5 20.5v-4.3zm3.9 21l44.1-25.4v4.3l-44.1 25.4v-4.3zm24.1-6v4.3l-24 13.9v-4.3l24-13.9zm64.8-37.3l8.6-5v4.3l-8.6 5v-4.3zm-16.3 9.2v4.3l-44.9 25.9v-4.3l44.9-25.9zm3.7-2.1l8.8-5.1v4.3l-8.8 5.1v-4.3zm-40.3 31.1l49.1-28.3v4.3l-49.1 28.3v-4.3z"/></g></g><path d="M667 124.2l-49.7-28.8c-2.3-1.4-5.2-1.4-7.6 0l-153.5 88.8c-1.6.9-2.1 3-1.2 4.5.3.5.7.9 1.2 1.2l48.5 28c2.8 1.6 6.2 1.6 9 0L667 129.2c1.4-.8 1.9-2.6 1.1-4.1-.3-.3-.7-.6-1.1-.9h0z" fill="#0f4463"/><path d="M667 129.3L513.7 218c-2.8 1.6-6.2 1.6-9 0l-48.5-28c-1-.6-1.7-1.7-1.7-2.9v6a3.19 3.19 0 0 0 1.6 2.8l48.5 28.1c2.8 1.6 6.2 1.6 9 0l153.3-88.7c.9-.5 1.5-1.5 1.5-2.6h0v-5.9c.1 1-.5 2-1.4 2.5h0z" fill="#0b3b56"/><g fill="#1f5e77"><path d="M617.8 103.4l-6.2-3.6-7.1 4.1 6.2 3.6 7.1-4.1zm-8.8 5.1l-6.2-3.6-7.1 4.1 6.2 3.6 7.1-4.1zm-8.9 5.1l-6.2-3.6-7.1 4.1 6.2 3.6 7.1-4.1zm-8.8 5.1l-6.2-3.6-7.1 4.1 6.2 3.6 7.1-4.1zm-8.8 5l-6.2-3.6-7.1 4.1 6.2 3.6 7.1-4.1zm-8.8 5.1l-6.2-3.6-7.1 4.1 6.2 3.6 7.1-4.1zm-8.8 5.1l-6.2-3.6-7.1 4.1 6.2 3.6 7.1-4.1zM556 139l-6.2-3.6-7.1 4.1 6.2 3.6 7.1-4.1zm-8.8 5l-6.2-3.6-7.1 4.1 6.2 3.6 7.1-4.1zm-8.8 5.1l-6.2-3.6-7.1 4.1 6.2 3.6 7.1-4.1zm-8.9 5.1l-6.2-3.6-7.1 4.1 6.2 3.6 7.1-4.1zm-8.8 5.1l-6.2-3.6-7.1 4.1 6.2 3.6 7.1-4.1zm-15 1.5l-7.1 4 6.2 3.6 7.1-4.1-6.2-3.5zm113.1-48.6l7.1-4.1-6.2-3.6-7.1 4.1 6.2 3.6zm-15.1 1.4l6.2 3.6 7.1-4.1-6.2-3.6-7.1 4.1zm-8.8 5.1l6.2 3.6 7.1-4.1-6.2-3.6-7.1 4.1zm-8.8 5.1l6.2 3.6 7.1-4.1-6.2-3.6-7.1 4.1zm-8.9 5.1l6.2 3.6 7.1-4.1-6.2-3.6-7.1 4.1zm-8.8 5.1l6.2 3.6 7.1-4.1-6.2-3.6-7.1 4.1zm-8.8 5l6.2 3.6 7.1-4.1-6.2-3.6-7.1 4.1zm-8.8 5.1l6.2 3.6 7.1-4.1-6.2-3.6-7.1 4.1zm-8.9 5.1l6.2 3.6 7.1-4.1-6.2-3.6-7.1 4.1zm-8.8 5.1l6.2 3.6 7.1-4.1-6.2-3.6-7.1 4.1zm-8.8 5l6.2 3.6 7.1-4.1-6.2-3.6-7.1 4.1zm-8.8 5.1l6.2 3.6 7.1-4.1-6.2-3.6-7.1 4.1zm-1.8 1l-7.1 4.1 6.2 3.6 7.1-4.1-6.2-3.6zm113.1-48.6l7.1-4.1-6.2-3.6-7.1 4.1 6.2 3.6zm-15 1.5l6.2 3.6 7.1-4.1-6.2-3.6-7.1 4.1zm4.5 4.6l-6.2-3.6-7.1 4.1 6.2 3.6 7.1-4.1zm-22.2 5.5l6.2 3.6 7.1-4.1-6.2-3.6-7.1 4.1zm-8.8 5.1l6.2 3.6 7.1-4.1-6.2-3.6-7.1 4.1zm-8.8 5.1l6.2 3.6 7.1-4.1-6.2-3.6-7.1 4.1zm-8.8 5.1l6.2 3.6 7.1-4.1-6.2-3.6-7.1 4.1zm-8.9 5.1l6.2 3.6 7.1-4.1-6.2-3.6-7.1 4.1zm-8.8 5l6.2 3.6 7.1-4.1-6.2-3.6-7.1 4.1zm-8.8 5.1l6.2 3.6 7.1-4.1-6.2-3.6-7.1 4.1zm-8.8 5.1l6.2 3.6 7.1-4.1-6.2-3.6-7.1 4.1zm4.4 4.6l-6.2-3.6-7.1 4.1 6.2 3.6 7.1-4.1zm-15 1.5l-7.1 4.1 6.2 3.6 7.1-4.1-6.2-3.6zm113.1-48.6l7.1-4.1-6.2-3.6-7.1 4.1 6.2 3.6zm-1.8 1l-6.2-3.6-7.1 4.1 6.2 3.6 7.1-4.1zm-8.8 5.1l-6.2-3.6-7.1 4.1 6.2 3.6 7.1-4.1zm-8.8 5l-6.2-3.6-7.1 4.1 6.2 3.6 7.1-4.1zm-8.8 5.1l-6.2-3.6-7.1 4.1 6.2 3.6 7.1-4.1zm-8.9 5.1l-6.2-3.6-7.1 4.1 6.2 3.6 7.1-4.1zm-8.8 5.1l-6.2-3.6-7.1 4.1 6.2 3.6 7.1-4.1zm-8.8 5.1l-6.2-3.6-7.1 4.1 6.2 3.6 7.1-4.1zm-8.8 5l-6.2-3.6-7.1 4.1 6.2 3.6 7.1-4.1zm-8.9 5.1l-6.2-3.6-7.1 4.1 6.2 3.6 7.1-4.1zm-8.8 5.1l-6.2-3.6-7.1 4.1 6.2 3.6 7.1-4.1zm-8.8 5.1l-6.2-3.6-7.1 4.1 6.2 3.6 7.1-4.1zm-15.1 1.5l-7.1 4.1 6.2 3.6 7.1-4.1-6.2-3.6zm113.1-48.6l7.1-4.1-6.2-3.6-7.1 4.1 6.2 3.6zm-1.7.9l-6.2-3.6-7.1 4.1 6.2 3.6 7.1-4.1zm-8.8 5.1l-6.2-3.6-7.1 4.1 6.2 3.6 7.1-4.1zm-8.9 5.1l-6.2-3.6-7.1 4.1 6.2 3.6 7.1-4.1zm-8.8 5.1l-6.2-3.6-7.1 4.1 6.2 3.6 7.1-4.1zm-8.8 5.1l-6.2-3.6-7.1 4.1 6.2 3.6 7.1-4.1zm-8.8 5.1l-6.2-3.6-7.1 4.1 6.2 3.6 7.1-4.1zm-8.9 5L582 154l-7.1 4.1 6.2 3.6 7.1-4.1zm-8.8 5.1l-6.2-3.6-7.1 4.1 6.2 3.6 7.1-4.1zm-8.8 5.1l-6.2-3.6-7.1 4.1 6.2 3.6 7.1-4.1zm-8.8 5.1l-6.2-3.6-7.1 4.1 6.2 3.6 7.1-4.1zm-8.8 5l-6.2-3.6-7.1 4.1 6.2 3.6 7.1-4.1zm-15.1 1.5l-7.1 4.1 6.2 3.6 7.1-4.1-6.2-3.6zm113.9-56.3l-7.1 4.1 6.2 3.6 7.1-4.1-6.2-3.6zm-15.9 9.2l6.2 3.6 7.1-4.1-6.2-3.6-7.1 4.1zm-8.8 5.1l6.2 3.6 7.1-4.1-6.2-3.6-7.1 4.1zm-8.8 5l6.2 3.6 7.1-4.1-6.2-3.6-7.1 4.1zm-8.8 5.1l6.2 3.6 7.1-4.1-6.2-3.6-7.1 4.1zm-8.9 5.1l6.2 3.6 7.1-4.1-6.2-3.6-7.1 4.1zm-1.7 1l-8.8 5.1-1.7 1-7.1 4.1-3.6 2.1-5.2 3-15.9 9.1 6.2 3.6 10.8-6.2 5.1-2.9 5.4-3.1 10.5-6 10.7-6.2-6.4-3.6zm-51.2 29.5l6.2 3.6 7.1-4.1-6.2-3.6-7.1 4.1zm-8.8 5.1l6.2 3.6 7.1-4.1-6.2-3.6-7.1 4.1zm-44.6-13.7l-6.2-3.6-7.1 4.1 6.2 3.6 7.1-4.1zm-8.9 5.1l-6.2-3.6-7.1 4.1 6.2 3.6 7.1-4.1zm-8.8 5.1l-6.2-3.6-7.1 4.1 6.2 3.6 7.1-4.1zm12.4-5.1l6.2 3.6 7.1-4.1-6.2-3.6-7.1 4.1zm-8.8 5.1l6.2 3.6 7.1-4.1-6.2-3.6-7.1 4.1zm-8.9 5.1l6.2 3.6 7.1-4.1-6.2-3.6-7.1 4.1zm25.8-5.5l6.2 3.6 7.1-4.1-6.2-3.6-7.1 4.1zm-8.9 5.1l6.2 3.6 7.1-4.1-6.2-3.6-7.1 4.1zm-8.8 5.1l6.2 3.6 7.1-4.1-6.2-3.6-7.1 4.1zm39-6l-6.2-3.6-7.1 4.1 6.2 3.6 7.1-4.1zm-8.8 5.1l-6.2-3.6-7.1 4.1 6.2 3.6 7.1-4.1zm-8.8 5.1l-6.2-3.6-7.1 4.1 6.2 3.6 7.1-4.1zm25.7-5.5l-6.2-3.6-7.1 4.1 6.2 3.6 7.1-4.1zm-8.9 5.1l-6.2-3.6-7.1 4.1 6.2 3.6 7.1-4.1zm-8.8 5l-6.2-3.6-7.1 4.1 6.2 3.6 7.1-4.1zm12.4-5l6.2 3.6 7.1-4.1-6.2-3.6-7.1 4.1zm-8.8 5.1l6.2 3.6 7.1-4.1-6.2-3.6-7.1 4.1zm44.3-127L507.8 48c-2.1-1.2-4.6-1.2-6.7 0l-116 67c-1.4.8-1.9 2.6-1.1 4 .3.4.6.8 1.1 1.1l47.8 27.8c2.5 1.4 5.5 1.4 8 0L556.8 81c1.3-.7 1.7-2.3 1-3.6-.4-.4-.7-.8-1.1-1h0z"/></g><path d="M556.7 81l-115.9 66.9c-2.5 1.4-5.5 1.4-8 0l-47.7-27.8c-.9-.5-1.5-1.5-1.5-2.5v6c0 1 .6 2 1.5 2.5l47.8 27.8c2.5 1.4 5.5 1.4 8 0L556.8 87c.8-.5 1.3-1.4 1.3-2.3h0v-5.9c-.1.8-.6 1.7-1.4 2.2h0z" fill="#07304b"/><path d="M556.7 81l-115.8 66.9c-1.1.6-2.4 1-3.6 1v6c1.3 0 2.5-.4 3.6-1L556.8 87c.8-.5 1.3-1.4 1.3-2.3v-5.9c-.1.8-.6 1.7-1.4 2.2z" fill="#0b3b56"/><path d="M429.8,80.9L520,28.7v44.7l-90.2,52.1V80.9z" fill="#0f4463"/><g fill="#07304b"><path d="M507.4 21.5l12.6 7.2-90.2 52.2-12.6-7.2 90.2-52.2z"/><path d="M417.2,73.7l12.6,7.2v44.6l-12.6-7.3V73.7z"/></g><path d="M611.1-198.7L337-39.7V162L611.1 2.4v-201.1z" fill="#3a3a3a"/><path d="M337-39.7l-9.1-5.5v201.7l9.1 5.5V-39.7z" fill="#07304b"/><path d="M611.1-198.7l-9.3-5.4L327.9-45.2l9.1 5.5 274.1-159z" fill="#1f5e77"/><path d="M337-39.7V162L611.1 2.4v-201.1L337-39.7zm6.5 3.7l261.1-151.5V-1.4L343.5 150.7V-36z" fill="#0b3b56"/><use xlink:href="#C" fill="#f5d012"/><g fill="#edf0f8"><path d="M577-147v5.4l-22.5 13v-5.3L577-147zm0 9.7v5.4l-22.5 13v-5.4l22.5-13zm-169.6 113v-5.3l138.7-80v5.4L407.4-24.3zM577-127.5v5.4l-22.5 13v-5.3l22.5-13.1zm0 9.8v5.4l-22.5 13v-5.4l22.5-13z"/></g><path d="M407.4-14.6V-20l138.7-80v5.4l-138.7 80z" fill="#ebf2eb"/><path d="M577-88.4v5.4l-22.5 13v-5.4l22.5-13z" fill="#edf0f8"/><path d="M577-78.6v5.4l-22.5 13v-5.4l22.5-13z" fill="#f5d012"/><path d="M577-39.5v5.4l-22.5 13v-5.3L577-39.5zm0 9.7v5.3l-22.5 13v-5.3l22.5-13z" fill="#edf0f8"/><path d="M458.6,38.6l87.5-50.5v5.3l-87.5,50.5V38.6z" fill="#ebf2eb"/><path d="M454 41.2v5.4l-46.6 26.8V68L454 41.2zm48.1-37.5l44-25.4v5.3L502.1 9V3.7zm-4.6 2.6v5.4l-90.1 52v-5.4l90.1-52zm-78.2 15.8v5.3l-11.9 6.8v-5.4l11.9-6.7z" fill="#edf0f8"/><path d="M483.8-24.8l62.3-35.9v5.4l-62.3 35.9v-5.4z" fill="#ed5561"/><path d="M509.3-117.8l36.8-21.2v5.4l-36.8 21.2v-5.4zM449-83l55.7-32.1v5.4L449-77.6V-83zm32.5-8.9l39.2-22.6v5.4l-39.2 22.6v-5.4z" fill="#edf0f8"/><path d="M440.3-68.1l36.5-21.1v5.4l-36.5 21.1v-5.4z" fill="#ed5561"/><path d="M435.7-65.5v5.4l-28.3 16.3v-5.4l28.3-16.3z" fill="#edf0f8"/><path d="M538.8-115.3v5.3l-29.5 17v-5.3l29.5-17z" fill="#ed5561"/><path d="M419-46.1l85.7-49.5v5.3L419-40.8v-5.3zm49 1l56-32.3v5.4l-56 32.3v-5.4zm-49 28.3l44.5-25.7v5.3L419-11.5v-5.3zm4.9 26.5l55.3-31.9v5.4L423.9 15V9.7z" fill="#edf0f8"/><path d="M454 2.1v5.3l-30.1 17.4v-5.3L454 2.1z" fill="#50e85e"/><path d="M535.2-44.8l10.8-6.3v5.4l-10.8 6.3v-5.4zM514.9-33v5.4L458.6 4.8V-.6L514.9-33zm4.6-2.7l11.1-6.4v5.4l-11.1 6.4v-5.4zM469 3.2l61.6-35.5v5.3L469 8.5V3.2z" fill="#edf0f8"/><g fill="#ebf2eb"><path d="M354.1-24.6l7.4-4.3c.3-.2.6-.1.7.2 0 .1.1.2.1.3v8.9a1.1 1.1 0 0 1-.6 1l-7.4 4.3c-.3.2-.6.1-.8-.2 0-.1-.1-.2-.1-.3v-8.8c.1-.4.3-.8.7-1.1h0zm0 13.3l7.4-4.3c.3-.2.6-.1.7.2 0 .1.1.2.1.3v8.9a1.1 1.1 0 0 1-.6 1l-7.4 4.3c-.3.2-.6.1-.8-.2 0-.1-.1-.2-.1-.3v-8.8c.1-.5.3-.9.7-1.1h0zm0 13.3l7.4-4.3c.3-.1.6-.1.7.2 0 .1.1.2.1.3v8.9a1.1 1.1 0 0 1-.6 1l-7.4 4.3c-.3.2-.6.1-.8-.2 0-.1-.1-.2-.1-.3V3.1c.1-.5.3-.9.7-1.1h0zm0 13.2l7.4-4.3c.3-.1.6-.1.7.2 0 .1.1.2.1.3v8.9a1.1 1.1 0 0 1-.6 1l-7.4 4.3c-.3.2-.6.1-.8-.2 0-.1-.1-.2-.1-.3v-8.8c.1-.4.3-.9.7-1.1h0zm0 13.3l7.4-4.3c.3-.1.6-.1.7.2 0 .1.1.2.1.3v8.9a1.1 1.1 0 0 1-.6 1l-7.4 4.3c-.3.2-.6.1-.8-.2 0-.1-.1-.2-.1-.3v-8.8c.1-.5.3-.9.7-1.1h0zm0 13.2l7.4-4.3c.3-.1.6-.1.7.2 0 .1.1.2.1.3v8.9a1.1 1.1 0 0 1-.6 1l-7.4 4.3c-.3.2-.6.1-.8-.2 0-.1-.1-.2-.1-.3v-8.8c.1-.4.3-.8.7-1.1h0zm0 13.3l7.4-4.3c.3-.2.6-.1.7.2 0 .1.1.2.1.3v8.9a1.1 1.1 0 0 1-.6 1l-7.4 4.3c-.3.2-.6.1-.8-.2 0-.1-.1-.2-.1-.3v-8.8c.1-.5.3-.9.7-1.1h0zm0 13.3l7.4-4.3c.3-.2.6-.1.7.2 0 .1.1.2.1.3v8.9a1.1 1.1 0 0 1-.6 1l-7.4 4.3c-.3.2-.6.1-.8-.2 0-.1-.1-.2-.1-.3v-8.8c.1-.5.3-.9.7-1.1h0zm0 13.2l7.4-4.3c.3-.2.6-.1.7.2 0 .1.1.2.1.3v8.9a1.1 1.1 0 0 1-.6 1l-7.4 4.3c-.3.2-.6.1-.8-.2 0-.1-.1-.2-.1-.3v-8.8c.1-.5.3-.9.7-1.1h0zm0 13.3l7.4-4.3c.3-.1.6-.1.7.2 0 .1.1.2.1.3v8.9a1.1 1.1 0 0 1-.6 1l-7.4 4.3c-.3.2-.6.1-.8-.2 0-.1-.1-.2-.1-.3v-8.8c.1-.5.3-.9.7-1.1h0zm0 13.2l7.4-4.3c.3-.1.6-.1.7.2 0 .1.1.2.1.3v8.9a1.1 1.1 0 0 1-.6 1l-7.4 4.3c-.3.2-.6.1-.8-.2 0-.1-.1-.2-.1-.3v-8.8c.1-.4.3-.9.7-1.1h0zm0 13.3l7.4-4.3c.3-.1.6-.1.7.2 0 .1.1.2.1.3v8.9a1.1 1.1 0 0 1-.6 1l-7.4 4.3c-.3.2-.6.1-.8-.2 0-.1-.1-.2-.1-.3v-8.8c.1-.5.3-.9.7-1.1h0z"/></g><path d="M688.7 53.7s12.7-5.7 27.6 4.2 24.9 23.7 18.9 28.7c-6.1 5.1-17.8 10.5-25.5 7.8s-45.5-24.9-21-40.7z" fill="#0f4463"/><path d="M353.1 203.8h11v11.9h-11c-4.1 0-7.4 3.3-7.4 7.4v19.3c0 4.1 3.3 7.4 7.4 7.4h16.1v11.9h-16.1c-10.6 0-19.3-8.6-19.3-19.2V223c0-10.6 8.7-19.3 19.3-19.2h0z" fill="#a7bcce"/><path d="M363.3 193.9v66.9c0 10.4 15.5 18.8 34.5 18.8s34.5-8.4 34.5-18.8v-66.9h-69z" fill="#bbcee1"/><path d="M432.3 193.9c0 10.4-15.5 18.8-34.5 18.8s-34.5-8.4-34.5-18.8 15.5-18.8 34.5-18.8 34.5 8.5 34.5 18.8z" fill="#fff"/><path d="M425.4 193.6c0 8.1-12.4 14.7-27.6 14.7s-27.6-6.6-27.6-14.7 12.4-14.7 27.6-14.7c15.3 0 27.6 6.7 27.6 14.7z" fill="#a7bcce"/><path d="M397.5 187.9c12.1 0 22.4 4.1 26.1 9.9-3.7 5.7-14 9.9-26.1 9.9s-22.3-4.1-26.1-9.9c3.7-5.8 14-9.9 26.1-9.9z" fill="#52281c"/><path d="M385.4 211.9v66.9c-6.8-1.5-12.5-4.2-16.3-7.5v-66.9c3.9 3.4 9.5 6.1 16.3 7.5h0z" fill="#a7bcce"/><path d="M647.2-84.6l39.5-22.8c1.2-.7 2.8-.6 4 .2h0l8.7 5-4 5.5-1.5 1.7v39.1c0 2.3-1.2 4.5-3.3 5.7L661-33.1l-.3 1.6-6 8.5-9.3-5.5h-.1c-.9-.5-1.4-1.5-1.4-2.5v-47.7c-.1-2.5 1.2-4.7 3.3-5.9h0z" fill="#00dd05"/><path d="M656.4-79.2l40-23.1c1.4-.8 3.2-.3 4 1.1.3.4.4.9.4 1.5v47.9c0 2.3-1.2 4.5-3.3 5.7l-40 23.1c-1.4.8-3.3.3-4.1-1.1-.3-.5-.4-1-.4-1.5v-47.7c0-2.4 1.3-4.7 3.4-5.9h0z" fill="#00a508"/><path d="M653-25.6v-47.7c0-.8.2-1.6.5-2.3l-9.3-5.3c-.3.7-.4 1.5-.4 2.2V-31c0 1 .5 2 1.4 2.5h.1l9.2 5.4c-.9-.4-1.5-1.4-1.5-2.5z" fill="#006602"/><path d="M687.7-82.1c.5.8.8 1.7.7 2.6v5.8c0 1.1.4 1.7 1 1.7 1.1 0 2.1-.4 3-1v4c-1.1.6-2.1 1.4-3 2.4-.7.9-1.1 2-1 3.1v5.7c0 1.2-.2 2.3-.6 3.4-.5 1-1.2 2-2 2.7-1.2 1-2.5 2-3.9 2.7v-3.8c.9-.5 1.6-1.1 2.2-1.9.4-.7.6-1.5.6-2.3v-5.6c0-2.2 1.2-4.1 3.6-5.9v-.2c-2.4 1-3.6.3-3.6-2v-5.4c0-.9-.2-1.4-.6-1.6s-1.1 0-2.2.6v-3.8c1.2-.8 2.5-1.3 3.8-1.7.7-.2 1.4 0 2 .5zM665.4-58c.7-.8 1-1.9 1-2.9v-5.8c-.1-1.7.5-3.4 1.5-4.8 1.4-1.7 3.1-3.1 5.1-4.1v3.8c-.9.5-1.6 1.1-2.2 1.9-.4.7-.6 1.5-.6 2.3v5.4c0 2.3-1.2 4.4-3.6 6.2v.2c.8-.4 1.8-.5 2.7-.3.6.3.9 1 .9 2.1v5.6c0 .9.2 1.4.6 1.6s1.1 0 2.2-.6v3.8c-2.4 1.4-4.1 2-5.1 1.8s-1.5-1.2-1.5-3.1v-5.7c0-1.2-.4-1.8-1-1.9-1.1 0-2.1.4-3 1v-4c1.1-.7 2.1-1.5 3-2.5h0z" fill="#fff"/><path d="M647-164.9l38.2-22.1c1.2-.7 2.7-.6 3.8.2h0l8.4 4.8-3.9 5.3-1.5 1.7v37.9c0 2.3-1.2 4.3-3.2 5.5l-28.6 16.5-.3 1.6-5.8 8.2-9-5.3h-.1c-.9-.5-1.4-1.5-1.4-2.5v-46.1c.1-2.4 1.3-4.6 3.4-5.7h0z" fill="#ffc73b"/><path d="M655.9-159.6l38.7-22.3c1.4-.8 3.1-.3 3.9 1 .2.4.4.9.4 1.4v46.3c0 2.3-1.2 4.3-3.2 5.5L657-105.3c-1.4.8-3.2.3-4-1.1-.3-.4-.4-.9-.4-1.5V-154c0-2.3 1.3-4.4 3.3-5.6h0z" fill="#f9b800"/><path d="M654.1-105.4h0z" fill="#bbcee1"/><path d="M652.6-107.9V-154c0-.8.2-1.5.4-2.2l-9-5.2c-.3.7-.4 1.4-.4 2.1v46.1c0 1 .5 1.9 1.4 2.5h.1l8.9 5.2c-.8-.4-1.4-1.4-1.4-2.4z" fill="#ce8900"/><g fill="#fff"><path d="M693.9-152.1l-12 13v-3.3l8.3-8.7-8.3.4v-3.3h12v1.9zm-13.2 16.5l-3.3 1.9-6.7-16.5 3.4-1.9 6.6 16.5zm-11.2-11.3v3.3l-8.3 9.2 8.3-.9v3.3l-12 .9v-2l12-13.8z"/><g transform="matrix(.966 -.259 .259 .966 -247.89 442.67)" opacity=".2"><use xlink:href="#D"/><use xlink:href="#E"/></g><path d="M665.7-225.2v2.3l-9.7 5.6v-2.3l9.7-5.6zm0 4.2v2.3l-9.7 5.6v-2.3l9.7-5.6zm0 4.2v2.3l-9.7 5.6v-2.3l9.7-5.6zm0 4.2v2.3l-9.7 5.6v-2.3l9.7-5.6zm0 4.2v2.3l-9.7 5.6v-2.3l9.7-5.6zm0 12.6v2.3l-9.7 5.6v-2.3l9.7-5.6z"/></g><path d="M644.8-248l39.2-22.6c1.2-.7 2.8-.6 3.9.2h0l8.6 5-4 5.4-1.5 1.7v38.9c0 2.3-1.2 4.5-3.2 5.6l-29.4 17-.3 1.6-6 8.4-9.2-5.4h-.1c-.9-.5-1.4-1.5-1.4-2.5V-242c.1-2.6 1.4-4.8 3.4-6z" fill="#f94848"/><path d="M654-242.6l39.7-22.9c1.4-.8 3.2-.3 4 1.1.3.4.4.9.4 1.4v47.5c0 2.3-1.2 4.5-3.2 5.6L655.2-187c-1.4.8-3.2.3-4.1-1.1-.3-.5-.4-1-.4-1.5v-47.3c0-2.3 1.2-4.5 3.3-5.7h0z" fill="#f70000"/><path d="M652.2-186.9h0z" fill="#bbcee1"/><path d="M650.7-189.5v-47.3c0-.8.2-1.6.5-2.3l-9.2-5.3c-.3.7-.4 1.4-.4 2.2v47.3c0 1 .5 2 1.4 2.5h.1l9.1 5.4c-1-.5-1.5-1.4-1.5-2.5h0z" fill="#c40000"/><g fill="#fff"><path d="M662.4-211.8c.7-.4 1.3-.9 1.8-1.4l1.8-1.9 1.1 2.5c-1.3 1.6-2.9 2.9-4.7 4-1.2.8-2.6 1.2-4 1.2-1.1-.1-2.1-.8-2.6-1.8-.7-1.4-1-2.9-.9-4.5-.1-2.8.6-5.6 1.8-8.1 1.2-2.3 3.1-4.3 5.4-5.5 1.3-.8 2.9-1.4 4.4-1.6v3.3c-1.4.2-2.8.7-4.1 1.4-2.7 1.6-4 4.4-4 8.5 0 2 .4 3.3 1.1 4s1.6.6 2.9-.1h0zm26.2-27.8l2.4-1.4v4.9l4.3-2.5v2.8l-4.3 2.5v4.9l-2.4 1.4v-4.9l-4.3 2.5v-2.8l4.3-2.5v-4.9zm-13.4 12.8v-4.9l2.4-1.4v4.9l4.3-2.5v2.8l-4.3 2.5v4.9l-2.4 1.4v-4.9l-4.3 2.5v-2.8l4.3-2.5z"/><g transform="matrix(.966 -.259 .259 .966 424.69 -127)" opacity=".2"><use xlink:href="#D"/><use xlink:href="#E"/></g></g></g></svg>