<svg xmlns="http://www.w3.org/2000/svg" xmlns:xlink="http://www.w3.org/1999/xlink" viewBox="704 -284 1920 1080" width="1920" height="1080"><style><![CDATA[.d{fill:#edf0f8}.e{fill:#fff}.f{fill:#ebf2eb}.g{fill:#bbcee1}.h{fill:#0f4463}.i{fill:#0b3b56}.j{fill:#07304b}.k{fill:#ed5561}.l{fill:#a7bcce}.m{opacity:.2}.n{fill:#1f5e77}.o{fill:#f5d012}]]></style><defs><path id="A" d="M704-284h1920V796H704z"/><path id="B" d="M1439.3 71.8v8.4l-35.2 20.3v-8.4l35.2-20.3z"/><path id="C" d="M1089.7 231.7l11.6-6.7c.4-.2.9-.1 1.2.3.1.1.1.3.1.4v13.9c0 .7-.4 1.3-.9 1.6l-11.6 6.7c-.4.2-.9.1-1.2-.3-.1-.1-.1-.3-.1-.4v-13.8c-.1-.7.3-1.4.9-1.7z"/><path id="D" d="M1089.7 252.4l11.6-6.7c.4-.2.9-.1 1.2.3.1.1.1.3.1.4v13.9c0 .7-.4 1.3-.9 1.6l-11.6 6.7c-.4.2-.9.1-1.2-.3-.1-.1-.1-.3-.1-.4v-13.8c-.1-.7.3-1.3.9-1.7z"/><path id="E" d="M1089.7 314.6l11.6-6.7c.4-.2.9-.1 1.2.3.1.1.1.3.1.4v13.9c0 .7-.4 1.3-.9 1.6l-11.6 6.7c-.4.2-1 .1-1.2-.3-.1-.1-.1-.3-.1-.4v-13.8c-.1-.7.3-1.3.9-1.7z"/><path id="F" d="M2595.5 1822.5v6.5l-27.3 15.8v-6.5l27.3-15.8z"/><path id="G" d="M2613 1812.4l9-5.2c.3-.2.7-.1.9.2.1.1.1.2.1.3v10.8c0 .5-.3 1-.7 1.3l-9 5.2c-.3.2-.7.1-.9-.2-.1-.1-.1-.2-.1-.3v-10.7c-.1-.6.2-1.1.7-1.4h0z"/><path id="H" d="M2613 1876.9l9-5.2c.3-.2.7-.1.9.2.1.1.1.2.1.3v10.8c0 .5-.3 1-.7 1.3l-9 5.2c-.3.2-.7.1-.9-.3-.1-.1-.1-.2-.1-.3v-10.7c-.1-.6.2-1.1.7-1.3z"/><path id="I" d="M827.7-309.3v-31.8l-23.2-3.9c-1.8-7-4.6-13.7-8.3-19.9l13.7-19.2-22.5-22.5-19.2 13.7c-6.2-3.7-12.9-6.5-19.9-8.3l-3.9-23.2h-31.8l-3.9 23.2c-7 1.8-13.7 4.6-19.9 8.3l-19.2-13.7-22.2 22.6 13.7 19.2c-3.7 6.2-6.5 12.9-8.3 19.9l-23.2 3.9v31.8l23.2 3.9c1.8 7 4.6 13.7 8.3 19.9l-13.7 19.2 22.5 22.5 19.2-13.7c6.2 3.7 12.9 6.5 19.9 8.3l3.9 23.2h31.8l3.9-23.2c7-1.8 13.7-4.6 19.9-8.3l19.2 13.7 22.5-22.5-13.7-19.2c3.7-6.2 6.5-12.9 8.3-19.9l22.9-4zm-30.6-.7c-1.8 7.9-4.9 15.5-9.3 22.4l-1.5 2.4 12.8 18-12.6 12.6-18-12.8-2.3 1.5c-6.9 4.4-14.4 7.5-22.4 9.3l-2.7.6-3.6 21.7h-17.8l-3.6-21.7-2.7-.6c-7.9-1.8-15.5-4.9-22.4-9.3l-2.3-1.5-18 12.8-12.6-12.6 12.8-18-1.5-2.4c-4.4-6.9-7.5-14.4-9.3-22.4l-.6-2.7-21.7-3.6v-17.8l21.7-3.6.6-2.7c1.8-7.9 4.9-15.5 9.3-22.4l1.5-2.4-12.8-18 12.6-12.6 18 12.8 2.3-1.5c6.9-4.4 14.4-7.5 22.4-9.3l2.7-.6 3.6-21.7h17.8l3.6 21.7 2.7.6c7.9 1.8 15.5 4.9 22.4 9.3l2.3 1.5 18-12.8 12.6 12.6-12.8 18 1.5 2.4c4.4 6.9 7.5 14.4 9.3 22.4l.6 2.7 21.7 3.6v17.8l-21.7 3.6-.6 2.7z"/><path id="J" d="M728.7-366.5c-22.8 0-41.3 18.5-41.3 41.3s18.5 41.3 41.3 41.3 41.3-18.5 41.3-41.3c-.1-22.8-18.5-41.3-41.3-41.3zm0 74.3c-18.2 0-33-14.8-33-33s14.8-33 33-33 33 14.8 33 33-14.8 33-33 33z"/></defs><clipPath id="K"><use xlink:href="#A"/></clipPath><g clip-path="url(#K)"><g transform="translate(-295.76 -249.98)"><linearGradient id="L" gradientUnits="userSpaceOnUse" x1="1661.878" y1="-301.796" x2="617.417" y2="1112.031"><stop offset="0" stop-color="#2ba6f8"/><stop offset="1" stop-color="#090909"/><stop offset="1"/></linearGradient><path d="M2228.8-160s-279 6.1-623.6-104.3 1.1 276.3 144.9 361.1c90.8 45.5 117.6 133.9 111.6 216.2-7.9 108-166.2 112-298.9 180.6-320.5 165.8 41.6 27.7 163.7 107S1774.1 739 1605.2 733c-364.8-13.1-243.8 110.3-182.9 166.2s50.5 183.7-236.7 97.3-179.2 122.2-179.2 122.2H704V-159.9l1524.8-.1z" fill="url(#L)"/><linearGradient id="M" gradientUnits="userSpaceOnUse" x1="1169.924" y1="157.18" x2="594.493" y2="627.736"><stop offset="0" stop-color="#2ba6f8"/><stop offset="1"/></linearGradient><path d="M1042.7-160s412.6-21.5 486 249.6c80 295.4-175.9 434.3-262.8 366.5-86.8-67.8-90.8-160 44.4-220.8s121.6-248.3-174-201.5-329.7 422.8-115.6 512.8 161.9 195.9-68.4 308.5-104.4 263.5-104.4 263.5H704V-159.9l338.7-.1z" fill="url(#M)"/></g><path d="M1400.2 95.9h0z" class="g"/><g opacity=".4" class="e"><path d="M1457.3 141.4v4.1l-35.3 20.3v-4.1l35.3-20.3zm32.9-26.4v4.1l-68.2 39.3v-4.1l68.2-39.3zm-59.2 12v4.1l-9 5.2v-4.1l9-5.2zm15.9-68.4l27.6-15.9v4l-27.6 16v-4.1zm-3.5 2v4L1422 77v-4.1l21.4-12.3zm-12.7 36.9l33.7-19.4v4.1l-33.7 19.4v-4.1zm3.8 20l41.9-24.1v4l-41.9 24.2v-4.1zm22.8-5.7v4.1l-22.8 13.2V125l22.8-13.2z"/></g><path d="M1267.1 96.8l52.7-30.4c1.8-1.1 4.2-.4 5.3 1.4.3.6.5 1.3.5 1.9v63.1c0 3.1-1.6 5.9-4.3 7.4l-52.7 30.5c-1.9 1.1-4.3.4-5.4-1.5-.3-.6-.5-1.3-.5-2v-62.8c0-3.1 1.7-6 4.4-7.6h0z" enable-background="new" class="e m"/><path d="M937.1 344.7l.1.1c0-.1-.1-.1-.1-.1zM1089 179.5h0zm151.3-161.4l.1.1c0-.1-.1-.1-.1-.1z" class="g"/><g class="f"><path d="M1422.7 144l5.6-3.2c.2-.1.4 0 .6.1 0 .1.1.1.1.2v6.7c0 .3-.2.6-.5.8l-5.6 3.2c-.2.1-.5 0-.6-.2 0-.1-.1-.1-.1-.2v-6.7c0-.2.2-.5.5-.7h0zm0 10l5.6-3.2c.2-.1.4 0 .6.1 0 .1.1.1.1.2v6.7c0 .3-.2.6-.5.8l-5.6 3.2c-.2.1-.5 0-.6-.2 0-.1-.1-.1-.1-.2v-6.7c0-.2.2-.5.5-.7h0zm0 10.1l5.6-3.2c.2-.1.4 0 .6.1 0 .1.1.1.1.2v6.7c0 .3-.2.6-.5.8l-5.6 3.2c-.2.1-.5 0-.6-.2 0-.1-.1-.1-.1-.2v-6.7c0-.3.2-.6.5-.7h0zm0 10l5.6-3.2c.2-.1.4 0 .6.2 0 .1.1.1.1.2v6.7c0 .3-.2.6-.5.8l-5.6 3.2c-.2.1-.5 0-.6-.2 0-.1-.1-.1-.1-.2v-6.7c0-.3.2-.6.5-.8z"/></g><g opacity=".4" class="e"><path d="M1159.4 179.6v4l-17 9.8v-4.1l17-9.7zm0 7.4v4.1l-17 9.8v-4l17-9.9zm0 7.4v4.1l-17 9.8v-4.1l17-9.8zm0 7.4v4.1l-17 9.8v-4.1l17-9.8zm0 7.4v4.1l-17 9.8V219l17-9.8zm0 22.2v4.1l-17 9.8v-4.1l17-9.8zm0 7.4v4.1l-17 9.8v-4l17-9.9zm0 29.6v4.1l-17 9.8v-4l17-9.9zm0 7.4v4l-17 9.8v-4.1l17-9.7zm-89.6 51.7l66.2-38.2v4l-66.2 38.2v-4zm32.9-26.4l33.3-19.2v4l-33.3 19.2v-4zm-13.9-21.6l47.2-27.2v4.1l-47.2 27.2v-4.1zm19.4-70.3l27.8-16.1v4l-27.8 16.1v-4zm-45.7 26.3l42.2-24.3v4l-42.2 24.4v-4.1zm24.6-6.8l29.7-17.1v4.1l-29.7 17.1v-4.1zm-31.2 18l27.6-15.9v4l-27.6 15.9v-4zm74.6-35.7v4.1l-22.4 12.9v-4.1l22.4-12.9zm-53.6 53.2l42.4-24.5v4.1l-42.4 24.5v-4.1zm50.9.2l8.2-4.7v4l-8.2 4.7v-4zm-15.4 8.8v4l-42.6 24.7v-4l42.6-24.7zm3.5-2l8.4-4.8v4.1l-8.4 4.8v-4.1zm-38.2 29.5l46.6-26.9v4l-46.6 26.9v-4z"/></g><path d="M1555.4 127.9l64.8-37.4c2-1.2 4.6-1.1 6.5.3h0l14.2 8.2-6.6 9-2.5 2.8V175c0 3.8-2 7.4-5.3 9.3l-48.5 28-.5 2.7-9.9 13.9-15.2-8.9h-.1l-.1-.1c-1.4-.9-2.3-2.5-2.3-4.2v-78.1c0-4.1 2.1-7.7 5.5-9.7z" fill="#00dd05"/><path d="M1570.6 136.8l65.6-37.8c2.3-1.3 5.2-.5 6.6 1.8.4.7.6 1.6.6 2.4v78.5c0 3.8-2 7.4-5.3 9.3l-65.5 37.9c-2.4 1.4-5.4.6-6.7-1.8-.4-.7-.7-1.6-.7-2.5v-78.1c-.2-4.1 2-7.7 5.4-9.7h0z" fill="#00a508"/><path d="M1565 224.5v-78.1c0-1.3.3-2.6.7-3.8l-15.2-8.8c-.4 1.2-.7 2.4-.7 3.6v78.1c0 1.7.9 3.3 2.3 4.2h0l.1.1h.1l15.1 8.9c-1.4-.9-2.4-2.5-2.4-4.2h0z" fill="#006602"/><path d="M1621.9 131.9c.7.7 1.1 2.2 1.1 4.3v9.6c0 1.8.6 2.7 1.7 2.9 1.1.1 2.8-.4 4.9-1.6v6.5c-1.9 1-3.5 2.4-4.9 4-1.1 1.5-1.7 3.3-1.7 5.1v9.3c.1 1.9-.3 3.8-1 5.5-.8 1.7-1.9 3.2-3.3 4.5-1.9 1.7-4.1 3.2-6.3 4.5v-6.2c1.4-.8 2.6-1.8 3.5-3.2.6-1.1 1-2.4.9-3.7v-9.3c0-3.5 1.9-6.8 5.9-9.7v-.3c-3.9 1.6-5.8.5-5.9-3.3v-8.9c0-1.4-.3-2.3-1-2.6s-1.8 0-3.5.9V134c2-1.2 4.1-2.2 6.3-2.8 1.5-.3 2.6-.1 3.3.7zm-36.6 39.5c1.1-1.4 1.7-3.1 1.7-4.8V157c-.1-2.8.8-5.5 2.4-7.8 1.6-2.2 4.4-4.4 8.4-6.7v6.2c-1.4.8-2.6 1.8-3.5 3.1-.6 1.1-1 2.4-.9 3.7v8.9c-.1 3.8-2 7.2-5.9 10.1v.3c1.9-.8 3.4-.9 4.4-.4s1.5 1.6 1.5 3.4v9.2c0 1.4.3 2.3.9 2.6s1.8 0 3.5-1v6.2c-4 2.3-6.7 3.3-8.4 3-1.6-.3-2.4-2-2.4-5v-9.3c0-1.9-.6-3-1.7-3.1-1.1-.2-2.7.4-4.9 1.6v-6.5c1.9-1.1 3.5-2.5 4.9-4.1h0z" class="e"/><path d="M1555-3.8l62.7-36.2c2-1.1 4.4-1 6.3.2h0l13.8 7.9-6.4 8.7-2.4 2.7v62.1c0 3.7-2 7.1-5.2 9l-46.9 27.1-.5 2.6-9.6 13.4-14.7-8.7h-.1l-.1-.1c-1.4-.9-2.3-2.4-2.2-4V5.3c0-3.7 2-7.2 5.3-9.1h0z" fill="#ffc73b"/><path d="M1569.7 4.8l63.4-36.6c2.2-1.3 5.1-.5 6.3 1.7.4.7.6 1.5.6 2.3v75.9c0 3.7-2 7.1-5.2 9l-63.4 36.7c-2.3 1.3-5.2.5-6.5-1.7-.4-.7-.6-1.5-.6-2.4V14.1c.1-3.9 2.1-7.4 5.4-9.3h0z" fill="#f9b800"/><path d="M1566.8 93.8h0z" class="g"/><path d="M1564.4 89.6V14c0-1.2.3-2.5.7-3.6l-14.7-8.5c-.4 1.1-.6 2.3-.7 3.5V81c0 1.6.8 3.2 2.2 4h0l.1.1h.1l14.6 8.6c-1.4-.8-2.4-2.4-2.3-4.1h0z" fill="#ce8900"/><g class="e"><path d="M1632 17.1l-19.6 21.3V33l13.5-14.2-13.6.6v-5.5l19.7-.1v3.3zm-21.6 27.1l-5.5 3.2-10.9-27.1 5.5-3.2 10.9 27.1zm-18.3-18.6v5.5l-13.6 15.1 13.6-1.4v5.4l-19.7 1.4v-3.3l19.7-22.7zm-6.3-128.3v3.8l-15.8 9.1v-3.8l15.8-9.1zm0 6.9v3.8l-15.8 9.1v-3.8l15.8-9.1zm0 6.9v3.8L1570-76v-3.8l15.8-9.1zm0 6.9v3.8l-15.8 9.1v-3.8l15.8-9.1zm0 6.9v3.8l-15.8 9.1V-66l15.8-9.1zm0 20.6v3.8l-15.8 9.1v-3.8l15.8-9.1z"/></g><path d="M1551.6-140.1l64.3-37.1c2-1.2 4.5-1.1 6.4.3h0l14.1 8.2-6.6 8.9-2.4 2.8v63.7c0 3.8-2 7.3-5.3 9.2L1574-56.3l-.5 2.7-9.8 13.8-15.1-8.9h-.1l-.1-.1c-1.4-.9-2.3-2.5-2.3-4.1v-77.6c0-4 2.1-7.6 5.5-9.6h0z" fill="#f94848"/><path d="M1566.6-131.2l65.1-37.6a4.76 4.76 0 0 1 6.5 1.8c.4.7.6 1.5.6 2.4v77.9c0 3.8-2 7.3-5.3 9.2l-65.1 37.6c-2.3 1.3-5.3.6-6.7-1.8-.4-.7-.7-1.6-.7-2.4v-77.6c.1-4 2.2-7.6 5.6-9.5h0z" fill="#f70000"/><path d="M1563.6-40h0c.1.1 0 .1 0 0h0z" class="g"/><path d="M1561.1-44.2v-77.6c0-1.3.3-2.5.7-3.7l-15.1-8.7c-.4 1.2-.7 2.4-.7 3.6V-53c0 1.7.9 3.3 2.3 4.1h0l.1.1h.1l15 8.8c-1.4-.7-2.4-2.3-2.4-4.2z" fill="#c40000"/><path d="M1580.3-80.7c1.1-.6 2.1-1.4 2.9-2.3l3-3.1 1.8 4.2c-2.2 2.6-4.8 4.8-7.7 6.6-2.5 1.5-4.7 2.1-6.6 1.9s-3.5-1.3-4.3-3c-1.1-2.3-1.6-4.9-1.5-7.4-.1-4.6.9-9.2 3-13.3 2-3.8 5.1-7 8.8-9.1a17.32 17.32 0 0 1 7.3-2.6v5.4c-2.4.4-4.6 1.1-6.7 2.3-4.4 2.5-6.6 7.2-6.6 14 0 3.3.6 5.4 1.8 6.6 1.1 1 2.7 1 4.8-.2h0zm43-45.6l3.9-2.3v8.1l7-4v4.5l-7 4v8l-3.9 2.3v-8l-7 4v-4.5l7-4v-8.1zm-22 20.9v-8.1l4-2.3v8.1l7-4v4.5l-7 4v8l-4 2.3v-8l-7 4v-4.5l7-4z" class="e"/><path d="M1579.8 465.3l-77.7-45c-3.7-2.1-8.2-2.1-11.8 0l-240.1 138.8c-2.5 1.4-3.3 4.6-1.9 7.1a5.75 5.75 0 0 0 1.9 1.9L1326 612c4.3 2.5 9.7 2.5 14 0l239.8-138.6c2.2-1.3 3-4.1 1.7-6.4a4.62 4.62 0 0 0-1.7-1.7h0z" class="h"/><path d="M1579.8 473.3L1340.1 612c-4.3 2.5-9.7 2.5-14 0l-75.8-43.9c-1.6-.9-2.6-2.6-2.6-4.5v9.3c0 1.8 1 3.5 2.6 4.4l75.8 43.9c4.3 2.5 9.7 2.5 14 0l239.7-138.7c1.5-.8 2.3-2.4 2.3-4.1h0v-9.2c0 1.8-.9 3.3-2.3 4.1h0z" class="i"/><g class="n"><path d="M1503 432.8l-9.7-5.6-11.1 6.4 9.7 5.6 11.1-6.4zm-13.8 8l-9.7-5.6-11.1 6.4 9.7 5.6 11.1-6.4zm-13.8 7.9l-9.7-5.6-11.1 6.4 9.7 5.6 11.1-6.4zm-13.8 8l-9.7-5.6-11.1 6.4 9.7 5.6 11.1-6.4zm-13.8 7.9l-9.7-5.6-11.1 6.4 9.7 5.6 11.1-6.4zm-13.8 8l-9.7-5.6-11.1 6.4 9.7 5.6 11.1-6.4zm-13.8 7.9l-9.7-5.6-11.1 6.4 9.7 5.6 11.1-6.4zm-13.8 7.9l-9.7-5.6-11.1 6.4 9.7 5.6 11.1-6.4zm-13.8 8l-9.7-5.6-11.1 6.4 9.7 5.6 11.1-6.4zm-13.8 7.9l-9.7-5.6-11.1 6.4 9.7 5.6 11.1-6.4zm-13.8 8l-9.7-5.6-11.1 6.4 9.7 5.6 11.1-6.4zm-13.8 7.9l-9.7-5.6-11.1 6.4 9.7 5.6 11.1-6.4zm-23.5 2.3l-11.1 6.4 9.7 5.6 11.1-6.4-9.7-5.6zm176.8-76l11.1-6.4-9.7-5.6-11.1 6.4 9.7 5.6zm-23.5 2.3l9.7 5.6 11.1-6.4-9.7-5.6-11.1 6.4zm-13.8 8l9.7 5.6 11.1-6.4-9.7-5.6-11.1 6.4zm-13.8 7.9l9.7 5.6 11.1-6.4-9.7-5.6-11.1 6.4zm-13.8 7.9l9.7 5.6 11.1-6.4-9.7-5.6-11.1 6.4zm-13.8 8l9.7 5.6 11.1-6.4-9.7-5.6-11.1 6.4zm-13.8 7.9l9.7 5.6 11.1-6.4-9.7-5.6-11.1 6.4zm-13.8 8l9.7 5.6 11.1-6.4-9.7-5.6-11.1 6.4zm-13.8 7.9l9.7 5.6 11.1-6.4-9.7-5.6-11.1 6.4zm-13.8 7.9l9.7 5.6 11.1-6.4-9.7-5.6-11.1 6.4zm-13.8 8l9.7 5.6 11.1-6.4-9.7-5.6-11.1 6.4zm-13.8 7.9l9.7 5.6 11.1-6.4-9.7-5.6-11.1 6.4zm-2.7 1.6l-11.1 6.4 9.7 5.6 11.1-6.4-9.7-5.6zm176.8-76l11.1-6.4-9.7-5.6-11.1 6.4 9.7 5.6zm-23.5 2.3l9.7 5.6 11.1-6.4-9.7-5.6-11.1 6.4zm7 7.2l-9.7-5.6-11.1 6.4 9.7 5.6 11.1-6.4zM1466 472l9.7 5.6 11.1-6.4-9.7-5.6-11.1 6.4zm-13.8 7.9l9.7 5.6 11.1-6.4-9.7-5.6-11.1 6.4zm-13.8 8l9.7 5.6 11.1-6.4-9.7-5.6-11.1 6.4zm-13.8 7.9l9.7 5.6 11.1-6.4-9.7-5.6-11.1 6.4zm-13.8 8l9.7 5.6 11.1-6.4-9.7-5.6-11.1 6.4zm-13.8 7.9l9.7 5.6 11.1-6.4-9.7-5.6-11.1 6.4zm-13.8 8l9.7 5.6 11.1-6.4-9.7-5.6-11.1 6.4zm-13.8 7.9l9.7 5.6 11.1-6.4-9.7-5.6-11.1 6.4zm7 7.2l-9.8-5.6-11.1 6.4 9.7 5.6 11.2-6.4zm-23.5 2.3l-11.1 6.4 9.7 5.6 11.1-6.4-9.7-5.6zm176.8-76l11.1-6.4-9.7-5.6-11.1 6.4 9.7 5.6zm-2.7 1.6l-9.7-5.6-11.1 6.4 9.7 5.6 11.1-6.4zm-13.8 7.9l-9.7-5.6-11.1 6.4 9.7 5.6 11.1-6.4zm-13.8 8l-9.7-5.6-11.1 6.4 9.7 5.6 11.1-6.4zm-13.8 7.9l-9.7-5.6-11.1 6.4 9.7 5.6 11.1-6.4zm-13.8 7.9l-9.7-5.6-11.1 6.4 9.7 5.6 11.1-6.4zm-13.8 8l-9.7-5.6-11.1 6.4 9.7 5.6 11.1-6.4zm-13.8 7.9l-9.7-5.6-11.1 6.4 9.7 5.6 11.1-6.4zm-13.8 8l-9.7-5.6-11.1 6.4 9.7 5.6 11.1-6.4zm-13.8 7.9l-9.7-5.6-11.1 6.4 9.7 5.6 11.1-6.4zm-13.8 7.9l-9.7-5.6-11.1 6.4 9.7 5.6 11.1-6.4zm-13.8 8l-9.7-5.6-11.1 6.4 9.7 5.6 11.1-6.4zm-23.6 2.3l-11.1 6.4 9.7 5.6 11.1-6.4-9.7-5.6zm176.9-76l11.1-6.4-9.7-5.6-11.1 6.4 9.7 5.6zm-2.8 1.6l-9.7-5.6-11.1 6.4 9.7 5.6 11.1-6.4zm-13.8 7.9l-9.7-5.6-11.1 6.4 9.7 5.6 11.1-6.4zm-13.7 7.9l-9.7-5.6-11.1 6.4 9.7 5.6 11.1-6.4zm-13.8 8l-9.7-5.6-11.1 6.4 9.7 5.6 11.1-6.4zm-13.8 7.9l-9.7-5.6-11.1 6.4 9.7 5.6 11.1-6.4zm-13.8 8l-9.7-5.6-11.1 6.4 9.7 5.6 11.1-6.4zm-13.8 7.9l-9.7-5.6-11.1 6.4 9.7 5.6 11.1-6.4zm-13.8 8l-9.7-5.6-11.1 6.4 9.7 5.6 11.1-6.4zm-13.8 7.9l-9.7-5.6-11.1 6.4 9.7 5.6 11.1-6.4zm-13.8 7.9l-9.7-5.6-11.1 6.4 9.7 5.6 11.1-6.4zm-13.8 8l-9.7-5.6-11.1 6.4 9.7 5.6 11.1-6.4zm-23.6 2.3l-11.1 6.4 9.7 5.6 11.1-6.4-9.7-5.6zm178.2-88l-11.1 6.4 9.7 5.6 11.1-6.4-9.7-5.6zm-24.8 14.3l9.7 5.6 11.1-6.4-9.7-5.6-11.1 6.4zm-13.9 7.9l9.7 5.6 11.1-6.4-9.7-5.6-11.1 6.4zm-13.7 8l9.7 5.6 11.1-6.4-9.7-5.6-11.1 6.4zm-13.8 7.9l9.7 5.6 11.1-6.4-9.7-5.6-11.1 6.4zm-13.8 8l9.7 5.6 11.1-6.4-9.7-5.6-11.1 6.4zm-2.8 1.5l-13.8 7.9-2.7 1.6-11.1 6.4-13.8 7.9-8.7 5-16.1 9.3 9.7 5.6 38.7-22.2 10.9-6.3 2.9-1.7 13.8-7.9-9.8-5.6zm-80 46.1l9.7 5.6 11.1-6.4-9.7-5.6-11.1 6.4zm-13.8 8l9.7 5.6 11.1-6.4-9.7-5.6-11.1 6.4zm-69.8-21.4l-9.7-5.6-11.1 6.4 9.7 5.6 11.1-6.4zm-13.8 8l-9.7-5.6-11.1 6.4 9.7 5.6 11.1-6.4zm-13.8 7.9l-9.7-5.6-11.1 6.4 9.7 5.6 11.1-6.4zm19.4-7.8l9.7 5.6 11.1-6.4-9.7-5.6-11.1 6.4zm-13.8 7.9l9.7 5.6 11.1-6.4-9.7-5.6-11.1 6.4zm-13.8 8l9.7 5.6 11.1-6.4-9.7-5.6-11.1 6.4zm40.2-8.6l9.7 5.6 11.1-6.4-9.7-5.6-11.1 6.4zm-13.8 7.9l9.7 5.6 11.1-6.4-9.7-5.6-11.1 6.4zm-13.8 8l9.7 5.6 11.1-6.4-9.7-5.6-11.1 6.4zm61-9.4l-9.7-5.6-11.1 6.4 9.7 5.6 11.1-6.4zm-13.8 8l-9.7-5.6-11.1 6.4 9.7 5.6 11.1-6.4zm-13.8 7.9l-9.7-5.6-11.1 6.4 9.7 5.6 11.1-6.4zm40.2-8.6l-9.7-5.6-11.1 6.4 9.7 5.6 11.1-6.4zm-13.8 8l-9.7-5.6-11.1 6.4 9.7 5.6 11.1-6.4zm-13.8 7.9l-9.7-5.6-11.1 6.4 9.7 5.6 11.1-6.4zm19.4-7.8l9.7 5.6 11.1-6.4-9.7-5.6-11.1 6.4zm-13.8 7.9l9.7 5.6 11.1-6.4-9.7-5.6-11.1 6.4zm69.2-198.6l-76.5-44.4c-3.2-1.9-7.2-1.9-10.5 0L1139 450.9c-2.2 1.3-3 4.1-1.7 6.3a4.62 4.62 0 0 0 1.7 1.7l74.8 43.4c3.8 2.2 8.6 2.2 12.5 0l181.1-104.5c2-1.1 2.7-3.7 1.5-5.6-.3-.6-.9-1.2-1.5-1.6h0z"/></g><path d="M1407.4 397.8l-181.2 104.5a12.66 12.66 0 0 1-12.5 0l-74.8-43.4a4.58 4.58 0 0 1-2.3-4v9.4c0 1.6.9 3.1 2.3 3.9l74.8 43.4c3.8 2.2 8.6 2.2 12.5 0L1407.3 407c1.3-.7 2.1-2.1 2.1-3.6h0v-9.3c0 1.6-.8 2.9-2 3.7z" class="j"/><path d="M1407.4 397.8l-181.2 104.5c-1.7 1-3.7 1.6-5.7 1.6v9.3c2-.1 4-.6 5.7-1.6L1407.3 407c1.3-.7 2.1-2.1 2.1-3.6v-9.3c0 1.6-.8 2.9-2 3.7h0z" class="i"/><path d="M1209 397.7l141-81.6V386l-141 81.5v-69.8z" class="h"/><g class="j"><path d="M1330.4 304.8l19.6 11.3-141 81.6-19.7-11.3 141.1-81.6z"/><path d="M1189.3 386.4l19.7 11.3v69.8l-19.7-11.5v-69.6z"/></g><path d="M1492.6-39.5L1064 209.1v315.4l428.6-249.6V-39.5z" fill="#3a3a3a"/><path d="M1064 209.1l-14.3-8.7v315.4l14.3 8.7V209.1z" class="j"/><path d="M1492.6-39.5L1478-48l-428.3 248.4 14.3 8.7 428.6-248.6z" class="n"/><path d="M1063.9 209v315.4l428.6-249.6V-39.6L1063.9 209zm10.2 5.9l408.3-236.8V269l-408.3 237.8V214.9z" class="i"/><path d="M1439.3 26v8.4l-35.2 20.2v-8.4l35.2-20.2z" class="o"/><g class="d"><path d="M1439.3 41.3v8.4l-35.2 20.2v-8.4l35.2-20.2zm0 15.3V65l-35.2 20.2v-8.4l35.2-20.2zm-265.2 176.5v-8.4L1391 99.6v8.4l-216.9 125.1z"/><use xlink:href="#B"/><path d="M1439.3 87.1v8.4l-35.2 20.3v-8.4l35.2-20.3z"/></g><path d="M1174.1 248.4V240L1391 115v8.4l-216.9 125z" class="f"/><path d="M1439.3 133v8.4l-35.2 20.2v-8.4l35.2-20.2z" class="d"/><path d="M1439.3 148.2v8.4l-35.2 20.3v-8.4l35.2-20.3z" class="o"/><path d="M1439.3 209.4v8.4l-35.2 20.2v-8.4l35.2-20.2zm0 15.2v8.4l-35.2 20.3v-8.4l35.2-20.3z" class="d"/><path d="M1254.1 331.4l136.8-78.9v8.4l-136.8 78.9v-8.4z" class="f"/><path d="M1246.8 335.6v8.4l-72.8 42v-8.4l72.8-42zm75.4-58.8l68.7-39.6v8.4l-68.7 39.6v-8.4zm-7.2 4.2v8.4l-140.9 81.2v-8.4L1315 281zm-122.4 24.8v8.4l-18.5 10.6v-8.3l18.5-10.7z" class="d"/><path d="M1293.4 232.3l97.4-56.2v8.4l-97.4 56.2v-8.4z" class="k"/><path d="M1333.3 87l57.5-33.2v8.4l-57.5 33.2V87zm-94.2 54.4l87.1-50.2v8.4l-87.1 50.2v-8.4zm50.7-14l61.3-35.4v8.4l-61.3 35.4v-8.4z" class="d"/><path d="M1225.6 164.5l57.1-32.9v8.4l-57.1 32.9v-8.4z" class="k"/><path d="M1218.3 168.7v8.4l-44.3 25.5v-8.4l44.3-25.5z" class="d"/><path d="M1379.6,91v8.4l-46.2,26.6v-8.4L1379.6,91z" class="k"/><path d="M1192.2 199.1l134.1-77.3v8.4l-134.1 77.3v-8.4zm76.6 1.6l87.6-50.5v8.4l-87.6 50.4v-8.3zm-76.6 44.2l69.5-40.1v8.4l-69.5 40.1v-8.4zm7.6 41.5l86.5-49.9v8.4l-86.5 49.8v-8.3z" class="d"/><path d="M1246.8 274.5v8.4l-47.1 27.1v-8.4l47.1-27.1z" fill="#50e85e"/><path d="M1373.9 201.2l17-9.8v8.4l-17 9.8v-8.4zm-31.7 18.3v8.4l-88.1 50.7v-8.4l88.1-50.7zm7.2-4.2l17.3-10v8.4l-17.3 10v-8.4zm-79.1 60.9l96.3-55.6v8.4l-96.3 55.6v-8.4z" class="d"/><g class="f"><use xlink:href="#C"/><use xlink:href="#D"/><path d="M1089.7 273.2l11.6-6.7c.4-.2.9-.1 1.2.3.1.1.1.3.1.4v13.9c0 .7-.4 1.3-.9 1.6l-11.6 6.7c-.4.2-.9.1-1.2-.3-.1-.1-.1-.3-.1-.4v-13.8c-.1-.7.3-1.4.9-1.7z"/><path d="M1089.7 293.9l11.6-6.7c.4-.2.9-.1 1.2.3.1.1.1.3.1.4v13.9c0 .7-.4 1.3-.9 1.6l-11.6 6.7c-.4.2-1 .1-1.2-.3-.1-.1-.1-.3-.1-.4v-13.8c-.1-.7.3-1.4.9-1.7z"/><use xlink:href="#E"/><path d="M1089.7 335.3l11.6-6.7c.4-.2.9-.1 1.2.3.1.1.1.3.1.4v13.9c0 .7-.4 1.3-.9 1.6l-11.6 6.7c-.4.2-.9.1-1.2-.3-.1-.1-.1-.3-.1-.4V337c-.1-.7.3-1.3.9-1.7h0z"/><path d="M1089.7 356.1l11.6-6.7c.4-.2.9-.1 1.2.3.1.1.1.3.1.4V364c0 .7-.4 1.3-.9 1.6l-11.6 6.7c-.4.2-.9.1-1.2-.3-.1-.1-.1-.3-.1-.4v-13.8c-.1-.7.3-1.4.9-1.7z"/><path d="M1089.7 376.8l11.6-6.7c.4-.2.9-.1 1.2.3.1.1.1.3.1.4v13.9c0 .7-.4 1.3-.9 1.6l-11.6 6.7c-.4.2-.9.1-1.2-.3-.1-.1-.1-.3-.1-.4v-13.8c-.1-.7.3-1.3.9-1.7z"/><path d="M1089.7 397.5l11.6-6.7c.4-.2.9-.1 1.2.3.1.1.1.3.1.4v13.9c0 .7-.4 1.3-.9 1.6l-11.6 6.7c-.4.2-.9.1-1.2-.3-.1-.1-.1-.3-.1-.4v-13.8c-.1-.7.3-1.3.9-1.7z"/><path d="M1089.7 418.3l11.6-6.7c.4-.2.9-.1 1.2.3.1.1.1.3.1.4v13.9c0 .7-.4 1.3-.9 1.6l-11.6 6.7c-.4.2-1 .1-1.2-.3-.1-.1-.1-.3-.1-.4V420c-.1-.7.3-1.4.9-1.7z"/><path d="M1089.7 439l11.6-6.7c.4-.2.9-.1 1.2.3.1.1.1.3.1.4v13.9c0 .7-.4 1.3-.9 1.6l-11.6 6.7c-.4.2-1 .1-1.2-.3-.1-.1-.1-.3-.1-.4v-13.8c-.1-.7.3-1.3.9-1.7z"/><path d="M1089.7 459.7l11.6-6.7c.4-.2.9-.1 1.2.3.1.1.1.3.1.4v13.9c0 .7-.4 1.3-.9 1.6l-11.6 6.7c-.4.2-.9.1-1.2-.3-.1-.1-.1-.3-.1-.4v-13.8c-.1-.7.3-1.3.9-1.7h0z"/></g><path d="M1613.8 355s19.8-8.8 43.1 6.6 39 37 29.5 45c-9.5 7.9-27.9 16.5-39.8 12.2s-71-39.1-32.8-63.8h0z" class="h"/><path d="M1177.7 591.3h17.2v18.6h-17.2a11.61 11.61 0 0 0-11.6 11.6v30.2a11.61 11.61 0 0 0 11.6 11.6h25.2v18.6h-25.2c-16.7 0-30.2-13.5-30.2-30.2v-30.2c0-16.7 13.5-30.2 30.2-30.2h0z" class="l"/><path d="M1184.1 581.1v104.6c0 16.2 24.2 29.3 54 29.3s54-13.1 54-29.3V581.1h-108z" class="g"/><path d="M1292.1 581c0 16.2-24.2 29.3-54 29.3s-54-13.1-54-29.3 24.2-29.3 54-29.3 54 13.1 54 29.3z" class="e"/><path d="M1281.3 580.7c0 12.7-19.3 22.9-43.2 22.9s-43.2-10.3-43.2-22.9 19.4-22.9 43.2-22.9c23.9-.1 43.2 10.2 43.2 22.9z" class="l"/><path d="M1238.1 572.8c18.9 0 35 6.5 40.8 15.4-5.9 9-21.9 15.4-40.8 15.4s-34.9-6.5-40.8-15.4c5.9-9 21.9-15.4 40.8-15.4z" fill="#52281c"/><path d="M1217.7 608.2v104.6c-10.6-2.4-19.5-6.5-25.4-11.7V596.5c6 5.2 14.8 9.3 25.4 11.7h0z" class="l"/><path d="M2704.8 2164l-60.4-35c-2.8-1.6-6.3-1.7-9.2 0l-186.7 108c-1.9 1.1-2.6 3.6-1.5 5.5.4.6.9 1.1 1.5 1.5l58.9 34.1a10.65 10.65 0 0 0 10.9 0l186.4-107.8c1.7-1 2.3-3.2 1.3-4.9-.2-.6-.7-1.1-1.2-1.4h0z" class="h"/><path d="M2704.8 2170.3l-186.4 107.8c-3.4 2-7.5 1.9-10.9 0l-59-34.1c-1.2-.7-2-2-2-3.5v7.2c0 1.4.8 2.7 2 3.4l58.9 34.1a10.65 10.65 0 0 0 10.9 0l186.4-107.8c1.1-.6 1.8-1.9 1.8-3.2h0v-7.1c.1 1.3-.6 2.5-1.7 3.2h0z" class="i"/><g class="n"><path d="M2645 2138.9l-7.6-4.4-8.6 5 7.5 4.4 8.7-5zm-10.7 6.2l-7.6-4.4-8.6 5 7.5 4.4 8.7-5zm-10.8 6.1l-7.6-4.4-8.6 5 7.5 4.4 8.7-5zm-10.7 6.2l-7.6-4.4-8.6 5 7.5 4.4 8.7-5zm-10.7 6.2l-7.6-4.4-8.6 5 7.5 4.4 8.7-5zm-10.7 6.2l-7.6-4.4-8.6 5 7.5 4.4 8.7-5zm-10.8 6.1l-7.5-4.4-8.6 5 7.5 4.4 8.6-5zm-10.7 6.2l-7.6-4.4-8.6 5 7.5 4.4 8.7-5zm-10.7 6.2l-7.6-4.4-8.6 5 7.5 4.4 8.7-5zm-10.8 6.1l-7.6-4.4-8.6 5 7.5 4.4 8.7-5zm-10.7 6.2l-7.6-4.4-8.6 5 7.5 4.4 8.7-5zm-10.7 6.2l-7.6-4.4-8.6 5 7.5 4.4 8.7-5zm-18.3 1.8l-8.6 5 7.5 4.4 8.6-4.9-7.5-4.5zm137.5-59.2l8.6-4.9-7.6-4.4-8.6 5 7.6 4.3zm-18.3 1.9l7.5 4.4 8.6-4.9-7.6-4.4-8.5 4.9zm-10.7 6.1l7.5 4.4 8.6-4.9-7.6-4.4-8.5 4.9zm-10.8 6.2l7.5 4.4 8.6-4.9-7.6-4.4-8.5 4.9zm-10.7 6.2l7.5 4.4 8.6-4.9-7.6-4.4-8.5 4.9zm-10.7 6.1l7.5 4.4 8.6-4.9-7.6-4.4-8.5 4.9zm-10.7 6.2l7.5 4.4 8.6-4.9-7.6-4.4-8.5 4.9zm-10.8 6.2l7.5 4.4 8.6-4.9-7.6-4.4-8.5 4.9zm-10.7 6.1l7.5 4.4 8.6-4.9-7.6-4.4-8.5 4.9zm-10.7 6.2l7.5 4.4 8.6-4.9-7.6-4.4-8.5 4.9zm-10.7 6.2l7.5 4.4 8.6-4.9-7.6-4.4-8.5 4.9zm-10.8 6.2l7.5 4.4 8.6-4.9-7.6-4.4-8.5 4.9zm-2.1 1.2l-8.6 5 7.5 4.4 8.6-4.9-7.5-4.5zm137.4-59.1l8.6-4.9-7.6-4.4-8.6 5 7.6 4.3zm-18.2 1.8l7.5 4.4 8.6-4.9-7.6-4.4-8.5 4.9zm5.4 5.6l-7.6-4.4-8.6 5 7.5 4.4 8.7-5zm-26.9 6.7l7.5 4.4 8.6-4.9-7.6-4.4-8.5 4.9zm-10.7 6.2l7.5 4.4 8.6-4.9-7.6-4.4-8.5 4.9zm-10.7 6.2l7.5 4.4 8.6-4.9-7.6-4.4-8.5 4.9zm-10.8 6.1l7.5 4.4 8.6-4.9-7.6-4.4-8.5 4.9zm-10.7 6.2l7.5 4.4 8.6-4.9-7.6-4.4-8.5 4.9zm-10.7 6.2l7.5 4.4 8.6-4.9-7.6-4.4-8.5 4.9zm-10.7 6.2l7.5 4.4 8.6-4.9-7.6-4.4-8.5 4.9zm-10.8 6.1l7.5 4.4 8.6-4.9-7.6-4.4-8.5 4.9zm5.5 5.7l-7.6-4.4-8.6 5 7.5 4.4 8.7-5zm-18.3 1.7l-8.6 5 7.5 4.4 8.6-4.9-7.5-4.5zm137.4-59.1l8.6-4.9-7.6-4.4-8.6 5 7.6 4.3zm-2.1 1.3l-7.6-4.4-8.6 5 7.5 4.4 8.7-5zm-10.7 6.2l-7.6-4.4-8.6 5 7.5 4.4 8.7-5zm-10.7 6.1l-7.6-4.4-8.6 5 7.5 4.4 8.7-5zm-10.7 6.2l-7.6-4.4-8.6 5 7.5 4.4 8.7-5zm-10.8 6.2l-7.6-4.4-8.6 5 7.5 4.4 8.7-5zm-10.7 6.2l-7.6-4.4-8.6 5 7.5 4.4 8.7-5zm-10.7 6.1l-7.6-4.4-8.6 5 7.5 4.4 8.7-5zm-10.8 6.2l-7.6-4.4-8.6 5 7.5 4.4 8.7-5zm-10.7 6.2l-7.6-4.4-8.6 5 7.5 4.4 8.7-5zm-10.7 6.2l-7.6-4.4-8.6 5 7.5 4.4 8.7-5zm-10.7 6.1l-7.6-4.4-8.6 5 7.5 4.4 8.7-5zm-18.3 1.8l-8.6 5 7.5 4.4 8.6-4.9-7.5-4.5zm137.4-59.1l8.6-4.9-7.6-4.4-8.6 5 7.6 4.3zm-2.1 1.2l-7.6-4.4-8.6 5 7.5 4.4 8.7-5zm-10.7 6.2l-7.6-4.4-8.6 5 7.5 4.4 8.7-5zm-10.7 6.2l-7.6-4.4-8.6 5 7.5 4.4 8.7-5zm-10.7 6.2l-7.6-4.4-8.6 5 7.5 4.4 8.7-5zm-10.8 6.1l-7.6-4.4-8.6 5 7.5 4.4 8.7-5zm-10.7 6.2l-7.6-4.4-8.6 5 7.5 4.4 8.7-5zm-10.7 6.2l-7.6-4.4-8.6 5 7.5 4.4 8.7-5zm-10.8 6.2l-7.6-4.4-8.6 5 7.5 4.4 8.7-5zm-10.7 6.1l-7.6-4.4-8.6 5 7.5 4.4 8.7-5zm-10.7 6.2l-7.6-4.4-8.6 5 7.5 4.4 8.7-5zm-10.7 6.2l-7.6-4.4-8.6 5 7.5 4.4 8.7-5zm-18.3 1.8l-8.6 5 7.5 4.4 8.6-4.9-7.5-4.5zm138.5-68.4l-8.6 5 7.5 4.4 8.6-4.9-7.5-4.5zm-19.3 11.1l7.5 4.4 8.6-4.9-7.6-4.4-8.5 4.9zm-10.8 6.2l7.5 4.4 8.6-4.9-7.6-4.4-8.5 4.9zm-10.7 6.1l7.5 4.4 8.6-4.9-7.6-4.4-8.5 4.9zm-10.7 6.2l7.5 4.4 8.6-4.9-7.6-4.4-8.5 4.9zm-10.7 6.2l7.5 4.4 8.6-4.9-7.6-4.4-8.5 4.9zm-2.2 1.2l-10.7 6.2-2.1 1.2-8.6 5-4.4 2.5-6.3 3.7-6.8 3.9-12.6 7.2 7.5 4.4 13.1-7.5 6.2-3.6 6.5-3.8 4.2-2.4 8.5-4.9 2.3-1.3 10.7-6.2-7.5-4.4zm-62.2 35.8l7.5 4.4 8.6-4.9-7.6-4.4-8.5 4.9zm-10.7 6.2l7.5 4.4 8.6-4.9-7.6-4.4-8.5 4.9zm-54.3-16.5l-7.6-4.4-8.6 5 7.5 4.4 8.7-5zm-10.7 6.2l-7.6-4.4-8.6 5 7.5 4.4 8.7-5zm-10.7 6.1l-7.6-4.4-8.6 5 7.5 4.4 8.7-5zm15.1-6.1l7.5 4.4 8.6-4.9-7.6-4.4-8.5 4.9zm-10.8 6.2l7.5 4.4 8.6-4.9-7.6-4.4-8.5 4.9zm-10.7 6.2l7.5 4.4 8.6-4.9-7.6-4.4-8.5 4.9zm31.2-6.7l7.5 4.4 8.6-4.9-7.6-4.4-8.5 4.9zm-10.7 6.2l7.5 4.4 8.6-4.9-7.6-4.4-8.5 4.9zm-10.7 6.1l7.5 4.4 8.6-4.9-7.6-4.4-8.5 4.9zm47.4-7.2l-7.6-4.4-8.6 5 7.5 4.4 8.7-5zm-10.7 6.2l-7.6-4.4-8.6 5 7.5 4.4 8.7-5zm-10.8 6.2l-7.6-4.4-8.6 5 7.5 4.4 8.7-5zm31.3-6.7l-7.6-4.4-8.6 5 7.5 4.4 8.7-5zm-10.7 6.1l-7.6-4.4-8.6 5 7.5 4.4 8.7-5zm-10.8 6.2l-7.6-4.4-8.6 5 7.5 4.4 8.7-5zm15.1-6.1l7.5 4.4 8.6-4.9-7.6-4.4-8.5 4.9zm-10.7 6.2l7.5 4.4 8.6-4.9-7.6-4.4-8.5 4.9zm53.8-154.4l-59.4-34.5a7.85 7.85 0 0 0-8.1 0l-141.1 81.4c-1.7 1-2.3 3.2-1.3 4.9a4.04 4.04 0 0 0 1.3 1.3l58.1 33.7c3 1.7 6.7 1.7 9.7 0l140.8-81.3c1.5-.9 2.1-2.9 1.2-4.4-.3-.4-.7-.8-1.2-1.1h0z"/></g><path d="M2570.7 2111.6l-140.8 81.3c-3 1.7-6.7 1.7-9.7 0l-58.1-33.7c-1.1-.6-1.8-1.8-1.8-3.1v7.3c0 1.3.7 2.4 1.8 3l58.1 33.7c3 1.7 6.7 1.7 9.7 0l140.8-81.3a3.19 3.19 0 0 0 1.6-2.8h0v-7.2c0 1.1-.6 2.2-1.6 2.8z" class="j"/><path d="M2570.7 2111.6l-140.8 81.3c-1.3.8-2.9 1.2-4.4 1.3v7.2c1.6-.1 3.1-.5 4.4-1.3l140.8-81.3a3.19 3.19 0 0 0 1.6-2.8v-7.2c0 1.1-.6 2.2-1.6 2.8h0z" class="i"/><path d="M2416.5 2111.4l109.6-63.4v54.3l-109.6 63.4v-54.3z" class="h"/><path d="M2510.9 2039.2l15.3 8.8-109.6 63.4-15.3-8.8 109.6-63.4zm-109.7 63.4l15.3 8.8v54.3l-15.3-8.9v-54.2z" class="j"/><path d="M2636.9 1771.6l-333.2 193.3v245.2l333.2-194v-244.5z" fill="#3a3a3a"/><path d="M2303.7,1964.8l-11.1-6.7v245.2l11.1,6.7V1964.8z" class="j"/><path d="M2636.9 1771.6l-11.3-6.6-333 193.1 11.1 6.7 333.2-193.2z" class="n"/><path d="M2303.7 1964.8V2210l333.2-194v-244.4l-333.2 193.2zm7.9 4.6l317.4-184.1v226.2l-317.4 184.8v-226.9z" class="i"/><use xlink:href="#F" class="o"/><path d="M2595.5 1834.4v6.5l-27.3 15.8v-6.5l27.3-15.8zm0 11.9v6.5l-27.4 15.7v-6.5l27.4-15.7zm-206.2 137.2v-6.5l168.6-97.3v6.5l-168.6 97.3zm206.2-125.4v6.5l-27.3 15.8v-6.5l27.3-15.8zm0 11.9v6.5l-27.3 15.8v-6.5l27.3-15.8z" class="d"/><path d="M2389.3 1995.4v-6.5l168.6-97.2v6.5l-168.6 97.2z" class="f"/><path d="M2595.5 1905.6v6.5l-27.3 15.8v-6.5l27.3-15.8z" class="d"/><path d="M2595.5 1917.5v6.5l-27.3 15.8v-6.5l27.3-15.8z" class="o"/><path d="M2595.5 1965.1v6.5l-27.3 15.8v-6.5l27.3-15.8zm0 11.8v6.5l-27.3 15.8v-6.5l27.3-15.8z" class="d"/><path d="M2451.5 2059.9l106.4-61.3v6.5l-106.4 61.4v-6.6z" class="f"/><path d="M2445.9 2063.2v6.5l-56.6 32.6v-6.5l56.6-32.6zm58.6-45.7l53.4-30.8v6.5l-53.4 30.8v-6.5zm-5.7 3.3v6.5l-109.5 63.2v-6.5l109.5-63.2zm-95.1 19.2v6.5l-14.4 8.3v-6.5l14.4-8.3z" class="d"/><path d="M2482.1 1982.9l75.8-43.7v6.5l-75.8 43.7v-6.5z" class="k"/><path d="M2513.2 1870l44.7-25.8v6.5l-44.7 25.8v-6.5zm-73.3 42.2l67.7-39v6.5l-67.7 39v-6.5zm39.4-10.9l47.7-27.5v6.5l-47.7 27.5v-6.5z" class="d"/><path d="M2429.3 1930.2l44.4-25.6v6.5l-44.4 25.6v-6.5z" class="k"/><path d="M2423.7 1933.4v6.5l-34.4 19.9v-6.5l34.4-19.9z" class="d"/><path d="M2549.1 1873v6.5l-35.9 20.7v-6.5l35.9-20.7z" class="k"/><path d="M2403.3 1957.1l104.2-60.1v6.5l-104.2 60.1v-6.5zm59.7 1.2l68.1-39.3v6.5l-68.1 39.3v-6.5zm-59.7 34.4l54.1-31.2v6.5l-54.1 31.2v-6.5zm6 32.2l67.2-38.8v6.5l-67.2 38.8v-6.5z" class="d"/><path d="M2445.9 2015.7v6.5l-36.6 21.1v-6.5l36.6-21.1z" fill="#50e85e"/><g class="d"><path d="M2544.7 1958.7l13.2-7.6v6.5l-13.2 7.6v-6.5zm-24.7 14.2v6.5l-68.5 39.5v-6.5l68.5-39.5zm5.6-3.2l13.5-7.8v6.5l-13.5 7.8v-6.5zm-61.4 47.3l74.9-43.2v6.5l-74.9 43.2v-6.5zm-86.8-68.7v1.8l-7.5 4.3v-1.8l7.5-4.3zm0 3.3v1.8l-7.5 4.3v-1.8l7.5-4.3zm0 3.2v1.8l-7.5 4.3v-1.8l7.5-4.3zm-56.8 37.9v-1.8l46.5-26.8v1.8l-46.5 26.8zm56.8-34.6v1.8l-7.5 4.3v-1.8l7.5-4.3zm0 3.3v1.8l-7.5 4.3v-1.8l7.5-4.3zm-56.8 34.5v-1.8l46.5-26.8v1.8l-46.5 26.8zm56.8-24.7v1.8l-7.5 4.3v-1.8l7.5-4.3zm0 3.3v1.8l-7.5 4.3v-1.8l7.5-4.3zm0 13.1v1.8l-7.5 4.3v-1.8l7.5-4.3zm0 3.3v1.8l-7.5 4.3v-1.8l7.5-4.3zm-39.6 22.9l29.3-16.9v1.8l-29.3 16.9v-1.8zm-1.6.9v1.8l-15.6 9v-1.8l15.6-9zm16.1-12.6l14.7-8.5v1.8l-14.7 8.5v-1.8zm-1.5.9v1.8l-30.2 17.4v-1.8l30.2-17.4zm-26.2 5.2v1.8l-4 2.3v-1.8l4-2.3zm21.6-15.7l20.9-12v1.8l-20.9 12v-1.8zm8.5-31.1l12.3-7.1v1.8l-12.3 7.1v-1.8zm-20.1 11.7l18.6-10.8v1.8l-18.6 10.8v-1.8zm10.8-3.1l13.1-7.6v1.8l-13.1 7.6v-1.8zm-13.8 8.1l12.2-7.1v1.8l-12.2 7.1v-1.8zm-1.5.9v1.8l-9.5 5.5v-1.8l9.5-5.5zm34.5-16.8v1.8l-9.9 5.7v-1.8l9.9-5.7zm-40.1 23.2l28.7-16.6v1.8l-28.7 16.6v-1.8zm16.4.3l18.8-10.8v1.8l-18.8 10.8v-1.8zm-16.4 9.5l14.9-8.6v1.8l-14.9 8.6v-1.8zm1.6 8.9l18.5-10.7v1.8l-18.5 10.7v-1.8zm10.1-2.6v1.8l-10.1 5.8v-1.8l10.1-5.8zm27.2-15.7l3.6-2.1v1.8l-3.6 2.1v-1.8zm-6.7 4v1.8l-18.9 10.9v-1.8l18.9-10.9zm1.5-1l3.7-2.1v1.8l-3.7 2.1v-1.8zm-17 13.1l20.6-11.9v1.8l-20.6 11.9v-1.8zm36.2 1.8v1.8l-7.5 4.3v-1.8l7.5-4.3zm0 3.3v1.8l-7.5 4.3v-1.8l7.5-4.3zm0 3.3v1.8l-7.5 4.3v-1.8l7.5-4.3zm-56.8 37.8v-1.8l46.5-26.8v1.8l-46.5 26.8zm56.8-34.6v1.8l-7.5 4.3v-1.8l7.5-4.3zm0 3.3v1.8l-7.5 4.3v-1.8l7.5-4.3zm-56.8 34.5v-1.8l46.5-26.8v1.8l-46.5 26.8zm56.8-24.7v1.8l-7.5 4.3v-1.8l7.5-4.3zm0 3.3v1.8l-7.5 4.3v-1.8l7.5-4.3zm0 13.1v1.8l-7.5 4.3v-1.8l7.5-4.3zm0 3.3v1.8l-7.5 4.3v-1.8l7.5-4.3zm-39.6 22.8l29.3-16.9v1.8l-29.3 16.9v-1.8zm-1.6.9v1.8l-15.6 9v-1.8l15.6-9zm16.1-12.5l14.7-8.5v1.8l-14.7 8.5v-1.8zm-1.5.9v1.8l-30.2 17.4v-1.8l30.2-17.4zm-26.2 5.2v1.8l-4 2.3v-1.8l4-2.3zm21.6-15.7l20.9-12v1.8l-20.9 12v-1.8zm8.5-31.1l12.3-7.1v1.8l-12.3 7.1v-1.8zm-20.1 11.7l18.6-10.8v1.8l-18.6 10.8v-1.8zm10.8-3.1l13.1-7.6v1.8l-13.1 7.6v-1.8zm-13.8 8l12.2-7.1v1.8l-12.2 7.1v-1.8zm-1.5.9v1.8l-9.5 5.5v-1.8l9.5-5.5zm34.5-16.7v1.8l-9.9 5.7v-1.8l9.9-5.7zm-40.1 23.2l28.7-16.6v1.8l-28.7 16.6v-1.8zm16.4.3l18.8-10.8v1.8l-18.8 10.8v-1.8zm-16.4 9.5l14.9-8.6v1.8l-14.9 8.6v-1.8zm1.6 8.9l18.5-10.7v1.8l-18.5 10.7v-1.8zm10.1-2.6v1.8l-10.1 5.8v-1.8l10.1-5.8zm27.2-15.7l3.6-2.1v1.8l-3.6 2.1v-1.8zm-6.7 3.9v1.8l-18.9 10.9v-1.8l18.9-10.9zm1.5-.8l3.7-2.1v1.8l-3.7 2.1v-1.8zm-17 13l20.6-11.9v1.8l-20.6 11.9v-1.8zm36.2 1.8v1.8l-7.5 4.3v-1.8l7.5-4.3zm0 3.3v1.8l-7.5 4.3v-1.8l7.5-4.3zm0 3.2v1.8l-7.5 4.3v-1.8l7.5-4.3zm-56.8 37.9v-1.8l46.5-26.8v1.8l-46.5 26.8zm56.8-34.6v1.8l-7.5 4.3v-1.8l7.5-4.3zm0 3.3v1.8l-7.5 4.3v-1.8l7.5-4.3zm-56.8 34.6v-1.8l46.5-26.8v1.8l-46.5 26.8zm56.8-24.8v1.8l-7.5 4.3v-1.8l7.5-4.3zm0 3.3v1.8l-7.5 4.3v-1.8l7.5-4.3zm0 13.1v1.8l-7.5 4.3v-1.8l7.5-4.3zm0 3.3v1.8l-7.5 4.3v-1.8l7.5-4.3zm-39.6 22.8l29.3-16.9v1.8l-29.3 16.9v-1.8zm-1.6.9v1.8l-15.6 9v-1.8l15.6-9zm16.1-12.5l14.7-8.5v1.8l-14.7 8.5v-1.8zm-1.5.9v1.8l-30.2 17.4v-1.8l30.2-17.4zm-26.2 5.2v1.8l-4 2.3v-1.8l4-2.3zm21.6-15.7l20.9-12v1.8l-20.9 12v-1.8zm8.5-31.1l12.3-7.1v1.8l-12.3 7.1v-1.8zm-20.1 11.6l18.6-10.8v1.8l-18.6 10.8v-1.8zm10.8-3l13.1-7.6v1.8l-13.1 7.6v-1.8zm-13.8 8l12.2-7.1v1.8l-12.2 7.1v-1.8zm-1.5.9v1.8l-9.5 5.5v-1.8l9.5-5.5zm34.5-16.7v1.8l-9.9 5.7v-1.8l9.9-5.7zm-40.1 23.2l28.7-16.6v1.8l-28.7 16.6v-1.8zm16.4.3l18.8-10.8v1.8l-18.8 10.8v-1.8zm-16.4 9.5l14.9-8.6v1.8l-14.9 8.6v-1.8zm1.6 8.9l18.5-10.7v1.8l-18.5 10.7v-1.8zm10.1-2.6v1.8l-10.1 5.8v-1.8l10.1-5.8zm27.2-15.7l3.6-2.1v1.8l-3.6 2.1v-1.8zm-6.7 3.9v1.8l-18.9 10.9v-1.8l18.9-10.9zm1.5-.9l3.7-2.1v1.8l-3.7 2.1v-1.8zm-17 13.1l20.6-11.9v1.8l-20.6 11.9v-1.8zm36.2 1.8v1.8l-7.5 4.3v-1.8l7.5-4.3zm0 3.3v1.8l-7.5 4.3v-1.8l7.5-4.3zm0 3.2v1.8l-7.5 4.3v-1.8l7.5-4.3zm-56.8 37.9v-1.8l46.5-26.8v1.8l-46.5 26.8zm56.8-34.6v1.8l-7.5 4.3v-1.8l7.5-4.3zm0 3.3v1.8l-7.5 4.3v-1.8l7.5-4.3zm-56.8 34.5v-1.8l46.5-26.8v1.8l-46.5 26.8zm56.8-24.7v1.8l-7.5 4.3v-1.8l7.5-4.3zm0 3.3v1.8l-7.5 4.3v-1.8l7.5-4.3zm-52.8 33.7v1.8l-4 2.3v-1.8l4-2.3zm21.6-15.7l20.9-12v1.8l-20.9 12v-1.8zm8.5-31.1l12.3-7.1v1.8l-12.3 7.1v-1.8zm-20.1 11.7l18.6-10.8v1.8l-18.6 10.8v-1.8zm10.8-3.1l13.1-7.6v1.8l-13.1 7.6v-1.8zm-13.8 8l12.2-7.1v1.8l-12.2 7.1v-1.8zm-1.5.9v1.8l-9.5 5.5v-1.8l9.5-5.5zm34.5-16.7v1.8l-9.9 5.7v-1.8l9.9-5.7zm-40.1 23.2l28.7-16.6v1.8l-28.7 16.6v-1.8zm16.4.3l18.8-10.8v1.8l-18.8 10.8v-1.8zm-16.4 9.5l14.9-8.6v1.8l-14.9 8.6v-1.8zm1.6 8.9l18.5-10.7v1.8l-18.5 10.7v-1.8zm10.1-2.6v1.8l-10.1 5.8v-1.8l10.1-5.8zm27.2-15.7l3.6-2.1v1.8l-3.6 2.1v-1.8zm-6.7 3.9v1.8l-18.9 10.9v-1.8l18.9-10.9zm1.5-.9l3.7-2.1v1.8l-3.7 2.1v-1.8zm-17 13.1l20.6-11.9v1.8l-20.6 11.9v-1.8z"/></g><g class="f"><use xlink:href="#G"/><path d="M2613 1828.5l9-5.2c.3-.2.7-.1.9.2.1.1.1.2.1.3v10.8c0 .5-.3 1-.7 1.3l-9 5.2c-.3.2-.7.1-.9-.2-.1-.1-.1-.2-.1-.3v-10.7c-.1-.6.2-1.1.7-1.4h0z"/><path d="M2613 1844.6l9-5.2c.3-.2.7-.1.9.2.1.1.1.2.1.3v10.8c0 .5-.3 1-.7 1.3l-9 5.2c-.3.2-.7.1-.9-.2-.1-.1-.1-.2-.1-.3V1846c-.1-.6.2-1.1.7-1.4h0z"/><path d="M2613 1860.7l9-5.2c.3-.2.7-.1.9.2.1.1.1.2.1.3v10.8c0 .5-.3 1-.7 1.3l-9 5.2c-.3.2-.7.1-.9-.3-.1-.1-.1-.2-.1-.3V1862c-.1-.5.2-1 .7-1.3z"/><use xlink:href="#H"/><path d="M2613 1893l9-5.2c.3-.2.7-.1.9.2.1.1.1.2.1.3v10.8c0 .5-.3 1-.7 1.3l-9 5.2c-.3.2-.7.1-.9-.3-.1-.1-.1-.2-.1-.3v-10.7c-.1-.6.2-1.1.7-1.3z"/><path d="M2613 1909.1l9-5.2c.3-.2.7-.1.9.2.1.1.1.2.1.3v10.8c0 .5-.3 1-.7 1.3l-9 5.2c-.3.2-.7.1-.9-.2-.1-.1-.1-.2-.1-.3v-10.7c-.1-.6.2-1.1.7-1.4h0z"/><path d="M2613 1925.2l9-5.2c.3-.2.7-.1.9.2.1.1.1.2.1.3v10.8c0 .5-.3 1-.7 1.3l-9 5.2c-.3.2-.7.1-.9-.2-.1-.1-.1-.2-.1-.3v-10.7c-.1-.6.2-1.1.7-1.4h0z"/><path d="M2613 1941.3l9-5.2c.3-.2.7-.1.9.2.1.1.1.2.1.3v10.8c0 .5-.3 1-.7 1.3l-9 5.2c-.3.2-.7.1-.9-.2-.1-.1-.1-.2-.1-.3v-10.7c-.1-.6.2-1.1.7-1.4h0z"/><path d="M2613 1957.4l9-5.2c.3-.2.7-.1.9.2.1.1.1.2.1.3v10.8c0 .5-.3 1-.7 1.3l-9 5.2c-.3.2-.7.1-.9-.3-.1-.1-.1-.2-.1-.3v-10.7c-.1-.5.2-1 .7-1.3z"/><path d="M2613 1973.6l9-5.2c.3-.2.7-.1.9.2.1.1.1.2.1.3v10.8c0 .5-.3 1-.7 1.3l-9 5.2c-.3.2-.7.1-.9-.3-.1-.1-.1-.2-.1-.3v-10.7c-.1-.6.2-1.1.7-1.3z"/><path d="M2613 1989.7l9-5.2c.3-.2.7-.1.9.2.1.1.1.2.1.3v10.8c0 .5-.3 1-.7 1.3l-9 5.2c-.3.2-.7.1-.9-.2-.1-.1-.1-.2-.1-.3v-10.7c-.1-.7.2-1.2.7-1.4h0z"/></g><path d="M2731.2 2078.3s15.4-6.9 33.5 5.1 30.3 28.8 22.9 34.9c-7.4 6.2-21.7 12.8-31 9.5-9.2-3.3-55.2-30.3-25.4-49.5h0z" class="h"/><path d="M2392.2 2262h13.4v14.4h-13.4c-4.9 0-9 4-9 8.9v23.6c0 4.9 4 9 8.9 9h19.7v14.4h-19.6c-13 0-23.4-10.5-23.5-23.5v-23.5c0-12.8 10.5-23.3 23.5-23.3h0z" class="l"/><path d="M2397.2 2254v81.3c0 12.6 18.8 22.8 42 22.8s42-10.2 42-22.8V2254h-84z" class="g"/><path d="M2481.1 2254c0 12.6-18.8 22.8-42 22.8s-42-10.2-42-22.8 18.8-22.8 42-22.8 42 10.2 42 22.8z" class="e"/><path d="M2472.7 2253.7c0 9.9-15 17.8-33.6 17.8s-33.6-8-33.6-17.8 15-17.8 33.6-17.8 33.6 8 33.6 17.8z" class="l"/><path d="M2439.1 2247.6c14.7 0 27.2 5 31.7 12-4.6 7-17 12-31.7 12s-27.2-5-31.7-12c4.6-7 17-12 31.7-12z" fill="#52281c"/><path d="M2423.3 2275.1v81.3c-8.2-1.8-15.1-5-19.8-9.1V2266c4.7 4.1 11.6 7.3 19.8 9.1z" class="l"/><g transform="matrix(.978 .208 -.208 .978 198.39 900.02)" class="e m"><use xlink:href="#I"/><use xlink:href="#J"/></g><g transform="matrix(.978 .208 -.208 .978 628.31 20.379)" class="e m"><use xlink:href="#I"/><use xlink:href="#J"/></g><g transform="matrix(.978 .208 -.208 .978 -88.761 90.696)" class="m e"><path d="M908.2-262.7v-44.6l-32.6-5.4c-2.6-9.8-6.5-19.3-11.6-28l19.2-26.9-31.6-31.6-27 19.2c-8.7-5.2-18.2-9.1-28-11.6l-5.4-32.6h-44.7l-5.4 32.6c-9.8 2.6-19.3 6.5-28 11.6l-26.9-19.2-31.6 31.6 19.2 26.9c-5.2 8.7-9.1 18.2-11.6 28l-32.6 5.4v44.6l32.6 5.4c2.6 9.8 6.5 19.3 11.6 28l-19.2 26.9 31.6 31.6 26.9-19.2c8.7 5.2 18.2 9.1 28 11.6l5.4 32.6h44.7l5.4-32.6c9.8-2.6 19.3-6.5 28-11.6l26.9 19.2 31.6-31.6-19.2-26.9c5.2-8.7 9.1-18.2 11.6-28l32.7-5.4zm-43.1-.9a97.92 97.92 0 0 1-13.1 31.5l-2.1 3.3 18 25.3-17.7 17.7-25.3-18-3.3 2.1c-9.6 6.2-20.3 10.6-31.5 13.1l-3.8.9-5.1 30.6h-25l-5.1-30.6-3.8-.9a97.92 97.92 0 0 1-31.5-13.1l-3.3-2.1-25.3 18-17.7-17.7 18-25.2-2.1-3.3c-6.2-9.6-10.6-20.3-13.1-31.5l-.8-3.8-30.6-5.1v-25l30.6-5.1.8-3.8a97.92 97.92 0 0 1 13.1-31.5l2.1-3.3-18-25.3 17.7-17.7 25.3 18 3.3-2.1c9.6-6.2 20.3-10.6 31.5-13.1l3.8-.9 5.1-30.6h25l5.1 30.6 3.8.9a97.92 97.92 0 0 1 31.5 13.1l3.3 2.1 25.3-18 17.7 17.7-18 25.2 2.1 3.3c6.2 9.6 10.6 20.3 13.1 31.5l.8 3.8 30.6 5.1v25l-30.6 5.1-.8 3.8zM768.9-343c-32.1 0-58 26-58 58s26 58 58 58c32.1 0 58-26 58-58h0c0-32-25.9-58-58-58zm0 104.5c-25.6 0-46.4-20.8-46.4-46.4s20.8-46.4 46.4-46.4 46.4 20.8 46.4 46.4h0c0 25.6-20.7 46.3-46.4 46.4z"/></g><g transform="matrix(.966 -.259 .259 .966 42.497 870.66)" class="m e"><path d="M905.6-3.7v-24.4l-17.8-3c-1.4-5.4-3.5-10.5-6.4-15.3L892-61.1l-17.3-17.2L860-67.8c-4.8-2.8-9.9-5-15.3-6.4l-3-17.8h-24.4l-3 17.8c-5.4 1.4-10.5 3.5-15.3 6.4l-14.7-10.5L767-61.1l10.5 14.7c-2.8 4.8-5 9.9-6.4 15.3l-17.8 3v24.4l17.8 3c1.4 5.4 3.5 10.5 6.4 15.3L767 29.3l17.3 17.2L799.1 36c4.8 2.8 9.9 5 15.3 6.4l3 17.8h24.4l3-17.8c5.4-1.4 10.5-3.5 15.3-6.4l14.7 10.5L892 29.3l-10.5-14.7c2.8-4.8 5-9.9 6.4-15.3l17.7-3zm-23.5-.5c-1.4 6.1-3.8 11.9-7.1 17.2l-1.1 1.8 9.9 13.8-9.6 9.7-13.8-9.9-1.8 1.1c-5.3 3.4-11.1 5.8-17.2 7.1l-2.1.5-2.8 16.7h-13.7L820 37.1l-2.1-.5c-6.1-1.4-11.9-3.8-17.2-7.1l-1.8-1.1-13.9 9.9-9.7-9.7 9.9-13.8L784 13c-3.4-5.3-5.8-11.1-7.1-17.2l-.5-2.1-16.7-2.8v-13.7l16.7-2.8.5-2.1c1.4-6.1 3.8-11.9 7.1-17.2l1.2-1.8-9.9-13.8L785-70l13.8 9.9 1.8-1.1c5.3-3.4 11.1-5.8 17.2-7.1l2.1-.5 2.8-16.7h13.6l2.8 16.7 2.1.5c6.1 1.4 11.9 3.8 17.2 7.1l1.8 1.1L874-70l9.7 9.7-9.9 13.8 1.2 1.8c3.4 5.3 5.8 11.1 7.1 17.2l.5 2.1 16.7 2.8v13.7l-16.7 2.8-.5 1.9zm-52.6-43.4c-17.5 0-31.7 14.2-31.7 31.7s14.2 31.7 31.7 31.7 31.7-14.2 31.7-31.7h0c0-17.5-14.1-31.7-31.6-31.7h-.1zm0 57.1c-14 0-25.4-11.4-25.4-25.4s11.4-25.4 25.4-25.4 25.4 11.4 25.4 25.4-11.3 25.4-25.4 25.4z"/></g></g></svg>