<?xml version="1.0" encoding="UTF-8"?>
<svg viewBox="0 0 1024 1366" xmlns="http://www.w3.org/2000/svg">
<defs>
<linearGradient id="b" x1=".606" x2="-.079" y1=".047" y2=".9">
<stop stop-color="#2ba6f8" offset="0"/>
<stop stop-color="#090909" offset="1"/>
<stop offset="1"/>
</linearGradient>
<linearGradient id="a" x1=".606" x2="-.079" y1=".047" y2=".9">
<stop stop-color="#2ba6f8" offset="0"/>
<stop offset="1"/>
</linearGradient>
<clipPath id="c">
<rect width="1024" height="1366"/>
</clipPath>
</defs>
<g clip-path="url(#c)" data-name="Portfolio Site HomePage Top Div - Tablet">
<rect width="1024" height="1366" fill="#fff"/>
<path transform="matrix(.819 .574 -.574 .819 581.02 25.461)" d="M0,52.666l14.012-38.5,9.852,3.586L38.545,49.239l16.22,5.9a5.153,5.153,0,1,0,2.115-5.811L43.068,44.3,28.386,12.82,16.127,8.358,22.471-9.074,36.925-3.813A5.138,5.138,0,0,0,40.087-.469a5.153,5.153,0,0,0,6.605-3.08,5.152,5.152,0,0,0-3.08-6.6,5.137,5.137,0,0,0-4.572.529l-14.453-5.26,5.552-15.253L71.217-15.187,65.046,1.768,56.287,5.853a5.2,5.2,0,1,0,2.612,5.6L69.981,6.291l7.047-19.363L90.425-8.2l-11.175,30.7,3.25,8.487a5.153,5.153,0,1,0,6.124-2.1c-.115-.042-.231-.073-.346-.107l-2.427-6.336L96.236-6.081,112.942,0,87.23,70.645,70.645,78.379,18.32,59.334,22.7,47.3a5.153,5.153,0,1,0-5.812-2.115L12.509,57.219Z" fill="#fff" opacity=".2"/>
<g transform="translate(-612.13 -1180.8) rotate(21)" data-name="Group 410">
<path transform="translate(0)" d="m2178.4 177.19s-398.59 8.71-890.92-149.08 1.627 394.73 207.07 515.95c129.74 64.992 168 191.3 159.43 308.91-11.244 154.33-237.4 159.94-427.02 258.04-457.89 236.89 59.388 39.6 233.84 152.88s68.046 197.7-173.32 189.04c-521.24-18.7-348.35 157.61-261.28 237.48s72.092 262.38-338.15 138.98-256 174.55-256 174.55h-432.04v-1826.8z" fill="url(#b)" data-name="Path 1"/>
<path transform="translate(0 176.61)" d="m483.95 0.576s589.42-30.725 694.36 356.59c114.34 422.03-251.38 620.47-375.43 523.6s-129.68-228.54 63.434-315.43 173.7-354.7-248.54-287.86-471.08 604.08-165.17 732.63 231.36 279.87-97.685 440.71-149.1 376.52-149.1 376.52h-205.82v-1826.8z" fill="url(#a)" data-name="Path 2"/>
</g>
<g transform="matrix(.695 -.719 .719 .695 -1813.5 1176.1)" data-name="Group 416">
<path transform="translate(0)" d="m2178.4 177.19s-398.59 8.71-890.92-149.08 1.627 394.73 207.07 515.95c129.74 64.992 168 191.3 159.43 308.91-11.244 154.33-237.4 159.94-427.02 258.04-457.89 236.89 59.388 39.6 233.84 152.88s68.046 197.7-173.32 189.04c-521.24-18.7-881.09-550.8-794.01-470.94s466.24 727.39 56 604-117.41 417.96-117.41 417.96h-432.04v-1826.8z" fill="url(#b)" data-name="Path 1"/>
<path transform="translate(0 176.61)" d="m483.95 0.576s589.42-30.725 694.36 356.59c114.34 422.03-251.38 620.47-375.43 523.6s-129.68-228.54 63.434-315.43 173.7-354.7-248.54-287.86-471.08 604.08-165.17 732.63 231.36 279.87-97.685 440.71-149.1 376.52-149.1 376.52h-205.82v-1826.8z" fill="url(#a)" data-name="Path 2"/>
</g>
<g transform="translate(-149.99 -29.875)" data-name="Group 412">
<g transform="translate(278.84 144.81)" opacity=".4" data-name="Group 363">
<g data-name="Group 362">
<path transform="translate(-452.65 -174.12)" d="m452.65 248.61v-4.266l110.61-63.8v4.26z" fill="#fff" data-name="Path 1532"/>
<path transform="translate(-364.75 -178.93)" d="m500.01 178.93v4.267l-17.923 10.337v-4.267z" fill="#fff" data-name="Path 1533"/>
<path transform="translate(-452.65 -168.28)" d="m452.65 250.56v-4.262l110.61-63.8v4.267z" fill="#fff" data-name="Path 1534"/>
<path transform="translate(-364.75 -161.41)" d="m500.01 184.79v4.266l-17.923 10.342v-4.27z" fill="#fff" data-name="Path 1535"/>
<path transform="translate(-364.75 -155.57)" d="m500.01 186.75v4.266l-17.923 10.338v-4.267z" fill="#fff" data-name="Path 1536"/>
<path transform="translate(-364.75 -132.22)" d="m500.01 194.57v4.267l-17.923 10.338v-4.267z" fill="#fff" data-name="Path 1537"/>
<path transform="translate(-364.75 -126.38)" d="m500.01 196.52v4.267l-17.923 10.338v-4.267z" fill="#fff" data-name="Path 1538"/>
<g transform="translate(40.831 84.362)" data-name="Group 356">
<path transform="translate(-462.9 -200.09)" d="m462.9 240.34l69.783-40.251v4.267l-69.783 40.251z" fill="#fff" data-name="Path 1539"/>
</g>
<g transform="translate(0 76.568)" fill="#fff" data-name="Group 357">
<path transform="translate(-396.05 -198.14)" d="m471.61 218.36l35.061-20.222v4.263l-35.061 20.223z" data-name="Path 1540"/>
<path transform="translate(-452.65 -181.4)" d="m524.53 203.74v4.266l-71.876 41.458v-4.267z" data-name="Path 1541"/>
</g>
<path transform="translate(-452.65 -95.375)" d="m462.1 206.91v4.267l-9.455 5.454v-4.267z" fill="#fff" data-name="Path 1542"/>
<path transform="translate(-407.02 -144.92)" d="m467.93 218.98l49.7-28.668v4.267l-49.7 28.669z" fill="#fff" data-name="Path 1543"/>
<g transform="translate(33.19 2.084)" data-name="Group 358">
<path transform="translate(-460.98 -179.45)" d="m460.98 205.06l44.41-25.616v4.267l-44.41 25.616z" fill="#fff" data-name="Path 1544"/>
</g>
<path transform="translate(-408.4 -177.03)" d="m467.47 197.6l31.267-18.035v4.267l-31.267 18.035z" fill="#fff" data-name="Path 1545"/>
<g transform="translate(0 22.686)" fill="#fff" data-name="Group 359">
<path transform="translate(-432.97 -184.62)" d="m459.24 201.42l29.128-16.8v4.266l-29.128 16.8z" data-name="Path 1546"/>
<path transform="translate(-452.65 -170.44)" d="m475.24 189.36v4.267l-22.588 13.029v-4.267z" data-name="Path 1547"/>
</g>
<path transform="translate(-391.76 -177.46)" d="m496.6 179.42v4.267l-23.558 13.588v-4.267z" fill="#fff" data-name="Path 1548"/>
<path transform="translate(-445.75 -165.69)" d="m454.96 222.8l68.383-39.443v4.266l-68.383 39.447z" fill="#fff" data-name="Path 1549"/>
<path transform="translate(-416.42 -154.85)" d="m464.78 212.77l44.689-25.777v4.267l-44.689 25.777z" fill="#fff" data-name="Path 1550"/>
<path transform="translate(-445.75 -133.95)" d="m454.96 214.45l35.473-20.461v4.267l-35.473 20.46z" fill="#fff" data-name="Path 1551"/>
<g transform="translate(13.133 76.182)" data-name="Group 360">
<path transform="translate(-455.94 -198.04)" d="m455.94 223.48l44.1-25.437v4.267l-44.1 25.437z" fill="#fff" data-name="Path 1552"/>
</g>
<path transform="translate(-442.81 -107.34)" d="m479.96 202.9v4.267l-24.019 13.854v-4.267z" fill="#fff" data-name="Path 1553"/>
<path transform="translate(-376.27 -139.08)" d="m478.23 197.26l8.65-4.989v4.267l-8.65 4.989z" fill="#fff" data-name="Path 1554"/>
<g transform="translate(40.831 60.297)" fill="#fff" data-name="Group 361">
<path transform="translate(-462.9 -188.64)" d="m507.83 195.87v4.267l-44.932 25.916v-4.267z" data-name="Path 1555"/>
<path transform="translate(-426.48 -194.05)" d="m475.09 199.16l8.845-5.1v4.267l-8.845 5.1z" data-name="Path 1556"/>
</g>
<path transform="translate(-415.84 -127.92)" d="m464.98 224.36l49.143-28.346v4.267l-49.143 28.345z" fill="#fff" data-name="Path 1557"/>
</g>
</g>
<g transform="translate(278.84)" fill="#fff" opacity=".4" data-name="Group 364">
<path transform="translate(-422.91 -142.59)" d="m462.61 185.63l74.323-43.04v3.78l-74.323 43.04z" data-name="Path 1558"/>
<path transform="translate(-452.65 -137.03)" d="m566.67 148.24-114.02 65.949v-3.78l114.02-65.95z" data-name="Path 1559"/>
<path transform="translate(-452.65 -108.26)" d="m487.38 154.1v3.78l-34.727 20.107v-3.78z" data-name="Path 1560"/>
<path transform="translate(-422.91 -131.74)" d="M462.61,189.27l74.323-43.042v3.781L462.61,193.05Z" data-name="Path 1561"/>
<path transform="translate(-452.65 -126.18)" d="m566.67 151.87-114.02 65.949v-3.78l114.02-65.951z" data-name="Path 1562"/>
<path transform="translate(-452.65 -97.404)" d="m487.38 161.51-34.727 20.111v-3.781l34.727-20.111z" data-name="Path 1563"/>
<path transform="translate(-422.91 -113.83)" d="m462.61 195.27l74.323-43.041v3.781l-74.323 43.04z" data-name="Path 1564"/>
<path transform="translate(-452.65 -108.27)" d="m566.67 157.87-114.02 65.949v-3.78l114.02-65.95z" data-name="Path 1565"/>
<path transform="translate(-452.65 -79.491)" d="m487.38 167.51-34.727 20.109v-3.78l34.727-20.111z" data-name="Path 1566"/>
<path transform="translate(-422.91 -102.98)" d="m462.61 198.9l74.323-43.041v3.78l-74.323 43.04z" data-name="Path 1567"/>
<path transform="translate(-452.65 -97.419)" d="m566.67 161.5-114.02 65.95v-3.78l114.02-65.95z" data-name="Path 1568"/>
<path transform="translate(-452.65 -68.641)" d="m487.38 171.14-34.727 20.111v-3.781l34.727-20.111z" data-name="Path 1569"/>
<path transform="translate(-422.91 -85.067)" d="m462.61 204.9l74.323-43.04v3.78l-74.323 43.043z" data-name="Path 1570"/>
<path transform="translate(-452.65 -79.505)" d="m566.67 167.5-114.02 65.949v-3.78l114.02-65.95z" data-name="Path 1571"/>
<path transform="translate(-452.65 -50.728)" d="m487.38 177.14-34.727 20.11v-3.78l34.727-20.111z" data-name="Path 1572"/>
<path transform="translate(-422.91 -74.218)" d="m462.61 208.54 74.323-43.037v3.781l-74.323 43.04z" data-name="Path 1573"/>
<path transform="translate(-452.65 -39.878)" d="m487.38 180.78l-34.727 20.11v-3.78l34.727-20.109z" data-name="Path 1574"/>
</g>
<g transform="translate(557.28 266.66)" data-name="Group 366">
<g data-name="Group 365">
<path transform="translate(-522.51 -209.5)" d="m522.51 209.5l0.107 0.06 8e-3 -0.012c-0.039-0.02-0.079-0.028-0.115-0.048z" fill="#bbcee1" data-name="Path 1575"/>
</g>
</g>
<g transform="translate(580.32 156.61)" opacity=".4" data-name="Group 374">
<g data-name="Group 373">
<path transform="translate(-440.39 -181.89)" d="m575.65 181.89v4.267l-17.923 10.338v-4.267z" fill="#fff" data-name="Path 1576"/>
<path transform="translate(-440.39 -176.05)" d="m575.65 183.84v4.267l-17.923 10.338v-4.267z" fill="#fff" data-name="Path 1577"/>
<path transform="translate(-440.39 -170.21)" d="m575.65 185.8v4.267l-17.923 10.333v-4.267z" fill="#fff" data-name="Path 1578"/>
<path transform="translate(-528.29 -153.72)" d="m528.29 259.39v-4.267l110.61-63.802v4.266z" fill="#fff" data-name="Path 1579"/>
<path transform="translate(-440.39 -164.37)" d="m575.65 187.75v4.267l-17.923 10.338v-4.267z" fill="#fff" data-name="Path 1580"/>
<path transform="translate(-440.39 -158.53)" d="m575.65 189.71v4.266l-17.923 10.338v-4.267z" fill="#fff" data-name="Path 1581"/>
<path transform="translate(-528.29 -147.88)" d="m528.29 261.34v-4.267l110.61-63.8v4.267z" fill="#fff" data-name="Path 1582"/>
<path transform="translate(-440.39 -141.02)" d="m575.65 195.58v4.267l-17.923 10.338v-4.266z" fill="#fff" data-name="Path 1583"/>
<path transform="translate(-440.39 -135.18)" d="m575.65 197.53v4.27l-17.923 10.338v-4.267z" fill="#fff" data-name="Path 1584"/>
<path transform="translate(-440.39 -111.82)" d="m575.65 205.35v4.267l-17.923 10.338v-4.267z" fill="#fff" data-name="Path 1585"/>
<path transform="translate(-440.39 -105.99)" d="m575.65 207.31v4.267l-17.923 10.338v-4.267z" fill="#fff" data-name="Path 1586"/>
<g transform="translate(0 115.54)" fill="#fff" data-name="Group 367">
<path transform="translate(-497.7 -210.88)" d="m538.54 251.13l69.783-40.251v4.266l-69.783 40.251z" data-name="Path 1587"/>
<path transform="translate(-528.29 -179.13)" d="m565.44 221.51v4.267l-37.152 21.427v-4.267z" data-name="Path 1588"/>
</g>
<g transform="translate(0 107.74)" fill="#fff" data-name="Group 368">
<path transform="translate(-471.69 -208.92)" d="m547.25 229.14l35.06-20.223v4.267l-35.06 20.223z" data-name="Path 1589"/>
<path transform="translate(-528.29 -192.18)" d="m600.17 214.52v4.267l-71.876 41.458v-4.267z" data-name="Path 1590"/>
</g>
<path transform="translate(-528.29 -74.982)" d="m537.75 217.69v4.267l-9.455 5.454v-4.267z" fill="#fff" data-name="Path 1591"/>
<path transform="translate(-482.66 -124.53)" d="m543.57 229.77l49.7-28.668v4.266l-49.7 28.669z" fill="#fff" data-name="Path 1592"/>
<path transform="translate(-467.41 -171.24)" d="m548.68 202.38l29.336-16.922v4.267l-29.336 16.921z" fill="#fff" data-name="Path 1593"/>
<g transform="translate(33.189 33.259)" data-name="Group 369">
<path transform="translate(-536.62 -190.23)" d="m536.62 215.85l44.41-25.616v4.269l-44.41 25.616z" fill="#fff" data-name="Path 1594"/>
</g>
<path transform="translate(-484.04 -156.64)" d="m543.11 208.38l31.267-18.035v4.267l-31.267 18.035z" fill="#fff" data-name="Path 1595"/>
<g transform="translate(0 53.861)" fill="#fff" data-name="Group 370">
<path transform="translate(-508.62 -195.4)" d="m534.88 212.2l29.127-16.8v4.267l-29.127 16.8z" data-name="Path 1596"/>
<path transform="translate(-528.29 -181.22)" d="m550.88 200.15v4.267l-22.588 13.029v-4.267z" data-name="Path 1597"/>
</g>
<path transform="translate(-467.41 -157.06)" d="m572.24 190.2v4.267l-23.558 13.588v-4.267z" fill="#fff" data-name="Path 1598"/>
<path transform="translate(-521.39 -145.3)" d="m530.6 233.59l68.383-39.444v4.267l-68.383 39.444z" fill="#fff" data-name="Path 1599"/>
<path transform="translate(-492.06 -134.46)" d="m540.43 223.55l44.689-25.777v4.267l-44.689 25.777z" fill="#fff" data-name="Path 1600"/>
<path transform="translate(-521.39 -113.56)" d="M530.6,225.232l35.473-20.461v4.266L530.6,229.5Z" fill="#fff" data-name="Path 1601"/>
<g transform="translate(13.133 107.36)" data-name="Group 371">
<path transform="translate(-531.59 -208.82)" d="m531.59 234.26l44.1-25.437v4.267l-44.1 25.437z" fill="#fff" data-name="Path 1602"/>
</g>
<path transform="translate(-518.45 -86.949)" d="m555.6 213.68v4.266l-24.019 13.85v-4.266z" fill="#fff" data-name="Path 1603"/>
<path transform="translate(-451.91 -118.69)" d="m553.87 208.04l8.649-4.989v4.267l-8.649 4.989z" fill="#fff" data-name="Path 1604"/>
<g transform="translate(40.83 91.473)" fill="#fff" data-name="Group 372">
<path transform="translate(-538.54 -199.43)" d="m583.47 206.65v4.266l-44.932 25.917v-4.267z" data-name="Path 1605"/>
<path transform="translate(-502.12 -204.84)" d="m550.73 209.94l8.845-5.1v4.261l-8.845 5.1z" data-name="Path 1606"/>
</g>
<path transform="translate(-491.48 -107.53)" d="m540.62 235.14l49.143-28.345v4.266l-49.143 28.341z" fill="#fff" data-name="Path 1607"/>
</g>
</g>
<path transform="translate(-250.52 -8.14)" d="m431.64 220.21l55.521-32.037a4.064 4.064 0 0 1 6.094 3.519v66.461a9.069 9.069 0 0 1 -4.528 7.848l-55.513 32.096a4.168 4.168 0 0 1 -6.254 -3.607v-66.181a9.346 9.346 0 0 1 4.68 -8.099z" fill="#fff" opacity=".2" data-name="Path 1608"/>
<path transform="translate(27.828 -172.73)" d="m431.64 220.21l55.521-32.037a4.064 4.064 0 0 1 6.094 3.519v66.461a9.069 9.069 0 0 1 -4.528 7.848l-55.513 32.096a4.168 4.168 0 0 1 -6.254 -3.607v-66.181a9.346 9.346 0 0 1 4.68 -8.099z" fill="#fff" opacity=".2" data-name="Path 1683"/>
<path transform="translate(-307.32 -104.36)" d="m412.61 187.98l55.521-32.033a4.064 4.064 0 0 1 6.094 3.519v66.462a9.073 9.073 0 0 1 -4.528 7.848l-55.513 32.093a4.168 4.168 0 0 1 -6.254 -3.607v-66.183a9.355 9.355 0 0 1 4.68 -8.099z" fill="#fff" opacity=".2" data-name="Path 1609"/>
<path transform="translate(-73.73 33.447)" d="m490.85 234.14l55.521-32.037a4.065 4.065 0 0 1 6.094 3.523v66.457a9.063 9.063 0 0 1 -4.528 7.848l-55.516 32.1a4.165 4.165 0 0 1 -6.25 -3.607v-66.185a9.347 9.347 0 0 1 4.679 -8.099z" fill="#fff" opacity=".2" data-name="Path 1610"/>
<g transform="translate(591.58 290.52)" data-name="Group 377">
<g data-name="Group 376">
<path transform="translate(-531.12 -215.49)" d="m536.29 215.49m-5.178 8.988" fill="#0b3b56" data-name="Path 1612"/>
</g>
</g>
<g transform="translate(51.616 620.78)" data-name="Group 378">
<path transform="translate(-395.64 -298.35)" d="m395.64 298.35" fill="#fff" data-name="Path 1613"/>
</g>
<g transform="translate(69.4 528.76)" data-name="Group 380">
<g data-name="Group 379">
<path transform="translate(-400.1 -275.26)" d="m400.1 275.26l0.108 0.064 8e-3 -0.016c-0.034-0.02-0.078-0.028-0.116-0.048z" fill="#bbcee1" data-name="Path 1614"/>
</g>
</g>
<g transform="translate(229.51 354.67)" data-name="Group 382">
<g data-name="Group 381">
<path transform="translate(-440.27 -231.58)" d="m440.27 231.58l0.108 0.064 8e-3 -0.016c-0.036-0.02-0.08-0.029-0.116-0.048z" fill="#bbcee1" data-name="Path 1615"/>
</g>
</g>
<g transform="translate(388.92 184.65)" data-name="Group 384">
<g data-name="Group 383">
<path transform="translate(-480.27 -188.92)" d="m480.27 188.92l0.1 0.06 0.012-0.012c-0.032-0.02-0.081-0.028-0.112-0.048z" fill="#bbcee1" data-name="Path 1616"/>
</g>
</g>
<g transform="translate(580.54 313.85)" data-name="Group 386">
<g fill="#ebf2eb" data-name="Group 385">
<path transform="translate(-528.34 -221.34)" d="M528.843,224.805l5.9-3.408a.432.432,0,0,1,.65.375v7.067a.967.967,0,0,1-.482.837l-5.9,3.412a.442.442,0,0,1-.666-.383v-7.039A.987.987,0,0,1,528.843,224.805Z" data-name="Path 1617"/>
<path transform="translate(-528.34 -213.42)" d="M528.843,227.458l5.9-3.408a.432.432,0,0,1,.65.375v7.067a.963.963,0,0,1-.482.837l-5.9,3.412a.442.442,0,0,1-.666-.383v-7.039A.987.987,0,0,1,528.843,227.458Z" data-name="Path 1618"/>
<path transform="translate(-528.34 -205.5)" d="M528.843,230.111l5.9-3.408a.433.433,0,0,1,.65.375v7.071a.961.961,0,0,1-.482.833l-5.9,3.416a.445.445,0,0,1-.666-.387v-7.039A.992.992,0,0,1,528.843,230.111Z" data-name="Path 1619"/>
<path transform="translate(-528.34 -197.57)" d="M528.843,232.763l5.9-3.408a.435.435,0,0,1,.65.375V236.8a.961.961,0,0,1-.482.833l-5.9,3.416a.444.444,0,0,1-.666-.387v-7.039A.992.992,0,0,1,528.843,232.763Z" data-name="Path 1620"/>
</g>
</g>
<g transform="translate(168.38 354.79)" opacity=".4" data-name="Group 394">
<g data-name="Group 393">
<path transform="translate(-337.04 -231.61)" d="m472.3 231.61v4.266l-17.923 10.338v-4.267z" fill="#fff" data-name="Path 1621"/>
<path transform="translate(-337.04 -225.77)" d="m472.3 233.57v4.267l-17.923 10.337v-4.27z" fill="#fff" data-name="Path 1622"/>
<path transform="translate(-337.04 -219.93)" d="m472.3 235.52v4.267l-17.923 10.338v-4.266z" fill="#fff" data-name="Path 1623"/>
<path transform="translate(-424.94 -203.44)" d="m424.94 309.11v-4.267l110.61-63.8v4.267z" fill="#fff" data-name="Path 1624"/>
<path transform="translate(-337.04 -214.1)" d="m472.3 237.48v4.267l-17.923 10.338v-4.267z" fill="#fff" data-name="Path 1625"/>
<path transform="translate(-337.04 -208.26)" d="m472.3 239.43v4.268l-17.923 10.338v-4.268z" fill="#fff" data-name="Path 1626"/>
<path transform="translate(-424.94 -197.61)" d="m424.94 311.07v-4.268l110.61-63.8v4.266z" fill="#fff" data-name="Path 1627"/>
<path transform="translate(-337.04 -190.74)" d="M472.3,245.3v4.267L454.377,259.9v-4.267Z" fill="#fff" data-name="Path 1628"/>
<path transform="translate(-337.04 -184.9)" d="m472.3 247.25v4.267l-17.923 10.338v-4.267z" fill="#fff" data-name="Path 1629"/>
<path transform="translate(-337.04 -161.55)" d="m472.3 255.08v4.267l-17.923 10.338v-4.267z" fill="#fff" data-name="Path 1630"/>
<path transform="translate(-337.04 -155.71)" d="m472.3 257.03v4.269l-17.923 10.338v-4.267z" fill="#fff" data-name="Path 1631"/>
<g transform="translate(0 115.54)" fill="#fff" data-name="Group 387">
<path transform="translate(-394.35 -260.6)" d="m435.18 300.85 69.784-40.25v4.267l-69.783 40.251z" data-name="Path 1632"/>
<path transform="translate(-424.94 -228.86)" d="m462.09 271.23v4.27l-37.152 21.429v-4.267z" data-name="Path 1633"/>
</g>
<g transform="translate(0 107.74)" fill="#fff" data-name="Group 388">
<path transform="translate(-368.34 -258.64)" d="m443.89 278.87l35.06-20.223v4.267l-35.06 20.223z" data-name="Path 1634"/>
<path transform="translate(-424.94 -241.9)" d="m496.81 264.25v4.267l-71.875 41.458v-4.267z" data-name="Path 1635"/>
</g>
<path transform="translate(-424.94 -124.71)" d="m434.39 267.42v4.267l-9.455 5.454v-4.267z" fill="#fff" data-name="Path 1636"/>
<path transform="translate(-379.31 -174.25)" d="m440.22 279.49l49.7-28.668v4.267l-49.7 28.668z" fill="#fff" data-name="Path 1637"/>
<path transform="translate(-364.05 -220.96)" d="m445.33 252.1l29.337-16.921v4.267l-29.337 16.922z" fill="#fff" data-name="Path 1638"/>
<g transform="translate(33.189 33.259)" data-name="Group 389">
<path transform="translate(-433.26 -239.96)" d="m433.26 265.57l44.41-25.615v4.266l-44.41 25.616z" fill="#fff" data-name="Path 1639"/>
</g>
<path transform="translate(-380.69 -206.36)" d="m439.76 258.1l31.267-18.035v4.267l-31.267 18.035z" fill="#fff" data-name="Path 1640"/>
<g transform="translate(0 53.861)" fill="#fff" data-name="Group 390">
<path transform="translate(-405.26 -245.12)" d="m431.53 261.92l29.128-16.8v4.267l-29.128 16.8z" data-name="Path 1641"/>
<path transform="translate(-424.94 -230.95)" d="m447.52 249.87v4.267l-22.588 13.029v-4.267z" data-name="Path 1642"/>
</g>
<path transform="translate(-364.05 -206.79)" d="m468.89 239.92v4.267l-23.558 13.588v-4.267z" fill="#fff" data-name="Path 1643"/>
<path transform="translate(-418.03 -195.02)" d="m427.25 283.31l68.383-39.444v4.267l-68.383 39.443z" fill="#fff" data-name="Path 1644"/>
<path transform="translate(-388.7 -184.18)" d="m437.07 273.27 44.689-25.772v4.267l-44.689 25.777z" fill="#fff" data-name="Path 1645"/>
<path transform="translate(-418.03 -163.28)" d="m427.25 274.96l35.473-20.461v4.267l-35.473 20.461z" fill="#fff" data-name="Path 1646"/>
<g transform="translate(13.133 107.36)" data-name="Group 391">
<path transform="translate(-428.23 -258.55)" d="m428.23 283.98l44.1-25.437v4.267l-44.1 25.437z" fill="#fff" data-name="Path 1647"/>
</g>
<path transform="translate(-415.1 -136.67)" d="m452.25 263.41v4.267l-24.019 13.854v-4.267z" fill="#fff" data-name="Path 1648"/>
<path transform="translate(-348.56 -168.42)" d="m450.52 257.77l8.649-4.989v4.267l-8.649 4.989z" fill="#fff" data-name="Path 1649"/>
<g transform="translate(40.831 91.472)" fill="#fff" data-name="Group 392">
<path transform="translate(-435.18 -249.15)" d="m480.11 256.37v4.267l-44.932 25.917v-4.267z" data-name="Path 1650"/>
<path transform="translate(-398.77 -254.56)" d="m447.38 259.66l8.846-5.1v4.267l-8.846 5.1z" data-name="Path 1651"/>
</g>
<path transform="translate(-388.12 -157.25)" d="m437.27 284.86l49.143-28.346v4.267l-49.143 28.346z" fill="#fff" data-name="Path 1652"/>
</g>
</g>
<g transform="translate(0 190.55)" opacity=".4" data-name="Group 402">
<g data-name="Group 401">
<path transform="translate(-295.7 -164.59)" d="m430.96 164.59v4.267l-17.922 10.339v-4.267z" fill="#fff" data-name="Path 1653"/>
<path transform="translate(-295.7 -158.76)" d="m430.96 166.55v4.267l-17.923 10.338v-4.267z" fill="#fff" data-name="Path 1654"/>
<path transform="translate(-295.7 -152.92)" d="m430.96 168.5v4.267l-17.923 10.338v-4.267z" fill="#fff" data-name="Path 1655"/>
<path transform="translate(-383.6 -136.43)" d="m383.6 242.1v-4.267l110.61-63.8v4.267z" fill="#fff" data-name="Path 1656"/>
<path transform="translate(-295.7 -147.08)" d="m430.96 170.46v4.267l-17.923 10.338v-4.265z" fill="#fff" data-name="Path 1657"/>
<path transform="translate(-295.7 -141.24)" d="m430.96 172.42v4.267l-17.922 10.337v-4.267z" fill="#fff" data-name="Path 1658"/>
<path transform="translate(-383.6 -130.59)" d="m383.6 244.05v-4.266l110.61-63.8v4.267z" fill="#fff" data-name="Path 1659"/>
<path transform="translate(-295.7 -123.72)" d="m430.96 178.28v4.267l-17.923 10.338v-4.267z" fill="#fff" data-name="Path 1660"/>
<path transform="translate(-295.7 -117.89)" d="m430.96 180.24v4.262l-17.923 10.338v-4.267z" fill="#fff" data-name="Path 1661"/>
<path transform="translate(-295.7 -94.532)" d="m430.96 188.06v4.267l-17.923 10.338v-4.264z" fill="#fff" data-name="Path 1662"/>
<path transform="translate(-295.7 -88.694)" d="m430.96 190.02v4.267l-17.923 10.338v-4.267z" fill="#fff" data-name="Path 1663"/>
<g transform="translate(40.831 115.54)" data-name="Group 395">
<path transform="translate(-393.84 -193.58)" d="m393.84 233.83l69.783-40.251v4.266l-69.783 40.252z" fill="#fff" data-name="Path 1664"/>
</g>
<g transform="translate(75.554 107.74)" data-name="Group 396">
<path transform="translate(-402.56 -191.63)" d="m402.56 211.85l35.06-20.223v4.267l-35.06 20.223z" fill="#fff" data-name="Path 1665"/>
</g>
<path transform="translate(-383.6 -57.689)" d="m393.06 200.4v4.266l-9.456 5.454v-4.267z" fill="#fff" data-name="Path 1666"/>
<path transform="translate(-337.97 -107.24)" d="m398.88 212.47l49.7-28.668v4.266l-49.7 28.669z" fill="#fff" data-name="Path 1667"/>
<path transform="translate(-322.72 -153.94)" d="m403.99 185.08l29.336-16.922v4.267l-29.336 16.922z" fill="#fff" data-name="Path 1668"/>
<g transform="translate(33.19 33.259)" data-name="Group 397">
<path transform="translate(-391.93 -172.94)" d="m391.93 198.55l44.41-25.616v4.267l-44.41 25.616z" fill="#fff" data-name="Path 1669"/>
</g>
<path transform="translate(-339.35 -139.34)" d="m398.42 191.08l31.267-18.035v4.267l-31.267 18.035z" fill="#fff" data-name="Path 1670"/>
<g transform="translate(0 53.861)" fill="#fff" data-name="Group 398">
<path transform="translate(-363.92 -178.11)" d="m390.19 194.91l29.128-16.8v4.267l-29.128 16.8z" data-name="Path 1671"/>
<path transform="translate(-383.6 -163.93)" d="m406.19 182.86v4.266l-22.589 13.03v-4.267z" data-name="Path 1672"/>
</g>
<path transform="translate(-322.72 -139.77)" d="m427.55 172.91v4.266l-23.558 13.588v-4.262z" fill="#fff" data-name="Path 1673"/>
<path transform="translate(-376.7 -128)" d="m385.91 216.29 68.387-39.444v4.267l-68.387 39.444z" fill="#fff" data-name="Path 1674"/>
<path transform="translate(-347.37 -117.16)" d="m395.74 206.26l44.689-25.777v4.267l-44.689 25.777z" fill="#fff" data-name="Path 1675"/>
<path transform="translate(-376.7 -96.267)" d="m385.91 207.94l35.473-20.461v4.266l-35.473 20.461z" fill="#fff" data-name="Path 1676"/>
<g transform="translate(13.134 107.36)" data-name="Group 399">
<path transform="translate(-386.9 -191.53)" d="m386.9 216.97 44.1-25.437v4.27l-44.1 25.437z" fill="#fff" data-name="Path 1677"/>
</g>
<path transform="translate(-373.76 -69.656)" d="m410.92 196.39v4.266l-24.015 13.855v-4.266z" fill="#fff" data-name="Path 1678"/>
<path transform="translate(-307.22 -101.4)" d="m409.18 190.75l8.649-4.989v4.267l-8.649 4.989z" fill="#fff" data-name="Path 1679"/>
<g transform="translate(40.831 91.473)" fill="#fff" data-name="Group 400">
<path transform="translate(-393.84 -182.13)" d="m438.78 189.36v4.267l-44.932 25.917v-4.267z" data-name="Path 1680"/>
<path transform="translate(-357.43 -187.54)" d="m406.04 192.65l8.845-5.1v4.266l-8.845 5.1z" data-name="Path 1681"/>
</g>
<path transform="translate(-346.79 -90.233)" d="m395.93 217.84 49.142-28.345v4.266l-49.143 28.346z" fill="#fff" data-name="Path 1682"/>
</g>
</g>
</g>
<g transform="translate(71.886 222.92)" data-name="Group 411">
<g transform="translate(0)" data-name="Group 115">
<g transform="translate(0)" data-name="Group 33">
<g transform="translate(126.6 298.44)" data-name="Group 28">
<g data-name="Group 25">
<path transform="translate(-136.14 -274.12)" d="m348.61 303.91-49.718-28.764a7.546 7.546 0 0 0 -7.556 -0.01l-153.52 88.791a3.327 3.327 0 0 0 -0.01 5.757l48.493 28.049a8.956 8.956 0 0 0 8.98 0.01l153.33-88.676a2.978 2.978 0 0 0 8e-3 -5.157z" fill="#0f4463" data-name="Path 96"/>
<path transform="translate(-136.14 -248.23)" d="M348.6,283.172,195.273,371.848a8.955,8.955,0,0,1-8.98-.01L137.8,343.788a3.3,3.3,0,0,1-1.654-2.863v5.952h.01a3.285,3.285,0,0,0,1.644,2.809l48.493,28.055a8.968,8.968,0,0,0,8.98.01L348.6,289.068a2.95,2.95,0,0,0,1.489-2.6h0V280.6A2.951,2.951,0,0,1,348.6,283.172Z" fill="#0b3b56" data-name="Path 97"/>
</g>
<g transform="translate(44.127 5.48)" fill="#1f5e77" data-name="Group 26">
<path transform="translate(-60.27 -275.22)" d="m179.46 278.83l-6.225-3.611-7.074 4.08 6.2 3.6z" data-name="Path 98"/>
<path transform="translate(-67.329 -271.16)" d="m177.7 279.85l-6.225-3.612-7.073 4.08 6.2 3.6z" data-name="Path 99"/>
<path transform="translate(-74.388 -267.1)" d="m175.93 280.87l-6.225-3.611-7.073 4.079 6.2 3.6z" data-name="Path 100"/>
<path transform="translate(-81.446 -263.03)" d="m174.17 281.88l-6.225-3.612-7.073 4.08 6.2 3.6z" data-name="Path 101"/>
<path transform="translate(-88.505 -258.97)" d="m172.4 282.9l-6.225-3.611-7.073 4.08 6.2 3.6z" data-name="Path 102"/>
<path transform="translate(-95.563 -254.91)" d="m170.64 283.92l-6.226-3.611-7.073 4.079 6.205 3.6z" data-name="Path 103"/>
<path transform="translate(-102.62 -250.84)" d="m168.87 284.93l-6.226-3.612-7.074 4.08 6.205 3.6z" data-name="Path 104"/>
<path transform="translate(-109.68 -246.78)" d="m167.1 285.95l-6.226-3.611-7.074 4.079 6.206 3.6z" data-name="Path 105"/>
<path transform="translate(-116.74 -242.72)" d="m165.34 286.96l-6.225-3.611-7.073 4.08 6.205 3.6z" data-name="Path 106"/>
<path transform="translate(-123.8 -238.65)" d="m163.57 287.98l-6.225-3.611-7.074 4.08 6.206 3.6z" data-name="Path 107"/>
<path transform="translate(-130.86 -234.59)" d="m161.81 289l-6.226-3.611-7.073 4.081 6.2 3.6z" data-name="Path 108"/>
<path transform="translate(-137.92 -230.53)" d="m160.04 290.02l-6.225-3.612-7.074 4.08 6.205 3.6z" data-name="Path 109"/>
<path transform="translate(-144.98 -226.46)" d="m152.05 287.42l-7.075 4.081 6.206 3.6 7.093-4.069z" data-name="Path 110"/>
<path transform="translate(-53.828 -271.49)" d="m173.98 283.84l7.094-4.068-6.225-3.612-7.074 4.08z" data-name="Path 111"/>
<path transform="translate(-60.886 -267.43)" d="m166.01 281.25l6.2 3.6 7.094-4.069-6.225-3.611z" data-name="Path 112"/>
<path transform="translate(-67.945 -263.36)" d="m164.25 282.27l6.2 3.6 7.093-4.068-6.224-3.612z" data-name="Path 113"/>
<path transform="translate(-75.004 -259.3)" d="m162.48 283.28l6.205 3.6 7.094-4.069-6.225-3.611z" data-name="Path 114"/>
<path transform="translate(-82.062 -255.24)" d="m160.71 284.3l6.205 3.6 7.093-4.07-6.225-3.61z" data-name="Path 115"/>
<path transform="translate(-89.121 -251.17)" d="m158.95 285.32l6.2 3.6 7.094-4.07-6.225-3.611z" data-name="Path 116"/>
<path transform="translate(-96.18 -247.11)" d="m157.18 286.34l6.205 3.6 7.094-4.069-6.226-3.612z" data-name="Path 117"/>
<path transform="translate(-103.24 -243.05)" d="m155.42 287.35l6.205 3.6 7.094-4.069-6.226-3.611z" data-name="Path 118"/>
<path transform="translate(-110.3 -238.98)" d="m153.65 288.37l6.2 3.6 7.095-4.068-6.226-3.611z" data-name="Path 119"/>
<path transform="translate(-117.36 -234.92)" d="m151.88 289.38l6.2 3.6 7.094-4.069-6.225-3.612z" data-name="Path 120"/>
<path transform="translate(-124.42 -230.86)" d="m150.12 290.4l6.206 3.6 7.093-4.069-6.225-3.611z" data-name="Path 121"/>
<path transform="translate(-131.47 -226.8)" d="m148.35 291.42l6.206 3.6 7.093-4.069-6.225-3.611z" data-name="Path 122"/>
<path transform="translate(-138.53 -222.73)" d="m153.66 288.35l-7.074 4.08 6.206 3.6 7.094-4.07z" data-name="Path 123"/>
<path transform="translate(-47.385 -267.76)" d="m175.6 284.77l7.094-4.069-6.226-3.612-7.074 4.08z" data-name="Path 124"/>
<path transform="translate(-54.444 -263.69)" d="m167.62 282.18l6.205 3.6 7.094-4.069-6.225-3.611z" data-name="Path 125"/>
<path transform="translate(-61.502 -259.63)" d="m179.16 282.73l-6.225-3.611-7.074 4.08 6.205 3.6z" data-name="Path 126"/>
<path transform="translate(-68.561 -255.57)" d="m164.09 284.22l6.2 3.6 7.093-4.069-6.224-3.611z" data-name="Path 127"/>
<path transform="translate(-75.62 -251.51)" d="m162.33 285.24l6.205 3.6 7.094-4.068-6.225-3.612z" data-name="Path 128"/>
<path transform="translate(-82.678 -247.44)" d="m160.56 286.25l6.205 3.6 7.094-4.069-6.225-3.611z" data-name="Path 129"/>
<path transform="translate(-89.737 -243.38)" d="m158.79 287.27l6.2 3.6 7.094-4.068-6.226-3.612z" data-name="Path 130"/>
<path transform="translate(-96.796 -239.32)" d="m157.03 288.28l6.206 3.6 7.094-4.069-6.228-3.615z" data-name="Path 131"/>
<path transform="translate(-103.85 -235.25)" d="m155.26 289.3l6.2 3.6 7.094-4.069-6.226-3.611z" data-name="Path 132"/>
<path transform="translate(-110.91 -231.19)" d="m153.5 290.32l6.205 3.6 7.094-4.069-6.225-3.61z" data-name="Path 133"/>
<path transform="translate(-117.97 -227.13)" d="m151.73 291.33l6.205 3.6 7.094-4.07-6.226-3.611z" data-name="Path 134"/>
<path transform="translate(-125.03 -223.06)" d="m163.26 291.88l-6.225-3.611-7.073 4.08 6.205 3.6z" data-name="Path 135"/>
<path transform="translate(-132.09 -219)" d="m155.27 289.29l-7.074 4.08 6.2 3.6 7.101-4.067z" data-name="Path 136"/>
<path transform="translate(-40.942 -264.02)" d="m177.21 285.7l7.094-4.069-6.225-3.611-7.075 4.08z" data-name="Path 137"/>
<path transform="translate(-48.001 -259.96)" d="m182.53 282.65l-6.225-3.611-7.074 4.079 6.206 3.6z" data-name="Path 138"/>
<path transform="translate(-55.06 -255.9)" d="m180.77 283.67l-6.226-3.612-7.074 4.08 6.2 3.6z" data-name="Path 139"/>
<path transform="translate(-62.118 -251.84)" d="m179 284.68l-6.225-3.611-7.073 4.08 6.2 3.6z" data-name="Path 140"/>
<path transform="translate(-69.177 -247.77)" d="m177.24 285.7l-6.225-3.61-7.074 4.08 6.206 3.6z" data-name="Path 141"/>
<path transform="translate(-76.235 -243.71)" d="m175.47 286.72l-6.226-3.611-7.074 4.08 6.205 3.6z" data-name="Path 142"/>
<path transform="translate(-83.295 -239.65)" d="m173.7 287.73l-6.226-3.611-7.074 4.081 6.206 3.6z" data-name="Path 143"/>
<path transform="translate(-90.353 -235.58)" d="m171.94 288.75l-6.226-3.612-7.074 4.08 6.206 3.6z" data-name="Path 144"/>
<path transform="translate(-97.412 -231.52)" d="m170.17 289.77l-6.226-3.612-7.073 4.08 6.206 3.6z" data-name="Path 145"/>
<path transform="translate(-104.47 -227.46)" d="m168.41 290.78l-6.225-3.611-7.074 4.08 6.205 3.6z" data-name="Path 146"/>
<path transform="translate(-111.53 -223.4)" d="m166.64 291.8l-6.225-3.612-7.074 4.08 6.206 3.6z" data-name="Path 147"/>
<path transform="translate(-118.59 -219.33)" d="m164.88 292.82-6.225-3.615l-7.074 4.08 6.2 3.6z" data-name="Path 148"/>
<path transform="translate(-125.65 -215.27)" d="m156.88 290.22l-7.074 4.08 6.205 3.6 7.094-4.069z" data-name="Path 149"/>
<path transform="translate(-34.499 -260.29)" d="m178.82 286.64l7.095-4.069-6.226-3.611-7.074 4.08z" data-name="Path 150"/>
<path transform="translate(-41.558 -256.23)" d="m184.14 283.58l-6.226-3.612-7.073 4.08 6.2 3.6z" data-name="Path 151"/>
<path transform="translate(-48.616 -252.17)" d="m182.38 284.6l-6.225-3.611-7.073 4.079 6.2 3.6z" data-name="Path 152"/>
<path transform="translate(-55.675 -248.1)" d="m180.61 285.62l-6.226-3.611-7.073 4.08 6.2 3.6z" data-name="Path 153"/>
<path transform="translate(-62.734 -244.04)" d="m178.85 286.63l-6.225-3.611-7.073 4.078 6.2 3.6z" data-name="Path 154"/>
<path transform="translate(-69.793 -239.98)" d="m177.08 287.65l-6.225-3.612-7.074 4.08 6.205 3.6z" data-name="Path 155"/>
<path transform="translate(-76.851 -235.92)" d="m175.32 288.67l-6.225-3.611-7.074 4.08 6.205 3.6z" data-name="Path 156"/>
<path transform="translate(-83.91 -231.85)" d="m173.55 289.68l-6.225-3.611-7.074 4.079 6.2 3.6z" data-name="Path 157"/>
<path transform="translate(-90.969 -227.79)" d="m171.78 290.7l-6.225-3.612-7.074 4.08 6.206 3.6z" data-name="Path 158"/>
<path transform="translate(-98.028 -223.73)" d="m170.02 291.72l-6.225-3.611-7.075 4.08 6.206 3.6z" data-name="Path 159"/>
<path transform="translate(-105.09 -219.66)" d="m168.25 292.73l-6.226-3.611-7.074 4.08 6.205 3.6z" data-name="Path 160"/>
<path transform="translate(-112.14 -215.6)" d="m166.49 293.75l-6.225-3.611-7.074 4.081 6.206 3.6z" data-name="Path 161"/>
<path transform="translate(-119.2 -211.54)" d="m158.5 291.15l-7.075 4.081 6.206 3.6 7.094-4.069z" data-name="Path 162"/>
<path transform="translate(-28.056 -256.56)" d="m181.3 279.89l-7.074 4.079 6.205 3.6 7.094-4.069z" data-name="Path 163"/>
<path transform="translate(-35.115 -252.5)" d="m172.46 284.99l6.205 3.6 7.094-4.068-6.225-3.612z" data-name="Path 164"/>
<path transform="translate(-42.174 -248.44)" d="m170.69 286l6.205 3.6 7.093-4.068-6.225-3.612z" data-name="Path 165"/>
<path transform="translate(-49.233 -244.37)" d="m168.93 287.02l6.205 3.6 7.093-4.069-6.225-3.612z" data-name="Path 166"/>
<path transform="translate(-56.291 -240.31)" d="m167.16 288.04l6.205 3.6 7.093-4.068-6.225-3.612z" data-name="Path 167"/>
<path transform="translate(-63.35 -236.25)" d="m165.4 289.05l6.2 3.6 7.094-4.069-6.225-3.61z" data-name="Path 168"/>
<path transform="translate(-98.643 -232.18)" d="m198.94 285.99l-8.823 5.08-1.737 1-7.084 4.08-3.6 2.074-5.223 3.007h-6e-3l-5.57 3.213-10.327 5.948 6.2 3.6 10.8-6.211 5.122-2.938h-8e-3l5.372-3.091 3.461-1.984h-6e-3l6.978-4.015 1.852-1.062 8.826-5.079z" data-name="Path 169"/>
<path transform="translate(-105.7 -211.87)" d="m154.8 295.15l6.206 3.6 7.094-4.069-6.225-3.612z" data-name="Path 170"/>
<path transform="translate(-112.76 -207.8)" d="m153.03 296.17l6.205 3.6 7.094-4.069-6.226-3.612z" data-name="Path 171"/>
</g>
<g transform="translate(8.83 76.586)" fill="#1f5e77" data-name="Group 27">
<path transform="translate(-123.79 -289.45)" d="m154.74 293.06l-6.225-3.611-7.074 4.08 6.2 3.6z" data-name="Path 172"/>
<path transform="translate(-130.85 -285.39)" d="m152.98 294.08l-6.226-3.611-7.073 4.08 6.205 3.6z" data-name="Path 173"/>
<path transform="translate(-137.91 -281.32)" d="m151.21 295.1l-6.226-3.612-7.074 4.08 6.205 3.6z" data-name="Path 174"/>
<path transform="translate(-117.35 -285.72)" d="m143.06 294.46l6.205 3.6 7.093-4.064-6.226-3.611z" data-name="Path 175"/>
<path transform="translate(-124.41 -281.66)" d="m141.29 295.48l6.2 3.6 7.095-4.07-6.225-3.611z" data-name="Path 176"/>
<path transform="translate(-131.47 -277.59)" d="m139.52 296.5l6.205 3.6 7.093-4.069-6.225-3.611z" data-name="Path 177"/>
<path transform="translate(-110.91 -281.99)" d="m144.67 295.4l6.206 3.6 7.094-4.069-6.226-3.612z" data-name="Path 178"/>
<path transform="translate(-117.97 -277.92)" d="m142.9 296.42l6.205 3.6 7.094-4.069-6.225-3.611z" data-name="Path 179"/>
<path transform="translate(-125.03 -273.86)" d="m141.14 297.43l6.2 3.6 7.094-4.069-6.225-3.611z" data-name="Path 180"/>
<path transform="translate(-104.47 -278.25)" d="m159.58 295.86l-6.225-3.611-7.074 4.08 6.206 3.6z" data-name="Path 181"/>
<path transform="translate(-111.52 -274.19)" d="m157.81 296.88l-6.225-3.612-7.074 4.081 6.205 3.6z" data-name="Path 182"/>
<path transform="translate(-118.58 -270.13)" d="m156.05 297.9l-6.226-3.611-7.074 4.081 6.206 3.6z" data-name="Path 183"/>
<path transform="translate(-98.023 -274.52)" d="m161.19 296.8l-6.225-3.611-7.074 4.08 6.205 3.6z" data-name="Path 184"/>
<path transform="translate(-105.08 -270.46)" d="m159.42 297.81-6.223-3.613l-7.074 4.08 6.205 3.6z" data-name="Path 185"/>
<path transform="translate(-112.14 -266.4)" d="m157.66 298.83l-6.226-3.612-7.074 4.08 6.206 3.6z" data-name="Path 186"/>
<path transform="translate(-91.58 -270.79)" d="m149.5 298.2l6.2 3.6 7.093-4.068-6.224-3.612z" data-name="Path 187"/>
<path transform="translate(-98.639 -266.73)" d="m147.74 299.22l6.2 3.6 7.095-4.07-6.225-3.61z" data-name="Path 188"/>
</g>
</g>
<g transform="translate(55.669 251.22)" data-name="Group 29">
<path transform="translate(-121.95 -264.67)" d="m295.06 293.97l-48.9-28.39a6.69 6.69 0 0 0 -6.7 -5e-3l-116.04 66.969a2.952 2.952 0 0 0 0 5.107l47.813 27.753a7.947 7.947 0 0 0 7.966 0.01l115.85-66.869a2.645 2.645 0 0 0 6e-3 -4.575z" fill="#1f5e77" data-name="Path 189"/>
<path transform="translate(-121.95 -239.41)" d="M295.051,273.275,179.2,340.143a7.947,7.947,0,0,1-7.966-.01l-47.819-27.755a2.918,2.918,0,0,1-1.464-2.539v6l.005.005a2.908,2.908,0,0,0,1.459,2.489l47.819,27.76a7.947,7.947,0,0,0,7.966.01l115.852-66.873a2.618,2.618,0,0,0,1.319-2.3h0V271A2.6,2.6,0,0,1,295.051,273.275Z" fill="#07304b" data-name="Path 190"/>
<path transform="translate(-79.064 -239.41)" d="m252.17 273.28-115.85 66.868a7.919 7.919 0 0 1 -3.638 1.044v5.957a7.908 7.908 0 0 0 3.638 -1.04l115.85-66.873a2.618 2.618 0 0 0 1.319 -2.3v-5.931a2.6 2.6 0 0 1 -1.319 2.275z" fill="#0b3b56" data-name="Path 191"/>
</g>
<g transform="translate(89.321 225.59)" data-name="Group 30">
<path transform="translate(-118.62 -253.78)" d="m131.2 313.17l90.182-52.185v44.678l-90.182 52.15z" fill="#0f4463" data-name="Path 192"/>
<path transform="translate(-128.68 -259.55)" d="m218.9 259.55l12.556 7.205-90.182 52.185-12.587-7.225z" fill="#07304b" data-name="Path 193"/>
<path transform="translate(-128.68 -217.82)" d="m128.68 269.98l12.587 7.226v44.643l-12.585-7.312z" fill="#07304b" data-name="Path 194"/>
</g>
<g data-name="Group 32">
<g data-name="Group 31">
<path transform="translate(-103.52 -210.08)" d="m386.76 215.49-274.12 158.99l6e-3 201.72 274.12-159.62z" fill="#3a3a3a" data-name="Path 195"/>
<path transform="translate(-110.81 -87.331)" d="m119.92 251.73l-9.115-5.538v201.72l9.121 5.538z" fill="#07304b" data-name="Path 196"/>
<path transform="translate(-110.81 -214.4)" d="m394.05 219.81l-9.335-5.411-273.9 158.86 9.115 5.538z" fill="#1f5e77" data-name="Path 197"/>
</g>
<path transform="translate(-103.52 -210.08)" d="m112.63 374.47l5e-3 201.72 274.12-159.62v-201.08zm6.491 3.743l261.14-151.46v186.08l-261.14 152.06z" fill="#0b3b56" data-name="Path 198"/>
</g>
</g>
<g transform="translate(23.059 34.654)" data-name="Group 95">
<g transform="translate(56.483 12.653)" data-name="Group 67">
<path transform="translate(-9.048 -223.87)" d="m178.64 223.87v5.35l-22.472 12.961v-5.35z" fill="#f5d012" data-name="Path 247"/>
<path transform="translate(-9.048 -216.05)" d="m178.64 225.83v5.35l-22.472 12.961v-5.349z" fill="#edf0f8" data-name="Path 248"/>
<path transform="translate(-9.048 -208.24)" d="m178.64 227.78v5.35l-22.472 12.962v-5.35z" fill="#edf0f8" data-name="Path 249"/>
<path transform="translate(-126.73 -186.16)" d="m126.73 318.65v-5.349l138.69-80v5.35z" fill="#edf0f8" data-name="Path 250"/>
<path transform="translate(-9.048 -200.42)" d="m178.64 229.74v5.35l-22.472 12.962v-5.349z" fill="#edf0f8" data-name="Path 251"/>
<path transform="translate(-9.048 -192.6)" d="M178.639,231.692v5.35L156.167,250v-5.35Z" fill="#edf0f8" data-name="Path 252"/>
<path transform="translate(-126.73 -178.35)" d="m126.73 320.6v-5.35l138.69-80v5.35z" fill="#ebf2eb" data-name="Path 253"/>
<path transform="translate(-9.048 -169.15)" d="m178.64 237.56v5.35l-22.472 12.962v-5.35z" fill="#edf0f8" data-name="Path 254"/>
<path transform="translate(-9.048 -161.34)" d="m178.64 239.51v5.35l-22.472 12.962v-5.35z" fill="#f5d012" data-name="Path 255"/>
<path transform="translate(-9.048 -130.07)" d="m178.64 247.34v5.35l-22.472 12.962v-5.348z" fill="#edf0f8" data-name="Path 256"/>
<path transform="translate(-9.048 -122.26)" d="m178.64 249.29v5.349l-22.472 12.96v-5.349z" fill="#edf0f8" data-name="Path 257"/>
<g transform="translate(0 144.86)" data-name="Group 61">
<path transform="translate(-85.778 -252.86)" d="m136.97 303.32l87.495-50.467v5.349l-87.495 50.467z" fill="#ebf2eb" data-name="Path 258"/>
<path transform="translate(-126.73 -210.36)" d="m173.31 263.49v5.35l-46.582 26.868v-5.35z" fill="#edf0f8" data-name="Path 259"/>
</g>
<g transform="translate(0 135.09)" fill="#edf0f8" data-name="Group 62">
<path transform="translate(-50.954 -250.9)" d="m145.68 276.26 43.958-25.358v5.349l-43.958 25.355z" data-name="Path 260"/>
<path transform="translate(-126.73 -228.49)" d="m216.84 256.51v5.35l-90.118 51.98v-5.35z" data-name="Path 261"/>
</g>
<path transform="translate(-126.73 -80.745)" d="m138.58 259.68v5.349l-11.855 6.838v-5.35z" fill="#edf0f8" data-name="Path 262"/>
<path transform="translate(-65.639 -147.08)" d="m142.01 279.03l62.317-35.945v5.35l-62.317 35.944z" fill="#ed5561" data-name="Path 263"/>
<path transform="translate(-45.214 -209.61)" d="M147.12,248.653,183.9,227.437v5.35L147.12,254Z" fill="#edf0f8" data-name="Path 264"/>
<g transform="translate(41.613 41.701)" data-name="Group 63">
<path transform="translate(-135.05 -232.22)" d="m135.05 264.33l55.681-32.117v5.35l-55.681 32.117z" fill="#edf0f8" data-name="Path 265"/>
</g>
<path transform="translate(-67.483 -190.07)" d="m141.55 254.94l39.2-22.612v5.35l-39.2 22.612z" fill="#edf0f8" data-name="Path 266"/>
<g transform="translate(0 67.531)" data-name="Group 64">
<path transform="translate(-100.38 -237.38)" d="m133.32 258.45l36.52-21.065v5.35l-36.52 21.066z" fill="#ed5561" data-name="Path 267"/>
<path transform="translate(-126.73 -218.41)" d="m155.05 242.13v5.35l-28.322 16.336v-5.35z" fill="#edf0f8" data-name="Path 268"/>
</g>
<path transform="translate(-45.214 -190.64)" d="m176.66 232.18v5.349l-29.537 17.038v-5.349z" fill="#ed5561" data-name="Path 269"/>
<path transform="translate(-117.48 -174.88)" d="m129.04 285.58l85.738-49.454v5.349l-85.738 49.454z" fill="#edf0f8" data-name="Path 270"/>
<path transform="translate(-78.219 -160.37)" d="m138.86 272.08l56.031-32.319v5.35l-56.031 32.319z" fill="#edf0f8" data-name="Path 271"/>
<path transform="translate(-117.48 -132.39)" d="m129.04 272.41l44.476-25.653v5.345l-44.476 25.658z" fill="#edf0f8" data-name="Path 272"/>
<g transform="translate(16.467 134.6)" data-name="Group 65">
<path transform="translate(-130.02 -250.81)" d="m130.02 282.7l55.293-31.893v5.35l-55.293 31.893z" fill="#edf0f8" data-name="Path 273"/>
</g>
<path transform="translate(-113.56 -96.768)" d="m160.14 255.67v5.349l-30.115 17.371v-5.349z" fill="#50e85e" data-name="Path 274"/>
<path transform="translate(-24.467 -139.26)" d="m152.31 251.29l10.845-6.256v5.35l-10.845 6.255z" fill="#edf0f8" data-name="Path 275"/>
<g transform="translate(51.193 114.69)" fill="#edf0f8" data-name="Group 66">
<path transform="translate(-136.97 -239.58)" d="m193.31 248.63v5.35l-56.336 32.495v-5.35z" data-name="Path 276"/>
<path transform="translate(-88.22 -246.82)" d="m149.17 253.22l11.091-6.4v5.35l-11.091 6.4z" data-name="Path 277"/>
</g>
<path transform="translate(-77.441 -124.32)" d="m139.06 284.32l61.616-35.54v5.349l-61.616 35.541z" fill="#edf0f8" data-name="Path 278"/>
</g>
<g transform="translate(0 116.16)" data-name="Group 74">
<path transform="translate(-83 -244.58)" d="m129.73 244.58v1.474l-6.192 3.572v-1.474z" fill="#edf0f8" data-name="Path 279"/>
<path transform="translate(-83 -242.43)" d="m129.73 245.12v1.478l-6.192 3.571v-1.474z" fill="#edf0f8" data-name="Path 280"/>
<path transform="translate(-83 -240.28)" d="m129.73 245.66v1.474l-6.192 3.572v-1.474z" fill="#edf0f8" data-name="Path 281"/>
<path transform="translate(-115.42 -234.19)" d="m115.42 270.7v-1.474l38.214-22.041v1.474z" fill="#edf0f8" data-name="Path 282"/>
<path transform="translate(-83 -238.12)" d="m129.73 246.2v1.474l-6.192 3.572v-1.474z" fill="#edf0f8" data-name="Path 283"/>
<path transform="translate(-83 -235.97)" d="m129.73 246.74v1.474l-6.192 3.572v-1.475z" fill="#edf0f8" data-name="Path 284"/>
<path transform="translate(-115.42 -232.04)" d="m115.42 271.24v-1.474l38.214-22.042v1.478z" fill="#edf0f8" data-name="Path 285"/>
<path transform="translate(-83 -229.51)" d="m129.73 248.36v1.474l-6.192 3.571v-1.474z" fill="#edf0f8" data-name="Path 286"/>
<path transform="translate(-83 -227.35)" d="m129.73 248.89v1.474l-6.192 3.572v-1.474z" fill="#edf0f8" data-name="Path 287"/>
<path transform="translate(-83 -218.74)" d="m129.73 251.05v1.474l-6.192 3.572v-1.474z" fill="#edf0f8" data-name="Path 288"/>
<path transform="translate(-83 -216.58)" d="m129.73 251.59v1.474l-6.192 3.571v-1.473z" fill="#edf0f8" data-name="Path 289"/>
<g transform="translate(0 39.915)" fill="#edf0f8" data-name="Group 68">
<path transform="translate(-104.14 -252.57)" d="m118.25 266.48l24.108-13.906v1.474l-24.108 13.906z" data-name="Path 290"/>
<path transform="translate(-115.42 -240.86)" d="M128.26,255.5v1.474l-12.835,7.4V262.9Z" data-name="Path 291"/>
</g>
<g transform="translate(0 37.223)" fill="#edf0f8" data-name="Group 69">
<path transform="translate(-94.546 -252.03)" d="m120.65 259.02l12.112-6.986v1.474l-12.112 6.986z" data-name="Path 292"/>
<path transform="translate(-115.42 -245.86)" d="m140.26 253.58v1.474l-24.831 14.323v-1.474z" data-name="Path 293"/>
</g>
<path transform="translate(-115.42 -205.15)" d="m118.69 254.45v1.474l-3.267 1.885v-1.474z" fill="#edf0f8" data-name="Path 294"/>
<path transform="translate(-98.592 -223.42)" d="m119.64 259.78l17.171-9.9v1.474l-17.171 9.9z" fill="#edf0f8" data-name="Path 295"/>
<path transform="translate(-92.964 -240.66)" d="m121.04 251.41l10.135-5.846v1.474l-10.135 5.846z" fill="#edf0f8" data-name="Path 296"/>
<g transform="translate(11.466 11.49)" data-name="Group 70">
<path transform="translate(-117.72 -246.88)" d="m117.72 255.73l15.342-8.85v1.474l-15.342 8.85z" fill="#edf0f8" data-name="Path 297"/>
</g>
<path transform="translate(-99.1 -235.27)" d="m119.51 253.14l10.8-6.23v1.474l-10.8 6.231z" fill="#edf0f8" data-name="Path 298"/>
<g transform="translate(0 18.607)" fill="#edf0f8" data-name="Group 71">
<path transform="translate(-108.17 -248.31)" d="m117.24 254.11l10.063-5.8v1.474l-10.063 5.8z" data-name="Path 299"/>
<path transform="translate(-115.42 -243.08)" d="m123.23 249.62v1.474l-7.8 4.5v-1.474z" data-name="Path 300"/>
</g>
<path transform="translate(-92.964 -235.43)" d="m129.18 246.87v1.474l-8.139 4.694v-1.474z" fill="#edf0f8" data-name="Path 301"/>
<path transform="translate(-112.88 -231.08)" d="m116.06 261.59l23.624-13.627v1.474l-23.624 13.627z" fill="#edf0f8" data-name="Path 302"/>
<path transform="translate(-102.06 -227.09)" d="m118.77 257.87l15.439-8.905v1.474l-15.439 8.906z" fill="#edf0f8" data-name="Path 303"/>
<path transform="translate(-112.88 -219.38)" d="m116.06 257.96l12.255-7.068v1.474l-12.255 7.069z" fill="#edf0f8" data-name="Path 304"/>
<g transform="translate(4.537 37.089)" data-name="Group 72">
<path transform="translate(-116.33 -252)" d="m116.33 260.79l15.235-8.788v1.474l-15.235 8.788z" fill="#edf0f8" data-name="Path 305"/>
</g>
<path transform="translate(-111.8 -209.56)" d="m124.63 253.34v1.474l-8.3 4.786v-1.474z" fill="#edf0f8" data-name="Path 306"/>
<path transform="translate(-87.248 -221.27)" d="m122.47 252.14l2.988-1.724v1.474l-2.988 1.723z" fill="#edf0f8" data-name="Path 307"/>
<g transform="translate(14.106 31.601)" fill="#edf0f8" data-name="Group 73">
<path transform="translate(-118.25 -248.91)" d="m133.77 251.41v1.474l-15.523 8.954v-1.474z" data-name="Path 308"/>
<path transform="translate(-104.81 -250.91)" d="m121.61 252.67l3.056-1.762v1.473l-3.056 1.763z" data-name="Path 309"/>
</g>
<path transform="translate(-101.84 -217.15)" d="m118.82 261.24l16.978-9.793v1.474l-16.978 9.792z" fill="#edf0f8" data-name="Path 310"/>
</g>
<g transform="translate(0 161.72)" data-name="Group 81">
<path transform="translate(-83 -253.7)" d="m129.73 253.7v1.474l-6.192 3.571v-1.474z" fill="#edf0f8" data-name="Path 311"/>
<path transform="translate(-83 -251.55)" d="m129.73 254.24v1.474l-6.192 3.571v-1.474z" fill="#edf0f8" data-name="Path 312"/>
<path transform="translate(-83 -249.39)" d="m129.73 254.78v1.474l-6.192 3.572v-1.474z" fill="#edf0f8" data-name="Path 313"/>
<path transform="translate(-115.42 -243.31)" d="m115.42 279.82v-1.474l38.214-22.042v1.474z" fill="#edf0f8" data-name="Path 314"/>
<path transform="translate(-83 -247.24)" d="m129.73 255.32v1.474l-6.192 3.572v-1.474z" fill="#edf0f8" data-name="Path 315"/>
<path transform="translate(-83 -245.08)" d="m129.73 255.86v1.474l-6.192 3.572v-1.474z" fill="#edf0f8" data-name="Path 316"/>
<path transform="translate(-115.42 -241.16)" d="m115.42 280.36v-1.474l38.214-22.042v1.474z" fill="#edf0f8" data-name="Path 317"/>
<path transform="translate(-83 -238.62)" d="m129.73 257.47v1.474l-6.192 3.571v-1.474z" fill="#edf0f8" data-name="Path 318"/>
<path transform="translate(-83 -236.47)" d="m129.73 258.01v1.474l-6.192 3.572v-1.474z" fill="#edf0f8" data-name="Path 319"/>
<path transform="translate(-83 -227.86)" d="m129.73 260.17v1.474l-6.192 3.572v-1.474z" fill="#edf0f8" data-name="Path 320"/>
<path transform="translate(-83 -225.7)" d="m129.73 260.7v1.474l-6.192 3.571v-1.474z" fill="#edf0f8" data-name="Path 321"/>
<g transform="translate(0 39.915)" fill="#edf0f8" data-name="Group 75">
<path transform="translate(-104.14 -261.69)" d="m118.25 275.59l24.108-13.906v1.474l-24.108 13.905z" data-name="Path 322"/>
<path transform="translate(-115.42 -249.98)" d="m128.26 264.62v1.474l-12.835 7.4v-1.471z" data-name="Path 323"/>
</g>
<g transform="translate(0 37.223)" fill="#edf0f8" data-name="Group 76">
<path transform="translate(-94.546 -261.15)" d="m120.65 268.14l12.112-6.987v1.474l-12.112 6.986z" data-name="Path 324"/>
<path transform="translate(-115.42 -254.97)" d="m140.26 262.69v1.474l-24.831 14.322v-1.474z" data-name="Path 325"/>
</g>
<path transform="translate(-115.42 -214.26)" d="m118.69 263.57v1.474l-3.267 1.884v-1.474z" fill="#edf0f8" data-name="Path 326"/>
<path transform="translate(-98.592 -232.54)" d="m119.64 268.9l17.171-9.9v1.474l-17.171 9.9z" fill="#edf0f8" data-name="Path 327"/>
<path transform="translate(-92.964 -249.77)" d="m121.04 260.53l10.135-5.846v1.474l-10.135 5.843z" fill="#edf0f8" data-name="Path 328"/>
<g transform="translate(11.466 11.491)" data-name="Group 77">
<path transform="translate(-117.72 -256)" d="m117.72 264.85 15.342-8.849v1.474l-15.342 8.85z" fill="#edf0f8" data-name="Path 329"/>
</g>
<path transform="translate(-99.1 -244.39)" d="m119.51 262.26l10.8-6.23v1.469l-10.8 6.231z" fill="#edf0f8" data-name="Path 330"/>
<g transform="translate(0 18.608)" fill="#edf0f8" data-name="Group 78">
<path transform="translate(-108.17 -257.42)" d="m117.24 263.23l10.063-5.8v1.472l-10.063 5.8z" data-name="Path 331"/>
<path transform="translate(-115.42 -252.2)" d="m123.23 258.73v1.474l-7.8 4.5v-1.474z" data-name="Path 332"/>
</g>
<path transform="translate(-92.964 -244.54)" d="m129.18 255.99v1.474l-8.139 4.695v-1.474z" fill="#edf0f8" data-name="Path 333"/>
<path transform="translate(-112.88 -240.2)" d="m116.06 270.7l23.624-13.627v1.474l-23.624 13.626z" fill="#edf0f8" data-name="Path 334"/>
<path transform="translate(-102.06 -236.2)" d="m118.77 266.98l15.439-8.906v1.474l-15.439 8.9z" fill="#edf0f8" data-name="Path 335"/>
<path transform="translate(-112.88 -228.5)" d="m116.06 267.08l12.255-7.068v1.474l-12.255 7.069z" fill="#edf0f8" data-name="Path 336"/>
<g transform="translate(4.537 37.089)" data-name="Group 79">
<path transform="translate(-116.33 -261.12)" d="m116.33 269.91l15.235-8.788v1.477l-15.235 8.788z" fill="#edf0f8" data-name="Path 337"/>
</g>
<path transform="translate(-111.8 -218.68)" d="m124.63 262.46v1.474l-8.3 4.786v-1.474z" fill="#edf0f8" data-name="Path 338"/>
<path transform="translate(-87.248 -230.39)" d="m122.47 261.26l2.988-1.723v1.474l-2.988 1.723z" fill="#edf0f8" data-name="Path 339"/>
<g transform="translate(14.106 31.602)" fill="#edf0f8" data-name="Group 80">
<path transform="translate(-118.25 -258.03)" d="M133.77,260.524V262l-15.523,8.954v-1.474Z" data-name="Path 340"/>
<path transform="translate(-104.81 -260.02)" d="m121.61 261.79l3.056-1.762v1.476l-3.056 1.763z" data-name="Path 341"/>
</g>
<path transform="translate(-101.84 -226.27)" d="m118.82 270.36l16.978-9.793v1.474l-16.978 9.793z" fill="#edf0f8" data-name="Path 342"/>
</g>
<g transform="translate(0 207.28)" data-name="Group 88">
<path transform="translate(-83 -262.82)" d="m129.73 262.82v1.474l-6.192 3.572v-1.474z" fill="#edf0f8" data-name="Path 343"/>
<path transform="translate(-83 -260.66)" d="m129.73 263.36v1.474l-6.192 3.572v-1.474z" fill="#edf0f8" data-name="Path 344"/>
<path transform="translate(-83 -258.51)" d="m129.73 263.9v1.474l-6.192 3.572v-1.474z" fill="#edf0f8" data-name="Path 345"/>
<path transform="translate(-115.42 -252.43)" d="m115.42 288.93v-1.474l38.214-22.042v1.474z" fill="#edf0f8" data-name="Path 346"/>
<path transform="translate(-83 -256.36)" d="m129.73 264.43v1.474l-6.192 3.572v-1.474z" fill="#edf0f8" data-name="Path 347"/>
<path transform="translate(-83 -254.2)" d="m129.73 264.97v1.474l-6.192 3.572v-1.474z" fill="#edf0f8" data-name="Path 348"/>
<path transform="translate(-115.42 -250.27)" d="M115.425,289.471V288l38.214-22.042v1.474Z" fill="#edf0f8" data-name="Path 349"/>
<path transform="translate(-83 -247.74)" d="m129.73 266.59v1.474l-6.192 3.571v-1.474z" fill="#edf0f8" data-name="Path 350"/>
<path transform="translate(-83 -245.59)" d="m129.73 267.13v1.472l-6.192 3.571v-1.471z" fill="#edf0f8" data-name="Path 351"/>
<path transform="translate(-83 -236.97)" d="m129.73 269.28v1.475l-6.192 3.571v-1.474z" fill="#edf0f8" data-name="Path 352"/>
<path transform="translate(-83 -234.82)" d="m129.73 269.82v1.478l-6.192 3.572v-1.474z" fill="#edf0f8" data-name="Path 353"/>
<g transform="translate(0 39.915)" fill="#edf0f8" data-name="Group 82">
<path transform="translate(-104.14 -270.8)" d="m118.25 284.71l24.108-13.906v1.474l-24.108 13.906z" data-name="Path 354"/>
<path transform="translate(-115.42 -259.1)" d="m128.26 273.73v1.474l-12.835 7.4v-1.474z" data-name="Path 355"/>
</g>
<g transform="translate(0 37.223)" fill="#edf0f8" data-name="Group 83">
<path transform="translate(-94.546 -270.27)" d="m120.65 277.25l12.112-6.987v1.474l-12.112 6.986z" data-name="Path 356"/>
<path transform="translate(-115.42 -264.09)" d="m140.26 271.81v1.474l-24.831 14.323v-1.474z" data-name="Path 357"/>
</g>
<path transform="translate(-115.42 -223.38)" d="m118.69 272.68v1.473l-3.267 1.885v-1.474z" fill="#edf0f8" data-name="Path 358"/>
<path transform="translate(-98.592 -241.66)" d="m119.64 278.02l17.171-9.9v1.474l-17.171 9.9z" fill="#edf0f8" data-name="Path 359"/>
<path transform="translate(-92.964 -258.89)" d="m121.04 269.65l10.135-5.846v1.474l-10.135 5.846z" fill="#edf0f8" data-name="Path 360"/>
<g transform="translate(11.466 11.491)" data-name="Group 84">
<path transform="translate(-117.72 -265.12)" d="m117.72 273.97l15.342-8.849v1.474l-15.342 8.85z" fill="#edf0f8" data-name="Path 361"/>
</g>
<path transform="translate(-99.1 -253.5)" d="m119.51 271.38l10.8-6.231v1.474l-10.8 6.231z" fill="#edf0f8" data-name="Path 362"/>
<g transform="translate(0 18.607)" fill="#edf0f8" data-name="Group 85">
<path transform="translate(-108.17 -266.54)" d="m117.24 272.35l10.063-5.8v1.474l-10.063 5.8z" data-name="Path 363"/>
<path transform="translate(-115.42 -261.31)" d="m123.23 267.85v1.474l-7.8 4.5v-1.474z" data-name="Path 364"/>
</g>
<path transform="translate(-92.964 -253.66)" d="m129.18 265.11v1.474l-8.139 4.694v-1.477z" fill="#edf0f8" data-name="Path 365"/>
<path transform="translate(-112.88 -249.32)" d="m116.06 279.82l23.624-13.626v1.474l-23.624 13.627z" fill="#edf0f8" data-name="Path 366"/>
<path transform="translate(-102.06 -245.32)" d="m118.77 276.1l15.439-8.906v1.474l-15.439 8.905z" fill="#edf0f8" data-name="Path 367"/>
<path transform="translate(-112.88 -237.61)" d="m116.06 276.19l12.255-7.069v1.477l-12.255 7.068z" fill="#edf0f8" data-name="Path 368"/>
<g transform="translate(4.537 37.089)" data-name="Group 86">
<path transform="translate(-116.33 -270.24)" d="m116.33 279.03l15.235-8.788v1.474l-15.235 8.787z" fill="#edf0f8" data-name="Path 369"/>
</g>
<path transform="translate(-111.8 -227.8)" d="m124.63 271.58v1.474l-8.3 4.786v-1.474z" fill="#edf0f8" data-name="Path 370"/>
<path transform="translate(-87.248 -239.5)" d="m122.47 270.37l2.988-1.724v1.474l-2.988 1.724z" fill="#edf0f8" data-name="Path 371"/>
<g transform="translate(14.106 31.601)" fill="#edf0f8" data-name="Group 87">
<path transform="translate(-118.25 -267.14)" d="m133.77 269.64v1.474l-15.523 8.954v-1.474z" data-name="Path 372"/>
<path transform="translate(-104.81 -269.14)" d="m121.61 270.9l3.056-1.763v1.475l-3.056 1.762z" data-name="Path 373"/>
</g>
<path transform="translate(-101.84 -235.39)" d="m118.82 279.47 16.978-9.793v1.474l-16.978 9.793z" fill="#edf0f8" data-name="Path 374"/>
</g>
<g transform="translate(0 252.84)" data-name="Group 93">
<path transform="translate(-83 -271.94)" d="m129.73 271.94v1.474l-6.192 3.572v-1.474z" fill="#edf0f8" data-name="Path 375"/>
<path transform="translate(-83 -269.78)" d="m129.73 272.47v1.474l-6.192 3.572v-1.474z" fill="#edf0f8" data-name="Path 376"/>
<path transform="translate(-83 -267.63)" d="m129.73 273.01v1.474l-6.192 3.572v-1.474z" fill="#edf0f8" data-name="Path 377"/>
<path transform="translate(-115.42 -261.54)" d="m115.42 298.05v-1.474l38.214-22.042v1.474z" fill="#edf0f8" data-name="Path 378"/>
<path transform="translate(-83 -265.47)" d="m129.73 273.55v1.474l-6.192 3.572v-1.474z" fill="#edf0f8" data-name="Path 379"/>
<path transform="translate(-83 -263.32)" d="m129.73 274.09v1.474l-6.192 3.571v-1.474z" fill="#edf0f8" data-name="Path 380"/>
<path transform="translate(-115.42 -259.39)" d="m115.42 298.59v-1.474l38.214-22.042v1.474z" fill="#edf0f8" data-name="Path 381"/>
<path transform="translate(-83 -256.86)" d="m129.73 275.71v1.474l-6.192 3.572v-1.474z" fill="#edf0f8" data-name="Path 382"/>
<path transform="translate(-83 -254.7)" d="m129.73 276.24v1.474l-6.192 3.571v-1.474z" fill="#edf0f8" data-name="Path 383"/>
<path transform="translate(-115.42 -232.5)" d="m118.69 281.8v1.474l-3.267 1.884v-1.474z" fill="#edf0f8" data-name="Path 384"/>
<path transform="translate(-98.592 -250.78)" d="m119.64 287.13l17.171-9.9v1.468l-17.171 9.9z" fill="#edf0f8" data-name="Path 385"/>
<path transform="translate(-92.964 -268.01)" d="m121.04 278.76l10.135-5.846v1.474l-10.135 5.846z" fill="#edf0f8" data-name="Path 386"/>
<g transform="translate(11.466 11.49)" data-name="Group 89">
<path transform="translate(-117.72 -274.23)" d="m117.72 283.08l15.342-8.85v1.474l-15.342 8.849z" fill="#edf0f8" data-name="Path 387"/>
</g>
<path transform="translate(-99.1 -262.62)" d="m119.51 280.5l10.8-6.23v1.474l-10.8 6.23z" fill="#edf0f8" data-name="Path 388"/>
<g transform="translate(0 18.607)" fill="#edf0f8" data-name="Group 90">
<path transform="translate(-108.17 -275.66)" d="m117.24 281.46l10.063-5.8v1.474l-10.063 5.8z" data-name="Path 389"/>
<path transform="translate(-115.42 -270.43)" d="m123.23 276.97v1.474l-7.8 4.5v-1.474z" data-name="Path 390"/>
</g>
<path transform="translate(-92.964 -262.78)" d="m129.18 274.23v1.474l-8.139 4.695v-1.474z" fill="#edf0f8" data-name="Path 391"/>
<path transform="translate(-112.88 -258.44)" d="m116.06 288.94l23.624-13.627v1.474l-23.624 13.627z" fill="#edf0f8" data-name="Path 392"/>
<path transform="translate(-102.06 -254.44)" d="m118.77 285.22l15.439-8.905v1.474l-15.439 8.9z" fill="#edf0f8" data-name="Path 393"/>
<path transform="translate(-112.88 -246.73)" d="m116.06 285.31l12.255-7.069v1.474l-12.255 7.068z" fill="#edf0f8" data-name="Path 394"/>
<g transform="translate(4.537 37.089)" data-name="Group 91">
<path transform="translate(-116.33 -279.36)" d="m116.33 288.14l15.235-8.788v1.474l-15.235 8.788z" fill="#edf0f8" data-name="Path 395"/>
</g>
<path transform="translate(-111.8 -236.91)" d="m124.63 280.7v1.474l-8.3 4.786v-1.474z" fill="#edf0f8" data-name="Path 396"/>
<path transform="translate(-87.248 -248.62)" d="m122.47 279.49l2.988-1.723v1.474l-2.988 1.724z" fill="#edf0f8" data-name="Path 397"/>
<g transform="translate(14.106 31.601)" fill="#edf0f8" data-name="Group 92">
<path transform="translate(-118.25 -276.26)" d="m133.77 278.76v1.474l-15.523 8.954v-1.474z" data-name="Path 398"/>
<path transform="translate(-104.81 -278.26)" d="m121.61 280.02l3.056-1.762v1.474l-3.056 1.763z" data-name="Path 399"/>
</g>
<path transform="translate(-101.84 -244.5)" d="m118.82 288.59 16.978-9.79v1.474l-16.978 9.793z" fill="#edf0f8" data-name="Path 400"/>
</g>
<g transform="translate(239.84)" fill="#ebf2eb" data-name="Group 94">
<path transform="translate(-163.42 -221.34)" d="M164.044,225.685l7.406-4.273a.542.542,0,0,1,.814.47v8.86a1.212,1.212,0,0,1-.6,1.049l-7.406,4.278a.555.555,0,0,1-.834-.48v-8.825A1.247,1.247,0,0,1,164.044,225.685Z" data-name="Path 401"/>
<path transform="translate(-163.42 -210.73)" d="M164.044,228.338l7.406-4.273a.542.542,0,0,1,.814.47v8.86a1.207,1.207,0,0,1-.6,1.049l-7.406,4.278a.555.555,0,0,1-.834-.48v-8.825A1.247,1.247,0,0,1,164.044,228.338Z" data-name="Path 402"/>
<path transform="translate(-163.42 -200.13)" d="M164.044,230.99l7.406-4.273a.544.544,0,0,1,.814.47v8.865a1.2,1.2,0,0,1-.6,1.044l-7.406,4.278a.555.555,0,0,1-.834-.48V232.07A1.247,1.247,0,0,1,164.044,230.99Z" data-name="Path 403"/>
<path transform="translate(-163.42 -189.52)" d="M164.044,233.643l7.406-4.273a.544.544,0,0,1,.814.47v8.865a1.2,1.2,0,0,1-.6,1.045l-7.406,4.283a.559.559,0,0,1-.834-.485v-8.825A1.253,1.253,0,0,1,164.044,233.643Z" data-name="Path 404"/>
<path transform="translate(-163.42 -178.92)" d="M164.044,236.295l7.406-4.273a.546.546,0,0,1,.814.47v8.865a1.2,1.2,0,0,1-.6,1.045l-7.406,4.283a.557.557,0,0,1-.834-.485v-8.825A1.253,1.253,0,0,1,164.044,236.295Z" data-name="Path 405"/>
<path transform="translate(-163.42 -168.31)" d="M164.044,238.948l7.406-4.273a.546.546,0,0,1,.814.47v8.865a1.2,1.2,0,0,1-.6,1.045l-7.406,4.283a.557.557,0,0,1-.834-.48v-8.83A1.253,1.253,0,0,1,164.044,238.948Z" data-name="Path 406"/>
<path transform="translate(-163.42 -157.71)" d="M164.044,241.6l7.406-4.273a.542.542,0,0,1,.814.47v8.86a1.219,1.219,0,0,1-.6,1.049l-7.406,4.278a.556.556,0,0,1-.834-.48v-8.825A1.241,1.241,0,0,1,164.044,241.6Z" data-name="Path 407"/>
<path transform="translate(-163.42 -147.1)" d="M164.044,244.257l7.406-4.273a.542.542,0,0,1,.814.47v8.86a1.213,1.213,0,0,1-.6,1.049l-7.406,4.278a.555.555,0,0,1-.834-.48v-8.825A1.247,1.247,0,0,1,164.044,244.257Z" data-name="Path 408"/>
<path transform="translate(-163.42 -136.5)" d="M164.044,246.91l7.406-4.273a.542.542,0,0,1,.814.47v8.86a1.207,1.207,0,0,1-.6,1.049l-7.406,4.278a.555.555,0,0,1-.834-.48v-8.825A1.247,1.247,0,0,1,164.044,246.91Z" data-name="Path 409"/>
<path transform="translate(-163.42 -125.89)" d="M164.044,249.562l7.406-4.273a.544.544,0,0,1,.814.47v8.865a1.2,1.2,0,0,1-.6,1.044l-7.406,4.283a.559.559,0,0,1-.834-.485v-8.825A1.253,1.253,0,0,1,164.044,249.562Z" data-name="Path 410"/>
<path transform="translate(-163.42 -115.29)" d="M164.044,252.215l7.406-4.273a.544.544,0,0,1,.814.47v8.865a1.2,1.2,0,0,1-.6,1.045l-7.406,4.283a.557.557,0,0,1-.834-.485v-8.825A1.253,1.253,0,0,1,164.044,252.215Z" data-name="Path 411"/>
<path transform="translate(-163.42 -104.68)" d="M164.044,254.867l7.406-4.273a.546.546,0,0,1,.814.47v8.865a1.2,1.2,0,0,1-.6,1.044l-7.406,4.283a.556.556,0,0,1-.834-.48v-8.83A1.253,1.253,0,0,1,164.044,254.867Z" data-name="Path 412"/>
</g>
</g>
<path transform="translate(220.37 -45.528)" d="m140.4 303.3s12.663-5.657 27.56 4.208 24.931 23.667 18.875 28.749-17.83 10.529-25.471 7.786-45.413-24.965-20.964-40.743z" fill="#0f4463" data-name="Path 477"/>
<g transform="translate(62.589 383.53)" data-name="Group 114">
<path transform="translate(-103.12 -272.77)" d="M122.417,298.1h11.009v11.878H122.417a7.434,7.434,0,0,0-7.426,7.426v19.3a7.432,7.432,0,0,0,7.426,7.421h16.146v11.879H122.417a19.322,19.322,0,0,1-19.3-19.3v-19.3A19.322,19.322,0,0,1,122.417,298.1Z" fill="#a7bcce" data-name="Path 495"/>
<path transform="translate(-84.371 -278.02)" d="m107.81 296.79v66.873c0 10.369 15.457 18.77 34.516 18.77s34.516-8.4 34.516-18.77v-66.873z" fill="#bbcee1" data-name="Path 496"/>
<path transform="translate(-84.371 -293.04)" d="m176.84 311.8c0 10.364-15.452 18.765-34.516 18.765s-34.516-8.4-34.516-18.765 15.457-18.77 34.516-18.77 34.516 8.41 34.516 18.77z" fill="#fff" data-name="Path 497"/>
<path transform="translate(-78.875 -289.95)" d="m164.47 308.48c0 8.106-12.373 14.677-27.645 14.677s-27.645-6.571-27.645-14.677 12.378-14.677 27.645-14.677 27.645 6.571 27.645 14.677z" fill="#a7bcce" data-name="Path 498"/>
<path transform="translate(-77.639 -282.27)" d="m135.59 295.73c12.1 0 22.353 4.128 26.1 9.875-3.748 5.742-14 9.875-26.1 9.875s-22.348-4.133-26.1-9.875c3.752-5.747 14.007-9.875 26.1-9.875z" fill="#52281c" data-name="Path 499"/>
<path transform="translate(-80.21 -270.13)" d="m125.12 306.27v66.873c-6.776-1.5-12.453-4.153-16.271-7.5v-66.874c3.818 3.348 9.495 5.992 16.271 7.501z" fill="#a7bcce" data-name="Path 500"/>
</g>
</g>
</g>
<g transform="translate(387.82 319.14)" data-name="Group 413">
<g transform="translate(0)" data-name="Group 168">
<g data-name="Group 166">
<g data-name="Group 165">
<path transform="translate(-392.91 -192.06)" d="M396.281,215.356l39.517-22.8a3.729,3.729,0,0,1,3.955.158v0l8.676,5.011-4.033,5.47-1.5,1.722v39.149a6.53,6.53,0,0,1-3.261,5.654l-29.575,17.1-.3,1.644-6.037,8.458-9.282-5.457-.045-.028-.063-.035v-.006a2.964,2.964,0,0,1-1.415-2.542l0-47.657A6.73,6.73,0,0,1,396.281,215.356Z" fill="#00dd05" data-name="Path 743"/>
<path transform="translate(-387.94 -189.23)" d="m400.55 217.96l39.982-23.071a2.926 2.926 0 0 1 4.388 2.536v47.857a6.526 6.526 0 0 1 -3.261 5.651l-39.976 23.114a3 3 0 0 1 -4.5 -2.6v-47.656a6.727 6.727 0 0 1 3.367 -5.831z" fill="#00a508" data-name="Path 744"/>
</g>
</g>
<g transform="translate(0 26.92)" data-name="Group 167">
<path transform="translate(-392.91 -204.5)" d="M402.149,259.8V212.14a6.643,6.643,0,0,1,.457-2.3l-9.273-5.342a6.673,6.673,0,0,0-.422,2.209l0,47.657a2.964,2.964,0,0,0,1.415,2.542v.006l.063.035.045.028,9.2,5.409A2.967,2.967,0,0,1,402.149,259.8Z" fill="#006602" data-name="Path 746"/>
</g>
</g>
<g transform="translate(18.568 25.231)" fill="#fff" data-name="Group 178">
<path transform="translate(-391.06 -203.72)" d="M416.377,204.188a3.829,3.829,0,0,1,.653,2.611l.017,5.721v.145c0,1.088.353,1.67,1.045,1.748a5.46,5.46,0,0,0,2.971-1l.011,3.981a10.029,10.029,0,0,0-2.964,2.443,4.907,4.907,0,0,0-1.034,3.107l.017,5.654a8.052,8.052,0,0,1-.638,3.373,8.5,8.5,0,0,1-2.04,2.746,21.406,21.406,0,0,1-3.867,2.724l-.011-3.769a6.334,6.334,0,0,0,2.157-1.923,4.3,4.3,0,0,0,.56-2.25l-.015-5.413v-.214c-.007-2.161,1.179-4.122,3.581-5.922l0-.212c-2.367.969-3.561.3-3.6-1.986l-.015-5.413c0-.876-.2-1.4-.582-1.592s-1.1.011-2.151.578l-.011-3.769a15.228,15.228,0,0,1,3.847-1.729A2.05,2.05,0,0,1,416.377,204.188Z" data-name="Path 759"/>
<path transform="translate(-401.49 -199.98)" d="M404.458,224.566a4.67,4.67,0,0,0,1.01-2.934v-.147l-.017-5.719a7.687,7.687,0,0,1,1.467-4.756,16.748,16.748,0,0,1,5.1-4.074l.011,3.769a6.367,6.367,0,0,0-2.159,1.908,4.231,4.231,0,0,0-.56,2.252l.017,5.413q-.062,3.505-3.615,6.156v.212a3.494,3.494,0,0,1,2.7-.266c.625.3.939.984.941,2.073l0,.16.015,5.413c0,.876.188,1.419.571,1.612.381.177,1.11-.017,2.162-.584l.011,3.769c-2.415,1.393-4.113,1.988-5.108,1.807s-1.484-1.205-1.489-3.062l-.017-5.654c0-1.181-.353-1.818-1.023-1.921a5.228,5.228,0,0,0-2.971.984L401.492,227A10.1,10.1,0,0,0,404.458,224.566Z" data-name="Path 760"/>
</g>
</g>
<g transform="translate(387.66 239.55)" data-name="Group 414">
<g transform="translate(0)" data-name="Group 348">
<g data-name="Group 278">
<g data-name="Group 276">
<g data-name="Group 275">
<path transform="translate(-20.898 -236.06)" d="M24.159,258.6l38.233-22.062a3.612,3.612,0,0,1,3.827.151h0l8.394,4.846-3.9,5.294-1.455,1.666V286.37a6.319,6.319,0,0,1-3.155,5.468L37.488,308.382l-.293,1.591-5.84,8.183-8.981-5.282-.044-.025-.061-.036v0a2.87,2.87,0,0,1-1.369-2.46l0-46.11A6.51,6.51,0,0,1,24.159,258.6Z" fill="#ffc73b" data-name="Path 1239"/>
<path transform="translate(-16.229 -233.4)" d="m28.427 261.19l38.683-22.322a2.832 2.832 0 0 1 4.245 2.453v46.305a6.315 6.315 0 0 1 -3.155 5.472l-38.676 22.358a2.9 2.9 0 0 1 -4.356 -2.512v-46.11a6.512 6.512 0 0 1 3.259 -5.644z" fill="#f9b800" data-name="Path 1240"/>
</g>
</g>
<g transform="translate(0 26.046)" data-name="Group 277">
<path transform="translate(-15.465 -219.24)" d="m25.867 275.26l0.054 0.034 6e-3 -8e-3c-0.02-0.011-0.041-0.016-0.06-0.026z" fill="#bbcee1" data-name="Path 1241"/>
<path transform="translate(-20.898 -248.5)" d="M29.837,302V255.89a6.429,6.429,0,0,1,.442-2.223L21.306,248.5a6.434,6.434,0,0,0-.408,2.135l0,46.11a2.87,2.87,0,0,0,1.369,2.46v0l.061.036.044.025,8.905,5.236A2.873,2.873,0,0,1,29.837,302Z" fill="#ce8900" data-name="Path 1242"/>
</g>
</g>
<g transform="translate(13.845 33.317)" fill="#fff" data-name="Group 293">
<path transform="translate(-14.795 -251.97)" d="M51.169,253.967,39.186,266.978l-.009-3.316,8.258-8.689-8.282.375-.01-3.336,12.02-.039Z" data-name="Path 1261"/>
<path transform="translate(-20.639 -250.91)" d="m43.8 269.46l-3.344 1.931-6.656-16.508 3.353-1.936z" data-name="Path 1262"/>
<path transform="translate(-27.512 -248.23)" d="M39.5,255.4l.009,3.336-8.266,9.18,8.29-.865.009,3.316-12.026.85-.006-1.993Z" data-name="Path 1263"/>
</g>
</g>
</g>
<g transform="matrix(.966 -.259 .259 .966 -247.89 442.67)" opacity=".2">
<g transform="translate(0)" data-name="Group 118">
<g data-name="Group 117">
<path d="M217.435,126.143V91.292l-25.459-4.247a85.263,85.263,0,0,0-9.08-21.858l15.019-21.026-24.647-24.64L152.243,34.54a85.1,85.1,0,0,0-21.855-9.082L126.145,0H91.29L87.048,25.459A85.1,85.1,0,0,0,65.192,34.54L44.166,19.522,19.52,44.162,34.538,65.188a85.263,85.263,0,0,0-9.08,21.858L0,91.292v34.85l25.459,4.247a85.263,85.263,0,0,0,9.08,21.858L19.52,173.273l24.647,24.64,21.026-15.019a85.1,85.1,0,0,0,21.855,9.082l4.242,25.459h34.855l4.242-25.459a85.1,85.1,0,0,0,21.855-9.082l21.026,15.019,24.647-24.64L182.9,152.247a85.262,85.262,0,0,0,9.08-21.858Zm-33.585-.708A76.342,76.342,0,0,1,173.647,150L172,152.583l14.079,19.708-13.791,13.793L152.579,172,150,173.645a76.317,76.317,0,0,1-24.569,10.206l-2.986.664-3.977,23.862h-19.5l-3.977-23.862L92,183.85a76.317,76.317,0,0,1-24.569-10.206L64.856,172,45.144,186.084,31.353,172.291l14.079-19.708L43.788,150a76.342,76.342,0,0,1-10.2-24.569l-.661-2.986L9.06,118.472V98.963l23.864-3.977L33.585,92a76.342,76.342,0,0,1,10.2-24.569l1.643-2.579L31.353,45.144,45.144,31.351,64.856,45.432l2.577-1.641A76.318,76.318,0,0,1,92,33.585l2.986-.664L98.965,9.06h19.5l3.977,23.862,2.986.664A76.318,76.318,0,0,1,150,43.79l2.577,1.641,19.712-14.081,13.791,13.793L172,64.852l1.643,2.579A76.341,76.341,0,0,1,183.85,92l.661,2.986,23.864,3.977v19.509l-23.864,3.977Z" fill="#fff" data-name="Path 501"/>
</g>
</g>
<g transform="translate(63.419 63.419)" data-name="Group 120">
<g transform="translate(0)" data-name="Group 119">
<path d="M45.3,0A45.3,45.3,0,1,0,90.6,45.3,45.351,45.351,0,0,0,45.3,0Zm0,81.538A36.239,36.239,0,1,1,81.538,45.3,36.281,36.281,0,0,1,45.3,81.538Z" fill="#fff" data-name="Path 502"/>
</g>
</g>
</g>
<g transform="translate(18.679 1096.2) rotate(-20)" opacity=".2">
<path transform="translate(140.23 67.072)" d="m0 3.837z" fill="#666" data-name="Path 517"/>
<path transform="translate(127.52 93.232)" d="m0 0z" data-name="Path 503"/>
<path transform="translate(132.96 47.473)" d="m0 0zm23.257 50.427z" data-name="Path 504"/>
<path transform="translate(183.47 93.232)" d="m0 0z" data-name="Path 505"/>
<path transform="translate(156.09 77.857)" d="m0 0z" fill="#f33052" data-name="Path 507"/>
<path transform="translate(0 93.232)" d="m0 0z" data-name="Path 508"/>
<path transform="translate(38.593 77.857)" d="m0 0z" fill="#f33052" data-name="Path 512"/>
<g transform="translate(.644)" fill="#fff" data-name="Group 121">
<path transform="translate(0 13.818)" d="M66.084,73.236,0,44.507V28.6L66.084,0V18.738L19.99,36.356l46.1,18.281v18.6Z" data-name="Path 514"/>
<path transform="translate(72.199)" d="M0,99.686,23.864,0H37.738L13.6,99.686Z" data-name="Path 515"/>
<path transform="translate(116.06 13.939)" d="M0,73.189V54.581l46.16-18.15L0,18.486V0L66.149,28.6V44.377Z" data-name="Path 516"/>
</g>
</g>
<g transform="translate(358.23 155.9)" data-name="Group 415">
<path transform="translate(-75.324 -125.17)" d="m126.82 171.1v2.3l-9.659 5.571v-2.3z" fill="#fff" data-name="Path 1518"/>
<path transform="translate(-75.324 -122.93)" d="m126.82 173.06v2.3l-9.659 5.571v-2.3z" fill="#fff" data-name="Path 1519"/>
<path transform="translate(-75.324 -120.68)" d="m126.82 175.02v2.3l-9.659 5.571v-2.3z" fill="#fff" data-name="Path 1520"/>
<line transform="translate(38.217 66.192)" y2="2.299" fill="#fff" data-name="Line 1"/>
<path transform="translate(-75.324 -118.44)" d="m126.82 176.97v2.3l-9.659 5.571v-2.3z" fill="#fff" data-name="Path 1521"/>
<path transform="translate(-75.324 -116.2)" d="m126.82 178.93v2.3l-9.659 5.571v-2.3z" fill="#fff" data-name="Path 1522"/>
<line transform="translate(38.217 70.392)" y2="2.299" fill="#fff" data-name="Line 2"/>
<path transform="translate(-75.324 -109.46)" d="m126.82 184.79v2.3l-9.659 5.571v-2.3z" fill="#fff" data-name="Path 1523"/>
<line transform="translate(38.217 87.193)" y2="2.299" fill="#fff" data-name="Line 3"/>
<line transform="translate(27.291 64.094)" y2="2.299" fill="#fff" data-name="Line 4"/>
<line transform="translate(28.755 80.05)" y2="2.299" fill="#fff" data-name="Line 5"/>
<path transform="translate(-97.685 -145.5)" d="m97.685 153.39" fill="#fff" data-name="Path 1524"/>
<line transform="translate(40.053 9.388)" y2="2.038" fill="#fff" data-name="Line 6"/>
<line transform="translate(40.053 13.192)" y2="2.037" fill="#fff" data-name="Line 7"/>
<line transform="translate(40.053 17.193)" y2="2.037" fill="#fff" data-name="Line 8"/>
<line transform="translate(40.053 26.079)" y2="2.037" fill="#fff" data-name="Line 9"/>
<line transform="translate(40.053 30.08)" y2="2.037" fill="#fff" data-name="Line 10"/>
<line transform="translate(40.053 33.884)" y2="2.038" fill="#fff" data-name="Line 11"/>
<line transform="translate(40.053 37.886)" y2="2.038" fill="#fff" data-name="Line 12"/>
<g transform="translate(27.257)" data-name="Group 353">
<g data-name="Group 351">
<g data-name="Group 350">
<path transform="translate(-110.38 -149.72)" d="M113.721,172.848l39.227-22.639a3.707,3.707,0,0,1,3.926.157h0l8.613,4.972-4,5.43-1.493,1.712v38.864a6.481,6.481,0,0,1-3.239,5.61L127.4,223.93l-.3,1.632-5.99,8.394-9.214-5.417-.047-.026-.062-.037v0a2.945,2.945,0,0,1-1.4-2.524V178.637A6.68,6.68,0,0,1,113.721,172.848Z" fill="#f94848" data-name="Path 1525"/>
<path transform="translate(-105.48 -146.93)" d="m117.99 175.45l39.691-22.9a2.906 2.906 0 0 1 4.356 2.517v47.512a6.479 6.479 0 0 1 -3.237 5.61l-39.687 22.944a2.978 2.978 0 0 1 -4.468 -2.577v-47.314a6.68 6.68 0 0 1 3.345 -5.792z" fill="#f70000" data-name="Path 1526"/>
</g>
</g>
<g transform="translate(0 26.724)" data-name="Group 352">
<path transform="translate(-104.67 -131.44)" d="m115.34 188.92l0.056 0.032v-6e-3c-0.015-0.011-0.037-0.015-0.056-0.026z" fill="#bbcee1" data-name="Path 1527"/>
<path transform="translate(-110.38 -162.16)" d="M119.547,217.058l0-47.314a6.6,6.6,0,0,1,.455-2.279l-9.208-5.3a6.623,6.623,0,0,0-.417,2.193v47.312a2.942,2.942,0,0,0,1.407,2.524v0l.06.037.047.026,9.137,5.372A2.944,2.944,0,0,1,119.547,217.058Z" fill="#c40000" data-name="Path 1528"/>
</g>
</g>
<g transform="translate(40.529 30.08)" fill="#fff" data-name="Group 354">
<path transform="translate(-116.55 -157.29)" d="M124.121,186.493a9.057,9.057,0,0,0,1.789-1.4c.606-.593,1.209-1.224,1.815-1.9l1.113,2.55a19.469,19.469,0,0,1-4.708,4.017,6.942,6.942,0,0,1-4.019,1.162,3.268,3.268,0,0,1-2.627-1.815,9.273,9.273,0,0,1-.93-4.519,17.088,17.088,0,0,1,1.836-8.1,13.69,13.69,0,0,1,5.368-5.546,11.353,11.353,0,0,1,4.427-1.607l.009,3.291a12.428,12.428,0,0,0-4.109,1.394q-4.034,2.329-4.023,8.516.01,2.974,1.07,4.023T124.121,186.493Z" data-name="Path 1529"/>
<path transform="translate(-100.78 -163.72)" d="M134.543,165.113l2.4-1.388.014,4.935,4.261-2.461.008,2.773-4.261,2.46.014,4.868-2.4,1.388-.014-4.868-4.261,2.46-.008-2.773,4.261-2.46Z" data-name="Path 1530"/>
<path transform="translate(-107.94 -159.53)" d="M128.313,173.706l-.014-4.935,2.413-1.393.014,4.934,4.253-2.456.008,2.773-4.253,2.455.013,4.869-2.413,1.393-.014-4.868-4.253,2.456-.008-2.773Z" data-name="Path 1531"/>
</g>
</g>
<g transform="matrix(.966 -.259 .259 .966 424.69 -127)" opacity=".2" data-name="gear">
<g transform="translate(0)" data-name="Group 118">
<g data-name="Group 117">
<path d="M217.435,126.143V91.292l-25.459-4.247a85.263,85.263,0,0,0-9.08-21.858l15.019-21.026-24.647-24.64L152.243,34.54a85.1,85.1,0,0,0-21.855-9.082L126.145,0H91.29L87.048,25.459A85.1,85.1,0,0,0,65.192,34.54L44.166,19.522,19.52,44.162,34.538,65.188a85.263,85.263,0,0,0-9.08,21.858L0,91.292v34.85l25.459,4.247a85.263,85.263,0,0,0,9.08,21.858L19.52,173.273l24.647,24.64,21.026-15.019a85.1,85.1,0,0,0,21.855,9.082l4.242,25.459h34.855l4.242-25.459a85.1,85.1,0,0,0,21.855-9.082l21.026,15.019,24.647-24.64L182.9,152.247a85.262,85.262,0,0,0,9.08-21.858Zm-33.585-.708A76.342,76.342,0,0,1,173.647,150L172,152.583l14.079,19.708-13.791,13.793L152.579,172,150,173.645a76.317,76.317,0,0,1-24.569,10.206l-2.986.664-3.977,23.862h-19.5l-3.977-23.862L92,183.85a76.317,76.317,0,0,1-24.569-10.206L64.856,172,45.144,186.084,31.353,172.291l14.079-19.708L43.788,150a76.342,76.342,0,0,1-10.2-24.569l-.661-2.986L9.06,118.472V98.963l23.864-3.977L33.585,92a76.342,76.342,0,0,1,10.2-24.569l1.643-2.579L31.353,45.144,45.144,31.351,64.856,45.432l2.577-1.641A76.318,76.318,0,0,1,92,33.585l2.986-.664L98.965,9.06h19.5l3.977,23.862,2.986.664A76.318,76.318,0,0,1,150,43.79l2.577,1.641,19.712-14.081,13.791,13.793L172,64.852l1.643,2.579A76.341,76.341,0,0,1,183.85,92l.661,2.986,23.864,3.977v19.509l-23.864,3.977Z" fill="#fff" data-name="Path 501"/>
</g>
</g>
<g transform="translate(63.419 63.419)" data-name="Group 120">
<g transform="translate(0)" data-name="Group 119">
<path d="M45.3,0A45.3,45.3,0,1,0,90.6,45.3,45.351,45.351,0,0,0,45.3,0Zm0,81.538A36.239,36.239,0,1,1,81.538,45.3,36.281,36.281,0,0,1,45.3,81.538Z" fill="#fff" data-name="Path 502"/>
</g>
</g>
</g>
</g>
</svg>
