<svg xmlns="http://www.w3.org/2000/svg" width="187" height="187" xmlns:v="https://vecta.io/nano"><defs><clipPath id="A"><path d="M0 0h187v187H0z"/></clipPath></defs><g clip-path="url(#A)"><g transform="matrix(.642788 .766044 -.766044 .642788 2057.064 -2385.191)"><g fill="#e1e9fe"><path d="M575.382 3166.622l57.237-44.132 55.847 45.932-57.216 43.613z"/><path d="M689.268 3168.44l-.5.381-57.214 43.604-.313.239-.306-.249-55.866-45.406-.49-.398.495-.382 57.238-44.139.317-.244.31.255 55.847 45.941.484.398zm-58.01 42.966l56.403-42.993-55.051-45.279-56.424 43.504 55.072 44.767z" fill="#5381ff"/></g><g fill="#c6d6ff"><path d="M632.618 3122.49h0l-1.35-45.381 50.917 42.356 6.283 48.956z"/><path d="M689.124 3169.611l-.977-.803-55.849-45.929-.178-.146-.007-.23-1.353-45.381-.033-1.123.861.717 50.917 42.362.152.126.025.196 6.28 48.957.161 1.253zm-56.01-47.364l54.696 44.989-6.1-47.506-49.903-41.511 1.306 44.029z" fill="#5381ff"/></g><path d="M633.13 3122.733l-.203.156-57.235 44.13-.953.735.148-1.196 4.423-35.855 1.672-15.067.023-.21.166-.129 49.766-38.61.786-.61.03 1 1.369 45.399.008.257zm-57.103 42.761l56.081-43.247-1.337-44.142-48.812 37.864-1.651 14.859v.003.003l-4.281 34.661z" fill="#5381ff"/><g fill="#e1e9fe"><path d="M630.762 3108.81l57.275-44.193 55.885 45.997-57.258 43.666z"/><path d="M744.722 3110.628l-.501.382-57.253 43.661-.313.239-.307-.249-55.901-45.465-.49-.399.495-.382 57.277-44.197.317-.245.31.255 55.882 46.001.484.398zm-58.049 43.022l56.441-43.049-55.086-45.338-56.462 43.562 55.107 44.826z" fill="#5381ff"/></g><g fill="#c6d6ff"><path d="M688.036 3064.618h0l-1.348-45.441 50.948 42.414 6.285 49.021z"/><path d="M744.578 3111.801l-.977-.804-55.884-45.989-.178-.146-.007-.23-1.352-45.441-.033-1.124.862.718 50.949 42.418.152.126.025.197 6.282 49.021.161 1.254zm-56.045-47.426l54.73 45.048-6.102-47.569-49.934-41.566 1.306 44.087z" fill="#5381ff"/></g><path d="M688.547 3064.861l-.203.157-57.274 44.188-.954.736.148-1.198 4.427-35.902 1.674-15.087.023-.211.167-.129 49.8-38.661.786-.61.03 1.002 1.368 45.459.008.257zm-57.142 42.817l56.119-43.304-1.336-44.2-48.845 37.914-1.653 14.878v.003.003l-4.285 34.706z" fill="#5381ff"/><g fill="#e1e9fe"><path d="M548.226 3104.608l57.323-44.547 56.3 46.366-57.3 44.014z"/><path d="M662.649 3106.44l-.501.385-57.3 44.01-.314.241-.309-.251-56.314-45.828-.494-.402.495-.385 57.322-44.552.317-.247.312.257 56.296 46.371.488.402zm-58.102 43.366l56.488-43.393-55.494-45.702-56.506 43.911 55.513 45.184z" fill="#5381ff"/></g><g fill="#c6d6ff"><path d="M605.546 3060.06h0l-1.544-45.808 51.33 42.757 6.513 49.414z"/><path d="M662.51 3107.621l-.984-.811-56.298-46.358-.179-.147-.008-.232-1.546-45.808-.038-1.133.868.723 51.331 42.761.153.127.026.198 6.509 49.415.167 1.264zm-56.466-47.807l55.136 45.409-6.323-47.951-50.308-41.902 1.494 44.443z" fill="#5381ff"/></g><path d="M606.061 3060.306l-.203.158-57.319 44.543-.955.742.143-1.207 4.295-36.191 1.617-15.208.023-.212.167-.13 49.84-38.974.787-.615.034 1.01 1.563 45.827.009.259zm-57.192 43.161l56.163-43.652-1.525-44.557-48.884 38.22-1.597 14.998v.003.003l-4.156 34.985z" fill="#5381ff"/></g></g></svg>