<svg xmlns="http://www.w3.org/2000/svg" width="895" height="895" fill="none" xmlns:v="https://vecta.io/nano"><style><![CDATA[.O{fill:#2a1e17}.P{fill:#a0c6f4}.Q{fill:#ff6d66}.R{fill:#91ba83}.S{fill:#fff}.T{fill:#ffe7cf}.U{fill:#2a1e33}]]></style><g clip-path="url(#C)"><mask id="A" maskUnits="userSpaceOnUse" x="0" y="0" width="895" height="895"><path d="M0 0H895V895H0V0Z" class="S"/></mask><g mask="url(#A)"><mask id="B" maskUnits="userSpaceOnUse" x="0" y="0" width="895" height="895"><path d="M0 0H895V895H0V0Z" class="S"/></mask><g mask="url(#B)"><path d="M480.388 691.952l7.674-12.059 23.021 40.561-5.481 4.385-25.214-32.888m160.053-99.758s11.907-19.7 6.578-29.6l-39.465 4.385 32.888 25.214" class="T"/><path d="M640.441 592.193l-3.289 5.481 7.674 28.5c.415 1.788.327 3.656-.253 5.397s-1.632 3.287-3.036 4.469l-36.177-52.62c-3.444-5.089-2.31-12.263 2.193-16.444l7.674-7.674 25.214 32.888" fill="#000"/><path d="M656.885 314.839c4.468-3.941 8.435-6.576 13.155-6.578 5.054-.012 9.806 2.731 13.155 7.674s5.48 12.013 5.481 21.925c-.008 19.053-7.492 48.226-28.5 87.7s-55.682 88.807-109.628 151.285c-36.435 42.2-70.309 72.046-99.759 90.989s-53.476 27.4-72.353 27.406c-9.567 0-17.984-2.443-24.118-6.578s-10.048-9.909-12.059-17.54c-2.627-9.942-4.385-19.268-4.385-27.406 0-18.914 5.887-32.339 13.155-41.658 3.411-4.273 7.482-7.973 12.059-10.963 3.646-2.325 6.176-3.277 8.77-3.289a5.33 5.33 0 0 1 3.289 1.1 4.29 4.29 0 0 1 .899 1.528c.189.566.258 1.166.201 1.761.092 1.54-.292 3.071-1.1 4.385-1.074 1.918-3.189 4.047-5.481 6.578-11.673 12.877-29.2 22.852-50.428 29.6s-46.229 9.864-72.353 9.866c-40.626 0-83.585-7.806-121.684-26.31-18.891-9.177-31.918-20.076-39.465-30.7a53.27 53.27 0 0 1-9.866-31.791c0-13.022 4.976-24.017 9.866-32.888 2.446-4.437 4.454-8.234 6.578-10.963 1.035-1.156 2.133-2.254 3.289-3.289.8-.861.611-1.843 1.1-2.193.436-.308 1.882-.436 2.193 0s-.658.786-1.1 1.1c-.26.18-.353 1.388-1.1 2.193-4.8 5.27-8.857 11.172-12.059 17.54a63.06 63.06 0 0 0-6.578 28.5 51.92 51.92 0 0 0 9.866 30.7c7.313 10.29 18.6 20.525 37.273 29.6 37.786 18.352 81.33 27.403 121.687 27.401 24.531 0 48.923-3.696 72.353-10.963 21-6.669 37.987-15.979 49.332-28.5 1.728-2.003 3.201-4.213 4.385-6.578.979-1.74 2.2-2.389 2.193-3.289a3.94 3.94 0 0 0-1.1-2.193c-.361-.3-1.256 0-2.193 0-1.98-.012-4.247 1.084-7.674 3.289-10.319 6.611-24.12 22.694-24.118 50.428-.08 9.238 1.026 18.449 3.289 27.406a28.29 28.29 0 0 0 12.062 16.443c5.74 3.871 13.744 5.481 23.021 5.481 18.3.008 42.008-7.492 71.257-26.31s63.419-48.9 99.759-90.989c53.875-62.4 88.7-111.984 109.626-151.283s28.508-68.059 28.5-86.6c0-9.65-2.419-16.337-5.481-20.829-1.314-2.003-3.102-3.652-5.206-4.799a14.57 14.57 0 0 0-6.853-1.779c-4.131 0-7.86 1.775-12.059 5.481-.336.186-.713.284-1.097.284a2.26 2.26 0 0 1-1.096-.284c-.353-.4.695-.741 1.1-1.1" class="O"/><path d="M602.072 566.979s19.683-57.1 3.289-82.219c-13.531-20.729-58.623 13-64.679 17.54l-30.7-57.005s7.285-9.71 25.214-19.733 91.27-40.662 126.07 14.251c12.863 20.295 13.707 108.04-10.963 141.417l-48.231-14.251z" fill="#7595ec"/><path d="M671.136 228.235c32.493-13.468 63.748-19.733 90.989-19.733 27.945 0 52.148 6.142 69.064 18.636s26.324 30.585 26.31 53.717c-.008 27.67-14.381 62.326-47.139 101.952s-83.973 85.112-158.957 133.743c-26.752 17.328-67.906 23-67.968 23.021-.529.079-1.017-.567-1.1-1.1s.565-1.019 1.1-1.1c.726.116 1.466.116 2.193 0 8.073-1.369 41.764-8.145 64.679-23.021 74.868-48.554 126.37-93.233 158.957-132.647s46.051-73.852 46.046-100.847c-.014-22.573-9.844-39.339-26.31-51.524s-39.227-19.733-66.872-19.733c-26.94 0-57.608 6.35-89.893 19.733-.495.206-1.987.495-2.193 0s.6-.891 1.1-1.1" class="O"/><path d="M715 564l-50.5-99 22-12 33.5-24.5 21.5-25.5 11-26.5 17 32.5 17 44v38L768 526.5l-35 28-18 9.5zm-379.5 50.5l-43-73.5h4.5l20 5 25.5-5 34.5-21 59 98.5-3 3.5-24.5 13.5-25.5 3-24.5-5-23-19z" class="S"/><path d="M272.099 512.166c14.869 24.472 34.253 29.6 48.235 29.6a53.07 53.07 0 0 0 18.636-3.289l38.369-23.021 62.487 104.141c-21.063 16.236-39.442 21.925-54.813 21.925-35.14 0-54.813-29.6-54.813-29.6l-58.101-99.756zm103.048 10.963l-32.884 20.828h-1.1c-6.565 2.889-13.658 4.382-20.829 4.385-6.88 0-14.609-1.715-23.021-5.481l38.369 65.775c1.251 1.819 18.689 26.31 49.332 26.31 14.946 0 30.816-5.87 47.139-17.54l-57.005-94.278" class="Q"/><path d="M403.649 126.284c4.048-.09 8.093.279 12.059 1.1 4.544 1.515 41.658 101.952 41.658 101.952s-87.932 9.3-161.15 80.027l-70.16-86.6s12.165-39.457 87.7-73.449c44.262-19.927 74.276-23.03 89.893-23.03zm0 7.674c-13.984 0-43.007 3.4-86.6 23.021-57.818 26.017-77.3 54.839-82.219 64.679l62.487 75.642c37.145-33.815 76.457-51.558 104.144-61.39 19.635-6.972 36.408-11.421 46.043-13.155-14.481-38.912-30.888-78.782-36.177-88.8-1.718-.161-4.449 0-7.674 0" class="P"/><path d="M445.308 238.102a4.4 4.4 0 0 0-1.1 0c-9.66 1.115-89.371 12.294-139.225 58.1-.4.361-.734.4-1.1 0-.185-.336-.282-.713-.282-1.097a2.27 2.27 0 0 1 .282-1.096c53.893-49.428 140.239-58.072 140.321-58.1.531-.054 1.044.563 1.1 1.1s.534 1.042 0 1.1" class="O"/><path d="M369.665 232.621l-32.888-62.487-32.888 65.775 65.776-3.288z" class="P"/><path d="M363.088 232.62h-1.1l-30.7-61.39-31.791 62.487 63.583-2.193v1.1l-65.775 3.289c-.343.016.186.289 0 0-.172-.346-.172-.754 0-1.1l32.888-65.775c.165-.326.732-1.1 1.1-1.1s-.167.772 0 1.1l32.888 62.487a1.32 1.32 0 0 1 0 1.1c-.165.287-.767-.014-1.1 0m30.703-109.63c-.365-.054-.735-.054-1.1 0-10.825 1.2-99.212 13.989-155.668 81.123-.336.185-.713.282-1.097.282a2.27 2.27 0 0 1-1.096-.282 2.26 2.26 0 0 1-.284-1.096c0-.384.098-.761.284-1.097 30.435-36.166 69.923-55.645 101.952-66.872s56.951-13.149 57.005-13.155c.533-.048 1.048-.533 1.1 0s-.563 1.048-1.1 1.1M344.452 401.44l8.77-6.578c-1.484-1.976-24.8-27.013-38.369-47.139 0 0 27.409 55.324 29.6 53.717m332.165-180.878c-.548.894-1.299 1.645-2.193 2.193-.791.572-1.258 1.1-2.193 1.1-1.771-.014-4.074-.825-7.674-1.1-.337-.027-.743 0-1.1 0-3.896.009-7.705 1.152-10.963 3.289a21.88 21.88 0 0 0-8.77 9.866 24.79 24.79 0 0 0-2.193 8.77c0 .791-.206.8 0 1.1.286.44.66.814 1.1 1.1.365-.051.735-.051 1.1 0 1.992.553 6.453 1.31 9.866 2.193 1.714.446 3.111 1.622 4.385 2.193.638.287.633.728 1.1 1.1s.959.443 1.1 1.1c.107.526-.571.99-1.1 1.1s-.992-.573-1.1-1.1c-.118-.155-.606.256-1.1 0a29.57 29.57 0 0 0-7.674-3.289c-1.6-.353-3.128-.8-4.385-1.1-.628-.149-1.721.142-2.193 0s-.753.19-1.1 0c-.57-.328-.627-1.527-1.1-2.193s-1.1-1.128-1.1-2.193c.01-1.939.385-4.306 2.193-8.77 1.889-4.645 5.873-8.414 9.866-10.963s8.1-4.381 12.059-4.385c.4 0 .708-.031 1.1 0 3.716.289 6.346 1.108 7.674 1.1.71-.008.66-.8 1.1-1.1s1.552-.026 2.193-1.1c.275-.46.637-1.372 1.1-1.1s.275 1.733 0 2.193" class="O"/><path d="M659.078 253.449c-11.351-.27-25.9-1.237-23.021-9.866s13.916-29.495 38.369-23.021c0 0 8.594 6.788-2.193 19.733s-13.155 13.154-13.155 13.154z" class="U"/><path d="M600.978 566.979s-.26-.28 0-1.1c1.819-5.705 9.872-30.5 9.866-52.62.006-10.693-1.865-20.2-6.578-27.406-1.478-2.257-3.358-4.483-5.481-5.481s-5-1.1-7.674-1.1c-8.888-.019-19.984 5.374-29.6 10.963-6.828 4-13.416 8.395-19.733 13.161-.429.322-.774.429-1.1 0s-.429-1.871 0-2.193c6.315-4.77 12.905-9.163 19.737-13.157 9.76-5.643 21.105-10.943 30.7-10.963 3.041.132 6.025.878 8.77 2.193 2.44 1.14 3.825 2.939 5.481 5.481 5.036 7.73 6.572 17.612 6.578 28.5-.01 25.74-8.76 54.76-8.77 54.813-.173.506-.59.171-1.1 0s-1.267-.59-1.1-1.1" class="O"/><path d="M509.986 445.294c14.386 15.144 56.184 88.621 65.775 123.877 12.828 47.161 8.026 86.756-62.487 163.342l-33.983-49.335s24.207-36.953 19.733-71.257c-6.471-49.626-41.329-97.742-59.2-128.262l70.16-38.369" fill="#7595ec"/><path d="M504.506 451.872l-57.005 43.85-17.54-25.214 74.545-18.636z" class="O"/><path d="M178.917 404.732c-8.841 1.895-16.2 5.024-20.829 9.866s-2.779 8.392-1.1 9.866 8.567-.428 14.251-5.481 7.674-14.251 7.674-14.251" class="T"/><path d="M353.222 394.866c-1.484-1.976-24.8-27.013-38.369-47.139 0 0-41.594 46.752-46.043 48.235-1.654.551-11.629.128-24.118 0-21.109-.219-48.6-.912-54.813 2.193-9.886 4.943-16.164 7.33-18.636 14.251s-3.724 11.634 2.193 12.059c6.919.495 10.963-8.77 10.963-8.77s6.218 4.382 20.829 9.866c0 0 52.563 19.737 87.7 9.866 9.6-2.694 60.294-40.561 60.294-40.561zm317.915-183.075c4.511 1.718 8.092 3.322 5.481 7.674s-4.517 2.772-12.059 2.193-18.155 4.968-21.925 14.251-2.031 10.9 0 12.059 15.862 2.58 16.444 5.481-5.292 11.542-18.636 10.963l-3.289-1.1-31.791 31.791c-4.062 4.06-33.986 24.393-50.428 28.5-12.5 3.124-38.5-.32-53.717-3.289a75.22 75.22 0 0 1-12.059-3.289s10.832-19.9 13.154-51.517c0 0 27.893 3.691 46.043 7.674l62.487-33.984s17.9-22.311 26.31-25.214 27.893-4.514 33.984-2.193" class="T"/><path d="M501.216 320.321c-4.104-.76-8.137-1.86-12.059-3.289 0 0 14.125-17.714 16.444-49.332 0 0 6.326 7.3 4.385 25.214-2.442 22.507-8.77 27.406-8.77 27.406" class="O"/><path d="M505.602 264.412s-.611 38.693-10.963 54.813l-3.289-1.1s48.9 56.988 64.679 94.278c2.581 6.1-100.858 72.188-116.2 71.257 0 0-50.66-76.864-67.968-99.759l-18.636 14.251s-36.41-37.307-38.369-50.428c0 0 34.75-42.256 63.583-54.813s54.538-34.568 85.508-33.984c26.809.5 41.658 5.481 41.658 5.481" fill="#919191"/><path d="M353.222 398.155l18.636-14.251-3.289-8.77-15.347 23.021z" class="O"/><path d="M324.72 245.779c3.258 10.129 12.53 39.137 23.021 42.754s20.829-1.1 20.829-1.1l12.059 5.481c1.247 3.741 9.438 7.236 20.829 7.674 8.432.324 13.46-10.8 10.963-18.636-1.144-3.6-5.481-20.829-5.481-20.829s-8.122-33.689-16.444-40.561-16.16-13.362-38.369-4.385c-34.005 13.748-27.406 29.6-27.406 29.6" class="T"/><path d="M391.591 246.868c1.491 6.221 7.829 18.684 12.059 16.444s6.273-7.689 3.289-18.636-4.694-36.082-13.155-40.561c0 0-3.3-8.476-14.251-10.963a13.71 13.71 0 0 0-8.77-2.193s-1.662-.4-15.348 1.1-20.829 13.155-20.829 13.155 1.834-1.1-4.385-1.1-17.585 6.243-15.348 16.444c0 0 8.465-15.985 0-3.289s-5.027 14.186 0 17.54c21.332 5.723 8.824 5.427 12.059 2.193s6.692-6.672 18.636-2.193 25.214-8.77 25.214-8.77 1.3 16.047 3.289 17.54 6.474 3.079 5.481-4.385-2.939-6.78-2.193-8.77 4.975-7.725 12.059-2.193c7.961 6.221 2.193 18.637 2.193 18.637z" class="U"/><path d="M388.302 249.067c3.056-2.562 5.491-6.783 5.481-10.963a14.14 14.14 0 0 0-2.193-6.578c-2.643-4.454-6.238-5.491-8.77-5.481-.431-.031-.862.055-1.248.249s-.713.487-.945.851c-1.381 1.495-2.161 3.446-2.193 5.481.039 1.878.411 3.734 1.1 5.481.184.5-.594.91-1.1 1.1s-.91.5-1.1 0a19.8 19.8 0 0 1-1.1-6.578 9.77 9.77 0 0 1 2.193-6.578 6.02 6.02 0 0 1 1.96-1.561 6.04 6.04 0 0 1 2.425-.632c3.38.01 8.017 2.731 10.963 7.674 1.427 2.4 1.1 4.25 1.1 6.578.057 4.635-1.952 9.054-5.481 12.059-.409.345-.753.409-1.1 0s-.409-.751 0-1.1" class="U"/><path d="M505.601 724.84l-3.289 5.481 7.674 28.5c.415 1.788.327 3.657-.254 5.399s-1.631 3.289-3.035 4.471l-36.176-53.717c-3.442-5.091-2.312-11.166 2.193-15.348l7.674-7.674 25.213 32.888z" fill="#000"/><path d="M556.029 410.214l-99.759-140.32c-.312-.436-.434-.784 0-1.1s.784-.436 1.1 0l100.852 140.324c.312.436.434.784 0 1.1s-1.88.436-2.193 0m-140.32-131.555c1.006 1.307 1.751 2.796 2.193 4.385.621 1.766.991 3.612 1.1 5.481.025 3.901-1.12 7.72-3.289 10.963-1.389 1.93-3.193 3.524-5.281 4.662a15.85 15.85 0 0 1-6.778 1.916 32.8 32.8 0 0 1-3.289 0c-14.62 0-24.021-5.417-24.118-5.481-.442-.3-.3-1.752 0-2.193s.656-.3 1.1 0c6.894 4.333 14.879 6.615 23.021 6.578 1.263 0 1.943-.99 3.289-1.1 5.033-.411 7.886-2.584 9.866-5.481 2.051-2.889 3.196-6.324 3.289-9.866-.129-1.867-.498-3.709-1.1-5.481-.161-1.155-.534-2.27-1.1-3.289-.326-.425-.425-.77 0-1.1s.771-.423 1.1 0m222.537-63.576c-.851.601-1.592 1.342-2.193 2.193-1.65 2.255-3.214 6.426-5.481 9.866s-4.884 5.853-5.481 7.674c-.169.508-.588 1.267-1.1 1.1s-1.265-.588-1.1-1.1c.506-1.5 1.941-3.263 3.289-5.481 4.032-6.623 10.955-15.334 10.963-15.348.324-.427.668-.322 1.1 0s.324.668 0 1.1m-429.73 203.9c-.115.1-2.855 2.194-8.77 2.193-3.823 0-9.231-1.113-15.348-4.385-2.061-1.084-3.3-2.609-3.289-4.385.124-1.694.912-3.27 2.193-4.385 1.21-1.041 2.407-1.1 4.385-1.1 1.094-.104 2.195-.104 3.289 0 1.652.415 2.68 1.1 4.385 1.1a30.5 30.5 0 0 0 6.578-1.1c.9-.18 1.686.134 2.193 0 .252-.066.964-1.057 1.1-1.1.51-.161.935.584 1.1 1.1s.51.935 0 1.1a63.83 63.83 0 0 1-10.963 1.1c-1.825 0-3.629.461-5.481 0-.729-.086-1.465-.086-2.193 0-1.199-.082-2.381.313-3.289 1.1-.712.499-1.126 1.323-1.1 2.193a3.98 3.98 0 0 0 .656 1.938 3.96 3.96 0 0 0 1.537 1.351c4.376 2.336 9.293 3.471 14.251 3.289 1.886.04 3.757-.336 5.481-1.1.653-.27.784.192 1.1 0h1.1v-1.1c.413-.341.757.683 1.1 1.1s.413.755 0 1.1m-31.806-12.068c-1.608 1.705-3.075 3.538-4.385 5.481-1.515 2.434-3.312 4.72-3.289 6.578.02.535.535 1.077 0 1.1s-1.077.535-1.1 0v-1.1c.043-1.524.418-3.021 1.1-4.385a84.78 84.78 0 0 1 5.481-9.866 2.27 2.27 0 0 1 1.096-.282c.384 0 .761.097 1.097.282a2.26 2.26 0 0 1 0 2.193" class="O"/><path d="M283.062 405.829c-1.14-2.062-2.623-3.916-4.385-5.481-2.591-2.085-6.184-4.129-9.866-4.385-.284-.023-.551-.146-.752-.348s-.325-.468-.348-.752c.037-.533.563-.039 1.1 0a18.78 18.78 0 0 1 10.963 4.385c1.954 1.695 3.786 3.527 5.481 5.481.32.429-.668.776-1.1 1.1s-.774.427-1.1 0M563.703 288.53v-1.1a35.34 35.34 0 0 0-4.385-6.578c-2.655-3.541-6.59-5.902-10.963-6.578-.528-.093-1.191-.569-1.1-1.1s.569-1.191 1.1-1.1c6.516 1.162 10.535 5.339 13.155 8.77 1.607 2.092 3.072 4.29 4.385 6.578.165.51-.586.933-1.1 1.1s-.933.51-1.1 0m-31.783 181.986l14.251 28.5c7.087 11.968 13.315 24.424 18.637 37.274 8.967 21.578 17.534 48.817 17.54 74.545 0 8.731-.844 17.337-3.289 25.214-.159.512-.584 1.255-1.1 1.1s-1.255-.586-1.1-1.1c2.374-7.648 3.289-16.636 3.289-25.214.006-25.28-8.619-53.1-17.54-74.545-4.46-10.724-8.714-19.856-12.059-26.31-1.672-3.227-3.411-4.83-4.385-6.578-.487-.875-.837-1.739-1.1-2.193-.144-.352-.144-.748 0-1.1l-15.348-28.5c-.248-.473.621-.848 1.1-1.1s.85-.475 1.1 0m-44.942 96.477l-48.235-82.219-32.888-48.235-23.021-35.08-8.77-13.155c-2.35-3.749-4.638-7.087-5.481-8.77l-21.925-40.562c-.254-.471-.471-1.938 0-2.193s1.937.625 2.193 1.1l21.925 40.561c1.262 3.019 2.727 5.949 4.385 8.77 8.188 13.061 24.239 37.313 38.369 58.1 7.067 10.4 13.85 19.331 18.636 26.31 2.393 3.491 4.128 6.8 5.481 8.77l2.193 3.289 48.235 82.219c.27.462.463.825 0 1.1s-.827.462-1.1 0" class="O"/><path d="M550.549 418.984c-15.071 10.992-30.424 21.593-46.043 31.791-12.307 8-24.537 15.628-36.176 21.925-11.655 6.295-21.861 11.256-28.5 12.059-.531.062-1.034-.565-1.1-1.1s-.532-1.034 0-1.1c6.058-.7 16.958-4.7 28.5-10.963 17.347-9.386 37.337-22.86 53.717-33.984l20.829-14.251c2.527-1.792 4.1-3.39 5.481-4.385.639-.527 1.389-.903 2.193-1.1.432-.314 1.876-.432 2.193 0s-.662.782-1.1 1.1M506.7 264.412a178.83 178.83 0 0 1-1.1 21.925c-1.34 11.756-4.491 25.775-9.866 33.984-.293.448-.648.295-1.1 0s-.295-.65 0-1.1c5.036-7.625 7.471-21.266 8.77-32.888a181.65 181.65 0 0 0 1.1-21.925c.023-.284.146-.551.348-.752s.468-.325.752-.348c.284.023.551.146.752.348s.325.468.348.752M318.142 341.15c.613 3.76 2.879 8.862 6.578 14.251 5.989 8.503 12.584 16.564 19.733 24.118 3.206 3.4 6.716 6.732 8.77 8.77l2.193 2.193c.57.553 1.094 1.1 1.1 1.1a.67.67 0 0 1 .211.24c.05.095.076.202.076.31a.67.67 0 0 1-.287.55.67.67 0 0 1-.24.211c-.095.05-.202.076-.31.076s-.215-.026-.31-.076a.67.67 0 0 1-.24-.211c-6.571-5.842-12.794-12.065-18.636-18.636a188.37 188.37 0 0 1-13.161-17.549c-3.762-5.511-6.943-9.936-7.674-14.251-.087-.529.569-1.009 1.1-1.1s1.007-.529 1.1 0M579.051 537.38c0 2.808 1.577 5.481 4.385 5.481 1.43-.074 2.781-.676 3.793-1.688s1.613-2.364 1.688-3.793c0-2.808-2.671-4.385-5.481-4.385s-4.385 1.577-4.385 4.385zm-460.428 77.834c0 2.808 2.671 4.385 5.481 4.385s4.385-1.577 4.385-4.385-1.575-5.481-4.385-5.481a5.79 5.79 0 0 0-5.481 5.481zm530.588-295.989c0 2.808 1.577 5.481 4.385 5.481 1.43-.074 2.781-.676 3.793-1.688s1.614-2.363 1.688-3.793c-.074-1.43-.676-2.781-1.688-3.793s-2.363-1.614-3.793-1.688c-2.808 0-4.385 2.673-4.385 5.481z" class="O"/><path d="M513.276 213.984c.02 6.046 4.917 10.943 10.963 10.963 6.046-.02 10.943-4.917 10.963-10.963-.02-6.047-4.917-10.944-10.964-10.964-6.046.02-10.943 4.917-10.963 10.963" class="Q"/><path d="M164.663 505.588l52.62-24.118c4.16-1.953 3.11-8.014-1.1-9.866l-95.374-42.754c-.694-.293-1.439-.444-2.193-.444a5.63 5.63 0 0 0-2.192.444l-65.775 28.5 114.014 48.238z" class="U"/><path d="M167.954 425.564c-.13 21.336-3.289 80.027-3.289 80.027L50.654 457.356l2.193-81.123c.157-4.968 5.345-7.543 9.866-5.481l98.663 44.947a10.48 10.48 0 0 1 4.818 3.913c1.175 1.761 1.788 3.837 1.76 5.953" fill="#c6cbcb"/><path d="M164.666 506.685L50.655 458.45c-.37-.155-1.11-.695-1.1-1.1l2.193-81.123a8.69 8.69 0 0 1 1.1-3.289 13.52 13.52 0 0 1 3.289-3.289 4.6 4.6 0 0 1 3.289-1.1 21.65 21.65 0 0 1 4.385 1.1c.512.153.153.582 0 1.1s-.582.153-1.1 0c-1.09-.172-2.199-.172-3.289 0-1.34 0-1.442.584-2.193 1.1a6.82 6.82 0 0 0-2.193 3.289c-.188.524-1.032.757-1.1 1.1l-2.193 80.027L165.754 504.5c.495.207.208.6 0 1.1s-.6 1.3-1.1 1.1m-55.898-59.214l-7.674-18.636c-.21-.493-.493-.889 0-1.1s1.983.6 2.193 1.1l7.674 17.54c.21.493-.6.889-1.1 1.1s-.887.493-1.1 0m-7.667-.004l-7.674-18.636c-.209-.493-.492-.889 0-1.1s1.985.6 2.193 1.1l7.674 17.54c.208.493-.6.889-1.1 1.1s-.889.493-1.1 0" class="O"/><path d="M696.35 641.524c.261 2.912 2.569 5.22 5.481 5.481 2.649 0 4.385-2.83 4.385-5.481a4.14 4.14 0 0 0-.256-1.722c-.207-.55-.529-1.049-.943-1.464s-.914-.737-1.464-.944-1.136-.294-1.722-.255c-2.651 0-5.481 1.738-5.481 4.385zm-405.615 24.118a6.51 6.51 0 0 0 .485 2.526c.327.802.812 1.53 1.424 2.143a6.54 6.54 0 0 0 2.142 1.424c.802.328 1.661.493 2.527.485 1.75.017 3.433-.671 4.67-1.908s1.925-2.92 1.908-4.67c.017-1.75-.671-3.433-1.908-4.67s-2.92-1.925-4.67-1.908c-.866-.008-1.725.157-2.527.485a6.54 6.54 0 0 0-2.142 1.424c-.612.613-1.097 1.341-1.424 2.143a6.51 6.51 0 0 0-.485 2.526z" class="Q"/><path d="M176.725 337.861h16.444v-17.54h-16.444v17.54z" class="R"/><path d="M190.976 553.823l-4.385 8.77-5.481 9.866h20.829l-5.481-9.866-5.481-8.77" class="P"/><path d="M267.714 237.006l-58.1 43.85c-1.266.97-3.435 1.284-4.385 0l-8.77-12.059c-.908-1.233-.1-3.427 1.1-4.385l57.005-44.947c1.272-1.018 3.429-1.319 4.385 0l8.77 13.155c.908 1.253 1.229 3.446 0 4.385" class="S"/><path d="M267.714 237.005v1.1l-57.005 43.85a3.9 3.9 0 0 1-2.193 1.1c-1.168 0-2.538-1.178-3.289-2.193l-8.77-12.059c-.581-.602-.965-1.367-1.1-2.193-.059-.434.014-.875.21-1.267a2.18 2.18 0 0 1 .89-.926l57.005-46.043a7.05 7.05 0 0 1 3.289-1.1c1.177 0 1.444 1.159 2.193 2.193l9.866 13.155c.576.606.959 1.369 1.1 2.193 0 1.148-1.211 2.538-2.193 3.289v-1.1l-1.1-1.1c.485-.372 1.094-.526 1.1-1.1 0-.384.245-.759 0-1.1l-9.866-13.155c-.371-.512-.51-1.094-1.1-1.1a7.29 7.29 0 0 0-2.193 1.1l-55.908 44.956c-.464.372-1.094.538-1.1 1.1 0 .39-.25.757 0 1.1l8.77 12.059c.589.599 1.36.986 2.193 1.1.4 0 .751.264 1.1 0l57.005-44.947 1.1 1.1" class="O"/><path d="M263.329 234.813l-14.251 9.866-7.674-9.866 13.155-12.059 8.77 12.059z" class="Q"/><path d="M243.597 249.064l-13.155 10.963-7.674-9.866 14.251-10.963 6.578 9.866z" class="R"/><path d="M224.96 264.412l-14.251 9.866-6.578-8.77 13.155-10.963 7.674 9.867z" class="P"/><path d="M152.607 175.615h1.1l-13.158 110.722c-.439 2.647-2.802 4.538-5.481 4.385h-1.1l-21.919-3.289c-2.667-.366-5.481-2.84-5.481-5.481h1.1l9.866-111.818c.273-2.773 2.776-4.385 5.481-4.385a10.09 10.09 0 0 1 1.1 0l24.118 3.289c2.651.39 5.481 2.863 5.481 5.481v1.1h-1.1l-1.1-1.1c-.088-.842-.462-1.629-1.061-2.228s-1.386-.973-2.228-1.061l-24.118-3.289h-1.1c-1.714 0-3.118.426-3.289 2.193l-10.963 111.818a3.66 3.66 0 0 0 3.289 3.289l21.925 3.289h1.1a3.59 3.59 0 0 0 3.289-3.289l13.155-110.722 1.101 1.1" class="O"/><path d="M146.029 177.807l-4.385 26.31-19.733-2.193 2.193-27.406 21.925 3.289z" class="Q"/><path d="M139.452 213.984l-2.193 26.31-18.636-1.1 3.289-27.406 17.54 2.193" class="R"/><path d="M137.259 250.161l-4.385 26.31-16.444-2.193 1.1-26.31 19.733 2.193" class="P"/><path d="M181.11 198.636L144.937 306.07c-.137.436-.361.841-.658 1.189a3.39 3.39 0 0 1-1.069.837 3.43 3.43 0 0 1-1.312.353 3.42 3.42 0 0 1-1.346-.186l-23.021-8.77c-.855-.315-1.557-.944-1.965-1.758a3.58 3.58 0 0 1-.228-2.627l33.984-107.433c.127-.443.344-.855.639-1.21s.659-.645 1.071-.851c.833-.417 1.804-.465 2.675-.132l25.214 8.77c.861.307 1.57.934 1.979 1.751a3.54 3.54 0 0 1 .214 2.634" class="S"/><path d="M181.109 198.637h1.1L144.931 306.07c-.63 1.852-1.441 3.289-3.289 3.289a9.04 9.04 0 0 1-2.193 0l-23.021-8.77c-1.807-.652-2.193-2.556-2.193-4.385 0-.446-.14-.654 0-1.1l33.984-108.529a4.8 4.8 0 0 1 4.385-3.289c.514 0 .59.908 1.1 1.1l25.214 8.77a5.12 5.12 0 0 1 2.28 1.715c.583.777.932 1.703 1.009 2.67 0 .475.161.623 0 1.1h-2.193a4.31 4.31 0 0 0 0-1.1c0-1.02-.088-1.82-1.1-2.193l-25.214-9.866c-.365-.054-.736-.054-1.1 0-1.059 0-1.855 1.12-2.193 2.193l-33.976 108.528c-.079.252 0-.25 0 0 0 1.03.076 1.828 1.1 2.193l23.021 8.77c.364.051.735.051 1.1 0 1.042 0 1.839-.051 2.193-1.1l36.176-107.433h1.1" class="O"/><path d="M173.436 200.829l-8.77 24.118-19.733-5.481 7.674-26.31 20.829 7.674" class="P"/><path d="M160.281 234.817l-7.674 25.214-17.54-4.385 7.674-27.406 17.54 6.577z" fill="#f9865f"/><path d="M150.419 269.893l-9.866 24.118-15.348-4.385 6.578-26.31 18.636 6.578m605.129 54.812h17.54v-15.348h-17.54v15.348z" class="R"/><path d="M188.784 147.112h17.54v-15.348h-17.54v15.348z" class="P"/><path d="M830.094 233.716c.074 1.43.676 2.781 1.688 3.793s2.363 1.614 3.793 1.688c1.43-.074 2.781-.676 3.793-1.688s1.614-2.363 1.688-3.793c-.074-1.43-.676-2.781-1.688-3.793s-2.363-1.614-3.793-1.688c-1.43.074-2.781.676-3.793 1.688s-1.614 2.363-1.688 3.793zm-17.541 349.707l-13.155 72.352c-.357 1.831-2.589 2.193-4.385 2.193-.264 0 .266.056 0 0l-14.251-2.193c-1.899-.639-3.207-2.383-3.289-4.385-.037.217 0-.215 0 0l12.059-72.351c.324-1.869 2.562-3.289 4.385-3.289-.279-.062.275 0 0 0l16.444 3.289c.924.319 1.73.907 2.317 1.688a4.89 4.89 0 0 1 .972 2.697c0 .24-1.048-.244-1.1 0h-1.1c0-.865-1.316-2-2.193-2.193l-15.34-3.292c-.892 0-2.035.175-2.193 1.1l-12.059 72.353c0 .871.214 2.006 1.1 2.193l14.251 3.289c.878 0 2.022-1.293 2.193-2.193l14.251-71.257h1.1" class="O"/><path d="M807.072 584.518l-3.289 17.54-13.155-2.193 3.289-17.54 13.155 2.193z" class="Q"/><path d="M802.687 608.637l-3.289 17.54-12.059-2.193 3.289-18.636 12.059 3.289z" class="R"/><path d="M798.302 631.658l-3.289 17.54-10.963-2.193 2.193-17.54 12.059 2.193z" class="P"/><path d="M704.024 439.813c26.132-18.815 51.823-48.9 40.561-78.93 0 0-18.608-11.727-47.139 3.289l-28.5 15.348 35.08 60.294" class="R"/><path d="M744.586 360.882s55.457 75.708 44.946 128.262-75.642 78.93-75.642 78.93l-53.716-106.336c16.893-6.2 28.173-10.638 43.85-21.925 26.132-18.815 51.823-48.899 40.562-78.931zm7.674 23.021c-3.2 20.275-18.611 41.334-44.947 60.294-14.221 10.237-25.56 15.453-39.465 20.829L717.18 560.4c14.8-7.363 58.721-31.6 66.872-72.353 6.776-33.877-16.517-79.017-31.792-104.144z" class="R"/><path d="M759.933 404.728a59.39 59.39 0 0 1-5.481 17.54 65.38 65.38 0 0 1-28.5 29.6c-.471.254-.842.471-1.1 0s-.473-.844 0-1.1c14.865-7.965 22.892-20.176 27.406-29.6a59.76 59.76 0 0 0 4.385-10.963c.382-1.513.953-3.551 1.1-4.385.022-.366.022-.734 0-1.1.056-.533.563-1.154 1.1-1.1s1.152.565 1.1 1.1m-50.438 58.111l-29.6 16.444c-.471.254-.842-.625-1.1-1.1s-.471-.844 0-1.1l29.6-15.348c.471-.254 1.939-.471 2.193 0s-.625.844-1.1 1.1m46.05-14.244c-.058.134-10.138 22.047-41.658 36.176-.489.219-.877-.608-1.1-1.1s-.489-.879 0-1.1c15.483-6.943 26.637-15.976 32.888-23.021a64.73 64.73 0 0 0 6.578-8.77c.416-.705.784-1.438 1.1-2.193.157-.3-.076-.945 0-1.1.219-.487 1.7-.221 2.193 0s.219.608 0 1.1m25.213 2.201c-.806 4.453-1.904 8.847-3.289 13.155-2.2 6.716-6.358 14.676-14.251 18.636-.479.239-.856-.617-1.1-1.1s.617-.856 1.1-1.1c7.187-3.582 11.043-11.061 13.155-17.54a50.86 50.86 0 0 0 2.193-7.674c.165-1.1-.058-2.672 0-3.289-.012.161.027-.308 0 0v-1.1c.025-.535.561-.025 1.1 0s1.121-.533 1.1 0m-35.088-77.823v1.1c.014 5.841-2.482 32.17-41.658 65.775-.407.349-.747.407-1.1 0s-.407-.747 0-1.1c38.8-33.321 40.548-59.354 40.561-64.679v-1.1c-.05-.533.563-1.046 1.1-1.1s1.044.563 1.1 1.1m-16.447 6.582h-1.1c-2.783 0-15.145.086-32.888 13.155-.431.318-1.874.432-2.193 0s.666-.778 1.1-1.1c18.07-13.319 30.844-14.255 33.984-14.251h1.1c.535.041.041.563 0 1.1s.535 1.137 0 1.1m66.869 90.986c.074 1.183 0 2.735 0 4.385 0 9.382-2.57 25.875-13.155 43.85s-29.766 37.246-64.679 52.62c-.49.215-.881.491-1.1 0s-.491-.881 0-1.1c34.6-15.247 54.312-35.015 64.679-52.62 7.772-12.915 11.938-27.68 12.062-42.753 0-1.606.072-3.239 0-4.385.023-.284.146-.551.348-.752s.468-.325.752-.348c.284.023.551.146.752.348s.325.468.348.752" class="O"/><path d="M311.564 442.006l31.792 63.583s-21.4 7.947-4.385 32.888c0 0-40.557 17.006-66.872-26.31s39.465-70.161 39.465-70.161z" class="Q"/><path d="M344.452 506.685a30.6 30.6 0 0 0-6.578 4.385c-2.715 2.4-5.477 5.973-5.481 10.963 0 4.272 2.271 9.54 7.674 16.444.33.423.421.767 0 1.1s-1.863.421-2.193 0c-5.572-7.117-7.672-12.694-7.674-17.54.05-2.544.666-5.045 1.804-7.32s2.769-4.269 4.774-5.835c1.922-1.571 4.169-2.694 6.578-3.289.506-.178.918-.506 1.1 0s.506.918 0 1.1" class="O"/><path d="M378.436 513.263c-5.88 5.507-12.104 10.633-18.636 15.348-5.213 3.716-10.712 7.015-16.444 9.866-5.649 2.81-11.662 5.472-16.444 5.481-9.76-.016-19.43-1.876-28.5-5.481-9.27-3.853-17.774-10.978-24.118-21.925-.27-.463.635-.829 1.1-1.1s.827-.463 1.1 0c6.138 10.575 14.081 17.1 23.021 20.829 8.703 3.554 18.005 5.414 27.406 5.481 4.255.008 9.844-1.635 15.348-4.385 8.265-4.117 17.5-11.254 24.118-16.444 3.308-2.595 5.715-4.89 7.674-6.578.979-.844 1.667-.627 2.193-1.1.383-.35.75-.717 1.1-1.1.4-.361.734-.394 1.1 0s.394.734 0 1.1m-4.403 38.376c-.083.048-16.2 15.315-37.273 15.348-3.685.074-7.366-.295-10.963-1.1-.518-.132-.134-.578 0-1.1s.577-1.228 1.1-1.1c3.229.783 6.544 1.152 9.866 1.1a52.13 52.13 0 0 0 25.214-6.578c3.026-1.658 5.954-3.488 8.77-5.481.925-.681.614-.7 1.1-1.1.24-.2.976-.992 1.1-1.1.4-.355.742-.4 1.1 0s.4.741 0 1.1m-23.036 30.707c-.1.068-5.328 3.283-14.251 3.289-5.302.114-10.558-1.012-15.348-3.289-.479-.242-.242-.619 0-1.1s.619-.242 1.1 0a31.71 31.71 0 0 0 14.251 3.289c3.403-.058 6.759-.804 9.866-2.193.762-.302 1.495-.67 2.193-1.1.386-.347.753-.714 1.1-1.1.429-.322.774-.429 1.1 0s.428 1.871 0 2.193m53.706 12.068c-.089.081-15.53 15.336-41.658 15.348-8.61 0-17.817-2.123-28.5-6.578-.495-.206-1.3-.6-1.1-1.1s.6-.206 1.1 0c9.035 3.725 18.728 5.589 28.5 5.481a61.68 61.68 0 0 0 29.6-7.674c3.467-1.873 5.872-2.987 7.674-4.385.769-.692 1.501-1.424 2.193-2.193.227-.2.986.1 1.1 0v-1.1a.67.67 0 0 1 .24-.211c.095-.05.202-.076.31-.076s.215.026.31.076a.67.67 0 0 1 .24.211 2.26 2.26 0 0 1 .284 1.096c0 .384-.098.761-.284 1.097m-14.259-26.301c-.01.008-2.926 2.081-6.578 4.385a66.64 66.64 0 0 1-12.059 5.481c-.5.184-.912.5-1.1 0s-.5-.914 0-1.1c3.322-1.208 8.462-4.3 12.059-6.578 1.8-1.138 3.249-1.417 4.385-2.193a11.33 11.33 0 0 0 2.193-2.193c.435-.312.786.66 1.1 1.1s.436.786 0 1.1m-84.413-106.339c-.64.219-5.838 1.652-12.059 7.674s-12.832 16.221-14.251 31.791c-.048.533-.563 1.145-1.1 1.1s-1.145-.563-1.1-1.1c1.5-16.552 8.649-26.661 15.348-32.888 3.847-3.659 8.298-6.626 13.155-8.77.508-.167.929-.51 1.1 0-.008.862-.414 1.672-1.1 2.193m-10.955 39.465h-1.1a30.19 30.19 0 0 0-2.193 12.059c.012 6.132 2.331 14.007 10.963 21.925.4.363.363.7 0 1.1-.336.185-.713.282-1.097.282a2.27 2.27 0 0 1-1.096-.282c-8.995-8.219-10.976-16.4-10.963-23.021-.046-4.594 1.086-9.123 3.289-13.155.291-.45.646-.291 1.1 0s1.387.646 1.1 1.1M438.729 625.08c-.083.045-25.877 20.8-55.909 20.829-17.562.019-35.863-7.54-52.62-30.7-.314-.434-.435-.782 0-1.1s.782-.432 1.1 0c16.494 22.725 34.513 30.676 51.524 30.7 14.549 0 28.58-5.713 38.369-10.963 4.177-2.301 8.205-4.864 12.059-7.674 1.377-.981 1.469-1.622 2.193-2.193.361-.285.912.151 1.1 0s0-1.094 0-1.1c.407-.347 1.844.689 2.193 1.1s.407.747 0 1.1" class="O"/></g></g></g><defs><clipPath id="C"><path d="M0 0h895v895H0z" class="S"/></clipPath></defs></svg>