<svg xmlns="http://www.w3.org/2000/svg" xmlns:xlink="http://www.w3.org/1999/xlink" width="1407" height="1407" xmlns:v="https://vecta.io/nano"><style><![CDATA[.G{fill:#2a1e17}.H{fill:#a0c6f4}.I{fill:#ff6d66}.J{fill:#91ba83}.K{fill:#101011}.L{fill:#5381ff}]]></style><defs><clipPath id="A"><path d="M0 0h1407v1407H0z"/></clipPath><path id="B" d="M144.15 134.262a4.3 4.3 0 1 0 1.259-3.047 4.3 4.3 0 0 0-1.259 3.047"/><path id="C" d="M116.613 134.262a4.3 4.3 0 1 0 1.257-3.044 4.3 4.3 0 0 0-1.257 3.044"/><path id="D" d="M226.768 186.24a4.3 4.3 0 0 0 8.6 0 4.3 4.3 0 0 0-8.6 0"/><path id="E" d="M171.688 186.24a4.3 4.3 0 1 0 1.262-3.043 4.3 4.3 0 0 0-1.262 3.043"/><path id="F" d="M61.537 186.24a4.3 4.3 0 1 0 8.6 0 4.3 4.3 0 1 0-8.6 0"/><path id="G" d="M268.744 135.024l-.928-.928-132.792 132.791L3.162 135.024 135.024 3.161l132.792 132.791.928-.928-.928-.928.928.928.922-.928L135.952.382a1.31 1.31 0 0 0-1.851 0L.382 134.1a1.32 1.32 0 0 0 0 1.856L134.1 269.666l.923.385.928-.385 133.715-133.714.385-.928-.385-.928-.922.928"/><path id="H" d="M223.507 135.024l-.928-.928-87.554 87.555-86.627-86.627 86.627-86.626 87.555 87.554.928-.928-.928-.928.928.928.928-.928-88.483-88.477a1.3 1.3 0 0 0-1.851 0l-88.483 88.478a1.32 1.32 0 0 0 0 1.856l88.483 88.48.923.385.928-.385 88.484-88.481.38-.928-.38-.928-.928.928"/><path id="I" d="M178.269 135.024l-.928-.928-42.317 42.318-41.39-41.39 41.39-41.39 42.318 42.318.928-.928-.928-.928.928.928.928-.928-43.246-43.241a1.3 1.3 0 0 0-1.851 0l-43.246 43.241a1.31 1.31 0 0 0 0 1.856l43.246 43.246.923.38.928-.38 43.246-43.246.384-.928-.384-.928-.928.928"/><path id="J" d="M430.197 963.028c-.526.527-1.24.822-1.985.822s-1.459-.296-1.985-.822-.822-1.24-.822-1.985.296-1.459.822-1.985 1.24-.822 1.985-.822 1.459.296 1.985.822.822 1.24.822 1.985-.296 1.459-.822 1.985"/><path id="K" d="M492.388 1025.217c-.526.527-1.24.822-1.985.822s-1.459-.296-1.985-.822-.822-1.24-.822-1.985.296-1.459.822-1.985 1.24-.822 1.985-.822 1.459.296 1.985.822a2.81 2.81 0 0 1 0 3.97"/><path id="L" d="M523.481 1056.312a2.8 2.8 0 0 1-3.967 0c-.527-.526-.822-1.24-.822-1.985s.296-1.459.822-1.985a2.8 2.8 0 0 1 3.967 0c.527.526.822 1.24.822 1.985s-.296 1.459-.822 1.985"/><path id="M" d="M409.025 1108.577a2.8 2.8 0 1 1-3.967-3.967 2.8 2.8 0 1 1 3.967 3.967"/></defs><g clip-path="url(#A)"><g class="G"><path d="M200.197 970.43c0 4.408 4.193 6.883 8.6 6.883s6.883-2.475 6.883-6.883-2.472-8.6-6.883-8.6c-4.646.241-8.359 3.954-8.6 8.6m832.816-464.592c0 4.408 2.475 8.6 6.883 8.6 4.646-.242 8.358-3.954 8.6-8.6-.242-4.646-3.954-8.358-8.6-8.6-4.408 0-6.883 4.2-6.883 8.6"/></g><path d="M819.647 340.652c.03 9.491 7.716 17.177 17.207 17.207 9.49-.031 17.176-7.717 17.207-17.207a17.27 17.27 0 0 0-17.207-17.208c-9.49.031-17.176 7.717-17.207 17.207" class="I"/><path d="M1148.3 209.879c4.158 0 6.883 4.445 6.883 8.6.122 1.86-.564 3.683-1.882 5.001s-3.141 2.004-5.001 1.882c-4.158 0-8.6-2.725-8.6-6.883s4.446-8.6 8.6-8.6" class="H"/><path d="M131.369 1137.333c0 4.158 2.724 8.6 6.883 8.6s8.6-4.445 8.6-8.6-4.449-6.883-8.6-6.883c-1.86-.122-3.683.564-5.001 1.882s-2.004 3.141-1.882 5.001" class="J"/><g class="G"><path d="M184.711 707.159l-12.045-29.253c-.329-.773-.773-1.395 0-1.721s3.113.948 3.442 1.721l12.045 27.531c.329.773-.945 1.4-1.721 1.721s-1.392.773-1.721 0m-12.045.001l-12.045-29.253c-.329-.773-.773-1.395 0-1.721s3.116.948 3.441 1.721l12.045 27.531c.326.773-.948 1.4-1.721 1.721s-1.4.773-1.721 0"/></g><g class="I"><path d="M1107.003 1011.723c0 4.161 4.442 8.6 8.6 8.6s6.883-4.442 6.883-8.6c.121-1.86-.565-3.682-1.883-5s-3.14-2.004-5-1.883c-4.161 0-8.6 2.728-8.6 6.883m-636.657 37.854a10.23 10.23 0 0 0 10.32 10.325c2.746.026 5.387-1.053 7.329-2.995s3.021-4.583 2.995-7.329a10.23 10.23 0 0 0-2.995-7.33c-1.942-1.942-4.583-3.021-7.329-2.995a10.23 10.23 0 0 0-10.324 10.324"/></g><path d="M291.394 535.093h25.811v-27.531h-25.811v27.531" class="J"/><path d="M313.763 874.067l-6.883 13.766-8.6 15.486h32.693l-8.6-15.486-8.6-13.766" class="H"/><path d="M434.211 376.786l-91.2 68.828c-1.988 1.522-5.391 2.015-6.883 0l-13.765-18.928c-1.425-1.936-.158-5.379 1.721-6.883l89.476-70.548c2-1.6 5.382-2.07 6.883 0l13.765 20.648c1.425 1.966 1.93 5.409 0 6.883" fill="#fff"/><path d="M434.212 376.786v1.721l-89.476 68.828c-1.084.831-2.172 1.721-3.441 1.721-1.833 0-3.984-1.849-5.162-3.441l-13.766-18.929c-.788-1.068-1.721-2.206-1.721-3.441 0-1.759.244-2.263 1.721-3.441l89.476-72.269a11.07 11.07 0 0 1 5.162-1.721c1.848 0 2.267 1.819 3.442 3.441l15.486 20.648c.767 1.056 1.721 2.221 1.721 3.441 0 1.8-1.9 3.984-3.441 5.162v-1.721l-1.721-1.721c.761-.584 1.718-.826 1.721-1.721 0-.6.384-1.191 0-1.721l-15.486-20.648c-.582-.8-.8-1.718-1.721-1.721a11.48 11.48 0 0 0-3.441 1.721l-87.755 70.548c-.728.584-1.718.844-1.721 1.721 0 .612-.392 1.188 0 1.721l13.768 18.929c.925.939 2.136 1.544 3.442 1.721.63 0 1.179.414 1.721 0l89.476-70.548 1.721 1.721" class="G"/><path d="M427.328 373.345l-22.37 15.486-12.045-15.486 20.648-18.928 13.766 18.928" class="I"/><path d="M396.357 395.714l-20.648 17.207-12.045-15.486 22.369-17.207 10.324 15.486" class="J"/><path d="M367.104 419.804l-22.369 15.486-10.324-13.766 20.648-17.207 12.045 15.486" class="H"/><path d="M253.539 280.428l-20.648 172.069c-.45 3.811-4.8 7.4-8.6 6.883l-34.414-5.162c-3.65-.5-7.242-3.215-6.883-6.883l17.207-175.511c.381-3.9 4.728-5.731 8.6-5.162l37.855 5.162c3.68.539 7.324 4.914 6.883 8.6" fill="#fff"/><path d="M253.539 280.427h1.72l-20.648 173.79c-.512 4.267-4.418 6.883-8.6 6.883-.377 0-1.337.055-1.721 0l-34.414-5.162c-4.185-.575-8.6-4.458-8.6-8.6h1.721l15.486-175.511c.429-4.353 4.357-6.883 8.6-6.883a15.46 15.46 0 0 1 1.721 0l37.855 5.162c4.16.612 8.6 4.494 8.6 8.6 0 .329.039 1.383 0 1.721h-1.72l-1.721-1.721h0c0-2.609-2.511-4.778-5.162-5.162l-37.855-5.162h-1.721c-2.691 0-4.894.668-5.162 3.441l-17.207 175.511h0c0 2.63 2.5 4.8 5.162 5.162l34.414 5.162h1.721c2.657 0 4.843-2.444 5.162-5.162l20.648-173.79h0l1.721 1.721" class="G"/><path d="M243.215 283.869l-6.883 41.3-30.972-3.441 3.441-43.017 34.414 5.162" class="I"/><path d="M232.891 340.652l-3.441 41.3-29.252-1.721 5.162-43.017 27.531 3.441" class="J"/><path d="M229.449 397.435l-6.883 41.3-25.81-3.441 1.721-41.3 30.973 3.441" class="H"/><path d="M298.277 316.563l-56.783 168.628a5.35 5.35 0 0 1-6.883 3.441l-36.135-13.766a5.62 5.62 0 0 1-3.441-6.883l53.342-168.628a5.22 5.22 0 0 1 6.883-3.441l39.576 13.766a5.56 5.56 0 0 1 3.441 6.883" fill="#fff"/><path d="M298.273 316.563h1.721l-58.5 168.628c-.989 2.907-2.261 5.162-5.162 5.162a14.15 14.15 0 0 1-3.441 0l-36.135-13.766c-2.837-1.023-3.441-4.012-3.441-6.883 0-.7-.219-1.027 0-1.721l53.342-170.349a7.53 7.53 0 0 1 6.883-5.162c.807 0 .926 1.425 1.721 1.721l39.576 13.766c2.807 1.044 5.162 4.04 5.162 6.883 0 .746.252.978 0 1.721h-3.442a6.79 6.79 0 0 0 0-1.721c0-1.6-.138-2.857-1.721-3.441l-39.576-15.486a5.91 5.91 0 0 0-1.721 0c-1.662 0-2.911 1.758-3.441 3.441l-53.342 170.345c-.125.4 0-.393 0 0 0 1.616.12 2.869 1.721 3.441l36.135 13.766a6.27 6.27 0 0 0 1.721 0c1.635 0 2.887-.08 3.441-1.721l56.783-168.628h1.721" class="G"/><path d="M286.232 320.004l-13.766 37.855-30.973-8.6 12.045-41.3 32.693 12.045" class="H"/><path d="M265.584 373.346l-12.045 39.576-27.531-6.883 12.045-43.017 27.531 10.324" fill="#f9865f"/><g class="J"><path d="M250.097 428.407l-15.486 37.855-24.09-6.883 10.324-41.3 29.252 10.324m880.996-30.966l5.162-5.162 15.486 13.762-5.162 5.162c-1.924 2.106-4.776 1.924-6.883 0l-6.883-6.883c-2.106-1.924-3.644-4.779-1.721-6.883"/></g><path d="M1158.623 364.742v1.721l-20.648 24.09c-.259.283 0-.356 0 0 0 .4-.32 1.428 0 1.721l13.768 13.765c.283.259 1.367 0 1.721 0 .4 0 1.428.32 1.721 0l20.648-24.09c.259-.286 0-1.365 0-1.721 0-.4.32.292 0 0l-15.49-13.765c-.283-.259.356 0 0 0-.4 0-1.429-.317-1.721 0v-1.721h-1.721a5.04 5.04 0 0 1 3.442-1.724 6.31 6.31 0 0 1 3.441 1.721l13.766 13.766c.968.886 1.724.5 1.721 1.721a6.29 6.29 0 0 1-1.721 3.441l-20.648 24.09a5.05 5.05 0 0 1-3.441 1.721 6.31 6.31 0 0 1-3.441-1.721l-13.766-13.766a5.05 5.05 0 0 1-1.721-3.441c0-1.081-.788-2.583 0-3.441l22.369-22.369h1.721" class="G"/><path d="M1199.921 514.442h27.531v-24.09h-27.531v24.09" class="I"/><path d="M1227.451 474.867v13.765h15.486a1.88 1.88 0 0 1 1.721 1.721 1.88 1.88 0 0 1-1.721 1.721h-15.486c-.4 0-1.438-1.438-1.721-1.721s0 .4 0 0v-15.486c.076-.917.804-1.645 1.721-1.721.84 0 0 .881 0 1.721" class="G"/><path d="M310.322 235.689h27.528v-24.09h-27.531v24.09" class="H"/><path d="M337.858 196.114v13.766h15.486a1.88 1.88 0 0 1 1.721 1.721 1.88 1.88 0 0 1-1.721 1.721h-15.486c-.4 0-1.437.283-1.721 0s0-1.319 0-1.721v-15.486c.076-.917.804-1.645 1.721-1.721.84 0 0 .881 0 1.721" class="G"/><path d="M1289.396 920.526l-22.369 111.845a4.26 4.26 0 0 1-5.162 3.441l-22.369-3.441c-2.348-.516-3.868-2.796-3.441-5.162l18.928-113.566a4.16 4.16 0 0 1 5.162-3.441l25.81 5.162a4.43 4.43 0 0 1 3.441 5.162" fill="#fff"/><path d="M1289.396 920.525h0l-20.648 113.566c-.56 2.873-4.064 3.441-6.883 3.441-.414 0 .417.088 0 0l-22.369-3.441c-2.813-.6-5.162-4.095-5.162-6.883 0-.338-.058.341 0 0l18.928-113.566c.508-2.934 4.021-5.162 6.883-5.162.432 0-.438-.1 0 0l25.81 5.162c2.791.624 5.162 4.116 5.162 6.883 0 .377-1.644-.384-1.721 0h-1.721c0-1.358-2.066-3.14-3.441-3.441l-24.094-5.162h0c-1.4 0-3.195.275-3.441 1.721l-18.924 113.565h0c0 1.367.336 3.149 1.721 3.441l22.369 5.162h0c1.379 0 3.174-2.029 3.441-3.441l22.37-111.845h1.721" class="G"/><path d="M1280.793 922.246l-5.162 27.531-20.648-3.437 5.162-27.531 20.648 3.441" class="I"/><path d="M1273.91 960.102l-5.162 27.531-18.928-3.441 5.162-29.252 18.928 5.162" class="J"/><path d="M1267.028 996.236l-5.161 27.532-17.207-3.441 3.441-27.531 18.928 3.441" class="H"/><g class="G"><path d="M680.271 1188.954l-3.442 8.6c-.256.8-.92 1.976-1.721 1.721s-.256-.919 0-1.721l1.721-8.6c.256-.8.92-1.976 1.721-1.721s1.976.92 1.721 1.721"/><path d="M680.271 1195.836l-6.883-1.721c-.794-.274-1.992-2.644-1.721-3.441s.923-.274 1.721 0l8.6 1.721c.8.271.274 2.647 0 3.441s-.926.271-1.721 0m3.445 25.811l-5.162 15.486c-.253.8-.917 1.974-1.721 1.721s-.253-.92 0-1.721l5.164-17.206c.253-.8.92-.256 1.721 0s.253.917 0 1.721"/><path d="M687.154 1231.971l-13.766-3.441c-.8-.256-1.976-.919-1.721-1.721s.92-1.976 1.721-1.721l13.766 5.162c.8.256 1.976.919 1.721 1.721s-.92.256-1.721 0m18.927-36.135l-6.883 20.648c-.249.8-.92.25-1.721 0s-1.973-.917-1.721-1.721l6.883-20.648c.253-.8.917-.25 1.721 0s1.97.917 1.721 1.721"/><path d="M709.523 1209.602l-18.927-6.883c-.8-.256-1.976-.919-1.721-1.721s2.641-.257 3.441 0l18.927 5.162c.8.255.256.919 0 1.721s-.917 1.976-1.721 1.721"/></g><path d="M138.253 395.714h-22.369c-.917-.076-1.645-.804-1.721-1.721a1.88 1.88 0 0 1 1.721-1.721h22.369a1.88 1.88 0 0 1 1.721 1.721c-.076.917-.804 1.645-1.721 1.721" class="I"/><path d="M747.378 239.131h-22.369v-3.441h22.369z" class="J"/><g class="H"><path d="M95.235 512.721l-22.369 3.441v-1.721l22.369-5.162m893.04 569.55h-22.372c-.84 0-1.721.841-1.721 0 .077-.917.804-1.644 1.721-1.721h22.369c.917.077 1.644.804 1.721 1.721 0 .841-.881 0-1.721 0"/></g><g transform="matrix(.961262 .275637 -.275637 .961262 859.14 127.584)"><g class="K"><use xlink:href="#B"/><use xlink:href="#C"/><path d="M89.075 134.262a4.3 4.3 0 1 0 1.257-3.044 4.3 4.3 0 0 0-1.257 3.044m-27.538 0a4.3 4.3 0 1 0 1.257-3.044 4.3 4.3 0 0 0-1.257 3.044m-27.542 0a4.3 4.3 0 1 0 1.259-3.047 4.3 4.3 0 0 0-1.259 3.047"/><use xlink:href="#D"/><path d="M199.231 186.24a4.3 4.3 0 0 0 8.6 0 4.3 4.3 0 0 0-8.6 0"/><use xlink:href="#E"/><path d="M144.15 186.24a4.3 4.3 0 1 0 1.262-3.043 4.3 4.3 0 0 0-1.262 3.043m-27.537 0a4.3 4.3 0 0 0 8.6 0 4.3 4.3 0 0 0-8.6 0m-27.538 0a4.3 4.3 0 0 0 8.6 0 4.3 4.3 0 0 0-8.6 0"/><use xlink:href="#F"/><path d="M33.995 186.24a4.3 4.3 0 1 0 1.262-3.043 4.3 4.3 0 0 0-1.262 3.043m192.773-25.987a4.3 4.3 0 1 0 1.257-3.044 4.3 4.3 0 0 0-1.257 3.044"/><path d="M199.231 160.253a4.3 4.3 0 1 0 1.257-3.044 4.3 4.3 0 0 0-1.257 3.044m-27.543 0a4.3 4.3 0 1 0 1.259-3.047 4.3 4.3 0 0 0-1.259 3.047m-27.538 0a4.3 4.3 0 1 0 1.259-3.047 4.3 4.3 0 0 0-1.259 3.047m-27.537 0a4.3 4.3 0 1 0 1.257-3.044 4.3 4.3 0 0 0-1.257 3.044m-27.538 0a4.3 4.3 0 1 0 1.257-3.044 4.3 4.3 0 0 0-1.257 3.044m-27.538 0a4.3 4.3 0 1 0 1.257-3.044 4.3 4.3 0 0 0-1.257 3.044m-27.542 0a4.3 4.3 0 1 0 1.259-3.047 4.3 4.3 0 0 0-1.259 3.047m192.773-25.991a4.3 4.3 0 1 0 1.257-3.044 4.3 4.3 0 0 0-1.257 3.044"/><path d="M199.231 134.262a4.3 4.3 0 1 0 1.257-3.044 4.3 4.3 0 0 0-1.257 3.044m27.537-25.996a4.3 4.3 0 0 0 8.6 0 4.3 4.3 0 0 0-8.6 0"/><path d="M199.231 108.266a4.3 4.3 0 0 0 8.6 0 4.3 4.3 0 0 0-8.6 0m-27.543 0a4.3 4.3 0 1 0 1.262-3.043 4.3 4.3 0 0 0-1.262 3.043m-27.538 0a4.3 4.3 0 1 0 1.262-3.043 4.3 4.3 0 0 0-1.262 3.043m-27.537 0a4.3 4.3 0 0 0 8.6 0 4.3 4.3 0 0 0-8.6 0m-27.538 0a4.3 4.3 0 0 0 8.6 0 4.3 4.3 0 0 0-8.6 0m-27.538 0a4.3 4.3 0 1 0 8.6 0 4.3 4.3 0 1 0-8.6 0m-27.542 0a4.3 4.3 0 1 0 1.262-3.043 4.3 4.3 0 0 0-1.262 3.043m192.773-25.991a4.3 4.3 0 1 0 8.6 0 4.3 4.3 0 0 0-8.6 0"/><path d="M199.231 82.275a4.3 4.3 0 0 0 8.6 0 4.3 4.3 0 0 0-8.6 0m-27.543 0a4.3 4.3 0 1 0 1.262-3.043 4.3 4.3 0 0 0-1.262 3.043m-27.538 0a4.3 4.3 0 1 0 1.262-3.043 4.3 4.3 0 0 0-1.262 3.043m-27.537 0a4.3 4.3 0 0 0 8.6 0 4.3 4.3 0 0 0-8.6 0m-27.538 0a4.3 4.3 0 0 0 8.6 0 4.3 4.3 0 0 0-8.6 0m-27.538 0a4.3 4.3 0 1 0 8.6 0 4.3 4.3 0 1 0-8.6 0m-27.542 0a4.3 4.3 0 1 0 1.262-3.043 4.3 4.3 0 0 0-1.262 3.043m192.773-25.989a4.3 4.3 0 1 0 1.257-3.044 4.3 4.3 0 0 0-1.257 3.044"/><path d="M199.231 56.286a4.3 4.3 0 1 0 1.257-3.044 4.3 4.3 0 0 0-1.257 3.044m-27.543 0a4.3 4.3 0 1 0 1.259-3.047 4.3 4.3 0 0 0-1.259 3.047m-27.538 0a4.3 4.3 0 1 0 1.259-3.047 4.3 4.3 0 0 0-1.259 3.047m-27.537 0a4.3 4.3 0 1 0 1.257-3.044 4.3 4.3 0 0 0-1.257 3.044m-27.538 0a4.3 4.3 0 1 0 1.257-3.044 4.3 4.3 0 0 0-1.257 3.044m-27.538 0a4.3 4.3 0 1 0 1.257-3.044 4.3 4.3 0 0 0-1.257 3.044m-27.542 0a4.3 4.3 0 1 0 1.259-3.047 4.3 4.3 0 0 0-1.259 3.047m192.773-25.99a4.3 4.3 0 1 0 1.257-3.044 4.3 4.3 0 0 0-1.257 3.044"/><path d="M199.231 30.296a4.3 4.3 0 1 0 1.257-3.044 4.3 4.3 0 0 0-1.257 3.044m-27.543 0a4.3 4.3 0 1 0 1.259-3.047 4.3 4.3 0 0 0-1.259 3.047m-27.538 0a4.3 4.3 0 1 0 1.259-3.047 4.3 4.3 0 0 0-1.259 3.047m-27.537 0a4.3 4.3 0 1 0 1.257-3.044 4.3 4.3 0 0 0-1.257 3.044m-27.538 0a4.3 4.3 0 1 0 1.257-3.044 4.3 4.3 0 0 0-1.257 3.044m-27.538 0a4.3 4.3 0 1 0 1.257-3.044 4.3 4.3 0 0 0-1.257 3.044m-27.542 0a4.3 4.3 0 1 0 1.259-3.047 4.3 4.3 0 0 0-1.259 3.047M226.768 4.3a4.3 4.3 0 1 0 8.6 0 4.3 4.3 0 0 0-8.6 0"/><path d="M199.231 4.3a4.3 4.3 0 0 0 8.6 0 4.3 4.3 0 0 0-8.6 0m-27.543 0a4.3 4.3 0 1 0 1.262-3.043 4.3 4.3 0 0 0-1.262 3.043m-27.538 0a4.3 4.3 0 1 0 1.262-3.043A4.3 4.3 0 0 0 144.15 4.3m-27.537 0a4.3 4.3 0 0 0 8.6 0 4.3 4.3 0 0 0-4.3-4.3 4.3 4.3 0 0 0-4.3 4.3m-27.538 0a4.3 4.3 0 0 0 8.6 0 4.3 4.3 0 0 0-4.3-4.3 4.3 4.3 0 0 0-4.3 4.3m-27.538 0a4.3 4.3 0 1 0 8.6 0 4.3 4.3 0 1 0-8.6 0m-27.542 0a4.3 4.3 0 1 0 1.262-3.043A4.3 4.3 0 0 0 33.995 4.3"/></g><path d="M9.711 229.859v-2.078h175.933a5.56 5.56 0 0 0 5.554-5.554V46.292a5.56 5.56 0 0 0-5.554-5.554H9.711a5.56 5.56 0 0 0-5.555 5.554v175.933c.003 3.067 2.488 5.552 5.555 5.556v4.157A9.71 9.71 0 0 1 0 222.225V46.292a9.71 9.71 0 0 1 9.711-9.711h175.933a9.71 9.71 0 0 1 9.711 9.711v175.933a9.71 9.71 0 0 1-9.711 9.711H9.711v-2.077" class="L"/><path d="M171.693 134.262a4.3 4.3 0 1 0 1.259-3.047 4.3 4.3 0 0 0-1.259 3.047" class="K"/></g><g transform="matrix(.985 -.174 .174 .985 824.921 1049.29)"><g class="L"><use xlink:href="#G"/><use xlink:href="#H"/></g><use xlink:href="#I" class="K"/></g><path d="M422.308 1247.197l-119.9-119.9c-.912-.911-1.424-2.147-1.424-3.436s.512-2.525 1.424-3.436l119.9-119.9a4.86 4.86 0 0 1 6.875 0l119.9 119.9c.912.911 1.424 2.147 1.424 3.436s-.512 2.525-1.424 3.436l-119.9 119.9c-1.9 1.896-4.975 1.896-6.875 0z" fill="none" stroke="#5381ff" stroke-miterlimit="10" stroke-width="2.361"/><g fill="#010101"><use xlink:href="#J"/><path d="M461.296 994.121a2.8 2.8 0 1 1-3.97-3.967c.526-.527 1.24-.822 1.985-.822s1.459.296 1.985.822a2.8 2.8 0 0 1 0 3.967"/><use xlink:href="#K"/><use xlink:href="#L"/><path d="M554.577 1087.407c-.526.527-1.24.822-1.985.822s-1.459-.296-1.985-.822-.822-1.24-.822-1.985.296-1.459.822-1.985 1.24-.822 1.985-.822 1.459.296 1.985.822.822 1.24.822 1.985-.296 1.459-.822 1.985M402.41 990.815c-.526.527-1.24.822-1.985.822s-1.459-.296-1.985-.822-.822-1.24-.822-1.985.296-1.459.822-1.985 1.24-.822 1.985-.822 1.459.296 1.985.822.822 1.24.822 1.985-.296 1.459-.822 1.985m31.096 31.096c-.526.527-1.24.822-1.985.822s-1.459-.296-1.985-.822-.822-1.24-.822-1.985.296-1.459.822-1.985 1.24-.822 1.985-.822 1.459.296 1.985.822.822 1.24.822 1.985-.296 1.459-.822 1.985m31.093 31.092a2.8 2.8 0 0 1-3.967 0c-.527-.526-.822-1.24-.822-1.985s.296-1.459.822-1.985a2.8 2.8 0 0 1 3.967 0c.527.526.822 1.24.822 1.985s-.296 1.459-.822 1.985m31.094 31.096c-.526.527-1.24.822-1.985.822s-1.459-.296-1.985-.822-.822-1.24-.822-1.985.296-1.459.822-1.985 1.24-.822 1.985-.822 1.459.296 1.985.822.822 1.24.822 1.985-.296 1.459-.822 1.985m31.094 31.095c-.526.527-1.24.822-1.985.822s-1.459-.296-1.985-.822-.822-1.24-.822-1.985.296-1.459.822-1.985 1.24-.822 1.985-.822 1.459.296 1.985.822.822 1.24.822 1.985-.296 1.459-.822 1.985m-152.162-96.592c-.526.527-1.24.822-1.985.822s-1.459-.296-1.985-.822-.822-1.24-.822-1.985.296-1.459.822-1.985 1.24-.822 1.985-.822 1.459.296 1.985.822.822 1.24.822 1.985-.296 1.459-.822 1.985m31.094 31.096c-.526.527-1.24.822-1.985.822s-1.459-.296-1.985-.822-.822-1.24-.822-1.985.296-1.459.822-1.985 1.24-.822 1.985-.822 1.459.296 1.985.822.822 1.24.822 1.985-.296 1.459-.822 1.985m31.093 31.092a2.8 2.8 0 0 1-3.967 0c-.527-.526-.822-1.24-.822-1.985s.296-1.459.822-1.985a2.8 2.8 0 0 1 3.967 0c.527.526.822 1.24.822 1.985s-.296 1.459-.822 1.985m31.096 31.096c-.526.527-1.24.822-1.985.822s-1.459-.296-1.985-.822-.822-1.24-.822-1.985.296-1.459.822-1.985 1.24-.822 1.985-.822 1.459.296 1.985.822.822 1.24.822 1.985-.296 1.459-.822 1.985m31.095 31.095c-.526.527-1.24.822-1.985.822s-1.459-.296-1.985-.822-.822-1.24-.822-1.985.296-1.459.822-1.985 1.24-.822 1.985-.822 1.459.296 1.985.822.822 1.24.822 1.985-.296 1.459-.822 1.985m-152.166-96.593c-.526.527-1.24.822-1.985.822s-1.459-.296-1.985-.822-.822-1.24-.822-1.985.296-1.459.822-1.985 1.24-.822 1.985-.822 1.459.296 1.985.822.822 1.24.822 1.985-.296 1.459-.822 1.985m31.095 31.096c-.526.527-1.24.822-1.985.822s-1.459-.296-1.985-.822-.822-1.24-.822-1.985.296-1.459.822-1.985 1.24-.822 1.985-.822 1.459.296 1.985.822.822 1.24.822 1.985-.296 1.459-.822 1.985"/><use xlink:href="#M"/><path d="M440.121 1139.672c-.526.527-1.24.822-1.985.822s-1.459-.296-1.985-.822-.822-1.24-.822-1.985.296-1.459.822-1.985 1.24-.822 1.985-.822 1.459.296 1.985.822.822 1.24.822 1.985-.296 1.459-.822 1.985m31.095 31.096c-.526.527-1.24.822-1.985.822s-1.459-.296-1.985-.822-.822-1.24-.822-1.985.296-1.459.822-1.985 1.24-.822 1.985-.822 1.459.296 1.985.822.822 1.24.822 1.985-.296 1.459-.822 1.985m-152.166-96.593c-.526.527-1.24.822-1.985.822s-1.459-.296-1.985-.822-.822-1.24-.822-1.985.296-1.459.822-1.985 1.24-.822 1.985-.822 1.459.296 1.985.822.822 1.24.822 1.985-.296 1.459-.822 1.985m31.095 31.096c-.526.527-1.24.822-1.985.822s-1.459-.296-1.985-.822a2.81 2.81 0 0 1 0-3.97c.526-.527 1.24-.822 1.985-.822s1.459.296 1.985.822.822 1.24.822 1.985-.296 1.459-.822 1.985m31.093 31.092a2.8 2.8 0 1 1-3.967-3.967 2.8 2.8 0 1 1 3.967 3.967m31.096 31.096c-.526.527-1.24.822-1.985.822s-1.459-.296-1.985-.822-.822-1.24-.822-1.985.296-1.459.822-1.985 1.24-.822 1.985-.822 1.459.296 1.985.822a2.81 2.81 0 0 1 0 3.97m31.096 31.095c-.526.527-1.24.822-1.985.822s-1.459-.296-1.985-.822-.822-1.24-.822-1.985.296-1.459.822-1.985 1.24-.822 1.985-.822 1.459.296 1.985.822.822 1.24.822 1.985-.296 1.459-.822 1.985m-152.167-96.592c-.526.527-1.24.822-1.985.822s-1.459-.296-1.985-.822-.822-1.24-.822-1.985.296-1.459.822-1.985 1.24-.822 1.985-.822 1.459.296 1.985.822.822 1.24.822 1.985-.296 1.459-.822 1.985m31.095 31.096c-.526.527-1.24.822-1.985.822s-1.459-.296-1.985-.822-.822-1.24-.822-1.985.296-1.459.822-1.985 1.24-.822 1.985-.822 1.459.296 1.985.822a2.81 2.81 0 0 1 0 3.97m31.093 31.092c-.526.527-1.24.822-1.985.822s-1.459-.296-1.985-.822a2.8 2.8 0 0 1 0-3.967c.526-.527 1.24-.822 1.985-.822s1.459.296 1.985.822a2.8 2.8 0 0 1 0 3.967m31.096 31.098c-.526.527-1.24.822-1.985.822s-1.459-.296-1.985-.822-.822-1.24-.822-1.985.296-1.459.822-1.985a2.81 2.81 0 0 1 3.97 0c.527.526.822 1.24.822 1.985s-.296 1.459-.822 1.985m31.095 31.093a2.81 2.81 0 0 1-3.97 0c-.527-.526-.822-1.24-.822-1.985s.296-1.459.822-1.985 1.24-.822 1.985-.822 1.459.296 1.985.822.822 1.24.822 1.985-.296 1.459-.822 1.985"/></g><g transform="matrix(.985 -.174 .174 .985 365.539 138.656)"><g class="L"><use xlink:href="#G"/><use xlink:href="#H"/></g><use xlink:href="#I" class="K"/></g></g></svg>