<svg xmlns="http://www.w3.org/2000/svg" width="187" height="187" xmlns:v="https://vecta.io/nano"><defs><clipPath id="A"><path d="M0,0H249.337V249.337H0Z" fill="#fff"/></clipPath><clipPath id="B"><path d="M0 0h187v187H0z"/></clipPath></defs><g clip-path="url(#B)"><g transform="translate(-31.169 -31.169)" clip-path="url(#A)"><g stroke="#5381ff"><path d="M33.661 37.65h28.674v28.674H33.661z" fill="#e1e9fe"/><g fill="none"><path d="M72.932 37.775h27.178v28.424H72.932zm38.148 0h28.424v28.424H111.08zm36.154 0h30.17v28.424h-30.17zm39.645 0h28.674v28.424h-28.674zM33.786 73.929H62.21v28.674H33.786z"/></g><path d="M72.806 73.804h27.427v28.923H72.806z" fill="#e1e9fe"/><g fill="none"><path d="M111.08 73.929h28.424v28.674H111.08zm36.154 0h30.17v28.674h-30.17zm39.645 0h28.674v28.674h-28.674zM33.786 110.581H62.21v29.92H33.786zm39.146 0h27.178v29.92H72.932z"/></g><path d="M110.955 110.456h28.674v30.17h-28.674z" fill="#e1e9fe"/><g fill="none"><path d="M147.234 110.581h30.17v29.92h-30.17zm39.645 0h28.674v29.92h-28.674zM33.786 146.735H62.21v28.674H33.786zm39.146 0h27.178v28.674H72.932zm38.148 0h28.424v28.674H111.08z"/></g><path d="M147.109 146.61h30.419v28.923h-30.419z" fill="#e1e9fe"/><g fill="none"><path d="M186.879 146.735h28.674v28.674h-28.674zM33.786 183.138H62.21v28.424H33.786zm39.146 0h27.178v28.424H72.932zm38.148 0h28.424v28.424H111.08zm36.154 0h30.17v28.424h-30.17z"/></g><path d="M186.754 183.013h28.923v28.674h-28.923z" fill="#e1e9fe"/></g><text fill="#fff" stroke="#5381ff" font-size="24" font-family="Arial-BoldMT, Arial" font-weight="700"><tspan x="39.769" y="60.981">S</tspan><tspan x="192.589" y="205.758">E</tspan></text></g></g></svg>