<svg xmlns="http://www.w3.org/2000/svg" width="187" height="187" xmlns:v="https://vecta.io/nano"><defs><clipPath id="A"><path d="M0 0h187v187H0z"/></clipPath></defs><g clip-path="url(#A)" fill="#e1e9fe"><g stroke="#5381ff"><path d="M93.499 133.981c-16.73 0-34.735-6.543-52.069-18.921a131.81 131.81 0 0 1-21.29-18.807 4.21 4.21 0 0 1 0-5.508 131.85 131.85 0 0 1 21.29-18.807C58.764 59.56 76.77 53.017 93.499 53.017s34.735 6.543 52.069 18.921a131.85 131.85 0 0 1 21.29 18.807 4.21 4.21 0 0 1 0 5.508 131.83 131.83 0 0 1-21.29 18.807c-17.333 12.379-35.339 18.921-52.069 18.921zM29.088 93.5a132.78 132.78 0 0 0 17.4 14.832c11.049 7.862 28.175 17.236 47.013 17.236s35.964-9.373 47.013-17.236c6.216-4.435 12.037-9.397 17.4-14.832a132.74 132.74 0 0 0-17.4-14.832c-11.049-7.863-28.175-17.236-47.013-17.236s-35.964 9.373-47.013 17.236a132.74 132.74 0 0 0-17.4 14.832zm64.408 26.084c-11.591-.001-21.791-7.65-25.038-18.777A26.08 26.08 0 0 1 79.47 71.512c9.773-6.233 22.486-5.271 31.207 2.364a4.21 4.21 0 0 1 .371 5.918 4.21 4.21 0 0 1-5.915.411 17.67 17.67 0 1 0 6.033 13.299 4.21 4.21 0 0 1 4.207-4.207 4.21 4.21 0 0 1 4.207 4.207c-.018 14.398-11.686 26.065-26.084 26.08zm.003-17.67c-3.403 0-6.471-2.05-7.774-5.194s-.582-6.763 1.824-9.169 6.025-3.126 9.169-1.824 5.194 4.37 5.194 7.774c-.006 4.645-3.769 8.408-8.414 8.414z"/></g><path d="M184.882 184.882h-34.798v-7.354h26.945.5v-.5-26.943h7.353v34.798zm-147.964-.001h-34.8v-34.797h7.353v26.944.5h.5 26.947v7.353zM184.882 36.917h-7.353V11.164v-.5h-.5-26.945V2.118h34.798v34.799zm-175.411 0H2.118V2.118h34.8v8.546H9.971h-.5v.5 25.753z"/><path d="M184.382 184.382v-33.798h-6.353v27.444h-27.445v6.354h33.798m-147.964-.001v-6.353H8.971v-27.444H2.618v33.797h33.8M184.382 36.417V2.618h-33.798v7.546h27.445v26.253h6.353m-175.411 0V10.164h27.447V2.618h-33.8v33.799h6.353m176.411 148.966h-35.798v-8.354h27.445v-27.443h8.353v35.798zm-147.964-.001h-35.8v-35.797h8.353v27.444h27.447v8.353zM185.382 37.417h-8.353V11.164h-27.445V1.618h35.798v35.799zm-175.411 0H1.618V1.618h35.8v9.546H9.971v26.253z" fill="#5381ff"/></g></svg>