<svg xmlns="http://www.w3.org/2000/svg" xmlns:xlink="http://www.w3.org/1999/xlink" width="1000" height="1000" viewBox="0 0 1000 1000"><defs><clipPath id="b"><rect width="1000" height="1000"/></clipPath></defs><g id="a" clip-path="url(#b)"><rect width="1000" height="1000" fill="#fff"/><g transform="translate(69.133 76.4)"><path d="M235.984,119.886l143.048-11.756V281.838L235.984,270.081Zm0,0" transform="translate(-217.297 -44.618)" fill="#03232e"/><g transform="translate(0)"><path d="M163.214,119.886v150.2L31.895,281.838V108.13Zm0,0" transform="translate(118.11 -44.618)" fill="#07485e"/><path d="M235.985,0h150l11.731,37.633L385.988,75.267h-150Zm0,0" transform="translate(-235.985)" fill="#07485e"/><path d="M235.985,267.194V191.929h150l11.731,37.633-11.731,37.633Zm0,0" transform="translate(-235.985 -79.197)" fill="#07485e"/><path d="M235.985,459.123V383.855h150l11.731,37.635-11.731,37.633Zm0,0" transform="translate(-235.985 -158.393)" fill="#07485e"/></g><path d="M150.008,0H0V75.268H150.008Zm0,0" transform="translate(150.004)" fill="#0b799d"/><path d="M150.008,191.93H0V267.2H150.008Zm0,0" transform="translate(150.004 -79.197)" fill="#0b799d"/><path d="M150.008,383.855H0v75.268H150.008Zm0,0" transform="translate(150.004 -158.393)" fill="#0b799d"/><path d="M406.985,49.07H326.07V66.691h80.915Zm0,0" transform="translate(-298.038 -20.248)" fill="#b4d2d7"/><path d="M406.985,241H326.07v17.621h80.915Zm0,0" transform="translate(-298.038 -99.445)" fill="#b4d2d7"/><path d="M406.985,432.93H326.07v17.621h80.915Zm0,0" transform="translate(-298.038 -178.643)" fill="#b4d2d7"/><path d="M66.526,49.07H47.84V66.691H66.526Zm0,0" transform="translate(205.453 -20.248)" fill="#ff6d6d"/><path d="M130.314,49.07H111.625V66.691h18.689Zm0,0" transform="translate(104.29 -20.248)" fill="#ffd422"/><path d="M66.526,241H47.84v17.621H66.526Zm0,0" transform="translate(205.453 -99.445)" fill="#00ff94"/><path d="M130.314,241H111.625v17.621h18.689Zm0,0" transform="translate(104.29 -99.445)" fill="#ffd422"/><path d="M66.526,432.93H47.84v17.621H66.526Zm0,0" transform="translate(205.453 -178.643)" fill="#00ff94"/><path d="M130.314,432.93H111.625v17.621h18.689Zm0,0" transform="translate(104.29 -178.643)" fill="#ffd422"/></g><g transform="translate(731.651 516.978) rotate(135)"><g transform="translate(0 68.733)"><path d="M170.667,327.185l41.245,41.245,41.245-41.245A58.375,58.375,0,0,0,170.667,327.185Z" transform="translate(-60.68 -154.558)" fill="#0b799d"/><path d="M85.333,229.28l27.5,27.5a97.25,97.25,0,0,1,137.483,0l27.5-27.5A136.126,136.126,0,0,0,85.333,229.28Z" transform="translate(-30.34 -111.645)" fill="#0b799d"/><path d="M0,131.374l27.5,27.5a175,175,0,0,1,247.469,0l27.5-27.5C218.941,47.853,83.521,47.853,0,131.374Z" transform="translate(0 -68.733)" fill="#0b799d"/></g></g><g transform="translate(608.27 615.611)"><g transform="translate(4.945 10.335)"><rect width="26.376" height="23.079" transform="translate(204.415 273.651)" fill="#afb6bb"/><rect width="26.376" height="23.079" transform="translate(138.474 273.651)" fill="#afb6bb"/><rect width="26.376" height="23.079" transform="translate(72.534 273.651)" fill="#afb6bb"/><rect width="26.376" height="26.376" transform="translate(0 135.177)" fill="#afb6bb"/><rect width="26.376" height="26.376" transform="translate(0 201.117)" fill="#afb6bb"/><rect width="26.376" height="26.376" transform="translate(276.949 201.117)" fill="#afb6bb"/><rect width="26.376" height="26.376" transform="translate(276.949 135.177)" fill="#afb6bb"/><rect width="26.376" height="26.376" transform="translate(276.949 69.237)" fill="#afb6bb"/><rect width="26.376" height="23.079" transform="translate(204.415)" fill="#afb6bb"/><rect width="26.376" height="23.079" transform="translate(138.474)" fill="#afb6bb"/><rect width="26.376" height="23.079" transform="translate(72.534)" fill="#afb6bb"/><rect width="26.376" height="26.376" transform="translate(0 69.237)" fill="#afb6bb"/></g><g transform="translate(31.322 33.414)"><rect width="19.782" height="26.376" transform="translate(0 46.158)" fill="#e7eced"/><rect width="19.782" height="26.376" transform="translate(0 112.098)" fill="#e7eced"/><rect width="19.782" height="26.376" transform="translate(0 178.039)" fill="#e7eced"/><rect width="26.376" height="19.782" transform="translate(46.158 230.79)" fill="#e7eced"/><rect width="26.376" height="19.782" transform="translate(112.098 230.79)" fill="#e7eced"/><rect width="26.376" height="19.782" transform="translate(178.039 230.79)" fill="#e7eced"/><rect width="19.782" height="26.376" transform="translate(230.79 178.039)" fill="#e7eced"/><rect width="19.782" height="26.376" transform="translate(230.79 112.098)" fill="#e7eced"/><rect width="19.782" height="26.376" transform="translate(230.79 46.158)" fill="#e7eced"/><rect width="26.376" height="19.782" transform="translate(178.039)" fill="#e7eced"/><rect width="26.376" height="19.782" transform="translate(112.098)" fill="#e7eced"/><rect width="26.376" height="19.782" transform="translate(46.158)" fill="#e7eced"/></g><path d="M294.545,268.169v19.782a6.614,6.614,0,0,1-6.594,6.594H90.131a6.614,6.614,0,0,1-6.594-6.594V90.131a6.614,6.614,0,0,1,6.594-6.594H287.952a6.614,6.614,0,0,1,6.594,6.594V268.169Zm-26.376,0V109.913H109.913V268.17H268.169Z" transform="translate(-32.433 -30.341)" fill="#595e62"/><path d="M0,0H158.256V158.256H0Z" transform="translate(77.48 79.572)" fill="#00b1d1"/><path d="M155.486,126.653H126.653V284.909H284.909V256.076A198.051,198.051,0,0,1,155.486,126.653Z" transform="translate(-49.173 -47.081)" fill="#037286"/><path d="M109.913,268.169V109.913h79.128V83.537H90.131a6.614,6.614,0,0,0-6.594,6.594V287.952a6.614,6.614,0,0,0,6.594,6.594h98.91V268.17H109.913Z" transform="translate(-32.433 -30.341)" fill="#44494c"/><g transform="translate(110.449 101.002)"><rect width="92.316" height="9.891" fill="#fff"/><rect width="92.316" height="9.891" transform="translate(0 46.158)" fill="#fff"/><rect width="16.485" height="9.891" transform="translate(0 23.079)" fill="#fff"/><rect width="16.485" height="9.891" transform="translate(0 105.504)" fill="#fff"/><rect width="16.485" height="9.891" transform="translate(26.376 105.504)" fill="#fff"/><rect width="16.485" height="9.891" transform="translate(72.534 105.504)" fill="#fff"/><rect width="56.049" height="9.891" transform="translate(36.268 23.079)" fill="#fff"/></g><path d="M118.568,286.716H286.715V118.568H118.568Zm9.891-158.256H276.824V276.824H128.459Z" transform="translate(-46.034 -43.942)"/><path d="M313.216,110.894V74.627H267.057V59.79a11.553,11.553,0,0,0-11.539-11.539H240.681V5.389H204.414V48.25H174.741V5.389H138.474V48.25H108.8V5.389H72.534V48.25H57.7A11.553,11.553,0,0,0,46.158,59.789V74.626H0v36.267H46.158v29.673H0v36.267H46.158v29.673H0v36.267H46.158V257.61A11.553,11.553,0,0,0,57.7,269.149H72.534V312.01H108.8V269.149h29.673V312.01h36.267V269.149h29.673V312.01h36.267V269.149h14.837a11.553,11.553,0,0,0,11.539-11.539V242.773h46.158V206.506H267.057V176.833h46.158V140.566H267.057V110.893h46.158ZM267.057,84.518h9.891V101h-9.891ZM303.325,101H286.84V84.518h16.485ZM214.306,38.359H230.79V48.25H214.306ZM230.79,15.28V28.468H214.306V15.28ZM148.365,38.359H164.85V48.25H148.365V38.359ZM164.85,15.28V28.468H148.366V15.28ZM82.425,38.359H98.91V48.25H82.425ZM98.91,15.28V28.468H82.425V15.28ZM46.158,101H36.267V84.518h9.891V101ZM9.891,84.518H26.376V101H9.891Zm36.268,82.425H36.267V150.458h9.891v16.485ZM9.891,150.457H26.376v16.485H9.891Zm36.268,82.425H36.267V216.4h9.891v16.485ZM9.891,216.4H26.376v16.485H9.891ZM98.91,279.041H82.425V269.15H98.91ZM82.425,302.12V288.932H98.91V302.12Zm82.425-23.079H148.366V269.15H164.85ZM148.365,302.12V288.932H164.85V302.12Zm82.425-23.079H214.306V269.15H230.79ZM214.306,302.12V288.932H230.79V302.12ZM267.057,216.4h9.891v16.485h-9.891Zm36.268,16.485H286.84V216.4h16.485Zm-36.268-82.425h9.891v16.485h-9.891Zm36.268,16.485H286.84V150.458h16.485ZM257.166,257.61a1.671,1.671,0,0,1-1.649,1.649H57.7a1.671,1.671,0,0,1-1.649-1.649V59.79A1.671,1.671,0,0,1,57.7,58.141h197.82a1.671,1.671,0,0,1,1.649,1.649V257.61Z" transform="translate(0 0)"/></g></g></svg>