<svg xmlns="http://www.w3.org/2000/svg" xmlns:xlink="http://www.w3.org/1999/xlink" viewBox="-5 122 500 270"><defs><path id="A" d="M-5 122h500v270H-5z"/><path id="B" d="M163.4 200.8h-8.7v8.2h8.7v-8.2z"/></defs><clipPath id="C"><use xlink:href="#A"/></clipPath><g clip-path="url(#C)"><path d="M400.7 323.3h14v12.3h-14v-12.3zm-35.1 0h14v12.3h-14v-12.3zm-35.1 0h14v12.3h-14v-12.3zm-38.6-73.7h14v14h-14v-14zm0 35.1h14v14h-14v-14zm147.4 0h14v14h-14v-14zm0-35.1h14v14h-14v-14zm0-35.1h14v14h-14v-14zm-38.6-36.9h14v12.3h-14v-12.3zm-35.1 0h14v12.3h-14v-12.3zm-35.1 0h14v12.3h-14v-12.3zm-38.6 36.9h14v14h-14v-14z" fill="#afb6bb"/><path d="M305.9 214.5h10.5v14h-10.5v-14zm0 35.1h10.5v14h-10.5v-14zm0 35.1h10.5v14h-10.5v-14zm24.6 28.1h14v10.5h-14v-10.5zm35.1 0h14v10.5h-14v-10.5zm35.1 0h14v10.5h-14v-10.5zm28.1-28.1h10.5v14h-10.5v-14zm0-35.1h10.5v14h-10.5v-14zm0-35.1h10.5v14h-10.5v-14zm-28.1-24.6h14v10.5h-14v-10.5zm-35.1 0h14v10.5h-14v-10.5zm-35.1 0h14v10.5h-14v-10.5z" fill="#e7eced"/><path d="M428.8 298.7v10.5c0 1.9-1.6 3.5-3.5 3.5H320c-1.9 0-3.5-1.6-3.5-3.5V204c0-1.9 1.6-3.5 3.5-3.5h105.3c1.9 0 3.5 1.6 3.5 3.5v94.7zm-14 0v-84.2h-84.2v84.2h84.2z" fill="#595e62"/><path d="M330.5 214.5h84.2v84.2h-84.2v-84.2z" fill="#00b1d1"/><path d="M345.9 214.5h-15.3v84.2h84.2v-15.4c-32.9-10.2-58.6-36-68.9-68.8h0z" fill="#037286"/><path d="M330.5 298.7v-84.2h42.1v-14.1H320c-1.9 0-3.5 1.6-3.5 3.5v105.3c0 1.9 1.6 3.5 3.5 3.5h52.7v-14h-42.2z" fill="#44494c"/><path d="M348.1 225.9h49.1v5.3h-49.1v-5.3zm0 24.6h49.1v5.3h-49.1v-5.3zm0-12.3h8.8v5.3h-8.8v-5.3zm0 43.9h8.8v5.3h-8.8v-5.3zm14 0h8.8v5.3h-8.8v-5.3zm24.6 0h8.8v5.3h-8.8v-5.3zm-19.3-43.9h29.8v5.3h-29.8v-5.3z" fill="#fff"/><path d="M327.9 301.4h89.5v-89.5h-89.5v89.5zm5.2-84.3h79v79h-79v-79zM456 231.2v-19.3h-24.6V204c0-3.4-2.8-6.1-6.1-6.1h-7.9V175h-19.3v22.8h-15.8V175H363v22.8h-15.8V175h-19.3v22.8H320c-3.4 0-6.1 2.8-6.1 6.1v7.9h-24.6v19.3h24.6V247h-24.6v19.3h24.6v15.8h-24.6v19.3h24.6v7.9c0 3.4 2.8 6.1 6.1 6.1h7.9v22.8h19.3v-22.8H363v22.8h19.3v-22.8h15.8v22.8h19.3v-22.8h7.9c3.4 0 6.1-2.8 6.1-6.1v-7.9H456V282h-24.6v-15.8H456v-19.3h-24.6v-15.8l24.6.1zm-24.6-14.1h5.3v8.8h-5.3v-8.8zm19.3 8.8H442v-8.8h8.8l-.1 8.8zm-47.3-33.3h8.8v5.3h-8.8v-5.3zm8.7-12.3v7h-8.8v-7h8.8zm-43.9 12.3h8.8v5.3h-8.8v-5.3zm8.8-12.3v7h-8.8v-7h8.8zm-43.9 12.3h8.8v5.3h-8.8v-5.3zm8.8-12.3v7h-8.8v-7h8.8zm-28.1 45.6h-5.3v-8.8h5.3v8.8zm-19.3-8.8h8.8v8.8h-8.8v-8.8zm19.3 43.9h-5.3v-8.8h5.3v8.8zm-19.3-8.8h8.8v8.8h-8.8v-8.8zm19.3 43.9h-5.3v-8.8h5.3v8.8zm-19.3-8.8h8.8v8.8h-8.8v-8.8zm47.4 33.4h-8.8v-5.3h8.8v5.3zm-8.8 12.3v-7h8.8v7h-8.8zm43.9-12.3h-8.8v-5.3h8.8v5.3zm-8.8 12.3v-7h8.8v7h-8.8zm43.9-12.3h-8.8v-5.3h8.8v5.3zm-8.8 12.3v-7h8.8v7h-8.8zm28.1-45.7h5.3v8.8h-5.3v-8.8zm19.3 8.8H442v-8.8h8.8l-.1 8.8zm-19.3-43.9h5.3v8.8h-5.3v-8.8zm19.3 8.8H442v-8.8h8.8l-.1 8.8zm-24.5 48.3c0 .5-.4.9-.9.9H320c-.5 0-.9-.4-.9-.9V204c0-.5.4-.9.9-.9h105.3c.5 0 .9.4.9.9v105.3z"/><path d="M45.8,222.3l66.4-5.5v80.6l-66.4-5.5V222.3z" fill="#03232e"/><g fill="#07485e"><path d="M167.7 222.3V292l-61 5.5v-80.6l61 5.4z"/><path d="M37.1 187.4h69.6l5.4 17.5-5.4 17.5H37.1v-35zm0 87.3v-34.9h69.6l5.4 17.5-5.4 17.5H37.1zm0 52.3v-34.9h69.6l5.4 17.5-5.4 17.5H37.1z"/></g><path d="M176.4 187.4h-69.6v34.9h69.6v-34.9zm0 52.3h-69.6v34.9h69.6v-34.9zm0 52.4h-69.6V327h69.6v-34.9z" fill="#0b799d"/><path d="M87.7 200.8H50.1v8.2h37.6v-8.2zm0 52.3H50.1v8.2h37.6v-8.2zm0 52.3H50.1v8.2h37.6v-8.2z" fill="#b4d2d7"/><use xlink:href="#B" fill="#ff6d6d"/><path d="M146 200.8h-8.7v8.2h8.7v-8.2z" fill="#ffd422"/><path d="M163.4 253.1h-8.7v8.2h8.7v-8.2z" fill="#00ff94"/><path d="M146 253.1h-8.7v8.2h8.7v-8.2z" fill="#ffd422"/><path d="M163.4 305.4h-8.7v8.2h8.7v-8.2z" fill="#00ff94"/><path d="M146 305.4h-8.7v8.2h8.7v-8.2z" fill="#ffd422"/><g transform="matrix(0 1 -1 0 265.766 95.771)"><path d="M150.6 49.8l10.7 10.7L172 49.8c-5.9-5.9-15.5-5.9-21.4 0zm-14.3-14.3l7.1 7.1a25.17 25.17 0 0 1 35.7 0l7.1-7.1c-13.7-13.8-36.1-13.8-49.9 0h0zM122 21.3l7.1 7.1c17.7-17.7 46.5-17.7 64.3 0l7.1-7.1C178.8-.4 143.7-.4 122 21.3z" fill="#0b799d"/></g></g></svg>