<svg xmlns="http://www.w3.org/2000/svg" width="1000" height="1000" xmlns:v="https://vecta.io/nano"><defs><clipPath id="A"><path d="M0 0h1000v1000H0z"/></clipPath></defs><g clip-path="url(#A)"><path fill="#fff" d="M0 0h1000v1000H0z"/><g fill="#292929" stroke="#707070"><rect width="688" height="676" rx="205" stroke="none" x="156" y="162"/><rect x="156.5" y="162.5" width="687" height="675" rx="204.5" fill="none" stroke-linejoin="round"/></g><g fill-rule="evenodd"><path d="M617.808 337.148c-52.826-24.183-108.594-34.67-166.776-21.778-114.056 24.996-192.034 97.963-262.473 183.843 52.827 68.128 113.62 124.165 191.2 161.253 75.476 35.884 152.62 39.5 230.18 5.656 80.5-35.072 142.974-90.3 195.8-156.832 2.524-3.218 4.507-6.848 7.122-10.488-53.24-67.717-114.88-124.97-194.94-161.654z" fill="#fff"/><g fill="#2b4390"><path d="M501.636 372.24c-71.357-.4-130.233 56.84-131.024 127.8-.813 72.57 56.84 131.836 128.608 132.237 72.16.4 131.425-57.662 131.425-129.41s-57.66-130.238-129.01-130.628zM484.3 565.748h-47.163v-47.163h47.174v47.163zm0-79.83h-47.163v-47.152h47.174v47.174zm79.808 79.83h-47.174v-47.163h47.174zm0-79.83h-47.174v-47.564h47.174z"/></g></g><circle cx="500" cy="500" r="106" fill="#2b4390"/><g opacity=".52"><path d="M915.184 872.25l-223.48-223.477c33.548-42.554 51.723-95.2 51.57-149.39 0-133.43-108.055-241.9-241.9-241.9-64.18-.082-125.755 25.378-171.136 70.76s-70.84 106.96-70.754 171.14c0 133.43 108.055 241.9 241.9 241.9a240.14 240.14 0 0 0 132.2-39.3l225.93 225.93zm-413.4-209.152c-90.42-.003-163.717-73.304-163.714-163.724s73.304-163.717 163.724-163.714 163.717 73.304 163.714 163.724c.01 43.425-17.236 85.074-47.943 115.78s-72.357 47.95-115.78 47.935z" fill="#1268fb"/></g></g></svg>