<svg xmlns="http://www.w3.org/2000/svg" width="500" height="270"><style><![CDATA[.B{stroke:none}.C{fill:none}.D{stroke:#707070}.E{fill:#707070}]]></style><defs><clipPath id="A"><path d="M0 0h500v270H0z"/></clipPath></defs><g clip-path="url(#A)"><path d="M0 0h500v30H0zm0 240h500v30H0z"/><text fill="#fff" font-size="20" font-family="SegoeUI-Bold, Segoe UI" font-weight="700"><tspan x="10" y="22">Gridlock Pathfinder</tspan></text><rect width="62" height="13" rx="6.5" fill="#007ad6" x="418" y="9"/><g fill="#fff"><path d="M380 9h29v13h-29zm-38 0h29v13h-29z"/></g><g class="D"><g class="E"><path d="M102 66h19v19h-19z" class="B"/><path d="M102.5 66.5h18v18h-18z" class="C"/></g><g fill="#008820"><path d="M127 66h19v19h-19z" class="B"/><path d="M127.5 66.5h18v18h-18z" class="C"/></g></g><path fill="#ff0007" d="M153 66h18v19h-18z"/><g fill="red"><path d="M178 66h19v19h-19zm24 0h20v19h-20zm26 0h19v19h-19z"/></g><g class="D E"><path d="M253 66h20v19h-20z" class="B"/><path d="M253.5 66.5h19v18h-19z" class="C"/><path d="M278 66h20v19h-20z" class="B"/><path d="M278.5 66.5h19v18h-19z" class="C"/><path d="M303 66h19v19h-19z" class="B"/><path d="M303.5 66.5h18v18h-18z" class="C"/><path d="M329 66h19v19h-19z" class="B"/><path d="M329.5 66.5h18v18h-18z" class="C"/><path d="M354 66h19v19h-19z" class="B"/><path d="M354.5 66.5h18v18h-18z" class="C"/><path d="M379 66h19v19h-19z" class="B"/><path d="M379.5 66.5h18v18h-18z" class="C"/><path d="M102 90h19v19h-19z" class="B"/><path d="M102.5 90.5h18v18h-18z" class="C"/><path d="M127 90h19v19h-19z" class="B"/><path d="M127.5 90.5h18v18h-18z" class="C"/><path d="M153 90h18v19h-18z" class="B"/><path d="M153.5 90.5h17v18h-17z" class="C"/><path d="M178 90h19v19h-19z" class="B"/><path d="M178.5 90.5h18v18h-18z" class="C"/><path d="M202 90h20v19h-20z" class="B"/><path d="M202.5 90.5h19v18h-19z" class="C"/><path d="M228 90h19v19h-19z" class="B"/><path d="M228.5 90.5h18v18h-18z" class="C"/></g><path fill="red" d="M253 90h20v19h-20z"/><g class="D E"><path d="M278 90h20v19h-20z" class="B"/><path d="M278.5 90.5h19v18h-19z" class="C"/><path d="M303 90h19v19h-19z" class="B"/><path d="M303.5 90.5h18v18h-18z" class="C"/><path d="M329 90h19v19h-19z" class="B"/><path d="M329.5 90.5h18v18h-18z" class="C"/><path d="M354 90h19v19h-19z" class="B"/><path d="M354.5 90.5h18v18h-18z" class="C"/><path d="M379 90h19v19h-19z" class="B"/><path d="M379.5 90.5h18v18h-18z" class="C"/><path d="M102 114h19v19h-19z" class="B"/><path d="M102.5 114.5h18v18h-18z" class="C"/><path d="M127 114h19v19h-19z" class="B"/><path d="M127.5 114.5h18v18h-18z" class="C"/><path d="M153 114h18v19h-18z" class="B"/><path d="M153.5 114.5h17v18h-17z" class="C"/><path d="M178 114h19v19h-19z" class="B"/><path d="M178.5 114.5h18v18h-18z" class="C"/><path d="M202 114h20v19h-20z" class="B"/><path d="M202.5 114.5h19v18h-19z" class="C"/><path d="M228 114h19v19h-19z" class="B"/><path d="M228.5 114.5h18v18h-18z" class="C"/><path d="M253 114h20v19h-20z" class="B"/><path d="M253.5 114.5h19v18h-19z" class="C"/></g><path fill="red" d="M278 114h20v19h-20z"/><g class="D E"><path d="M303 114h19v19h-19z" class="B"/><path d="M303.5 114.5h18v18h-18z" class="C"/><path d="M329 114h19v19h-19z" class="B"/><path d="M329.5 114.5h18v18h-18z" class="C"/><path d="M354 114h19v19h-19z" class="B"/><path d="M354.5 114.5h18v18h-18z" class="C"/><path d="M379 114h19v19h-19z" class="B"/><path d="M379.5 114.5h18v18h-18z" class="C"/><path d="M102 138h19v20h-19z" class="B"/><path d="M102.5 138.5h18v19h-18z" class="C"/><path d="M127 138h19v20h-19z" class="B"/><path d="M127.5 138.5h18v19h-18z" class="C"/><path d="M153 138h18v20h-18z" class="B"/><path d="M153.5 138.5h17v19h-17z" class="C"/><path d="M178 138h19v20h-19z" class="B"/><path d="M178.5 138.5h18v19h-18z" class="C"/><path d="M202 138h20v20h-20z" class="B"/><path d="M202.5 138.5h19v19h-19z" class="C"/><path d="M228 138h19v20h-19z" class="B"/><path d="M228.5 138.5h18v19h-18z" class="C"/><path d="M253 138h20v20h-20z" class="B"/><path d="M253.5 138.5h19v19h-19z" class="C"/><path d="M278 138h20v20h-20z" class="B"/><path d="M278.5 138.5h19v19h-19z" class="C"/></g><path fill="red" d="M303 138h19v20h-19z"/><g class="D E"><path d="M329 138h19v20h-19z" class="B"/><path d="M329.5 138.5h18v19h-18z" class="C"/><path d="M354 138h19v20h-19z" class="B"/><path d="M354.5 138.5h18v19h-18z" class="C"/><path d="M379 138h19v20h-19z" class="B"/><path d="M379.5 138.5h18v19h-18z" class="C"/><path d="M102 162h19v19h-19z" class="B"/><path d="M102.5 162.5h18v18h-18z" class="C"/><path d="M127 162h19v19h-19z" class="B"/><path d="M127.5 162.5h18v18h-18z" class="C"/><path d="M153 162h18v19h-18z" class="B"/><path d="M153.5 162.5h17v18h-17z" class="C"/><path d="M178 162h19v19h-19z" class="B"/><path d="M178.5 162.5h18v18h-18z" class="C"/><path d="M202 162h20v19h-20z" class="B"/><path d="M202.5 162.5h19v18h-19z" class="C"/><path d="M228 162h19v19h-19z" class="B"/><path d="M228.5 162.5h18v18h-18z" class="C"/><path d="M253 162h20v19h-20z" class="B"/><path d="M253.5 162.5h19v18h-19z" class="C"/><path d="M278 162h20v19h-20z" class="B"/><path d="M278.5 162.5h19v18h-19z" class="C"/><path d="M303 162h19v19h-19z" class="B"/><path d="M303.5 162.5h18v18h-18z" class="C"/></g><path fill="red" d="M329 162h19v19h-19z"/><g class="D E"><path d="M354 162h19v19h-19z" class="B"/><path d="M354.5 162.5h18v18h-18z" class="C"/><path d="M379 162h19v19h-19z" class="B"/><path d="M379.5 162.5h18v18h-18z" class="C"/><path d="M102 186h19v19h-19z" class="B"/><path d="M102.5 186.5h18v18h-18z" class="C"/><path d="M127 186h19v19h-19z" class="B"/><path d="M127.5 186.5h18v18h-18z" class="C"/><path d="M153 186h18v19h-18z" class="B"/><path d="M153.5 186.5h17v18h-17z" class="C"/><path d="M178 186h19v19h-19z" class="B"/><path d="M178.5 186.5h18v18h-18z" class="C"/><path d="M202 186h20v19h-20z" class="B"/><path d="M202.5 186.5h19v18h-19z" class="C"/><path d="M228 186h19v19h-19z" class="B"/><path d="M228.5 186.5h18v18h-18z" class="C"/><path d="M253 186h20v19h-20z" class="B"/><path d="M253.5 186.5h19v18h-19z" class="C"/><path d="M278 186h20v19h-20z" class="B"/><path d="M278.5 186.5h19v18h-19z" class="C"/><path d="M303 186h19v19h-19z" class="B"/><path d="M303.5 186.5h18v18h-18z" class="C"/><path d="M329 186h19v19h-19z" class="B"/><path d="M329.5 186.5h18v18h-18z" class="C"/></g><path fill="#ffa000" d="M354 186h19v19h-19z"/><g class="D E"><path d="M379 186h19v19h-19z" class="B"/><path d="M379.5 186.5h18v18h-18z" class="C"/></g><g fill="#007ad6"><rect width="62" height="13" rx="6.5" x="94" y="247"/><rect width="62" height="13" rx="6.5" x="176" y="247"/><rect width="62" height="13" rx="6.5" x="258" y="247"/></g><rect width="62" height="13" rx="6.5" fill="red" x="340" y="247"/></g></svg>