<svg xmlns="http://www.w3.org/2000/svg" width="500" height="270"><style><![CDATA[.F{stroke:none}.G{fill:none}.H{fill:#707070}.I{stroke:#707070}.J{font-family:SegoeUI-Bold,Segoe UI}]]></style><defs><clipPath id="A"><path d="M0 0h500v270H0z"/></clipPath></defs><g clip-path="url(#A)"><path fill="#fff" d="M0 0h500v270H0z"/><path d="M0 0h500v30H0zm0 240h500v30H0z"/><text fill="#fff" font-size="20" font-weight="700" class="J"><tspan x="10" y="22">Gridlock Pathfinder</tspan></text><rect width="62" height="13" rx="6.5" fill="#007ad6" x="418" y="9"/><g fill="#fff"><path d="M380 9h29v13h-29zm-38 0h29v13h-29z"/></g><text font-size="10" font-weight="700" class="J"><tspan x="353" y="19">X</tspan><tspan x="392" y="19">Y</tspan></text><g class="H I"><path d="M10 39h16v16H10z" class="F"/><path d="M10.5 39.5h15v15h-15z" class="G"/><path d="M31 39h16v16H31z" class="F"/><path d="M31.5 39.5h15v15h-15z" class="G"/><path d="M52 39h16v16H52z" class="F"/><path d="M52.5 39.5h15v15h-15z" class="G"/><path d="M73 39h16v16H73z" class="F"/><path d="M73.5 39.5h15v15h-15z" class="G"/><path d="M94 39h16v16H94z" class="F"/><path d="M94.5 39.5h15v15h-15z" class="G"/><path d="M115 39h16v16h-16z" class="F"/><path d="M115.5 39.5h15v15h-15z" class="G"/><path d="M136 39h16v16h-16z" class="F"/><path d="M136.5 39.5h15v15h-15z" class="G"/><path d="M157 39h16v16h-16z" class="F"/><path d="M157.5 39.5h15v15h-15z" class="G"/><path d="M178 39h16v16h-16z" class="F"/><path d="M178.5 39.5h15v15h-15z" class="G"/><path d="M199 39h16v16h-16z" class="F"/><path d="M199.5 39.5h15v15h-15z" class="G"/><path d="M220 39h16v16h-16z" class="F"/><path d="M220.5 39.5h15v15h-15z" class="G"/><path d="M241 39h16v16h-16z" class="F"/><path d="M241.5 39.5h15v15h-15z" class="G"/><path d="M262 39h16v16h-16z" class="F"/><path d="M262.5 39.5h15v15h-15z" class="G"/><path d="M283 39h16v16h-16z" class="F"/><path d="M283.5 39.5h15v15h-15z" class="G"/><path d="M304 39h16v16h-16z" class="F"/><path d="M304.5 39.5h15v15h-15z" class="G"/><path d="M325 39h16v16h-16z" class="F"/><path d="M325.5 39.5h15v15h-15z" class="G"/><path d="M346 39h16v16h-16z" class="F"/><path d="M346.5 39.5h15v15h-15z" class="G"/><path d="M367 39h16v16h-16z" class="F"/><path d="M367.5 39.5h15v15h-15z" class="G"/><path d="M388 39h16v16h-16z" class="F"/><path d="M388.5 39.5h15v15h-15z" class="G"/><path d="M409 39h16v16h-16z" class="F"/><path d="M409.5 39.5h15v15h-15z" class="G"/><path d="M430 39h16v16h-16z" class="F"/><path d="M430.5 39.5h15v15h-15z" class="G"/><path d="M451 39h16v16h-16z" class="F"/><path d="M451.5 39.5h15v15h-15z" class="G"/><path d="M472 39h16v16h-16z" class="F"/><path d="M472.5 39.5h15v15h-15z" class="G"/><path d="M10 59h16v16H10z" class="F"/><path d="M10.5 59.5h15v15h-15z" class="G"/><path d="M31 59h16v16H31z" class="F"/><path d="M31.5 59.5h15v15h-15z" class="G"/><path d="M52 59h16v16H52z" class="F"/><path d="M52.5 59.5h15v15h-15z" class="G"/><path d="M73 59h16v16H73z" class="F"/><path d="M73.5 59.5h15v15h-15z" class="G"/></g><path fill="#008820" d="M94 59h16v16H94z"/><g fill="red"><path d="M115 59h16v16h-16zm21 0h16v16h-16zm21 0h16v16h-16zm21 0h16v16h-16zm21 0h16v16h-16z"/></g><g class="H I"><path d="M220 59h16v16h-16z" class="F"/><path d="M220.5 59.5h15v15h-15z" class="G"/><path d="M241 59h16v16h-16z" class="F"/><path d="M241.5 59.5h15v15h-15z" class="G"/><path d="M262 59h16v16h-16z" class="F"/><path d="M262.5 59.5h15v15h-15z" class="G"/><path d="M283 59h16v16h-16z" class="F"/><path d="M283.5 59.5h15v15h-15z" class="G"/><path d="M304 59h16v16h-16z" class="F"/><path d="M304.5 59.5h15v15h-15z" class="G"/><path d="M325 59h16v16h-16z" class="F"/><path d="M325.5 59.5h15v15h-15z" class="G"/><path d="M346 59h16v16h-16z" class="F"/><path d="M346.5 59.5h15v15h-15z" class="G"/><path d="M367 59h16v16h-16z" class="F"/><path d="M367.5 59.5h15v15h-15z" class="G"/><path d="M388 59h16v16h-16z" class="F"/><path d="M388.5 59.5h15v15h-15z" class="G"/><path d="M409 59h16v16h-16z" class="F"/><path d="M409.5 59.5h15v15h-15z" class="G"/><path d="M430 59h16v16h-16z" class="F"/><path d="M430.5 59.5h15v15h-15z" class="G"/><path d="M451 59h16v16h-16z" class="F"/><path d="M451.5 59.5h15v15h-15z" class="G"/><path d="M472 59h16v16h-16z" class="F"/><path d="M472.5 59.5h15v15h-15z" class="G"/><path d="M10 79h16v16H10z" class="F"/><path d="M10.5 79.5h15v15h-15z" class="G"/><path d="M31 79h16v16H31z" class="F"/><path d="M31.5 79.5h15v15h-15z" class="G"/><path d="M52 79h16v16H52z" class="F"/><path d="M52.5 79.5h15v15h-15z" class="G"/><path d="M73 79h16v16H73z" class="F"/><path d="M73.5 79.5h15v15h-15z" class="G"/><path d="M94 79h16v16H94z" class="F"/><path d="M94.5 79.5h15v15h-15z" class="G"/><path d="M115 79h16v16h-16z" class="F"/><path d="M115.5 79.5h15v15h-15z" class="G"/><path d="M136 79h16v16h-16z" class="F"/><path d="M136.5 79.5h15v15h-15z" class="G"/><path d="M157 79h16v16h-16z" class="F"/><path d="M157.5 79.5h15v15h-15z" class="G"/><path d="M178 79h16v16h-16z" class="F"/><path d="M178.5 79.5h15v15h-15z" class="G"/><path d="M199 79h16v16h-16z" class="F"/><path d="M199.5 79.5h15v15h-15z" class="G"/></g><path fill="red" d="M220 79h16v16h-16z"/><g class="H I"><path d="M241 79h16v16h-16z" class="F"/><path d="M241.5 79.5h15v15h-15z" class="G"/><path d="M262 79h16v16h-16z" class="F"/><path d="M262.5 79.5h15v15h-15z" class="G"/><path d="M283 79h16v16h-16z" class="F"/><path d="M283.5 79.5h15v15h-15z" class="G"/><path d="M304 79h16v16h-16z" class="F"/><path d="M304.5 79.5h15v15h-15z" class="G"/><path d="M325 79h16v16h-16z" class="F"/><path d="M325.5 79.5h15v15h-15z" class="G"/><path d="M346 79h16v16h-16z" class="F"/><path d="M346.5 79.5h15v15h-15z" class="G"/><path d="M367 79h16v16h-16z" class="F"/><path d="M367.5 79.5h15v15h-15z" class="G"/><path d="M388 79h16v16h-16z" class="F"/><path d="M388.5 79.5h15v15h-15z" class="G"/><path d="M409 79h16v16h-16z" class="F"/><path d="M409.5 79.5h15v15h-15z" class="G"/><path d="M430 79h16v16h-16z" class="F"/><path d="M430.5 79.5h15v15h-15z" class="G"/><path d="M451 79h16v16h-16z" class="F"/><path d="M451.5 79.5h15v15h-15z" class="G"/><path d="M472 79h16v16h-16z" class="F"/><path d="M472.5 79.5h15v15h-15z" class="G"/><path d="M10 99h16v16H10z" class="F"/><path d="M10.5 99.5h15v15h-15z" class="G"/><path d="M31 99h16v16H31z" class="F"/><path d="M31.5 99.5h15v15h-15z" class="G"/><path d="M52 99h16v16H52z" class="F"/><path d="M52.5 99.5h15v15h-15z" class="G"/><path d="M73 99h16v16H73z" class="F"/><path d="M73.5 99.5h15v15h-15z" class="G"/><path d="M94 99h16v16H94z" class="F"/><path d="M94.5 99.5h15v15h-15z" class="G"/><path d="M115 99h16v16h-16z" class="F"/><path d="M115.5 99.5h15v15h-15z" class="G"/><path d="M136 99h16v16h-16z" class="F"/><path d="M136.5 99.5h15v15h-15z" class="G"/><path d="M157 99h16v16h-16z" class="F"/><path d="M157.5 99.5h15v15h-15z" class="G"/><path d="M178 99h16v16h-16z" class="F"/><path d="M178.5 99.5h15v15h-15z" class="G"/><path d="M199 99h16v16h-16z" class="F"/><path d="M199.5 99.5h15v15h-15z" class="G"/><path d="M220 99h16v16h-16z" class="F"/><path d="M220.5 99.5h15v15h-15z" class="G"/></g><path fill="red" d="M241 99h16v16h-16z"/><g class="H I"><path d="M262 99h16v16h-16z" class="F"/><path d="M262.5 99.5h15v15h-15z" class="G"/><path d="M283 99h16v16h-16z" class="F"/><path d="M283.5 99.5h15v15h-15z" class="G"/><path d="M304 99h16v16h-16z" class="F"/><path d="M304.5 99.5h15v15h-15z" class="G"/><path d="M325 99h16v16h-16z" class="F"/><path d="M325.5 99.5h15v15h-15z" class="G"/><path d="M346 99h16v16h-16z" class="F"/><path d="M346.5 99.5h15v15h-15z" class="G"/><path d="M367 99h16v16h-16z" class="F"/><path d="M367.5 99.5h15v15h-15z" class="G"/><path d="M388 99h16v16h-16z" class="F"/><path d="M388.5 99.5h15v15h-15z" class="G"/><path d="M409 99h16v16h-16z" class="F"/><path d="M409.5 99.5h15v15h-15z" class="G"/><path d="M430 99h16v16h-16z" class="F"/><path d="M430.5 99.5h15v15h-15z" class="G"/><path d="M451 99h16v16h-16z" class="F"/><path d="M451.5 99.5h15v15h-15z" class="G"/><path d="M472 99h16v16h-16z" class="F"/><path d="M472.5 99.5h15v15h-15z" class="G"/><path d="M10 119h16v16H10z" class="F"/><path d="M10.5 119.5h15v15h-15z" class="G"/><path d="M31 119h16v16H31z" class="F"/><path d="M31.5 119.5h15v15h-15z" class="G"/><path d="M52 119h16v16H52z" class="F"/><path d="M52.5 119.5h15v15h-15z" class="G"/><path d="M73 119h16v16H73z" class="F"/><path d="M73.5 119.5h15v15h-15z" class="G"/><path d="M94 119h16v16H94z" class="F"/><path d="M94.5 119.5h15v15h-15z" class="G"/><path d="M115 119h16v16h-16z" class="F"/><path d="M115.5 119.5h15v15h-15z" class="G"/><path d="M136 119h16v16h-16z" class="F"/><path d="M136.5 119.5h15v15h-15z" class="G"/><path d="M157 119h16v16h-16z" class="F"/><path d="M157.5 119.5h15v15h-15z" class="G"/><path d="M178 119h16v16h-16z" class="F"/><path d="M178.5 119.5h15v15h-15z" class="G"/><path d="M199 119h16v16h-16z" class="F"/><path d="M199.5 119.5h15v15h-15z" class="G"/><path d="M220 119h16v16h-16z" class="F"/><path d="M220.5 119.5h15v15h-15z" class="G"/><path d="M241 119h16v16h-16z" class="F"/><path d="M241.5 119.5h15v15h-15z" class="G"/></g><path fill="red" d="M262 119h16v16h-16z"/><g class="H I"><path d="M283 119h16v16h-16z" class="F"/><path d="M283.5 119.5h15v15h-15z" class="G"/><path d="M304 119h16v16h-16z" class="F"/><path d="M304.5 119.5h15v15h-15z" class="G"/><path d="M325 119h16v16h-16z" class="F"/><path d="M325.5 119.5h15v15h-15z" class="G"/><path d="M346 119h16v16h-16z" class="F"/><path d="M346.5 119.5h15v15h-15z" class="G"/><path d="M367 119h16v16h-16z" class="F"/><path d="M367.5 119.5h15v15h-15z" class="G"/><path d="M388 119h16v16h-16z" class="F"/><path d="M388.5 119.5h15v15h-15z" class="G"/><path d="M409 119h16v16h-16z" class="F"/><path d="M409.5 119.5h15v15h-15z" class="G"/><path d="M430 119h16v16h-16z" class="F"/><path d="M430.5 119.5h15v15h-15z" class="G"/><path d="M451 119h16v16h-16z" class="F"/><path d="M451.5 119.5h15v15h-15z" class="G"/><path d="M472 119h16v16h-16z" class="F"/><path d="M472.5 119.5h15v15h-15z" class="G"/><path d="M10 139h16v16H10z" class="F"/><path d="M10.5 139.5h15v15h-15z" class="G"/><path d="M31 139h16v16H31z" class="F"/><path d="M31.5 139.5h15v15h-15z" class="G"/><path d="M52 139h16v16H52z" class="F"/><path d="M52.5 139.5h15v15h-15z" class="G"/><path d="M73 139h16v16H73z" class="F"/><path d="M73.5 139.5h15v15h-15z" class="G"/><path d="M94 139h16v16H94z" class="F"/><path d="M94.5 139.5h15v15h-15z" class="G"/><path d="M115 139h16v16h-16z" class="F"/><path d="M115.5 139.5h15v15h-15z" class="G"/><path d="M136 139h16v16h-16z" class="F"/><path d="M136.5 139.5h15v15h-15z" class="G"/><path d="M157 139h16v16h-16z" class="F"/><path d="M157.5 139.5h15v15h-15z" class="G"/><path d="M178 139h16v16h-16z" class="F"/><path d="M178.5 139.5h15v15h-15z" class="G"/><path d="M199 139h16v16h-16z" class="F"/><path d="M199.5 139.5h15v15h-15z" class="G"/><path d="M220 139h16v16h-16z" class="F"/><path d="M220.5 139.5h15v15h-15z" class="G"/><path d="M241 139h16v16h-16z" class="F"/><path d="M241.5 139.5h15v15h-15z" class="G"/><path d="M262 139h16v16h-16z" class="F"/><path d="M262.5 139.5h15v15h-15z" class="G"/></g><path fill="red" d="M283 139h16v16h-16z"/><g class="H I"><path d="M304 139h16v16h-16z" class="F"/><path d="M304.5 139.5h15v15h-15z" class="G"/><path d="M325 139h16v16h-16z" class="F"/><path d="M325.5 139.5h15v15h-15z" class="G"/><path d="M346 139h16v16h-16z" class="F"/><path d="M346.5 139.5h15v15h-15z" class="G"/><path d="M367 139h16v16h-16z" class="F"/><path d="M367.5 139.5h15v15h-15z" class="G"/><path d="M388 139h16v16h-16z" class="F"/><path d="M388.5 139.5h15v15h-15z" class="G"/><path d="M409 139h16v16h-16z" class="F"/><path d="M409.5 139.5h15v15h-15z" class="G"/><path d="M430 139h16v16h-16z" class="F"/><path d="M430.5 139.5h15v15h-15z" class="G"/><path d="M451 139h16v16h-16z" class="F"/><path d="M451.5 139.5h15v15h-15z" class="G"/><path d="M472 139h16v16h-16z" class="F"/><path d="M472.5 139.5h15v15h-15z" class="G"/><path d="M10 159h16v16H10z" class="F"/><path d="M10.5 159.5h15v15h-15z" class="G"/><path d="M31 159h16v16H31z" class="F"/><path d="M31.5 159.5h15v15h-15z" class="G"/><path d="M52 159h16v16H52z" class="F"/><path d="M52.5 159.5h15v15h-15z" class="G"/><path d="M73 159h16v16H73z" class="F"/><path d="M73.5 159.5h15v15h-15z" class="G"/><path d="M94 159h16v16H94z" class="F"/><path d="M94.5 159.5h15v15h-15z" class="G"/><path d="M115 159h16v16h-16z" class="F"/><path d="M115.5 159.5h15v15h-15z" class="G"/><path d="M136 159h16v16h-16z" class="F"/><path d="M136.5 159.5h15v15h-15z" class="G"/><path d="M157 159h16v16h-16z" class="F"/><path d="M157.5 159.5h15v15h-15z" class="G"/><path d="M178 159h16v16h-16z" class="F"/><path d="M178.5 159.5h15v15h-15z" class="G"/><path d="M199 159h16v16h-16z" class="F"/><path d="M199.5 159.5h15v15h-15z" class="G"/><path d="M220 159h16v16h-16z" class="F"/><path d="M220.5 159.5h15v15h-15z" class="G"/><path d="M241 159h16v16h-16z" class="F"/><path d="M241.5 159.5h15v15h-15z" class="G"/><path d="M262 159h16v16h-16z" class="F"/><path d="M262.5 159.5h15v15h-15z" class="G"/><path d="M283 159h16v16h-16z" class="F"/><path d="M283.5 159.5h15v15h-15z" class="G"/></g><path fill="red" d="M304 159h16v16h-16z"/><g class="H I"><path d="M325 159h16v16h-16z" class="F"/><path d="M325.5 159.5h15v15h-15z" class="G"/><path d="M346 159h16v16h-16z" class="F"/><path d="M346.5 159.5h15v15h-15z" class="G"/><path d="M367 159h16v16h-16z" class="F"/><path d="M367.5 159.5h15v15h-15z" class="G"/><path d="M388 159h16v16h-16z" class="F"/><path d="M388.5 159.5h15v15h-15z" class="G"/><path d="M409 159h16v16h-16z" class="F"/><path d="M409.5 159.5h15v15h-15z" class="G"/><path d="M430 159h16v16h-16z" class="F"/><path d="M430.5 159.5h15v15h-15z" class="G"/><path d="M451 159h16v16h-16z" class="F"/><path d="M451.5 159.5h15v15h-15z" class="G"/><path d="M472 159h16v16h-16z" class="F"/><path d="M472.5 159.5h15v15h-15z" class="G"/><path d="M10 179h16v16H10z" class="F"/><path d="M10.5 179.5h15v15h-15z" class="G"/><path d="M31 179h16v16H31z" class="F"/><path d="M31.5 179.5h15v15h-15z" class="G"/><path d="M52 179h16v16H52z" class="F"/><path d="M52.5 179.5h15v15h-15z" class="G"/><path d="M73 179h16v16H73z" class="F"/><path d="M73.5 179.5h15v15h-15z" class="G"/><path d="M94 179h16v16H94z" class="F"/><path d="M94.5 179.5h15v15h-15z" class="G"/><path d="M115 179h16v16h-16z" class="F"/><path d="M115.5 179.5h15v15h-15z" class="G"/><path d="M136 179h16v16h-16z" class="F"/><path d="M136.5 179.5h15v15h-15z" class="G"/><path d="M157 179h16v16h-16z" class="F"/><path d="M157.5 179.5h15v15h-15z" class="G"/><path d="M178 179h16v16h-16z" class="F"/><path d="M178.5 179.5h15v15h-15z" class="G"/><path d="M199 179h16v16h-16z" class="F"/><path d="M199.5 179.5h15v15h-15z" class="G"/><path d="M220 179h16v16h-16z" class="F"/><path d="M220.5 179.5h15v15h-15z" class="G"/><path d="M241 179h16v16h-16z" class="F"/><path d="M241.5 179.5h15v15h-15z" class="G"/><path d="M262 179h16v16h-16z" class="F"/><path d="M262.5 179.5h15v15h-15z" class="G"/><path d="M283 179h16v16h-16z" class="F"/><path d="M283.5 179.5h15v15h-15z" class="G"/><path d="M304 179h16v16h-16z" class="F"/><path d="M304.5 179.5h15v15h-15z" class="G"/></g><path fill="red" d="M325 179h16v16h-16z"/><g class="H I"><path d="M346 179h16v16h-16z" class="F"/><path d="M346.5 179.5h15v15h-15z" class="G"/><path d="M367 179h16v16h-16z" class="F"/><path d="M367.5 179.5h15v15h-15z" class="G"/><path d="M388 179h16v16h-16z" class="F"/><path d="M388.5 179.5h15v15h-15z" class="G"/><path d="M409 179h16v16h-16z" class="F"/><path d="M409.5 179.5h15v15h-15z" class="G"/><path d="M430 179h16v16h-16z" class="F"/><path d="M430.5 179.5h15v15h-15z" class="G"/><path d="M451 179h16v16h-16z" class="F"/><path d="M451.5 179.5h15v15h-15z" class="G"/><path d="M472 179h16v16h-16z" class="F"/><path d="M472.5 179.5h15v15h-15z" class="G"/><path d="M10 199h16v16H10z" class="F"/><path d="M10.5 199.5h15v15h-15z" class="G"/><path d="M31 199h16v16H31z" class="F"/><path d="M31.5 199.5h15v15h-15z" class="G"/><path d="M52 199h16v16H52z" class="F"/><path d="M52.5 199.5h15v15h-15z" class="G"/><path d="M73 199h16v16H73z" class="F"/><path d="M73.5 199.5h15v15h-15z" class="G"/><path d="M94 199h16v16H94z" class="F"/><path d="M94.5 199.5h15v15h-15z" class="G"/><path d="M115 199h16v16h-16z" class="F"/><path d="M115.5 199.5h15v15h-15z" class="G"/><path d="M136 199h16v16h-16z" class="F"/><path d="M136.5 199.5h15v15h-15z" class="G"/><path d="M157 199h16v16h-16z" class="F"/><path d="M157.5 199.5h15v15h-15z" class="G"/><path d="M178 199h16v16h-16z" class="F"/><path d="M178.5 199.5h15v15h-15z" class="G"/><path d="M199 199h16v16h-16z" class="F"/><path d="M199.5 199.5h15v15h-15z" class="G"/><path d="M220 199h16v16h-16z" class="F"/><path d="M220.5 199.5h15v15h-15z" class="G"/><path d="M241 199h16v16h-16z" class="F"/><path d="M241.5 199.5h15v15h-15z" class="G"/><path d="M262 199h16v16h-16z" class="F"/><path d="M262.5 199.5h15v15h-15z" class="G"/><path d="M283 199h16v16h-16z" class="F"/><path d="M283.5 199.5h15v15h-15z" class="G"/><path d="M304 199h16v16h-16z" class="F"/><path d="M304.5 199.5h15v15h-15z" class="G"/><path d="M325 199h16v16h-16z" class="F"/><path d="M325.5 199.5h15v15h-15z" class="G"/></g><path fill="#ffa000" d="M346 199h16v16h-16z"/><g class="H I"><path d="M367 199h16v16h-16z" class="F"/><path d="M367.5 199.5h15v15h-15z" class="G"/><path d="M388 199h16v16h-16z" class="F"/><path d="M388.5 199.5h15v15h-15z" class="G"/><path d="M409 199h16v16h-16z" class="F"/><path d="M409.5 199.5h15v15h-15z" class="G"/><path d="M430 199h16v16h-16z" class="F"/><path d="M430.5 199.5h15v15h-15z" class="G"/><path d="M451 199h16v16h-16z" class="F"/><path d="M451.5 199.5h15v15h-15z" class="G"/><path d="M472 199h16v16h-16z" class="F"/><path d="M472.5 199.5h15v15h-15z" class="G"/><path d="M10 219h16v16H10z" class="F"/><path d="M10.5 219.5h15v15h-15z" class="G"/><path d="M31 219h16v16H31z" class="F"/><path d="M31.5 219.5h15v15h-15z" class="G"/><path d="M52 219h16v16H52z" class="F"/><path d="M52.5 219.5h15v15h-15z" class="G"/><path d="M73 219h16v16H73z" class="F"/><path d="M73.5 219.5h15v15h-15z" class="G"/><path d="M94 219h16v16H94z" class="F"/><path d="M94.5 219.5h15v15h-15z" class="G"/><path d="M115 219h16v16h-16z" class="F"/><path d="M115.5 219.5h15v15h-15z" class="G"/><path d="M136 219h16v16h-16z" class="F"/><path d="M136.5 219.5h15v15h-15z" class="G"/><path d="M157 219h16v16h-16z" class="F"/><path d="M157.5 219.5h15v15h-15z" class="G"/><path d="M178 219h16v16h-16z" class="F"/><path d="M178.5 219.5h15v15h-15z" class="G"/><path d="M199 219h16v16h-16z" class="F"/><path d="M199.5 219.5h15v15h-15z" class="G"/><path d="M220 219h16v16h-16z" class="F"/><path d="M220.5 219.5h15v15h-15z" class="G"/><path d="M241 219h16v16h-16z" class="F"/><path d="M241.5 219.5h15v15h-15z" class="G"/><path d="M262 219h16v16h-16z" class="F"/><path d="M262.5 219.5h15v15h-15z" class="G"/><path d="M283 219h16v16h-16z" class="F"/><path d="M283.5 219.5h15v15h-15z" class="G"/><path d="M304 219h16v16h-16z" class="F"/><path d="M304.5 219.5h15v15h-15z" class="G"/><path d="M325 219h16v16h-16z" class="F"/><path d="M325.5 219.5h15v15h-15z" class="G"/><path d="M346 219h16v16h-16z" class="F"/><path d="M346.5 219.5h15v15h-15z" class="G"/><path d="M367 219h16v16h-16z" class="F"/><path d="M367.5 219.5h15v15h-15z" class="G"/><path d="M388 219h16v16h-16z" class="F"/><path d="M388.5 219.5h15v15h-15z" class="G"/><path d="M409 219h16v16h-16z" class="F"/><path d="M409.5 219.5h15v15h-15z" class="G"/><path d="M430 219h16v16h-16z" class="F"/><path d="M430.5 219.5h15v15h-15z" class="G"/><path d="M451 219h16v16h-16z" class="F"/><path d="M451.5 219.5h15v15h-15z" class="G"/><path d="M472 219h16v16h-16z" class="F"/><path d="M472.5 219.5h15v15h-15z" class="G"/></g><g fill="#007ad6"><rect width="62" height="13" rx="6.5" x="94" y="247"/><rect width="62" height="13" rx="6.5" x="176" y="247"/><rect width="62" height="13" rx="6.5" x="258" y="247"/></g><rect width="62" height="13" rx="6.5" fill="red" x="340" y="247"/></g></svg>