<svg xmlns="http://www.w3.org/2000/svg" width="1000" height="1000" xmlns:v="https://vecta.io/nano"><style><![CDATA[.B{stroke:none}.C{fill:none}.D{fill:#707070}.E{stroke:#707070}.F{font-family:Arial-BoldMT, Arial}]]></style><defs><clipPath id="A"><path d="M0 0h1000v1000H0z"/></clipPath></defs><g clip-path="url(#A)"><path fill="#fff" d="M0 0h1000v1000H0z"/><path fill="#008820" d="M135 151h115v115H135z"/><g class="D E"><path d="M292 151h110v115H292z" class="B"/><path d="M292.5 151.5h109v114h-109z" class="C"/><path d="M445 151h115v115H445z" class="B"/><path d="M445.5 151.5h114v114h-114z" class="C"/><path d="M590 151h122v115H590z" class="B"/><path d="M590.5 151.5h121v114h-121z" class="C"/><path d="M749 151h116v115H749z" class="B"/><path d="M749.5 151.5h115v114h-115z" class="C"/><path d="M135 296h115v116H135z" class="B"/><path d="M135.5 296.5h114v115h-114z" class="C"/></g><path fill="red" d="M292 296h110v116H292z"/><g class="D E"><path d="M445 296h115v116H445z" class="B"/><path d="M445.5 296.5h114v115h-114z" class="C"/><path d="M590 296h122v116H590z" class="B"/><path d="M590.5 296.5h121v115h-121z" class="C"/><path d="M749 296h116v116H749z" class="B"/><path d="M749.5 296.5h115v115h-115z" class="C"/><path d="M135 443h115v121H135z" class="B"/><path d="M135.5 443.5h114v120h-114z" class="C"/><path d="M292 443h110v121H292z" class="B"/><path d="M292.5 443.5h109v120h-109z" class="C"/></g><path fill="red" d="M445 443h115v121H445z"/><g class="D E"><path d="M590 443h122v121H590z" class="B"/><path d="M590.5 443.5h121v120h-121z" class="C"/><path d="M749 443h116v121H749z" class="B"/><path d="M749.5 443.5h115v120h-115z" class="C"/><path d="M135 588h115v116H135z" class="B"/><path d="M135.5 588.5h114v115h-114z" class="C"/><path d="M292 588h110v116H292z" class="B"/><path d="M292.5 588.5h109v115h-109z" class="C"/><path d="M445 588h115v116H445z" class="B"/><path d="M445.5 588.5h114v115h-114z" class="C"/></g><path fill="red" d="M590 588h122v116H590z"/><g class="D E"><path d="M749 588h116v116H749z" class="B"/><path d="M749.5 588.5h115v115h-115z" class="C"/><path d="M135 734h115v115H135z" class="B"/><path d="M135.5 734.5h114v114h-114z" class="C"/><path d="M292 734h110v115H292z" class="B"/><path d="M292.5 734.5h109v114h-109z" class="C"/><path d="M445 734h115v115H445z" class="B"/><path d="M445.5 734.5h114v114h-114z" class="C"/><path d="M590 734h122v115H590z" class="B"/><path d="M590.5 734.5h121v114h-121z" class="C"/></g><path fill="#ffa000" d="M749 734h116v115H749z"/><text fill="#fff" font-size="100" font-weight="700" class="F"><tspan x="159" y="244">S</tspan><tspan x="774" y="826">E</tspan></text></g></svg>