<svg xmlns="http://www.w3.org/2000/svg" width="500" height="270"><style><![CDATA[.B{font-family:SegoeUI-Bold, Segoe UI}.C{font-weight:700}]]></style><defs><clipPath id="A"><path d="M0 0h500v270H0z"/></clipPath></defs><g clip-path="url(#A)"><path fill="#323232" d="M0 0h500v270H0z"/><path d="M0 0h500v30H0z"/><text fill="#fff" font-size="20" class="B C"><tspan x="14" y="22">Make It Rain</tspan><tspan x="454" y="257">30x</tspan><tspan x="14" y="257">Reset</tspan></text><path fill="#ff4f54" d="M101.97 67.01l30.022 15.946-15.946 30.022L86.025 97.03z"/><path fill="#f2ff36" d="M136.53 183.8l33.67 4.732-4.732 33.67-33.67-4.732z"/><path fill="#4fff1c" d="M233.97 247.01l30.022 15.946-15.946 30.022-30.022-15.946z"/><g fill="#44faff"><path d="M199.587 130.4l19.013 28.187-28.187 19.013-19.013-28.187zm149 81l19.013 28.187-28.187 19.013-19.013-28.187z"/></g><path fill="#f2ff36" d="M301.587 38.4L320.6 66.587 292.412 85.6 273.4 57.413z"/><path fill="#ff4f54" d="M386.587 125.4l19.013 28.187-28.187 19.013-19.013-28.187z"/></g></svg>