<svg xmlns="http://www.w3.org/2000/svg" xmlns:xlink="http://www.w3.org/1999/xlink" width="1000" height="1000" viewBox="0 0 1000 1000"><defs><clipPath id="b"><rect width="1000" height="1000"/></clipPath></defs><g id="a" clip-path="url(#b)"><rect width="1000" height="1000" fill="#fff"/><rect width="100.757" height="100.757" transform="matrix(0.883, 0.469, -0.469, 0.883, 159.365, 161.27)" fill="#ff4f54"/><rect width="100.757" height="100.757" transform="translate(125.533 570.513) rotate(8)" fill="#f2ff36"/><rect width="100.757" height="100.757" transform="matrix(0.883, 0.469, -0.469, 0.883, 460.815, 772.232)" fill="#4fff1c"/><rect width="100.757" height="100.757" transform="translate(366.675 363.527) rotate(56)" fill="#44faff"/><rect width="100.757" height="100.757" transform="translate(808.229 603.566) rotate(56)" fill="#44faff"/><rect width="100.757" height="100.757" transform="translate(633.5 90.889) rotate(56)" fill="#f2ff36"/><rect width="100.757" height="100.757" transform="translate(877.639 328.771) rotate(56)" fill="#ff4f54"/><g transform="translate(444.174 230.628) rotate(30)"><path d="M334.325,168.7h-.74c-14.188,0-26.131,12.059-26.131,27.559v21.484a7.754,7.754,0,0,1-15.508,0v-39.67c0-15.5-11.255-28.108-25.439-28.108-14.262,0-25.517,12.609-25.517,28.108v42.046a7.754,7.754,0,1,1-15.508,0v-53.59c0-15.5-11.7-27.736-25.884-27.736h-.788c-13.829,0-25.391,11.609-25.391,26.568v60.345a7.754,7.754,0,0,1-15.508,0v-58.6c0-.19-.022-.389-.022-.584,0-.476.022-.952.022-1.424V28.1c0-15.5-11.7-28.1-25.876-28.1S106.16,12.6,106.147,28.087l-.156,227.183a7.755,7.755,0,0,1-13.747,4.92L65.118,227.17a41.3,41.3,0,0,0-29.147-15.413,40.413,40.413,0,0,0-30.363,10.9c-.1.087-.195.19-.3.277L0,227.369,94.048,408.105c14.846,28.528,42.92,46.39,73.257,46.39H276.022c46.265,0,83.94-40.7,83.988-90.565.026-26.4.052-46.208.074-62.162.056-42.647.074-58.333-.035-105.312C360.014,181,348.474,168.7,334.325,168.7Zm0,0" transform="translate(0 55.257)"/><path d="M7.755,86.074a7.752,7.752,0,0,0,7.754-7.754,62.518,62.518,0,1,1,125.034,0,7.754,7.754,0,1,0,15.508,0A78.026,78.026,0,1,0,0,78.32a7.755,7.755,0,0,0,7.754,7.754Zm0,0" transform="translate(53.729 0)"/></g></g></svg>