<svg xmlns="http://www.w3.org/2000/svg" width="1000" height="1000" xmlns:v="https://vecta.io/nano"><defs><clipPath id="A"><path d="M0 0h1000v1000H0z"/></clipPath></defs><g clip-path="url(#A)"><path fill="#fff" d="M0 0h1000v1000H0z"/><path fill="#ff4f54" d="M159.365 161.27l88.968 47.255-47.255 88.968-88.968-47.255z"/><path fill="#f2ff36" d="M125.533 570.513l99.776 14.023-14.023 99.776L111.5 670.29z"/><path fill="#4fff1c" d="M460.815 772.232l88.968 47.255-47.255 88.968L413.56 861.2z"/><g fill="#44faff"><path d="M366.675 363.527l56.343 83.53-83.53 56.343-56.343-83.53zm441.555 240.04l56.343 83.53-83.53 56.343-56.343-83.53z"/></g><path fill="#f2ff36" d="M633.5 90.89l56.343 83.53-83.53 56.343-56.343-83.53z"/><path fill="#ff4f54" d="M877.64 328.77l56.343 83.53-83.53 56.343-56.343-83.53z"/><g transform="matrix(.866025 .5 -.5 .866025 444.174 230.628)"><path d="M334.325 223.957h-.74c-14.188 0-26.13 12.06-26.13 27.56V273c0 4.282-3.472 7.754-7.754 7.754s-7.754-3.472-7.754-7.754v-39.67c0-15.5-11.255-28.108-25.44-28.108-14.262 0-25.517 12.6-25.517 28.108v42.046c0 4.282-3.472 7.754-7.754 7.754s-7.754-3.472-7.754-7.754v-53.6c0-15.5-11.7-27.736-25.884-27.736h-.788c-13.83 0-25.4 11.6-25.4 26.568v60.345c0 4.282-3.472 7.754-7.754 7.754s-7.754-3.472-7.754-7.754v-58.6c0-.2-.022-.4-.022-.584 0-.476.022-.952.022-1.424V83.357c0-15.5-11.7-28.1-25.876-28.1s-25.875 12.6-25.888 28.087l-.156 227.183c-.001 3.274-2.06 6.195-5.142 7.298s-6.527.152-8.605-2.378l-27.126-33.02a41.3 41.3 0 0 0-29.147-15.413 40.41 40.41 0 0 0-30.363 10.9c-.1.087-.195.2-.3.277L0 282.626l94.048 180.736c14.846 28.528 42.92 46.4 73.257 46.4h108.717c46.265 0 83.94-40.7 83.988-90.565l.074-62.162-.035-105.312c-.035-15.456-11.575-27.756-25.724-27.756zM61.484 86.074a7.75 7.75 0 0 0 7.754-7.754 62.52 62.52 0 0 1 93.878-54.437 62.52 62.52 0 0 1 31.156 54.437c0 2.77 1.478 5.33 3.877 6.715s5.355 1.385 7.754 0 3.877-3.945 3.877-6.715a78.03 78.03 0 0 0-38.932-67.805 78.03 78.03 0 0 0-78.187 0A78.03 78.03 0 0 0 53.729 78.32a7.76 7.76 0 0 0 7.754 7.754zm0 0"/></g></g></svg>