<svg xmlns="http://www.w3.org/2000/svg" xmlns:xlink="http://www.w3.org/1999/xlink" width="1000" height="1000" viewBox="0 0 1000 1000"><defs><clipPath id="a"><rect width="369" height="28" fill="none"/></clipPath><clipPath id="b"><rect width="251.453" height="331.919" fill="none"/></clipPath><clipPath id="c"><rect width="366.116" height="309.791" fill="none"/></clipPath><clipPath id="e"><rect width="1000" height="1000"/></clipPath></defs><g id="d" clip-path="url(#e)"><rect width="1000" height="1000" fill="#fff"/><text transform="translate(55 199)" font-size="90" font-family="Arial-BoldMT, Arial" font-weight="700"><tspan x="0" y="0">Student - ID: 192-456</tspan></text><rect width="445" height="524" transform="translate(55 239)" fill="#ebebeb"/><rect width="445" height="48" transform="translate(55 288)" fill="#fff"/><rect width="445" height="49" transform="translate(55 465)" fill="#fff"/><rect width="445" height="48" transform="translate(55 288)" fill="#fff"/><rect width="445" height="49" transform="translate(55 617)" fill="#fff"/><text transform="translate(79 270)" fill="#a0a0a0" font-size="21" font-family="SegoeUI-Bold, Segoe UI" font-weight="700"><tspan x="0" y="0">Course 1</tspan></text><text transform="translate(79 575)" fill="#a0a0a0" font-size="21" font-family="SegoeUI-Bold, Segoe UI" font-weight="700"><tspan x="0" y="0">Course 3</tspan></text><text transform="translate(79 270)" fill="#a0a0a0" font-size="21" font-family="SegoeUI-Bold, Segoe UI" font-weight="700"><tspan x="0" y="0">Course 1</tspan></text><text transform="translate(79 425)" fill="#a0a0a0" font-size="21" font-family="SegoeUI-Bold, Segoe UI" font-weight="700"><tspan x="0" y="0">Course 2</tspan></text><text transform="translate(79 735)" fill="#a0a0a0" font-size="21" font-family="SegoeUI-Bold, Segoe UI" font-weight="700"><tspan x="0" y="0">Course 4</tspan></text><text transform="translate(437 270)" fill="#a0a0a0" font-size="21" font-family="SegoeUI-Bold, Segoe UI" font-weight="700"><tspan x="0" y="0">+ / -</tspan></text><text transform="translate(437 422)" fill="#a0a0a0" font-size="21" font-family="SegoeUI-Bold, Segoe UI" font-weight="700"><tspan x="0" y="0">+ / -</tspan></text><text transform="translate(437 569)" fill="#a0a0a0" font-size="21" font-family="SegoeUI-Bold, Segoe UI" font-weight="700"><tspan x="0" y="0">+ / -</tspan></text><text transform="translate(437 739)" fill="#a0a0a0" font-size="21" font-family="SegoeUI-Bold, Segoe UI" font-weight="700"><tspan x="0" y="0">+ / -</tspan></text><g transform="translate(552 261)" fill="#fff" stroke="#c4c4c4" stroke-width="1"><rect width="369" height="334" stroke="none"/><rect x="0.5" y="0.5" width="368" height="333" fill="none"/></g><g transform="translate(560 265)" clip-path="url(#a)"><g transform="translate(-287 -84)"><text transform="translate(287 95)" fill="#a0a0a0" font-size="10" font-family="SegoeUI-Bold, Segoe UI" font-weight="700"><tspan x="0" y="0">Mon</tspan></text></g><g transform="translate(-249 -84)"><text transform="translate(287 95)" fill="#a0a0a0" font-size="10" font-family="SegoeUI-Bold, Segoe UI" font-weight="700"><tspan x="0" y="0">Tue</tspan></text></g><g transform="translate(-211 -84)"><text transform="translate(287 95)" fill="#a0a0a0" font-size="10" font-family="SegoeUI-Bold, Segoe UI" font-weight="700"><tspan x="0" y="0">Wed</tspan></text></g><g transform="translate(-173 -84)"><text transform="translate(287 95)" fill="#a0a0a0" font-size="10" font-family="SegoeUI-Bold, Segoe UI" font-weight="700"><tspan x="0" y="0">Thu</tspan></text></g><g transform="translate(-135 -84)"><text transform="translate(287 95)" fill="#a0a0a0" font-size="10" font-family="SegoeUI-Bold, Segoe UI" font-weight="700"><tspan x="0" y="0">Fri</tspan></text></g><g transform="translate(-97 -84)"><text transform="translate(287 95)" fill="#a0a0a0" font-size="10" font-family="SegoeUI-Bold, Segoe UI" font-weight="700"><tspan x="0" y="0">Fri</tspan></text></g><g transform="translate(-59 -84)"><text transform="translate(287 95)" fill="#a0a0a0" font-size="10" font-family="SegoeUI-Bold, Segoe UI" font-weight="700"><tspan x="0" y="0">Fri</tspan></text></g><g transform="translate(-21 -84)"><text transform="translate(287 95)" fill="#a0a0a0" font-size="10" font-family="SegoeUI-Bold, Segoe UI" font-weight="700"><tspan x="0" y="0">Fri</tspan></text></g><g transform="translate(17 -84)"><text transform="translate(287 95)" fill="#a0a0a0" font-size="10" font-family="SegoeUI-Bold, Segoe UI" font-weight="700"><tspan x="0" y="0">Fri</tspan></text></g><g transform="translate(55 -84)"><text transform="translate(287 95)" fill="#a0a0a0" font-size="10" font-family="SegoeUI-Bold, Segoe UI" font-weight="700"><tspan x="0" y="0">Fri</tspan></text></g></g><g transform="translate(616.785 262.006)" clip-path="url(#b)"><g transform="translate(-315 -82.5)"><line y2="165" transform="translate(315.5 82.5)" fill="none" stroke="#9e9e9e" stroke-width="1"/></g><g transform="translate(-276 -82.5)"><line y2="165" transform="translate(315.5 82.5)" fill="none" stroke="#9e9e9e" stroke-width="1"/></g><g transform="translate(-237 -82.5)"><line y2="165" transform="translate(315.5 82.5)" fill="none" stroke="#9e9e9e" stroke-width="1"/></g><g transform="translate(-198 -82.5)"><line y2="165" transform="translate(315.5 82.5)" fill="none" stroke="#9e9e9e" stroke-width="1"/></g><g transform="translate(-159 -82.5)"><line y2="165" transform="translate(315.5 82.5)" fill="none" stroke="#9e9e9e" stroke-width="1"/></g><g transform="translate(-120 -82.5)"><line y2="165" transform="translate(315.5 82.5)" fill="none" stroke="#9e9e9e" stroke-width="1"/></g><g transform="translate(-81 -82.5)"><line y2="165" transform="translate(315.5 82.5)" fill="none" stroke="#9e9e9e" stroke-width="1"/></g><g transform="translate(-315 102.5)"><line y2="165" transform="translate(315.5 82.5)" fill="none" stroke="#9e9e9e" stroke-width="1"/></g><g transform="translate(-276 102.5)"><line y2="165" transform="translate(315.5 82.5)" fill="none" stroke="#9e9e9e" stroke-width="1"/></g><g transform="translate(-237 102.5)"><line y2="165" transform="translate(315.5 82.5)" fill="none" stroke="#9e9e9e" stroke-width="1"/></g><g transform="translate(-198 102.5)"><line y2="165" transform="translate(315.5 82.5)" fill="none" stroke="#9e9e9e" stroke-width="1"/></g><g transform="translate(-159 102.5)"><line y2="165" transform="translate(315.5 82.5)" fill="none" stroke="#9e9e9e" stroke-width="1"/></g><g transform="translate(-120 102.5)"><line y2="165" transform="translate(315.5 82.5)" fill="none" stroke="#9e9e9e" stroke-width="1"/></g><g transform="translate(-81 102.5)"><line y2="165" transform="translate(315.5 82.5)" fill="none" stroke="#9e9e9e" stroke-width="1"/></g></g><g transform="translate(553.419 297.209)" clip-path="url(#c)"><g transform="translate(-283.5 -100)"><line x2="182" transform="translate(283.5 100.5)" fill="none" stroke="#9e9e9e" stroke-width="1"/></g><g transform="translate(-81.5 -100)"><line x2="182" transform="translate(283.5 100.5)" fill="none" stroke="#9e9e9e" stroke-width="1"/></g><g transform="translate(-283.5 -63)"><line x2="182" transform="translate(283.5 100.5)" fill="none" stroke="#9e9e9e" stroke-width="1"/></g><g transform="translate(-81.5 -63)"><line x2="182" transform="translate(283.5 100.5)" fill="none" stroke="#9e9e9e" stroke-width="1"/></g><g transform="translate(-283.5 -26)"><line x2="182" transform="translate(283.5 100.5)" fill="none" stroke="#9e9e9e" stroke-width="1"/></g><g transform="translate(-81.5 -26)"><line x2="182" transform="translate(283.5 100.5)" fill="none" stroke="#9e9e9e" stroke-width="1"/></g><g transform="translate(-283.5 11)"><line x2="182" transform="translate(283.5 100.5)" fill="none" stroke="#9e9e9e" stroke-width="1"/></g><g transform="translate(-81.5 11)"><line x2="182" transform="translate(283.5 100.5)" fill="none" stroke="#9e9e9e" stroke-width="1"/></g><g transform="translate(-283.5 48)"><line x2="182" transform="translate(283.5 100.5)" fill="none" stroke="#9e9e9e" stroke-width="1"/></g><g transform="translate(-81.5 48)"><line x2="182" transform="translate(283.5 100.5)" fill="none" stroke="#9e9e9e" stroke-width="1"/></g><g transform="translate(-283.5 85)"><line x2="182" transform="translate(283.5 100.5)" fill="none" stroke="#9e9e9e" stroke-width="1"/></g><g transform="translate(-81.5 85)"><line x2="182" transform="translate(283.5 100.5)" fill="none" stroke="#9e9e9e" stroke-width="1"/></g><g transform="translate(-283.5 122)"><line x2="182" transform="translate(283.5 100.5)" fill="none" stroke="#9e9e9e" stroke-width="1"/></g><g transform="translate(-81.5 122)"><line x2="182" transform="translate(283.5 100.5)" fill="none" stroke="#9e9e9e" stroke-width="1"/></g><g transform="translate(-283.5 159)"><line x2="182" transform="translate(283.5 100.5)" fill="none" stroke="#9e9e9e" stroke-width="1"/></g><g transform="translate(-81.5 159)"><line x2="182" transform="translate(283.5 100.5)" fill="none" stroke="#9e9e9e" stroke-width="1"/></g><g transform="translate(-283.5 196)"><line x2="182" transform="translate(283.5 100.5)" fill="none" stroke="#9e9e9e" stroke-width="1"/></g><g transform="translate(-81.5 196)"><line x2="182" transform="translate(283.5 100.5)" fill="none" stroke="#9e9e9e" stroke-width="1"/></g></g><rect width="77" height="72" transform="translate(697 374)" fill="#00d8ff"/><rect width="76" height="73" transform="translate(776 448)" fill="#f7df1e"/><rect width="76" height="72" transform="translate(619 523)" fill="#0b799d"/><rect width="327" height="89" rx="44.5" transform="translate(517 794)" fill="#e23237"/><path d="M44.5,0h238a44.5,44.5,0,0,1,0,89H44.5a44.5,44.5,0,0,1,0-89Z" transform="translate(156 794)" fill="#3fbd00"/><text transform="translate(249 856)" fill="#fff" font-size="50" font-family="Arial-BoldMT, Arial" font-weight="700"><tspan x="0" y="0">Enroll</tspan></text><text transform="translate(617 856)" fill="#fff" font-size="50" font-family="Arial-BoldMT, Arial" font-weight="700"><tspan x="0" y="0">Drop</tspan></text></g></svg>