<svg xmlns="http://www.w3.org/2000/svg" width="500" height="270"><style><![CDATA[.B{font-family:SegoeUI-Bold, Segoe UI}.C{font-weight:700}.D{fill:#a0a0a0}.E{font-size:10px}.F{fill:none}.G{fill:#9e9e9e}.H{fill:#c4c4c4}]]></style><defs><clipPath id="A"><path d="M0 0h183v14H0z" class="F"/></clipPath><clipPath id="B"><path d="M0 0h125v165H0z" class="F"/></clipPath><clipPath id="C"><path d="M0 0h182v154H0z" class="F"/></clipPath><clipPath id="D"><path d="M0 0h500v270H0z"/></clipPath></defs><g clip-path="url(#D)"><path fill="#fff" d="M0 0h500v270H0z"/><path d="M34 11h54v25H34z" class="G"/><path d="M88 11h54v25H88z" class="H"/><path d="M142 11h54v25h-54z" class="G"/><path d="M196 11h54v25h-54z" class="H"/><path d="M250 11h54v25h-54z" class="G"/><path d="M304 11h54v25h-54z" class="H"/><path d="M358 11h54v25h-54z" class="G"/><g class="H"><path d="M412 11h54v25h-54zm108 25h0z"/></g><text font-size="20" class="B C"><tspan x="36" y="65">Student - ID: 000-000</tspan></text><path fill="#ebebeb" d="M36 73h211v175H36z"/><g fill="#fff"><path d="M36 145h211v23H36zm0-49h211v23H36zm0 98h211v23H36z"/></g><text class="B C D E"><tspan x="47" y="88">Course 1</tspan><tspan x="47" y="186">Course 3</tspan><tspan x="47" y="88">Course 1</tspan><tspan x="47" y="137">Course 2</tspan><tspan x="47" y="235">Course 4</tspan><tspan x="217" y="88">+ / -</tspan><tspan x="217" y="136">+ / -</tspan><tspan x="217" y="184">+ / -</tspan><tspan x="217" y="237">+ / -</tspan></text><rect width="84" height="23" rx="11.5" fill="#e23237" x="382" y="43"/><rect width="84" height="23" rx="11.5" fill="#3fbd00" x="289" y="43"/><g fill="#fff" stroke="#c4c4c4"><path stroke="none" d="M283 82h183v166H283z"/><path d="M283.5 82.5h182v165h-182z" class="F"/></g><g transform="translate(287 84)" clip-path="url(#A)" class="B C D E"><text><tspan x="0" y="11">Mon</tspan><tspan x="38" y="11">Tue</tspan><tspan x="76" y="11">Wed</tspan><tspan x="114" y="11">Thu</tspan><tspan x="152" y="11">Fri</tspan></text></g><g transform="translate(315 82.5)" clip-path="url(#B)" stroke="#9e9e9e" class="F"><path d="M.5 0v165m39-165v165m39-165v165m39-165v165"/></g><g transform="translate(283.5 100)" clip-path="url(#C)" stroke="#9e9e9e" class="F"><path d="M0 .5h182M0 37.5h182M0 74.5h182m-182 37h182m-182 37h182"/></g><path fill="#00d8ff" d="M355 138h38v36h-38z"/><path fill="#f7df1e" d="M394 175h38v36h-38z"/><path fill="#0b799d" d="M316 212h38v36h-38z"/></g></svg>