<svg xmlns="http://www.w3.org/2000/svg" width="1000" height="1000" xmlns:v="https://vecta.io/nano"><style><![CDATA[.B{font-weight:700}.C{fill:#a0a0a0}.D{font-family:SegoeUI-Bold, Segoe UI}.E{font-size:10px}.F{font-size:21px}.G{fill:none}.H{font-family:Arial-BoldMT, Arial}]]></style><defs><clipPath id="A"><path d="M0 0h369v28H0z" class="G"/></clipPath><clipPath id="B"><path d="M0 0h251.453v331.92H0z" class="G"/></clipPath><clipPath id="C"><path d="M0 0h366.116v309.79H0z" class="G"/></clipPath><clipPath id="D"><path d="M0 0h1000v1000H0z"/></clipPath></defs><g clip-path="url(#D)"><path fill="#fff" d="M0 0h1000v1000H0z"/><text font-size="90" class="B H"><tspan x="55" y="199">Student - ID: 192-456</tspan></text><path fill="#ebebeb" d="M55 239h445v524H55z"/><g fill="#fff"><path d="M55 465h445v49H55zm0-177h445v48H55zm0 329h445v49H55z"/></g><text class="B C D F"><tspan x="79" y="270">Course 1</tspan><tspan x="79" y="575">Course 3</tspan><tspan x="79" y="270">Course 1</tspan><tspan x="79" y="425">Course 2</tspan><tspan x="79" y="735">Course 4</tspan><tspan x="437" y="270">+ / -</tspan><tspan x="437" y="422">+ / -</tspan><tspan x="437" y="569">+ / -</tspan><tspan x="437" y="739">+ / -</tspan></text><g fill="#fff" stroke="#c4c4c4"><path stroke="none" d="M552 261h369v334H552z"/><path d="M552.5 261.5h368v333h-368z" class="G"/></g><g transform="translate(560 265)" clip-path="url(#A)" class="B C D E"><text><tspan x="0" y="11">Mon</tspan><tspan x="38" y="11">Tue</tspan><tspan x="76" y="11">Wed</tspan><tspan x="114" y="11">Thu</tspan><tspan x="152" y="11">Fri</tspan><tspan x="190" y="11">Fri</tspan><tspan x="228" y="11">Fri</tspan><tspan x="266" y="11">Fri</tspan><tspan x="304" y="11">Fri</tspan><tspan x="342" y="11">Fri</tspan></text></g><g transform="translate(616.785 262.006)" clip-path="url(#B)" stroke="#9e9e9e" class="G"><path d="M.5 0v165m39-165v165m39-165v165m39-165v165m39-165v165m39-165v165m39-165v165M.5 185v165m39-165v165m39-165v165m39-165v165m39-165v165m39-165v165m39-165v165"/></g><g transform="translate(553.419 297.209)" clip-path="url(#C)" stroke="#9e9e9e" class="G"><path d="M0 .5h182m20 0h182M0 37.5h182m20 0h182M0 74.5h182m20 0h182m-384 37h182m20 0h182m-384 37h182m20 0h182m-384 37h182m20 0h182m-384 37h182m20 0h182m-384 37h182m20 0h182m-384 37h182m20 0h182"/></g><path fill="#00d8ff" d="M697 374h77v72h-77z"/><path fill="#f7df1e" d="M776 448h76v73h-76z"/><path fill="#0b799d" d="M619 523h76v72h-76z"/><rect width="327" height="89" rx="44.5" fill="#e23237" x="517" y="794"/><path d="M200.5 794h238c24.577 0 44.5 19.923 44.5 44.5S463.077 883 438.5 883h-238c-24.577 0-44.5-19.923-44.5-44.5s19.923-44.5 44.5-44.5z" fill="#3fbd00"/><text fill="#fff" font-size="50" class="B H"><tspan x="249" y="856">Enroll</tspan><tspan x="617" y="856">Drop</tspan></text></g></svg>