<svg xmlns="http://www.w3.org/2000/svg" width="2499" height="2500" viewBox="0 0 1372.201 1372.684"><path d="M1371.7 686.02c0 378.66-306.97 685.6-685.55 685.6C307.45 1371.62.5 1064.67.5 686.02.5 307.45 307.45.48 686.15.48c378.6.001 685.55 306.97 685.55 685.54z" fill="#00979d" stroke="#81c9cb" stroke-miterlimit="10" stroke-width=".932"/><linearGradient id="A" x1=".5" x2="1371.7" y1="686.629" y2="686.629" gradientUnits="userSpaceOnUse"><stop stop-color="#fff" stop-opacity="0" offset=".117"/><stop stop-color="#c0d1d3" stop-opacity=".153" offset=".252"/><stop stop-color="#91b3b7" stop-opacity=".306" offset=".387"/><stop stop-color="#6d9fa3" stop-opacity=".457" offset=".52"/><stop stop-color="#4d9195" stop-opacity=".604" offset=".65"/><stop stop-color="#30888b" stop-opacity=".746" offset=".776"/><stop stop-color="#148386" stop-opacity=".88" offset=".895"/><stop stop-color="#008184" offset="1"/></linearGradient><linearGradient id="B" x1="0" x2="1372.2" y1="686.629" y2="686.629" gradientUnits="userSpaceOnUse"><stop stop-color="#fff" stop-opacity="0" offset="0"/><stop stop-color="#c0d1d3" stop-opacity=".153" offset=".153"/><stop stop-color="#91b3b7" stop-opacity=".306" offset=".306"/><stop stop-color="#6d9fa3" stop-opacity=".457" offset=".457"/><stop stop-color="#4d9195" stop-opacity=".604" offset=".604"/><stop stop-color="#30888b" stop-opacity=".746" offset=".746"/><stop stop-color="#148386" stop-opacity=".88" offset=".881"/><stop stop-color="#008184" offset="1"/></linearGradient><path d="M1371.7 686.6c0 378.65-306.97 685.6-685.55 685.6C307.45 1372.2.5 1065.24.5 686.6.5 308.02 307.45 1.05 686.15 1.05c378.6.016 685.55 306.97 685.55 685.55z" fill="url(#A)" opacity=".5" stroke="url(#B)" stroke-miterlimit="10"/><path d="M947.96 931.2c-12.9 0-26.127-.93-39.127-2.864-108.98-15.554-181.85-93.822-222.66-154-40.946 60.166-113.8 138.5-222.74 154.04a275.86 275.86 0 0 1-39.133 2.785c-67.753 0-131.36-25.217-179.2-71.003-48.3-46.165-74.95-108.1-74.95-174.17 0-66.14 26.65-128 75.02-174.25 47.797-45.793 111.45-70.936 179.23-70.936 12.918 0 26.067.928 39.023 2.783 108.93 15.535 181.8 93.813 222.74 154 40.825-60.177 113.7-138.43 222.66-154 13-1.863 26.148-2.783 39.066-2.783 67.753 0 131.4 25.208 179.2 70.936 48.345 46.25 74.937 108.1 74.937 174.25 0 66.057-26.524 128-74.868 174.17-47.88 45.785-111.43 71.026-179.2 71.026m-213.54-245.17c21.283 40.534 84.067 141.68 186.7 156.38 8.984 1.236 18.028 1.923 26.84 1.923 92.185 0 167.22-71.002 167.22-158.32s-75.023-158.32-167.3-158.32c-8.812 0-17.853.63-26.753 1.92-102.64 14.664-165.43 115.8-186.7 156.42m-310.03-158.32c-92.308 0-167.36 70.998-167.36 158.32 0 87.305 75.02 158.32 167.24 158.32 8.852 0 17.897-.688 26.88-1.922 102.63-14.697 165.4-115.78 186.7-156.38-21.237-40.535-84.06-141.76-186.7-156.38-8.877-1.34-17.945-1.97-26.764-1.97M354.37 662.05H507v49.18H354.37zm662.1 0H964.8v-51.747h-49.34v51.747h-51.648v49.18h51.648v51.737h49.348V711.23h51.67z" fill="#fff"/></svg>