<?xml version="1.0" encoding="UTF-8"?>
<svg enable-background="new 0 0 512 512" version="1.1" viewBox="0 0 512 512" xml:space="preserve" xmlns="http://www.w3.org/2000/svg">
<g fill="#AFB6BB">
	<rect x="342.23" y="460.8" width="43.116" height="37.726"/>
	<rect x="234.44" y="460.8" width="43.116" height="37.726"/>
	<rect x="126.65" y="460.8" width="43.116" height="37.726"/>
	<rect x="8.084" y="234.44" width="43.116" height="43.116"/>
	<rect x="8.084" y="342.23" width="43.116" height="43.116"/>
	<rect x="460.8" y="342.23" width="43.116" height="43.116"/>
	<rect x="460.8" y="234.44" width="43.116" height="43.116"/>
	<rect x="460.8" y="126.65" width="43.116" height="43.116"/>
	<rect x="342.23" y="13.474" width="43.116" height="37.726"/>
	<rect x="234.44" y="13.474" width="43.116" height="37.726"/>
	<rect x="126.65" y="13.474" width="43.116" height="37.726"/>
	<rect x="8.084" y="126.65" width="43.116" height="43.116"/>
</g>
<g fill="#E7ECED">
	<rect x="51.2" y="126.65" width="32.337" height="43.116"/>
	<rect x="51.2" y="234.44" width="32.337" height="43.116"/>
	<rect x="51.2" y="342.23" width="32.337" height="43.116"/>
	<rect x="126.65" y="428.46" width="43.116" height="32.337"/>
	<rect x="234.44" y="428.46" width="43.116" height="32.337"/>
	<rect x="342.23" y="428.46" width="43.116" height="32.337"/>
	<rect x="428.46" y="342.23" width="32.337" height="43.116"/>
	<rect x="428.46" y="234.44" width="32.337" height="43.116"/>
	<rect x="428.46" y="126.65" width="32.337" height="43.116"/>
	<rect x="342.23" y="51.2" width="43.116" height="32.337"/>
	<rect x="234.44" y="51.2" width="43.116" height="32.337"/>
	<rect x="126.65" y="51.2" width="43.116" height="32.337"/>
</g>
<path d="m428.46 385.35v32.337c0 5.928-4.851 10.779-10.779 10.779h-323.37c-5.928 0-10.779-4.851-10.779-10.779v-323.37c0-5.928 4.851-10.779 10.779-10.779h323.37c5.928 0 10.779 4.851 10.779 10.779v291.03zm-43.116 0v-258.69h-258.69v258.7h258.69z" fill="#595E62"/>
<rect x="126.65" y="126.65" width="258.7" height="258.7" fill="#36C63F"/>
<path d="m173.78 126.65h-47.132v258.7h258.7v-47.132c-100.64-31.557-180.01-110.92-211.56-211.56z" fill="#00AB4E"/>
<path d="m126.65 385.35v-258.69h129.35v-43.116h-161.68c-5.928 0-10.779 4.851-10.779 10.779v323.37c0 5.928 4.851 10.779 10.779 10.779h161.68v-43.116h-129.35z" fill="#44494C"/>
<g fill="#fff">
	<rect x="180.55" y="161.68" width="150.9" height="16.168"/>
	<rect x="180.55" y="237.14" width="150.9" height="16.168"/>
	<rect x="180.55" y="199.41" width="26.947" height="16.168"/>
	<rect x="180.55" y="334.15" width="26.947" height="16.168"/>
	<rect x="223.66" y="334.15" width="26.947" height="16.168"/>
	<rect x="299.12" y="334.15" width="26.947" height="16.168"/>
	<rect x="239.83" y="199.41" width="91.621" height="16.168"/>
</g>
<path d="m118.57 393.43h274.86v-274.86h-274.86v274.86zm16.169-258.7h242.53v242.53h-242.53v-242.53z"/>
<path d="m512 177.85v-59.284h-75.453v-24.253c0-10.401-8.463-18.863-18.863-18.863h-24.253v-70.064h-59.284v70.063h-48.505v-70.063h-59.284v70.063h-48.505v-70.063h-59.284v70.063h-24.253c-10.401 0-18.863 8.463-18.863 18.863v24.253h-75.453v59.284h75.453v48.505h-75.453v59.284h75.453v48.505h-75.453v59.284h75.453v24.253c0 10.401 8.463 18.863 18.863 18.863h24.253v70.063h59.284v-70.063h48.505v70.063h59.284v-70.063h48.505v70.063h59.284v-70.063h24.253c10.401 0 18.863-8.463 18.863-18.863v-24.253h75.453v-59.284h-75.453v-48.505h75.453v-59.284h-75.453v-48.505h75.453zm-75.453-43.116h16.168v26.947h-16.168v-26.947zm59.285 26.947h-26.947v-26.947h26.947v26.947zm-145.52-102.4h26.947v16.168h-26.947v-16.168zm26.947-37.726v21.558h-26.947v-21.558h26.947zm-134.74 37.726h26.947v16.168h-26.947v-16.168zm26.948-37.726v21.558h-26.947v-21.558h26.947zm-134.74 37.726h26.947v16.168h-26.947v-16.168zm26.947-37.726v21.558h-26.947v-21.558h26.947zm-86.231 140.13h-16.169v-26.947h16.168v26.947zm-59.285-26.947h26.947v26.947h-26.947v-26.947zm59.285 134.74h-16.169v-26.947h16.168v26.947zm-59.285-26.948h26.947v26.947h-26.947v-26.947zm59.285 134.74h-16.169v-26.947h16.168v26.947zm-59.285-26.947h26.947v26.947h-26.947v-26.947zm145.52 102.4h-26.947v-16.168h26.947v16.168zm-26.947 37.726v-21.558h26.947v21.558h-26.947zm134.74-37.726h-26.947v-16.168h26.947v16.168zm-26.948 37.726v-21.558h26.947v21.558h-26.947zm134.74-37.726h-26.947v-16.168h26.947v16.168zm-26.947 37.726v-21.558h26.947v21.558h-26.947zm86.231-140.13h16.168v26.947h-16.168v-26.947zm59.285 26.947h-26.947v-26.947h26.947v26.947zm-59.285-134.74h16.168v26.947h-16.168v-26.947zm59.285 26.948h-26.947v-26.947h26.947v26.947zm-75.453 148.21c0 1.461-1.234 2.695-2.695 2.695h-323.37c-1.461 0-2.695-1.234-2.695-2.695v-323.37c0-1.461 1.234-2.695 2.695-2.695h323.37c1.461 0 2.695 1.234 2.695 2.695v323.37z"/>
</svg>
