<svg width="384" height="414" viewBox="0 0 384 414" fill="none" xmlns="http://www.w3.org/2000/svg">
<path fill-rule="evenodd" clip-rule="evenodd" d="M299.634 391.983C335.429 374.132 364.845 346.176 383.82 311.756L383.022 311.3L382.16 313.121L291.326 270.151C284.001 281.692 274.117 291.251 262.314 298.414L299.634 391.983ZM263.06 406.004L225.474 311.767C219.209 312.794 212.705 313.323 206.01 313.323C198.877 313.323 191.963 312.698 185.316 311.495L148.718 405.994C166.971 410.949 186.423 413.586 206.793 413.586C226.333 413.586 245.214 410.947 263.06 406.004ZM101.047 206.793C101.047 246.588 119.512 279.256 148.733 297.506L112.061 392.197C44.0402 358.809 0 289.486 0 206.793C0 90.0802 87.7304 0 206.793 0C283.557 0 350.138 40.7319 382.254 101.047L382.191 101.083L382.119 100.933L291.071 144.263C274.044 116.626 242.665 99.4799 206.01 99.4799C145.695 99.4799 101.047 144.128 101.047 206.793Z" fill="#FF464C"/>
</svg>
