<svg xmlns="http://www.w3.org/2000/svg" xmlns:xlink="http://www.w3.org/1999/xlink" width="512" height="512" viewBox="0 0 512 512"><defs><clipPath id="b"><rect width="512" height="512"/></clipPath></defs><g id="a" clip-path="url(#b)"><rect width="512" height="512" fill="#1f70c1"/><path d="M0,0V12.163H86.509V0ZM98.766,0V12.163h123.28S209.454,0,192.776,0ZM246.23,0V12.163h74.582L316.386,0ZM374.284,0l-4.427,12.163h73.905V0ZM0,23.654V35.817H86.509V23.654Zm98.766.017V35.817H236.351s-1.607-9.361-4.41-12.146H98.766Zm147.464,0V35.817h82.76l-4.1-12.146H246.23Zm119.2,0-4.1,12.146h82.43V23.671ZM24.861,47.308v12.18H62.326V47.308H24.861Zm98.767,0v12.18h37.465V47.308H123.627Zm73.905,0v12.18H235a41.445,41.445,0,0,0,2.379-12.18H197.533Zm73.558,0v12.18h66.423l-4.427-12.18h-62Zm86.18,0-4.444,12.18h66.753V47.308H357.27ZM24.861,70.98V83.143H62.326V70.98H24.861Zm98.767,0V83.143H219.32s8.005-6.241,10.555-12.163Zm147.464,0V83.143h37.465V76.372l2.379,6.771h68.628l2.552-6.771v6.771h37.465V70.98H349.25l-3.732,10.3-3.75-10.3ZM24.861,94.634V106.8H62.326V94.634Zm98.767,0V106.8H229.876c-2.551-5.9-10.555-12.163-10.555-12.163Zm147.464,0V106.8h37.465V94.634Zm44.27,0,4.531,12.163H371.35l4.306-12.163Zm66.753,0V106.8h37.465V94.634ZM24.861,118.288V130.45H62.326V118.288Zm98.767,0V130.45h37.465V118.288Zm73.905,0V130.45h39.843A41.329,41.329,0,0,0,235,118.288H197.533Zm73.558,0V130.45h37.465V118.288Zm52.777,0,4.392,12.163h34.5l4.427-12.163Zm58.246,0V130.45h37.465V118.288ZM.677,141.942v12.18H87.186v-12.18Zm98.089,0v12.18H231.942c2.8-2.789,4.41-12.18,4.41-12.18H98.766Zm148.141,0v12.18h61.649v-12.18Zm85.485,0,4.514,12.18h17.552l4.236-12.18Zm49.722,0v12.18H444.44v-12.18ZM.677,165.613v12.163H87.186V165.613Zm98.089,0v12.146h94.01c16.678,0,29.27-12.146,29.27-12.146Zm148.141,0v12.163h61.649V165.613Zm94.044,0,4.34,12.129.747.017,4.41-12.146Zm41.163,0v12.163H444.44V165.613Z" transform="translate(34 166.879)" fill="#fff"/></g></svg>