<?xml version="1.0" encoding="utf-8"?>
<!-- Generator: Adobe Illustrator 19.0.0, SVG Export Plug-In . SVG Version: 6.00 Build 0)  -->
<svg version="1.1" id="Layer_1" xmlns="http://www.w3.org/2000/svg" xmlns:xlink="http://www.w3.org/1999/xlink" x="0px" y="0px"
	 viewBox="994 -244 2500 1000" style="enable-background:new 994 -244 2500 1000;" xml:space="preserve">
<style type="text/css">
	.st0{fill:#FFFFFF;}
</style>
<path class="st0" d="M994-244v68.4h486.6V-244H994z M1549.6-244v68.4H2243c0,0-70.8-68.4-164.6-68.4H1549.6z M2379.1-244v68.4h419.5
	l-24.9-68.4H2379.1z M3099.4-244l-24.9,68.4h415.7V-244H3099.4z M994-110.9v68.4h486.6v-68.4H994z M1549.6-110.8v68.3h773.9
	c0,0-9-52.7-24.8-68.3L1549.6-110.8L1549.6-110.8z M2379.1-110.8v68.3h465.5l-23-68.3L2379.1-110.8L2379.1-110.8z M3049.6-110.8
	l-23,68.3h463.7v-68.3H3049.6z M1133.8,22.1v68.5h210.7V22.1L1133.8,22.1L1133.8,22.1z M1689.4,22.1v68.5h210.7V22.1L1689.4,22.1
	L1689.4,22.1z M2105.1,22.1v68.5h210.7c0,0,13.4-36.2,13.4-68.5L2105.1,22.1L2105.1,22.1z M2518.9,22.1v68.5h373.6l-24.9-68.5
	L2518.9,22.1L2518.9,22.1z M3003.7,22.1l-25,68.5h375.5V22.1L3003.7,22.1L3003.7,22.1z M1133.8,155.3v68.4h210.7v-68.4H1133.8
	L1133.8,155.3z M1689.4,155.3v68.4h538.3c0,0,45-35.1,59.4-68.4H1689.4z M2518.9,155.3v68.4h210.7v-38.1l13.4,38.1h386l14.4-38.1
	v38.1h210.7v-68.4h-395.6l-21,57.9l-21.1-57.9H2518.9z M1133.8,288.3v68.4h210.7v-68.4H1133.8z M1689.4,288.3v68.4h597.7
	c-14.3-33.2-59.4-68.4-59.4-68.4H1689.4z M2518.9,288.3v68.4h210.7v-68.4H2518.9z M2767.9,288.3l25.5,68.4h289.5l24.2-68.4H2767.9z
	 M3143.4,288.3v68.4h210.7v-68.4H3143.4z M1133.8,421.4v68.4h210.7v-68.4H1133.8z M1689.4,421.4v68.4h210.7v-68.4H1689.4z
	 M2105.1,421.4v68.4h224.1c0-32.3-13.4-68.4-13.4-68.4H2105.1L2105.1,421.4z M2518.9,421.4v68.4h210.7v-68.4H2518.9z M2815.8,421.4
	l24.7,68.4h194l24.9-68.4H2815.8z M3143.4,421.4v68.4h210.7v-68.4H3143.4z M997.8,554.4v68.5h486.6v-68.5H997.8z M1549.6,554.4v68.5
	h749.1c15.8-15.7,24.8-68.5,24.8-68.5H1549.6L1549.6,554.4z M2382.9,554.4v68.5h346.8v-68.5H2382.9z M2863.7,554.4l25.4,68.5h98.7
	l23.8-68.5H2863.7z M3143.4,554.4v68.5H3494v-68.5H3143.4z M997.8,687.6V756h486.6v-68.4H997.8z M1549.6,687.6v68.3h528.8
	c93.8,0,164.6-68.3,164.6-68.3H1549.6z M2382.9,687.6V756h346.8v-68.4H2382.9z M2911.9,687.6l24.4,68.2l4.2,0.1l24.8-68.3H2911.9z
	 M3143.4,687.6V756H3494v-68.4H3143.4z"/>
</svg>
