<svg xmlns="http://www.w3.org/2000/svg" viewBox="770 -939 2500 2438"><path d="M874.2-834.5h2291.7v2229.2H874.2V-834.5zM770 1498.8h2500V-938.8H770v2437.6zM2407.5-70.1c0-8.3 3.1-12.5 12.5-12.5h163.5c8.3 0 12.5 3.1 12.5 12.5v821.9c0 8.3-2.1 12.5-12.5 12.5H2422c-10.4 0-13.5-5.2-13.5-13.5V-70.1h-1zM2396-306.5c0-66.7 46.9-106.2 106.3-106.2 63.5 0 106.2 42.7 106.2 106.2 0 68.7-44.8 106.2-108.3 106.2-60.4 0-104.2-37.5-104.2-106.2zm-468.7 579.3l-124-489.6h-2.1c-21.9 121.9-77.1 328.1-120.8 489.6h246.9zm-289.6 168.7L1555.4 754c-2.1 8.3-5.2 10.4-15.6 10.4h-153.1c-10.4 0-12.5-3.1-10.4-15.6l295.8-1035.4c5.2-18.7 8.3-35.4 10.4-86.5 0-7.3 3.1-10.4 8.3-10.4h218.8c7.3 0 10.4 2.1 12.5 10.4l331.2 1124c2.1 8.3 0 13.5-8.3 13.5h-172.9c-8.3 0-13.5-2.1-15.6-9.4L1971 441.5h-333.3z" fill="#ff7f18"/></svg>