<svg xmlns="http://www.w3.org/2000/svg" width="1850" height="2500" viewBox="0 0 256 346" preserveAspectRatio="xMinYMin meet"><path d="M82.554 267.473s-13.198 7.675 9.393 10.272c27.37 3.122 41.356 2.675 71.517-3.034 0 0 7.93 4.972 19.003 9.28-67.61 28.977-153.02-1.68-99.913-16.517m-8.262-37.814s-14.803 10.958 7.805 13.296c29.236 3.016 52.324 3.263 92.276-4.43 0 0 5.526 5.602 14.215 8.666C106.84 271.095 15.8 249.076 74.292 229.66" fill="#5382a1"/><path d="M143.942 165.515c16.66 19.18-4.377 36.44-4.377 36.44s42.3-21.837 22.874-49.183c-18.144-25.5-32.06-38.172 43.268-81.858 0 0-118.238 29.53-61.765 94.6" fill="#e76f00"/><path d="M233.364 295.442s9.767 8.047-10.757 14.273c-39.026 11.823-162.432 15.393-196.714.47-12.323-5.36 10.787-12.8 18.056-14.362 7.58-1.644 11.914-1.337 11.914-1.337-13.705-9.655-88.583 18.957-38.034 27.15 137.853 22.356 251.292-10.066 215.535-26.195M88.9 190.48s-62.77 14.9-22.228 20.323c17.118 2.292 51.243 1.774 83.03-.9 25.978-2.2 52.063-6.85 52.063-6.85s-9.16 3.923-15.787 8.448c-63.744 16.765-186.886 8.966-151.435-8.183C64.524 188.836 88.9 190.48 88.9 190.48m112.605 62.942c64.8-33.672 34.84-66.03 13.927-61.67-5.126 1.066-7.41 2-7.41 2s1.903-2.98 5.537-4.27c41.37-14.545 73.187 42.897-13.355 65.647 0 .001 1.003-.895 1.302-1.697" fill="#5382a1"/><path d="M162.44.37s35.887 35.9-34.037 91.1c-56.07 44.282-12.786 69.53-.023 98.377-32.73-29.53-56.75-55.526-40.635-79.72C111.395 74.612 176.918 57.393 162.44.37" fill="#e76f00"/><path d="M95.268 344.665c62.2 3.982 157.712-2.21 159.974-31.64 0 0-4.348 11.158-51.404 20.018-53.088 10-118.564 8.824-157.4 2.42.001 0 7.95 6.58 48.83 9.2" fill="#5382a1"/></svg>