<svg xmlns="http://www.w3.org/2000/svg" width="236.96" height="103.11" viewBox="0 0 236.963 103.11"><path d="M.023 86.88h12.85c4.64 0 5.37 1.53 5.37 4.55v1.3c0 2.26-1.28 2.88-2.95 3h0c2.22.4 2.75 1.55 2.75 3v4.1h-2V99.3c0-2.5-1.22-2.82-3.2-2.82H2.203v6.34H.023zm12.6 7.94c2.42 0 3.44-.64 3.44-2.33V91c0-1.8-.78-2.38-4-2.38h-9.9v6.17zm20.2-2.1c0-4.07 1.37-6 5.72-6h9.25c4.35 0 5.73 2 5.73 6v4.4c0 4.06-1.38 6-5.73 6h-9.28c-4.35 0-5.72-2-5.72-6zm18.52-.83c0-2.8-1.68-3.4-3.77-3.4h-8.84c-2.08 0-3.77.62-3.77 3.4v6c0 2.8 1.7 3.42 3.77 3.42h8.8c2.1 0 3.77-.62 3.77-3.42zm17.12-5h13.72c3.33 0 4.26 1.73 4.26 3.57v1.38c0 1.15-.65 2.33-2.6 2.53v.1c1.7.08 3.22.73 3.22 3.17v1.9c0 2.24-2 3.4-4.66 3.4h-13.94zm15.8 3.46c0-1.46-1.62-1.7-2.28-1.7h-11.34v5.13h11.23c1.17 0 2.4-.38 2.4-2zm.63 7.52c0-2-1.12-2.3-3.1-2.3h-11.16v5.6h11.5c2 0 2.76-.73 2.76-2.15zm16.74-5.14c0-4.07 1.38-6 5.73-6h9.25c4.35 0 5.73 2 5.73 6v4.4c0 4.06-1.38 6-5.73 6h-9.25c-4.35 0-5.73-2-5.73-6zm18.53-.83c0-2.8-1.68-3.4-3.77-3.4h-8.8c-2.08 0-3.77.62-3.77 3.4v6c0 2.8 1.7 3.42 3.77 3.42h8.8c2.1 0 3.77-.62 3.77-3.42zm23.52-3.24h-8.12v-1.77h18.42v1.77h-8.16v14.3h-2.18zm24-1.77h2.13v16.06h-2.17zm17.22 5.84c0-4.07 1.37-6 5.72-6h8.32c4 0 5 1.84 5 4v1.38h-1.9v-.73c0-2.73-1.68-2.86-3.68-2.86h-7.54c-2.08 0-3.77.62-3.77 3.4v6c0 2.8 1.7 3.42 3.77 3.42h7.6c2.93 0 3.78-.62 3.78-2.8v-1h2v1.1c0 2.9-.93 4.48-5.44 4.48h-8.2c-4.35 0-5.72-2-5.72-6zm33.6 5.18h2V99c0 1.57.85 2.33 3.55 2.33h6.75c3.15 0 4.08-.67 4.08-3 0-2-.8-2.53-3.5-2.53h-4.13c-6.64 0-8.8-.4-8.8-4.66 0-3.66 2.17-4.48 6.66-4.48h4.7c5.4 0 6.74 1.38 6.74 4.24v.55h-2c0-2.55-.3-3-6-3h-2.34c-4.2 0-5.68.22-5.68 2.86 0 1.9.6 2.55 4 2.55h6.43c4.24 0 6 1.22 6 4v1c0 4-3.24 4.24-6.45 4.24h-6c-3.17 0-6-.55-6-4.06zm-14.65-46.17l29.63-20a.89.89 0 0 0 .38-.72c.015-.086.015-.174 0-.26a.87.87 0 0 0-.83-.62l-18.16.01a.9.9 0 0 0-.5.16l-20.64 14.35-20.74-14.35a.87.87 0 0 0-.49-.16h-18.22a.87.87 0 0 0-.84.62c-.015.086-.015.174 0 .26a.89.89 0 0 0 .38.72l29.53 20-32 21.47a.87.87 0 0 0-.38.72c-.015.086-.015.174 0 .26a.86.86 0 0 0 .83.61h18.62a.84.84 0 0 0 .49-.15l22.86-15.82 22.65 15.82a.89.89 0 0 0 .5.15h18.28a.87.87 0 0 0 .84-.61 1.13 1.13 0 0 0 0-.26.88.88 0 0 0-.39-.72M71.633 30.14a.9.9 0 0 0-.68.32l-27.3 33.4-26.84-33.38a.88.88 0 0 0-.68-.33H.873a.88.88 0 0 0-.68 1.43l35.33 42.9a.89.89 0 0 0 .68.31h14.9a.85.85 0 0 0 .66-.31l35.84-42.9a.88.88 0 0 0-.67-1.44z" fill="#898a8d"/><path d="M95.813 30.14c-1.92-3.754-2.9-7.923-2.82-12.14 0-9.77 4.9-18 10.86-18h37.7c2 0 3.66 2.73 3.66 6.05s-1.65 6.06-3.66 6.06h-37.74c-2 0-3.55 2.73-3.55 5.86s1.42 6.16 3.55 6.16h37.7c2 0 3.66 2.7 3.66 6h0c0 3.28-1.65 6-3.66 6h-37.7c-2.13 0-3.55 3-3.55 6.15s1.55 5.84 3.55 5.84h37.7c2 0 3.66 2.74 3.66 6.06s-1.65 6.06-3.66 6.06h-37.7c-6 0-10.86-8.2-10.86-18a25.63 25.63 0 0 1 2.86-12.09z" fill="#d7282f"/></svg>