<svg xmlns="http://www.w3.org/2000/svg" xmlns:xlink="http://www.w3.org/1999/xlink" width="1024" height="1366" viewBox="0 0 1024 1366">
  <defs>
    <linearGradient id="linear-gradient" x1="0.606" y1="0.047" x2="-0.079" y2="0.9" gradientUnits="objectBoundingBox">
      <stop offset="0" stop-color="#2ba6f8"/>
      <stop offset="1" stop-color="#090909"/>
      <stop offset="1"/>
    </linearGradient>
    <linearGradient id="linear-gradient-2" x1="0.606" y1="0.047" x2="-0.079" y2="0.9" gradientUnits="objectBoundingBox">
      <stop offset="0" stop-color="#2ba6f8"/>
      <stop offset="1"/>
    </linearGradient>
    <clipPath id="clip-Portfolio_Site_SkillsPage_Top_Div_-_Tablet">
      <rect width="1024" height="1366"/>
    </clipPath>
  </defs>
  <g id="Portfolio_Site_SkillsPage_Top_Div_-_Tablet" data-name="Portfolio Site SkillsPage Top Div - Tablet" clip-path="url(#clip-Portfolio_Site_SkillsPage_Top_Div_-_Tablet)">
    <rect width="1024" height="1366" fill="#fff"/>
    <g id="Group_444" data-name="Group 444" transform="translate(-800.126 -1004.775) rotate(21)">
      <path id="Path_1" data-name="Path 1" d="M2178.38,177.19S1779.792,185.9,1287.463,28.111s1.627,394.726,207.073,515.949c129.741,64.992,168,191.3,159.428,308.912-11.244,154.328-237.4,159.937-427.024,258.039-457.893,236.887,59.388,39.6,233.838,152.878s68.046,197.705-173.315,189.042c-521.239-18.7-348.352,157.613-261.278,237.478s72.092,262.378-338.146,138.985-256,174.554-256,174.554H0V177.19Z" transform="translate(0 0)" fill="url(#linear-gradient)"/>
      <path id="Path_2" data-name="Path 2" d="M483.949.576s589.424-30.725,694.364,356.588c114.338,422.032-251.376,620.467-375.431,523.6S673.2,652.225,866.316,565.337s173.7-354.7-248.543-287.864S146.693,881.555,452.6,1010.1s231.36,279.874-97.685,440.711-149.1,376.521-149.1,376.521H0V.576Z" transform="translate(0 176.614)" fill="url(#linear-gradient-2)"/>
    </g>
    <g id="gear" transform="matrix(0.978, 0.208, -0.208, 0.978, 32.085, 705.168)" opacity="0.2">
      <g id="Group_118" data-name="Group 118">
        <g id="Group_117" data-name="Group 117">
          <path id="Path_501" data-name="Path 501" d="M154.041,89.365V64.676L136,61.667a60.4,60.4,0,0,0-6.432-15.485l10.64-14.9L122.751,13.83l-14.9,10.64a60.287,60.287,0,0,0-15.483-6.434L89.367,0H64.674L61.669,18.036A60.287,60.287,0,0,0,46.185,24.47L31.29,13.83,13.829,31.286l10.64,14.9a60.4,60.4,0,0,0-6.432,15.485L0,64.676V89.365l18.036,3.009a60.4,60.4,0,0,0,6.432,15.485l-10.64,14.9L31.29,140.211l14.9-10.64A60.288,60.288,0,0,0,61.669,136l3.005,18.036H89.367L92.372,136a60.288,60.288,0,0,0,15.483-6.434l14.9,10.64,17.461-17.456-10.64-14.9A60.4,60.4,0,0,0,136,92.374Zm-23.793-.5a54.083,54.083,0,0,1-7.228,17.406l-1.164,1.827,9.974,13.962-9.77,9.772-13.965-9.975-1.826,1.163a54.067,54.067,0,0,1-17.406,7.23l-2.115.47-2.817,16.9H70.112l-2.817-16.9-2.115-.47a54.066,54.066,0,0,1-17.406-7.23l-1.826-1.163L31.982,131.83l-9.77-9.772L32.186,108.1l-1.164-1.827a54.084,54.084,0,0,1-7.229-17.406l-.469-2.115L6.418,83.931V70.11l16.906-2.817.469-2.115a54.084,54.084,0,0,1,7.228-17.406l1.164-1.827L22.212,31.982l9.77-9.772,13.965,9.975,1.826-1.163a54.067,54.067,0,0,1,17.406-7.23l2.115-.47,2.817-16.9H83.929l2.817,16.9,2.115.47a54.067,54.067,0,0,1,17.406,7.23l1.826,1.163,13.965-9.975,9.77,9.772-9.974,13.962,1.164,1.827a54.084,54.084,0,0,1,7.228,17.406l.469,2.115,16.906,2.817V83.931l-16.906,2.817Z" fill="#fff"/>
        </g>
      </g>
      <g id="Group_120" data-name="Group 120" transform="translate(44.929 44.929)">
        <g id="Group_119" data-name="Group 119">
          <path id="Path_502" data-name="Path 502" d="M32.092,0A32.092,32.092,0,1,0,64.184,32.092,32.129,32.129,0,0,0,32.092,0Zm0,57.765A25.673,25.673,0,1,1,57.765,32.092,25.7,25.7,0,0,1,32.092,57.765Z" fill="#fff"/>
        </g>
      </g>
    </g>
    <g id="Group_403" data-name="Group 403" transform="translate(-84.178 190.047)">
      <g id="Group_363" data-name="Group 363" transform="translate(205.777 106.863)" opacity="0.4">
        <g id="Group_362" data-name="Group 362">
          <path id="Path_1532" data-name="Path 1532" d="M452.65,230.77v-3.148l81.63-47.084v3.149Z" transform="translate(-452.65 -175.798)" fill="#fff"/>
          <path id="Path_1533" data-name="Path 1533" d="M495.317,178.926v3.149L482.09,189.7v-3.149Z" transform="translate(-395.498 -178.926)" fill="#fff"/>
          <path id="Path_1534" data-name="Path 1534" d="M452.65,232.726v-3.149l81.63-47.084v3.149Z" transform="translate(-452.65 -172.001)" fill="#fff"/>
          <path id="Path_1535" data-name="Path 1535" d="M495.317,184.792v3.148L482.09,195.57v-3.149Z" transform="translate(-395.498 -167.537)" fill="#fff"/>
          <path id="Path_1536" data-name="Path 1536" d="M495.317,186.748V189.9l-13.226,7.629v-3.149Z" transform="translate(-395.498 -163.741)" fill="#fff"/>
          <path id="Path_1537" data-name="Path 1537" d="M495.317,194.57v3.149l-13.226,7.629V202.2Z" transform="translate(-395.498 -148.556)" fill="#fff"/>
          <path id="Path_1538" data-name="Path 1538" d="M495.317,196.525v3.149L482.09,207.3v-3.149Z" transform="translate(-395.498 -144.76)" fill="#fff"/>
          <g id="Group_356" data-name="Group 356" transform="translate(30.132 62.257)">
            <path id="Path_1539" data-name="Path 1539" d="M462.895,229.8l51.5-29.7v3.149l-51.5,29.7Z" transform="translate(-462.895 -200.092)" fill="#fff"/>
          </g>
          <g id="Group_357" data-name="Group 357" transform="translate(0 56.505)">
            <path id="Path_1540" data-name="Path 1540" d="M471.606,213.06l25.874-14.924v3.149l-25.874,14.924Z" transform="translate(-415.85 -198.137)" fill="#fff"/>
            <path id="Path_1541" data-name="Path 1541" d="M505.692,203.743v3.148l-53.042,30.6v-3.149Z" transform="translate(-452.65 -187.253)" fill="#fff"/>
          </g>
          <path id="Path_1542" data-name="Path 1542" d="M459.628,206.91v3.149l-6.978,4.025v-3.149Z" transform="translate(-452.65 -124.6)" fill="#fff"/>
          <path id="Path_1543" data-name="Path 1543" d="M467.933,211.471l36.679-21.156v3.149L467.933,214.62Z" transform="translate(-422.982 -156.817)" fill="#fff"/>
          <g id="Group_358" data-name="Group 358" transform="translate(24.493 1.538)">
            <path id="Path_1544" data-name="Path 1544" d="M460.977,198.352l32.773-18.9V182.6l-32.773,18.9Z" transform="translate(-460.977 -179.449)" fill="#fff"/>
          </g>
          <path id="Path_1545" data-name="Path 1545" d="M467.471,192.87l23.074-13.309v3.149l-23.074,13.309Z" transform="translate(-423.878 -177.694)" fill="#fff"/>
          <g id="Group_359" data-name="Group 359" transform="translate(0 16.741)">
            <path id="Path_1546" data-name="Path 1546" d="M459.241,197.016l21.5-12.4v3.148l-21.5,12.4Z" transform="translate(-439.857 -184.618)" fill="#fff"/>
            <path id="Path_1547" data-name="Path 1547" d="M469.32,189.365v3.149l-16.669,9.615V198.98Z" transform="translate(-452.65 -175.401)" fill="#fff"/>
          </g>
          <path id="Path_1548" data-name="Path 1548" d="M490.428,179.418v3.149l-17.385,10.028v-3.149Z" transform="translate(-413.062 -177.97)" fill="#fff"/>
          <path id="Path_1549" data-name="Path 1549" d="M454.963,212.468l50.465-29.108v3.148l-50.465,29.108Z" transform="translate(-448.161 -170.319)" fill="#fff"/>
          <path id="Path_1550" data-name="Path 1550" d="M464.785,206.012l32.979-19.022v3.149L464.785,209.16Z" transform="translate(-429.092 -163.272)" fill="#fff"/>
          <path id="Path_1551" data-name="Path 1551" d="M454.963,209.088l26.178-15.1v3.149l-26.178,15.1Z" transform="translate(-448.161 -149.684)" fill="#fff"/>
          <g id="Group_360" data-name="Group 360" transform="translate(9.692 56.22)">
            <path id="Path_1552" data-name="Path 1552" d="M455.945,216.812,488.49,198.04v3.149L455.945,219.96Z" transform="translate(-455.945 -198.04)" fill="#fff"/>
          </g>
          <path id="Path_1553" data-name="Path 1553" d="M473.671,202.9v3.149l-17.725,10.224v-3.149Z" transform="translate(-446.253 -132.382)" fill="#fff"/>
          <path id="Path_1554" data-name="Path 1554" d="M478.233,195.952l6.383-3.682v3.149l-6.383,3.682Z" transform="translate(-402.986 -153.02)" fill="#fff"/>
          <g id="Group_361" data-name="Group 361" transform="translate(30.132 44.497)">
            <path id="Path_1555" data-name="Path 1555" d="M496.053,195.867v3.149l-33.159,19.126v-3.149Z" transform="translate(-462.895 -190.536)" fill="#fff"/>
            <path id="Path_1556" data-name="Path 1556" d="M475.091,197.819l6.528-3.765V197.2l-6.528,3.765Z" transform="translate(-439.218 -194.054)" fill="#fff"/>
          </g>
          <path id="Path_1557" data-name="Path 1557" d="M464.98,216.928l36.266-20.918v3.149L464.98,220.077Z" transform="translate(-428.714 -145.761)" fill="#fff"/>
        </g>
      </g>
      <g id="Group_364" data-name="Group 364" transform="translate(205.777 0)" opacity="0.4">
        <path id="Path_1558" data-name="Path 1558" d="M462.61,174.356l54.848-31.762v2.79L462.61,177.147Z" transform="translate(-433.314 -142.594)" fill="#fff"/>
        <path id="Path_1559" data-name="Path 1559" d="M536.794,147.247,452.65,195.916v-2.789l84.144-48.67Z" transform="translate(-452.65 -138.978)" fill="#fff"/>
        <path id="Path_1560" data-name="Path 1560" d="M478.278,154.1v2.79L452.65,171.727v-2.79Z" transform="translate(-452.65 -120.266)" fill="#fff"/>
        <path id="Path_1561" data-name="Path 1561" d="M462.61,177.992l54.848-31.763v2.79L462.61,180.781Z" transform="translate(-433.314 -135.54)" fill="#fff"/>
        <path id="Path_1562" data-name="Path 1562" d="M536.794,150.881,452.65,199.55v-2.789l84.144-48.67Z" transform="translate(-452.65 -131.923)" fill="#fff"/>
        <path id="Path_1563" data-name="Path 1563" d="M478.278,160.519,452.65,175.361v-2.79l25.628-14.841Z" transform="translate(-452.65 -113.211)" fill="#fff"/>
        <path id="Path_1564" data-name="Path 1564" d="M462.61,183.991l54.848-31.763v2.79L462.61,186.781Z" transform="translate(-433.314 -123.892)" fill="#fff"/>
        <path id="Path_1565" data-name="Path 1565" d="M536.794,156.881,452.65,205.55V202.76l84.144-48.669Z" transform="translate(-452.65 -120.276)" fill="#fff"/>
        <path id="Path_1566" data-name="Path 1566" d="M478.278,166.52,452.65,181.36v-2.79l25.628-14.841Z" transform="translate(-452.65 -101.564)" fill="#fff"/>
        <path id="Path_1567" data-name="Path 1567" d="M462.61,187.625l54.848-31.763v2.79L462.61,190.414Z" transform="translate(-433.314 -116.837)" fill="#fff"/>
        <path id="Path_1568" data-name="Path 1568" d="M536.794,160.515,452.65,209.184v-2.789l84.144-48.669Z" transform="translate(-452.65 -113.221)" fill="#fff"/>
        <path id="Path_1569" data-name="Path 1569" d="M478.278,170.153,452.65,184.995V182.2l25.628-14.841Z" transform="translate(-452.65 -94.509)" fill="#fff"/>
        <path id="Path_1570" data-name="Path 1570" d="M462.61,193.624l54.848-31.763v2.79L462.61,196.415Z" transform="translate(-433.314 -105.19)" fill="#fff"/>
        <path id="Path_1571" data-name="Path 1571" d="M536.794,166.515,452.65,215.183v-2.79l84.144-48.669Z" transform="translate(-452.65 -101.573)" fill="#fff"/>
        <path id="Path_1572" data-name="Path 1572" d="M478.278,176.153,452.65,190.994V188.2l25.628-14.841Z" transform="translate(-452.65 -82.862)" fill="#fff"/>
        <path id="Path_1573" data-name="Path 1573" d="M462.61,197.259,517.458,165.5v2.79L462.61,200.048Z" transform="translate(-433.314 -98.135)" fill="#fff"/>
        <path id="Path_1574" data-name="Path 1574" d="M478.278,179.788,452.65,194.628v-2.79L478.278,177Z" transform="translate(-452.65 -75.807)" fill="#fff"/>
      </g>
      <g id="Group_366" data-name="Group 366" transform="translate(411.257 196.791)">
        <g id="Group_365" data-name="Group 365">
          <path id="Path_1575" data-name="Path 1575" d="M522.51,209.5l.079.044.006-.009C522.566,209.521,522.536,209.515,522.51,209.5Z" transform="translate(-522.51 -209.5)" fill="#bbcee1"/>
        </g>
      </g>
      <g id="Group_374" data-name="Group 374" transform="translate(428.261 115.571)" opacity="0.4">
        <g id="Group_373" data-name="Group 373">
          <path id="Path_1576" data-name="Path 1576" d="M570.958,181.887v3.149l-13.227,7.629v-3.149Z" transform="translate(-471.139 -181.887)" fill="#fff"/>
          <path id="Path_1577" data-name="Path 1577" d="M570.958,183.842v3.149l-13.227,7.629v-3.149Z" transform="translate(-471.139 -178.09)" fill="#fff"/>
          <path id="Path_1578" data-name="Path 1578" d="M570.958,185.8v3.149l-13.227,7.629v-3.149Z" transform="translate(-471.139 -174.294)" fill="#fff"/>
          <path id="Path_1579" data-name="Path 1579" d="M528.291,241.553V238.4l81.63-47.084v3.148Z" transform="translate(-528.291 -163.573)" fill="#fff"/>
          <path id="Path_1580" data-name="Path 1580" d="M570.958,187.753V190.9l-13.227,7.629v-3.149Z" transform="translate(-471.139 -170.498)" fill="#fff"/>
          <path id="Path_1581" data-name="Path 1581" d="M570.958,189.709v3.148l-13.227,7.629v-3.149Z" transform="translate(-471.139 -166.702)" fill="#fff"/>
          <path id="Path_1582" data-name="Path 1582" d="M528.291,243.509V240.36l81.63-47.084v3.149Z" transform="translate(-528.291 -159.777)" fill="#fff"/>
          <path id="Path_1583" data-name="Path 1583" d="M570.958,195.575v3.149l-13.227,7.629V203.2Z" transform="translate(-471.139 -155.313)" fill="#fff"/>
          <path id="Path_1584" data-name="Path 1584" d="M570.958,197.53v3.149l-13.227,7.629v-3.149Z" transform="translate(-471.139 -151.517)" fill="#fff"/>
          <path id="Path_1585" data-name="Path 1585" d="M570.958,205.352V208.5l-13.227,7.629v-3.149Z" transform="translate(-471.139 -136.332)" fill="#fff"/>
          <path id="Path_1586" data-name="Path 1586" d="M570.958,207.308v3.149l-13.227,7.629v-3.149Z" transform="translate(-471.139 -132.536)" fill="#fff"/>
          <g id="Group_367" data-name="Group 367" transform="translate(0 85.264)">
            <path id="Path_1587" data-name="Path 1587" d="M538.535,240.579l51.5-29.7v3.148l-51.5,29.7Z" transform="translate(-508.404 -210.875)" fill="#fff"/>
            <path id="Path_1588" data-name="Path 1588" d="M555.708,221.506v3.149l-27.417,15.814V237.32Z" transform="translate(-528.291 -190.236)" fill="#fff"/>
          </g>
          <g id="Group_368" data-name="Group 368" transform="translate(0 79.512)">
            <path id="Path_1589" data-name="Path 1589" d="M547.247,223.843l25.873-14.924v3.149l-25.873,14.924Z" transform="translate(-491.491 -208.919)" fill="#fff"/>
            <path id="Path_1590" data-name="Path 1590" d="M581.333,214.525v3.149l-53.042,30.595V245.12Z" transform="translate(-528.291 -198.036)" fill="#fff"/>
          </g>
          <path id="Path_1591" data-name="Path 1591" d="M535.269,217.692v3.149l-6.977,4.025v-3.149Z" transform="translate(-528.291 -112.376)" fill="#fff"/>
          <path id="Path_1592" data-name="Path 1592" d="M543.574,222.254,580.252,201.1v3.148L543.574,225.4Z" transform="translate(-498.623 -144.592)" fill="#fff"/>
          <path id="Path_1593" data-name="Path 1593" d="M548.683,197.941l21.649-12.488V188.6L548.683,201.09Z" transform="translate(-488.703 -174.962)" fill="#fff"/>
          <g id="Group_369" data-name="Group 369" transform="translate(24.493 24.544)">
            <path id="Path_1594" data-name="Path 1594" d="M536.618,209.135l32.773-18.9v3.149l-32.773,18.9Z" transform="translate(-536.618 -190.231)" fill="#fff"/>
          </g>
          <path id="Path_1595" data-name="Path 1595" d="M543.112,203.652l23.074-13.309v3.149L543.112,206.8Z" transform="translate(-499.519 -165.47)" fill="#fff"/>
          <g id="Group_370" data-name="Group 370" transform="translate(0 39.748)">
            <path id="Path_1596" data-name="Path 1596" d="M534.881,207.8l21.5-12.4v3.149l-21.5,12.4Z" transform="translate(-515.497 -195.4)" fill="#fff"/>
            <path id="Path_1597" data-name="Path 1597" d="M544.961,200.148V203.3l-16.669,9.615v-3.149Z" transform="translate(-528.291 -186.184)" fill="#fff"/>
          </g>
          <path id="Path_1598" data-name="Path 1598" d="M566.069,190.2v3.149l-17.385,10.028v-3.149Z" transform="translate(-488.703 -165.746)" fill="#fff"/>
          <path id="Path_1599" data-name="Path 1599" d="M530.6,223.251l50.465-29.108v3.149L530.6,226.4Z" transform="translate(-523.802 -158.094)" fill="#fff"/>
          <path id="Path_1600" data-name="Path 1600" d="M540.426,216.794l32.979-19.022v3.149l-32.979,19.023Z" transform="translate(-504.733 -151.048)" fill="#fff"/>
          <path id="Path_1601" data-name="Path 1601" d="M530.6,219.871l26.178-15.1v3.148l-26.178,15.1Z" transform="translate(-523.802 -137.46)" fill="#fff"/>
          <g id="Group_371" data-name="Group 371" transform="translate(9.692 79.227)">
            <path id="Path_1602" data-name="Path 1602" d="M531.586,227.594l32.544-18.772v3.149l-32.544,18.772Z" transform="translate(-531.586 -208.822)" fill="#fff"/>
          </g>
          <path id="Path_1603" data-name="Path 1603" d="M549.312,213.684v3.148l-17.725,10.224v-3.148Z" transform="translate(-521.894 -120.157)" fill="#fff"/>
          <path id="Path_1604" data-name="Path 1604" d="M553.874,206.735l6.383-3.682V206.2l-6.383,3.682Z" transform="translate(-478.627 -140.796)" fill="#fff"/>
          <g id="Group_372" data-name="Group 372" transform="translate(30.132 67.504)">
            <path id="Path_1605" data-name="Path 1605" d="M571.694,206.649V209.8l-33.159,19.126v-3.149Z" transform="translate(-538.535 -201.318)" fill="#fff"/>
            <path id="Path_1606" data-name="Path 1606" d="M550.732,208.6l6.528-3.765v3.149l-6.528,3.765Z" transform="translate(-514.858 -204.837)" fill="#fff"/>
          </g>
          <path id="Path_1607" data-name="Path 1607" d="M540.621,227.711l36.267-20.918v3.148l-36.267,20.919Z" transform="translate(-504.355 -133.536)" fill="#fff"/>
        </g>
      </g>
      <path id="Path_1608" data-name="Path 1608" d="M430.411,211.675l40.973-23.642a3,3,0,0,1,4.5,2.6v49.047a6.693,6.693,0,0,1-3.341,5.792l-40.967,23.683a3.076,3.076,0,0,1-4.615-2.662V217.652A6.9,6.9,0,0,1,430.411,211.675Z" transform="translate(-296.751 -55.171)" fill="#fff" opacity="0.2"/>
      <path id="Path_1683" data-name="Path 1683" d="M430.411,211.675l40.973-23.642a3,3,0,0,1,4.5,2.6v49.047a6.693,6.693,0,0,1-3.341,5.792l-40.967,23.683a3.076,3.076,0,0,1-4.615-2.662V217.652A6.9,6.9,0,0,1,430.411,211.675Z" transform="translate(-91.339 -176.632)" fill="#fff" opacity="0.2"/>
      <path id="Path_1609" data-name="Path 1609" d="M411.387,179.445l40.973-23.639a3,3,0,0,1,4.5,2.6v49.047a6.7,6.7,0,0,1-3.341,5.791l-40.967,23.684a3.076,3.076,0,0,1-4.615-2.662V185.422A6.9,6.9,0,0,1,411.387,179.445Z" transform="translate(-333.683 -117.734)" fill="#fff" opacity="0.2"/>
      <path id="Path_1610" data-name="Path 1610" d="M489.623,225.6,530.6,201.962a3,3,0,0,1,4.5,2.6v49.044a6.689,6.689,0,0,1-3.341,5.791l-40.97,23.686a3.073,3.073,0,0,1-4.612-2.662V231.581A6.9,6.9,0,0,1,489.623,225.6Z" transform="translate(-181.801 -28.13)" fill="#fff" opacity="0.2"/>
      <g id="Group_377" data-name="Group 377" transform="translate(436.567 214.398)">
        <g id="Group_376" data-name="Group 376">
          <path id="Path_1612" data-name="Path 1612" d="M534.936,215.486m-3.821,6.633" transform="translate(-531.115 -215.486)" fill="#0b3b56"/>
        </g>
      </g>
      <g id="Group_378" data-name="Group 378" transform="translate(38.091 458.119)">
        <path id="Path_1613" data-name="Path 1613" d="M395.64,298.347" transform="translate(-395.64 -298.347)" fill="#fff"/>
      </g>
      <g id="Group_380" data-name="Group 380" transform="translate(51.215 390.213)">
        <g id="Group_379" data-name="Group 379">
          <path id="Path_1614" data-name="Path 1614" d="M400.1,275.26l.079.047.006-.012C400.161,275.281,400.128,275.275,400.1,275.26Z" transform="translate(-400.102 -275.26)" fill="#bbcee1"/>
        </g>
      </g>
      <g id="Group_382" data-name="Group 382" transform="translate(169.374 261.739)">
        <g id="Group_381" data-name="Group 381">
          <path id="Path_1615" data-name="Path 1615" d="M440.274,231.581l.079.047.006-.012C440.333,231.6,440.3,231.6,440.274,231.581Z" transform="translate(-440.274 -231.581)" fill="#bbcee1"/>
        </g>
      </g>
      <g id="Group_384" data-name="Group 384" transform="translate(287.012 136.268)">
        <g id="Group_383" data-name="Group 383">
          <path id="Path_1616" data-name="Path 1616" d="M480.269,188.923l.077.044.009-.009C480.328,188.944,480.3,188.938,480.269,188.923Z" transform="translate(-480.269 -188.923)" fill="#bbcee1"/>
        </g>
      </g>
      <g id="Group_386" data-name="Group 386" transform="translate(428.419 231.611)">
        <g id="Group_385" data-name="Group 385">
          <path id="Path_1617" data-name="Path 1617" d="M528.713,223.9l4.356-2.515a.319.319,0,0,1,.479.276v5.215a.714.714,0,0,1-.356.618l-4.356,2.518a.326.326,0,0,1-.491-.282v-5.194A.728.728,0,0,1,528.713,223.9Z" transform="translate(-528.345 -221.338)" fill="#ebf2eb"/>
          <path id="Path_1618" data-name="Path 1618" d="M528.713,226.55l4.356-2.515a.319.319,0,0,1,.479.277v5.215a.71.71,0,0,1-.356.618l-4.356,2.518a.326.326,0,0,1-.491-.282v-5.194A.729.729,0,0,1,528.713,226.55Z" transform="translate(-528.345 -216.188)" fill="#ebf2eb"/>
          <path id="Path_1619" data-name="Path 1619" d="M528.713,229.2l4.356-2.515a.32.32,0,0,1,.479.277v5.218a.709.709,0,0,1-.356.615l-4.356,2.521a.328.328,0,0,1-.491-.285v-5.194A.732.732,0,0,1,528.713,229.2Z" transform="translate(-528.345 -211.037)" fill="#ebf2eb"/>
          <path id="Path_1620" data-name="Path 1620" d="M528.713,231.855l4.356-2.515a.321.321,0,0,1,.479.277v5.218a.709.709,0,0,1-.356.615l-4.356,2.521a.327.327,0,0,1-.491-.285V232.49A.732.732,0,0,1,528.713,231.855Z" transform="translate(-528.345 -205.886)" fill="#ebf2eb"/>
        </g>
      </g>
      <g id="Group_394" data-name="Group 394" transform="translate(124.263 261.825)" opacity="0.4">
        <g id="Group_393" data-name="Group 393">
          <path id="Path_1621" data-name="Path 1621" d="M467.6,231.61v3.148l-13.227,7.629v-3.149Z" transform="translate(-367.785 -231.61)" fill="#fff"/>
          <path id="Path_1622" data-name="Path 1622" d="M467.6,233.566v3.149l-13.227,7.629v-3.149Z" transform="translate(-367.785 -227.814)" fill="#fff"/>
          <path id="Path_1623" data-name="Path 1623" d="M467.6,235.521v3.149L454.377,246.3V243.15Z" transform="translate(-367.785 -224.018)" fill="#fff"/>
          <path id="Path_1624" data-name="Path 1624" d="M424.937,291.276v-3.149l81.63-47.084v3.149Z" transform="translate(-424.937 -213.297)" fill="#fff"/>
          <path id="Path_1625" data-name="Path 1625" d="M467.6,237.477v3.149l-13.227,7.629v-3.149Z" transform="translate(-367.785 -220.222)" fill="#fff"/>
          <path id="Path_1626" data-name="Path 1626" d="M467.6,239.432v3.149l-13.227,7.629v-3.149Z" transform="translate(-367.785 -216.425)" fill="#fff"/>
          <path id="Path_1627" data-name="Path 1627" d="M424.937,293.232v-3.149L506.567,243v3.148Z" transform="translate(-424.937 -209.501)" fill="#fff"/>
          <path id="Path_1628" data-name="Path 1628" d="M467.6,245.3v3.149l-13.227,7.629v-3.149Z" transform="translate(-367.785 -205.037)" fill="#fff"/>
          <path id="Path_1629" data-name="Path 1629" d="M467.6,247.254V250.4l-13.227,7.629v-3.149Z" transform="translate(-367.785 -201.241)" fill="#fff"/>
          <path id="Path_1630" data-name="Path 1630" d="M467.6,255.076v3.149l-13.227,7.629V262.7Z" transform="translate(-367.785 -186.056)" fill="#fff"/>
          <path id="Path_1631" data-name="Path 1631" d="M467.6,257.031v3.149l-13.227,7.629V264.66Z" transform="translate(-367.785 -182.259)" fill="#fff"/>
          <g id="Group_387" data-name="Group 387" transform="translate(0 85.263)">
            <path id="Path_1632" data-name="Path 1632" d="M435.181,290.3l51.5-29.7v3.149l-51.5,29.7Z" transform="translate(-405.049 -260.598)" fill="#fff"/>
            <path id="Path_1633" data-name="Path 1633" d="M452.354,271.229v3.149l-27.417,15.814v-3.149Z" transform="translate(-424.937 -239.959)" fill="#fff"/>
          </g>
          <g id="Group_388" data-name="Group 388" transform="translate(0 79.511)">
            <path id="Path_1634" data-name="Path 1634" d="M443.893,273.567l25.874-14.924v3.149l-25.874,14.924Z" transform="translate(-388.137 -258.643)" fill="#fff"/>
            <path id="Path_1635" data-name="Path 1635" d="M477.979,264.249V267.4l-53.042,30.595v-3.149Z" transform="translate(-424.937 -247.759)" fill="#fff"/>
          </g>
          <path id="Path_1636" data-name="Path 1636" d="M431.914,267.416v3.149l-6.977,4.025V271.44Z" transform="translate(-424.937 -162.1)" fill="#fff"/>
          <path id="Path_1637" data-name="Path 1637" d="M440.22,271.977,476.9,250.821v3.149L440.22,275.126Z" transform="translate(-395.268 -194.316)" fill="#fff"/>
          <path id="Path_1638" data-name="Path 1638" d="M445.329,247.664l21.65-12.487v3.149l-21.65,12.488Z" transform="translate(-385.349 -224.686)" fill="#fff"/>
          <g id="Group_389" data-name="Group 389" transform="translate(24.493 24.544)">
            <path id="Path_1639" data-name="Path 1639" d="M433.264,258.858l32.773-18.9V243.1l-32.773,18.9Z" transform="translate(-433.264 -239.955)" fill="#fff"/>
          </g>
          <path id="Path_1640" data-name="Path 1640" d="M439.758,253.376l23.074-13.31v3.149l-23.074,13.309Z" transform="translate(-396.164 -215.194)" fill="#fff"/>
          <g id="Group_390" data-name="Group 390" transform="translate(0 39.748)">
            <path id="Path_1641" data-name="Path 1641" d="M431.527,257.522l21.5-12.4v3.149l-21.5,12.4Z" transform="translate(-412.143 -245.124)" fill="#fff"/>
            <path id="Path_1642" data-name="Path 1642" d="M441.607,249.871v3.149l-16.67,9.615v-3.148Z" transform="translate(-424.937 -235.907)" fill="#fff"/>
          </g>
          <path id="Path_1643" data-name="Path 1643" d="M462.715,239.924v3.149L445.329,253.1v-3.149Z" transform="translate(-385.349 -215.47)" fill="#fff"/>
          <path id="Path_1644" data-name="Path 1644" d="M427.249,272.974l50.465-29.108v3.149l-50.465,29.108Z" transform="translate(-420.448 -207.818)" fill="#fff"/>
          <path id="Path_1645" data-name="Path 1645" d="M437.072,266.518,470.051,247.5v3.149l-32.979,19.023Z" transform="translate(-401.379 -200.772)" fill="#fff"/>
          <path id="Path_1646" data-name="Path 1646" d="M427.249,269.595l26.178-15.1v3.149l-26.178,15.1Z" transform="translate(-420.448 -187.184)" fill="#fff"/>
          <g id="Group_391" data-name="Group 391" transform="translate(9.692 79.227)">
            <path id="Path_1647" data-name="Path 1647" d="M428.232,277.318l32.545-18.772v3.149l-32.545,18.772Z" transform="translate(-428.232 -258.546)" fill="#fff"/>
          </g>
          <path id="Path_1648" data-name="Path 1648" d="M445.957,263.407v3.149l-17.725,10.224v-3.149Z" transform="translate(-418.54 -169.881)" fill="#fff"/>
          <path id="Path_1649" data-name="Path 1649" d="M450.52,256.458l6.383-3.682v3.149l-6.383,3.682Z" transform="translate(-375.273 -190.52)" fill="#fff"/>
          <g id="Group_392" data-name="Group 392" transform="translate(30.132 67.504)">
            <path id="Path_1650" data-name="Path 1650" d="M468.34,256.373v3.149l-33.159,19.126V275.5Z" transform="translate(-435.181 -251.042)" fill="#fff"/>
            <path id="Path_1651" data-name="Path 1651" d="M447.377,258.326l6.528-3.765v3.149l-6.528,3.765Z" transform="translate(-411.504 -254.56)" fill="#fff"/>
          </g>
          <path id="Path_1652" data-name="Path 1652" d="M437.267,277.435l36.266-20.919v3.149l-36.266,20.918Z" transform="translate(-401.001 -183.26)" fill="#fff"/>
        </g>
      </g>
      <g id="Group_402" data-name="Group 402" transform="translate(0 140.62)" opacity="0.4">
        <g id="Group_401" data-name="Group 401" transform="translate(0)">
          <path id="Path_1653" data-name="Path 1653" d="M426.267,164.594v3.149l-13.226,7.629v-3.149Z" transform="translate(-326.448 -164.594)" fill="#fff"/>
          <path id="Path_1654" data-name="Path 1654" d="M426.267,166.549V169.7l-13.226,7.629v-3.149Z" transform="translate(-326.448 -160.797)" fill="#fff"/>
          <path id="Path_1655" data-name="Path 1655" d="M426.267,168.5v3.149l-13.226,7.629v-3.149Z" transform="translate(-326.448 -157.001)" fill="#fff"/>
          <path id="Path_1656" data-name="Path 1656" d="M383.6,224.26v-3.149l81.63-47.084v3.149Z" transform="translate(-383.601 -146.281)" fill="#fff"/>
          <path id="Path_1657" data-name="Path 1657" d="M426.267,170.46v3.149l-13.226,7.629v-3.149Z" transform="translate(-326.448 -153.205)" fill="#fff"/>
          <path id="Path_1658" data-name="Path 1658" d="M426.267,172.416v3.149l-13.226,7.629v-3.149Z" transform="translate(-326.448 -149.409)" fill="#fff"/>
          <path id="Path_1659" data-name="Path 1659" d="M383.6,226.215v-3.148l81.63-47.084v3.149Z" transform="translate(-383.601 -142.484)" fill="#fff"/>
          <path id="Path_1660" data-name="Path 1660" d="M426.267,178.282v3.149l-13.226,7.629v-3.148Z" transform="translate(-326.448 -138.02)" fill="#fff"/>
          <path id="Path_1661" data-name="Path 1661" d="M426.267,180.238v3.149l-13.226,7.629v-3.149Z" transform="translate(-326.448 -134.224)" fill="#fff"/>
          <path id="Path_1662" data-name="Path 1662" d="M426.267,188.059v3.149l-13.226,7.629v-3.149Z" transform="translate(-326.448 -119.039)" fill="#fff"/>
          <path id="Path_1663" data-name="Path 1663" d="M426.267,190.015v3.149l-13.226,7.629v-3.149Z" transform="translate(-326.448 -115.243)" fill="#fff"/>
          <g id="Group_395" data-name="Group 395" transform="translate(30.132 85.264)">
            <path id="Path_1664" data-name="Path 1664" d="M393.845,223.286l51.5-29.7v3.148l-51.5,29.7Z" transform="translate(-393.845 -193.582)" fill="#fff"/>
          </g>
          <g id="Group_396" data-name="Group 396" transform="translate(55.757 79.512)">
            <path id="Path_1665" data-name="Path 1665" d="M402.557,206.55l25.873-14.924v3.149L402.557,209.7Z" transform="translate(-402.557 -191.626)" fill="#fff"/>
          </g>
          <path id="Path_1666" data-name="Path 1666" d="M390.578,200.4v3.148l-6.978,4.025v-3.149Z" transform="translate(-383.601 -95.083)" fill="#fff"/>
          <path id="Path_1667" data-name="Path 1667" d="M398.883,204.961,435.562,183.8v3.148L398.883,208.11Z" transform="translate(-353.932 -127.299)" fill="#fff"/>
          <path id="Path_1668" data-name="Path 1668" d="M403.993,180.648l21.649-12.488v3.149L403.993,183.8Z" transform="translate(-344.012 -157.669)" fill="#fff"/>
          <g id="Group_397" data-name="Group 397" transform="translate(24.493 24.544)">
            <path id="Path_1669" data-name="Path 1669" d="M391.928,191.842l32.773-18.9v3.149l-32.773,18.9Z" transform="translate(-391.928 -172.938)" fill="#fff"/>
          </g>
          <path id="Path_1670" data-name="Path 1670" d="M398.422,186.359,421.5,173.05V176.2l-23.074,13.309Z" transform="translate(-354.828 -148.177)" fill="#fff"/>
          <g id="Group_398" data-name="Group 398" transform="translate(0 39.748)">
            <path id="Path_1671" data-name="Path 1671" d="M390.191,190.506l21.5-12.4v3.149l-21.5,12.4Z" transform="translate(-370.807 -178.107)" fill="#fff"/>
            <path id="Path_1672" data-name="Path 1672" d="M400.27,182.855V186l-16.67,9.615V192.47Z" transform="translate(-383.601 -168.891)" fill="#fff"/>
          </g>
          <path id="Path_1673" data-name="Path 1673" d="M421.378,172.908v3.148l-17.385,10.028v-3.149Z" transform="translate(-344.012 -148.453)" fill="#fff"/>
          <path id="Path_1674" data-name="Path 1674" d="M385.913,205.957l50.465-29.108V180l-50.465,29.108Z" transform="translate(-379.112 -140.801)" fill="#fff"/>
          <path id="Path_1675" data-name="Path 1675" d="M395.736,199.5l32.979-19.022v3.149L395.736,202.65Z" transform="translate(-360.042 -133.755)" fill="#fff"/>
          <path id="Path_1676" data-name="Path 1676" d="M385.913,202.578l26.178-15.1v3.148l-26.178,15.1Z" transform="translate(-379.112 -120.167)" fill="#fff"/>
          <g id="Group_399" data-name="Group 399" transform="translate(9.692 79.227)">
            <path id="Path_1677" data-name="Path 1677" d="M386.9,210.3,419.44,191.53v3.149L386.9,213.45Z" transform="translate(-386.896 -191.53)" fill="#fff"/>
          </g>
          <path id="Path_1678" data-name="Path 1678" d="M404.621,196.391v3.148L386.9,209.764v-3.148Z" transform="translate(-377.204 -102.864)" fill="#fff"/>
          <path id="Path_1679" data-name="Path 1679" d="M409.183,189.442l6.383-3.682v3.149l-6.383,3.682Z" transform="translate(-333.936 -123.503)" fill="#fff"/>
          <g id="Group_400" data-name="Group 400" transform="translate(30.132 67.504)">
            <path id="Path_1680" data-name="Path 1680" d="M427,189.356v3.149l-33.159,19.126v-3.149Z" transform="translate(-393.845 -184.026)" fill="#fff"/>
            <path id="Path_1681" data-name="Path 1681" d="M406.041,191.309l6.527-3.765v3.148l-6.527,3.766Z" transform="translate(-370.168 -187.544)" fill="#fff"/>
          </g>
          <path id="Path_1682" data-name="Path 1682" d="M395.931,210.418,432.2,189.5v3.148l-36.266,20.919Z" transform="translate(-359.664 -116.243)" fill="#fff"/>
        </g>
      </g>
    </g>
    <g id="Group_234" data-name="Group 234" transform="translate(222.535 408.102)">
      <g id="Group_168" data-name="Group 168" transform="translate(0 0)">
        <g id="Group_166" data-name="Group 166">
          <g id="Group_165" data-name="Group 165">
            <path id="Path_743" data-name="Path 743" d="M401.836,253.744l104.633-60.377c3.2-1.845,6.869-1.764,10.472.418v-.006l22.973,13.268L529.236,221.53l-3.982,4.56V329.75a17.29,17.29,0,0,1-8.633,14.97l-78.309,45.27-.8,4.354-15.984,22.394-24.577-14.448-.12-.074-.166-.092v-.017a7.848,7.848,0,0,1-3.747-6.732l-.006-126.185A17.82,17.82,0,0,1,401.836,253.744Z" transform="translate(-392.91 -192.06)" fill="#00dd05"/>
            <path id="Path_744" data-name="Path 744" d="M406.1,256.626l105.865-61.088a7.748,7.748,0,0,1,11.618,6.714V328.971a17.281,17.281,0,0,1-8.633,14.964L409.1,405.137a7.947,7.947,0,0,1-11.922-6.88V272.066A17.812,17.812,0,0,1,406.1,256.626Z" transform="translate(-372.717 -180.562)" fill="#00a508"/>
          </g>
        </g>
        <g id="Group_167" data-name="Group 167" transform="translate(0 71.28)">
          <path id="Path_746" data-name="Path 746" d="M417.372,350.916V224.725a17.587,17.587,0,0,1,1.209-6.078L394.027,204.5a17.675,17.675,0,0,0-1.117,5.849l.006,126.185a7.848,7.848,0,0,0,3.747,6.732v.017l.166.092.12.074,24.371,14.322A7.856,7.856,0,0,1,417.372,350.916Z" transform="translate(-392.91 -204.502)" fill="#006602"/>
        </g>
      </g>
      <g id="Group_178" data-name="Group 178" transform="translate(49.166 66.808)">
        <path id="Path_759" data-name="Path 759" d="M426.131,204.957c1.163,1.192,1.724,3.506,1.73,6.915l.046,15.147v.384c.006,2.882.934,4.423,2.767,4.629s4.474-.676,7.866-2.635l.029,10.541a26.555,26.555,0,0,0-7.849,6.468,12.993,12.993,0,0,0-2.738,8.227l.046,14.97a21.317,21.317,0,0,1-1.69,8.931,22.514,22.514,0,0,1-5.4,7.27,56.672,56.672,0,0,1-10.238,7.213l-.029-9.98a16.772,16.772,0,0,0,5.712-5.093,11.377,11.377,0,0,0,1.484-5.958l-.04-14.334v-.567c-.017-5.723,3.122-10.914,9.481-15.68l-.006-.561c-6.267,2.567-9.43.8-9.539-5.259l-.04-14.334c-.006-2.32-.533-3.707-1.541-4.217s-2.91.029-5.695,1.53l-.029-9.98c4.28-2.469,7.677-4.01,10.186-4.577C423.181,203.416,424.991,203.748,426.131,204.957Z" transform="translate(-359.097 -203.721)" fill="#fff"/>
        <path id="Path_760" data-name="Path 760" d="M409.346,253.616a12.364,12.364,0,0,0,2.675-7.768v-.39l-.046-15.142a20.352,20.352,0,0,1,3.884-12.592c2.6-3.5,7.087-7.081,13.509-10.788l.029,9.98a16.857,16.857,0,0,0-5.718,5.053,11.2,11.2,0,0,0-1.484,5.964l.046,14.334q-.163,9.281-9.573,16.3v.561c3.122-1.237,5.511-1.5,7.138-.7,1.656.8,2.486,2.607,2.492,5.488l.006.424.04,14.334c.005,2.32.5,3.758,1.512,4.268,1.008.47,2.939-.046,5.723-1.547l.029,9.98c-6.393,3.69-10.891,5.265-13.526,4.784-2.607-.5-3.93-3.191-3.942-8.106l-.046-14.97c-.005-3.128-.934-4.812-2.71-5.087-1.8-.258-4.405.607-7.866,2.607l-.029-10.541A26.745,26.745,0,0,0,409.346,253.616Z" transform="translate(-401.492 -188.515)" fill="#fff"/>
      </g>
    </g>
    <g id="Group_349" data-name="Group 349" transform="translate(53.071 505.103)">
      <g id="Group_348" data-name="Group 348" transform="translate(0)">
        <g id="Group_278" data-name="Group 278">
          <g id="Group_276" data-name="Group 276">
            <g id="Group_275" data-name="Group 275">
              <path id="Path_1239" data-name="Path 1239" d="M30.2,300.359l109.072-62.939c3.332-1.923,7.16-1.839,10.917.43h0l23.948,13.825-11.132,15.1-4.15,4.754V379.589a18.026,18.026,0,0,1-9,15.6l-81.631,47.2-.836,4.539L50.728,470.268,25.108,455.2l-.125-.072-.173-.1v-.012A8.188,8.188,0,0,1,20.9,448L20.9,316.454A18.573,18.573,0,0,1,30.2,300.359Z" transform="translate(-20.898 -236.058)" fill="#ffc73b"/>
              <path id="Path_1240" data-name="Path 1240" d="M34.466,303.259l110.356-63.679a8.078,8.078,0,0,1,12.111,7v132.1a18.014,18.014,0,0,1-9,15.6L37.6,458.07A8.281,8.281,0,0,1,25.168,450.9V319.359A18.577,18.577,0,0,1,34.466,303.259Z" transform="translate(0.332 -223.973)" fill="#f9b800"/>
            </g>
          </g>
          <g id="Group_277" data-name="Group 277" transform="translate(0 74.305)">
            <path id="Path_1241" data-name="Path 1241" d="M25.867,275.26l.155.1.018-.024C25.98,275.3,25.921,275.29,25.867,275.26Z" transform="translate(3.808 -115.45)" fill="#bbcee1"/>
            <path id="Path_1242" data-name="Path 1242" d="M46.4,401.125V269.581a18.34,18.34,0,0,1,1.26-6.342L22.063,248.5a18.356,18.356,0,0,0-1.165,6.091L20.9,386.136a8.188,8.188,0,0,0,3.906,7.017v.012l.173.1.125.072,25.4,14.936A8.2,8.2,0,0,1,46.4,401.125Z" transform="translate(-20.898 -248.5)" fill="#ce8900"/>
          </g>
        </g>
        <g id="Group_293" data-name="Group 293" transform="translate(39.499 95.046)">
          <path id="Path_1261" data-name="Path 1261" d="M73.449,257.66l-34.185,37.12-.026-9.459L62.8,260.533,39.171,261.6l-.027-9.517,34.29-.112Z" transform="translate(30.319 -251.973)" fill="#fff"/>
          <path id="Path_1262" data-name="Path 1262" d="M62.325,300.049l-9.539,5.508L33.8,258.464l9.565-5.522Z" transform="translate(3.744 -247.154)" fill="#fff"/>
          <path id="Path_1263" data-name="Path 1263" d="M61.716,255.4l.027,9.518L38.161,291.107l23.649-2.469.026,9.459-34.308,2.424-.016-5.687Z" transform="translate(-27.512 -234.932)" fill="#fff"/>
        </g>
      </g>
    </g>
    <g id="gear-2" data-name="gear" transform="matrix(0.978, 0.208, -0.208, 0.978, 382.327, 0.294)" opacity="0.2">
      <g id="Group_118-2" data-name="Group 118">
        <g id="Group_117-2" data-name="Group 117">
          <path id="Path_501-2" data-name="Path 501" d="M154.041,89.365V64.676L136,61.667a60.4,60.4,0,0,0-6.432-15.485l10.64-14.9L122.751,13.83l-14.9,10.64a60.287,60.287,0,0,0-15.483-6.434L89.367,0H64.674L61.669,18.036A60.287,60.287,0,0,0,46.185,24.47L31.29,13.83,13.829,31.286l10.64,14.9a60.4,60.4,0,0,0-6.432,15.485L0,64.676V89.365l18.036,3.009a60.4,60.4,0,0,0,6.432,15.485l-10.64,14.9L31.29,140.211l14.9-10.64A60.288,60.288,0,0,0,61.669,136l3.005,18.036H89.367L92.372,136a60.288,60.288,0,0,0,15.483-6.434l14.9,10.64,17.461-17.456-10.64-14.9A60.4,60.4,0,0,0,136,92.374Zm-23.793-.5a54.083,54.083,0,0,1-7.228,17.406l-1.164,1.827,9.974,13.962-9.77,9.772-13.965-9.975-1.826,1.163a54.067,54.067,0,0,1-17.406,7.23l-2.115.47-2.817,16.9H70.112l-2.817-16.9-2.115-.47a54.066,54.066,0,0,1-17.406-7.23l-1.826-1.163L31.982,131.83l-9.77-9.772L32.186,108.1l-1.164-1.827a54.084,54.084,0,0,1-7.229-17.406l-.469-2.115L6.418,83.931V70.11l16.906-2.817.469-2.115a54.084,54.084,0,0,1,7.228-17.406l1.164-1.827L22.212,31.982l9.77-9.772,13.965,9.975,1.826-1.163a54.067,54.067,0,0,1,17.406-7.23l2.115-.47,2.817-16.9H83.929l2.817,16.9,2.115.47a54.067,54.067,0,0,1,17.406,7.23l1.826,1.163,13.965-9.975,9.77,9.772-9.974,13.962,1.164,1.827a54.084,54.084,0,0,1,7.228,17.406l.469,2.115,16.906,2.817V83.931l-16.906,2.817Z" fill="#fff"/>
        </g>
      </g>
      <g id="Group_120-2" data-name="Group 120" transform="translate(44.929 44.929)">
        <g id="Group_119-2" data-name="Group 119">
          <path id="Path_502-2" data-name="Path 502" d="M32.092,0A32.092,32.092,0,1,0,64.184,32.092,32.129,32.129,0,0,0,32.092,0Zm0,57.765A25.673,25.673,0,1,1,57.765,32.092,25.7,25.7,0,0,1,32.092,57.765Z" fill="#fff"/>
        </g>
      </g>
    </g>
    <g id="binaryTree" transform="translate(12.22 56.89) rotate(22)" opacity="0.2">
      <path id="Path_518" data-name="Path 518" d="M110.643,93.784,94.489,67.406A10.5,10.5,0,0,0,91,47a10.373,10.373,0,0,0-4.86,1.251L66.2,17.145a10.492,10.492,0,1,0-15.522.833L31.948,47.221A10.349,10.349,0,0,0,29.814,47a10.491,10.491,0,0,0-3.289,20.464L10.918,92.937c-.137,0-.259-.041-.4-.041a10.572,10.572,0,1,0,3.929.777L29.928,68.418,45.809,94.336a10.474,10.474,0,1,0,3.648-.554L33.3,67.4A10.446,10.446,0,0,0,35.158,48.51L53.473,19.928a10.239,10.239,0,0,0,10.157-.5L83.4,50.29a10.438,10.438,0,0,0,4.307,17.175l-15.6,25.474c-.139,0-.259-.041-.4-.041a10.564,10.564,0,1,0,3.935.777L91.117,68.418,107,94.337a10.482,10.482,0,1,0,3.646-.553Zm-93,9.636A7.123,7.123,0,1,1,10.522,96.3,7.129,7.129,0,0,1,17.645,103.419Zm38.607.853a7.12,7.12,0,1,1-7.118-7.118A7.123,7.123,0,0,1,56.252,104.273ZM29.812,64.645a7.12,7.12,0,1,1,7.123-7.123A7.126,7.126,0,0,1,29.812,64.645ZM78.83,103.419A7.117,7.117,0,1,1,71.709,96.3,7.127,7.127,0,0,1,78.83,103.419ZM50.977,10.526A7.122,7.122,0,1,1,58.1,17.648,7.126,7.126,0,0,1,50.977,10.526Zm32.908,47A7.118,7.118,0,1,1,91,64.645,7.125,7.125,0,0,1,83.885,57.523Zm26.442,53.868a7.118,7.118,0,1,1,7.114-7.118A7.126,7.126,0,0,1,110.327,111.391Z" transform="translate(0 0)" fill="#fff"/>
    </g>
    <g id="Group_355" data-name="Group 355" transform="translate(35.111 258.727)">
      <path id="Path_1518" data-name="Path 1518" d="M145.464,171.1v6.737l-28.3,16.322v-6.737Z" transform="translate(5.424 -36.534)" fill="#fff"/>
      <path id="Path_1519" data-name="Path 1519" d="M145.464,173.06V179.8l-28.3,16.323v-6.737Z" transform="translate(5.424 -26.183)" fill="#fff"/>
      <path id="Path_1520" data-name="Path 1520" d="M145.464,175.015v6.736l-28.3,16.323v-6.737Z" transform="translate(5.424 -15.833)" fill="#fff"/>
      <line id="Line_1" data-name="Line 1" y2="6.737" transform="translate(111.971 193.935)" fill="#fff"/>
      <path id="Path_1521" data-name="Path 1521" d="M145.464,176.97v6.737l-28.3,16.323v-6.737Z" transform="translate(5.424 -5.483)" fill="#fff"/>
      <path id="Path_1522" data-name="Path 1522" d="M145.464,178.926v6.737l-28.3,16.322v-6.737Z" transform="translate(5.424 4.868)" fill="#fff"/>
      <line id="Line_2" data-name="Line 2" y2="6.737" transform="translate(111.971 206.241)" fill="#fff"/>
      <path id="Path_1523" data-name="Path 1523" d="M145.464,184.792v6.736l-28.3,16.323v-6.737Z" transform="translate(5.424 35.92)" fill="#fff"/>
      <line id="Line_3" data-name="Line 3" y2="6.737" transform="translate(111.971 255.464)" fill="#fff"/>
      <line id="Line_4" data-name="Line 4" y2="6.737" transform="translate(79.96 187.787)" fill="#fff"/>
      <line id="Line_5" data-name="Line 5" y2="6.737" transform="translate(84.249 234.537)" fill="#fff"/>
      <path id="Path_1524" data-name="Path 1524" d="M97.685,153.393" transform="translate(-97.685 -130.28)" fill="#fff"/>
      <line id="Line_6" data-name="Line 6" y2="5.97" transform="translate(117.351 27.505)" fill="#fff"/>
      <line id="Line_7" data-name="Line 7" y2="5.969" transform="translate(117.351 38.651)" fill="#fff"/>
      <line id="Line_8" data-name="Line 8" y2="5.969" transform="translate(117.351 50.374)" fill="#fff"/>
      <line id="Line_9" data-name="Line 9" y2="5.968" transform="translate(117.351 76.408)" fill="#fff"/>
      <line id="Line_10" data-name="Line 10" y2="5.969" transform="translate(117.351 88.132)" fill="#fff"/>
      <line id="Line_11" data-name="Line 11" y2="5.97" transform="translate(117.351 99.277)" fill="#fff"/>
      <line id="Line_12" data-name="Line 12" y2="5.97" transform="translate(117.351 111)" fill="#fff"/>
      <g id="Group_353" data-name="Group 353" transform="translate(79.859)">
        <g id="Group_351" data-name="Group 351">
          <g id="Group_350" data-name="Group 350">
            <path id="Path_1525" data-name="Path 1525" d="M120.18,217.483l114.93-66.329c3.518-2.02,7.552-1.938,11.5.459h.006l25.235,14.569-11.73,15.909-4.374,5.016V300.973a18.989,18.989,0,0,1-9.49,16.438l-86.02,49.734-.881,4.783L141.809,396.52l-27-15.871-.139-.075-.182-.107v-.013a8.628,8.628,0,0,1-4.116-7.394V234.442A19.572,19.572,0,0,1,120.18,217.483Z" transform="translate(-110.375 -149.72)" fill="#f94848"/>
            <path id="Path_1526" data-name="Path 1526" d="M124.449,220.4l116.29-67.1a8.513,8.513,0,0,1,12.762,7.375v139.2a18.983,18.983,0,0,1-9.484,16.438L127.74,383.54a8.725,8.725,0,0,1-13.09-7.552l-.006-138.624A19.572,19.572,0,0,1,124.449,220.4Z" transform="translate(-87.779 -136.853)" fill="#f70000"/>
          </g>
        </g>
        <g id="Group_352" data-name="Group 352" transform="translate(0 78.297)">
          <path id="Path_1527" data-name="Path 1527" d="M115.344,188.923l.164.094.013-.019C115.464,188.967,115.4,188.954,115.344,188.923Z" transform="translate(-84.074 -20.514)" fill="#bbcee1"/>
          <path id="Path_1528" data-name="Path 1528" d="M137.246,323l-.006-138.624a19.325,19.325,0,0,1,1.334-6.677L111.6,162.162a19.4,19.4,0,0,0-1.221,6.425V307.2A8.62,8.62,0,0,0,114.5,314.6v.013l.176.107.139.076,26.771,15.739A8.625,8.625,0,0,1,137.246,323Z" transform="translate(-110.375 -162.162)" fill="#c40000"/>
        </g>
      </g>
      <g id="Group_354" data-name="Group 354" transform="translate(118.744 88.132)">
        <path id="Path_1529" data-name="Path 1529" d="M138.725,219.617a26.535,26.535,0,0,0,5.242-4.1c1.775-1.737,3.543-3.587,5.318-5.576l3.26,7.47a57.042,57.042,0,0,1-13.794,11.768c-4.506,2.6-8.414,3.725-11.774,3.4a9.575,9.575,0,0,1-7.7-5.318q-2.719-4.8-2.725-13.241a50.064,50.064,0,0,1,5.381-23.737,40.111,40.111,0,0,1,15.726-16.249,33.263,33.263,0,0,1,12.97-4.707l.025,9.641a36.412,36.412,0,0,0-12.039,4.084q-11.818,6.825-11.787,24.952c.019,5.808,1.064,9.729,3.134,11.787S134.961,221.794,138.725,219.617Z" transform="translate(-116.554 -134.061)" fill="#fff"/>
        <path id="Path_1530" data-name="Path 1530" d="M142.739,167.793l7.046-4.068.042,14.458,12.485-7.209.023,8.124-12.485,7.208.04,14.264-7.045,4.068-.041-14.264-12.485,7.209-.023-8.124,12.485-7.208Z" transform="translate(-43.819 -163.725)" fill="#fff"/>
        <path id="Path_1531" data-name="Path 1531" d="M136.521,185.918l-.041-14.458,7.07-4.082.041,14.457,12.462-7.195.023,8.123-12.461,7.194.04,14.264-7.069,4.081-.04-14.263-12.461,7.195-.023-8.124Z" transform="translate(-76.828 -144.387)" fill="#fff"/>
      </g>
    </g>
    <path id="microchip" d="M88.118,88.118H47.151V77.634L71.715,53.07V35.809a5.153,5.153,0,1,0-6.184,0v14.7L40.967,75.072V88.118H22.416V72.737a5.153,5.153,0,1,0-6.184,0V88.118H0V44.4H18.043l6.834,6.834a5.2,5.2,0,1,0,4.373-4.372l-8.645-8.646H0V23.963H32.674l6.864-5.957a5.153,5.153,0,1,0-4.067-5.037c0,.122.01.242.018.362l-5.124,4.447H0V0H75.179L88.118,12.939V68.622h-12.8a5.153,5.153,0,1,0,0,6.184h12.8V88.118Z" transform="matrix(-0.819, 0.574, -0.574, -0.819, 298.539, -15.758)" fill="#fff" opacity="0.2"/>
    <g id="Group_420" data-name="Group 420" transform="matrix(0.695, -0.719, 0.719, 0.695, -1590.507, 1154.787)">
      <path id="Path_1-2" data-name="Path 1" d="M1896.708,154.279s-347.05,7.588-775.718-129.8,1.416,343.687,180.3,449.235C1414.252,530.3,1447.563,640.275,1440.1,742.68c-9.79,134.372-206.7,139.257-371.808,224.673-398.686,206.257,51.708,34.479,203.6,133.11s59.247,172.141-150.9,164.6c-453.841-16.286-767.16-479.579-691.345-410.041s405.949,633.335,48.757,525.9-102.228,363.913-102.228,363.913H0V154.279Z" transform="translate(0 0)" fill="url(#linear-gradient)"/>
      <path id="Path_2-2" data-name="Path 2" d="M421.373.5s513.209-26.752,604.58,310.48c99.554,367.462-218.872,540.239-326.886,455.9S586.154,567.89,754.3,492.237,905.534,183.4,537.893,241.595s-410.168,525.972-143.814,637.9,201.445,243.685-85.054,383.725-129.82,327.835-129.82,327.835H0V.5Z" transform="translate(0 153.777)" fill="url(#linear-gradient-2)"/>
    </g>
    <g id="Group_443" data-name="Group 443" transform="translate(-445.667 589.222)">
      <g id="Group_437" data-name="Group 437" transform="translate(467.149 396.913)">
        <path id="Path_1684" data-name="Path 1684" d="M568.032,416.413,467.149,357.852V395.6L568.04,454Z" transform="translate(-467.149 -297.929)" fill="#5b5b5b"/>
        <path id="Path_1685" data-name="Path 1685" d="M571.421,346.683,467.149,406.6l100.883,58.561,104.417-60.011Z" transform="translate(-467.149 -346.683)" fill="#3d3d3d"/>
        <path id="Path_1686" data-name="Path 1686" d="M590.372,357.581l-104.42,60.012.009,37.582,104.411-60.41Z" transform="translate(-385.07 -299.109)" fill="#303030"/>
      </g>
      <g id="Group_438" data-name="Group 438" transform="translate(467.149 335.175)">
        <path id="Path_1687" data-name="Path 1687" d="M568.032,404.905,467.149,346.344v37.747l100.892,58.4Z" transform="translate(-467.149 -286.422)" fill="#5b5b5b"/>
        <path id="Path_1688" data-name="Path 1688" d="M571.421,335.175,467.149,395.1l100.883,58.561,104.417-60.011Z" transform="translate(-467.149 -335.175)" fill="#3d3d3d"/>
        <path id="Path_1689" data-name="Path 1689" d="M590.372,346.074l-104.42,60.012.009,37.583,104.411-60.41Z" transform="translate(-385.07 -287.603)" fill="#303030"/>
      </g>
      <g id="Group_439" data-name="Group 439" transform="translate(521.974 365.545)">
        <path id="Path_1690" data-name="Path 1690" d="M554.9,391.959l-6.342-3.659a58.662,58.662,0,0,1-14.834,3.568l.027,5.167-15.387.005-.038-5.172a59.4,59.4,0,0,1-14.856-3.568l-6.3,3.659-10.928-6.309,6.3-3.659a20.021,20.021,0,0,1-6.207-8.595h-8.922l-.048-8.917h8.922a19.78,19.78,0,0,1,6.111-8.605l-6.331-3.654,10.848-6.3,6.325,3.653a59.316,59.316,0,0,1,14.829-3.562l-.021-5.172h15.4l.021,5.172a59.163,59.163,0,0,1,14.867,3.562l6.3-3.659,10.923,6.309-6.3,3.659a19.89,19.89,0,0,1,6.2,8.6H574.4l.043,8.911-8.933.005a19.515,19.515,0,0,1-6.1,8.6l6.336,3.659Zm-43.226-14.754c7.913,4.571,20.7,4.571,28.558,0s7.817-11.969-.1-16.535-20.693-4.571-28.553,0-7.822,11.969.091,16.535" transform="translate(-477.368 -340.836)" fill="#67bcf4"/>
      </g>
    </g>
  </g>
</svg>
