<?xml version="1.0" encoding="utf-8"?>
<svg version="1.1" id="Layer_5" xmlns="http://www.w3.org/2000/svg" xmlns:xlink="http://www.w3.org/1999/xlink" x="0px" y="0px"
	 viewBox="-223 25 512 512" style="enable-background:new -223 25 512 512;" xml:space="preserve">
<style type="text/css">
	.st0{fill:url(#SVGID_1_);}
	.st1{fill:url(#SVGID_2_);}
	.st2{fill:url(#SVGID_3_);}
	.st3{fill:url(#SVGID_4_);}
	.st4{fill:url(#SVGID_5_);}
	.st5{fill:url(#SVGID_6_);}
	.st6{fill:url(#SVGID_7_);}
	.st7{fill:url(#SVGID_8_);}
	.st8{fill:url(#SVGID_9_);}
</style>
<linearGradient id="SVGID_1_" gradientUnits="userSpaceOnUse" x1="-167" y1="409" x2="-23" y2="409">
	<stop  offset="0" style="stop-color:#FF4915"/>
	<stop  offset="1" style="stop-color:#E96100"/>
</linearGradient>
<path class="st0" d="M-95,337c-39.7,0-72,32.3-72,72s32.3,72,72,72s72-32.3,72-72S-55.3,337-95,337z M-95,465c-30.9,0-56-25.1-56-56
	s25.1-56,56-56s56,25.1,56,56S-64.1,465-95,465z"/>
<linearGradient id="SVGID_2_" gradientUnits="userSpaceOnUse" x1="-135" y1="409" x2="-55" y2="409">
	<stop  offset="0" style="stop-color:#FF4915"/>
	<stop  offset="1" style="stop-color:#E96100"/>
</linearGradient>
<path class="st1" d="M-95,369c-22.1,0-40,17.9-40,40s17.9,40,40,40s40-17.9,40-40S-72.9,369-95,369z M-95,433c-13.2,0-24-10.8-24-24
	s10.8-24,24-24s24,10.8,24,24S-81.8,433-95,433z"/>
<linearGradient id="SVGID_3_" gradientUnits="userSpaceOnUse" x1="-216.08" y1="281" x2="280.552" y2="281">
	<stop  offset="0" style="stop-color:#FF4915"/>
	<stop  offset="1" style="stop-color:#E96100"/>
</linearGradient>
<path class="st2" d="M280.6,465L177,402.9V433H96.9C172.1,401.6,225,327.4,225,241c0-114.7-93.3-208-208-208
	c-112,0-203.6,89-207.8,200h-25.2l57.1,68.5l57.1-68.5h-24.9C-122.6,157.3-59.7,97,17,97c79.4,0,144,64.6,144,144
	c0,76.7-60.3,139.4-136,143.6v-5.9l-22.4-5.5c-1-2.7-2.1-5.3-3.3-8L6.8,353H65c22.1,0,40-17.9,40-40V169c0-22.1-17.9-40-40-40h-96
	c-22.1,0-40,17.9-40,40v104h16V169c0-13.2,10.8-24,24-24h96c13.2,0,24,10.8,24,24v144c0,10.4-6.7,19.2-16,22.5V161H-39v146.2
	l-12.3,7.4c-2.6-1.2-5.3-2.3-8-3.3l-5.5-22.4h-60.5l-5.5,22.4c-2.7,1-5.3,2.1-8,3.3l-19.7-11.9l-42.8,42.8l11.9,19.7
	c-1.2,2.6-2.3,5.3-3.3,8l-22.3,5.5v60.5l22.4,5.5c1,2.7,2.1,5.3,3.3,8l-11.9,19.7l42.8,42.8l19.7-11.9c2.6,1.2,5.3,2.3,8,3.3
	l5.5,22.4h60.5l5.5-22.4c2.7-1,5.3-2.1,8-3.3l19.7,11.9l42.8-42.8l-11.9-19.7c0.6-1.2,1-2.5,1.6-3.7H193v-17.9l56.4,33.9L193,498.9
	V481H81v16h96v30.1L280.6,465z M177,241c0-88.2-71.8-160-160-160s-160,71.8-160,160v8h6.9l-22.9,27.5l-22.9-27.5h6.9v-8
	c0-105.9,86.1-192,192-192s192,86.1,192,192c0,103.2-81.8,187.6-184,191.8v-32.2C109.5,396.4,177,326.5,177,241L177,241z M-23,305
	h80v32H2.7L-23,311.3V305z M57,289h-80v-48h80V289z M57,177v48h-80v-48H57z M-34,495.1l-16.6-10l-4,2.1c-4.6,2.4-9.2,4.3-13.8,5.8
	l-4.3,1.4l-4.6,18.8h-35.5l-4.6-18.8l-4.3-1.4c-4.6-1.5-9.2-3.4-13.8-5.8l-4-2.1l-16.6,10l-25.1-25.1l10-16.6l-2.1-4
	c-2.4-4.6-4.3-9.2-5.8-13.8l-1.4-4.3l-18.8-4.6v-35.5l18.8-4.6l1.4-4.3c1.5-4.6,3.4-9.2,5.8-13.8l2.1-4l-10-16.6l25.1-25.1l16.6,10
	l4-2.1c4.6-2.4,9.2-4.3,13.8-5.8l4.3-1.4l4.6-18.8h35.5l4.6,18.8l4.3,1.4c4.6,1.5,9.2,3.4,13.8,5.8l4,2.1l16.6-10L-8.9,348l-10,16.6
	l2.1,4c2.4,4.6,4.3,9.2,5.8,13.8l1.4,4.3L9,391.3v35.5l-18.8,4.6l-1.4,4.3c-1.5,4.6-3.4,9.2-5.8,13.8l-2.1,4l10,16.6L-34,495.1z"/>
<linearGradient id="SVGID_4_" gradientUnits="userSpaceOnUse" x1="49" y1="489" x2="65" y2="489">
	<stop  offset="0" style="stop-color:#FF4915"/>
	<stop  offset="1" style="stop-color:#E96100"/>
</linearGradient>
<path class="st3" d="M49,481h16v16H49V481z"/>
<linearGradient id="SVGID_5_" gradientUnits="userSpaceOnUse" x1="17" y1="489" x2="33" y2="489">
	<stop  offset="0" style="stop-color:#FF4915"/>
	<stop  offset="1" style="stop-color:#E96100"/>
</linearGradient>
<path class="st4" d="M17,481h16v16H17V481z"/>
<linearGradient id="SVGID_6_" gradientUnits="userSpaceOnUse" x1="-7" y1="201" x2="9" y2="201">
	<stop  offset="0" style="stop-color:#FF4915"/>
	<stop  offset="1" style="stop-color:#E96100"/>
</linearGradient>
<path class="st5" d="M-7,193H9v16H-7V193z"/>
<linearGradient id="SVGID_7_" gradientUnits="userSpaceOnUse" x1="25" y1="201" x2="41" y2="201">
	<stop  offset="0" style="stop-color:#FF4915"/>
	<stop  offset="1" style="stop-color:#E96100"/>
</linearGradient>
<path class="st6" d="M25,193h16v16H25V193z"/>
<linearGradient id="SVGID_8_" gradientUnits="userSpaceOnUse" x1="25" y1="265" x2="41" y2="265">
	<stop  offset="0" style="stop-color:#FF4915"/>
	<stop  offset="1" style="stop-color:#E96100"/>
</linearGradient>
<path class="st7" d="M25,257h16v16H25V257z"/>
<linearGradient id="SVGID_9_" gradientUnits="userSpaceOnUse" x1="-7" y1="265" x2="9" y2="265">
	<stop  offset="0" style="stop-color:#FF4915"/>
	<stop  offset="1" style="stop-color:#E96100"/>
</linearGradient>
<path class="st8" d="M-7,257H9v16H-7V257z"/>
</svg>
