<svg xmlns="http://www.w3.org/2000/svg" width="1000" height="1000" xmlns:v="https://vecta.io/nano"><defs><clipPath id="A"><path d="M0 0h1000v1000H0z"/></clipPath></defs><g clip-path="url(#A)"><path fill="#fff" d="M0 0h1000v1000H0z"/><path d="M87.82 151.668l143.048-11.756V313.62L87.82 301.863zm0 0" fill="#03232e"/><g fill="#07485e"><path d="M350.457 151.668v150.2l-131.32 11.752V139.912zm0 0"/><path d="M69.133 76.4h150l11.73 37.633-11.728 37.634h-150zm0 187.997v-75.265h150l11.73 37.633-11.73 37.633zm0 112.733v-75.268h150l11.73 37.635-11.73 37.633zm0 0"/></g><g fill="#0b799d"><path d="M369.145 76.4H219.137v75.268h150.008zm0 112.733H219.137v75.27h150.008zm0 112.73H219.137v75.268h150.008zm0 0"/></g><g fill="#b4d2d7"><path d="M178.08 105.222H97.165v17.62h80.915zm0 112.733H97.165v17.62h80.915zm0 112.732H97.165v17.62h80.915zm0 0"/></g><path d="M341.112 105.222h-18.686v17.62h18.686zm0 0" fill="#ff6d6d"/><path d="M303.737 105.222h-18.69v17.62h18.69zm0 0" fill="#ffd422"/><path d="M341.112 217.955h-18.686v17.62h18.686zm0 0" fill="#00ff94"/><path d="M303.737 217.955h-18.69v17.62h18.69zm0 0" fill="#ffd422"/><path d="M341.112 330.687h-18.686v17.62h18.686zm0 0" fill="#00ff94"/><path d="M303.737 330.687h-18.69v17.62h18.69zm0 0" fill="#ffd422"/><g transform="matrix(-.707107 .707107 -.707107 -.707107 683.049415 468.376415)" fill="#0b799d"><path d="M109.987 172.627l41.245 41.245 41.245-41.245c-22.8-22.754-59.7-22.754-82.5 0zm-54.994-54.992l27.5 27.5c37.973-37.946 99.5-37.946 137.483 0l27.5-27.5c-53.157-53.142-139.326-53.142-192.483 0zM0 62.64l27.5 27.5c68.34-68.33 179.13-68.33 247.47 0l27.5-27.5C218.94-20.88 83.52-20.88 0 62.64z"/></g><g fill="#afb6bb"><path d="M817.63 899.597h26.376v23.08H817.63zm-65.94 0h26.376v23.08H751.7zm-65.94 0h26.376v23.08H685.75zm-72.535-138.474h26.376V787.5h-26.376zm0 65.94h26.376v26.376h-26.376zm276.95 0h26.376v26.376h-26.376zm0-65.94h26.376V787.5h-26.376zm0-65.94h26.376v26.376h-26.376zm-72.534-69.237h26.376v23.08H817.63zm-65.94 0h26.376v23.08H751.7zm-65.94 0h26.376v23.08H685.75zm-72.535 69.237h26.376v26.376h-26.376z"/></g><g fill="#e7eced"><path d="M639.592 695.183h19.782v26.376h-19.782zm0 65.94h19.782V787.5h-19.782zm0 65.94h19.782v26.376h-19.782zm46.158 52.75h26.376v19.782H685.75zm65.95 0h26.376v19.782H751.7zm65.93 0h26.376v19.782H817.63zm52.752-52.75h19.782v26.376h-19.782zm0-65.94h19.782V787.5h-19.782zm0-65.94h19.782v26.376h-19.782zm-52.752-46.158h26.376v19.782H817.63zm-65.93 0h26.376v19.782H751.7zm-65.95 0h26.376v19.782H685.75z"/></g><path d="M870.382 853.44v19.782c-.01 3.637-2.957 6.583-6.594 6.594h-197.82c-3.637-.01-6.583-2.957-6.594-6.594V675.4c.01-3.637 2.957-6.583 6.594-6.594h197.82c3.637.01 6.583 2.957 6.594 6.594V853.44zm-26.376 0V695.183H685.75V853.44h158.256z" fill="#595e62"/><path d="M685.75 695.183h158.256V853.44H685.75z" fill="#00b1d1"/><path d="M714.583 695.183H685.75V853.44h158.256v-28.833c-61.684-19.423-110-67.74-129.423-129.423z" fill="#037286"/><path d="M685.75 853.44V695.183h79.128v-26.376h-98.9c-3.637.01-6.583 2.957-6.594 6.594v197.82c.01 3.637 2.957 6.583 6.594 6.594h98.9V853.44H685.75z" fill="#44494c"/><g fill="#fff"><path d="M718.72 716.613h92.316v9.9H718.72zm0 46.157h92.316v9.9H718.72zm0-23.078h16.485v9.9H718.72zm0 82.425h16.485v9.9H718.72zm26.375 0h16.485v9.9h-16.485zm46.158 0h16.485v9.9h-16.485zm-36.266-82.425h56.05v9.9h-56.05z"/></g><path d="M680.804 858.385H848.95V690.237H680.804zm9.9-158.256H839.06v148.364H690.695zm230.792 26.376v-36.267h-46.16V675.4a11.56 11.56 0 0 0-11.54-11.54H848.95V621h-36.267v42.86H783V621h-36.267v42.86H717.07V621h-36.266v42.86H665.97c-6.37.006-11.534 5.168-11.542 11.54v14.837H608.27v36.267h46.158v29.673H608.27v36.267h46.158v29.673H608.27v36.267h46.158v14.837c.008 6.37 5.17 11.533 11.542 11.54h14.834v42.86h36.266v-42.86h29.673v42.86H783v-42.86h29.673v42.86h36.267v-42.86h14.837a11.56 11.56 0 0 0 11.54-11.54v-14.837h46.158v-36.267h-46.157v-29.673h46.158v-36.267h-46.158v-29.673h46.158zm-46.16-26.376h9.9v16.482h-9.9zm36.268 16.482H895.1v-16.48h16.485zm-89.02-62.64h16.484v9.9h-16.484zm16.484-23.08v13.188h-16.484V630.9zm-82.425 23.08h16.485v9.9h-16.485v-9.9zm16.485-23.08v13.188h-16.484V630.9zm-82.425 23.08h16.485v9.9h-16.485zm16.485-23.08v13.188h-16.485V630.9zm-52.752 85.72h-9.9v-16.48h9.9v16.482zm-36.266-16.48h16.485v16.482H618.16zm36.268 82.425h-9.892V766.07h9.9v16.485zM618.16 766.07h16.485v16.485H618.16zm36.268 82.425h-9.892V832h9.9v16.485zM618.16 832h16.485v16.485H618.16zm89.02 62.64h-16.485v-9.9h16.485zm-16.485 23.08v-13.188h16.485v13.188zm82.425-23.08h-16.484v-9.9h16.484zm-16.485 23.08v-13.188h16.485v13.188zm82.425-23.08h-16.484v-9.9h16.484zm-16.484 23.08v-13.188h16.484v13.188zm52.75-85.72h9.9v16.485h-9.9zm36.268 16.485H895.1V832h16.485zm-36.268-82.425h9.9v16.485h-9.9zm36.268 16.485H895.1V766.07h16.485zm-46.16 90.665a1.67 1.67 0 0 1-1.649 1.649H665.97a1.67 1.67 0 0 1-1.649-1.649V675.4a1.67 1.67 0 0 1 1.649-1.649H863.8a1.67 1.67 0 0 1 1.649 1.649v197.82z"/></g></svg>