<svg xmlns="http://www.w3.org/2000/svg" width="500" height="270"><defs><clipPath id="A"><path d="M0 0h500v270H0z"/></clipPath></defs><g clip-path="url(#A)"><path fill="#fff" d="M0 0h500v270H0z"/><g fill="#afb6bb"><path d="M405.717 201.303h14.04v12.285h-14.04zm-35.102 0h14.04v12.285h-14.04zm-35.1 0h14.04v12.285h-14.04zm-38.6-73.703h14.04v14.04h-14.04zm0 35.092h14.04v14.04h-14.04zm147.425 0h14.04v14.04h-14.04zm0-35.092h14.04v14.04h-14.04zm0-35.1h14.04v14.04h-14.04zm-38.6-36.857h14.04v12.285h-14.04zm-35.102 0h14.04v12.285h-14.04zm-35.1 0h14.04v12.285h-14.04zM296.903 92.5h14.04v14.04h-14.04z"/></g><g fill="#e7eced"><path d="M310.943 92.5h10.53v14.04h-10.53zm0 35.1h10.53v14.04h-10.53zm0 35.1h10.53v14.04h-10.53zm24.57 28.082h14.04v10.53h-14.04zm35.1 0h14.04v10.53h-14.04zm35.1 0h14.04v10.53h-14.04zm28.08-28.082h10.53v14.04h-10.53zm0-35.1h10.53v14.04h-10.53zm0-35.1h10.53v14.04h-10.53zm-28.08-24.572h14.04v10.53h-14.04zm-35.1 0h14.04v10.53h-14.04zm-35.1 0h14.04v10.53h-14.04z"/></g><path d="M433.797 176.732v10.53a3.52 3.52 0 0 1-3.51 3.51H324.983a3.52 3.52 0 0 1-3.51-3.51V81.96a3.52 3.52 0 0 1 3.51-3.51h105.3a3.52 3.52 0 0 1 3.51 3.51v94.773zm-14.04 0V92.5h-84.242v84.242h84.242z" fill="#595e62"/><path d="M335.514 92.5h84.243v84.243h-84.243z" fill="#00b1d1"/><path d="M350.86 92.5h-15.347v84.247h84.247v-15.352c-32.838-10.338-58.56-36.058-68.9-68.895z" fill="#037286"/><path d="M335.514 176.732V92.5h42.122V78.45h-52.653a3.52 3.52 0 0 0-3.51 3.51v105.3a3.52 3.52 0 0 0 3.51 3.51h52.653v-14.036h-42.122z" fill="#44494c"/><g fill="#fff"><path d="M353.064 103.897h49.142v5.265h-49.142zm0 24.57h49.142v5.265h-49.142zm0-12.285h8.775v5.265h-8.775zm0 43.877h8.775v5.265h-8.775zm14.04 0h8.775v5.265h-8.775zm24.57 0h8.775v5.265h-8.775zm-19.305-43.877h29.836v5.265H372.37z"/></g><path d="M332.88 179.364h89.508V89.856H332.88zm5.265-84.243h78.977v78.977h-78.977zM461 109.162V89.857h-24.57v-7.9a6.15 6.15 0 0 0-6.143-6.143h-7.9V53h-19.304v22.8h-15.8V53h-19.3v22.8h-15.8V53h-19.3v22.8h-7.9a6.15 6.15 0 0 0-6.143 6.143v7.9h-24.57v19.308h24.57v15.8h-24.57v19.3h24.57v15.8h-24.57v19.306h24.57v7.9a6.15 6.15 0 0 0 6.143 6.143h7.9v22.816h19.303v-22.824h15.8v22.816h19.3v-22.816h15.8v22.816h19.306v-22.816h7.9a6.15 6.15 0 0 0 6.143-6.143v-7.9H461v-19.303h-24.57v-15.8H461v-19.3h-24.57v-15.8H461zm-24.57-14.04h5.265v8.775h-5.265zm19.306 8.775h-8.776v-8.775h8.775zM408.35 70.55h8.775v5.26h-8.775zm8.775-12.285v7.02h-8.775v-7.02zM373.247 70.55h8.775v5.26h-8.775v-5.26zm8.775-12.285v7.02h-8.774v-7.02zM338.146 70.55h8.775v5.26h-8.775zm8.775-12.285v7.02h-8.775v-7.02zm-28.08 45.63h-5.265V95.12h5.265v8.775zm-19.306-8.775h8.775v8.775h-8.775zm19.306 43.876h-5.265v-8.775h5.265v8.775zm-19.306-8.775h8.775v8.775h-8.775zm19.305 43.88h-5.265v-8.775h5.265v8.775zm-19.306-8.775h8.775v8.775h-8.775zm47.387 33.346h-8.776v-5.265h8.775zm-8.775 12.285v-7.02h8.775v7.02zm43.876-12.285h-8.775v-5.265h8.775zm-8.775 12.285v-7.02h8.775v7.02zm43.876-12.285h-8.775v-5.265h8.775zm-8.775 12.285v-7.02h8.775v7.02zm28.08-45.63h5.265v8.775h-5.265zm19.306 8.775h-8.776v-8.775h8.775zm-19.306-43.876h5.265V139h-5.265zM455.734 139h-8.776v-8.775h8.775zm-24.57 48.264a.89.89 0 0 1-.878.878H324.984a.89.89 0 0 1-.878-.878V81.96a.89.89 0 0 1 .878-.878h105.3a.89.89 0 0 1 .878.878v105.3z"/><path d="M50.808 100.34l66.4-5.457v80.636l-66.4-5.457zm0 0" fill="#03232e"/><g fill="#07485e"><path d="M172.724 100.34v69.72l-60.96 5.457V94.883zm0 0"/><path d="M42.133 65.4h69.632l5.445 17.47-5.445 17.47H42.133zm0 87.27v-34.94h69.632l5.445 17.47-5.445 17.47zm0 52.33v-34.94h69.632l5.445 17.47-5.445 17.47zm0 0"/></g><g fill="#0b799d"><path d="M181.4 65.4h-69.634v34.94H181.4zm0 52.33h-69.634v34.938H181.4zm0 52.33h-69.634V205H181.4zm0 0"/></g><g fill="#b4d2d7"><path d="M92.707 78.78h-37.56v8.18h37.56zm0 52.32h-37.56v8.18h37.56zm0 52.34h-37.56v8.18h37.56zm0 0"/></g><path d="M168.387 78.78h-8.674v8.18h8.674zm0 0" fill="#ff6d6d"/><path d="M151.037 78.78h-8.675v8.18h8.675zm0 0" fill="#ffd422"/><path d="M168.387 131.1h-8.674v8.18h8.674zm0 0" fill="#00ff94"/><path d="M151.037 131.1h-8.675v8.18h8.675zm0 0" fill="#ffd422"/><path d="M168.387 183.44h-8.674v8.18h8.674zm0 0" fill="#00ff94"/><path d="M151.037 183.44h-8.675v8.18h8.675zm0 0" fill="#ffd422"/><g transform="matrix(0 1 -1 0 265.766 95.771)" fill="#0b799d"><path d="M28.556 44.82l10.708 10.708L49.972 44.82a15.16 15.16 0 0 0-21.416 0zM14.278 30.542l7.14 7.14c9.86-9.852 25.836-9.852 35.695 0l7.14-7.14c-13.8-13.796-36.172-13.796-49.973 0zM0 16.267l7.14 7.14c17.743-17.74 46.508-17.74 64.25 0l7.14-7.14C56.844-5.418 21.685-5.418 0 16.267z"/></g></g></svg>