<svg xmlns="http://www.w3.org/2000/svg" width="140.892" height="134.065" viewBox="0 0 140.892 134.065">
  <g id="binaryTree" transform="matrix(1, 0.017, -0.017, 1, 2.298, 0)">
    <path id="Path_518" data-name="Path 518" d="M126.909,107.571,108.379,77.315a12.038,12.038,0,0,0-4-23.405A11.9,11.9,0,0,0,98.8,55.344L75.936,19.666a12.035,12.035,0,1,0-17.8.956L36.645,54.162a11.871,11.871,0,0,0-2.448-.255,12.033,12.033,0,0,0-3.773,23.472l-17.9,29.22c-.157,0-.3-.047-.454-.047a12.126,12.126,0,1,0,4.507.891L34.328,78.476,52.543,108.2a12.014,12.014,0,1,0,4.184-.635L38.192,77.313a11.981,11.981,0,0,0,2.134-21.671L61.333,22.858a11.744,11.744,0,0,0,11.65-.569l22.68,35.394a11.973,11.973,0,0,0,4.94,19.7L82.709,106.6c-.16,0-.3-.047-.458-.047a12.117,12.117,0,1,0,4.513.891l17.748-28.968L122.727,108.2a12.023,12.023,0,1,0,4.182-.634ZM20.239,118.623a8.17,8.17,0,1,1-8.17-8.165A8.176,8.176,0,0,1,20.239,118.623Zm44.282.979a8.167,8.167,0,1,1-8.165-8.165A8.17,8.17,0,0,1,64.521,119.6ZM34.194,74.149a8.167,8.167,0,1,1,8.17-8.17A8.174,8.174,0,0,1,34.194,74.149Zm56.224,44.474a8.164,8.164,0,1,1-8.168-8.165A8.174,8.174,0,0,1,90.419,118.623ZM58.471,12.073a8.169,8.169,0,1,1,8.165,8.17A8.174,8.174,0,0,1,58.471,12.073ZM96.216,65.979a8.165,8.165,0,1,1,8.16,8.17A8.172,8.172,0,0,1,96.216,65.979Zm30.329,61.787a8.165,8.165,0,1,1,8.16-8.165A8.174,8.174,0,0,1,126.545,127.766Z" transform="translate(0 0)" fill="#007676"/>
  </g>
</svg>
