<svg xmlns="http://www.w3.org/2000/svg" width="226.408" height="331.943" viewBox="0 0 226.408 331.943"><g transform="translate(0)"><path id= "top" d="M228.117,326.8,71.091,237.981c-4.8-2.714-10.308-2.6-15.716.607h0L20.9,258.1l16.026,21.313L42.9,286.12V438.608a25.351,25.351,0,0,0,12.957,22.013l117.52,66.6,1.2,6.405,23.987,32.943L235.45,545.31l.181-.1.249-.143v-.017a11.509,11.509,0,0,0,5.623-9.9l.009-185.635A26.121,26.121,0,0,0,228.117,326.8Z" transform="translate(-15.103 -236.058)" fill="#ffc73b"/><path id="front" d="M201.478,329.892,42.6,240.028c-7.755-4.382-17.436,1.112-17.436,9.877V436.324a25.333,25.333,0,0,0,12.956,22.013L196.973,548.36c7.953,4.509,17.892-1.121,17.892-10.113V352.612A26.126,26.126,0,0,0,201.478,329.892Z" transform="translate(-25.168 -218.005)" fill="#f9b800"/><g transform="translate(183.438 104.858)"><path d="M26.116,275.26l-.224.135-.026-.034C25.953,275.319,26.039,275.3,26.116,275.26Z" transform="translate(-25.867 -49.738)" fill="#bbcee1"/><path id="side" d="M26.822,463.884V278.249a25.437,25.437,0,0,0-1.814-8.95l36.849-20.8a25.454,25.454,0,0,1,1.677,8.6l-.009,185.635a11.509,11.509,0,0,1-5.623,9.9v.017l-.249.143-.181.1L20.9,473.972A11.53,11.53,0,0,0,26.822,463.884Z" transform="translate(-20.563 -248.5)" fill="#ce8900"/></g><g transform="translate(20.153 134.128)"><path d="M39.143,260l49.214,52.384.038-13.348L54.478,264.053l34.014,1.509.04-13.431-49.366-.158Z" transform="translate(-39.143 -251.973)" fill="#fff"/><path d="M33.8,319.419l13.733,7.773,27.335-66.457L61.1,252.942Z" transform="translate(20.477 -244.774)" fill="#fff"/><path d="M27.686,255.4l-.039,13.431L61.6,305.789,27.55,302.3l-.038,13.349,49.392,3.42.023-8.025Z" transform="translate(72.464 -226.516)" fill="#fff"/></g></g></svg>