<svg xmlns="http://www.w3.org/2000/svg" width="500" height="270"><defs><clipPath id="A"><path d="M0 0h500v270H0z"/></clipPath></defs><g clip-path="url(#A)"><path fill="#fff" d="M0 0h500v270H0z"/><path fill="#41464f" d="M72 0h428v270H72z"/><path fill="#2f3136" d="M0 0h82v270H0z"/><g fill="#292b2f"><path d="M0 0h82v21H0zm0 249h82v21H0z"/></g><g fill="#403e3d"><path d="M82 21h324v17H82zm0 37h324v17H82zm0 37h324v17H82zm0 37h324v17H82zm0 37h324v17H82zm0 37h324v17H82z"/></g><rect width="317" height="21" rx="10.5" fill="#292b2f" x="89" y="239"/><g fill="#ffd21f"><circle cx="98" cy="30" r="6"/><circle cx="98" cy="67" r="6"/><circle cx="98" cy="104" r="6"/><circle cx="98" cy="141" r="6"/><circle cx="98" cy="178" r="6"/><circle cx="98" cy="215" r="6"/></g><path d="M450.74 67h-95.177c-8.06.02-14.58 6.57-14.562 14.632v96.03c-.018 8.06 6.5 14.6 14.56 14.632h80.546l-3.765-13.14 9.092 8.452 8.594 7.955 15.27 13.5V81.632c.018-8.06-6.5-14.6-14.56-14.632zm-27.417 92.764L418.634 154c9.305-2.628 12.856-8.452 12.856-8.452a40.6 40.6 0 0 1-8.168 4.19c-3.305 1.41-6.76 2.436-10.3 3.055a49.76 49.76 0 0 1-18.4-.071c-3.566-.698-7.06-1.72-10.44-3.054-1.78-.686-3.51-1.493-5.18-2.416-.213-.142-.426-.213-.64-.355a.98.98 0 0 1-.284-.213c-1.278-.7-1.99-1.208-1.99-1.208s3.4 5.682 12.43 8.38l-4.76 5.9c-15.7-.5-21.664-10.8-21.664-10.8 0-22.87 10.228-41.4 10.228-41.4 10.23-7.67 19.96-7.457 19.96-7.457l.7.853c-12.785 3.693-18.68 9.3-18.68 9.3s1.562-.852 4.2-2.06c5.106-2.33 10.547-3.84 16.124-4.475a6.96 6.96 0 0 1 1.208-.142 60.1 60.1 0 0 1 14.348-.142 57.9 57.9 0 0 1 21.379 6.819c0 0-5.61-5.327-17.686-9.02l.995-1.133s9.73-.214 19.96 7.458c0 0 10.23 18.538 10.23 41.41 0 0-6.038 10.3-21.735 10.8zm-33.028-33.17c-4.048 0-7.244 3.55-7.244 7.884s3.267 7.884 7.244 7.884c4.05 0 7.245-3.55 7.245-7.884a7.52 7.52 0 0 0-7.244-7.884m25.925 0c-4.05 0-7.245 3.55-7.245 7.884s3.268 7.884 7.245 7.884c4.048 0 7.244-3.55 7.244-7.884s-3.2-7.884-7.244-7.884" fill="#fff" opacity=".73"/></g></svg>