<svg xmlns="http://www.w3.org/2000/svg" xmlns:xlink="http://www.w3.org/1999/xlink" width="512" height="512" viewBox="0 0 512 512"><defs><clipPath id="b"><rect width="512" height="512"/></clipPath></defs><g id="a" clip-path="url(#b)"><path d="M291.98,0H38.744A38.836,38.836,0,0,0,0,38.931V294.437a38.835,38.835,0,0,0,38.742,38.931H253.05l-10.017-34.962,24.191,22.489,22.866,21.166,40.632,35.907V38.931A38.835,38.835,0,0,0,291.98,0ZM219.032,246.814s-6.8-8.127-12.473-15.309c24.758-6.993,34.206-22.489,34.206-22.489a108.012,108.012,0,0,1-21.733,11.149,124.37,124.37,0,0,1-27.4,8.127,132.392,132.392,0,0,1-48.947-.189,158.753,158.753,0,0,1-27.781-8.126,110.886,110.886,0,0,1-13.8-6.426c-.566-.379-1.133-.567-1.7-.946a2.612,2.612,0,0,1-.756-.566c-3.4-1.89-5.292-3.213-5.292-3.213s9.072,15.119,33.072,22.3c-5.669,7.183-12.662,15.686-12.662,15.686C72,245.49,56.128,218.088,56.128,218.088c0-60.853,27.214-110.178,27.214-110.178,27.214-20.41,53.1-19.843,53.1-19.843l1.89,2.269c-34.017,9.825-49.7,24.756-49.7,24.756s4.157-2.267,11.149-5.48c20.222-8.883,36.286-11.339,42.9-11.906a18.517,18.517,0,0,1,3.213-.379,159.9,159.9,0,0,1,38.175-.377,154.052,154.052,0,0,1,56.883,18.142s-14.929-14.173-47.057-24l2.646-3.023s25.891-.568,53.1,19.843c0,0,27.215,49.324,27.215,110.177,0,0-16.065,27.4-57.83,28.725Zm-87.878-88.256c-10.772,0-19.275,9.449-19.275,20.976s8.692,20.978,19.275,20.978c10.773,0,19.276-9.449,19.276-20.978.19-11.527-8.5-20.976-19.275-20.976m68.979,0c-10.773,0-19.277,9.449-19.277,20.976s8.694,20.978,19.277,20.978c10.772,0,19.275-9.449,19.275-20.978s-8.5-20.976-19.275-20.976" transform="translate(91 67)" fill="#444"/><circle cx="114.5" cy="114.5" r="114.5" transform="translate(243 256)" fill="#0082ff"/><rect width="140" height="16" transform="translate(288 363)" fill="#fff"/><rect width="140" height="16" transform="translate(288 321)" fill="#fff"/><rect width="140" height="16" transform="translate(288 405)" fill="#fff"/></g></svg>