<svg xmlns="http://www.w3.org/2000/svg" xmlns:xlink="http://www.w3.org/1999/xlink" width="1000" height="1000" viewBox="0 0 1000 1000"><defs><clipPath id="b"><rect width="1000" height="1000"/></clipPath></defs><g id="a" clip-path="url(#b)"><rect width="1000" height="1000" fill="#fff"/><rect width="725" height="458" transform="translate(199 107)" fill="#41464f"/><rect width="138" height="458" transform="translate(77 107)" fill="#2f3136"/><rect width="138" height="36" transform="translate(77 107)" fill="#292b2f"/><rect width="138" height="36" transform="translate(77 529)" fill="#292b2f"/><rect width="550" height="28" transform="translate(215 143)" fill="#403e3d"/><rect width="550" height="28" transform="translate(215 143)" fill="#403e3d"/><rect width="550" height="30" transform="translate(215 205)" fill="#403e3d"/><rect width="550" height="29" transform="translate(215 268)" fill="#403e3d"/><rect width="550" height="30" transform="translate(215 330)" fill="#403e3d"/><rect width="550" height="28" transform="translate(215 394)" fill="#403e3d"/><rect width="550" height="29" transform="translate(215 456)" fill="#403e3d"/><rect width="538" height="34" rx="17" transform="translate(227 513)" fill="#292b2f"/><circle cx="10.5" cy="10.5" r="10.5" transform="translate(233 147)" fill="#ffd21f"/><ellipse cx="10.5" cy="9.5" rx="10.5" ry="9.5" transform="translate(233 211)" fill="#ffd21f"/><ellipse cx="10.5" cy="10" rx="10.5" ry="10" transform="translate(233 273)" fill="#ffd21f"/><circle cx="10.5" cy="10.5" r="10.5" transform="translate(233 336)" fill="#ffd21f"/><circle cx="10.5" cy="10.5" r="10.5" transform="translate(233 398)" fill="#ffd21f"/><circle cx="10.5" cy="10.5" r="10.5" transform="translate(233 461)" fill="#ffd21f"/><path d="M325.348,0H43.171A43.274,43.274,0,0,0,0,43.38V328.086a43.273,43.273,0,0,0,43.17,43.38h238.8l-11.162-38.958,26.955,25.059,25.48,23.585,45.276,40.01V43.38A43.273,43.273,0,0,0,325.348,0ZM244.064,275.021s-7.581-9.056-13.9-17.058c27.587-7.792,38.116-25.059,38.116-25.059a120.357,120.357,0,0,1-24.217,12.423,138.583,138.583,0,0,1-30.534,9.056,147.521,147.521,0,0,1-54.541-.21,176.9,176.9,0,0,1-30.955-9.055,123.56,123.56,0,0,1-15.374-7.16c-.631-.422-1.262-.632-1.894-1.054a2.911,2.911,0,0,1-.842-.631c-3.79-2.106-5.9-3.58-5.9-3.58s10.108,16.847,36.852,24.848c-6.317,8-14.109,17.479-14.109,17.479-46.54-1.474-64.227-32.008-64.227-32.008,0-67.807,30.324-122.77,30.324-122.77C123.19,97.5,152.039,98.131,152.039,98.131l2.106,2.528c-37.9,10.948-55.383,27.586-55.383,27.586s4.632-2.526,12.423-6.106c22.533-9.9,40.433-12.635,47.8-13.267a20.634,20.634,0,0,1,3.58-.422,178.178,178.178,0,0,1,42.538-.42,171.658,171.658,0,0,1,63.384,20.215s-16.635-15.793-52.435-26.743L219,98.132s28.849-.633,59.173,22.111c0,0,30.325,54.961,30.325,122.768,0,0-17.9,30.534-64.439,32.008Zm-97.921-98.342c-12,0-21.478,10.529-21.478,23.374s9.685,23.375,21.478,23.375c12,0,21.479-10.529,21.479-23.375.212-12.845-9.475-23.374-21.478-23.374m76.862,0c-12,0-21.481,10.529-21.481,23.374s9.688,23.375,21.481,23.375c12,0,21.478-10.529,21.478-23.375s-9.475-23.374-21.478-23.374" transform="translate(545 471)" fill="#0085d2" opacity="0.73"/><path d="M93.592,4,77.8,19.791l62.491,62.6H4v22.4H140.292L77.8,167.394l15.791,15.791,89.592-89.592Z" transform="translate(312 829.166) rotate(-90)" fill="#13be00"/><path d="M93.592,4,77.8,19.791l62.491,62.6H4v22.4H140.292L77.8,167.394l15.791,15.791,89.592-89.592Z" transform="translate(270.185 641.982) rotate(90)" fill="#be0000"/></g></svg>