<?xml version="1.0" encoding="UTF-8"?>
<!DOCTYPE svg  PUBLIC '-//W3C//DTD SVG 1.1//EN'  'http://www.w3.org/Graphics/SVG/1.1/DTD/svg11.dtd'>
<svg enable-background="new 0 0 98.48 98.48" version="1.1" viewBox="0 0 98.48 98.48" xml:space="preserve" xmlns="http://www.w3.org/2000/svg">
	<path d="m97.204 45.788c-0.865-1.02-21.537-24.945-47.963-24.945-26.427 0-47.098 23.925-47.965 24.946-1.701 2-1.701 4.902 1e-3 6.904 0.866 1.02 21.537 24.944 47.964 24.944 26.426 0 47.098-23.926 47.964-24.946 1.701-2 1.701-4.902-1e-3 -6.903zm-39.891-10.573c1.777-0.97 4.255 0.143 5.534 2.485 1.279 2.343 0.875 5.029-0.902 5.999-1.776 0.971-4.255-0.143-5.535-2.485-1.278-2.343-0.875-5.029 0.903-5.999zm-8.072 33.754c-18.46 0-33.995-14.177-39.372-19.729 3.631-3.75 11.898-11.429 22.567-16.021-2.081 3.166-3.301 6.949-3.301 11.021 0 11.104 9.001 20.105 20.105 20.105s20.106-9.001 20.106-20.105c0-4.072-1.219-7.855-3.3-11.021 10.669 4.593 18.935 12.271 22.566 16.021-5.377 5.555-20.912 19.729-39.371 19.729z"/>
</svg>
