<svg xmlns="http://www.w3.org/2000/svg" xmlns:xlink="http://www.w3.org/1999/xlink" width="1823" height="2500" viewBox="0 0 256 351" preserveAspectRatio="xMidYMid"><defs><path d="M1.253 280.732l1.605-3.13L102.21 89.083 58.06 5.608c-3.67-6.89-12.987-5.134-14.19 2.58L1.253 280.732z" id="A"/><filter x="-50%" y="-50%" width="200%" height="200%" id="B"><feGaussianBlur stdDeviation="17.5" in="SourceAlpha"/><feOffset/><feComposite in2="SourceAlpha" operator="arithmetic" k2="-1" k3="1"/><feColorMatrix values="0 0 0 0 0 0 0 0 0 0 0 0 0 0 0 0 0 0 0.06 0"/></filter><path d="M134.417 148.974l32.04-32.812-32.04-61.007c-3.042-5.79-10.433-6.398-13.443-.6l-17.705 34.11-.53 1.744 31.678 58.556z" id="C"/><filter x="-50%" y="-50%" width="200%" height="200%" id="D"><feGaussianBlur stdDeviation="3.5" in="SourceAlpha"/><feOffset dx="1" dy="-9"/><feComposite in2="SourceAlpha" operator="arithmetic" k2="-1" k3="1"/><feColorMatrix values="0 0 0 0 0 0 0 0 0 0 0 0 0 0 0 0 0 0 0.09 0"/></filter></defs><path d="M0 282.998l2.123-2.972L102.527 89.512l.212-2.017L58.48 4.358C54.77-2.606 44.33-.845 43.114 6.95L0 282.998z" fill="#ffc24a"/><use fill="#ffa712" fill-rule="evenodd" xlink:href="#A"/><use filter="url(#B)" xlink:href="#A"/><path d="M135.005 150.38l32.955-33.75-32.965-62.93c-3.13-5.957-11.866-5.975-14.962 0L102.42 87.287v2.86l32.584 60.233z" fill="#f4bd62"/><use fill="#ffa50e" fill-rule="evenodd" xlink:href="#C"/><use filter="url(#D)" xlink:href="#C"/><path fill="#f6820c" d="M0 282.998l.962-.968 3.496-1.42 128.477-128 1.628-4.43-32.05-61.074z"/><path d="M139.12 347.55l116.275-64.847L222.192 78.21c-1.04-6.398-8.888-8.927-13.468-4.34L0 282.998l115.608 64.548a24.126 24.126 0 0 0 23.513.005" fill="#fde068"/><path d="M254.354 282.16L221.402 79.218c-1.03-6.35-7.558-8.977-12.103-4.424L1.3 282.6l114.34 63.908a23.943 23.943 0 0 0 23.334.006l115.392-64.355z" fill="#fcca3f"/><path d="M139.12 345.64a24.126 24.126 0 0 1-23.512-.005L.93 282.015l-.93.983 115.607 64.548a24.126 24.126 0 0 0 23.513.005l116.275-64.847-.285-1.752-116 64.69z" fill="#eeab37"/></svg>