<?xml version="1.0" encoding="UTF-8"?>
<svg enable-background="new -68 -77 375 667" version="1.1" viewBox="-68 -77 375 667" xml:space="preserve" xmlns="http://www.w3.org/2000/svg" xmlns:xlink="http://www.w3.org/1999/xlink">
<style type="text/css">
	.st0{clip-path:url(#a);}
	.st1{fill:#FFFFFF;}
	.st2{fill:url(#c);}
	.st3{fill:url(#g);}
	.st4{fill:url(#e);}
	.st5{fill:url(#f);}
	.st6{fill:url(#d);}
	.st7{opacity:0.2;}
	.st8{opacity:0.2;fill:#FFFFFF;enable-background:new    ;}
	.st9{fill:#666666;}
	.st10{fill:#F33052;}
	.st11{opacity:0.4;}
	.st12{fill:#BBCEE1;}
	.st13{fill:#0B3B56;}
</style>
	<defs>
		<rect id="b" x="-2524.3" y="-4746" width="3e3" height="5336"/>
	</defs>
	<clipPath id="a">
		<use xlink:href="#b"/>
	</clipPath>
	<g class="st0">
		<rect class="st1" x="-2524.3" y="-4746" width="3e3" height="5336"/>
		<g transform="translate(-99.521 791.61) rotate(-77)">
				<linearGradient id="c" x1="250.84" x2="245.36" y1="-100.64" y2="-107.47" gradientTransform="matrix(35.321 232.94 152.99 -53.779 5682.2 -66743)" gradientUnits="userSpaceOnUse">
				<stop stop-color="#2BA6F8" offset="0"/>
				<stop offset="1"/>
			</linearGradient>
			<path class="st2" d="m-1105.1-2982.3s616.9-32.2 726.7 373.2c119.7 441.7-263.1 649.4-392.9 548s-135.7-239.2 66.4-330.1 181.8-371.2-260.1-301.3-493 632.3-172.9 766.8 242.2 292.9-102.2 461.3-156.1 394.1-156.1 394.1h-215.4v-1911.9h506.5z"/>
		</g>
		<g transform="translate(225 845.4) rotate(259)">
				<linearGradient id="g" x1="400.19" x2="392.19" y1="-286.36" y2="-295.27" gradientTransform="matrix(-54.984 236.23 282.87 45.919 1.0405e5 -80127)" gradientUnits="userSpaceOnUse">
				<stop stop-color="#2BA6F8" offset="0"/>
				<stop stop-color="#090909" offset=".906"/>
				<stop offset="1"/>
			</linearGradient>
			<path class="st3" d="m1310.9 769.8s165.5-374.1-349.8-207.8-435.5-63.2-366-178.8c75.4-125.4 175.9-201.7 166.9-325.7-11.8-162.6-248.5-168.5-447-271.9-479.2-249.7-417.8-102.2-235.3-221.6s80.1-158.3-172.5-149.2c-545.6 19.7 106.6-155.7 197.7-239.9s75.4-276.5-353.9-146.4-267.9-184-267.9-184h-452.2v1925.2l2280 0.1z"/>
				<linearGradient id="e" x1="398.81" x2="393.33" y1="-291.78" y2="-298.6" gradientTransform="matrix(-29.96 236.31 154.13 45.934 56708 -80153)" gradientUnits="userSpaceOnUse">
				<stop stop-color="#2BA6F8" offset="0"/>
				<stop offset="1"/>
			</linearGradient>
			<path class="st4" d="m-462.6 769.8s616.9 32.4 726.7-375.8c119.7-444.8-263.1-654-392.9-551.9s-135.7 240.9 66.4 332.5 181.8 373.8-260.1 303.4-493-636.6-172.9-772.1 242.2-295-102.2-464.5-156.1-396.8-156.1-396.8h-215.4v1925.2h506.5z"/>
		</g>
		<g transform="translate(225 839.4) rotate(259)">
				<linearGradient id="f" x1="394.31" x2="386.31" y1="-287.36" y2="-296.27" gradientTransform="matrix(-54.984 236.23 282.87 45.919 1.0405e5 -78684)" gradientUnits="userSpaceOnUse">
				<stop stop-color="#2BA6F8" offset="0"/>
				<stop stop-color="#090909" offset=".906"/>
				<stop offset="1"/>
			</linearGradient>
			<path class="st5" d="m1352.1 777.8s165.5-374.1-349.8-207.8-435.5-63.2-366-178.8c75.3-125.3 175.8-201.6 166.9-325.6-11.8-162.7-248.5-168.6-446.9-272-479.3-249.7-417.9-102.1-235.3-221.5s80.1-158.3-172.5-149.2c-545.6 19.7 106.5-155.8 197.7-240s75.4-276.5-353.9-146.4-267.9-184-267.9-184h-452.2v1925.2l2279.9 0.1z"/>
				<linearGradient id="d" x1="392.9" x2="387.42" y1="-292.66" y2="-299.48" gradientTransform="matrix(-29.96 236.31 154.13 45.934 56708 -78708)" gradientUnits="userSpaceOnUse">
				<stop stop-color="#2BA6F8" offset="0"/>
				<stop offset="1"/>
			</linearGradient>
			<path class="st6" d="m-421.4 777.8s616.9 32.4 726.7-375.8c119.7-444.8-263-653.9-392.9-551.9s-135.7 240.9 66.4 332.5 181.8 373.8-260.1 303.4-493-636.6-172.9-772.1 242.2-295-102.2-464.5-156.1-396.8-156.1-396.8h-215.4v1925.2h506.5z"/>
		</g>
		<g class="st7" transform="matrix(-.946 .326 -.326 -.946 439.85 529.17)">
			<g transform="translate(0)">
					<path class="st1" d="m-446.7 1045.4v-66.8l-48.8-8.1c-3.8-14.7-9.7-28.8-17.4-41.9l28.8-40.3-47.2-47.2-40.3 28.8c-13.1-7.7-27.2-13.6-41.9-17.4l-8.1-48.8h-66.8l-8.1 48.8c-14.7 3.8-28.8 9.7-41.9 17.4l-40.3-28.8-47.2 47.2 28.8 40.3c-7.7 13.1-13.6 27.2-17.4 41.9l-48.8 8.1v66.8l48.8 8.1c3.8 14.7 9.7 28.8 17.4 41.9l-28.8 40.3 47.2 47.2 40.3-28.8c13.1 7.7 27.2 13.6 41.9 17.4l8.1 48.8h66.8l8.1-48.8c14.7-3.8 28.8-9.6 41.9-17.4l40.3 28.8 47.2-47.2-28.8-40.3c7.7-13.1 13.6-27.2 17.4-41.9l48.8-8.1zm-64.3-1.3c-3.7 16.7-10.3 32.6-19.5 47.1l-3.2 4.9 27 37.8-26.4 26.4-37.8-27-4.9 3.1c-14.4 9.2-30.4 15.8-47.1 19.6l-5.7 1.3-7.6 45.7h-37.4l-7.6-45.7-5.7-1.3c-16.7-3.7-32.6-10.3-47.1-19.6l-4.9-3.1-37.8 27-26.4-26.4 27-37.8-3.2-4.9c-9.2-14.4-15.8-30.4-19.5-47.1l-1.3-5.7-45.7-7.6v-37.4l45.7-7.6 1.3-5.7c3.7-16.7 10.3-32.6 19.5-47.1l3.2-4.9-27-37.8 26.4-26.4 37.8 27 4.9-3.1c14.4-9.2 30.4-15.8 47.1-19.6l5.7-1.3 7.6-45.7h37.4l7.6 45.7 5.7 1.3c16.7 3.7 32.6 10.3 47.1 19.6l4.9 3.1 37.8-27 26.4 26.4-27 37.8 3.2 4.9c9.2 14.4 15.8 30.4 19.5 47.1l1.3 5.7 45.7 7.6v37.4l-45.7 7.6-1.3 5.7z"/>
			</g>
			<g transform="translate(15.187 15.187)">
				<g transform="translate(0)">
					<path class="st1" d="m-670.1 910.1c-47.9 0-86.8 38.9-86.8 86.8s38.9 86.8 86.8 86.8 86.8-38.9 86.8-86.8c-0.1-48-38.9-86.8-86.8-86.8zm0 156.2c-38.3 0-69.4-31.1-69.4-69.4s31.1-69.4 69.4-69.4 69.4 31.1 69.4 69.4c-0.1 38.3-31.1 69.3-69.4 69.4z"/>
				</g>
			</g>
		</g>
		<path class="st8" d="m-2439.3-608l-38.5-32.3 8.3-9.9 42.5-3.7 13.6-16.2c3.5 0.2 6.5-2.5 6.7-6s-2.5-6.5-6-6.7-6.5 2.5-6.7 6c0 0.6 0 1.2 0.2 1.8l-11.6 13.8-42.5 3.7-10.3 12.3-17.4-14.6 12.1-14.5c3.5 0.2 6.5-2.5 6.7-6s-2.5-6.5-6-6.7-6.5 2.5-6.7 6c0 0.6 0 1.2 0.2 1.8l-12.1 14.5-15.3-12.8 34.5-41.1 17 14.2 1 11.8c-2.7 2.3-2.9 6.4-0.6 9 2.3 2.7 6.4 2.9 9 0.6 2.7-2.3 2.9-6.4 0.6-9-0.4-0.5-0.9-0.9-1.5-1.2l-1.3-14.9-19.4-16.3 11.3-13.4 30.7 25.8 11.2-0.2c2.1 2.8 6.1 3.3 8.9 1.1s3.3-6.1 1.1-8.9c-2.1-2.8-6.1-3.3-8.9-1.1-0.4 0.3-0.7 0.6-1 0.9l-0.3 0.3-8.3 0.1-28.5-23.9 14-16.7 70.7 59.3 2 22.4-43.9 52.4-12-10.1c0.2-3.5-2.5-6.5-6-6.7s-6.5 2.5-6.7 6 2.5 6.5 6 6.7c0.6 0 1.2 0 1.8-0.2l12 10.1-10.6 12.5z"/>
		<g class="st7" transform="translate(16.32 464.9) rotate(129)">
			<path class="st9" d="m504.2 2886"/>
			<path d="m490.9 2909.3"/>
			<path d="m520.9 2914.2"/>
			<path d="m549.5 2909.3"/>
			<path class="st10" d="m520.8 2893.2"/>
			<path d="m357.4 2909.3"/>
			<path class="st10" d="m397.8 2893.2"/>
			<g transform="translate(.084)">
				<path class="st1" d="m427.2 2902.9l-69.2-30.1v-16.7l69.2-29.9v19.6l-48.2 18.4 48.3 19.2-0.1 19.5z"/>
				<path class="st1" d="m433.6 2916.1l25-104.3h14.5l-25.3 104.3h-14.2z"/>
				<path class="st1" d="m479.5 2903v-19.5l48.3-19-48.3-18.8v-19.4l69.2 29.9v16.5l-69.2 30.3z"/>
			</g>
		</g>
		<g transform="translate(442.25 562.08) rotate(149)">
			<g class="st11" transform="translate(49.473 25.692)">
				<g transform="translate(0)">
					<path class="st1" d="m-561.4 686.8v-6.1l157-90.6v6.1l-157 90.6z"/>
					<path class="st1" d="m-369.4 581.1v6.1l-25.4 14.7v-6.1l25.4-14.7z"/>
					<path class="st1" d="m-561.4 697.8v-6.1l157-90.6v6.1l-157 90.6z"/>
					<path class="st1" d="m-369.4 614.2v6.1l-25.4 14.7v-6.1l25.4-14.7z"/>
					<path class="st1" d="m-369.4 625.3v6.1l-25.4 14.7v-6.1l25.4-14.7z"/>
					<path class="st1" d="m-369.4 669.6v6.1l-25.4 14.7v-6.1l25.4-14.7z"/>
					<path class="st1" d="m-369.4 680.6v6.1l-25.4 14.7v-6.1l25.4-14.7z"/>
					<g transform="translate(7.244 14.968)">
						<path class="st1" d="M-510.7,743l99-57.1v6.1l-99,57.1V743z"/>
					</g>
					<g transform="translate(0 13.585)">
						<path class="st1" d="m-454.1 704.9l49.8-28.7v6.1l-49.8 28.7v-6.1z"/>
						<path class="st1" d="m-459.4 707.9v6.1l-102 58.8v-6.1l102-58.8z"/>
					</g>
					<path class="st1" d="m-548 739.4v6.1l-13.4 7.7v-6.1l13.4-7.7z"/>
					<path class="st1" d="m-474.9 686.2l70.5-40.7v6.1l-70.5 40.7v-6.1z"/>
					<g transform="translate(5.889 .37)">
						<path class="st1" d="m-520.2 620l63-36.4v6.1l-63 36.3v-6z"/>
					</g>
					<path class="st1" d="m-477.5 610.2l44.4-25.6v6.1l-44.4 25.6v-6.1z"/>
					<g transform="translate(0 4.025)">
						<path class="st1" d="m-524.1 633.1l41.3-23.8v6.1l-41.3 23.8v-6.1z"/>
						<path class="st1" d="m-529.3 636.1v6.1l-32.1 18.5v-6.1l32.1-18.5z"/>
					</g>
					<path class="st1" d="m-412.6 583.8v6.1l-33.4 19.3v-6.1l33.4-19.3z"/>
					<path class="st1" d="m-548.3 662.1l97.1-56v6.1l-97.1 56v-6.1z"/>
					<path class="st1" d="m-492.7 663.3l63.4-36.6v6.1l-63.4 36.6v-6.1z"/>
					<path class="st1" d="m-548.3 695.3l50.4-29v6.1l-50.4 29v-6.1z"/>
					<g transform="translate(2.33 13.516)">
						<path class="st1" d="m-545.1 711.8l62.6-36.1v6.1l-62.6 36.1v-6.1z"/>
					</g>
					<path class="st1" d="m-508.7 716.7v6.1l-34.1 19.7v-6.1l34.1-19.7z"/>
					<path class="st1" d="m-416.7 663.6l12.3-7.1v6.1l-12.3 7.1v-6.1z"/>
					<g transform="translate(7.244 10.698)">
						<path class="st1" d="m-446.9 666.2v6.1l-63.8 36.8v-6l63.8-36.9z"/>
						<path class="st1" d="m-441.7 663.2l12.6-7.2v6.1l-12.6 7.2v-6.1z"/>
					</g>
					<path class="st1" d="m-491.6 717.9l69.8-40.2v6.1l-69.8 40.2v-6.1z"/>
				</g>
			</g>
			<g class="st11" transform="translate(49.473)">
				<path class="st1" d="m-505 462.3l105.5-61.1v5.4l-105.5 61.1v-5.4z"/>
				<path class="st1" d="m-399.5 417.1l-161.8 93.6v-5.4l161.8-93.6v5.4z"/>
				<path class="st1" d="m-512.1 466.3v5.4l-49.3 28.5v-5.4l49.3-28.5z"/>
				<path class="st1" d="m-505 482.9l105.5-61.1v5.4l-105.5 61v-5.3z"/>
				<path class="st1" d="m-399.5 437.7l-161.8 93.6v-5.4l161.8-93.6v5.4z"/>
				<path class="st1" d="m-512.1 492.2l-49.3 28.5v-5.4l49.3-28.5v5.4z"/>
				<path class="st1" d="m-505 516.8l105.5-61.1v5.4l-105.5 61.1v-5.4z"/>
				<path class="st1" d="m-399.5 471.6l-161.8 93.6v-5.4l161.8-93.6v5.4z"/>
				<path class="st1" d="m-512.1 526.1l-49.3 28.5v-5.4l49.3-28.5v5.4z"/>
				<path class="st1" d="m-505 537.4l105.5-61.1v5.4l-105.5 61v-5.3z"/>
				<path class="st1" d="m-399.5 492.2l-161.8 93.6v-5.4l161.8-93.6v5.4z"/>
				<path class="st1" d="m-512.1 546.7l-49.3 28.5v-5.4l49.3-28.5v5.4z"/>
				<path class="st1" d="m-505 571.3l105.5-61.1v5.4l-105.5 61.1v-5.4z"/>
				<path class="st1" d="m-399.5 526.1l-161.8 93.6v-5.4l161.8-93.6v5.4z"/>
				<path class="st1" d="m-512.1 580.6l-49.3 28.5v-5.4l49.3-28.5v5.4z"/>
				<path class="st1" d="m-505 591.9l105.5-61.1v5.4l-105.5 61v-5.3z"/>
				<path class="st1" d="m-512.1 601.2l-49.3 28.5v-5.4l49.3-28.5v5.4z"/>
			</g>
			<g transform="translate(98.874 47.312)">
				<g transform="translate(0)">
					<path class="st12" d="m-215.6 732.4l0.2 0.1-0.2-0.1z"/>
				</g>
			</g>
			<g class="st11" transform="translate(102.96 27.786)">
				<g transform="translate(0)">
					<path class="st1" d="m5 595.7v6.1l-25.4 14.7v-6.1l25.4-14.7z"/>
					<path class="st1" d="m5 606.8v6.1l-25.4 14.7v-6.1l25.4-14.7z"/>
					<path class="st1" d="m5 617.8v6.1l-25.4 14.7v-6.1l25.4-14.7z"/>
					<path class="st1" d="m-187 745.7v-6.1l157-90.6v6.1l-157 90.6z"/>
					<path class="st1" d="m5 628.9v6.1l-25.4 14.7v-6.1l25.4-14.7z"/>
					<path class="st1" d="M5,640l0,6.1l-25.4,14.7v-6.1L5,640z"/>
					<path class="st1" d="m-187 756.8v-6.1l157-90.6v6.1l-157 90.6z"/>
					<path class="st1" d="m5 673.2v6.1l-25.4 14.7v-6.1l25.4-14.7z"/>
					<path class="st1" d="m5 684.2v6.1l-25.4 14.7v-6.1l25.4-14.7z"/>
					<path class="st1" d="m5 728.5v6.1l-25.4 14.7v-6.1l25.4-14.7z"/>
					<path class="st1" d="m5 739.5v6.1l-25.4 14.7v-6.1l25.4-14.7z"/>
					<g transform="translate(0 20.499)">
						<path class="st1" d="m-129 796.3l99-57.1v6.1l-99 57.1v-6.1z"/>
						<path class="st1" d="m-134.2 799.4v6.1l-52.7 30.4v-6.1l52.7-30.4z"/>
					</g>
					<g transform="translate(0 19.116)">
						<path class="st1" d="m-79.7 758.2l49.8-28.7v6.1l-49.8 28.7v-6.1z"/>
						<path class="st1" d="m-84.9 761.2v6.1l-102 58.8v-6.1l102-58.8z"/>
					</g>
					<path class="st1" d="m-173.5 798.3v6.1l-13.4 7.7v-6.1l13.4-7.7z"/>
					<path class="st1" d="m-100.5 745.1l70.5-40.7v6.1l-70.5 40.7v-6.1z"/>
					<path class="st1" d="m-71.6 639.9l41.6-24v6.1l-41.6 24v-6.1z"/>
					<g transform="translate(5.889 5.901)">
						<path class="st1" d="m-145.7 673.4l63-36.4v6.1l-63 36.3v-6z"/>
					</g>
					<path class="st1" d="m-103.1 669.2l44.4-25.6v6.1l-44.4 25.6v-6.1z"/>
					<g transform="translate(0 9.556)">
						<path class="st1" d="m-149.7 686.5l41.3-23.8v6.1l-41.3 23.8v-6.1z"/>
						<path class="st1" d="m-154.9 689.5v6.1l-32.1 18.4v-6l32.1-18.5z"/>
					</g>
					<path class="st1" d="m-38.2 642.7v6.1l-33.4 19.3v-6.1l33.4-19.3z"/>
					<path class="st1" d="M-173.9,721l97.1-56v6.1l-97.1,56V721z"/>
					<path class="st1" d="m-118.3 722.2l63.4-36.6v6.1l-63.4 36.6v-6.1z"/>
					<path class="st1" d="m-173.9 754.2l50.4-29v6.1l-50.4 29v-6.1z"/>
					<g transform="translate(2.33 19.048)">
						<path class="st1" d="m-170.7 765.2l62.6-36.1v6.1l-62.6 36.1v-6.1z"/>
					</g>
					<path class="st1" d="m-134.2 775.6v6.1l-34.1 19.7v-6.1l34.1-19.7z"/>
					<path class="st1" d="m-42.2 722.5l12.3-7.1v6.1l-12.3 7.1v-6.1z"/>
					<g transform="translate(7.244 16.229)">
						<path class="st1" d="m-72.5 719.6v6.1l-63.8 36.8v-6l63.8-36.9z"/>
						<path class="st1" d="m-67.3 716.6l12.6-7.2v6.1l-12.6 7.2v-6.1z"/>
					</g>
					<path class="st1" d="m-117.2 776.8l69.8-40.2v6.1l-69.8 40.2v-6.1z"/>
				</g>
			</g>
			<path class="st8" d="m-650.6 702.2l78.8-45.5c2.8-1.6 6.3-0.6 7.9 2.1 0.5 0.9 0.8 1.9 0.8 2.9v94.3c0 4.6-2.4 8.8-6.4 11.1l-78.8 45.6c-2.8 1.6-6.4 0.7-8.1-2.1-0.5-0.9-0.8-1.9-0.8-3v-93.9c-0.1-4.7 2.5-9.1 6.6-11.5z"/>
			<path class="st8" d="m-255.5 468.6l78.8-45.5c2.8-1.6 6.3-0.6 7.9 2.1 0.5 0.9 0.8 1.9 0.8 2.9v94.3c0 4.6-2.4 8.8-6.4 11.1l-78.8 45.6c-2.8 1.6-6.4 0.7-8.1-2.1-0.5-0.9-0.8-1.9-0.8-3v-93.9c-0.1-4.7 2.4-9.1 6.6-11.5z"/>
			<path class="st8" d="m-758.3 519.9l78.8-45.4c2.8-1.6 6.3-0.6 7.9 2.1 0.5 0.9 0.8 1.9 0.8 2.9v94.3c0 4.6-2.4 8.8-6.4 11.1l-78.8 45.6c-2.8 1.6-6.4 0.7-8.1-2.1-0.5-0.9-0.8-1.9-0.8-3v-93.9c0-4.8 2.5-9.2 6.6-11.6z"/>
			<path class="st8" d="m-315.7 781l78.8-45.5c2.8-1.6 6.3-0.6 7.9 2.1 0.5 0.9 0.8 1.9 0.8 2.9v94.3c0 4.6-2.4 8.8-6.4 11.1l-78.8 45.6c-2.8 1.6-6.4 0.7-8.1-2.2-0.5-0.9-0.8-1.9-0.8-3v-93.9c0-4.6 2.5-9 6.6-11.4z"/>
			<g transform="translate(104.96 51.545)">
				<g transform="translate(0)">
					<path class="st13" d="m-165.6 762l-7.4 12.8"/>
				</g>
			</g>
			<g transform="translate(9.158 110.14)">
				<path class="st1" d="m-843.6 1172.2"/>
			</g>
			<g transform="translate(12.313 93.815)">
				<g transform="translate(0)">
					<path class="st12" d="m-821.5 1057.9l0.2 0.1-0.2-0.1z"/>
				</g>
			</g>
			<g transform="translate(40.721 62.927)">
				<g transform="translate(0)">
					<path class="st12" d="m-622.7 841.7l0.2 0.1c0-0.1-0.1-0.1-0.2-0.1z"/>
				</g>
			</g>
			<g transform="translate(69.003 32.761)">
				<g transform="translate(0)">
					<path class="st12" d="m-424.7 630.5l0.1 0.1-0.1-0.1z"/>
				</g>
			</g>
			<g class="st11" transform="translate(29.875 62.948)">
				<g transform="translate(0)">
					<path class="st1" d="m-506.6 841.8v6.1l-25.4 14.7v-6.1l25.4-14.7z"/>
					<path class="st1" d="m-506.6 852.9v6.1l-25.4 14.7v-6.1l25.4-14.7z"/>
					<path class="st1" d="m-506.6 864v6.1l-25.4 14.7v-6.1l25.4-14.7z"/>
					<path class="st1" d="m-698.6 991.8v-6.1l157-90.6v6.1l-157 90.6z"/>
					<path class="st1" d="m-506.6 875v6.1l-25.4 14.7v-6.1l25.4-14.7z"/>
					<path class="st1" d="m-506.6 886.1v6.1l-25.4 14.7v-6.1l25.4-14.7z"/>
					<path class="st1" d="m-698.6 1002.9v-6.1l157-90.6v6.1l-157 90.6z"/>
					<path class="st1" d="m-506.6 919.3v6.1l-25.4 14.6v-6l25.4-14.7z"/>
					<path class="st1" d="m-506.6 930.4v6.1l-25.4 14.7v-6.2l25.4-14.6z"/>
					<path class="st1" d="m-506.6 974.6v6.1l-25.4 14.7v-6.1l25.4-14.7z"/>
					<path class="st1" d="m-506.6 985.7v6.1l-25.4 14.7v-6.1l25.4-14.7z"/>
					<g transform="translate(0 20.499)">
						<path class="st1" d="m-640.6 1042.5l99-57.1v6.1l-99 57.1v-6.1z"/>
						<path class="st1" d="m-645.8 1045.5v6.1l-52.7 30.4v-6.1l52.7-30.4z"/>
					</g>
					<g transform="translate(0 19.116)">
						<path class="st1" d="m-591.3 1004.4l49.8-28.7v6.1l-49.8 28.7v-6.1z"/>
						<path class="st1" d="m-596.6 1007.4v6.1l-102 58.8v-6.1l102-58.8z"/>
					</g>
					<path class="st1" d="m-685.2 1044.4v6.1l-13.4 7.7v-6.1l13.4-7.7z"/>
					<path class="st1" d="m-612.1 991.2l70.5-40.7v6.1l-70.5 40.7v-6.1z"/>
					<path class="st1" d="M-583.2,886l41.6-24v6.1l-41.6,24V886z"/>
					<g transform="translate(5.889 5.901)">
						<path class="st1" d="m-657.4 919.5l63-36.4v6.1l-63 36.3v-6z"/>
					</g>
					<path class="st1" d="m-614.7 915.3l44.4-25.6v6.1l-44.4 25.6v-6.1z"/>
					<g transform="translate(0 9.556)">
						<path class="st1" d="m-661.3 932.6l41.3-23.8v6.1l-41.3 23.8v-6.1z"/>
						<path class="st1" d="m-666.5 935.6v6.1l-32.1 18.5v-6.1l32.1-18.5z"/>
					</g>
					<path class="st1" d="m-549.8 888.9v6.1l-33.4 19.3v-6.1l33.4-19.3z"/>
					<path class="st1" d="m-685.5 967.2l97.1-56v6.1l-97.1 56v-6.1z"/>
					<path class="st1" d="m-629.9 968.3l63.4-36.6v6.1l-63.4 36.6v-6.1z"/>
					<path class="st1" d="m-685.5 1000.4l50.4-29v6.1l-50.4 29v-6.1z"/>
					<g transform="translate(2.33 19.048)">
						<path class="st1" d="m-682.3 1011.3l62.6-36.1v6.1l-62.6 36.1v-6.1z"/>
					</g>
					<path class="st1" d="m-645.8 1021.7v6.1l-34.1 19.7v-6.1l34.1-19.7z"/>
					<path class="st1" d="m-553.8 968.7l12.3-7.1v6.1l-12.3 7.1v-6.1z"/>
					<g transform="translate(7.244 16.229)">
						<path class="st1" d="m-584.1 965.7v6.1l-63.8 36.8v-6l63.8-36.9z"/>
						<path class="st1" d="m-578.9 962.7l12.6-7.2v6.1l-12.6 7.2v-6.1z"/>
					</g>
					<path class="st1" d="m-628.8 1023l69.8-40.2v6.1l-69.8 40.2v-6.1z"/>
				</g>
			</g>
			<g class="st11" transform="translate(0 33.808)">
				<g transform="translate(0)">
					<path class="st1" d="m-715.7 637.9v6.1l-25.4 14.7v-6.1l25.4-14.7z"/>
					<path class="st1" d="m-715.7 648.9v6.1l-25.4 14.7v-6.1l25.4-14.7z"/>
					<path class="st1" d="m-715.7 660v6.1l-25.4 14.7v-6.1l25.4-14.7z"/>
					<path class="st1" d="m-907.7 787.9v-6.1l157-90.6v6.1l-157 90.6z"/>
					<path class="st1" d="m-715.7 671.1v6.1l-25.4 14.7v-6.1l25.4-14.7z"/>
					<path class="st1" d="m-715.7 682.1v6.1l-25.4 14.7v-6.1l25.4-14.7z"/>
					<path class="st1" d="m-907.7 798.9v-6.1l157-90.6v6.1l-157 90.6z"/>
					<path class="st1" d="m-715.7 715.3v6.1l-25.4 14.7v-6.1l25.4-14.7z"/>
					<path class="st1" d="m-715.7 726.4v6.1l-25.4 14.7v-6.2l25.4-14.6z"/>
					<path class="st1" d="m-715.7 770.6v6.1l-25.4 14.7v-6.1l25.4-14.7z"/>
					<path class="st1" d="m-715.7 781.7v6.1l-25.4 14.7v-6.1l25.4-14.7z"/>
					<g transform="translate(7.244 20.499)">
						<path class="st1" d="m-857 838.5l99-57.1v6.1l-99 57.1v-6.1z"/>
					</g>
					<g transform="translate(13.405 19.116)">
						<path class="st1" d="m-813.9 800.4l49.8-28.7v6.1l-49.8 28.7v-6.1z"/>
					</g>
					<path class="st1" d="m-894.3 840.4v6.1l-13.4 7.7v-6.1l13.4-7.7z"/>
					<path class="st1" d="m-821.2 787.2l70.5-40.7v6.1l-70.5 40.7v-6.1z"/>
					<path class="st1" d="M-792.3,682l41.6-24v6.1l-41.6,24V682z"/>
					<g transform="translate(5.889 5.901)">
						<path class="st1" d="m-866.5 715.5l63-36.4v6.1l-63 36.3v-6z"/>
					</g>
					<path class="st1" d="m-823.9 711.3l44.4-25.6v6.1l-44.4 25.6v-6.1z"/>
					<g transform="translate(0 9.556)">
						<path class="st1" d="m-870.4 728.6l41.3-23.8v6.1l-41.3 23.8v-6.1z"/>
						<path class="st1" d="m-875.6 731.6v6.1l-32.1 18.5v-6.1l32.1-18.5z"/>
					</g>
					<path class="st1" d="m-758.9 684.9v6.1l-33.4 19.3v-6.1l33.4-19.3z"/>
					<path class="st1" d="m-894.6 763.2l97.1-56v6.1l-97.1 56v-6.1z"/>
					<path class="st1" d="m-839.1 764.3l63.4-36.6v6.1l-63.4 36.6v-6.1z"/>
					<path class="st1" d="m-894.6 796.4l50.4-29v6.1l-50.4 29v-6.1z"/>
					<g transform="translate(2.33 19.048)">
						<path class="st1" d="m-891.4 807.3l62.6-36.1v6.1l-62.6 36.1v-6.1z"/>
					</g>
					<path class="st1" d="m-855 817.8v6.1l-34.1 19.7v-6.1l34.1-19.7z"/>
					<path class="st1" d="m-763 764.7l12.3-7.1v6.1l-12.3 7.1v-6.1z"/>
					<g transform="translate(7.244 16.229)">
						<path class="st1" d="m-793.2 761.7v6.1l-63.8 36.8v-6l63.8-36.9z"/>
						<path class="st1" d="m-788 758.7l12.6-7.2v6.1l-12.6 7.2v-6.1z"/>
					</g>
					<path class="st1" d="M-837.9,819l69.8-40.2v6.1l-69.8,40.2V819z"/>
				</g>
			</g>
		</g>
		<g transform="translate(442.25 562.08) rotate(149)">
			<g class="st11" transform="translate(49.473 25.692)">
				<g transform="translate(0)">
					<path class="st1" d="m-561.4 686.8v-6.1l157-90.6v6.1l-157 90.6z"/>
					<path class="st1" d="m-369.4 581.1v6.1l-25.4 14.7v-6.1l25.4-14.7z"/>
					<path class="st1" d="m-561.4 697.8v-6.1l157-90.6v6.1l-157 90.6z"/>
					<path class="st1" d="m-369.4 614.2v6.1l-25.4 14.7v-6.1l25.4-14.7z"/>
					<path class="st1" d="m-369.4 625.3v6.1l-25.4 14.7v-6.1l25.4-14.7z"/>
					<path class="st1" d="m-369.4 669.6v6.1l-25.4 14.7v-6.1l25.4-14.7z"/>
					<path class="st1" d="m-369.4 680.6v6.1l-25.4 14.7v-6.1l25.4-14.7z"/>
					<g transform="translate(7.244 14.968)">
						<path class="st1" d="M-510.7,743l99-57.1v6.1l-99,57.1V743z"/>
					</g>
					<g transform="translate(0 13.585)">
						<path class="st1" d="m-454.1 704.9l49.8-28.7v6.1l-49.8 28.7v-6.1z"/>
						<path class="st1" d="m-459.4 707.9v6.1l-102 58.8v-6.1l102-58.8z"/>
					</g>
					<path class="st1" d="m-548 739.4v6.1l-13.4 7.7v-6.1l13.4-7.7z"/>
					<path class="st1" d="m-474.9 686.2l70.5-40.7v6.1l-70.5 40.7v-6.1z"/>
					<g transform="translate(5.889 .37)">
						<path class="st1" d="m-520.2 620l63-36.4v6.1l-63 36.3v-6z"/>
					</g>
					<path class="st1" d="m-477.5 610.2l44.4-25.6v6.1l-44.4 25.6v-6.1z"/>
					<g transform="translate(0 4.025)">
						<path class="st1" d="m-524.1 633.1l41.3-23.8v6.1l-41.3 23.8v-6.1z"/>
						<path class="st1" d="m-529.3 636.1v6.1l-32.1 18.5v-6.1l32.1-18.5z"/>
					</g>
					<path class="st1" d="m-412.6 583.8v6.1l-33.4 19.3v-6.1l33.4-19.3z"/>
					<path class="st1" d="m-548.3 662.1l97.1-56v6.1l-97.1 56v-6.1z"/>
					<path class="st1" d="m-492.7 663.3l63.4-36.6v6.1l-63.4 36.6v-6.1z"/>
					<path class="st1" d="m-548.3 695.3l50.4-29v6.1l-50.4 29v-6.1z"/>
					<g transform="translate(2.33 13.516)">
						<path class="st1" d="m-545.1 711.8l62.6-36.1v6.1l-62.6 36.1v-6.1z"/>
					</g>
					<path class="st1" d="m-508.7 716.7v6.1l-34.1 19.7v-6.1l34.1-19.7z"/>
					<path class="st1" d="m-416.7 663.6l12.3-7.1v6.1l-12.3 7.1v-6.1z"/>
					<g transform="translate(7.244 10.698)">
						<path class="st1" d="m-446.9 666.2v6.1l-63.8 36.8v-6l63.8-36.9z"/>
						<path class="st1" d="m-441.7 663.2l12.6-7.2v6.1l-12.6 7.2v-6.1z"/>
					</g>
					<path class="st1" d="m-491.6 717.9l69.8-40.2v6.1l-69.8 40.2v-6.1z"/>
				</g>
			</g>
			<g class="st11" transform="translate(49.473)">
				<path class="st1" d="m-505 462.3l105.5-61.1v5.4l-105.5 61.1v-5.4z"/>
				<path class="st1" d="m-399.5 417.1l-161.8 93.6v-5.4l161.8-93.6v5.4z"/>
				<path class="st1" d="m-512.1 466.3v5.4l-49.3 28.5v-5.4l49.3-28.5z"/>
				<path class="st1" d="m-505 482.9l105.5-61.1v5.4l-105.5 61v-5.3z"/>
				<path class="st1" d="m-399.5 437.7l-161.8 93.6v-5.4l161.8-93.6v5.4z"/>
				<path class="st1" d="m-512.1 492.2l-49.3 28.5v-5.4l49.3-28.5v5.4z"/>
				<path class="st1" d="m-505 516.8l105.5-61.1v5.4l-105.5 61.1v-5.4z"/>
				<path class="st1" d="m-399.5 471.6l-161.8 93.6v-5.4l161.8-93.6v5.4z"/>
				<path class="st1" d="m-512.1 526.1l-49.3 28.5v-5.4l49.3-28.5v5.4z"/>
				<path class="st1" d="m-505 537.4l105.5-61.1v5.4l-105.5 61v-5.3z"/>
				<path class="st1" d="m-399.5 492.2l-161.8 93.6v-5.4l161.8-93.6v5.4z"/>
				<path class="st1" d="m-512.1 546.7l-49.3 28.5v-5.4l49.3-28.5v5.4z"/>
				<path class="st1" d="m-505 571.3l105.5-61.1v5.4l-105.5 61.1v-5.4z"/>
				<path class="st1" d="m-399.5 526.1l-161.8 93.6v-5.4l161.8-93.6v5.4z"/>
				<path class="st1" d="m-512.1 580.6l-49.3 28.5v-5.4l49.3-28.5v5.4z"/>
				<path class="st1" d="m-505 591.9l105.5-61.1v5.4l-105.5 61v-5.3z"/>
				<path class="st1" d="m-512.1 601.2l-49.3 28.5v-5.4l49.3-28.5v5.4z"/>
			</g>
			<g transform="translate(98.874 47.312)">
				<g transform="translate(0)">
					<path class="st12" d="m-215.6 732.4l0.2 0.1-0.2-0.1z"/>
				</g>
			</g>
			<g class="st11" transform="translate(102.96 27.786)">
				<g transform="translate(0)">
					<path class="st1" d="m5 595.7v6.1l-25.4 14.7v-6.1l25.4-14.7z"/>
					<path class="st1" d="m5 606.8v6.1l-25.4 14.7v-6.1l25.4-14.7z"/>
					<path class="st1" d="m5 617.8v6.1l-25.4 14.7v-6.1l25.4-14.7z"/>
					<path class="st1" d="m-187 745.7v-6.1l157-90.6v6.1l-157 90.6z"/>
					<path class="st1" d="m5 628.9v6.1l-25.4 14.7v-6.1l25.4-14.7z"/>
					<path class="st1" d="M5,640l0,6.1l-25.4,14.7v-6.1L5,640z"/>
					<path class="st1" d="m-187 756.8v-6.1l157-90.6v6.1l-157 90.6z"/>
					<path class="st1" d="m5 673.2v6.1l-25.4 14.7v-6.1l25.4-14.7z"/>
					<path class="st1" d="m5 684.2v6.1l-25.4 14.7v-6.1l25.4-14.7z"/>
					<path class="st1" d="m5 728.5v6.1l-25.4 14.7v-6.1l25.4-14.7z"/>
					<path class="st1" d="m5 739.5v6.1l-25.4 14.7v-6.1l25.4-14.7z"/>
					<g transform="translate(0 20.499)">
						<path class="st1" d="m-129 796.3l99-57.1v6.1l-99 57.1v-6.1z"/>
						<path class="st1" d="m-134.2 799.4v6.1l-52.7 30.4v-6.1l52.7-30.4z"/>
					</g>
					<g transform="translate(0 19.116)">
						<path class="st1" d="m-79.7 758.2l49.8-28.7v6.1l-49.8 28.7v-6.1z"/>
						<path class="st1" d="m-84.9 761.2v6.1l-102 58.8v-6.1l102-58.8z"/>
					</g>
					<path class="st1" d="m-173.5 798.3v6.1l-13.4 7.7v-6.1l13.4-7.7z"/>
					<path class="st1" d="m-100.5 745.1l70.5-40.7v6.1l-70.5 40.7v-6.1z"/>
					<path class="st1" d="m-71.6 639.9l41.6-24v6.1l-41.6 24v-6.1z"/>
					<g transform="translate(5.889 5.901)">
						<path class="st1" d="m-145.7 673.4l63-36.4v6.1l-63 36.3v-6z"/>
					</g>
					<path class="st1" d="m-103.1 669.2l44.4-25.6v6.1l-44.4 25.6v-6.1z"/>
					<g transform="translate(0 9.556)">
						<path class="st1" d="m-149.7 686.5l41.3-23.8v6.1l-41.3 23.8v-6.1z"/>
						<path class="st1" d="m-154.9 689.5v6.1l-32.1 18.4v-6l32.1-18.5z"/>
					</g>
					<path class="st1" d="m-38.2 642.7v6.1l-33.4 19.3v-6.1l33.4-19.3z"/>
					<path class="st1" d="M-173.9,721l97.1-56v6.1l-97.1,56V721z"/>
					<path class="st1" d="m-118.3 722.2l63.4-36.6v6.1l-63.4 36.6v-6.1z"/>
					<path class="st1" d="m-173.9 754.2l50.4-29v6.1l-50.4 29v-6.1z"/>
					<g transform="translate(2.33 19.048)">
						<path class="st1" d="m-170.7 765.2l62.6-36.1v6.1l-62.6 36.1v-6.1z"/>
					</g>
					<path class="st1" d="m-134.2 775.6v6.1l-34.1 19.7v-6.1l34.1-19.7z"/>
					<path class="st1" d="m-42.2 722.5l12.3-7.1v6.1l-12.3 7.1v-6.1z"/>
					<g transform="translate(7.244 16.229)">
						<path class="st1" d="m-72.5 719.6v6.1l-63.8 36.8v-6l63.8-36.9z"/>
						<path class="st1" d="m-67.3 716.6l12.6-7.2v6.1l-12.6 7.2v-6.1z"/>
					</g>
					<path class="st1" d="m-117.2 776.8l69.8-40.2v6.1l-69.8 40.2v-6.1z"/>
				</g>
			</g>
			<path class="st8" d="m-650.6 702.2l78.8-45.5c2.8-1.6 6.3-0.6 7.9 2.1 0.5 0.9 0.8 1.9 0.8 2.9v94.3c0 4.6-2.4 8.8-6.4 11.1l-78.8 45.6c-2.8 1.6-6.4 0.7-8.1-2.1-0.5-0.9-0.8-1.9-0.8-3v-93.9c-0.1-4.7 2.5-9.1 6.6-11.5z"/>
			<path class="st8" d="m-255.5 468.6l78.8-45.5c2.8-1.6 6.3-0.6 7.9 2.1 0.5 0.9 0.8 1.9 0.8 2.9v94.3c0 4.6-2.4 8.8-6.4 11.1l-78.8 45.6c-2.8 1.6-6.4 0.7-8.1-2.1-0.5-0.9-0.8-1.9-0.8-3v-93.9c-0.1-4.7 2.4-9.1 6.6-11.5z"/>
			<path class="st8" d="m-758.3 519.9l78.8-45.4c2.8-1.6 6.3-0.6 7.9 2.1 0.5 0.9 0.8 1.9 0.8 2.9v94.3c0 4.6-2.4 8.8-6.4 11.1l-78.8 45.6c-2.8 1.6-6.4 0.7-8.1-2.1-0.5-0.9-0.8-1.9-0.8-3v-93.9c0-4.8 2.5-9.2 6.6-11.6z"/>
			<path class="st8" d="m-315.7 781l78.8-45.5c2.8-1.6 6.3-0.6 7.9 2.1 0.5 0.9 0.8 1.9 0.8 2.9v94.3c0 4.6-2.4 8.8-6.4 11.1l-78.8 45.6c-2.8 1.6-6.4 0.7-8.1-2.2-0.5-0.9-0.8-1.9-0.8-3v-93.9c0-4.6 2.5-9 6.6-11.4z"/>
			<g transform="translate(104.96 51.545)">
				<g transform="translate(0)">
					<path class="st13" d="m-165.6 762l-7.4 12.8"/>
				</g>
			</g>
			<g transform="translate(9.158 110.14)">
				<path class="st1" d="m-843.6 1172.2"/>
			</g>
			<g transform="translate(12.313 93.815)">
				<g transform="translate(0)">
					<path class="st12" d="m-821.5 1057.9l0.2 0.1-0.2-0.1z"/>
				</g>
			</g>
			<g transform="translate(40.721 62.927)">
				<g transform="translate(0)">
					<path class="st12" d="m-622.7 841.7l0.2 0.1c0-0.1-0.1-0.1-0.2-0.1z"/>
				</g>
			</g>
			<g transform="translate(69.003 32.761)">
				<g transform="translate(0)">
					<path class="st12" d="m-424.7 630.5l0.1 0.1-0.1-0.1z"/>
				</g>
			</g>
			<g class="st11" transform="translate(29.875 62.948)">
				<g transform="translate(0)">
					<path class="st1" d="m-506.6 841.8v6.1l-25.4 14.7v-6.1l25.4-14.7z"/>
					<path class="st1" d="m-506.6 852.9v6.1l-25.4 14.7v-6.1l25.4-14.7z"/>
					<path class="st1" d="m-506.6 864v6.1l-25.4 14.7v-6.1l25.4-14.7z"/>
					<path class="st1" d="m-698.6 991.8v-6.1l157-90.6v6.1l-157 90.6z"/>
					<path class="st1" d="m-506.6 875v6.1l-25.4 14.7v-6.1l25.4-14.7z"/>
					<path class="st1" d="m-506.6 886.1v6.1l-25.4 14.7v-6.1l25.4-14.7z"/>
					<path class="st1" d="m-698.6 1002.9v-6.1l157-90.6v6.1l-157 90.6z"/>
					<path class="st1" d="m-506.6 919.3v6.1l-25.4 14.6v-6l25.4-14.7z"/>
					<path class="st1" d="m-506.6 930.4v6.1l-25.4 14.7v-6.2l25.4-14.6z"/>
					<path class="st1" d="m-506.6 974.6v6.1l-25.4 14.7v-6.1l25.4-14.7z"/>
					<path class="st1" d="m-506.6 985.7v6.1l-25.4 14.7v-6.1l25.4-14.7z"/>
					<g transform="translate(0 20.499)">
						<path class="st1" d="m-640.6 1042.5l99-57.1v6.1l-99 57.1v-6.1z"/>
						<path class="st1" d="m-645.8 1045.5v6.1l-52.7 30.4v-6.1l52.7-30.4z"/>
					</g>
					<g transform="translate(0 19.116)">
						<path class="st1" d="m-591.3 1004.4l49.8-28.7v6.1l-49.8 28.7v-6.1z"/>
						<path class="st1" d="m-596.6 1007.4v6.1l-102 58.8v-6.1l102-58.8z"/>
					</g>
					<path class="st1" d="m-685.2 1044.4v6.1l-13.4 7.7v-6.1l13.4-7.7z"/>
					<path class="st1" d="m-612.1 991.2l70.5-40.7v6.1l-70.5 40.7v-6.1z"/>
					<path class="st1" d="M-583.2,886l41.6-24v6.1l-41.6,24V886z"/>
					<g transform="translate(5.889 5.901)">
						<path class="st1" d="m-657.4 919.5l63-36.4v6.1l-63 36.3v-6z"/>
					</g>
					<path class="st1" d="m-614.7 915.3l44.4-25.6v6.1l-44.4 25.6v-6.1z"/>
					<g transform="translate(0 9.556)">
						<path class="st1" d="m-661.3 932.6l41.3-23.8v6.1l-41.3 23.8v-6.1z"/>
						<path class="st1" d="m-666.5 935.6v6.1l-32.1 18.5v-6.1l32.1-18.5z"/>
					</g>
					<path class="st1" d="m-549.8 888.9v6.1l-33.4 19.3v-6.1l33.4-19.3z"/>
					<path class="st1" d="m-685.5 967.2l97.1-56v6.1l-97.1 56v-6.1z"/>
					<path class="st1" d="m-629.9 968.3l63.4-36.6v6.1l-63.4 36.6v-6.1z"/>
					<path class="st1" d="m-685.5 1000.4l50.4-29v6.1l-50.4 29v-6.1z"/>
					<g transform="translate(2.33 19.048)">
						<path class="st1" d="m-682.3 1011.3l62.6-36.1v6.1l-62.6 36.1v-6.1z"/>
					</g>
					<path class="st1" d="m-645.8 1021.7v6.1l-34.1 19.7v-6.1l34.1-19.7z"/>
					<path class="st1" d="m-553.8 968.7l12.3-7.1v6.1l-12.3 7.1v-6.1z"/>
					<g transform="translate(7.244 16.229)">
						<path class="st1" d="m-584.1 965.7v6.1l-63.8 36.8v-6l63.8-36.9z"/>
						<path class="st1" d="m-578.9 962.7l12.6-7.2v6.1l-12.6 7.2v-6.1z"/>
					</g>
					<path class="st1" d="m-628.8 1023l69.8-40.2v6.1l-69.8 40.2v-6.1z"/>
				</g>
			</g>
			<g class="st11" transform="translate(0 33.808)">
				<g transform="translate(0)">
					<path class="st1" d="m-715.7 637.9v6.1l-25.4 14.7v-6.1l25.4-14.7z"/>
					<path class="st1" d="m-715.7 648.9v6.1l-25.4 14.7v-6.1l25.4-14.7z"/>
					<path class="st1" d="m-715.7 660v6.1l-25.4 14.7v-6.1l25.4-14.7z"/>
					<path class="st1" d="m-907.7 787.9v-6.1l157-90.6v6.1l-157 90.6z"/>
					<path class="st1" d="m-715.7 671.1v6.1l-25.4 14.7v-6.1l25.4-14.7z"/>
					<path class="st1" d="m-715.7 682.1v6.1l-25.4 14.7v-6.1l25.4-14.7z"/>
					<path class="st1" d="m-907.7 798.9v-6.1l157-90.6v6.1l-157 90.6z"/>
					<path class="st1" d="m-715.7 715.3v6.1l-25.4 14.7v-6.1l25.4-14.7z"/>
					<path class="st1" d="m-715.7 726.4v6.1l-25.4 14.7v-6.2l25.4-14.6z"/>
					<path class="st1" d="m-715.7 770.6v6.1l-25.4 14.7v-6.1l25.4-14.7z"/>
					<path class="st1" d="m-715.7 781.7v6.1l-25.4 14.7v-6.1l25.4-14.7z"/>
					<g transform="translate(7.244 20.499)">
						<path class="st1" d="m-857 838.5l99-57.1v6.1l-99 57.1v-6.1z"/>
					</g>
					<g transform="translate(13.405 19.116)">
						<path class="st1" d="m-813.9 800.4l49.8-28.7v6.1l-49.8 28.7v-6.1z"/>
					</g>
					<path class="st1" d="m-894.3 840.4v6.1l-13.4 7.7v-6.1l13.4-7.7z"/>
					<path class="st1" d="m-821.2 787.2l70.5-40.7v6.1l-70.5 40.7v-6.1z"/>
					<path class="st1" d="M-792.3,682l41.6-24v6.1l-41.6,24V682z"/>
					<g transform="translate(5.889 5.901)">
						<path class="st1" d="m-866.5 715.5l63-36.4v6.1l-63 36.3v-6z"/>
					</g>
					<path class="st1" d="m-823.9 711.3l44.4-25.6v6.1l-44.4 25.6v-6.1z"/>
					<g transform="translate(0 9.556)">
						<path class="st1" d="m-870.4 728.6l41.3-23.8v6.1l-41.3 23.8v-6.1z"/>
						<path class="st1" d="m-875.6 731.6v6.1l-32.1 18.5v-6.1l32.1-18.5z"/>
					</g>
					<path class="st1" d="m-758.9 684.9v6.1l-33.4 19.3v-6.1l33.4-19.3z"/>
					<path class="st1" d="m-894.6 763.2l97.1-56v6.1l-97.1 56v-6.1z"/>
					<path class="st1" d="m-839.1 764.3l63.4-36.6v6.1l-63.4 36.6v-6.1z"/>
					<path class="st1" d="m-894.6 796.4l50.4-29v6.1l-50.4 29v-6.1z"/>
					<g transform="translate(2.33 19.048)">
						<path class="st1" d="m-891.4 807.3l62.6-36.1v6.1l-62.6 36.1v-6.1z"/>
					</g>
					<path class="st1" d="m-855 817.8v6.1l-34.1 19.7v-6.1l34.1-19.7z"/>
					<path class="st1" d="m-763 764.7l12.3-7.1v6.1l-12.3 7.1v-6.1z"/>
					<g transform="translate(7.244 16.229)">
						<path class="st1" d="m-793.2 761.7v6.1l-63.8 36.8v-6l63.8-36.9z"/>
						<path class="st1" d="m-788 758.7l12.6-7.2v6.1l-12.6 7.2v-6.1z"/>
					</g>
					<path class="st1" d="M-837.9,819l69.8-40.2v6.1l-69.8,40.2V819z"/>
				</g>
			</g>
		</g>
		<path class="st8" d="m91.5 165.9l77.6-13.7 3.5 19.9-38.3 54.7 5.8 32.7c-3.7 4-3.5 10.3 0.5 14s10.3 3.5 14-0.5 3.5-10.3-0.5-14c-0.7-0.6-1.5-1.2-2.3-1.6l-4.9-27.8 38.3-54.7-4.4-24.7 35.2-6.2 5.1 29.2c-3.7 4-3.5 10.3 0.5 14s10.3 3.5 14-0.5 3.5-10.3-0.5-14c-0.7-0.6-1.5-1.2-2.3-1.6l-5.1-29.2 30.7-5.4 14.6 82.8-34.2 6-15.2-10.7c-0.1-5.5-4.7-9.9-10.3-9.7-5.5 0.1-9.9 4.7-9.7 10.3 0.1 5.5 4.7 9.9 10.3 9.7 1 0 2-0.2 2.9-0.5l19.3 13.5 39-6.9 4.8 27-61.9 10.9-11 13.6c-5.5-0.2-10.1 4.1-10.3 9.5-0.2 5.5 4.1 10.1 9.5 10.3s10.1-4.1 10.3-9.5c0-0.7 0-1.4-0.1-2.1 0-0.2-0.1-0.5-0.1-0.7l8.2-10.1 57.5-10.1 5.9 33.7-142.4 25.1-28.8-20.2-18.6-105.6 24.2-4.3c4 3.7 10.3 3.5 14-0.5s3.5-10.3-0.5-14-10.3-3.5-14 0.5c-0.6 0.7-1.2 1.5-1.6 2.3l-24.2 4.3-4.5-25.2z"/>
		<path class="st8" d="m91.5 165.9l77.6-13.7 3.5 19.9-38.3 54.7 5.8 32.7c-3.7 4-3.5 10.3 0.5 14s10.3 3.5 14-0.5 3.5-10.3-0.5-14c-0.7-0.6-1.5-1.2-2.3-1.6l-4.9-27.8 38.3-54.7-4.4-24.7 35.2-6.2 5.1 29.2c-3.7 4-3.5 10.3 0.5 14s10.3 3.5 14-0.5 3.5-10.3-0.5-14c-0.7-0.6-1.5-1.2-2.3-1.6l-5.1-29.2 30.7-5.4 14.6 82.8-34.2 6-15.2-10.7c-0.1-5.5-4.7-9.9-10.3-9.7-5.5 0.1-9.9 4.7-9.7 10.3 0.1 5.5 4.7 9.9 10.3 9.7 1 0 2-0.2 2.9-0.5l19.3 13.5 39-6.9 4.8 27-61.9 10.9-11 13.6c-5.5-0.2-10.1 4.1-10.3 9.5-0.2 5.5 4.1 10.1 9.5 10.3s10.1-4.1 10.3-9.5c0-0.7 0-1.4-0.1-2.1 0-0.2-0.1-0.5-0.1-0.7l8.2-10.1 57.5-10.1 5.9 33.7-142.4 25.1-28.8-20.2-18.6-105.6 24.2-4.3c4 3.7 10.3 3.5 14-0.5s3.5-10.3-0.5-14-10.3-3.5-14 0.5c-0.6 0.7-1.2 1.5-1.6 2.3l-24.2 4.3-4.5-25.2z"/>
	</g>
</svg>
