<svg xmlns="http://www.w3.org/2000/svg" xmlns:xlink="http://www.w3.org/1999/xlink" viewBox="-68 -77 375 667" width="375" height="667"><g transform="matrix(-.190809 -.981627 .981627 -.190809 225 839.4)"><linearGradient id="A" gradientUnits="userSpaceOnUse" x1="682.729" y1="-1184.483" x2="-2257.96" y2="592.009"><stop offset="0" stop-color="#2ba6f8"/><stop offset=".906" stop-color="#090909"/><stop offset="1"/></linearGradient><path d="M848.7-162.5l-2113.9-854-721.2 1785 419.3 169.4s-32-351.7 317.3-70.2 436 109.1 383-3.2-591.9-519.2-93.4-296.6c230.8 103.1 340.4 105.4 215.8-73.7S-981.2 429-443.2 377C-220.6 355.4 1.1 438.6 73 292.2c54.7-111.6-9.9-220-32.8-364.4-21.1-133.2-9.2-375.9 406.3-28.7s402.2-61.6 402.2-61.6h0z" fill="url(#A)"/></g><path d="M-2934.114-696.162c-12.48 36.263-52.093 55.523-88.26 43-36.263-12.48-55.523-52.093-43-88.26 12.48-36.263 52.093-55.523 88.26-43 36.2 12.608 55.5 51.998 43 88.26z" fill="#fff" opacity=".2"/><g transform="matrix(-.857167 .515038 -.515038 -.857167 442.25 562.08)" fill="#fff"><g opacity=".4"><use xlink:href="#B"/><use xlink:href="#B" x="-9.8" y="5.3"/><use xlink:href="#B" x="-19.5" y="10.4"/><use xlink:href="#B" x="-29.3" y="15.6"/><use xlink:href="#B" x="-39.1" y="20.8"/><use xlink:href="#D"/></g><path d="M2554.3 2615.7l-82.9 44.1c-1 .5-2 .7-3 .7-3.3-.2-5.8-2.9-5.7-6.2l3.3-91c.2-4.6 2.7-8.7 6.8-10.9l83.3-44.3c.9-.5 1.9-.7 2.9-.7 3.1.1 5.7 2.8 5.6 6l-3.1 90.9c-.2 4.9-3 9.2-7.2 11.4z" opacity=".2"/><g opacity=".4"><use xlink:href="#B" x="344.14" y="749.922"/><use xlink:href="#B" x="334.34" y="755.122"/><use xlink:href="#B" x="324.54" y="760.322"/><use xlink:href="#C"/><use xlink:href="#B" x="314.74" y="765.522"/><use xlink:href="#B" x="305.04" y="770.722"/><use xlink:href="#C" x="-9.7" y="5.1"/><use xlink:href="#B" x="275.74" y="786.222"/><use xlink:href="#E"/><use xlink:href="#B" x="226.94" y="812.222"/><use xlink:href="#B" x="217.14" y="817.422"/><use xlink:href="#F"/></g><path d="M2458.673 2380l-4.8 2.5m14.1-7.4l-4.8 2.5m-22.7 12l-4.8 2.5m14.2-7.4l-4.8 2.5m-43.4 23.1l-4.8 2.5m-25.1 13.4l-4.8 2.5m-13.4 7.2l-4.8 2.5" opacity=".4"/><g opacity=".4"><use xlink:href="#B"/><use xlink:href="#B" x="-9.8" y="5.3"/><use xlink:href="#B" x="-19.5" y="10.4"/><use xlink:href="#B" x="-29.3" y="15.6"/><use xlink:href="#B" x="-39.1" y="20.8"/><use xlink:href="#D"/></g><g opacity=".4"><use xlink:href="#B" x="344.14" y="749.922"/><use xlink:href="#B" x="334.34" y="755.122"/><use xlink:href="#B" x="324.54" y="760.322"/><use xlink:href="#C"/><use xlink:href="#B" x="314.74" y="765.522"/><use xlink:href="#B" x="305.04" y="770.722"/><use xlink:href="#C" x="-9.7" y="5.1"/><use xlink:href="#B" x="275.74" y="786.222"/><use xlink:href="#E"/><use xlink:href="#B" x="226.94" y="812.222"/><use xlink:href="#B" x="217.14" y="817.422"/><use xlink:href="#F"/></g></g><defs><path id="B" d="M2062.26 1917.486l-5.4 2.9 1.1-29.3 5.4-2.9-1.1 29.3z"/><path id="C" d="M2371.4 2696.908l5.4-2.9-6.3 181.2-5.4 2.9 6.3-181.2z"/><path id="D" d="M2054.86 1979.486l1.7-48 5.4-2.9-1.7 48-5.4 2.9z"/><path id="E" d="M2328.3 2708.908l-5.5 2.9 1.1-29.3 5.4-2.9-1 29.3z"/><path id="F" d="M2269.744 2863.107l3.9-114.2 5.4-2.9-3.9 114.2-5.4 2.9zm11.76-61.983l2-57.4 5.4-2.9-2 57.4-5.4 2.9zM2312 2906.308l-5.4 2.9.5-15.4 5.4-2.9-.5 15.4zm7.7-102.1l2.8-81.4 5.4-2.9-2.8 81.4-5.4 2.9zm79.3-74.9l1.7-48 5.4-2.9-1.7 48-5.4 2.9zm2.7 75.902l-5.3 2.8 2.5-72.7 5.4-2.9-2.6 72.8zm-13.7-34.302l1.8-51.2 5.4-2.9-1.8 51.2-5.4 2.9zm-1.9 53.756l1.6-47.6 5.4-2.9-1.6 47.6-5.4 2.9zm3.9 40.1l-5.4 2.9 1.3-37 5.4-2.9-1.3 37zm-5.2-127.956l-5.4 2.9 1.4-38.6 5.4-2.9-1.4 38.6zm-9.4 120.9l3.9-112 5.4-2.9-3.9 112-5.4 2.9zm-27-48.5l2.6-73.2 5.4-2.9-2.6 73.2-5.4 2.9zm-2.3 64.1l1.9-58.1 5.4-2.9-1.9 58.1-5.4 2.9zm-29.07 9.148l2.5-72.2 5.4-2.9-2.5 72.2-5.4 2.9zm-4.43 2.452l-5.4 2.9 1.4-39.4 5.4-2.9-1.4 39.4zm-.3-142.7l.5-14.2 5.4-2.9-.5 14.2-5.4 2.9zm4.444 23.63l-2.6 73.7-5.3 2.8 2.5-73.6 5.4-2.9zm-5.2-3.1l.4-14.5 5.4-2.9-.4 14.5-5.4 2.9zm-12.044 71.17l2.7-80.5 5.4-2.9-2.7 80.5-5.4 2.9z"/></defs></svg>