<?xml version="1.0" encoding="utf-8"?>
<!-- Generator: Adobe Illustrator 19.0.0, SVG Export Plug-In . SVG Version: 6.00 Build 0)  -->
<svg version="1.1" id="Layer_1" xmlns="http://www.w3.org/2000/svg" xmlns:xlink="http://www.w3.org/1999/xlink" x="0px" y="0px"
	 viewBox="-68 -77 375 667" style="enable-background:new -68 -77 375 667;" xml:space="preserve">
<style type="text/css">
	.st0{clip-path:url(#SVGID_2_);}
	.st1{fill:#FFFFFF;}
	.st2{fill:url(#Path_2_1_);}
	.st3{fill:url(#Path_1-2_1_);}
	.st4{fill:url(#Path_2-2_1_);}
	.st5{fill:url(#Path_1-3_1_);}
	.st6{fill:url(#Path_2-3_1_);}
	.st7{opacity:0.2;}
	.st8{opacity:0.2;fill:#FFFFFF;enable-background:new    ;}
	.st9{fill:#666666;}
	.st10{fill:#F33052;}
	.st11{opacity:0.4;}
	.st12{fill:#BBCEE1;}
	.st13{fill:#0B3B56;}
</style>
<g>
	<defs>
		<rect id="SVGID_1_" x="-2524.3" y="-4746" width="3000" height="5336"/>
	</defs>
	<clipPath id="SVGID_2_">
		<use xlink:href="#SVGID_1_"  style="overflow:visible;"/>
	</clipPath>
	<g id="Portfolio_Site_Footer_-_Phone" class="st0">
		<rect x="-2524.3" y="-4746" class="st1" width="3000" height="5336"/>
		<g id="Group_404" transform="translate(-99.521 791.613) rotate(-77)">
			
				<linearGradient id="Path_2_1_" gradientUnits="userSpaceOnUse" x1="250.8429" y1="-100.6415" x2="245.3629" y2="-107.4655" gradientTransform="matrix(35.3209 232.9411 152.9917 -53.7787 5682.2041 -66742.7656)">
				<stop  offset="0" style="stop-color:#2BA6F8"/>
				<stop  offset="1" style="stop-color:#000000"/>
			</linearGradient>
			<path id="Path_2" class="st2" d="M-1105.1-2982.3c0,0,616.9-32.2,726.7,373.2c119.7,441.7-263.1,649.4-392.9,548
				c-129.8-101.4-135.7-239.2,66.4-330.1c202.1-90.9,181.8-371.2-260.1-301.3c-441.9,69.9-493,632.3-172.9,766.8
				s242.2,292.9-102.2,461.3s-156.1,394.1-156.1,394.1l-215.4,0l0-1911.9H-1105.1z"/>
		</g>
		<g id="Group_405" transform="translate(225.001 845.4) rotate(-101)">
			
				<linearGradient id="Path_1-2_1_" gradientUnits="userSpaceOnUse" x1="400.1941" y1="-286.3572" x2="392.1941" y2="-295.2692" gradientTransform="matrix(-54.9845 236.2335 282.8708 45.9192 104052.8984 -80127.4297)">
				<stop  offset="0" style="stop-color:#2BA6F8"/>
				<stop  offset="0.906" style="stop-color:#090909"/>
				<stop  offset="1" style="stop-color:#000000"/>
			</linearGradient>
			<path id="Path_1-2" class="st3" d="M1310.9,769.8c0,0,165.5-374.1-349.8-207.8s-435.5-63.2-366-178.8
				C670.5,257.8,771,181.5,762,57.5C750.2-105.1,513.5-111,315-214.4C-164.2-464.1-102.8-316.6,79.7-436s80.1-158.3-172.5-149.2
				c-545.6,19.7,106.6-155.7,197.7-239.9s75.4-276.5-353.9-146.4s-267.9-184-267.9-184h-452.2l0,1925.2L1310.9,769.8z"/>
			
				<linearGradient id="Path_2-2_1_" gradientUnits="userSpaceOnUse" x1="398.8051" y1="-291.7795" x2="393.3251" y2="-298.6035" gradientTransform="matrix(-29.9601 236.308 154.1312 45.9336 56707.9102 -80152.6641)">
				<stop  offset="0" style="stop-color:#2BA6F8"/>
				<stop  offset="1" style="stop-color:#000000"/>
			</linearGradient>
			<path id="Path_2-2" class="st4" d="M-462.6,769.8c0,0,616.9,32.4,726.7-375.8C383.8-50.8,1-260-128.8-157.9S-264.5,83-62.4,174.6
				S119.4,548.4-322.5,478s-493-636.6-172.9-772.1s242.2-295-102.2-464.5s-156.1-396.8-156.1-396.8h-215.4l0,1925.2H-462.6z"/>
		</g>
		<g id="Group_433" transform="translate(225.001 839.4) rotate(-101)">
			
				<linearGradient id="Path_1-3_1_" gradientUnits="userSpaceOnUse" x1="394.3097" y1="-287.3553" x2="386.3097" y2="-296.2673" gradientTransform="matrix(-54.9845 236.2335 282.8708 45.9192 104052.8984 -78683.5)">
				<stop  offset="0" style="stop-color:#2BA6F8"/>
				<stop  offset="0.906" style="stop-color:#090909"/>
				<stop  offset="1" style="stop-color:#000000"/>
			</linearGradient>
			<path id="Path_1-3" class="st5" d="M1352.1,777.8c0,0,165.5-374.1-349.8-207.8s-435.5-63.2-366-178.8
				c75.3-125.3,175.8-201.6,166.9-325.6C791.4-97.1,554.7-103,356.3-206.4C-123-456.1-61.6-308.5,121-427.9s80.1-158.3-172.5-149.2
				C-597.1-557.4,55-732.9,146.2-817.1s75.4-276.5-353.9-146.4s-267.9-184-267.9-184h-452.2l0,1925.2L1352.1,777.8z"/>
			
				<linearGradient id="Path_2-3_1_" gradientUnits="userSpaceOnUse" x1="392.8979" y1="-292.6603" x2="387.4179" y2="-299.4843" gradientTransform="matrix(-29.9601 236.308 154.1312 45.9336 56707.9102 -78708.2813)">
				<stop  offset="0" style="stop-color:#2BA6F8"/>
				<stop  offset="1" style="stop-color:#000000"/>
			</linearGradient>
			<path id="Path_2-3" class="st6" d="M-421.4,777.8c0,0,616.9,32.4,726.7-375.8C425-42.8,42.3-251.9-87.6-149.9
				S-223.3,91-21.2,182.6S160.6,556.4-281.3,486s-493-636.6-172.9-772.1s242.2-295-102.2-464.5s-156.1-396.8-156.1-396.8h-215.4
				l0,1925.2H-421.4z"/>
		</g>
		<g id="gear" transform="matrix(-0.946, 0.326, -0.326, -0.946, 439.846, 529.174)" class="st7">
			<g id="Group_118" transform="translate(0 0)">
				<g id="Group_117">
					<path id="Path_501" class="st1" d="M-446.7,1045.4v-66.8l-48.8-8.1c-3.8-14.7-9.7-28.8-17.4-41.9l28.8-40.3l-47.2-47.2
						l-40.3,28.8c-13.1-7.7-27.2-13.6-41.9-17.4l-8.1-48.8h-66.8l-8.1,48.8c-14.7,3.8-28.8,9.7-41.9,17.4l-40.3-28.8l-47.2,47.2
						l28.8,40.3c-7.7,13.1-13.6,27.2-17.4,41.9l-48.8,8.1v66.8l48.8,8.1c3.8,14.7,9.7,28.8,17.4,41.9l-28.8,40.3l47.2,47.2
						l40.3-28.8c13.1,7.7,27.2,13.6,41.9,17.4l8.1,48.8h66.8l8.1-48.8c14.7-3.8,28.8-9.6,41.9-17.4l40.3,28.8l47.2-47.2l-28.8-40.3
						c7.7-13.1,13.6-27.2,17.4-41.9L-446.7,1045.4z M-511,1044.1c-3.7,16.7-10.3,32.6-19.5,47.1l-3.2,4.9l27,37.8l-26.4,26.4
						l-37.8-27l-4.9,3.1c-14.4,9.2-30.4,15.8-47.1,19.6l-5.7,1.3l-7.6,45.7h-37.4l-7.6-45.7l-5.7-1.3c-16.7-3.7-32.6-10.3-47.1-19.6
						l-4.9-3.1l-37.8,27l-26.4-26.4l27-37.8l-3.2-4.9c-9.2-14.4-15.8-30.4-19.5-47.1l-1.3-5.7l-45.7-7.6v-37.4l45.7-7.6l1.3-5.7
						c3.7-16.7,10.3-32.6,19.5-47.1l3.2-4.9l-27-37.8l26.4-26.4l37.8,27l4.9-3.1c14.4-9.2,30.4-15.8,47.1-19.6l5.7-1.3l7.6-45.7
						h37.4l7.6,45.7l5.7,1.3c16.7,3.7,32.6,10.3,47.1,19.6l4.9,3.1l37.8-27l26.4,26.4l-27,37.8l3.2,4.9
						c9.2,14.4,15.8,30.4,19.5,47.1l1.3,5.7l45.7,7.6v37.4l-45.7,7.6L-511,1044.1z"/>
				</g>
			</g>
			<g id="Group_120" transform="translate(15.187 15.187)">
				<g id="Group_119" transform="translate(0 0)">
					<path id="Path_502" class="st1" d="M-670.1,910.1c-47.9,0-86.8,38.9-86.8,86.8c0,47.9,38.9,86.8,86.8,86.8
						c47.9,0,86.8-38.9,86.8-86.8C-583.4,948.9-622.2,910.1-670.1,910.1z M-670.1,1066.3c-38.3,0-69.4-31.1-69.4-69.4
						c0-38.3,31.1-69.4,69.4-69.4c38.3,0,69.4,31.1,69.4,69.4C-600.8,1035.2-631.8,1066.2-670.1,1066.3z"/>
				</g>
			</g>
		</g>
		<path id="microchip" class="st8" d="M-2439.3-608l-38.5-32.3l8.3-9.9l42.5-3.7l13.6-16.2c3.5,0.2,6.5-2.5,6.7-6
			c0.2-3.5-2.5-6.5-6-6.7c-3.5-0.2-6.5,2.5-6.7,6c0,0.6,0,1.2,0.2,1.8l-11.6,13.8l-42.5,3.7l-10.3,12.3l-17.4-14.6l12.1-14.5
			c3.5,0.2,6.5-2.5,6.7-6s-2.5-6.5-6-6.7c-3.5-0.2-6.5,2.5-6.7,6c0,0.6,0,1.2,0.2,1.8l-12.1,14.5l-15.3-12.8l34.5-41.1l17,14.2
			l1,11.8c-2.7,2.3-2.9,6.4-0.6,9c2.3,2.7,6.4,2.9,9,0.6c2.7-2.3,2.9-6.4,0.6-9c-0.4-0.5-0.9-0.9-1.5-1.2l-1.3-14.9l-19.4-16.3
			l11.3-13.4l30.7,25.8l11.2-0.2c2.1,2.8,6.1,3.3,8.9,1.1s3.3-6.1,1.1-8.9c-2.1-2.8-6.1-3.3-8.9-1.1c-0.4,0.3-0.7,0.6-1,0.9
			c-0.1,0.1-0.2,0.2-0.3,0.3l-8.3,0.1l-28.5-23.9l14-16.7l70.7,59.3l2,22.4l-43.9,52.4l-12-10.1c0.2-3.5-2.5-6.5-6-6.7
			c-3.5-0.2-6.5,2.5-6.7,6s2.5,6.5,6,6.7c0.6,0,1.2,0,1.8-0.2l12,10.1L-2439.3-608L-2439.3-608z"/>
		<g id="angleBrackets" transform="translate(16.32 464.898) rotate(129)" class="st7">
			<path id="Path_517" class="st9" d="M504.2,2886"/>
			<path id="Path_503" d="M490.9,2909.3"/>
			<path id="Path_504" d="M520.9,2914.2"/>
			<path id="Path_505" d="M549.5,2909.3"/>
			<path id="Path_507" class="st10" d="M520.8,2893.2"/>
			<path id="Path_508" d="M357.4,2909.3"/>
			<path id="Path_512" class="st10" d="M397.8,2893.2"/>
			<g id="Group_121" transform="translate(0.084 0)">
				<path id="Path_514" class="st1" d="M427.2,2902.9l-69.2-30.1v-16.7l69.2-29.9l0,19.6l-48.2,18.4l48.3,19.2L427.2,2902.9
					L427.2,2902.9z"/>
				<path id="Path_515" class="st1" d="M433.6,2916.1l25-104.3h14.5l-25.3,104.3H433.6z"/>
				<path id="Path_516" class="st1" d="M479.5,2903v-19.5l48.3-19l-48.3-18.8l0-19.4l69.2,29.9v16.5L479.5,2903z"/>
			</g>
		</g>
		<g id="Group_403" transform="translate(442.249 562.085) rotate(149)">
			<g id="Group_363" transform="translate(49.473 25.692)" class="st11">
				<g id="Group_362" transform="translate(0 0)">
					<path id="Path_1532" class="st1" d="M-561.4,686.8v-6.1l157-90.6v6.1L-561.4,686.8z"/>
					<path id="Path_1533" class="st1" d="M-369.4,581.1v6.1l-25.4,14.7v-6.1L-369.4,581.1z"/>
					<path id="Path_1534" class="st1" d="M-561.4,697.8v-6.1l157-90.6v6.1L-561.4,697.8z"/>
					<path id="Path_1535" class="st1" d="M-369.4,614.2v6.1l-25.4,14.7v-6.1L-369.4,614.2z"/>
					<path id="Path_1536" class="st1" d="M-369.4,625.3v6.1l-25.4,14.7V640L-369.4,625.3z"/>
					<path id="Path_1537" class="st1" d="M-369.4,669.6v6.1l-25.4,14.7v-6.1L-369.4,669.6z"/>
					<path id="Path_1538" class="st1" d="M-369.4,680.6v6.1l-25.4,14.7v-6.1L-369.4,680.6z"/>
					<g id="Group_356" transform="translate(7.244 14.968)">
						<path id="Path_1539" class="st1" d="M-510.7,743l99-57.1v6.1l-99,57.1V743z"/>
					</g>
					<g id="Group_357" transform="translate(0 13.585)">
						<path id="Path_1540" class="st1" d="M-454.1,704.9l49.8-28.7v6.1l-49.8,28.7V704.9z"/>
						<path id="Path_1541" class="st1" d="M-459.4,707.9v6.1l-102,58.8v-6.1L-459.4,707.9z"/>
					</g>
					<path id="Path_1542" class="st1" d="M-548,739.4v6.1l-13.4,7.7v-6.1L-548,739.4z"/>
					<path id="Path_1543" class="st1" d="M-474.9,686.2l70.5-40.7v6.1l-70.5,40.7V686.2z"/>
					<g id="Group_358" transform="translate(5.889 0.37)">
						<path id="Path_1544" class="st1" d="M-520.2,620l63-36.4v6.1l-63,36.3V620z"/>
					</g>
					<path id="Path_1545" class="st1" d="M-477.5,610.2l44.4-25.6v6.1l-44.4,25.6V610.2z"/>
					<g id="Group_359" transform="translate(0 4.025)">
						<path id="Path_1546" class="st1" d="M-524.1,633.1l41.3-23.8v6.1l-41.3,23.8V633.1z"/>
						<path id="Path_1547" class="st1" d="M-529.3,636.1v6.1l-32.1,18.5v-6.1L-529.3,636.1z"/>
					</g>
					<path id="Path_1548" class="st1" d="M-412.6,583.8v6.1l-33.4,19.3v-6.1L-412.6,583.8z"/>
					<path id="Path_1549" class="st1" d="M-548.3,662.1l97.1-56v6.1l-97.1,56V662.1z"/>
					<path id="Path_1550" class="st1" d="M-492.7,663.3l63.4-36.6v6.1l-63.4,36.6V663.3z"/>
					<path id="Path_1551" class="st1" d="M-548.3,695.3l50.4-29v6.1l-50.4,29V695.3z"/>
					<g id="Group_360" transform="translate(2.33 13.516)">
						<path id="Path_1552" class="st1" d="M-545.1,711.8l62.6-36.1v6.1l-62.6,36.1V711.8z"/>
					</g>
					<path id="Path_1553" class="st1" d="M-508.7,716.7v6.1l-34.1,19.7v-6.1L-508.7,716.7z"/>
					<path id="Path_1554" class="st1" d="M-416.7,663.6l12.3-7.1v6.1l-12.3,7.1V663.6z"/>
					<g id="Group_361" transform="translate(7.244 10.698)">
						<path id="Path_1555" class="st1" d="M-446.9,666.2v6.1l-63.8,36.8v-6L-446.9,666.2z"/>
						<path id="Path_1556" class="st1" d="M-441.7,663.2l12.6-7.2v6.1l-12.6,7.2V663.2z"/>
					</g>
					<path id="Path_1557" class="st1" d="M-491.6,717.9l69.8-40.2v6.1l-69.8,40.2V717.9z"/>
				</g>
			</g>
			<g id="Group_364" transform="translate(49.473 0)" class="st11">
				<path id="Path_1558" class="st1" d="M-505,462.3l105.5-61.1v5.4L-505,467.7V462.3z"/>
				<path id="Path_1559" class="st1" d="M-399.5,417.1l-161.8,93.6v-5.4l161.8-93.6V417.1z"/>
				<path id="Path_1560" class="st1" d="M-512.1,466.3v5.4l-49.3,28.5v-5.4L-512.1,466.3z"/>
				<path id="Path_1561" class="st1" d="M-505,482.9l105.5-61.1v5.4L-505,488.2V482.9z"/>
				<path id="Path_1562" class="st1" d="M-399.5,437.7l-161.8,93.6v-5.4l161.8-93.6V437.7z"/>
				<path id="Path_1563" class="st1" d="M-512.1,492.2l-49.3,28.5v-5.4l49.3-28.5V492.2z"/>
				<path id="Path_1564" class="st1" d="M-505,516.8l105.5-61.1v5.4L-505,522.2V516.8z"/>
				<path id="Path_1565" class="st1" d="M-399.5,471.6l-161.8,93.6v-5.4l161.8-93.6V471.6z"/>
				<path id="Path_1566" class="st1" d="M-512.1,526.1l-49.3,28.5v-5.4l49.3-28.5V526.1z"/>
				<path id="Path_1567" class="st1" d="M-505,537.4l105.5-61.1v5.4L-505,542.7V537.4z"/>
				<path id="Path_1568" class="st1" d="M-399.5,492.2l-161.8,93.6v-5.4l161.8-93.6V492.2z"/>
				<path id="Path_1569" class="st1" d="M-512.1,546.7l-49.3,28.5v-5.4l49.3-28.5V546.7z"/>
				<path id="Path_1570" class="st1" d="M-505,571.3l105.5-61.1v5.4L-505,576.7V571.3z"/>
				<path id="Path_1571" class="st1" d="M-399.5,526.1l-161.8,93.6v-5.4l161.8-93.6V526.1z"/>
				<path id="Path_1572" class="st1" d="M-512.1,580.6l-49.3,28.5v-5.4l49.3-28.5V580.6z"/>
				<path id="Path_1573" class="st1" d="M-505,591.9l105.5-61.1v5.4L-505,597.2V591.9z"/>
				<path id="Path_1574" class="st1" d="M-512.1,601.2l-49.3,28.5v-5.4l49.3-28.5V601.2z"/>
			</g>
			<g id="Group_366" transform="translate(98.874 47.312)">
				<g id="Group_365" transform="translate(0 0)">
					<path id="Path_1575" class="st12" d="M-215.6,732.4l0.2,0.1l0,0L-215.6,732.4z"/>
				</g>
			</g>
			<g id="Group_374" transform="translate(102.962 27.786)" class="st11">
				<g id="Group_373" transform="translate(0 0)">
					<path id="Path_1576" class="st1" d="M5,595.7l0,6.1l-25.4,14.7v-6.1L5,595.7z"/>
					<path id="Path_1577" class="st1" d="M5,606.8l0,6.1l-25.4,14.7l0-6.1L5,606.8z"/>
					<path id="Path_1578" class="st1" d="M5,617.8l0,6.1l-25.4,14.7v-6.1L5,617.8z"/>
					<path id="Path_1579" class="st1" d="M-187,745.7v-6.1l157-90.6v6.1L-187,745.7z"/>
					<path id="Path_1580" class="st1" d="M5,628.9l0,6.1l-25.4,14.7l0-6.1L5,628.9z"/>
					<path id="Path_1581" class="st1" d="M5,640l0,6.1l-25.4,14.7v-6.1L5,640z"/>
					<path id="Path_1582" class="st1" d="M-187,756.8l0-6.1l157-90.6v6.1L-187,756.8z"/>
					<path id="Path_1583" class="st1" d="M5,673.2l0,6.1l-25.4,14.7v-6.1L5,673.2z"/>
					<path id="Path_1584" class="st1" d="M5,684.2l0,6.1l-25.4,14.7v-6.1L5,684.2z"/>
					<path id="Path_1585" class="st1" d="M5,728.5l0,6.1l-25.4,14.7l0-6.1L5,728.5z"/>
					<path id="Path_1586" class="st1" d="M5,739.5l0,6.1l-25.4,14.7v-6.1L5,739.5z"/>
					<g id="Group_367" transform="translate(0 20.499)">
						<path id="Path_1587" class="st1" d="M-129,796.3l99-57.1v6.1l-99,57.1L-129,796.3z"/>
						<path id="Path_1588" class="st1" d="M-134.2,799.4v6.1l-52.7,30.4v-6.1L-134.2,799.4z"/>
					</g>
					<g id="Group_368" transform="translate(0 19.116)">
						<path id="Path_1589" class="st1" d="M-79.7,758.2l49.8-28.7v6.1l-49.8,28.7V758.2z"/>
						<path id="Path_1590" class="st1" d="M-84.9,761.2v6.1l-102,58.8v-6.1L-84.9,761.2z"/>
					</g>
					<path id="Path_1591" class="st1" d="M-173.5,798.3l0,6.1l-13.4,7.7V806L-173.5,798.3z"/>
					<path id="Path_1592" class="st1" d="M-100.5,745.1l70.5-40.7v6.1l-70.5,40.7L-100.5,745.1z"/>
					<path id="Path_1593" class="st1" d="M-71.6,639.9l41.6-24v6.1l-41.6,24V639.9z"/>
					<g id="Group_369" transform="translate(5.889 5.901)">
						<path id="Path_1594" class="st1" d="M-145.7,673.4l63-36.4v6.1l-63,36.3V673.4z"/>
					</g>
					<path id="Path_1595" class="st1" d="M-103.1,669.2l44.4-25.6v6.1l-44.4,25.6V669.2z"/>
					<g id="Group_370" transform="translate(0 9.556)">
						<path id="Path_1596" class="st1" d="M-149.7,686.5l41.3-23.8v6.1l-41.3,23.8V686.5z"/>
						<path id="Path_1597" class="st1" d="M-154.9,689.5v6.1L-187,714V708L-154.9,689.5z"/>
					</g>
					<path id="Path_1598" class="st1" d="M-38.2,642.7v6.1l-33.4,19.3V662L-38.2,642.7z"/>
					<path id="Path_1599" class="st1" d="M-173.9,721l97.1-56v6.1l-97.1,56V721z"/>
					<path id="Path_1600" class="st1" d="M-118.3,722.2l63.4-36.6v6.1l-63.4,36.6V722.2z"/>
					<path id="Path_1601" class="st1" d="M-173.9,754.2l50.4-29v6.1l-50.4,29V754.2z"/>
					<g id="Group_371" transform="translate(2.33 19.048)">
						<path id="Path_1602" class="st1" d="M-170.7,765.2l62.6-36.1v6.1l-62.6,36.1V765.2z"/>
					</g>
					<path id="Path_1603" class="st1" d="M-134.2,775.6v6.1l-34.1,19.7v-6.1L-134.2,775.6z"/>
					<path id="Path_1604" class="st1" d="M-42.2,722.5l12.3-7.1v6.1l-12.3,7.1V722.5z"/>
					<g id="Group_372" transform="translate(7.244 16.229)">
						<path id="Path_1605" class="st1" d="M-72.5,719.6v6.1l-63.8,36.8v-6L-72.5,719.6z"/>
						<path id="Path_1606" class="st1" d="M-67.3,716.6l12.6-7.2v6.1l-12.6,7.2V716.6z"/>
					</g>
					<path id="Path_1607" class="st1" d="M-117.2,776.8l69.8-40.2v6.1l-69.8,40.2V776.8z"/>
				</g>
			</g>
			<path id="Path_1608" class="st8" d="M-650.6,702.2l78.8-45.5c2.8-1.6,6.3-0.6,7.9,2.1c0.5,0.9,0.8,1.9,0.8,2.9v94.3
				c0,4.6-2.4,8.8-6.4,11.1l-78.8,45.6c-2.8,1.6-6.4,0.7-8.1-2.1c-0.5-0.9-0.8-1.9-0.8-3v-93.9C-657.3,709-654.7,704.6-650.6,702.2z
				"/>
			<path id="Path_1683" class="st8" d="M-255.5,468.6l78.8-45.5c2.8-1.6,6.3-0.6,7.9,2.1c0.5,0.9,0.8,1.9,0.8,2.9l0,94.3
				c0,4.6-2.4,8.8-6.4,11.1l-78.8,45.6c-2.8,1.6-6.4,0.7-8.1-2.1c-0.5-0.9-0.8-1.9-0.8-3v-93.9C-262.2,475.4-259.7,471-255.5,468.6z
				"/>
			<path id="Path_1609" class="st8" d="M-758.3,519.9l78.8-45.4c2.8-1.6,6.3-0.6,7.9,2.1c0.5,0.9,0.8,1.9,0.8,2.9v94.3
				c0,4.6-2.4,8.8-6.4,11.1l-78.8,45.6c-2.8,1.6-6.4,0.7-8.1-2.1c-0.5-0.9-0.8-1.9-0.8-3v-93.9
				C-764.9,526.7-762.4,522.3-758.3,519.9z"/>
			<path id="Path_1610" class="st8" d="M-315.7,781l78.8-45.5c2.8-1.6,6.3-0.6,7.9,2.1c0.5,0.9,0.8,1.9,0.8,2.9l0,94.3
				c0,4.6-2.4,8.8-6.4,11.1l-78.8,45.6c-2.8,1.6-6.4,0.7-8.1-2.2c-0.5-0.9-0.8-1.9-0.8-3l0-93.9C-322.3,787.8-319.8,783.4-315.7,781
				z"/>
			<g id="Group_377" transform="translate(104.959 51.545)">
				<g id="Group_376" transform="translate(0 0)">
					<path id="Path_1612" class="st13" d="M-165.6,762l-7.4,12.8"/>
				</g>
			</g>
			<g id="Group_378" transform="translate(9.158 110.141)">
				<path id="Path_1613" class="st1" d="M-843.6,1172.2"/>
			</g>
			<g id="Group_380" transform="translate(12.313 93.815)">
				<g id="Group_379" transform="translate(0 0)">
					<path id="Path_1614" class="st12" d="M-821.5,1057.9l0.2,0.1l0,0L-821.5,1057.9z"/>
				</g>
			</g>
			<g id="Group_382" transform="translate(40.721 62.927)">
				<g id="Group_381" transform="translate(0 0)">
					<path id="Path_1615" class="st12" d="M-622.7,841.7l0.2,0.1l0,0C-622.5,841.7-622.6,841.7-622.7,841.7z"/>
				</g>
			</g>
			<g id="Group_384" transform="translate(69.003 32.761)">
				<g id="Group_383" transform="translate(0 0)">
					<path id="Path_1616" class="st12" d="M-424.7,630.5l0.1,0.1l0,0L-424.7,630.5z"/>
				</g>
			</g>
			<g id="Group_394" transform="translate(29.875 62.948)" class="st11">
				<g id="Group_393" transform="translate(0 0)">
					<path id="Path_1621" class="st1" d="M-506.6,841.8v6.1l-25.4,14.7v-6.1L-506.6,841.8z"/>
					<path id="Path_1622" class="st1" d="M-506.6,852.9v6.1l-25.4,14.7v-6.1L-506.6,852.9z"/>
					<path id="Path_1623" class="st1" d="M-506.6,864v6.1l-25.4,14.7v-6.1L-506.6,864z"/>
					<path id="Path_1624" class="st1" d="M-698.6,991.8v-6.1l157-90.6v6.1L-698.6,991.8z"/>
					<path id="Path_1625" class="st1" d="M-506.6,875v6.1l-25.4,14.7v-6.1L-506.6,875z"/>
					<path id="Path_1626" class="st1" d="M-506.6,886.1v6.1l-25.4,14.7v-6.1L-506.6,886.1z"/>
					<path id="Path_1627" class="st1" d="M-698.6,1002.9v-6.1l157-90.6v6.1L-698.6,1002.9z"/>
					<path id="Path_1628" class="st1" d="M-506.6,919.3v6.1L-532,940V934L-506.6,919.3z"/>
					<path id="Path_1629" class="st1" d="M-506.6,930.4v6.1l-25.4,14.7V945L-506.6,930.4z"/>
					<path id="Path_1630" class="st1" d="M-506.6,974.6v6.1l-25.4,14.7v-6.1L-506.6,974.6z"/>
					<path id="Path_1631" class="st1" d="M-506.6,985.7v6.1l-25.4,14.7v-6.1L-506.6,985.7z"/>
					<g id="Group_387" transform="translate(0 20.499)">
						<path id="Path_1632" class="st1" d="M-640.6,1042.5l99-57.1v6.1l-99,57.1V1042.5z"/>
						<path id="Path_1633" class="st1" d="M-645.8,1045.5l0,6.1l-52.7,30.4v-6.1L-645.8,1045.5z"/>
					</g>
					<g id="Group_388" transform="translate(0 19.116)">
						<path id="Path_1634" class="st1" d="M-591.3,1004.4l49.8-28.7v6.1l-49.8,28.7V1004.4z"/>
						<path id="Path_1635" class="st1" d="M-596.6,1007.4v6.1l-102,58.8v-6.1L-596.6,1007.4z"/>
					</g>
					<path id="Path_1636" class="st1" d="M-685.2,1044.4v6.1l-13.4,7.7v-6.1L-685.2,1044.4z"/>
					<path id="Path_1637" class="st1" d="M-612.1,991.2l70.5-40.7v6.1l-70.5,40.7V991.2z"/>
					<path id="Path_1638" class="st1" d="M-583.2,886l41.6-24v6.1l-41.6,24V886z"/>
					<g id="Group_389" transform="translate(5.889 5.901)">
						<path id="Path_1639" class="st1" d="M-657.4,919.5l63-36.4v6.1l-63,36.3V919.5z"/>
					</g>
					<path id="Path_1640" class="st1" d="M-614.7,915.3l44.4-25.6v6.1l-44.4,25.6V915.3z"/>
					<g id="Group_390" transform="translate(0 9.556)">
						<path id="Path_1641" class="st1" d="M-661.3,932.6l41.3-23.8v6.1l-41.3,23.8V932.6z"/>
						<path id="Path_1642" class="st1" d="M-666.5,935.6v6.1l-32.1,18.5v-6.1L-666.5,935.6z"/>
					</g>
					<path id="Path_1643" class="st1" d="M-549.8,888.9v6.1l-33.4,19.3v-6.1L-549.8,888.9z"/>
					<path id="Path_1644" class="st1" d="M-685.5,967.2l97.1-56v6.1l-97.1,56V967.2z"/>
					<path id="Path_1645" class="st1" d="M-629.9,968.3l63.4-36.6v6.1l-63.4,36.6V968.3z"/>
					<path id="Path_1646" class="st1" d="M-685.5,1000.4l50.4-29v6.1l-50.4,29L-685.5,1000.4z"/>
					<g id="Group_391" transform="translate(2.33 19.048)">
						<path id="Path_1647" class="st1" d="M-682.3,1011.3l62.6-36.1v6.1l-62.6,36.1V1011.3z"/>
					</g>
					<path id="Path_1648" class="st1" d="M-645.8,1021.7v6.1l-34.1,19.7v-6.1L-645.8,1021.7z"/>
					<path id="Path_1649" class="st1" d="M-553.8,968.7l12.3-7.1v6.1l-12.3,7.1V968.7z"/>
					<g id="Group_392" transform="translate(7.244 16.229)">
						<path id="Path_1650" class="st1" d="M-584.1,965.7v6.1l-63.8,36.8v-6L-584.1,965.7z"/>
						<path id="Path_1651" class="st1" d="M-578.9,962.7l12.6-7.2v6.1l-12.6,7.2V962.7z"/>
					</g>
					<path id="Path_1652" class="st1" d="M-628.8,1023l69.8-40.2v6.1l-69.8,40.2V1023z"/>
				</g>
			</g>
			<g id="Group_402" transform="translate(0 33.808)" class="st11">
				<g id="Group_401" transform="translate(0 0)">
					<path id="Path_1653" class="st1" d="M-715.7,637.9v6.1l-25.4,14.7v-6.1L-715.7,637.9z"/>
					<path id="Path_1654" class="st1" d="M-715.7,648.9v6.1l-25.4,14.7v-6.1L-715.7,648.9z"/>
					<path id="Path_1655" class="st1" d="M-715.7,660v6.1l-25.4,14.7v-6.1L-715.7,660z"/>
					<path id="Path_1656" class="st1" d="M-907.7,787.9v-6.1l157-90.6v6.1L-907.7,787.9z"/>
					<path id="Path_1657" class="st1" d="M-715.7,671.1v6.1l-25.4,14.7v-6.1L-715.7,671.1z"/>
					<path id="Path_1658" class="st1" d="M-715.7,682.1v6.1l-25.4,14.7v-6.1L-715.7,682.1z"/>
					<path id="Path_1659" class="st1" d="M-907.7,798.9v-6.1l157-90.6v6.1L-907.7,798.9z"/>
					<path id="Path_1660" class="st1" d="M-715.7,715.3v6.1l-25.4,14.7V730L-715.7,715.3z"/>
					<path id="Path_1661" class="st1" d="M-715.7,726.4v6.1l-25.4,14.7V741L-715.7,726.4z"/>
					<path id="Path_1662" class="st1" d="M-715.7,770.6v6.1l-25.4,14.7v-6.1L-715.7,770.6z"/>
					<path id="Path_1663" class="st1" d="M-715.7,781.7v6.1l-25.4,14.7v-6.1L-715.7,781.7z"/>
					<g id="Group_395" transform="translate(7.244 20.499)">
						<path id="Path_1664" class="st1" d="M-857,838.5l99-57.1v6.1l-99,57.1V838.5z"/>
					</g>
					<g id="Group_396" transform="translate(13.405 19.116)">
						<path id="Path_1665" class="st1" d="M-813.9,800.4l49.8-28.7v6.1l-49.8,28.7V800.4z"/>
					</g>
					<path id="Path_1666" class="st1" d="M-894.3,840.4v6.1l-13.4,7.7v-6.1L-894.3,840.4z"/>
					<path id="Path_1667" class="st1" d="M-821.2,787.2l70.5-40.7v6.1l-70.5,40.7V787.2z"/>
					<path id="Path_1668" class="st1" d="M-792.3,682l41.6-24v6.1l-41.6,24V682z"/>
					<g id="Group_397" transform="translate(5.889 5.901)">
						<path id="Path_1669" class="st1" d="M-866.5,715.5l63-36.4v6.1l-63,36.3V715.5z"/>
					</g>
					<path id="Path_1670" class="st1" d="M-823.9,711.3l44.4-25.6v6.1l-44.4,25.6V711.3z"/>
					<g id="Group_398" transform="translate(0 9.556)">
						<path id="Path_1671" class="st1" d="M-870.4,728.6l41.3-23.8v6.1l-41.3,23.8V728.6z"/>
						<path id="Path_1672" class="st1" d="M-875.6,731.6v6.1l-32.1,18.5v-6.1L-875.6,731.6z"/>
					</g>
					<path id="Path_1673" class="st1" d="M-758.9,684.9v6.1l-33.4,19.3v-6.1L-758.9,684.9z"/>
					<path id="Path_1674" class="st1" d="M-894.6,763.2l97.1-56v6.1l-97.1,56V763.2z"/>
					<path id="Path_1675" class="st1" d="M-839.1,764.3l63.4-36.6v6.1l-63.4,36.6V764.3z"/>
					<path id="Path_1676" class="st1" d="M-894.6,796.4l50.4-29v6.1l-50.4,29V796.4z"/>
					<g id="Group_399" transform="translate(2.33 19.048)">
						<path id="Path_1677" class="st1" d="M-891.4,807.3l62.6-36.1v6.1l-62.6,36.1V807.3z"/>
					</g>
					<path id="Path_1678" class="st1" d="M-855,817.8v6.1l-34.1,19.7v-6.1L-855,817.8z"/>
					<path id="Path_1679" class="st1" d="M-763,764.7l12.3-7.1v6.1l-12.3,7.1V764.7z"/>
					<g id="Group_400" transform="translate(7.244 16.229)">
						<path id="Path_1680" class="st1" d="M-793.2,761.7v6.1l-63.8,36.8v-6L-793.2,761.7z"/>
						<path id="Path_1681" class="st1" d="M-788,758.7l12.6-7.2v6.1l-12.6,7.2V758.7z"/>
					</g>
					<path id="Path_1682" class="st1" d="M-837.9,819l69.8-40.2v6.1l-69.8,40.2V819z"/>
				</g>
			</g>
		</g>
		<g id="Group_434" transform="translate(442.249 562.085) rotate(149)">
			<g id="Group_363-2" transform="translate(49.473 25.692)" class="st11">
				<g id="Group_362-2" transform="translate(0 0)">
					<path id="Path_1532-2" class="st1" d="M-561.4,686.8v-6.1l157-90.6v6.1L-561.4,686.8z"/>
					<path id="Path_1533-2" class="st1" d="M-369.4,581.1v6.1l-25.4,14.7v-6.1L-369.4,581.1z"/>
					<path id="Path_1534-2" class="st1" d="M-561.4,697.8v-6.1l157-90.6v6.1L-561.4,697.8z"/>
					<path id="Path_1535-2" class="st1" d="M-369.4,614.2v6.1l-25.4,14.7v-6.1L-369.4,614.2z"/>
					<path id="Path_1536-2" class="st1" d="M-369.4,625.3v6.1l-25.4,14.7V640L-369.4,625.3z"/>
					<path id="Path_1537-2" class="st1" d="M-369.4,669.6v6.1l-25.4,14.7v-6.1L-369.4,669.6z"/>
					<path id="Path_1538-2" class="st1" d="M-369.4,680.6v6.1l-25.4,14.7v-6.1L-369.4,680.6z"/>
					<g id="Group_356-2" transform="translate(7.244 14.968)">
						<path id="Path_1539-2" class="st1" d="M-510.7,743l99-57.1v6.1l-99,57.1V743z"/>
					</g>
					<g id="Group_357-2" transform="translate(0 13.585)">
						<path id="Path_1540-2" class="st1" d="M-454.1,704.9l49.8-28.7v6.1l-49.8,28.7V704.9z"/>
						<path id="Path_1541-2" class="st1" d="M-459.4,707.9v6.1l-102,58.8v-6.1L-459.4,707.9z"/>
					</g>
					<path id="Path_1542-2" class="st1" d="M-548,739.4v6.1l-13.4,7.7v-6.1L-548,739.4z"/>
					<path id="Path_1543-2" class="st1" d="M-474.9,686.2l70.5-40.7v6.1l-70.5,40.7V686.2z"/>
					<g id="Group_358-2" transform="translate(5.889 0.37)">
						<path id="Path_1544-2" class="st1" d="M-520.2,620l63-36.4v6.1l-63,36.3V620z"/>
					</g>
					<path id="Path_1545-2" class="st1" d="M-477.5,610.2l44.4-25.6v6.1l-44.4,25.6V610.2z"/>
					<g id="Group_359-2" transform="translate(0 4.025)">
						<path id="Path_1546-2" class="st1" d="M-524.1,633.1l41.3-23.8v6.1l-41.3,23.8V633.1z"/>
						<path id="Path_1547-2" class="st1" d="M-529.3,636.1v6.1l-32.1,18.5v-6.1L-529.3,636.1z"/>
					</g>
					<path id="Path_1548-2" class="st1" d="M-412.6,583.8v6.1l-33.4,19.3v-6.1L-412.6,583.8z"/>
					<path id="Path_1549-2" class="st1" d="M-548.3,662.1l97.1-56v6.1l-97.1,56V662.1z"/>
					<path id="Path_1550-2" class="st1" d="M-492.7,663.3l63.4-36.6v6.1l-63.4,36.6V663.3z"/>
					<path id="Path_1551-2" class="st1" d="M-548.3,695.3l50.4-29v6.1l-50.4,29V695.3z"/>
					<g id="Group_360-2" transform="translate(2.33 13.516)">
						<path id="Path_1552-2" class="st1" d="M-545.1,711.8l62.6-36.1v6.1l-62.6,36.1V711.8z"/>
					</g>
					<path id="Path_1553-2" class="st1" d="M-508.7,716.7v6.1l-34.1,19.7v-6.1L-508.7,716.7z"/>
					<path id="Path_1554-2" class="st1" d="M-416.7,663.6l12.3-7.1v6.1l-12.3,7.1V663.6z"/>
					<g id="Group_361-2" transform="translate(7.244 10.698)">
						<path id="Path_1555-2" class="st1" d="M-446.9,666.2v6.1l-63.8,36.8v-6L-446.9,666.2z"/>
						<path id="Path_1556-2" class="st1" d="M-441.7,663.2l12.6-7.2v6.1l-12.6,7.2V663.2z"/>
					</g>
					<path id="Path_1557-2" class="st1" d="M-491.6,717.9l69.8-40.2v6.1l-69.8,40.2V717.9z"/>
				</g>
			</g>
			<g id="Group_364-2" transform="translate(49.473 0)" class="st11">
				<path id="Path_1558-2" class="st1" d="M-505,462.3l105.5-61.1v5.4L-505,467.7V462.3z"/>
				<path id="Path_1559-2" class="st1" d="M-399.5,417.1l-161.8,93.6v-5.4l161.8-93.6V417.1z"/>
				<path id="Path_1560-2" class="st1" d="M-512.1,466.3v5.4l-49.3,28.5v-5.4L-512.1,466.3z"/>
				<path id="Path_1561-2" class="st1" d="M-505,482.9l105.5-61.1v5.4L-505,488.2V482.9z"/>
				<path id="Path_1562-2" class="st1" d="M-399.5,437.7l-161.8,93.6v-5.4l161.8-93.6V437.7z"/>
				<path id="Path_1563-2" class="st1" d="M-512.1,492.2l-49.3,28.5v-5.4l49.3-28.5V492.2z"/>
				<path id="Path_1564-2" class="st1" d="M-505,516.8l105.5-61.1v5.4L-505,522.2V516.8z"/>
				<path id="Path_1565-2" class="st1" d="M-399.5,471.6l-161.8,93.6v-5.4l161.8-93.6V471.6z"/>
				<path id="Path_1566-2" class="st1" d="M-512.1,526.1l-49.3,28.5v-5.4l49.3-28.5V526.1z"/>
				<path id="Path_1567-2" class="st1" d="M-505,537.4l105.5-61.1v5.4L-505,542.7V537.4z"/>
				<path id="Path_1568-2" class="st1" d="M-399.5,492.2l-161.8,93.6v-5.4l161.8-93.6V492.2z"/>
				<path id="Path_1569-2" class="st1" d="M-512.1,546.7l-49.3,28.5v-5.4l49.3-28.5V546.7z"/>
				<path id="Path_1570-2" class="st1" d="M-505,571.3l105.5-61.1v5.4L-505,576.7V571.3z"/>
				<path id="Path_1571-2" class="st1" d="M-399.5,526.1l-161.8,93.6v-5.4l161.8-93.6V526.1z"/>
				<path id="Path_1572-2" class="st1" d="M-512.1,580.6l-49.3,28.5v-5.4l49.3-28.5V580.6z"/>
				<path id="Path_1573-2" class="st1" d="M-505,591.9l105.5-61.1v5.4L-505,597.2V591.9z"/>
				<path id="Path_1574-2" class="st1" d="M-512.1,601.2l-49.3,28.5v-5.4l49.3-28.5V601.2z"/>
			</g>
			<g id="Group_366-2" transform="translate(98.874 47.312)">
				<g id="Group_365-2" transform="translate(0 0)">
					<path id="Path_1575-2" class="st12" d="M-215.6,732.4l0.2,0.1l0,0L-215.6,732.4z"/>
				</g>
			</g>
			<g id="Group_374-2" transform="translate(102.962 27.786)" class="st11">
				<g id="Group_373-2" transform="translate(0 0)">
					<path id="Path_1576-2" class="st1" d="M5,595.7l0,6.1l-25.4,14.7v-6.1L5,595.7z"/>
					<path id="Path_1577-2" class="st1" d="M5,606.8l0,6.1l-25.4,14.7l0-6.1L5,606.8z"/>
					<path id="Path_1578-2" class="st1" d="M5,617.8l0,6.1l-25.4,14.7v-6.1L5,617.8z"/>
					<path id="Path_1579-2" class="st1" d="M-187,745.7v-6.1l157-90.6v6.1L-187,745.7z"/>
					<path id="Path_1580-2" class="st1" d="M5,628.9l0,6.1l-25.4,14.7l0-6.1L5,628.9z"/>
					<path id="Path_1581-2" class="st1" d="M5,640l0,6.1l-25.4,14.7v-6.1L5,640z"/>
					<path id="Path_1582-2" class="st1" d="M-187,756.8l0-6.1l157-90.6v6.1L-187,756.8z"/>
					<path id="Path_1583-2" class="st1" d="M5,673.2l0,6.1l-25.4,14.7v-6.1L5,673.2z"/>
					<path id="Path_1584-2" class="st1" d="M5,684.2l0,6.1l-25.4,14.7v-6.1L5,684.2z"/>
					<path id="Path_1585-2" class="st1" d="M5,728.5l0,6.1l-25.4,14.7l0-6.1L5,728.5z"/>
					<path id="Path_1586-2" class="st1" d="M5,739.5l0,6.1l-25.4,14.7v-6.1L5,739.5z"/>
					<g id="Group_367-2" transform="translate(0 20.499)">
						<path id="Path_1587-2" class="st1" d="M-129,796.3l99-57.1v6.1l-99,57.1L-129,796.3z"/>
						<path id="Path_1588-2" class="st1" d="M-134.2,799.4v6.1l-52.7,30.4v-6.1L-134.2,799.4z"/>
					</g>
					<g id="Group_368-2" transform="translate(0 19.116)">
						<path id="Path_1589-2" class="st1" d="M-79.7,758.2l49.8-28.7v6.1l-49.8,28.7V758.2z"/>
						<path id="Path_1590-2" class="st1" d="M-84.9,761.2v6.1l-102,58.8v-6.1L-84.9,761.2z"/>
					</g>
					<path id="Path_1591-2" class="st1" d="M-173.5,798.3l0,6.1l-13.4,7.7V806L-173.5,798.3z"/>
					<path id="Path_1592-2" class="st1" d="M-100.5,745.1l70.5-40.7v6.1l-70.5,40.7L-100.5,745.1z"/>
					<path id="Path_1593-2" class="st1" d="M-71.6,639.9l41.6-24v6.1l-41.6,24V639.9z"/>
					<g id="Group_369-2" transform="translate(5.889 5.901)">
						<path id="Path_1594-2" class="st1" d="M-145.7,673.4l63-36.4v6.1l-63,36.3V673.4z"/>
					</g>
					<path id="Path_1595-2" class="st1" d="M-103.1,669.2l44.4-25.6v6.1l-44.4,25.6V669.2z"/>
					<g id="Group_370-2" transform="translate(0 9.556)">
						<path id="Path_1596-2" class="st1" d="M-149.7,686.5l41.3-23.8v6.1l-41.3,23.8V686.5z"/>
						<path id="Path_1597-2" class="st1" d="M-154.9,689.5v6.1L-187,714V708L-154.9,689.5z"/>
					</g>
					<path id="Path_1598-2" class="st1" d="M-38.2,642.7v6.1l-33.4,19.3V662L-38.2,642.7z"/>
					<path id="Path_1599-2" class="st1" d="M-173.9,721l97.1-56v6.1l-97.1,56V721z"/>
					<path id="Path_1600-2" class="st1" d="M-118.3,722.2l63.4-36.6v6.1l-63.4,36.6V722.2z"/>
					<path id="Path_1601-2" class="st1" d="M-173.9,754.2l50.4-29v6.1l-50.4,29V754.2z"/>
					<g id="Group_371-2" transform="translate(2.33 19.048)">
						<path id="Path_1602-2" class="st1" d="M-170.7,765.2l62.6-36.1v6.1l-62.6,36.1V765.2z"/>
					</g>
					<path id="Path_1603-2" class="st1" d="M-134.2,775.6v6.1l-34.1,19.7v-6.1L-134.2,775.6z"/>
					<path id="Path_1604-2" class="st1" d="M-42.2,722.5l12.3-7.1v6.1l-12.3,7.1V722.5z"/>
					<g id="Group_372-2" transform="translate(7.244 16.229)">
						<path id="Path_1605-2" class="st1" d="M-72.5,719.6v6.1l-63.8,36.8v-6L-72.5,719.6z"/>
						<path id="Path_1606-2" class="st1" d="M-67.3,716.6l12.6-7.2v6.1l-12.6,7.2V716.6z"/>
					</g>
					<path id="Path_1607-2" class="st1" d="M-117.2,776.8l69.8-40.2v6.1l-69.8,40.2V776.8z"/>
				</g>
			</g>
			<path id="Path_1608-2" class="st8" d="M-650.6,702.2l78.8-45.5c2.8-1.6,6.3-0.6,7.9,2.1c0.5,0.9,0.8,1.9,0.8,2.9v94.3
				c0,4.6-2.4,8.8-6.4,11.1l-78.8,45.6c-2.8,1.6-6.4,0.7-8.1-2.1c-0.5-0.9-0.8-1.9-0.8-3v-93.9C-657.3,709-654.7,704.6-650.6,702.2z
				"/>
			<path id="Path_1683-2" class="st8" d="M-255.5,468.6l78.8-45.5c2.8-1.6,6.3-0.6,7.9,2.1c0.5,0.9,0.8,1.9,0.8,2.9l0,94.3
				c0,4.6-2.4,8.8-6.4,11.1l-78.8,45.6c-2.8,1.6-6.4,0.7-8.1-2.1c-0.5-0.9-0.8-1.9-0.8-3v-93.9C-262.2,475.4-259.7,471-255.5,468.6z
				"/>
			<path id="Path_1609-2" class="st8" d="M-758.3,519.9l78.8-45.4c2.8-1.6,6.3-0.6,7.9,2.1c0.5,0.9,0.8,1.9,0.8,2.9v94.3
				c0,4.6-2.4,8.8-6.4,11.1l-78.8,45.6c-2.8,1.6-6.4,0.7-8.1-2.1c-0.5-0.9-0.8-1.9-0.8-3v-93.9
				C-764.9,526.7-762.4,522.3-758.3,519.9z"/>
			<path id="Path_1610-2" class="st8" d="M-315.7,781l78.8-45.5c2.8-1.6,6.3-0.6,7.9,2.1c0.5,0.9,0.8,1.9,0.8,2.9l0,94.3
				c0,4.6-2.4,8.8-6.4,11.1l-78.8,45.6c-2.8,1.6-6.4,0.7-8.1-2.2c-0.5-0.9-0.8-1.9-0.8-3l0-93.9C-322.3,787.8-319.8,783.4-315.7,781
				z"/>
			<g id="Group_377-2" transform="translate(104.959 51.545)">
				<g id="Group_376-2" transform="translate(0 0)">
					<path id="Path_1612-2" class="st13" d="M-165.6,762l-7.4,12.8"/>
				</g>
			</g>
			<g id="Group_378-2" transform="translate(9.158 110.141)">
				<path id="Path_1613-2" class="st1" d="M-843.6,1172.2"/>
			</g>
			<g id="Group_380-2" transform="translate(12.313 93.815)">
				<g id="Group_379-2" transform="translate(0 0)">
					<path id="Path_1614-2" class="st12" d="M-821.5,1057.9l0.2,0.1l0,0L-821.5,1057.9z"/>
				</g>
			</g>
			<g id="Group_382-2" transform="translate(40.721 62.927)">
				<g id="Group_381-2" transform="translate(0 0)">
					<path id="Path_1615-2" class="st12" d="M-622.7,841.7l0.2,0.1l0,0C-622.5,841.7-622.6,841.7-622.7,841.7z"/>
				</g>
			</g>
			<g id="Group_384-2" transform="translate(69.003 32.761)">
				<g id="Group_383-2" transform="translate(0 0)">
					<path id="Path_1616-2" class="st12" d="M-424.7,630.5l0.1,0.1l0,0L-424.7,630.5z"/>
				</g>
			</g>
			<g id="Group_394-2" transform="translate(29.875 62.948)" class="st11">
				<g id="Group_393-2" transform="translate(0 0)">
					<path id="Path_1621-2" class="st1" d="M-506.6,841.8v6.1l-25.4,14.7v-6.1L-506.6,841.8z"/>
					<path id="Path_1622-2" class="st1" d="M-506.6,852.9v6.1l-25.4,14.7v-6.1L-506.6,852.9z"/>
					<path id="Path_1623-2" class="st1" d="M-506.6,864v6.1l-25.4,14.7v-6.1L-506.6,864z"/>
					<path id="Path_1624-2" class="st1" d="M-698.6,991.8v-6.1l157-90.6v6.1L-698.6,991.8z"/>
					<path id="Path_1625-2" class="st1" d="M-506.6,875v6.1l-25.4,14.7v-6.1L-506.6,875z"/>
					<path id="Path_1626-2" class="st1" d="M-506.6,886.1v6.1l-25.4,14.7v-6.1L-506.6,886.1z"/>
					<path id="Path_1627-2" class="st1" d="M-698.6,1002.9v-6.1l157-90.6v6.1L-698.6,1002.9z"/>
					<path id="Path_1628-2" class="st1" d="M-506.6,919.3v6.1L-532,940V934L-506.6,919.3z"/>
					<path id="Path_1629-2" class="st1" d="M-506.6,930.4v6.1l-25.4,14.7V945L-506.6,930.4z"/>
					<path id="Path_1630-2" class="st1" d="M-506.6,974.6v6.1l-25.4,14.7v-6.1L-506.6,974.6z"/>
					<path id="Path_1631-2" class="st1" d="M-506.6,985.7v6.1l-25.4,14.7v-6.1L-506.6,985.7z"/>
					<g id="Group_387-2" transform="translate(0 20.499)">
						<path id="Path_1632-2" class="st1" d="M-640.6,1042.5l99-57.1v6.1l-99,57.1V1042.5z"/>
						<path id="Path_1633-2" class="st1" d="M-645.8,1045.5l0,6.1l-52.7,30.4v-6.1L-645.8,1045.5z"/>
					</g>
					<g id="Group_388-2" transform="translate(0 19.116)">
						<path id="Path_1634-2" class="st1" d="M-591.3,1004.4l49.8-28.7v6.1l-49.8,28.7V1004.4z"/>
						<path id="Path_1635-2" class="st1" d="M-596.6,1007.4v6.1l-102,58.8v-6.1L-596.6,1007.4z"/>
					</g>
					<path id="Path_1636-2" class="st1" d="M-685.2,1044.4v6.1l-13.4,7.7v-6.1L-685.2,1044.4z"/>
					<path id="Path_1637-2" class="st1" d="M-612.1,991.2l70.5-40.7v6.1l-70.5,40.7V991.2z"/>
					<path id="Path_1638-2" class="st1" d="M-583.2,886l41.6-24v6.1l-41.6,24V886z"/>
					<g id="Group_389-2" transform="translate(5.889 5.901)">
						<path id="Path_1639-2" class="st1" d="M-657.4,919.5l63-36.4v6.1l-63,36.3V919.5z"/>
					</g>
					<path id="Path_1640-2" class="st1" d="M-614.7,915.3l44.4-25.6v6.1l-44.4,25.6V915.3z"/>
					<g id="Group_390-2" transform="translate(0 9.556)">
						<path id="Path_1641-2" class="st1" d="M-661.3,932.6l41.3-23.8v6.1l-41.3,23.8V932.6z"/>
						<path id="Path_1642-2" class="st1" d="M-666.5,935.6v6.1l-32.1,18.5v-6.1L-666.5,935.6z"/>
					</g>
					<path id="Path_1643-2" class="st1" d="M-549.8,888.9v6.1l-33.4,19.3v-6.1L-549.8,888.9z"/>
					<path id="Path_1644-2" class="st1" d="M-685.5,967.2l97.1-56v6.1l-97.1,56V967.2z"/>
					<path id="Path_1645-2" class="st1" d="M-629.9,968.3l63.4-36.6v6.1l-63.4,36.6V968.3z"/>
					<path id="Path_1646-2" class="st1" d="M-685.5,1000.4l50.4-29v6.1l-50.4,29L-685.5,1000.4z"/>
					<g id="Group_391-2" transform="translate(2.33 19.048)">
						<path id="Path_1647-2" class="st1" d="M-682.3,1011.3l62.6-36.1v6.1l-62.6,36.1V1011.3z"/>
					</g>
					<path id="Path_1648-2" class="st1" d="M-645.8,1021.7v6.1l-34.1,19.7v-6.1L-645.8,1021.7z"/>
					<path id="Path_1649-2" class="st1" d="M-553.8,968.7l12.3-7.1v6.1l-12.3,7.1V968.7z"/>
					<g id="Group_392-2" transform="translate(7.244 16.229)">
						<path id="Path_1650-2" class="st1" d="M-584.1,965.7v6.1l-63.8,36.8v-6L-584.1,965.7z"/>
						<path id="Path_1651-2" class="st1" d="M-578.9,962.7l12.6-7.2v6.1l-12.6,7.2V962.7z"/>
					</g>
					<path id="Path_1652-2" class="st1" d="M-628.8,1023l69.8-40.2v6.1l-69.8,40.2V1023z"/>
				</g>
			</g>
			<g id="Group_402-2" transform="translate(0 33.808)" class="st11">
				<g id="Group_401-2" transform="translate(0 0)">
					<path id="Path_1653-2" class="st1" d="M-715.7,637.9v6.1l-25.4,14.7v-6.1L-715.7,637.9z"/>
					<path id="Path_1654-2" class="st1" d="M-715.7,648.9v6.1l-25.4,14.7v-6.1L-715.7,648.9z"/>
					<path id="Path_1655-2" class="st1" d="M-715.7,660v6.1l-25.4,14.7v-6.1L-715.7,660z"/>
					<path id="Path_1656-2" class="st1" d="M-907.7,787.9v-6.1l157-90.6v6.1L-907.7,787.9z"/>
					<path id="Path_1657-2" class="st1" d="M-715.7,671.1v6.1l-25.4,14.7v-6.1L-715.7,671.1z"/>
					<path id="Path_1658-2" class="st1" d="M-715.7,682.1v6.1l-25.4,14.7v-6.1L-715.7,682.1z"/>
					<path id="Path_1659-2" class="st1" d="M-907.7,798.9v-6.1l157-90.6v6.1L-907.7,798.9z"/>
					<path id="Path_1660-2" class="st1" d="M-715.7,715.3v6.1l-25.4,14.7V730L-715.7,715.3z"/>
					<path id="Path_1661-2" class="st1" d="M-715.7,726.4v6.1l-25.4,14.7V741L-715.7,726.4z"/>
					<path id="Path_1662-2" class="st1" d="M-715.7,770.6v6.1l-25.4,14.7v-6.1L-715.7,770.6z"/>
					<path id="Path_1663-2" class="st1" d="M-715.7,781.7v6.1l-25.4,14.7v-6.1L-715.7,781.7z"/>
					<g id="Group_395-2" transform="translate(7.244 20.499)">
						<path id="Path_1664-2" class="st1" d="M-857,838.5l99-57.1v6.1l-99,57.1V838.5z"/>
					</g>
					<g id="Group_396-2" transform="translate(13.405 19.116)">
						<path id="Path_1665-2" class="st1" d="M-813.9,800.4l49.8-28.7v6.1l-49.8,28.7V800.4z"/>
					</g>
					<path id="Path_1666-2" class="st1" d="M-894.3,840.4v6.1l-13.4,7.7v-6.1L-894.3,840.4z"/>
					<path id="Path_1667-2" class="st1" d="M-821.2,787.2l70.5-40.7v6.1l-70.5,40.7V787.2z"/>
					<path id="Path_1668-2" class="st1" d="M-792.3,682l41.6-24v6.1l-41.6,24V682z"/>
					<g id="Group_397-2" transform="translate(5.889 5.901)">
						<path id="Path_1669-2" class="st1" d="M-866.5,715.5l63-36.4v6.1l-63,36.3V715.5z"/>
					</g>
					<path id="Path_1670-2" class="st1" d="M-823.9,711.3l44.4-25.6v6.1l-44.4,25.6V711.3z"/>
					<g id="Group_398-2" transform="translate(0 9.556)">
						<path id="Path_1671-2" class="st1" d="M-870.4,728.6l41.3-23.8v6.1l-41.3,23.8V728.6z"/>
						<path id="Path_1672-2" class="st1" d="M-875.6,731.6v6.1l-32.1,18.5v-6.1L-875.6,731.6z"/>
					</g>
					<path id="Path_1673-2" class="st1" d="M-758.9,684.9v6.1l-33.4,19.3v-6.1L-758.9,684.9z"/>
					<path id="Path_1674-2" class="st1" d="M-894.6,763.2l97.1-56v6.1l-97.1,56V763.2z"/>
					<path id="Path_1675-2" class="st1" d="M-839.1,764.3l63.4-36.6v6.1l-63.4,36.6V764.3z"/>
					<path id="Path_1676-2" class="st1" d="M-894.6,796.4l50.4-29v6.1l-50.4,29V796.4z"/>
					<g id="Group_399-2" transform="translate(2.33 19.048)">
						<path id="Path_1677-2" class="st1" d="M-891.4,807.3l62.6-36.1v6.1l-62.6,36.1V807.3z"/>
					</g>
					<path id="Path_1678-2" class="st1" d="M-855,817.8v6.1l-34.1,19.7v-6.1L-855,817.8z"/>
					<path id="Path_1679-2" class="st1" d="M-763,764.7l12.3-7.1v6.1l-12.3,7.1V764.7z"/>
					<g id="Group_400-2" transform="translate(7.244 16.229)">
						<path id="Path_1680-2" class="st1" d="M-793.2,761.7v6.1l-63.8,36.8v-6L-793.2,761.7z"/>
						<path id="Path_1681-2" class="st1" d="M-788,758.7l12.6-7.2v6.1l-12.6,7.2V758.7z"/>
					</g>
					<path id="Path_1682-2" class="st1" d="M-837.9,819l69.8-40.2v6.1l-69.8,40.2V819z"/>
				</g>
			</g>
		</g>
		<path id="microchip-2" class="st8" d="M91.5,165.9l77.6-13.7l3.5,19.9l-38.3,54.7l5.8,32.7c-3.7,4-3.5,10.3,0.5,14
			c4,3.7,10.3,3.5,14-0.5c3.7-4,3.5-10.3-0.5-14c-0.7-0.6-1.5-1.2-2.3-1.6l-4.9-27.8l38.3-54.7l-4.4-24.7L216,144l5.1,29.2
			c-3.7,4-3.5,10.3,0.5,14c4,3.7,10.3,3.5,14-0.5c3.7-4,3.5-10.3-0.5-14c-0.7-0.6-1.5-1.2-2.3-1.6l-5.1-29.2l30.7-5.4l14.6,82.8
			l-34.2,6l-15.2-10.7c-0.1-5.5-4.7-9.9-10.3-9.7c-5.5,0.1-9.9,4.7-9.7,10.3c0.1,5.5,4.7,9.9,10.3,9.7c1,0,2-0.2,2.9-0.5l19.3,13.5
			l39-6.9l4.8,27L218,268.9l-11,13.6c-5.5-0.2-10.1,4.1-10.3,9.5c-0.2,5.5,4.1,10.1,9.5,10.3s10.1-4.1,10.3-9.5c0-0.7,0-1.4-0.1-2.1
			c0-0.2-0.1-0.5-0.1-0.7l8.2-10.1l57.5-10.1l5.9,33.7l-142.4,25.1l-28.8-20.2L98.1,202.8l24.2-4.3c4,3.7,10.3,3.5,14-0.5
			c3.7-4,3.5-10.3-0.5-14s-10.3-3.5-14,0.5c-0.6,0.7-1.2,1.5-1.6,2.3L96,191.1L91.5,165.9L91.5,165.9z"/>
		<path id="microchip-3" class="st8" d="M91.5,165.9l77.6-13.7l3.5,19.9l-38.3,54.7l5.8,32.7c-3.7,4-3.5,10.3,0.5,14
			c4,3.7,10.3,3.5,14-0.5c3.7-4,3.5-10.3-0.5-14c-0.7-0.6-1.5-1.2-2.3-1.6l-4.9-27.8l38.3-54.7l-4.4-24.7L216,144l5.1,29.2
			c-3.7,4-3.5,10.3,0.5,14c4,3.7,10.3,3.5,14-0.5c3.7-4,3.5-10.3-0.5-14c-0.7-0.6-1.5-1.2-2.3-1.6l-5.1-29.2l30.7-5.4l14.6,82.8
			l-34.2,6l-15.2-10.7c-0.1-5.5-4.7-9.9-10.3-9.7c-5.5,0.1-9.9,4.7-9.7,10.3c0.1,5.5,4.7,9.9,10.3,9.7c1,0,2-0.2,2.9-0.5l19.3,13.5
			l39-6.9l4.8,27L218,268.9l-11,13.6c-5.5-0.2-10.1,4.1-10.3,9.5c-0.2,5.5,4.1,10.1,9.5,10.3s10.1-4.1,10.3-9.5c0-0.7,0-1.4-0.1-2.1
			c0-0.2-0.1-0.5-0.1-0.7l8.2-10.1l57.5-10.1l5.9,33.7l-142.4,25.1l-28.8-20.2L98.1,202.8l24.2-4.3c4,3.7,10.3,3.5,14-0.5
			c3.7-4,3.5-10.3-0.5-14s-10.3-3.5-14,0.5c-0.6,0.7-1.2,1.5-1.6,2.3L96,191.1L91.5,165.9L91.5,165.9z"/>
	</g>
</g>
</svg>
