<svg xmlns="http://www.w3.org/2000/svg" viewBox="704 -284 1920 1080" width="1920" height="1080"><path d="M-6134-2294.2l-100.1-84 21.5-25.6 110.4-9.7 35.4-42.2c9.1.5 16.8-6.5 17.3-15.5s-6.5-16.8-15.5-17.3-16.8 6.5-17.3 15.5c-.1 1.6.1 3.1.4 4.6l-30.2 35.9-110.4 9.7-26.8 31.9-45.3-38.1 31.5-37.6c9.1.5 16.8-6.5 17.3-15.5.5-9.1-6.5-16.8-15.5-17.3s-16.8 6.5-17.3 15.5c-.1 1.6.1 3.1.4 4.6l-31.5 37.6-39.7-33.3 89.7-106.9 44.1 37 2.7 30.7c-6.9 6.1-7.5 16.5-1.4 23.4s16.5 7.5 23.4 1.4 7.5-16.5 1.4-23.4c-1.1-1.2-2.3-2.3-3.7-3.1l-3.4-38.9-50.4-42.3 29.2-34.9 79.9 67 29-.5c5.6 7.2 15.9 8.5 23.1 2.9s8.5-15.9 2.9-23.1-15.9-8.5-23.1-2.9c-.9.7-1.8 1.5-2.5 2.4-.3.3-.5.6-.7.9l-21.6.4-74.2-62.3 36.5-43.5 183.8 154.2 5.1 58.2-114.2 136.1-31.3-26.3c.5-9.1-6.5-16.8-15.5-17.3-9.1-.5-16.8 6.5-17.3 15.5s6.5 16.8 15.5 17.3c1.6.1 3.1-.1 4.6-.4l31.3 26.3-27.5 32.9z" opacity=".2" fill="#fff" enable-background="new"/><path d="M1130.95 7275.7l-179.8-78.2v-43.3l179.8-77.8v51l-125.4 47.9 125.4 49.7v50.7zm16.6 34.4l64.9-271.2h37.8l-65.7 271.2h-37zm119.4-34.2v-50.6l125.6-49.4-125.6-48.8v-50.3l180 77.8v42.9l-180 78.4z" transform="matrix(-.62932 .777146 -.777146 -.62932 51.971 309.03)" opacity=".2" fill="#fff"/><g fill="#fff"><path d="M5689.9 2770.5l-80.8-131.9c27.4-9.6 41.7-39.6 32.1-66.9-7.4-21-27.3-35.1-49.6-35.1-8.5.1-16.8 2.2-24.3 6.3l-99.7-155.5c18.3-22.5 14.9-55.5-7.6-73.8s-55.5-14.9-73.8 7.6c-17 20.9-15.4 51.4 3.8 70.4l-93.6 146.2c-3.5-.7-7.1-1.1-10.7-1.1-29-.1-52.5 23.3-52.6 52.3-.1 22.8 14.5 43 36.2 50l-78 127.4c-.7 0-1.3-.2-2-.2-29.2-.1-53 23.4-53.1 52.6s23.4 53 52.6 53.1 53-23.4 53.1-52.6a52.86 52.86 0 0 0-33-49.2l77.4-126.3 79.4 129.6c-27.4 9.3-42 39.1-32.7 66.4s39.1 42 66.4 32.7 42-39.1 32.7-66.4c-7.1-20.8-26.3-34.9-48.2-35.5l-80.8-131.9c27.3-9.4 41.7-39.2 32.3-66.4-4.1-11.8-12.2-21.7-23-28l91.6-142.9c16.2 8.2 35.5 7.3 50.8-2.5l98.9 154.3c-20 20.8-19.4 53.8 1.4 73.8 5.7 5.5 12.6 9.6 20.2 12.1l-78 127.4c-.7 0-1.3-.2-2-.2-29.2-.1-52.9 23.4-53 52.6s23.4 52.9 52.6 53 52.9-23.4 53-52.6c.1-21.6-13-41-32.9-49.1l77.4-126.3 79.4 129.6c-27.4 9.3-42.1 39.1-32.8 66.5s39.1 42.1 66.5 32.8 42.1-39.1 32.8-66.5c-7.2-21.1-26.5-35.2-48.4-35.8h0zm-465 48.2c0 19.7-15.9 35.6-35.6 35.6s-35.6-15.9-35.6-35.6 15.9-35.6 35.6-35.6c19.6 0 35.6 15.9 35.6 35.6zm193 4.2c0 19.7-15.9 35.6-35.6 35.6s-35.6-15.9-35.6-35.6 15.9-35.6 35.6-35.6 35.6 16 35.6 35.6zm-132.2-198.1c-19.7 0-35.6-16-35.6-35.6s16-35.6 35.6-35.6 35.6 15.9 35.6 35.6c0 19.6-15.9 35.6-35.6 35.6zm245.1 193.9c0 19.7-15.9 35.6-35.6 35.6s-35.6-15.9-35.6-35.6c0-19.6 15.9-35.6 35.6-35.6s35.6 15.9 35.6 35.6zm-139.3-464.5c0-19.7 15.9-35.6 35.6-35.6s35.6 15.9 35.6 35.6-15.9 35.6-35.6 35.6c-19.6 0-35.5-15.9-35.6-35.6h0zm164.6 235c0-19.7 15.9-35.6 35.6-35.6s35.6 15.9 35.6 35.6-15.9 35.6-35.6 35.6-35.6-16-35.6-35.6zm132.2 269.3c-19.7 0-35.6-15.9-35.6-35.6s15.9-35.6 35.6-35.6 35.6 15.9 35.6 35.6c-.1 19.7-16 35.6-35.6 35.6z" transform="matrix(-.987688 .156434 -.156434 -.987688 210.52 864.58)" opacity=".2"/><path d="M-5826.3 27.4l-83.3 187.1-47.9-21.3-62.2-162.2-78.8-35.1c-3.2-13.9-17-22.5-30.9-19.4-13.9 3.2-22.5 17-19.4 30.9 3.2 13.9 17 22.5 30.9 19.4 2.4-.5 4.7-1.4 6.8-2.6l67.1 29.9 62.2 162.2 59.6 26.5-37.7 84.7-70.3-31.3c-3.2-13.9-17-22.5-30.9-19.4-13.9 3.2-22.5 17-19.4 30.9 3.2 13.9 17 22.5 30.9 19.4 2.4-.5 4.7-1.4 6.8-2.6l70.3 31.3-33 74.1-199.7-88.9 36.7-82.4 45.1-17.3c12.1 7.7 28.2 4.2 35.9-7.9s4.2-28.2-7.9-35.9-28.2-4.2-35.9 7.9c-1.4 2.2-2.4 4.5-3.1 7l-57.1 21.9-41.9 94.1-65.1-29 66.4-149.2-13.3-43.5a25.75 25.75 0 1 0-41.6-30.4 25.75 25.75 0 0 0 5.6 36 24.76 24.76 0 0 0 4.7 2.7 12.2 12.2 0 0 1 1.7.7l9.9 32.4-61.8 138.7-81.2-36.2 152.9-343.4 85.4-32.8 254.3 113.2-26 58.5c-13.9 3.2-22.5 17-19.4 30.9 3.2 13.9 17 22.5 30.9 19.4 13.9-3.2 22.5-17 19.4-30.9-.5-2.4-1.4-4.7-2.6-6.8l26-58.5 60.9 27.2z" opacity=".2" enable-background="new"/></g><linearGradient id="A" gradientUnits="userSpaceOnUse" x1="-1612.904" y1="-247.445" x2="3221.797" y2="4302.761"><stop offset="0" stop-color="#2ba6f8"/><stop offset=".906" stop-color="#090909"/><stop offset="1"/></linearGradient><path d="M439.4-968.4c680-1232.5-356.9-995.7-356.9-995.7h0l-1131 5818.3 4912.9 955 224.3-1153.9s-881.4 256.2-336.5-775 61.7-1166.7-198.2-975.9-1031.2 1767.8-710.3 385.5c148.6-640.1 100-921-295.2-514.3s-49.2 636.5-448.5-710.2c-165.4-557.8-63.1-1164.7-472.3-1275.5-311.9-84.4-556.4 134.2-913.6 264.3" fill="url(#A)"/></svg>