<?xml version="1.0" encoding="utf-8"?>
<!-- Generator: Adobe Illustrator 19.0.0, SVG Export Plug-In . SVG Version: 6.00 Build 0)  -->
<svg version="1.1" id="Layer_1" xmlns="http://www.w3.org/2000/svg" xmlns:xlink="http://www.w3.org/1999/xlink" x="0px" y="0px"
	 viewBox="256 -256 1024 1024" style="enable-background:new 256 -256 1024 1024;" xml:space="preserve">
<style type="text/css">
	.st0{fill:#FFFFFF;stroke:#000000;stroke-miterlimit:10;}
</style>
<rect x="344" y="-157" class="st0" width="837" height="825"/>
<g transform="matrix(.1 0 0 -.1 0 1024)">
	<path d="M2560,7680V2560h5120h5120v5120v5120H7680H2560V7680z M7170,11421c356-39,552-171,615-416c21-81,35-257,35-445
		c0-300-27-471-91-571c-64-101-190-192-305-220c-59-14-79-29-40-29c15,0,56-7,90-16c200-51,317-168,345-344c7-41,11-347,11-832v-768
		h-400h-400l-2,739c-3,732-3,740-24,768c-38,51-65,58-241,61l-163,4v-786v-786h-405h-405v1831v1831l638-5
		C6796,11434,7109,11427,7170,11421z M9578,11088l2-348h-365h-365l2-307l3-308l338-3l337-2l-2-338l-3-337l-337-3l-338-2v-485v-485
		h365h365v-345v-345h-755h-755v1823c0,1003,3,1827,7,1830c3,4,342,6,752,5l746-3L9578,11088z M11285,11090v-345l-362-3l-363-2v-310
		v-310h335h335v-340v-340h-335h-335v-485v-485h365h365l-2-342l-3-343l-752-3l-753-2v1830v1830l753-2l752-3V11090z M5618,11083
		l-3-348l-367-3l-368-2v-305v-305h340h340l-2-347l-3-348l-337-3l-338-2v-820v-820h-400h-400v1825v1825h770h770L5618,11083z
		 M5115,7570c131-18,234-48,335-97c79-38,108-59,175-127c93-94,135-169,159-288c13-62,16-148,16-428v-350h-369h-369l-4,253
		c-3,230-5,255-23,285c-32,53-93,76-200,77c-110,0-158-20-189-81c-21-39-21-50-24-1065l-2-1026l21-27c39-49,94-70,189-71
		c109,0,170,26,203,89c21,39,22,55,25,324l4,282h-121h-121v290v290h490h490v-682c0-562-3-695-15-753c-55-261-268-437-605-501
		c-132-25-494-30-644-10c-382,54-616,234-684,526c-16,69-17,172-17,1285v1210l22,83c83,312,328,479,763,522
		C4726,7591,5009,7585,5115,7570z M7510,7245v-345h-365h-365v-310v-310l338-2l337-3l3-337l2-338h-340h-340v-490v-490h365h365v-340
		v-340h-755h-755v1825v1825h755h755V7245z M9220,7245v-345h-365h-365v-310v-310h335h335v-340v-340h-335h-335v-490v-490h365h365v-340
		v-340h-755h-755v1825v1825h755h755V7245z M10208,6750l3-835l227,820c125,451,231,828,235,838c6,16,34,17,392,17c301,0,385-3,385-12
		c0-7-123-402-274-877l-273-863l44-137c25-75,164-497,309-939c145-441,264-807,264-813s-150-8-412-7l-413,3l-240,849l-240,850
		l-3-852l-2-852h-385h-385v1825v1825l383-2l382-3L10208,6750z"/>
	<path d="M6600,10440v-420h163c185,0,219,10,249,70c16,31,18,70,18,355c0,303-1,322-20,353c-33,53-68,62-250,62h-160V10440z"/>
</g>
</svg>
