<svg xmlns="http://www.w3.org/2000/svg" xmlns:xlink="http://www.w3.org/1999/xlink" width="1000" height="1000" viewBox="0 0 1000 1000"><defs><clipPath id="b"><rect width="1000" height="1000"/></clipPath></defs><g id="a" clip-path="url(#b)"><rect width="1000" height="1000" fill="#fff"/><rect width="115" height="115" transform="translate(135 151)" fill="#008820"/><g transform="translate(292 151)" fill="#707070" stroke="#707070" stroke-width="1"><rect width="110" height="115" stroke="none"/><rect x="0.5" y="0.5" width="109" height="114" fill="none"/></g><g transform="translate(445 151)" fill="#707070" stroke="#707070" stroke-width="1"><rect width="115" height="115" stroke="none"/><rect x="0.5" y="0.5" width="114" height="114" fill="none"/></g><g transform="translate(590 151)" fill="#707070" stroke="#707070" stroke-width="1"><rect width="122" height="115" stroke="none"/><rect x="0.5" y="0.5" width="121" height="114" fill="none"/></g><g transform="translate(749 151)" fill="#707070" stroke="#707070" stroke-width="1"><rect width="116" height="115" stroke="none"/><rect x="0.5" y="0.5" width="115" height="114" fill="none"/></g><g transform="translate(135 296)" fill="#707070" stroke="#707070" stroke-width="1"><rect width="115" height="116" stroke="none"/><rect x="0.5" y="0.5" width="114" height="115" fill="none"/></g><rect width="110" height="116" transform="translate(292 296)" fill="red"/><g transform="translate(445 296)" fill="#707070" stroke="#707070" stroke-width="1"><rect width="115" height="116" stroke="none"/><rect x="0.5" y="0.5" width="114" height="115" fill="none"/></g><g transform="translate(590 296)" fill="#707070" stroke="#707070" stroke-width="1"><rect width="122" height="116" stroke="none"/><rect x="0.5" y="0.5" width="121" height="115" fill="none"/></g><g transform="translate(749 296)" fill="#707070" stroke="#707070" stroke-width="1"><rect width="116" height="116" stroke="none"/><rect x="0.5" y="0.5" width="115" height="115" fill="none"/></g><g transform="translate(135 443)" fill="#707070" stroke="#707070" stroke-width="1"><rect width="115" height="121" stroke="none"/><rect x="0.5" y="0.5" width="114" height="120" fill="none"/></g><g transform="translate(292 443)" fill="#707070" stroke="#707070" stroke-width="1"><rect width="110" height="121" stroke="none"/><rect x="0.5" y="0.5" width="109" height="120" fill="none"/></g><rect width="115" height="121" transform="translate(445 443)" fill="red"/><g transform="translate(590 443)" fill="#707070" stroke="#707070" stroke-width="1"><rect width="122" height="121" stroke="none"/><rect x="0.5" y="0.5" width="121" height="120" fill="none"/></g><g transform="translate(749 443)" fill="#707070" stroke="#707070" stroke-width="1"><rect width="116" height="121" stroke="none"/><rect x="0.5" y="0.5" width="115" height="120" fill="none"/></g><g transform="translate(135 588)" fill="#707070" stroke="#707070" stroke-width="1"><rect width="115" height="116" stroke="none"/><rect x="0.5" y="0.5" width="114" height="115" fill="none"/></g><g transform="translate(292 588)" fill="#707070" stroke="#707070" stroke-width="1"><rect width="110" height="116" stroke="none"/><rect x="0.5" y="0.5" width="109" height="115" fill="none"/></g><g transform="translate(445 588)" fill="#707070" stroke="#707070" stroke-width="1"><rect width="115" height="116" stroke="none"/><rect x="0.5" y="0.5" width="114" height="115" fill="none"/></g><rect width="122" height="116" transform="translate(590 588)" fill="red"/><g transform="translate(749 588)" fill="#707070" stroke="#707070" stroke-width="1"><rect width="116" height="116" stroke="none"/><rect x="0.5" y="0.5" width="115" height="115" fill="none"/></g><g transform="translate(135 734)" fill="#707070" stroke="#707070" stroke-width="1"><rect width="115" height="115" stroke="none"/><rect x="0.5" y="0.5" width="114" height="114" fill="none"/></g><g transform="translate(292 734)" fill="#707070" stroke="#707070" stroke-width="1"><rect width="110" height="115" stroke="none"/><rect x="0.5" y="0.5" width="109" height="114" fill="none"/></g><g transform="translate(445 734)" fill="#707070" stroke="#707070" stroke-width="1"><rect width="115" height="115" stroke="none"/><rect x="0.5" y="0.5" width="114" height="114" fill="none"/></g><g transform="translate(590 734)" fill="#707070" stroke="#707070" stroke-width="1"><rect width="122" height="115" stroke="none"/><rect x="0.5" y="0.5" width="121" height="114" fill="none"/></g><rect width="116" height="115" transform="translate(749 734)" fill="#ffa000"/><text transform="translate(159 244)" fill="#fff" font-size="100" font-family="Arial-BoldMT, Arial" font-weight="700"><tspan x="0" y="0">S</tspan></text><text transform="translate(774 826)" fill="#fff" font-size="100" font-family="Arial-BoldMT, Arial" font-weight="700"><tspan x="0" y="0">E</tspan></text></g></svg>