<?xml version="1.0" encoding="utf-8"?>
<!-- Generator: Adobe Illustrator 19.0.0, SVG Export Plug-In . SVG Version: 6.00 Build 0)  -->
<svg version="1.1" id="Layer_1" xmlns="http://www.w3.org/2000/svg" xmlns:xlink="http://www.w3.org/1999/xlink" x="0px" y="0px"
	 viewBox="704 -824 1920 2160" style="enable-background:new 704 -824 1920 2160;" xml:space="preserve">
<style type="text/css">
	.st0{clip-path:url(#SVGID_2_);}
	.st1{fill:#FFFFFF;}
	.st2{fill:url(#Path_1_1_);}
	.st3{fill:url(#Path_2_1_);}
	.st4{fill:url(#Path_1-2_1_);}
	.st5{fill:url(#Path_2-2_1_);}
	.st6{opacity:0.4;}
	.st7{fill:#BBCEE1;}
	.st8{opacity:0.2;fill:#FFFFFF;enable-background:new    ;}
	.st9{fill:#0B3B56;}
	.st10{opacity:0.2;}
	.st11{fill:#FFC73B;}
	.st12{fill:#F9B800;}
	.st13{fill:#CE8900;}
	.st14{opacity:0.27;}
</style>
<g>
	<defs>
		<rect id="SVGID_1_" x="704" y="-824" width="1920" height="2160"/>
	</defs>
	<clipPath id="SVGID_2_">
		<use xlink:href="#SVGID_1_"  style="overflow:visible;"/>
	</clipPath>
	<g id="Portfolio_Site_HomePage_Middle_Div_-_Desktop" class="st0">
		<rect x="704" y="-824" class="st1" width="1920" height="2160"/>
		<g id="Group_1" transform="translate(3507.787 1702.13) rotate(149)">
			
				<linearGradient id="Path_1_1_" gradientUnits="userSpaceOnUse" x1="1186.0188" y1="2101.7708" x2="1185.3748" y2="2102.4927" gradientTransform="matrix(2297.7549 1215.0391 -1536.1112 2280.9282 505755.8125 -6233298)">
				<stop  offset="0" style="stop-color:#000000"/>
				<stop  offset="1" style="stop-color:#2BA6F8"/>
				<stop  offset="1" style="stop-color:#000000"/>
			</linearGradient>
			<path id="Path_1" class="st2" d="M3004.3,3146.6l-1858.5,988.2l-233.7-439.5c0,0,785.5-199.6,170.1-283
				c-615.5-83.4-521.7-497.9-351.9-473.6C900.1,2963,1311,3047,1010,2526.8c-139.4-240.9-111-394.8,98.6-278.6
				s288.7,749.2,282,155.2c-2.8-246-106.7-488.7,44.2-583.7c115-72.3,703.1,189.5,863,198.4c147.5,8.2,1283.8,348.4,857-67.1
				S1825.9,930.3,1825.9,930.3L3004.3,3146.6z"/>
			
				<linearGradient id="Path_2_1_" gradientUnits="userSpaceOnUse" x1="1185.9955" y1="2101.7075" x2="1185.3104" y2="2102.5605" gradientTransform="matrix(1514.0103 537.5057 -1259.1869 1476.1884 853365.5625 -3737541.25)">
				<stop  offset="0" style="stop-color:#2BA6F8"/>
				<stop  offset="1" style="stop-color:#000000"/>
			</linearGradient>
			<path id="Path_2" class="st3" d="M3004.3,3146.6l-1858.5,988.2l-111.3-209.4c0,0,316.8,66.4,302.4-355.4s99.3-579.5,395.5-337.8
				s816.4-98.6,656-564.4s-443.4-340.6-427.3-97.1c16.1,243.5-120.9,309-286.6,235.2c-165.7-73.8-161.6-553.2,329.6-665.2
				c450.8-102.8,738.4,513.5,738.4,513.5L3004.3,3146.6z"/>
		</g>
		<g id="Group_1055" transform="translate(3929.787 3320.13) rotate(149)">
			
				<linearGradient id="Path_1-2_1_" gradientUnits="userSpaceOnUse" x1="714.4116" y1="3706.0137" x2="713.7676" y2="3706.7358" gradientTransform="matrix(2297.7549 1215.0391 -1536.1112 2280.9282 4054412.75 -9319005)">
				<stop  offset="0" style="stop-color:#000000"/>
				<stop  offset="1" style="stop-color:#2BA6F8"/>
				<stop  offset="1" style="stop-color:#000000"/>
			</linearGradient>
			<path id="Path_1-2" class="st4" d="M3727.8,3581.3l-1858.5,988.2l-233.7-439.5c0,0,785.5-199.6,170.1-283
				c-615.5-83.4-521.7-497.9-351.9-473.6s580.7,108.4,279.7-411.8c-139.4-240.9-111-394.8,98.6-278.6
				c209.6,116.2,288.7,749.2,282,155.2c-2.8-246-106.7-488.7,44.2-583.7c115-72.3,703.1,189.5,863,198.4
				c147.5,8.2,1283.8,348.4,857-67.1S2549.4,1365,2549.4,1365L3727.8,3581.3z"/>
			
				<linearGradient id="Path_2-2_1_" gradientUnits="userSpaceOnUse" x1="714.3882" y1="3705.9507" x2="713.7032" y2="3706.8037" gradientTransform="matrix(1514.0103 537.5057 -1259.1869 1476.1884 3588149 -5851780)">
				<stop  offset="0" style="stop-color:#2BA6F8"/>
				<stop  offset="1" style="stop-color:#000000"/>
			</linearGradient>
			<path id="Path_2-2" class="st5" d="M3727.8,3581.3l-1858.5,988.2l-111.3-209.4c0,0,316.8,66.4,302.4-355.4
				s99.3-579.5,395.5-337.8s816.4-98.6,656-564.4s-443.4-340.6-427.3-97.1c16.1,243.5-120.9,309-286.6,235.2
				s-161.6-553.2,329.6-665.2c450.8-102.8,738.4,513.5,738.4,513.5L3727.8,3581.3z"/>
		</g>
		<g id="Group_403" transform="translate(2176.567 706.792) rotate(149)">
			<g id="Group_363" transform="translate(205.777 106.863)" class="st6">
				<g id="Group_362">
					<path id="Path_1532" class="st1" d="M615.7,1290.1l2.8-1.5l-3.2,94.2l-2.8,1.5L615.7,1290.1z"/>
					<path id="Path_1533" class="st1" d="M613.6,1285.6l-2.8,1.5l0.5-15.3l2.8-1.5L613.6,1285.6z"/>
					<path id="Path_1534" class="st1" d="M610.7,1292.8l2.8-1.5l-3.2,94.2l-2.8,1.5L610.7,1292.8z"/>
					<path id="Path_1535" class="st1" d="M598.4,1293.7l-2.8,1.5l0.5-15.3l2.8-1.5L598.4,1293.7z"/>
					<path id="Path_1536" class="st1" d="M593.3,1296.4l-2.8,1.5l0.5-15.3l2.8-1.5L593.3,1296.4z"/>
					<path id="Path_1537" class="st1" d="M573,1307.2l-2.8,1.5l0.5-15.3l2.8-1.5L573,1307.2z"/>
					<path id="Path_1538" class="st1" d="M567.9,1309.9l-2.8,1.5l0.5-15.3l2.8-1.5L567.9,1309.9z"/>
					<g id="Group_356" transform="translate(30.132 62.257)">
						<path id="Path_1539" class="st1" d="M532.8,1314.3l2-59.4l2.8-1.5l-2,59.4L532.8,1314.3z"/>
					</g>
					<g id="Group_357" transform="translate(0 56.505)">
						<path id="Path_1540" class="st1" d="M569,1287.8l1-29.9l2.8-1.5l-1,29.9L569,1287.8z"/>
						<path id="Path_1541" class="st1" d="M569.6,1350.6l-2.8,1.5l2.1-61.2l2.8-1.5L569.6,1350.6z"/>
					</g>
					<path id="Path_1542" class="st1" d="M584.8,1399l-2.8,1.5l0.3-8.1l2.8-1.5L584.8,1399z"/>
					<path id="Path_1543" class="st1" d="M588.9,1345.9l1.5-42.3l2.8-1.5l-1.5,42.3L588.9,1345.9z"/>
					<g id="Group_358" transform="translate(24.493 1.538)">
						<path id="Path_1544" class="st1" d="M604.2,1346.4l1.3-37.8l2.8-1.5l-1.3,37.8L604.2,1346.4z"/>
					</g>
					<path id="Path_1545" class="st1" d="M624.4,1328.6l0.9-26.6l2.8-1.5l-0.9,26.6L624.4,1328.6z"/>
					<g id="Group_359" transform="translate(0 16.741)">
						<path id="Path_1546" class="st1" d="M623.4,1339.8l0.9-24.8l2.8-1.5l-0.9,24.8L623.4,1339.8z"/>
						<path id="Path_1547" class="st1" d="M625.4,1360.7l-2.8,1.5l0.7-19.2l2.8-1.5L625.4,1360.7z"/>
					</g>
					<path id="Path_1548" class="st1" d="M622.7,1310.9l-2.8,1.5l0.7-20.1l2.8-1.5L622.7,1310.9z"/>
					<path id="Path_1549" class="st1" d="M617.8,1373.8l2-58.2l2.8-1.5l-2,58.2L617.8,1373.8z"/>
					<path id="Path_1550" class="st1" d="M603.8,1348.5l1.3-38l2.8-1.5l-1.3,38L603.8,1348.5z"/>
					<path id="Path_1551" class="st1" d="M602.6,1381.9l1-30.2l2.8-1.5l-1,30.2L602.6,1381.9z"/>
					<g id="Group_360" transform="translate(9.692 56.22)">
						<path id="Path_1552" class="st1" d="M577.8,1330.4l1.3-37.5l2.8-1.5l-1.3,37.5L577.8,1330.4z"/>
					</g>
					<path id="Path_1553" class="st1" d="M585.2,1387.8l-2.8,1.5l0.7-20.5l2.8-1.5L585.2,1387.8z"/>
					<path id="Path_1554" class="st1" d="M585,1313.7l0.3-7.4l2.8-1.5l-0.3,7.4L585,1313.7z"/>
					<g id="Group_361" transform="translate(30.132 44.497)">
						<path id="Path_1555" class="st1" d="M555.9,1319.8l-2.8,1.5l1.3-38.3l2.8-1.5L555.9,1319.8z"/>
						<path id="Path_1556" class="st1" d="M554.5,1279.9l0.3-7.5l2.8-1.5l-0.3,7.5L554.5,1279.9z"/>
					</g>
					<path id="Path_1557" class="st1" d="M578.4,1361.4l1.4-41.8l2.8-1.5l-1.4,41.8L578.4,1361.4z"/>
				</g>
			</g>
			<g id="Group_364" transform="translate(205.777 0)" class="st6">
				<path id="Path_1558" class="st1" d="M711.1,1405.5l2.3-63.3l2.5-1.3l-2.3,63.3L711.1,1405.5z"/>
				<path id="Path_1559" class="st1" d="M711,1343.5l-3.5,97.1l-2.5,1.3l3.5-97.1L711,1343.5z"/>
				<path id="Path_1560" class="st1" d="M712.4,1438l-2.5,1.3l1.1-29.6l2.5-1.3L712.4,1438z"/>
				<path id="Path_1561" class="st1" d="M701.7,1410.6l2.3-63.3l2.5-1.3l-2.3,63.3L701.7,1410.6z"/>
				<path id="Path_1562" class="st1" d="M701.6,1348.5l-3.5,97.1l-2.5,1.3l3.5-97.1L701.6,1348.5z"/>
				<path id="Path_1563" class="st1" d="M704,1413.5l-1.1,29.6l-2.5,1.3l1.1-29.6L704,1413.5z"/>
				<path id="Path_1564" class="st1" d="M686.1,1418.8l2.3-63.3l2.5-1.3l-2.3,63.3L686.1,1418.8z"/>
				<path id="Path_1565" class="st1" d="M686,1356.8l-3.5,97.1l-2.5,1.3l3.5-97.1L686,1356.8z"/>
				<path id="Path_1566" class="st1" d="M688.5,1421.7l-1.1,29.6l-2.5,1.3l1.1-29.6L688.5,1421.7z"/>
				<path id="Path_1567" class="st1" d="M676.7,1423.9l2.3-63.3l2.5-1.3l-2.3,63.3L676.7,1423.9z"/>
				<path id="Path_1568" class="st1" d="M676.6,1361.8l-3.5,97.1l-2.5,1.3l3.5-97.1L676.6,1361.8z"/>
				<path id="Path_1569" class="st1" d="M679,1426.8l-1.1,29.6l-2.5,1.3l1.1-29.6L679,1426.8z"/>
				<path id="Path_1570" class="st1" d="M661.1,1432.1l2.3-63.3l2.5-1.3l-2.3,63.3L661.1,1432.1z"/>
				<path id="Path_1571" class="st1" d="M661,1370.1l-3.5,97.1l-2.5,1.3l3.5-97.1L661,1370.1z"/>
				<path id="Path_1572" class="st1" d="M663.4,1435l-1.1,29.6l-2.5,1.3l1.1-29.6L663.4,1435z"/>
				<path id="Path_1573" class="st1" d="M651.6,1437.2l2.3-63.3l2.5-1.3l-2.3,63.3L651.6,1437.2z"/>
				<path id="Path_1574" class="st1" d="M654,1440.1l-1.1,29.6l-2.5,1.3l1.1-29.6L654,1440.1z"/>
			</g>
			<g id="Group_366" transform="translate(411.257 196.791)">
				<g id="Group_365">
					<path id="Path_1575" class="st7" d="M279.6,1129.3L279.6,1129.3L279.6,1129.3C279.7,1129.3,279.6,1129.3,279.6,1129.3z"/>
				</g>
			</g>
			<g id="Group_374" transform="translate(428.261 115.571)" class="st6">
				<g id="Group_373">
					<path id="Path_1576" class="st1" d="M279,1084.6l-2.8,1.5l0.5-15.3l2.8-1.5L279,1084.6z"/>
					<path id="Path_1577" class="st1" d="M273.9,1087.3l-2.8,1.5l0.5-15.3l2.8-1.5L273.9,1087.3z"/>
					<path id="Path_1578" class="st1" d="M268.9,1090l-2.8,1.5l0.5-15.3l2.8-1.5L268.9,1090z"/>
					<path id="Path_1579" class="st1" d="M260.8,1099.9l2.8-1.5l-3.2,94.2l-2.8,1.5L260.8,1099.9z"/>
					<path id="Path_1580" class="st1" d="M263.8,1092.7l-2.8,1.5l0.5-15.3l2.8-1.5L263.8,1092.7z"/>
					<path id="Path_1581" class="st1" d="M258.7,1095.4l-2.8,1.5l0.5-15.3l2.8-1.5L258.7,1095.4z"/>
					<path id="Path_1582" class="st1" d="M255.7,1102.6l2.8-1.5l-3.2,94.2l-2.8,1.5L255.7,1102.6z"/>
					<path id="Path_1583" class="st1" d="M243.5,1103.5l-2.8,1.5l0.5-15.3l2.8-1.5L243.5,1103.5z"/>
					<path id="Path_1584" class="st1" d="M238.4,1106.2l-2.8,1.5l0.5-15.3l2.8-1.5L238.4,1106.2z"/>
					<path id="Path_1585" class="st1" d="M218.1,1117l-2.8,1.5l0.5-15.3l2.8-1.5L218.1,1117z"/>
					<path id="Path_1586" class="st1" d="M213,1119.7l-2.8,1.5l0.5-15.3l2.8-1.5L213,1119.7z"/>
					<g id="Group_367" transform="translate(0 85.264)">
						<path id="Path_1587" class="st1" d="M208,1101l2-59.4l2.8-1.5l-2,59.4L208,1101z"/>
						<path id="Path_1588" class="st1" d="M209.5,1134.3l-2.8,1.5l1.1-31.6l2.8-1.5L209.5,1134.3z"/>
					</g>
					<g id="Group_368" transform="translate(0 79.512)">
						<path id="Path_1589" class="st1" d="M214.1,1074.5l1-29.9l2.8-1.5l-1,29.9L214.1,1074.5z"/>
						<path id="Path_1590" class="st1" d="M214.6,1137.4l-2.8,1.5l2.1-61.2l2.8-1.5L214.6,1137.4z"/>
					</g>
					<path id="Path_1591" class="st1" d="M229.9,1208.8l-2.8,1.5l0.3-8l2.8-1.5L229.9,1208.8z"/>
					<path id="Path_1592" class="st1" d="M234,1155.7l1.5-42.3l2.8-1.5l-1.5,42.3L234,1155.7z"/>
					<path id="Path_1593" class="st1" d="M275.2,1116.7l0.9-25l2.8-1.5l-0.9,25L275.2,1116.7z"/>
					<g id="Group_369" transform="translate(24.493 24.544)">
						<path id="Path_1594" class="st1" d="M249.3,1133.1l1.3-37.8l2.8-1.5l-1.3,37.8L249.3,1133.1z"/>
					</g>
					<path id="Path_1595" class="st1" d="M269.4,1138.3l0.9-26.6l2.8-1.5l-0.9,26.6L269.4,1138.3z"/>
					<g id="Group_370" transform="translate(0 39.748)">
						<path id="Path_1596" class="st1" d="M268.5,1126.5l0.9-24.8l2.8-1.5l-0.9,24.8L268.5,1126.5z"/>
						<path id="Path_1597" class="st1" d="M270.5,1147.4l-2.8,1.5l0.7-19.2l2.8-1.5L270.5,1147.4z"/>
					</g>
					<path id="Path_1598" class="st1" d="M267.8,1120.7l-2.8,1.5l0.7-20.1l2.8-1.5L267.8,1120.7z"/>
					<path id="Path_1599" class="st1" d="M262.9,1183.5l2-58.2l2.8-1.5l-2,58.2L262.9,1183.5z"/>
					<path id="Path_1600" class="st1" d="M248.8,1158.3l1.3-38l2.8-1.5l-1.3,38L248.8,1158.3z"/>
					<path id="Path_1601" class="st1" d="M247.7,1191.6l1-30.2l2.8-1.5l-1,30.2L247.7,1191.6z"/>
					<g id="Group_371" transform="translate(9.692 79.227)">
						<path id="Path_1602" class="st1" d="M222.9,1117.1l1.3-37.5l2.8-1.5l-1.3,37.5L222.9,1117.1z"/>
					</g>
					<path id="Path_1603" class="st1" d="M230.2,1197.6l-2.8,1.5l0.7-20.5l2.8-1.5L230.2,1197.6z"/>
					<path id="Path_1604" class="st1" d="M230.1,1123.4l0.3-7.4l2.8-1.5l-0.3,7.4L230.1,1123.4z"/>
					<g id="Group_372" transform="translate(30.132 67.504)">
						<path id="Path_1605" class="st1" d="M200.9,1106.5l-2.8,1.5l1.3-38.3l2.8-1.5L200.9,1106.5z"/>
						<path id="Path_1606" class="st1" d="M199.6,1066.6l0.3-7.5l2.8-1.5l-0.3,7.5L199.6,1066.6z"/>
					</g>
					<path id="Path_1607" class="st1" d="M223.4,1171.1l1.4-41.8l2.8-1.5l-1.4,41.8L223.4,1171.1z"/>
				</g>
			</g>
			<path id="Path_1608" class="st8" d="M853.2,1558.2l-43.1,22.9c-0.5,0.3-1,0.4-1.6,0.4c-1.7-0.1-3-1.5-3-3.2l1.7-47.3
				c0.1-2.4,1.4-4.5,3.5-5.7l43.3-23c0.5-0.2,1-0.4,1.5-0.4c1.7,0.1,3,1.4,2.9,3.1l-1.6,47.3C856.7,1554.8,855.4,1557,853.2,1558.2z
				"/>
			<path id="Path_1683" class="st8" d="M864,1319.8l-43.1,22.9c-0.5,0.3-1,0.4-1.6,0.4c-1.7-0.1-3-1.5-3-3.2l1.7-47.3
				c0.1-2.4,1.4-4.5,3.5-5.7l43.3-23c0.5-0.2,1-0.4,1.5-0.4c1.7,0.1,3,1.4,2.9,3.1l-1.6,47.3C867.6,1316.4,866.2,1318.6,864,1319.8z
				"/>
			<path id="Path_1609" class="st8" d="M963.1,1563.1L920,1586c-0.5,0.3-1,0.4-1.6,0.4c-1.7-0.1-3-1.5-3-3.2l1.7-47.3
				c0.1-2.4,1.4-4.5,3.5-5.7l43.3-23c0.5-0.2,1-0.4,1.5-0.4c1.7,0.1,3,1.4,2.9,3.1l-1.6,47.3
				C966.7,1559.7,965.3,1561.9,963.1,1563.1z"/>
			<path id="Path_1610" class="st8" d="M735.2,1423.6l-43.1,22.9c-0.5,0.3-1,0.4-1.6,0.4c-1.7-0.1-3-1.5-3-3.2l1.7-47.3
				c0.1-2.4,1.4-4.5,3.5-5.7l43.3-23c0.5-0.2,1-0.4,1.5-0.4c1.7,0.1,3,1.4,2.9,3.1l-1.6,47.3
				C738.8,1420.3,737.4,1422.5,735.2,1423.6z"/>
			<g id="Group_377" transform="translate(436.567 214.398)">
				<g id="Group_376">
					<path id="Path_1612" class="st9" d="M221.1,1100.8"/>
				</g>
			</g>
			<g id="Group_378" transform="translate(38.091 458.119)">
				<path id="Path_1613" class="st1" d="M597.3,1320.2"/>
			</g>
			<g id="Group_380" transform="translate(51.215 390.213)">
				<g id="Group_379">
					<path id="Path_1614" class="st7" d="M637.9,1344.6L637.9,1344.6L637.9,1344.6C637.9,1344.6,637.9,1344.6,637.9,1344.6z"/>
				</g>
			</g>
			<g id="Group_382" transform="translate(169.374 261.739)">
				<g id="Group_381">
					<path id="Path_1615" class="st7" d="M577.7,1308.4L577.7,1308.4L577.7,1308.4C577.7,1308.5,577.7,1308.4,577.7,1308.4z"/>
				</g>
			</g>
			<g id="Group_384" transform="translate(287.012 136.268)">
				<g id="Group_383">
					<path id="Path_1616" class="st7" d="M515.6,1271.1L515.6,1271.1L515.6,1271.1C515.7,1271.1,515.6,1271.1,515.6,1271.1z"/>
				</g>
			</g>
			<g id="Group_394" transform="translate(124.263 261.825)" class="st6">
				<g id="Group_393">
					<path id="Path_1621" class="st1" d="M596.6,1275.4l-2.8,1.5l0.5-15.3l2.8-1.5L596.6,1275.4z"/>
					<path id="Path_1622" class="st1" d="M591.5,1278.1l-2.8,1.5l0.5-15.3l2.8-1.5L591.5,1278.1z"/>
					<path id="Path_1623" class="st1" d="M586.4,1280.8l-2.8,1.5l0.5-15.3l2.8-1.5L586.4,1280.8z"/>
					<path id="Path_1624" class="st1" d="M578.4,1290.7l2.8-1.5l-3.2,94.2l-2.8,1.5L578.4,1290.7z"/>
					<path id="Path_1625" class="st1" d="M581.4,1283.5l-2.8,1.5l0.5-15.3l2.8-1.5L581.4,1283.5z"/>
					<path id="Path_1626" class="st1" d="M576.3,1286.2l-2.8,1.5l0.5-15.3l2.8-1.5L576.3,1286.2z"/>
					<path id="Path_1627" class="st1" d="M573.3,1293.4l2.8-1.5l-3.2,94.2l-2.8,1.5L573.3,1293.4z"/>
					<path id="Path_1628" class="st1" d="M561.1,1294.3l-2.8,1.5l0.5-15.3l2.8-1.5L561.1,1294.3z"/>
					<path id="Path_1629" class="st1" d="M556,1297l-2.8,1.5l0.5-15.3l2.8-1.5L556,1297z"/>
					<path id="Path_1630" class="st1" d="M535.7,1307.8l-2.8,1.5l0.5-15.3l2.8-1.5L535.7,1307.8z"/>
					<path id="Path_1631" class="st1" d="M530.6,1310.5l-2.8,1.5l0.5-15.3l2.8-1.5L530.6,1310.5z"/>
					<g id="Group_387" transform="translate(0 85.263)">
						<path id="Path_1632" class="st1" d="M525.6,1291.8l2-59.4l2.8-1.5l-2,59.4L525.6,1291.8z"/>
						<path id="Path_1633" class="st1" d="M527.1,1325.1l-2.8,1.5l1.1-31.6l2.8-1.5L527.1,1325.1z"/>
					</g>
					<g id="Group_388" transform="translate(0 79.511)">
						<path id="Path_1634" class="st1" d="M531.6,1265.3l1-29.9l2.8-1.5l-1,29.9L531.6,1265.3z"/>
						<path id="Path_1635" class="st1" d="M532.2,1328.2l-2.8,1.5l2.1-61.2l2.8-1.5L532.2,1328.2z"/>
					</g>
					<path id="Path_1636" class="st1" d="M547.4,1399.6l-2.8,1.5l0.3-8l2.8-1.5L547.4,1399.6z"/>
					<path id="Path_1637" class="st1" d="M551.5,1346.5l1.5-42.3l2.8-1.5l-1.5,42.3L551.5,1346.5z"/>
					<path id="Path_1638" class="st1" d="M592.8,1307.6l0.9-25l2.8-1.5l-0.9,25L592.8,1307.6z"/>
					<g id="Group_389" transform="translate(24.493 24.544)">
						<path id="Path_1639" class="st1" d="M566.9,1324l1.3-37.8l2.8-1.5l-1.3,37.8L566.9,1324z"/>
					</g>
					<path id="Path_1640" class="st1" d="M587,1329.2l0.9-26.6l2.8-1.5l-0.9,26.6L587,1329.2z"/>
					<g id="Group_390" transform="translate(0 39.748)">
						<path id="Path_1641" class="st1" d="M586.1,1317.3l0.9-24.8l2.8-1.5l-0.9,24.8L586.1,1317.3z"/>
						<path id="Path_1642" class="st1" d="M588.1,1338.2l-2.8,1.5l0.7-19.2l2.8-1.5L588.1,1338.2z"/>
					</g>
					<path id="Path_1643" class="st1" d="M585.4,1311.5l-2.8,1.5l0.7-20.1l2.8-1.5L585.4,1311.5z"/>
					<path id="Path_1644" class="st1" d="M580.5,1374.3l2-58.2l2.8-1.5l-2,58.2L580.5,1374.3z"/>
					<path id="Path_1645" class="st1" d="M566.4,1349.1l1.3-38l2.8-1.5l-1.3,38L566.4,1349.1z"/>
					<path id="Path_1646" class="st1" d="M565.2,1382.4l1-30.2l2.8-1.5l-1,30.2L565.2,1382.4z"/>
					<g id="Group_391" transform="translate(9.692 79.227)">
						<path id="Path_1647" class="st1" d="M540.4,1308l1.3-37.5l2.8-1.5l-1.3,37.5L540.4,1308z"/>
					</g>
					<path id="Path_1648" class="st1" d="M547.8,1388.4l-2.8,1.5l0.7-20.5l2.8-1.5L547.8,1388.4z"/>
					<path id="Path_1649" class="st1" d="M547.7,1314.2l0.3-7.4l2.8-1.5l-0.3,7.4L547.7,1314.2z"/>
					<g id="Group_392" transform="translate(30.132 67.504)">
						<path id="Path_1650" class="st1" d="M518.5,1297.3l-2.8,1.5l1.3-38.3l2.8-1.5L518.5,1297.3z"/>
						<path id="Path_1651" class="st1" d="M517.2,1257.4l0.3-7.5l2.8-1.5l-0.3,7.5L517.2,1257.4z"/>
					</g>
					<path id="Path_1652" class="st1" d="M541,1361.9l1.4-41.8l2.8-1.5l-1.4,41.8L541,1361.9z"/>
				</g>
			</g>
			<g id="Group_402" transform="translate(0 140.62)" class="st6">
				<g id="Group_401" transform="translate(0)">
					<path id="Path_1653" class="st1" d="M886.2,1449.4l-2.8,1.5l0.5-15.3l2.8-1.5L886.2,1449.4z"/>
					<path id="Path_1654" class="st1" d="M881.1,1452.1l-2.8,1.5l0.5-15.3l2.8-1.5L881.1,1452.1z"/>
					<path id="Path_1655" class="st1" d="M876.1,1454.8l-2.8,1.5l0.5-15.3l2.8-1.5L876.1,1454.8z"/>
					<path id="Path_1656" class="st1" d="M868,1464.7l2.8-1.5l-3.2,94.2l-2.8,1.5L868,1464.7z"/>
					<path id="Path_1657" class="st1" d="M871,1457.5l-2.8,1.5l0.5-15.3l2.8-1.5L871,1457.5z"/>
					<path id="Path_1658" class="st1" d="M865.9,1460.2l-2.8,1.5l0.5-15.3l2.8-1.5L865.9,1460.2z"/>
					<path id="Path_1659" class="st1" d="M862.9,1467.4l2.8-1.5l-3.2,94.2l-2.8,1.5L862.9,1467.4z"/>
					<path id="Path_1660" class="st1" d="M850.7,1468.3l-2.8,1.5l0.5-15.3l2.8-1.5L850.7,1468.3z"/>
					<path id="Path_1661" class="st1" d="M845.6,1471l-2.8,1.5l0.5-15.3l2.8-1.5L845.6,1471z"/>
					<path id="Path_1662" class="st1" d="M825.3,1481.8l-2.8,1.5l0.5-15.3l2.8-1.5L825.3,1481.8z"/>
					<path id="Path_1663" class="st1" d="M820.2,1484.5l-2.8,1.5l0.5-15.3l2.8-1.5L820.2,1484.5z"/>
					<g id="Group_395" transform="translate(30.132 85.264)">
						<path id="Path_1664" class="st1" d="M785,1465.9l2-59.4l2.8-1.5l-2,59.4L785,1465.9z"/>
					</g>
					<g id="Group_396" transform="translate(55.757 79.512)">
						<path id="Path_1665" class="st1" d="M765.5,1439.3l1-29.9l2.8-1.5l-1,29.9L765.5,1439.3z"/>
					</g>
					<path id="Path_1666" class="st1" d="M837.1,1573.6l-2.8,1.5l0.3-8.1l2.8-1.5L837.1,1573.6z"/>
					<path id="Path_1667" class="st1" d="M841.2,1520.5l1.5-42.3l2.8-1.5l-1.5,42.3L841.2,1520.5z"/>
					<path id="Path_1668" class="st1" d="M882.4,1481.6l0.9-25l2.8-1.5l-0.9,25L882.4,1481.6z"/>
					<g id="Group_397" transform="translate(24.493 24.544)">
						<path id="Path_1669" class="st1" d="M856.5,1498l1.3-37.8l2.8-1.5l-1.3,37.8L856.5,1498z"/>
					</g>
					<path id="Path_1670" class="st1" d="M876.6,1503.2l0.9-26.6l2.8-1.5l-0.9,26.6L876.6,1503.2z"/>
					<g id="Group_398" transform="translate(0 39.748)">
						<path id="Path_1671" class="st1" d="M875.7,1491.4l0.9-24.8l2.8-1.5l-0.9,24.8L875.7,1491.4z"/>
						<path id="Path_1672" class="st1" d="M877.7,1512.3l-2.8,1.5l0.7-19.2l2.8-1.5L877.7,1512.3z"/>
					</g>
					<path id="Path_1673" class="st1" d="M875,1485.5l-2.8,1.5l0.7-20.1l2.8-1.5L875,1485.5z"/>
					<path id="Path_1674" class="st1" d="M870.1,1548.3l2-58.2l2.8-1.5l-2,58.2L870.1,1548.3z"/>
					<path id="Path_1675" class="st1" d="M856,1523.1l1.3-38l2.8-1.5l-1.3,38L856,1523.1z"/>
					<path id="Path_1676" class="st1" d="M854.9,1556.4l1-30.2l2.8-1.5l-1,30.2L854.9,1556.4z"/>
					<g id="Group_399" transform="translate(9.692 79.227)">
						<path id="Path_1677" class="st1" d="M830.1,1482l1.3-37.5l2.8-1.5l-1.3,37.5L830.1,1482z"/>
					</g>
					<path id="Path_1678" class="st1" d="M837.4,1562.4l-2.8,1.5l0.7-20.4l2.8-1.5L837.4,1562.4z"/>
					<path id="Path_1679" class="st1" d="M837.3,1488.3l0.3-7.4l2.8-1.5l-0.3,7.4L837.3,1488.3z"/>
					<g id="Group_400" transform="translate(30.132 67.504)">
						<path id="Path_1680" class="st1" d="M808.1,1471.3l-2.8,1.5l1.3-38.3l2.8-1.5L808.1,1471.3z"/>
						<path id="Path_1681" class="st1" d="M806.8,1431.4l0.3-7.5l2.8-1.5l-0.3,7.5L806.8,1431.4z"/>
					</g>
					<path id="Path_1682" class="st1" d="M830.6,1535.9l1.4-41.8l2.8-1.5l-1.4,41.8L830.6,1535.9z"/>
				</g>
			</g>
		</g>
		<g id="gear" transform="matrix(-0.946, 0.326, -0.326, -0.946, 1765.169, 146.028)" class="st10">
			<g id="Group_118">
				<g id="Group_117">
					<path id="Path_501" class="st1" d="M424,1062.7c-2.2,5.1-3.7,10.6-4.5,16.1L402,1084l3,24.5l18.3,0.8
						c2.1,5.2,4.8,10.1,8.2,14.6l-8.7,16.1l19.5,15.2l13.5-12.4c5.2,2.2,10.6,3.7,16.2,4.5l5.2,17.6l24.5-3l0.8-18.3
						c5.2-2.1,10.1-4.8,14.6-8.2l16.1,8.7l15.2-19.4l-12.4-13.5c2.2-5.2,3.7-10.6,4.5-16.2l17.6-5.2l-3-24.5l-18.3-0.8
						c-2.1-5.2-4.8-10.1-8.2-14.6l8.7-16.1l-19.5-15.2l-13.5,12.4c-5.2-2.2-10.6-3.7-16.2-4.5l-5.2-17.6l-24.5,3l-0.8,18.3
						c-5.2,2.1-10.1,4.8-14.6,8.2l-16.1-8.7l-15.2,19.4L424,1062.7z M431.7,1061.5l-11.6-12.6l8.5-10.9l15.1,8.2l1.7-1.4
						c4.9-4,10.4-7.2,16.4-9.3l2-0.7l0.7-17.1l13.7-1.7l4.9,16.5l2.2,0.2c6.3,0.6,12.5,2.3,18.2,5l2,0.9L518,1027l10.9,8.5l-8.2,15
						l1.4,1.7c4,4.9,7.2,10.4,9.3,16.4l0.7,2l17.1,0.7l1.7,13.7l-16.5,4.9l-0.2,2.2c-0.6,6.3-2.3,12.5-5,18.2l-0.9,2l11.6,12.6
						l-8.5,10.9l-15.1-8.2l-1.7,1.4c-4.9,4-10.4,7.2-16.4,9.3l-2,0.7l-0.7,17.1l-13.7,1.7l-4.9-16.5l-2.2-0.2
						c-6.3-0.6-12.5-2.3-18.2-5l-2-0.9l-12.6,11.6l-10.9-8.5l8.2-15l-1.4-1.7c-4-4.9-7.2-10.4-9.3-16.4l-0.7-2l-17.1-0.7l-1.7-13.7
						l16.5-4.9l0.2-2.2c0.6-6.3,2.3-12.5,5-18.2L431.7,1061.5z"/>
				</g>
			</g>
			<g id="Group_120" transform="translate(44.929 44.929)">
				<g id="Group_119">
					<path id="Path_502" class="st1" d="M409.7,1022.2c-10.9,14-8.5,34.1,5.5,45s34.1,8.5,45-5.5s8.5-34.1-5.5-45
						C440.8,1005.8,420.7,1008.3,409.7,1022.2z M414.8,1026.2L414.8,1026.2c8.7-11.2,24.9-13.1,36-4.4c11.2,8.7,13.1,24.9,4.4,36
						c-8.7,11.2-24.9,13.1-36,4.4C408.1,1053.5,406.1,1037.3,414.8,1026.2z"/>
				</g>
			</g>
		</g>
		<g id="gear-2" transform="matrix(-0.695, 0.719, -0.719, -0.695, 1880.811, 103.169)" class="st10">
			<g id="Group_118-2">
				<g id="Group_117-2">
					<path id="Path_501-2" class="st1" d="M130.8,1283.8c-4.2,0.9-8.3,2.5-12.1,4.5l-11.2-8.6l-13.9,12.9l7.8,11.7
						c-2.3,3.6-4.1,7.6-5.3,11.7l-13.9,1.8l-0.6,19l13.8,2.8c0.9,4.2,2.5,8.3,4.5,12.1l-8.6,11.2l12.9,13.9l11.7-7.8
						c3.6,2.3,7.6,4.1,11.7,5.3l1.8,13.9l19,0.6l2.8-13.8c4.2-0.9,8.3-2.5,12.1-4.5l11.2,8.6l13.9-12.9l-7.8-11.7
						c2.3-3.6,4.1-7.6,5.3-11.7l13.9-1.8l0.6-19l-13.8-2.8c-0.9-4.2-2.5-8.3-4.5-12.1l8.6-11.2l-12.9-13.9l-11.7,7.8
						c-3.6-2.3-7.6-4.1-11.7-5.3l-1.8-13.9l-19-0.6L130.8,1283.8z M135,1288l2.6-12.9l10.6,0.4l1.7,13.1l1.6,0.4
						c4.7,1.2,9.2,3.2,13.2,6l1.4,0.9l11-7.3l7.2,7.8l-8,10.5l0.8,1.4c2.5,4.2,4.2,8.8,5.1,13.6l0.3,1.6l12.9,2.6l-0.4,10.6
						l-13.1,1.7l-0.4,1.6c-1.2,4.7-3.2,9.2-6,13.2l-0.9,1.4l7.3,11l-7.8,7.2l-10.5-8l-1.4,0.8c-4.2,2.5-8.8,4.2-13.6,5.1l-1.6,0.3
						l-2.6,12.9l-10.6-0.4l-1.7-13.1l-1.6-0.4c-4.7-1.2-9.2-3.2-13.2-6l-1.4-0.9l-11,7.3l-7.2-7.8l8-10.5l-0.8-1.4
						c-2.5-4.2-4.2-8.8-5.1-13.5l-0.3-1.6l-12.9-2.6l0.4-10.6l13.1-1.7l0.4-1.6c1.2-4.7,3.2-9.2,6-13.2l0.9-1.4l-7.3-11l7.8-7.2
						l10.5,8l1.4-0.8c4.2-2.5,8.8-4.2,13.6-5.1L135,1288z"/>
				</g>
			</g>
			<g id="Group_120-2" transform="translate(34.511 34.511)">
				<g id="Group_119-2">
					<path id="Path_502-2" class="st1" d="M107.4,1270.4C107.4,1270.4,107.4,1270.4,107.4,1270.4c-13.6-0.5-25,10.2-25.5,23.8
						s10.2,25,23.8,25.5s25-10.2,25.5-23.8C131.6,1282.2,121,1270.8,107.4,1270.4z M107.2,1275.3L107.2,1275.3
						c10.9,0.4,19.4,9.5,19,20.4c-0.4,10.9-9.5,19.4-20.4,19s-19.4-9.5-19-20.4C87.2,1283.5,96.4,1274.9,107.2,1275.3z"/>
				</g>
			</g>
		</g>
		<path id="microchip" class="st8" d="M2595.7-297.2l-5.5-6.5l6.3-5.3c0.3,0.1,0.6,0.1,0.9,0.1c1.8-0.1,3.2-1.6,3.1-3.5
			c-0.1-1.8-1.6-3.2-3.5-3.1s-3.2,1.6-3.1,3.5l-6.3,5.3l-22.8-27.2l1-11.6l36.8-30.8l7.3,8.7l-14.8,12.5l-4.3-0.1
			c0-0.1-0.1-0.1-0.1-0.2c-0.1-0.2-0.3-0.3-0.5-0.5c-1.4-1.1-3.5-0.9-4.6,0.6s-0.9,3.5,0.6,4.6c1.4,1.1,3.5,0.9,4.6-0.6l5.8,0.1
			l16-13.4l5.8,7l-10.1,8.5l-0.7,7.8c-0.3,0.2-0.5,0.4-0.7,0.6c-1.2,1.4-1.1,3.5,0.3,4.7c1.4,1.2,3.5,1.1,4.7-0.3
			c1.2-1.4,1.1-3.5-0.3-4.7l0.5-6.1l8.8-7.4l17.9,21.4l-7.9,6.7l-6.3-7.5c0.1-0.3,0.1-0.6,0.1-0.9c-0.1-1.8-1.6-3.2-3.5-3.1
			c-1.8,0.1-3.2,1.6-3.1,3.5s1.6,3.2,3.5,3.1l6.3,7.5l-9.1,7.6l-5.4-6.4l-22.1-1.9l-6-7.2c0.1-0.3,0.1-0.6,0.1-0.9
			c-0.1-1.8-1.6-3.2-3.5-3.1s-3.2,1.6-3.1,3.5s1.6,3.2,3.5,3.1l7.1,8.4l22.1,1.9l4.3,5.1L2595.7-297.2L2595.7-297.2z"/>
		<g id="gear-3" transform="matrix(-0.946, 0.326, -0.326, -0.946, 1813.592, 576.384)" class="st10">
			<g id="Group_118-3">
				<g id="Group_117-3">
					<path id="Path_501-3" class="st1" d="M448.9,1089.7c-3.1,7.2-5.3,14.9-6.3,22.7l-24.7,7.3l4.2,34.5l25.7,1.1
						c2.9,7.4,6.8,14.3,11.6,20.5l-12.3,22.6l27.3,21.4l19-17.4c7.2,3.1,14.9,5.3,22.7,6.3l7.3,24.7l34.5-4.2l1.1-25.7
						c7.4-2.9,14.3-6.8,20.5-11.6l22.6,12.3l21.4-27.3l-17.4-19c3.1-7.2,5.3-14.9,6.3-22.7l24.7-7.3l-4.2-34.5l-25.7-1.1
						c-2.9-7.3-6.8-14.3-11.6-20.5l12.3-22.6l-27.3-21.4l-18.9,17.4c-7.2-3.1-14.9-5.3-22.7-6.3l-7.3-24.7l-34.5,4.2l-1.1,25.7
						c-7.4,2.9-14.3,6.8-20.5,11.6l-22.6-12.3l-21.4,27.3L448.9,1089.7z M459.7,1088.1l-16.3-17.8l12-15.3l21.2,11.5l2.4-1.9
						c6.9-5.7,14.7-10.1,23.1-13l2.9-1l1.1-24.1l19.3-2.4l6.8,23.1l3,0.3c8.9,0.8,17.5,3.2,25.5,7.1l2.7,1.3l17.8-16.3l15.3,12
						l-11.5,21.2l1.9,2.4c5.7,6.9,10.1,14.7,13,23.1l1,2.9l24.1,1l2.4,19.3l-23.1,6.8l-0.3,3c-0.8,8.9-3.2,17.5-7.1,25.5l-1.3,2.7
						l16.3,17.8l-12,15.3l-21.2-11.5l-2.4,1.9c-6.9,5.7-14.7,10.1-23.1,13l-2.9,1l-1,24.1l-19.3,2.4l-6.8-23.1l-3-0.3
						c-8.9-0.8-17.5-3.2-25.5-7.1l-2.7-1.3l-17.8,16.3l-15.3-12l11.5-21.2l-1.9-2.4c-5.7-6.9-10.1-14.7-13-23.1l-1-2.9l-24.1-1
						l-2.4-19.3l23.1-6.8l0.3-3c0.8-8.9,3.2-17.5,7.1-25.5L459.7,1088.1z"/>
				</g>
			</g>
			<g id="Group_120-3" transform="translate(63.168 63.168)">
				<g id="Group_119-3">
					<path id="Path_502-3" class="st1" d="M428.9,1032.8L428.9,1032.8c-15.4,19.6-11.9,48,7.7,63.3c19.6,15.4,48,11.9,63.3-7.7
						s11.9-48-7.7-63.3C472.6,1009.8,444.2,1013.2,428.9,1032.8z M436,1038.4c12.3-15.7,35-18.5,50.7-6.2
						c15.7,12.3,18.5,35,6.2,50.7c-12.3,15.7-35,18.5-50.7,6.2C426.5,1076.8,423.7,1054.1,436,1038.4z"/>
				</g>
			</g>
		</g>
		<g id="Group_406" transform="translate(24.481 -583.893)">
			<g id="Group_348" transform="translate(0)">
				<g id="Group_278">
					<g id="Group_276">
						<g id="Group_275">
							<path id="Path_1239" class="st11" d="M2575-710.5l0,185.6c0,4-2.1,7.8-5.5,9.9v0l-0.2,0.1l-0.2,0.1l-36.2,21.3l-23.5-32.9
								l-1.2-6.4l-115.2-66.6c-7.9-4.5-12.7-12.9-12.7-22v-152.5l-5.9-6.7l-15.7-21.3l33.8-19.5l0,0c5.3-3.2,10.7-3.3,15.4-0.6
								l153.9,88.8C2570-728.6,2575-719.9,2575-710.5z"/>
							<path id="Path_1240" class="st12" d="M2539.1-689.4v185.6c0,2.1-0.5,4.1-1.6,5.8c-3.2,5.6-10.4,7.5-16,4.3l-155.7-90
								c-7.9-4.5-12.7-12.9-12.7-22v-186.4c0-2,0.5-4,1.5-5.7c3.1-5.5,10.1-7.3,15.6-4.2l155.7,89.9
								C2534.1-707.4,2539.1-698.8,2539.1-689.4z"/>
						</g>
					</g>
					<g id="Group_277" transform="translate(0 104.858)">
						<path id="Path_1241" class="st7" d="M2532.9-598.4L2532.9-598.4l0.2-0.1C2533.1-598.4,2533-598.4,2532.9-598.4z"/>
						<path id="Path_1242" class="st13" d="M2533.2-598.5l35.9-21.1l0.2-0.1l0.2-0.1v0c3.4-2.1,5.5-5.9,5.5-9.9l0-185.6
							c-0.1-2.9-0.6-5.8-1.6-8.6l-36.1,20.8c1.1,2.9,1.7,5.9,1.8,9v185.6C2539.1-604.5,2536.9-600.6,2533.2-598.5z"/>
					</g>
				</g>
				<g id="Group_293" transform="translate(55.74 134.128)">
					<path id="Path_1261" class="st1" d="M2317.1-824l48.4,0.2l0,13.4l-33.3-1.5l33.2,35l0,13.3l-48.2-52.4L2317.1-824z"/>
					<path id="Path_1262" class="st1" d="M2397.1-815.8l13.5,7.8l-26.8,66.5l-13.5-7.8L2397.1-815.8z"/>
					<path id="Path_1263" class="st1" d="M2463.6-739.5l0,8l-48.4-3.4l0-13.3l33.4,3.5l-33.3-37l0-13.4L2463.6-739.5z"/>
				</g>
			</g>
		</g>
		<g id="binaryTree" transform="translate(1845.527 184.41) rotate(22)" class="st14">
			<path id="Path_518" class="st1" d="M-1319-154.3c-4.5,4.6-5.6,11.4-2.9,17.2c3.6,7.6,12.7,10.9,20.3,7.3
				c7.6-3.6,10.9-12.7,7.3-20.3c-3.6-7.6-12.7-10.9-20.3-7.3l-9.6-43.2l41.7,10.8c-2.5,5.7-1.3,12.4,3,16.9
				c5.9,6.1,15.6,6.2,21.7,0.3s6.2-15.6,0.3-21.7c-5.9-6.1-15.6-6.2-21.7-0.3c-0.1,0.1-0.2,0.3-0.4,0.4l-42.1-10.9
				c1.1-2,1.7-4.3,1.8-6.6c0.3-8.4-6.2-15.4-14.6-15.7l-10.5-52.3c5.2-1,9.4-4.8,11.1-9.7l48,11.4c-1,3.5-0.7,7.2,0.8,10.5
				c3.5,7.6,12.6,10.9,20.2,7.4l9.7,43.9c-4.5,4.5-5.6,11.4-2.9,17.2c3.6,7.6,12.7,10.9,20.3,7.3c7.6-3.6,10.9-12.7,7.3-20.3
				c-3.6-7.6-12.7-10.9-20.3-7.3l-9.6-43.2l41.7,10.8c-2.5,5.7-1.3,12.5,3,17c5.9,6.1,15.7,6.2,21.7,0.3c6.1-5.9,6.2-15.7,0.3-21.7
				c-5.9-6.1-15.7-6.2-21.7-0.3c-0.1,0.1-0.2,0.3-0.4,0.4l-42.1-10.9c3.1-5.8,2.1-13-2.5-17.8c-5.9-6-15.5-6.2-21.6-0.3
				c-0.7,0.7-1.4,1.5-2,2.4l-49.1-11.7c0.2-7.9-5.6-14.6-13.4-15.5c-8.4-1-16,5-17,13.3c-1,8.4,5,16,13.3,17l10.6,52.7
				c-2.4,0.7-4.6,1.9-6.3,3.6c-4.7,4.5-6,11.5-3.3,17.4c3.5,7.7,12.6,11,20.3,7.5L-1319-154.3L-1319-154.3z M-1211.7-252.9
				C-1211.7-252.9-1211.7-252.9-1211.7-252.9c4.1-4,10.7-3.9,14.7,0.3c4,4.1,3.9,10.7-0.3,14.7s-10.7,3.9-14.7-0.3
				C-1216-242.4-1215.8-248.9-1211.7-252.9z M-1251.5-198.3c-4-4.1-3.9-10.7,0.3-14.6c0,0,0,0,0,0c4.1-4,10.7-3.9,14.6,0.3
				c4,4.1,3.9,10.7-0.3,14.6C-1241-194.1-1247.6-194.2-1251.5-198.3L-1251.5-198.3z M-1278.6-266.8c-4-4.1-3.9-10.7,0.3-14.6
				c4.1-4,10.7-3.9,14.6,0.3s3.9,10.7-0.3,14.6C-1268-262.5-1274.6-262.7-1278.6-266.8z M-1276-176.4c-4-4.1-3.9-10.7,0.3-14.6
				c4.1-4,10.7-3.9,14.6,0.3c4,4.1,3.9,10.7-0.3,14.6S-1272-172.3-1276-176.4L-1276-176.4z M-1341-287.1
				C-1341-287.1-1341-287.1-1341-287.1c-4.1,4-10.7,3.9-14.7-0.2c-4-4.1-3.9-10.7,0.3-14.6c4.1-4,10.7-3.9,14.6,0.3
				C-1336.8-297.6-1336.9-291.1-1341-287.1z M-1327.9-204.7c-4.1,4-10.7,3.9-14.6-0.2c-4-4.1-3.9-10.7,0.2-14.6
				c4.1-4,10.7-3.9,14.6,0.2C-1323.7-215.2-1323.8-208.7-1327.9-204.7z M-1300.9-136.2c-4.1,4-10.7,3.8-14.6-0.3c0,0,0,0,0,0
				c-4-4.1-3.9-10.7,0.3-14.6c4.1-4,10.7-3.9,14.6,0.3C-1296.7-146.8-1296.8-140.2-1300.9-136.2L-1300.9-136.2z"/>
		</g>
		<g id="gear-4" transform="matrix(-0.946, 0.326, -0.326, -0.946, 1782.536, 1273.919)" class="st10">
			<g id="Group_118-4">
				<g id="Group_117-4">
					<path id="Path_501-4" class="st1" d="M456.9,1074c-2.2,5.1-3.7,10.6-4.5,16.1l-17.6,5.2l3,24.5l18.3,0.8
						c2.1,5.2,4.8,10.1,8.2,14.6l-8.7,16.1l19.5,15.2l13.5-12.4c5.2,2.2,10.6,3.7,16.2,4.5l5.2,17.6l24.5-3l0.8-18.3
						c5.2-2.1,10.1-4.8,14.6-8.2l16.1,8.7l15.2-19.4l-12.4-13.5c2.2-5.2,3.7-10.6,4.5-16.2l17.6-5.2l-3-24.5l-18.3-0.8
						c-2.1-5.2-4.8-10.1-8.2-14.6l8.7-16.1l-19.5-15.2l-13.5,12.4c-5.2-2.2-10.6-3.7-16.2-4.5l-5.2-17.6l-24.5,3l-0.8,18.3
						c-5.2,2.1-10.1,4.8-14.6,8.2l-16.1-8.7l-15.2,19.4L456.9,1074z M464.5,1072.8l-11.6-12.6l8.5-10.9l15.1,8.2l1.7-1.4
						c4.9-4,10.4-7.2,16.4-9.3l2-0.7l0.7-17.1l13.7-1.7l4.9,16.5l2.2,0.2c6.3,0.6,12.5,2.3,18.2,5l2,0.9l12.6-11.6l10.9,8.5l-8.2,15
						l1.4,1.7c4,4.9,7.2,10.4,9.3,16.4l0.7,2l17.1,0.7l1.7,13.7l-16.5,4.9l-0.2,2.2c-0.6,6.3-2.3,12.5-5,18.2l-0.9,2l11.6,12.6
						l-8.5,10.9l-15.1-8.2l-1.7,1.4c-4.9,4-10.4,7.2-16.4,9.3l-2,0.7l-0.7,17.1l-13.7,1.7l-4.9-16.5l-2.2-0.2
						c-6.3-0.6-12.5-2.3-18.2-5l-2-0.9l-12.6,11.6l-10.9-8.5l8.2-15l-1.4-1.7c-4-4.9-7.2-10.4-9.3-16.4l-0.7-2l-17.1-0.7l-1.7-13.7
						l16.5-4.9l0.2-2.2c0.6-6.3,2.3-12.5,5-18.2L464.5,1072.8z"/>
				</g>
			</g>
			<g id="Group_120-4" transform="translate(44.929 44.929)">
				<g id="Group_119-4">
					<path id="Path_502-4" class="st1" d="M442.6,1033.5c-10.9,14-8.5,34.1,5.5,45c14,10.9,34.1,8.5,45-5.5c10.9-14,8.5-34.1-5.5-45
						C473.6,1017.1,453.5,1019.6,442.6,1033.5z M447.6,1037.5L447.6,1037.5c8.7-11.2,24.9-13.1,36-4.4c11.2,8.7,13.1,24.9,4.4,36
						c-8.7,11.2-24.9,13.1-36,4.4C440.9,1064.8,438.9,1048.6,447.6,1037.5z"/>
				</g>
			</g>
		</g>
		<g id="binaryTree-2" transform="translate(1315.195 2054.728) rotate(40)" class="st14">
			<path id="Path_518-2" class="st1" d="M-428.2-444.9c-0.9,6.3,2.2,12.5,7.8,15.6c7.4,4,16.7,1.3,20.7-6c4-7.4,1.3-16.7-6-20.7
				c-7.4-4-16.7-1.3-20.7,6l-33.1-29.3l40.1-15.8c1.3,6.1,6.2,10.9,12.4,11.9c8.4,1.4,16.3-4.2,17.8-12.5s-4.2-16.3-12.5-17.8
				c-8.4-1.4-16.3,4.2-17.8,12.5c0,0.2,0,0.4,0,0.6l-40.4,15.9c-0.3-2.3-1.2-4.5-2.4-6.4c-4.7-7-14.1-8.8-21.1-4.1l-39.2-36.1
				c3.6-3.9,4.8-9.4,3.3-14.4l45.6-19c1.3,3.4,3.7,6.3,6.9,8c7.3,4.1,16.6,1.4,20.7-5.9l33.7,29.8c-0.9,6.3,2.1,12.5,7.7,15.6
				c7.4,4.1,16.6,1.4,20.7-6s1.4-16.6-6-20.7c-7.4-4.1-16.6-1.4-20.7,6l-33.1-29.3l40.1-15.8c1.3,6.1,6.2,10.9,12.4,11.9
				c8.4,1.4,16.3-4.2,17.8-12.6c1.4-8.4-4.2-16.3-12.6-17.8c-8.4-1.4-16.3,4.2-17.8,12.6c0,0.2,0,0.4,0,0.6l-40.4,15.9
				c-0.9-6.6-6-11.8-12.5-12.9c-8.3-1.4-16.2,4.1-17.6,12.4c-0.2,1-0.3,2.1-0.2,3.1l-46.6,19.4c-4.5-6.5-13.1-8.5-20-4.6
				c-7.4,4.1-10,13.4-5.9,20.8c4.1,7.4,13.4,10,20.8,5.9l39.5,36.4c-1.5,1.9-2.6,4.2-3,6.6c-1.2,6.4,1.9,12.9,7.6,16
				c7.4,4.1,16.7,1.5,20.8-5.9L-428.2-444.9L-428.2-444.9z M-399.3-587.7C-399.3-587.7-399.3-587.7-399.3-587.7
				c1-5.6,6.4-9.4,12-8.4c5.6,1,9.4,6.4,8.4,12c-1,5.6-6.4,9.4-12,8.4C-396.5-576.7-400.2-582.1-399.3-587.7z M-399.4-520.2
				c-5.6-1-9.4-6.4-8.4-12c0,0,0,0,0,0c1-5.6,6.4-9.4,12-8.4c5.6,1,9.4,6.4,8.4,12C-388.4-523-393.8-519.2-399.4-520.2L-399.4-520.2
				z M-461.5-559.7c-5.6-1-9.4-6.4-8.4-12c1-5.6,6.4-9.4,12-8.4c5.6,1,9.4,6.4,8.4,12C-450.5-562.4-455.8-558.7-461.5-559.7z
				 M-406.3-488.1c-5.6-1-9.4-6.4-8.4-12c1-5.6,6.4-9.4,12-8.4c5.6,1,9.4,6.4,8.4,12S-400.7-487.1-406.3-488.1L-406.3-488.1z
				 M-523.9-539.4C-523.9-539.4-523.9-539.4-523.9-539.4c-1,5.6-6.4,9.4-12,8.4s-9.4-6.4-8.4-12s6.4-9.4,12-8.4
				C-526.7-550.4-523-545.1-523.9-539.4z M-464.9-480.4c-1,5.6-6.4,9.4-12,8.4s-9.4-6.4-8.4-12s6.4-9.4,12-8.4
				C-467.7-491.4-464-486.1-464.9-480.4z M-402.9-440.9c-1,5.6-6.4,9.4-12,8.4c0,0,0,0,0,0c-5.6-1-9.4-6.4-8.4-12
				c1-5.6,6.4-9.4,12-8.4C-405.6-451.9-401.9-446.6-402.9-440.9L-402.9-440.9z"/>
		</g>
		<g id="gear-5" transform="translate(1373.858 1988.368) rotate(152)" class="st10">
			<g id="Group_118-5">
				<g id="Group_117-5">
					<path id="Path_501-5" class="st1" d="M-394.9,738.7c-2.9,3.2-5.2,6.9-7.1,10.7l-14.1-0.4l-3.6,18.6l13.2,4.9
						c0.3,4.3,1.1,8.6,2.6,12.6l-10.2,9.7l10.6,15.7l12.8-5.8c3.2,2.9,6.9,5.2,10.7,7.1l-0.4,14.1l18.6,3.6l4.9-13.2
						c4.3-0.3,8.6-1.1,12.6-2.6l9.7,10.2l15.7-10.6l-5.8-12.8c2.9-3.2,5.2-6.9,7.1-10.7l14.1,0.4l3.6-18.6l-13.2-4.9
						c-0.3-4.3-1.1-8.6-2.6-12.6l10.2-9.7l-10.6-15.7l-12.8,5.8c-3.2-2.9-6.9-5.2-10.7-7.1l0.4-14.1l-18.6-3.6l-4.9,13.2
						c-4.3,0.3-8.6,1.1-12.6,2.6l-9.7-10.2l-15.7,10.6L-394.9,738.7z M-389,739.6l-5.5-12l8.8-5.9l9.1,9.6l1.5-0.6
						c4.5-1.8,9.3-2.8,14.2-2.9l1.7,0l4.6-12.3l10.4,2l-0.4,13.2l1.5,0.7c4.5,1.9,8.6,4.6,12.1,8l1.2,1.1l12-5.5l5.9,8.8l-9.6,9.1
						l0.6,1.5c1.8,4.5,2.8,9.3,2.9,14.2l0,1.7l12.4,4.6l-2,10.4l-13.2-0.4l-0.7,1.5c-1.9,4.5-4.6,8.6-8,12.1l-1.1,1.2l5.5,12
						l-8.8,5.9l-9.1-9.6l-1.5,0.6c-4.5,1.8-9.3,2.8-14.2,2.9l-1.7,0l-4.6,12.3l-10.4-2l0.4-13.2l-1.5-0.7c-4.5-1.9-8.5-4.6-12.1-8
						l-1.2-1.1l-12,5.5l-5.9-8.8l9.6-9.1l-0.6-1.5c-1.8-4.5-2.8-9.3-2.9-14.2l0-1.7l-12.4-4.6l2-10.4l13.2,0.4l0.7-1.5
						c1.9-4.5,4.6-8.6,8-12.1L-389,739.6z"/>
				</g>
			</g>
			<g id="Group_120-5" transform="translate(34.511 34.511)">
				<g id="Group_119-5">
					<path id="Path_502-5" class="st1" d="M-408,714.7C-408,714.7-408,714.7-408,714.7c-11.3,7.6-14.3,22.9-6.7,34.2
						c7.6,11.3,22.9,14.3,34.2,6.6s14.3-22.9,6.6-34.2C-381.4,710.1-396.7,707.1-408,714.7z M-405.3,718.8L-405.3,718.8
						c9-6.1,21.3-3.7,27.4,5.3c6.1,9,3.7,21.3-5.3,27.4c-9,6.1-21.3,3.7-27.4-5.3C-416.7,737.1-414.3,724.9-405.3,718.8z"/>
				</g>
			</g>
		</g>
		<g id="gear-6" transform="matrix(-1, 0.017, -0.017, -1, 1250.632, 1993.393)" class="st10">
			<g id="Group_118-6">
				<g id="Group_117-6">
					<path id="Path_501-6" class="st1" d="M-275.8,909.4c1.2,5.5,3.2,10.8,5.9,15.7l-11.1,14.5l16.9,18l15.3-10.1
						c4.7,3,9.9,5.4,15.3,7l2.4,18.1l24.7,0.8l3.6-17.9c5.5-1.2,10.8-3.2,15.7-5.9l14.5,11.1l18-16.8l-10.1-15.3
						c3-4.7,5.4-9.9,7-15.3l18.1-2.4l0.8-24.7l-17.9-3.6c-1.2-5.5-3.2-10.8-5.9-15.7l11.1-14.5l-16.9-18l-15.2,10.1
						c-4.7-3-9.9-5.4-15.3-7l-2.4-18.1l-24.7-0.8l-3.6,17.9c-5.5,1.2-10.8,3.2-15.7,5.9l-14.5-11.1l-18,16.8l10.1,15.3
						c-3,4.7-5.4,9.9-7,15.3l-18.1,2.4l-0.8,24.7L-275.8,909.4z M-270.3,903.9l-16.8-3.4l0.5-13.8l17-2.2l0.5-2.1
						c1.6-6.1,4.2-11.9,7.8-17.2l1.2-1.8l-9.5-14.3l10.1-9.4l13.6,10.4l1.9-1.1c5.4-3.2,11.4-5.5,17.6-6.6l2.1-0.4l3.4-16.8
						l13.8,0.5l2.2,17l2.1,0.5c6.1,1.6,11.9,4.2,17.2,7.8l1.8,1.2l14.3-9.5l9.4,10.1l-10.4,13.6l1.1,1.9c3.2,5.4,5.5,11.4,6.6,17.6
						l0.4,2.1l16.8,3.4l-0.5,13.8l-17,2.2l-0.5,2.1c-1.6,6.1-4.2,11.9-7.8,17.2l-1.2,1.8l9.5,14.3l-10.1,9.4l-13.6-10.4l-1.9,1.1
						c-5.4,3.2-11.4,5.5-17.6,6.6l-2.1,0.4l-3.4,16.8l-13.8-0.5l-2.2-17l-2.1-0.5c-6.1-1.6-11.9-4.2-17.2-7.8l-1.8-1.2l-14.3,9.5
						l-9.4-10.1l10.4-13.6l-1.1-1.9c-3.2-5.4-5.5-11.4-6.6-17.6L-270.3,903.9z"/>
				</g>
			</g>
			<g id="Group_120-6" transform="translate(44.929 44.929)">
				<g id="Group_119-6">
					<path id="Path_502-6" class="st1" d="M-293.3,850c-0.6,17.7,13.3,32.6,31,33.2s32.6-13.3,33.2-31c0.6-17.7-13.3-32.6-31-33.2
						C-277.8,818.5-292.7,832.3-293.3,850z M-286.9,850.2L-286.9,850.2c0.5-14.2,12.4-25.3,26.5-24.8c14.2,0.5,25.3,12.4,24.8,26.5
						c-0.5,14.2-12.4,25.3-26.5,24.8C-276.3,876.3-287.4,864.4-286.9,850.2z"/>
				</g>
			</g>
		</g>
	</g>
</g>
</svg>
