<svg xmlns="http://www.w3.org/2000/svg" xmlns:xlink="http://www.w3.org/1999/xlink" width="512" height="512" viewBox="0 0 512 512"><defs><clipPath id="b"><rect width="512" height="512"/></clipPath></defs><g id="a" clip-path="url(#b)"><g transform="translate(-1363.43 -249.222)"><rect width="53.911" height="417.288" transform="translate(1661.12 296.578)" fill="#9bc1f9" opacity="0.6"/><rect width="53.911" height="290.005" transform="translate(1585.83 423.861)" fill="#9bc1f9" opacity="0.6"/><rect width="53.911" height="326.879" transform="translate(1737.493 386.987)" fill="#9bc1f9" opacity="0.6"/><rect width="53.911" height="339.734" transform="translate(1510.54 374.132)" fill="#9bc1f9" opacity="0.6"/><rect width="53.911" height="239.004" transform="translate(1435.25 474.862)" fill="#9bc1f9" opacity="0.6"/><g transform="translate(1435.25 392.751)"><rect width="53.911" height="321.115" transform="translate(225.869 0)" fill="#9bc1f9" opacity="0.3" style="mix-blend-mode:multiply;isolation:isolate"/><rect width="53.911" height="223.167" transform="translate(150.58 97.948)" fill="#9bc1f9" opacity="0.3" style="mix-blend-mode:multiply;isolation:isolate"/><rect width="53.911" height="251.542" transform="translate(302.243 69.572)" fill="#9bc1f9" opacity="0.3" style="mix-blend-mode:multiply;isolation:isolate"/><rect width="53.911" height="261.435" transform="translate(75.29 59.68)" fill="#9bc1f9" opacity="0.3" style="mix-blend-mode:multiply;isolation:isolate"/><rect width="53.911" height="183.921" transform="translate(0 137.194)" fill="#9bc1f9" opacity="0.3" style="mix-blend-mode:multiply;isolation:isolate"/></g><path d="M1817.833,308.447l-42.958,32.489,16.387,1.045L1688.714,522.463l-56.779-85.126-80.321,187.352-51.664-73.381-64.393,91.024,4.052,16.291,60.314-84.845,54.611,77.567,80.026-186.664,55.09,82.594,113.531-199.813,10.54,11.335Z" transform="translate(-0.224 -8.676)" fill="#5183bf"/></g></g></svg>