<svg xmlns="http://www.w3.org/2000/svg" width="2500" height="1733" viewBox="-18.458 6.58 191.151 132.49"><path d="M40.054 113.583H34.88c-.183-8.735-.687-16.947-1.5-24.642h-.046l-7.88 24.642h-3.94L13.67 88.94h-.045c-.58 7.388-.947 15.602-1.1 24.642H7.8c.304-10.993 1.068-21.3 2.3-30.92h6.414l7.465 22.72h.046l7.5-22.72h6.137c1.344 11.268 2.138 21.575 2.382 30.92M62.497 90.77C60.4 102.205 57.6 110.513 54.16 115.7c-2.688 3.992-5.633 6-8.84 6-.855 0-1.9-.258-3.16-.77v-2.757c.6.088 1.328.138 2.152.138 1.498 0 2.702-.412 3.62-1.238 1.098-1.006 1.647-2.137 1.647-3.388 0-.858-.428-2.612-1.282-5.268l-5.68-17.636H47.7l4.076 13.2c.916 2.995 1.298 5.086 1.145 6.277 2.23-5.953 3.786-12.444 4.673-19.468h4.9z" fill="#5d87a1"/><path d="M131.382 113.583h-14.7v-30.92h4.945v27.113h9.755v3.806zm-18.548.747l-5.684-2.805c.504-.414.986-.862 1.42-1.38 2.416-2.838 3.62-7.035 3.62-12.594 0-10.23-4.014-15.346-12.045-15.346-3.938 0-7 1.298-9.207 3.895-2.414 2.84-3.62 7.022-3.62 12.55 0 5.435 1.068 9.422 3.205 11.95 1.955 2.3 4.902 3.438 8.843 3.438 1.47 0 2.82-.18 4.048-.543l7.4 4.308 2.018-3.474zm-18.413-6.934c-1.252-2.014-1.878-5.248-1.878-9.707 0-7.785 2.365-11.682 7.1-11.682 2.475 0 4.3.932 5.45 2.792 1.25 2.017 1.88 5.222 1.88 9.62 0 7.85-2.367 11.774-7.1 11.774-2.476.001-4.3-.928-5.45-2.796m-9.256-2.383c0 2.622-.962 4.773-2.884 6.458-1.924 1.678-4.504 2.52-7.737 2.52-3.024 0-5.956-.966-8.794-2.888l1.33-2.655c2.442 1.223 4.653 1.83 6.638 1.83 1.863 0 3.32-.413 4.375-1.232s1.684-1.975 1.684-3.433c0-1.837-1.28-3.407-3.63-4.722l-6.5-3.678c-2.35-1.712-3.525-3.55-3.525-6.578 0-2.506.877-4.53 2.632-6.068 1.757-1.545 4.024-2.315 6.803-2.315 2.87 0 5.48.77 7.83 2.3L82.2 87.2c-2-.854-3.994-1.28-5.95-1.28-1.585 0-2.8.38-3.66 1.146S71.203 88.803 71.203 90c0 1.828 1.308 3.418 3.722 4.76l6.638 3.723c2.4 1.7 3.612 3.53 3.612 6.534" fill="#f8981d"/><path d="M137.6 72.308c-3-.076-5.305.225-7.248 1.047-.56.224-1.453.224-1.53.933.303.3.338.784.6 1.198.448.747 1.23 1.752 1.942 2.276l2.393 1.717c1.453.9 3.1 1.422 4.516 2.318.825.52 1.645 1.195 2.47 1.756.406.3.666.784 1.193.97V84.4c-.264-.336-.34-.822-.598-1.196l-1.122-1.082c-1.084-1.456-2.43-2.727-3.884-3.77-1.196-.824-3.812-1.944-4.297-3.322l-.076-.076c.822-.077 1.797-.375 2.578-.604 1.27-.335 2.43-.26 3.734-.594l1.797-.523v-.337c-.676-.673-1.158-1.567-1.87-2.203-1.902-1.643-3.998-3.25-6.164-4.595-1.16-.75-2.652-1.23-3.887-1.868-.445-.225-1.195-.336-1.457-.7-.67-.822-1.047-1.904-1.533-2.877l-3.06-6.502c-.674-1.456-1.084-2.9-1.906-4.257-3.85-6.35-8.03-10.196-14.457-13.97-1.38-.786-3.024-1.12-4.78-1.533l-2.803-.148c-.598-.262-1.197-.973-1.72-1.3-2.132-1.344-7.62-4.257-9.2-.4-1 2.43 1.494 4.82 2.354 6.054.635.856 1.458 1.83 1.902 2.802.263.635.337 1.3.6 1.98.598 1.644 1.157 3.473 1.943 5.007.4.782.857 1.604 1.38 2.312.3.414.822.597.936 1.272-.52.744-.562 1.867-.86 2.8-1.344 4.22-.82 9.45 1.086 12.552.596.934 2.018 3 3.92 2.202 1.684-.672 1.3-2.8 1.795-4.668.1-.45.038-.747.262-1.043v.073l1.53 3.1c1.16 1.83 3.177 3.735 4.858 5.002.895.676 1.604 1.832 2.725 2.245V74.1h-.074c-.227-.335-.56-.485-.857-.745-.674-.673-1.42-1.495-1.943-2.24-1.566-2.093-2.952-4.4-4.182-6.8-.602-1.16-1.12-2.428-1.606-3.586-.226-.447-.226-1.12-.6-1.346-.562.82-1.38 1.532-1.8 2.538-.7 1.6-.785 3.588-1.05 5.646l-.147.072c-1.2-.3-1.604-1.53-2.056-2.575-1.12-2.654-1.307-6.914-.336-9.976.26-.783 1.385-3.25.936-3.995-.225-.715-.973-1.122-1.383-1.685-.482-.708-1-1.604-1.346-2.4-.896-2.1-1.347-4.408-2.312-6.498-.45-.974-1.234-1.982-1.868-2.88-.712-1.008-1.495-1.718-2.058-2.913-.186-.4-.447-1.083-.148-1.53.073-.3.225-.412.523-.487.484-.4 1.867.1 2.352.336 1.385.56 2.543 1.083 3.7 1.867.523.375 1.084 1.085 1.755 1.272h.786c1.193.26 2.538.072 3.66.4 1.98.636 3.772 1.57 5.38 2.576 4.893 3.103 8.928 7.512 11.652 12.778.447.858.637 1.644 1.045 2.54.787 1.832 1.76 3.7 2.54 5.493.785 1.755 1.533 3.547 2.654 5.005.56.784 2.805 1.195 3.812 1.606.745.335 1.905.633 2.577 1.044 1.27.783 2.537 1.682 3.732 2.543.595.448 2.465 1.382 2.576 2.13M99.484 39.844a5.82 5.82 0 0 0-1.529.188v.075h.072c.3.597.824 1 1.197 1.532.3.6.562 1.193.857 1.8l.072-.074c.527-.373.8-.97.8-1.868-.227-.264-.262-.522-.45-.784-.22-.374-.705-.56-1.007-.86" fill="#5d87a1"/><path d="M141.148 113.578h.774V109.8h-1.16l-.947 2.585-1.03-2.585h-1.118v3.788h.73v-2.882h.04l1.078 2.882h.557l1.074-2.882v2.882zm-6.235 0h.82v-3.146h1.072v-.643h-3.008v.643h1.115l.002 3.146z" fill="#f8981d"/></svg>