<svg xmlns="http://www.w3.org/2000/svg" xmlns:xlink="http://www.w3.org/1999/xlink" width="1920" height="10800" viewBox="0 0 1920 10800">
  <defs>
    <linearGradient id="linear-gradient" x1="0.565" y1="0.178" x2="-0.079" y2="0.9" gradientUnits="objectBoundingBox">
      <stop offset="0"/>
      <stop offset="1" stop-color="#2ba6f8"/>
      <stop offset="1"/>
    </linearGradient>
    <linearGradient id="linear-gradient-3" x1="0.606" y1="0.047" x2="-0.079" y2="0.9" gradientUnits="objectBoundingBox">
      <stop offset="0" stop-color="#2ba6f8"/>
      <stop offset="1"/>
    </linearGradient>
    <clipPath id="clip-projSkills">
      <rect width="1920" height="10800"/>
    </clipPath>
  </defs>
  <g id="projSkills" clip-path="url(#clip-projSkills)">
    <rect width="1920" height="10800" fill="#fff"/>
    <g id="Group_1051" data-name="Group 1051" transform="translate(14674.914 10781.159) rotate(149)">
      <path id="Path_1" data-name="Path 1" d="M13923.489,3991.678S8610.156,1150.318,5463.385,141.76,6942.2,3812.679,7366.605,4513.719c460.1,760.023,3273.795,2958.323,3219.015,3710.068-71.867,986.409-1531.387,1109.536-2743.427,1736.568-2926.7,1514.1,379.586,253.1,1494.617,977.144,1115,724.076,434.927,1263.664-1107.768,1208.295-3331.59-119.553-1849.917,1673.9-1288.341,2442.143s-1224.538,2306.841-3235.86-490.307-943.4,1570.087-943.4,1570.087H0V3991.678Z" transform="translate(0 0)" fill="url(#linear-gradient)"/>
      <path id="Path_2785" data-name="Path 2785" d="M13923.489,3991.678S8610.156,1150.318,5463.385,141.76,6942.2,3812.679,7366.605,4513.719c460.1,760.023,3273.795,2958.323,3219.015,3710.068-71.867,986.409-1531.387,1109.536-2743.427,1736.568-2926.7,1514.1,379.586,253.1,1494.617,977.144,1115,724.076,434.927,1263.664-1107.768,1208.295-3331.59-119.553-1849.917,1673.9-1288.341,2442.143s-1224.538,2306.841-3235.86-490.307-943.4,1570.087-943.4,1570.087H0V3991.678Z" transform="translate(-1360.73 1720.985)" fill="url(#linear-gradient)"/>
      <path id="Path_2" data-name="Path 2" d="M3093.243,3.682S6860.645-192.7,7531.386,2282.874C8262.2,4980.363,5924.677,6248.7,5131.756,5629.546,4338.8,5010.4,4302.884,4168.81,5537.2,3613.447c1234.354-555.364,1110.2-2267.132-1588.6-1839.929S937.611,5634.608,2892.885,6456.25c1955.274,821.609,1478.779,1788.862-624.373,2816.876s-952.991,2406.6-952.991,2406.6H0V3.682Z" transform="translate(0 3987.996)" fill="url(#linear-gradient-3)"/>
    </g>
    <g id="Group_1052" data-name="Group 1052" transform="translate(14938.914 10813.159) rotate(149)">
      <path id="Path_1-2" data-name="Path 1" d="M13923.489,3991.678S8610.156,1150.318,5463.385,141.76,6942.2,3812.679,7366.605,4513.719c460.1,760.023,3273.795,2958.323,3219.015,3710.068-71.867,986.409-1531.387,1109.536-2743.427,1736.568-2926.7,1514.1,379.586,253.1,1494.617,977.144,1115,724.076,434.927,1263.664-1107.768,1208.295-3331.59-119.553-1849.917,1673.9-1288.341,2442.143s-1224.538,2306.841-3235.86-490.307-943.4,1570.087-943.4,1570.087H0V3991.678Z" transform="translate(0 0)" fill="url(#linear-gradient)"/>
      <path id="Path_2785-2" data-name="Path 2785" d="M13923.489,3991.678S8610.156,1150.318,5463.385,141.76,6942.2,3812.679,7366.605,4513.719c460.1,760.023,3273.795,2958.323,3219.015,3710.068-71.867,986.409-1531.387,1109.536-2743.427,1736.568-2926.7,1514.1,379.586,253.1,1494.617,977.144,1115,724.076,434.927,1263.664-1107.768,1208.295-3331.59-119.553-1849.917,1673.9-1288.341,2442.143s-1224.538,2306.841-3235.86-490.307-943.4,1570.087-943.4,1570.087H0V3991.678Z" transform="translate(-1360.73 1720.985)" fill="url(#linear-gradient)"/>
      <path id="Path_2-2" data-name="Path 2" d="M3093.243,3.682S6860.645-192.7,7531.386,2282.874C8262.2,4980.363,5924.677,6248.7,5131.756,5629.546,4338.8,5010.4,4302.884,4168.81,5537.2,3613.447c1234.354-555.364,1110.2-2267.132-1588.6-1839.929S937.611,5634.608,2892.885,6456.25c1955.274,821.609,1478.779,1788.862-624.373,2816.876s-952.991,2406.6-952.991,2406.6H0V3.682Z" transform="translate(0 3987.996)" fill="url(#linear-gradient-3)"/>
    </g>
    <g id="Group_1053" data-name="Group 1053" transform="translate(15130.914 10805.159) rotate(149)">
      <path id="Path_1-3" data-name="Path 1" d="M13923.489,3991.678S8610.156,1150.318,5463.385,141.76,6942.2,3812.679,7366.605,4513.719c460.1,760.023,3273.795,2958.323,3219.015,3710.068-71.867,986.409-1531.387,1109.536-2743.427,1736.568-2926.7,1514.1,379.586,253.1,1494.617,977.144,1115,724.076,434.927,1263.664-1107.768,1208.295-3331.59-119.553-1849.917,1673.9-1288.341,2442.143s-1224.538,2306.841-3235.86-490.307-943.4,1570.087-943.4,1570.087H0V3991.678Z" transform="translate(0 0)" fill="url(#linear-gradient)"/>
      <path id="Path_2785-3" data-name="Path 2785" d="M13923.489,3991.678S8610.156,1150.318,5463.385,141.76,6942.2,3812.679,7366.605,4513.719c460.1,760.023,3273.795,2958.323,3219.015,3710.068-71.867,986.409-1531.387,1109.536-2743.427,1736.568-2926.7,1514.1,379.586,253.1,1494.617,977.144,1115,724.076,434.927,1263.664-1107.768,1208.295-3331.59-119.553-1849.917,1673.9-1288.341,2442.143s-1224.538,2306.841-3235.86-490.307-943.4,1570.087-943.4,1570.087H0V3991.678Z" transform="translate(-1360.73 1720.985)" fill="url(#linear-gradient)"/>
      <path id="Path_2-3" data-name="Path 2" d="M3093.243,3.682S6860.645-192.7,7531.386,2282.874C8262.2,4980.363,5924.677,6248.7,5131.756,5629.546,4338.8,5010.4,4302.884,4168.81,5537.2,3613.447c1234.354-555.364,1110.2-2267.132-1588.6-1839.929S937.611,5634.608,2892.885,6456.25c1955.274,821.609,1478.779,1788.862-624.373,2816.876s-952.991,2406.6-952.991,2406.6H0V3.682Z" transform="translate(0 3987.996)" fill="url(#linear-gradient-3)"/>
    </g>
    <g id="Group_1054" data-name="Group 1054" transform="translate(14930.914 12829.159) rotate(149)">
      <path id="Path_1-4" data-name="Path 1" d="M13923.489,3991.678S8610.156,1150.318,5463.385,141.76,6942.2,3812.679,7366.605,4513.719c460.1,760.023,3284.165,4602.491,3229.385,5354.247-71.867,986.418-1541.757-534.643-2753.8,92.39-2926.7,1514.1,379.586,253.1,1494.617,977.144,1115,724.076,434.927,1263.664-1107.768,1208.295-3331.59-119.553-1849.917,1673.9-1288.341,2442.143s-1224.538,2306.841-3235.86-490.307-943.4,1570.087-943.4,1570.087H0V3991.678Z" transform="translate(0 0)" fill="url(#linear-gradient)"/>
      <path id="Path_2785-4" data-name="Path 2785" d="M13923.489,3991.678S8610.156,1150.318,5463.385,141.76,6942.2,3812.679,7366.605,4513.719c460.1,760.023,3273.795,2958.323,3219.015,3710.068-71.867,986.409-1531.387,1109.536-2743.427,1736.568-2926.7,1514.1,379.586,253.1,1494.617,977.144,1115,724.076,434.927,1263.664-1107.768,1208.295-3331.59-119.553-1849.917,1673.9-1288.341,2442.143s-1224.538,2306.841-3235.86-490.307-943.4,1570.087-943.4,1570.087H0V3991.678Z" transform="translate(-1360.73 1720.985)" fill="url(#linear-gradient)"/>
      <path id="Path_2-4" data-name="Path 2" d="M3093.243,3.682S6860.645-192.7,7531.386,2282.874C8262.2,4980.363,5924.677,6248.7,5131.756,5629.546,4338.8,5010.4,4302.884,4168.81,5537.2,3613.447c1234.354-555.364,1110.2-2267.132-1588.6-1839.929S937.611,5634.608,2892.885,6456.25c1955.274,821.609,1478.779,1788.862-624.373,2816.876s-952.991,2406.6-952.991,2406.6H0V3.682Z" transform="translate(0 3987.996)" fill="url(#linear-gradient-3)"/>
    </g>
    <g id="gear" transform="matrix(-0.946, 0.326, -0.326, -0.946, 1619.811, 715.404)" opacity="0.2">
      <g id="Group_118" data-name="Group 118" transform="translate(0 0)">
        <g id="Group_117" data-name="Group 117">
          <path id="Path_501" data-name="Path 501" d="M427.532,248.028V179.5l-50.058-8.35a167.647,167.647,0,0,0-17.853-42.978l29.53-41.342L340.689,38.385l-41.342,29.53a167.324,167.324,0,0,0-42.973-17.857L248.032,0H179.5l-8.342,50.058a167.324,167.324,0,0,0-42.973,17.857L86.842,38.385,38.381,86.834l29.53,41.342a167.648,167.648,0,0,0-17.853,42.978L0,179.5v68.524l50.058,8.35a167.649,167.649,0,0,0,17.853,42.978L38.381,340.7l48.462,48.449,41.342-29.53a167.326,167.326,0,0,0,42.973,17.857l8.342,50.058h68.533l8.342-50.058a167.326,167.326,0,0,0,42.973-17.857l41.342,29.53L389.151,340.7l-29.53-41.342a167.647,167.647,0,0,0,17.853-42.978ZM361.5,246.636a150.106,150.106,0,0,1-20.062,48.31l-3.231,5.071,27.682,38.75-27.116,27.121L300.008,338.2l-5.067,3.227a150.058,150.058,0,0,1-48.31,20.067l-5.871,1.3-7.82,46.918h-38.35l-7.82-46.918-5.871-1.3a150.057,150.057,0,0,1-48.31-20.067l-5.067-3.227L88.765,365.888,61.648,338.767l27.682-38.75L86.1,294.946a150.106,150.106,0,0,1-20.062-48.31l-1.3-5.871-46.922-7.82V194.586l46.922-7.82,1.3-5.871A150.107,150.107,0,0,1,86.1,132.586l3.231-5.071L61.648,88.765,88.765,61.644,127.524,89.33,132.59,86.1A150.06,150.06,0,0,1,180.9,66.036l5.871-1.3,7.82-46.918h38.35l7.82,46.918,5.871,1.3A150.061,150.061,0,0,1,294.941,86.1l5.067,3.227,38.759-27.686,27.116,27.121L338.2,127.515l3.231,5.071A150.106,150.106,0,0,1,361.5,180.9l1.3,5.871,46.922,7.82v38.359l-46.922,7.82Z" fill="#fff"/>
        </g>
      </g>
      <g id="Group_120" data-name="Group 120" transform="translate(124.697 124.697)">
        <g id="Group_119" data-name="Group 119" transform="translate(0 0)">
          <path id="Path_502" data-name="Path 502" d="M89.069,0a89.069,89.069,0,1,0,89.069,89.069A89.171,89.171,0,0,0,89.069,0Zm0,160.324a71.255,71.255,0,1,1,71.255-71.255A71.337,71.337,0,0,1,89.069,160.324Z" fill="#fff"/>
        </g>
      </g>
    </g>
    <g id="gear-2" data-name="gear" transform="matrix(-0.946, 0.326, -0.326, -0.946, 1754.204, 1909.834)" opacity="0.2">
      <g id="Group_118-2" data-name="Group 118" transform="translate(0 0)">
        <g id="Group_117-2" data-name="Group 117">
          <path id="Path_501-2" data-name="Path 501" d="M601.1,348.719V252.376l-70.38-11.74a235.708,235.708,0,0,0-25.1-60.425l41.519-58.126L479,53.968,420.872,95.486A235.252,235.252,0,0,0,360.453,70.38L348.725,0H252.37L240.642,70.38a235.252,235.252,0,0,0-60.419,25.107L122.1,53.968,53.962,122.085,95.48,180.211a235.708,235.708,0,0,0-25.1,60.425L0,252.376v96.343l70.38,11.74a235.709,235.709,0,0,0,25.1,60.425L53.962,479.01,122.1,547.127l58.126-41.519a235.248,235.248,0,0,0,60.419,25.107L252.37,601.1h96.355l11.728-70.38a235.248,235.248,0,0,0,60.419-25.107L479,547.127l68.136-68.117-41.519-58.126a235.707,235.707,0,0,0,25.1-60.425Zm-92.845-1.957a211.043,211.043,0,0,1-28.207,67.922l-4.543,7.13L514.42,476.3,476.3,514.426,421.8,475.5l-7.124,4.537a210.979,210.979,0,0,1-67.922,28.213l-8.255,1.834L327.507,576.05H273.588l-10.994-65.965-8.255-1.834a210.978,210.978,0,0,1-67.922-28.213l-7.124-4.537L124.8,514.426,86.675,476.3l38.92-54.482-4.543-7.13a211.044,211.044,0,0,1-28.207-67.922l-1.828-8.255L25.046,327.513V273.582l65.971-10.994,1.828-8.255a211.045,211.045,0,0,1,28.207-67.922l4.543-7.13L86.675,124.8,124.8,86.669,179.294,125.6l7.124-4.537a210.98,210.98,0,0,1,67.922-28.213l8.255-1.834,10.994-65.965h53.919L338.5,91.011l8.255,1.834a210.98,210.98,0,0,1,67.922,28.213L421.8,125.6,476.3,86.669,514.42,124.8,475.5,179.282l4.543,7.13a211.044,211.044,0,0,1,28.207,67.922l1.828,8.255,65.971,10.994v53.931l-65.971,10.994Z" fill="#fff"/>
        </g>
      </g>
      <g id="Group_120-2" data-name="Group 120" transform="translate(175.319 175.319)">
        <g id="Group_119-2" data-name="Group 119" transform="translate(0 0)">
          <path id="Path_502-2" data-name="Path 502" d="M125.228,0A125.228,125.228,0,1,0,250.456,125.228,125.372,125.372,0,0,0,125.228,0Zm0,225.411A100.182,100.182,0,1,1,225.411,125.228,100.3,100.3,0,0,1,125.228,225.411Z" fill="#fff"/>
        </g>
      </g>
    </g>
    <g id="binaryTree" transform="translate(1842.837 821.931) rotate(22)" opacity="0.27">
      <path id="Path_518" data-name="Path 518" d="M446.677,378.613l-65.218-106.49a42.371,42.371,0,0,0-14.1-82.379,41.876,41.876,0,0,0-19.622,5.051L267.269,69.217a42.358,42.358,0,1,0-62.663,3.365L128.978,190.633a41.78,41.78,0,0,0-8.616-.9,42.353,42.353,0,0,0-13.278,82.613L44.076,375.195c-.552-.017-1.044-.164-1.6-.164a42.681,42.681,0,1,0,15.862,3.136l62.482-101.958,64.113,104.633a42.284,42.284,0,1,0,14.726-2.236l-65.237-106.49a42.171,42.171,0,0,0,7.511-76.274L215.873,80.452a41.336,41.336,0,0,0,41.005-2L336.7,203.024a42.14,42.14,0,0,0,17.386,69.335L291.108,375.2c-.562-.017-1.044-.164-1.614-.164a42.647,42.647,0,1,0,15.886,3.136l62.465-101.958,64.113,104.633a42.318,42.318,0,1,0,14.718-2.231Zm-375.441,38.9a28.755,28.755,0,1,1-28.757-28.737A28.778,28.778,0,0,1,71.236,417.512Zm155.858,3.444a28.746,28.746,0,1,1-28.737-28.737A28.756,28.756,0,0,1,227.094,420.957ZM120.353,260.979a28.746,28.746,0,1,1,28.754-28.754A28.77,28.77,0,0,1,120.353,260.979ZM318.244,417.512A28.734,28.734,0,1,1,289.5,388.775,28.771,28.771,0,0,1,318.244,417.512ZM205.8,42.493a28.751,28.751,0,1,1,28.737,28.754A28.77,28.77,0,0,1,205.8,42.493ZM338.65,232.224a28.737,28.737,0,1,1,28.721,28.754A28.763,28.763,0,0,1,338.65,232.224ZM445.4,449.694a28.737,28.737,0,1,1,28.72-28.737A28.77,28.77,0,0,1,445.4,449.694Z" transform="translate(0 0)" fill="#fff"/>
    </g>
    <g id="gear-3" data-name="gear" transform="matrix(-0.695, 0.719, -0.719, -0.695, 1940.769, 596.453)" opacity="0.2">
      <g id="Group_118-3" data-name="Group 118" transform="translate(0 0)">
        <g id="Group_117-3" data-name="Group 117">
          <path id="Path_501-3" data-name="Path 501" d="M328.4,190.516V137.881l-38.451-6.414a128.774,128.774,0,0,0-13.713-33.012L298.917,66.7,261.692,29.484,229.936,52.167a128.526,128.526,0,0,0-33.009-13.717L190.52,0H137.878l-6.407,38.451A128.526,128.526,0,0,0,98.462,52.167L66.706,29.484,29.481,66.7,52.164,98.455a128.775,128.775,0,0,0-13.713,33.012L0,137.881v52.635l38.451,6.414a128.774,128.774,0,0,0,13.713,33.012L29.481,261.7l37.225,37.215L98.462,276.23a128.525,128.525,0,0,0,33.009,13.717l6.407,38.451H190.52l6.407-38.451a128.524,128.524,0,0,0,33.009-13.717l31.756,22.683L298.917,261.7l-22.683-31.756a128.776,128.776,0,0,0,13.713-33.012Zm-50.724-1.069a115.3,115.3,0,0,1-15.41,37.108l-2.482,3.9,21.263,29.765-20.829,20.832-29.772-21.266-3.892,2.479a115.264,115.264,0,0,1-37.108,15.414l-4.51,1-6.006,36.039H149.47l-6.006-36.039-4.51-1a115.263,115.263,0,0,1-37.108-15.414l-3.892-2.479L68.182,281.048,47.353,260.215,68.617,230.45l-2.482-3.9a115.3,115.3,0,0,1-15.41-37.108l-1-4.51-36.042-6.006V149.467l36.042-6.006,1-4.51a115.3,115.3,0,0,1,15.41-37.108l2.482-3.9L47.353,68.182,68.182,47.35,97.954,68.617l3.892-2.479a115.265,115.265,0,0,1,37.108-15.414l4.51-1,6.006-36.039h29.458l6.006,36.039,4.51,1a115.265,115.265,0,0,1,37.108,15.414l3.892,2.479L260.215,47.35l20.829,20.832L259.781,97.947l2.482,3.9a115.3,115.3,0,0,1,15.41,37.108l1,4.51,36.042,6.006v29.464l-36.042,6.006Z" fill="#fff"/>
        </g>
      </g>
      <g id="Group_120-3" data-name="Group 120" transform="translate(95.783 95.783)">
        <g id="Group_119-3" data-name="Group 119" transform="translate(0 0)">
          <path id="Path_502-3" data-name="Path 502" d="M68.416,0a68.416,68.416,0,1,0,68.416,68.416A68.495,68.495,0,0,0,68.416,0Zm0,123.149a54.733,54.733,0,1,1,54.733-54.733A54.8,54.8,0,0,1,68.416,123.149Z" fill="#fff"/>
        </g>
      </g>
    </g>
  </g>
</svg>
