<?xml version="1.0" encoding="UTF-8"?>
<svg viewBox="0 0 1920 10800" xmlns="http://www.w3.org/2000/svg">
<defs>
<linearGradient id="a" x1=".565" x2="-.079" y1=".178" y2=".9">
<stop offset="0"/>
<stop stop-color="#2ba6f8" offset="1"/>
<stop offset="1"/>
</linearGradient>
<linearGradient id="b" x1=".606" x2="-.079" y1=".047" y2=".9">
<stop stop-color="#2ba6f8" offset="0"/>
<stop offset="1"/>
</linearGradient>
<clipPath id="c">
<rect width="1920" height="10800"/>
</clipPath>
</defs>
<g clip-path="url(#c)">
<rect width="1920" height="10800" fill="#fff"/>
<g transform="translate(14675 10781) rotate(149)" data-name="Group 1051">
<path transform="translate(0)" d="m13923 3991.7s-5313.3-2841.4-8460.1-3849.9 1478.8 3670.9 1903.2 4372c460.1 760.02 3273.8 2958.3 3219 3710.1-71.867 986.41-1531.4 1109.5-2743.4 1736.6-2926.7 1514.1 379.59 253.1 1494.6 977.14 1115 724.08 434.93 1263.7-1107.8 1208.3-3331.6-119.55-1849.9 1673.9-1288.3 2442.1s-1224.5 2306.8-3235.9-490.31-943.4 1570.1-943.4 1570.1h-2761.4v-11676z" fill="url(#a)" data-name="Path 1"/>
<path transform="translate(-1360.7 1721)" d="m13923 3991.7s-5313.3-2841.4-8460.1-3849.9 1478.8 3670.9 1903.2 4372c460.1 760.02 3273.8 2958.3 3219 3710.1-71.867 986.41-1531.4 1109.5-2743.4 1736.6-2926.7 1514.1 379.59 253.1 1494.6 977.14 1115 724.08 434.93 1263.7-1107.8 1208.3-3331.6-119.55-1849.9 1673.9-1288.3 2442.1s-1224.5 2306.8-3235.9-490.31-943.4 1570.1-943.4 1570.1h-2761.4v-11676z" fill="url(#a)" data-name="Path 2785"/>
<path transform="translate(0 3988)" d="m3093.2 3.682s3767.4-196.38 4438.1 2279.2c730.81 2697.5-1606.7 3965.8-2399.6 3346.7-792.96-619.15-828.87-1460.7 405.44-2016.1 1234.4-555.36 1110.2-2267.1-1588.6-1839.9s-3011 3861.1-1055.7 4682.7c1955.3 821.61 1478.8 1788.9-624.37 2816.9s-952.99 2406.6-952.99 2406.6h-1315.5v-11676z" fill="url(#b)" data-name="Path 2"/>
</g>
<g transform="translate(14939 10813) rotate(149)" data-name="Group 1052">
<path transform="translate(0)" d="m13923 3991.7s-5313.3-2841.4-8460.1-3849.9 1478.8 3670.9 1903.2 4372c460.1 760.02 3273.8 2958.3 3219 3710.1-71.867 986.41-1531.4 1109.5-2743.4 1736.6-2926.7 1514.1 379.59 253.1 1494.6 977.14 1115 724.08 434.93 1263.7-1107.8 1208.3-3331.6-119.55-1849.9 1673.9-1288.3 2442.1s-1224.5 2306.8-3235.9-490.31-943.4 1570.1-943.4 1570.1h-2761.4v-11676z" fill="url(#a)" data-name="Path 1"/>
<path transform="translate(-1360.7 1721)" d="m13923 3991.7s-5313.3-2841.4-8460.1-3849.9 1478.8 3670.9 1903.2 4372c460.1 760.02 3273.8 2958.3 3219 3710.1-71.867 986.41-1531.4 1109.5-2743.4 1736.6-2926.7 1514.1 379.59 253.1 1494.6 977.14 1115 724.08 434.93 1263.7-1107.8 1208.3-3331.6-119.55-1849.9 1673.9-1288.3 2442.1s-1224.5 2306.8-3235.9-490.31-943.4 1570.1-943.4 1570.1h-2761.4v-11676z" fill="url(#a)" data-name="Path 2785"/>
<path transform="translate(0 3988)" d="m3093.2 3.682s3767.4-196.38 4438.1 2279.2c730.81 2697.5-1606.7 3965.8-2399.6 3346.7-792.96-619.15-828.87-1460.7 405.44-2016.1 1234.4-555.36 1110.2-2267.1-1588.6-1839.9s-3011 3861.1-1055.7 4682.7c1955.3 821.61 1478.8 1788.9-624.37 2816.9s-952.99 2406.6-952.99 2406.6h-1315.5v-11676z" fill="url(#b)" data-name="Path 2"/>
</g>
<g transform="translate(15131 10805) rotate(149)" data-name="Group 1053">
<path transform="translate(0)" d="m13923 3991.7s-5313.3-2841.4-8460.1-3849.9 1478.8 3670.9 1903.2 4372c460.1 760.02 3273.8 2958.3 3219 3710.1-71.867 986.41-1531.4 1109.5-2743.4 1736.6-2926.7 1514.1 379.59 253.1 1494.6 977.14 1115 724.08 434.93 1263.7-1107.8 1208.3-3331.6-119.55-1849.9 1673.9-1288.3 2442.1s-1224.5 2306.8-3235.9-490.31-943.4 1570.1-943.4 1570.1h-2761.4v-11676z" fill="url(#a)" data-name="Path 1"/>
<path transform="translate(-1360.7 1721)" d="m13923 3991.7s-5313.3-2841.4-8460.1-3849.9 1478.8 3670.9 1903.2 4372c460.1 760.02 3273.8 2958.3 3219 3710.1-71.867 986.41-1531.4 1109.5-2743.4 1736.6-2926.7 1514.1 379.59 253.1 1494.6 977.14 1115 724.08 434.93 1263.7-1107.8 1208.3-3331.6-119.55-1849.9 1673.9-1288.3 2442.1s-1224.5 2306.8-3235.9-490.31-943.4 1570.1-943.4 1570.1h-2761.4v-11676z" fill="url(#a)" data-name="Path 2785"/>
<path transform="translate(0 3988)" d="m3093.2 3.682s3767.4-196.38 4438.1 2279.2c730.81 2697.5-1606.7 3965.8-2399.6 3346.7-792.96-619.15-828.87-1460.7 405.44-2016.1 1234.4-555.36 1110.2-2267.1-1588.6-1839.9s-3011 3861.1-1055.7 4682.7c1955.3 821.61 1478.8 1788.9-624.37 2816.9s-952.99 2406.6-952.99 2406.6h-1315.5v-11676z" fill="url(#b)" data-name="Path 2"/>
</g>
<g transform="translate(14931 12829) rotate(149)" data-name="Group 1054">
<path transform="translate(0)" d="m13923 3991.7s-5313.3-2841.4-8460.1-3849.9 1478.8 3670.9 1903.2 4372c460.1 760.02 3284.2 4602.5 3229.4 5354.2-71.867 986.42-1541.8-534.64-2753.8 92.39-2926.7 1514.1 379.59 253.1 1494.6 977.14 1115 724.08 434.93 1263.7-1107.8 1208.3-3331.6-119.55-1849.9 1673.9-1288.3 2442.1s-1224.5 2306.8-3235.9-490.31-943.4 1570.1-943.4 1570.1h-2761.4v-11676z" fill="url(#a)" data-name="Path 1"/>
<path transform="translate(-1360.7 1721)" d="m13923 3991.7s-5313.3-2841.4-8460.1-3849.9 1478.8 3670.9 1903.2 4372c460.1 760.02 3273.8 2958.3 3219 3710.1-71.867 986.41-1531.4 1109.5-2743.4 1736.6-2926.7 1514.1 379.59 253.1 1494.6 977.14 1115 724.08 434.93 1263.7-1107.8 1208.3-3331.6-119.55-1849.9 1673.9-1288.3 2442.1s-1224.5 2306.8-3235.9-490.31-943.4 1570.1-943.4 1570.1h-2761.4v-11676z" fill="url(#a)" data-name="Path 2785"/>
<path transform="translate(0 3988)" d="m3093.2 3.682s3767.4-196.38 4438.1 2279.2c730.81 2697.5-1606.7 3965.8-2399.6 3346.7-792.96-619.15-828.87-1460.7 405.44-2016.1 1234.4-555.36 1110.2-2267.1-1588.6-1839.9s-3011 3861.1-1055.7 4682.7c1955.3 821.61 1478.8 1788.9-624.37 2816.9s-952.99 2406.6-952.99 2406.6h-1315.5v-11676z" fill="url(#b)" data-name="Path 2"/>
</g>
<g transform="matrix(-.946 .326 -.326 -.946 1619.8 715.4)" opacity=".2">
<g transform="translate(0)" data-name="Group 118">
<g data-name="Group 117">
<path d="m427.53 248.03v-68.528l-50.058-8.35a167.65 167.65 0 0 0 -17.853 -42.978l29.53-41.342-48.462-48.445-41.342 29.53a167.32 167.32 0 0 0 -42.973 -17.857l-8.342-50.058h-68.532l-8.342 50.058a167.32 167.32 0 0 0 -42.973 17.857l-41.343-29.53-48.461 48.449 29.53 41.342a167.65 167.65 0 0 0 -17.853 42.978l-50.058 8.346v68.524l50.058 8.35a167.65 167.65 0 0 0 17.853 42.978l-29.53 41.348 48.462 48.449 41.342-29.53a167.33 167.33 0 0 0 42.973 17.857l8.342 50.058h68.533l8.342-50.058a167.33 167.33 0 0 0 42.973 -17.857l41.342 29.53 48.461-48.449-29.53-41.342a167.65 167.65 0 0 0 17.853 -42.978zm-66.032-1.392a150.11 150.11 0 0 1 -20.062 48.31l-3.231 5.071 27.682 38.75-27.116 27.121-38.765-27.688-5.067 3.227a150.06 150.06 0 0 1 -48.31 20.067l-5.871 1.3-7.82 46.918h-38.35l-7.82-46.918-5.871-1.3a150.06 150.06 0 0 1 -48.31 -20.067l-5.067-3.227-38.757 27.688-27.117-27.121 27.682-38.75-3.23-5.071a150.11 150.11 0 0 1 -20.062 -48.31l-1.3-5.871-46.922-7.82v-38.359l46.922-7.82 1.3-5.871a150.11 150.11 0 0 1 20.062 -48.309l3.231-5.071-27.683-38.75 27.117-27.121 38.759 27.686 5.066-3.23a150.06 150.06 0 0 1 48.31 -20.064l5.871-1.3 7.82-46.918h38.35l7.82 46.918 5.871 1.3a150.06 150.06 0 0 1 48.309 20.064l5.067 3.227 38.759-27.686 27.116 27.121-27.683 38.753 3.231 5.071a150.11 150.11 0 0 1 20.069 48.314l1.3 5.871 46.922 7.82v38.359l-46.922 7.82z" fill="#fff" data-name="Path 501"/>
</g>
</g>
<g transform="translate(124.7 124.7)" data-name="Group 120">
<g transform="translate(0)" data-name="Group 119">
<path d="M89.069,0a89.069,89.069,0,1,0,89.069,89.069A89.171,89.171,0,0,0,89.069,0Zm0,160.324a71.255,71.255,0,1,1,71.255-71.255A71.337,71.337,0,0,1,89.069,160.324Z" fill="#fff" data-name="Path 502"/>
</g>
</g>
</g>
<g transform="matrix(-.946 .326 -.326 -.946 1754.2 1909.8)" opacity=".2" data-name="gear">
<g transform="translate(0)" data-name="Group 118">
<g data-name="Group 117">
<path d="m601.1 348.72v-96.343l-70.38-11.74a235.71 235.71 0 0 0 -25.1 -60.425l41.519-58.126-68.139-68.117-58.128 41.518a235.25 235.25 0 0 0 -60.419 -25.106l-11.728-70.38h-96.355l-11.728 70.38a235.25 235.25 0 0 0 -60.419 25.107l-58.123-41.519-68.138 68.117 41.518 58.126a235.71 235.71 0 0 0 -25.1 60.425l-70.38 11.74v96.343l70.38 11.74a235.71 235.71 0 0 0 25.1 60.425l-41.518 58.126 68.138 68.117 58.126-41.519a235.25 235.25 0 0 0 60.419 25.107l11.725 70.385h96.355l11.728-70.38a235.25 235.25 0 0 0 60.419 -25.107l58.128 41.514 68.136-68.117-41.519-58.126a235.71 235.71 0 0 0 25.1 -60.425zm-92.845-1.957a211.04 211.04 0 0 1 -28.207 67.922l-4.543 7.13 38.915 54.486-38.12 38.126-54.5-38.926-7.124 4.537a210.98 210.98 0 0 1 -67.922 28.213l-8.255 1.834-10.992 65.966h-53.919l-10.994-65.965-8.255-1.834a210.98 210.98 0 0 1 -67.922 -28.213l-7.124-4.537-54.493 38.925-38.125-38.126 38.92-54.482-4.543-7.13a211.04 211.04 0 0 1 -28.207 -67.922l-1.828-8.255-65.971-10.998v-53.931l65.971-10.994 1.828-8.255a211.04 211.04 0 0 1 28.207 -67.922l4.543-7.13-38.92-54.481 38.125-38.131 54.494 38.931 7.124-4.537a210.98 210.98 0 0 1 67.922 -28.213l8.255-1.834 10.994-65.965h53.919l10.992 65.96 8.255 1.834a210.98 210.98 0 0 1 67.922 28.213l7.123 4.542 54.5-38.931 38.12 38.131-38.92 54.482 4.543 7.13a211.04 211.04 0 0 1 28.207 67.922l1.828 8.255 65.971 10.994v53.931l-65.971 10.994z" fill="#fff" data-name="Path 501"/>
</g>
</g>
<g transform="translate(175.32 175.32)" data-name="Group 120">
<g transform="translate(0)" data-name="Group 119">
<path d="m125.23 0a125.23 125.23 0 1 0 125.23 125.23 125.37 125.37 0 0 0 -125.23 -125.23zm0 225.41a100.18 100.18 0 1 1 100.18 -100.18 100.3 100.3 0 0 1 -100.18 100.18z" fill="#fff" data-name="Path 502"/>
</g>
</g>
</g>
<g transform="translate(1842.8 821.93) rotate(22)" opacity=".27">
<path transform="translate(0)" d="M446.677,378.613l-65.218-106.49a42.371,42.371,0,0,0-14.1-82.379,41.876,41.876,0,0,0-19.622,5.051L267.269,69.217a42.358,42.358,0,1,0-62.663,3.365L128.978,190.633a41.78,41.78,0,0,0-8.616-.9,42.353,42.353,0,0,0-13.278,82.613L44.076,375.195c-.552-.017-1.044-.164-1.6-.164a42.681,42.681,0,1,0,15.862,3.136l62.482-101.958,64.113,104.633a42.284,42.284,0,1,0,14.726-2.236l-65.237-106.49a42.171,42.171,0,0,0,7.511-76.274L215.873,80.452a41.336,41.336,0,0,0,41.005-2L336.7,203.024a42.14,42.14,0,0,0,17.386,69.335L291.108,375.2c-.562-.017-1.044-.164-1.614-.164a42.647,42.647,0,1,0,15.886,3.136l62.465-101.958,64.113,104.633a42.318,42.318,0,1,0,14.718-2.231Zm-375.441,38.9a28.755,28.755,0,1,1-28.757-28.737A28.778,28.778,0,0,1,71.236,417.512Zm155.858,3.444a28.746,28.746,0,1,1-28.737-28.737A28.756,28.756,0,0,1,227.094,420.957ZM120.353,260.979a28.746,28.746,0,1,1,28.754-28.754A28.77,28.77,0,0,1,120.353,260.979ZM318.244,417.512A28.734,28.734,0,1,1,289.5,388.775,28.771,28.771,0,0,1,318.244,417.512ZM205.8,42.493a28.751,28.751,0,1,1,28.737,28.754A28.77,28.77,0,0,1,205.8,42.493ZM338.65,232.224a28.737,28.737,0,1,1,28.721,28.754A28.763,28.763,0,0,1,338.65,232.224ZM445.4,449.694a28.737,28.737,0,1,1,28.72-28.737A28.77,28.77,0,0,1,445.4,449.694Z" fill="#fff" data-name="Path 518"/>
</g>
<g transform="matrix(-.695 .719 -.719 -.695 1940.8 596.45)" opacity=".2" data-name="gear">
<g transform="translate(0)" data-name="Group 118">
<g data-name="Group 117">
<path d="m328.4 190.52v-52.635l-38.451-6.414a128.77 128.77 0 0 0 -13.713 -33.012l22.681-31.755-37.225-37.216-31.756 22.683a128.53 128.53 0 0 0 -33.009 -13.717l-6.407-38.45h-52.642l-6.407 38.451a128.53 128.53 0 0 0 -33.009 13.716l-31.756-22.683-37.225 37.216 22.683 31.755a128.78 128.78 0 0 0 -13.713 33.012l-38.451 6.414v52.635l38.451 6.414a128.77 128.77 0 0 0 13.713 33.012l-22.683 31.758 37.225 37.215 31.756-22.685a128.52 128.52 0 0 0 33.009 13.717l6.407 38.451h52.642l6.407-38.451a128.52 128.52 0 0 0 33.009 -13.717l31.756 22.683 37.225-37.213-22.683-31.756a128.78 128.78 0 0 0 13.713 -33.012zm-50.724-1.069a115.3 115.3 0 0 1 -15.41 37.108l-2.482 3.9 21.263 29.765-20.829 20.832-29.772-21.266-3.892 2.479a115.26 115.26 0 0 1 -37.108 15.414l-4.51 1-6.006 36.039h-29.46l-6.006-36.039-4.51-1a115.26 115.26 0 0 1 -37.108 -15.414l-3.892-2.479-29.772 21.262-20.829-20.833 21.264-29.765-2.482-3.9a115.3 115.3 0 0 1 -15.41 -37.108l-1-4.51-36.042-6.006v-29.459l36.042-6.006 1-4.51a115.3 115.3 0 0 1 15.41 -37.108l2.482-3.9-21.264-29.761 20.829-20.832 29.772 21.267 3.892-2.479a115.26 115.26 0 0 1 37.108 -15.414l4.51-1 6.006-36.039h29.458l6.006 36.039 4.51 1a115.26 115.26 0 0 1 37.108 15.414l3.892 2.479 29.771-21.267 20.829 20.832-21.263 29.765 2.482 3.9a115.3 115.3 0 0 1 15.41 37.108l1 4.51 36.042 6.006v29.464l-36.042 6.006z" fill="#fff" data-name="Path 501"/>
</g>
</g>
<g transform="translate(95.783 95.783)" data-name="Group 120">
<g transform="translate(0)" data-name="Group 119">
<path d="M68.416,0a68.416,68.416,0,1,0,68.416,68.416A68.495,68.495,0,0,0,68.416,0Zm0,123.149a54.733,54.733,0,1,1,54.733-54.733A54.8,54.8,0,0,1,68.416,123.149Z" fill="#fff" data-name="Path 502"/>
</g>
</g>
</g>
</g>
</svg>
