<svg xmlns="http://www.w3.org/2000/svg" width="1000" height="1000" xmlns:v="https://vecta.io/nano"><style><![CDATA[.B{font-weight:700}.C{fill:#f7df1e}.D{fill:#00d8ff}.E{fill:#e23237}.F{font-family:SegoeUI-Bold, Segoe UI}.G{font-size:160px}.H{font-family:Arial-BoldMT, Arial}]]></style><defs><clipPath id="A"><path d="M0 0h1000v1000H0z"/></clipPath></defs><g clip-path="url(#A)"><path fill="#fff" d="M0 0h1000v1000H0z"/><path d="M424.56 401.13l227.1 116.8-180.287 181.935C391.84 619.43 373.434 502.4 424.56 401.13z" class="C"/><path d="M617.873 233.527l39.825 254.01-227.1-116.8c38.425-75.88 103.868-123.86 187.285-137.21z" class="D"/><path d="M687.836 517.933L648.01 263.92c83.418-13.352 160.377 11.94 220.114 72.187 99.563 100.41 99.563 263.347 0 363.757-47.596 48.187-112.505 75.308-180.235 75.308s-132.64-27.12-180.235-75.308z" class="E"/><text font-size="30" class="B D F"><tspan x="447" y="256">15%</tspan></text><text font-size="30" class="B C F"><tspan x="314" y="564">20%</tspan></text><text font-size="30" class="B E F"><tspan x="898" y="736">65%</tspan></text><path d="M74 122h178v178H74z" class="E"/><path d="M74 411h178v178H74z" class="D"/><path d="M74 704h178v178H74z" class="C"/><text fill="#fff" class="B G H"><tspan x="105" y="267">A</tspan><tspan x="105" y="556">B</tspan><tspan x="105" y="849">C</tspan></text></g></svg>