<svg xmlns="http://www.w3.org/2000/svg" width="500" height="270"><style><![CDATA[.E{font-family:SegoeUI-Bold,Segoe UI}.F{font-weight:700}.G{fill:#f7df1e}.H{fill:#00d8ff}]]></style><defs><clipPath id="A"><path d="M0 0h500v270H0z"/></clipPath></defs><g clip-path="url(#A)"><path fill="#fff" d="M0 0h500v270H0z"/><path d="M0 0h500v30H0zm0 240h500v30H0z"/><path d="M306.814 101.776l71.5 36.78-56.77 57.288c-25.043-25.328-30.84-62.176-14.74-94.067z" class="G"/><path d="M367.686 49l12.54 79.985-71.514-36.78c12.1-23.893 32.707-39.002 58.974-43.206z" class="H"/><g fill="#e23237"><path d="M389.716 138.555L377.18 58.57c26.267-4.2 50.5 3.76 69.3 22.73 31.353 31.744 31.353 82.798 0 114.542a79.77 79.77 0 0 1-113.511.001zM194.4 113.708l29.406-10.474L254 113.522l-4.9 38.906-25.304 14.016-24.912-13.83z"/></g><path d="M254.004 113.522l-30.198-10.288v63.2l25.308-13.993 4.9-38.93z" fill="#b52e31"/><path d="M223.852 110.612L205.53 151.38l6.845-.116 3.68-9.2H232.5l4.025 9.316 6.542.116-19.205-40.884zm.047 13.062l6.193 12.945h-11.64z" fill="#fff"/><path d="M111 108h53v53h-53z" fill="#222"/><circle cx="137.5" cy="134.5" r="4.392" class="H"/><g fill="none" stroke="#00d8ff" stroke-miterlimit="10" stroke-width="1.447"><path d="M137.5 125.423a49.04 49.04 0 0 1 15.666 2.343c4.978 1.757 8.052 4.392 8.052 6.735 0 2.5-3.22 5.27-8.638 7.028a50.75 50.75 0 0 1-15.08 2.05 52.13 52.13 0 0 1-15.373-2.05c-5.27-1.757-8.345-4.54-8.345-7.028 0-2.342 2.928-4.978 7.906-6.735a49.34 49.34 0 0 1 15.812-2.343z"/><path d="M129.594 129.96a49.38 49.38 0 0 1 9.8-12.445c3.953-3.514 7.76-4.83 9.8-3.66 2.2 1.17 2.93 5.417 1.757 10.98a49.82 49.82 0 0 1-5.71 14.055c-2.927 4.978-6.15 9.37-9.516 12.3-4.1 3.66-8.2 4.978-10.25 3.66-2.05-1.17-2.782-4.978-1.9-10.25a63.15 63.15 0 0 1 6-14.641z"/><path d="M129.6 139.04a52.61 52.61 0 0 1-5.856-14.64c-1.025-5.27-.292-9.224 1.757-10.4 2.2-1.17 6.15.146 10.4 3.953 3.22 2.782 6.442 7.174 9.37 12.006 2.928 4.978 5.125 10.1 5.856 14.348 1.025 5.417.147 9.517-1.9 10.688s-5.7 0-9.663-3.514c-3.996-3.558-7.362-7.765-9.956-12.445z"/></g><path d="M27.558 108.158H80.4V161H27.558z" class="G"/><path d="M41.452 152.317l4.044-2.447c.78 1.383 1.5 2.554 3.192 2.554 1.632 0 2.66-.638 2.66-3.12V132.42h4.966v16.955c0 5.143-3.015 7.484-7.414 7.484a7.71 7.71 0 0 1-7.45-4.54m17.56-.532l4.043-2.34a5.4 5.4 0 0 0 4.9 3.015c2.058 0 3.37-1.03 3.37-2.448 0-1.7-1.348-2.306-3.618-3.3l-1.246-.53c-3.583-1.525-5.96-3.44-5.96-7.484 0-3.725 2.838-6.562 7.272-6.562a7.34 7.34 0 0 1 7.06 3.973l-3.867 2.483c-.85-1.525-1.773-2.128-3.192-2.128a2.16 2.16 0 0 0-2.377 2.128c0 1.5.922 2.093 3.05 3.015l1.24.532c4.22 1.8 6.6 3.654 6.6 7.8 0 4.47-3.512 6.917-8.23 6.917-4.6 0-7.6-2.2-9.045-5.072"/><text fill="#fff" font-size="20" class="E F"><tspan x="14" y="22">Votes: 357</tspan></text><text font-size="10" class="E F H"><tspan x="314" y="57">15%</tspan></text><text font-size="10" class="E F G"><tspan x="272" y="154">20%</tspan></text><text fill="#e23237" font-size="10" class="E F"><tspan x="456" y="208">65%</tspan></text></g></svg>