<svg xmlns="http://www.w3.org/2000/svg" xmlns:xlink="http://www.w3.org/1999/xlink" width="1920" height="1080" viewBox="0 0 1920 1080"><defs><linearGradient id="a" x1="0.606" y1="0.047" x2="-0.079" y2="0.9" gradientUnits="objectBoundingBox"><stop offset="0" stop-color="#2ba6f8"/><stop offset="1" stop-color="#090909"/><stop offset="1"/></linearGradient><linearGradient id="b" x1="0.606" y1="0.047" x2="-0.079" y2="0.9" gradientUnits="objectBoundingBox"><stop offset="0" stop-color="#2ba6f8"/><stop offset="1"/></linearGradient><clipPath id="d"><rect width="1920" height="1080"/></clipPath></defs><g id="c" clip-path="url(#d)"><rect width="1920" height="1080" fill="#fff"/><g transform="translate(-238.09 -2.789)"><path d="M1185.418,63.794S968.517,68.536,700.6-17.331s.885,214.8,112.684,280.766c70.6,35.367,91.42,104.1,86.756,168.1-6.119,83.981-129.185,87.034-232.376,140.418C418.5,700.863,699.986,593.5,794.918,655.148S831.947,762.734,700.6,758.02c-283.645-10.178-189.564,85.769-142.181,129.23s39.231,142.779-184.01,75.632-139.31,94.988-139.31,94.988H0V63.794Z" transform="translate(0 -63.481)" fill="url(#a)"/><path d="M263.353,64S584.1,47.276,641.208,258.041c62.22,229.659-136.792,337.642-204.3,284.929s-70.569-124.364,34.519-171.647S565.947,178.3,336.176,214.676,79.826,543.4,246.295,613.354s125.9,152.3-53.158,239.823S112,1058.071,112,1058.071H0V64Z" transform="translate(0 -63.682)" fill="url(#b)"/></g><g transform="translate(121.822 194.047)"><g transform="translate(205.777 106.863)" opacity="0.4"><path d="M452.65,230.77v-3.148l81.63-47.084v3.149Z" transform="translate(-452.65 -175.798)" fill="#fff"/><path d="M495.317,178.926v3.149L482.09,189.7v-3.149Z" transform="translate(-395.498 -178.926)" fill="#fff"/><path d="M452.65,232.726v-3.149l81.63-47.084v3.149Z" transform="translate(-452.65 -172.001)" fill="#fff"/><path d="M495.317,184.792v3.148L482.09,195.57v-3.149Z" transform="translate(-395.498 -167.537)" fill="#fff"/><path d="M495.317,186.748V189.9l-13.226,7.629v-3.149Z" transform="translate(-395.498 -163.741)" fill="#fff"/><path d="M495.317,194.57v3.149l-13.226,7.629V202.2Z" transform="translate(-395.498 -148.556)" fill="#fff"/><path d="M495.317,196.525v3.149L482.09,207.3v-3.149Z" transform="translate(-395.498 -144.76)" fill="#fff"/><g transform="translate(30.132 62.257)"><path d="M462.895,229.8l51.5-29.7v3.149l-51.5,29.7Z" transform="translate(-462.895 -200.092)" fill="#fff"/></g><g transform="translate(0 56.505)"><path d="M471.606,213.06l25.874-14.924v3.149l-25.874,14.924Z" transform="translate(-415.85 -198.137)" fill="#fff"/><path d="M505.692,203.743v3.148l-53.042,30.6v-3.149Z" transform="translate(-452.65 -187.253)" fill="#fff"/></g><path d="M459.628,206.91v3.149l-6.978,4.025v-3.149Z" transform="translate(-452.65 -124.6)" fill="#fff"/><path d="M467.933,211.471l36.679-21.156v3.149L467.933,214.62Z" transform="translate(-422.982 -156.817)" fill="#fff"/><g transform="translate(24.493 1.538)"><path d="M460.977,198.352l32.773-18.9V182.6l-32.773,18.9Z" transform="translate(-460.977 -179.449)" fill="#fff"/></g><path d="M467.471,192.87l23.074-13.309v3.149l-23.074,13.309Z" transform="translate(-423.878 -177.694)" fill="#fff"/><g transform="translate(0 16.741)"><path d="M459.241,197.016l21.5-12.4v3.148l-21.5,12.4Z" transform="translate(-439.857 -184.618)" fill="#fff"/><path d="M469.32,189.365v3.149l-16.669,9.615V198.98Z" transform="translate(-452.65 -175.401)" fill="#fff"/></g><path d="M490.428,179.418v3.149l-17.385,10.028v-3.149Z" transform="translate(-413.062 -177.97)" fill="#fff"/><path d="M454.963,212.468l50.465-29.108v3.148l-50.465,29.108Z" transform="translate(-448.161 -170.319)" fill="#fff"/><path d="M464.785,206.012l32.979-19.022v3.149L464.785,209.16Z" transform="translate(-429.092 -163.272)" fill="#fff"/><path d="M454.963,209.088l26.178-15.1v3.149l-26.178,15.1Z" transform="translate(-448.161 -149.684)" fill="#fff"/><g transform="translate(9.692 56.22)"><path d="M455.945,216.812,488.49,198.04v3.149L455.945,219.96Z" transform="translate(-455.945 -198.04)" fill="#fff"/></g><path d="M473.671,202.9v3.149l-17.725,10.224v-3.149Z" transform="translate(-446.253 -132.382)" fill="#fff"/><path d="M478.233,195.952l6.383-3.682v3.149l-6.383,3.682Z" transform="translate(-402.986 -153.02)" fill="#fff"/><g transform="translate(30.132 44.497)"><path d="M496.053,195.867v3.149l-33.159,19.126v-3.149Z" transform="translate(-462.895 -190.536)" fill="#fff"/><path d="M475.091,197.819l6.528-3.765V197.2l-6.528,3.765Z" transform="translate(-439.218 -194.054)" fill="#fff"/></g><path d="M464.98,216.928l36.266-20.918v3.149L464.98,220.077Z" transform="translate(-428.714 -145.761)" fill="#fff"/></g><g transform="translate(205.777 0)" opacity="0.4"><path d="M462.61,174.356l54.848-31.762v2.79L462.61,177.147Z" transform="translate(-433.314 -142.594)" fill="#fff"/><path d="M536.794,147.247,452.65,195.916v-2.789l84.144-48.67Z" transform="translate(-452.65 -138.978)" fill="#fff"/><path d="M478.278,154.1v2.79L452.65,171.727v-2.79Z" transform="translate(-452.65 -120.266)" fill="#fff"/><path d="M462.61,177.992l54.848-31.763v2.79L462.61,180.781Z" transform="translate(-433.314 -135.54)" fill="#fff"/><path d="M536.794,150.881,452.65,199.55v-2.789l84.144-48.67Z" transform="translate(-452.65 -131.923)" fill="#fff"/><path d="M478.278,160.519,452.65,175.361v-2.79l25.628-14.841Z" transform="translate(-452.65 -113.211)" fill="#fff"/><path d="M462.61,183.991l54.848-31.763v2.79L462.61,186.781Z" transform="translate(-433.314 -123.892)" fill="#fff"/><path d="M536.794,156.881,452.65,205.55V202.76l84.144-48.669Z" transform="translate(-452.65 -120.276)" fill="#fff"/><path d="M478.278,166.52,452.65,181.36v-2.79l25.628-14.841Z" transform="translate(-452.65 -101.564)" fill="#fff"/><path d="M462.61,187.625l54.848-31.763v2.79L462.61,190.414Z" transform="translate(-433.314 -116.837)" fill="#fff"/><path d="M536.794,160.515,452.65,209.184v-2.789l84.144-48.669Z" transform="translate(-452.65 -113.221)" fill="#fff"/><path d="M478.278,170.153,452.65,184.995V182.2l25.628-14.841Z" transform="translate(-452.65 -94.509)" fill="#fff"/><path d="M462.61,193.624l54.848-31.763v2.79L462.61,196.415Z" transform="translate(-433.314 -105.19)" fill="#fff"/><path d="M536.794,166.515,452.65,215.183v-2.79l84.144-48.669Z" transform="translate(-452.65 -101.573)" fill="#fff"/><path d="M478.278,176.153,452.65,190.994V188.2l25.628-14.841Z" transform="translate(-452.65 -82.862)" fill="#fff"/><path d="M462.61,197.259,517.458,165.5v2.79L462.61,200.048Z" transform="translate(-433.314 -98.135)" fill="#fff"/><path d="M478.278,179.788,452.65,194.628v-2.79L478.278,177Z" transform="translate(-452.65 -75.807)" fill="#fff"/></g><g transform="translate(411.257 196.791)"><path d="M522.51,209.5l.079.044.006-.009C522.566,209.521,522.536,209.515,522.51,209.5Z" transform="translate(-522.51 -209.5)" fill="#bbcee1"/></g><g transform="translate(428.261 115.571)" opacity="0.4"><path d="M570.958,181.887v3.149l-13.227,7.629v-3.149Z" transform="translate(-471.139 -181.887)" fill="#fff"/><path d="M570.958,183.842v3.149l-13.227,7.629v-3.149Z" transform="translate(-471.139 -178.09)" fill="#fff"/><path d="M570.958,185.8v3.149l-13.227,7.629v-3.149Z" transform="translate(-471.139 -174.294)" fill="#fff"/><path d="M528.291,241.553V238.4l81.63-47.084v3.148Z" transform="translate(-528.291 -163.573)" fill="#fff"/><path d="M570.958,187.753V190.9l-13.227,7.629v-3.149Z" transform="translate(-471.139 -170.498)" fill="#fff"/><path d="M570.958,189.709v3.148l-13.227,7.629v-3.149Z" transform="translate(-471.139 -166.702)" fill="#fff"/><path d="M528.291,243.509V240.36l81.63-47.084v3.149Z" transform="translate(-528.291 -159.777)" fill="#fff"/><path d="M570.958,195.575v3.149l-13.227,7.629V203.2Z" transform="translate(-471.139 -155.313)" fill="#fff"/><path d="M570.958,197.53v3.149l-13.227,7.629v-3.149Z" transform="translate(-471.139 -151.517)" fill="#fff"/><path d="M570.958,205.352V208.5l-13.227,7.629v-3.149Z" transform="translate(-471.139 -136.332)" fill="#fff"/><path d="M570.958,207.308v3.149l-13.227,7.629v-3.149Z" transform="translate(-471.139 -132.536)" fill="#fff"/><g transform="translate(0 85.264)"><path d="M538.535,240.579l51.5-29.7v3.148l-51.5,29.7Z" transform="translate(-508.404 -210.875)" fill="#fff"/><path d="M555.708,221.506v3.149l-27.417,15.814V237.32Z" transform="translate(-528.291 -190.236)" fill="#fff"/></g><g transform="translate(0 79.512)"><path d="M547.247,223.843l25.873-14.924v3.149l-25.873,14.924Z" transform="translate(-491.491 -208.919)" fill="#fff"/><path d="M581.333,214.525v3.149l-53.042,30.595V245.12Z" transform="translate(-528.291 -198.036)" fill="#fff"/></g><path d="M535.269,217.692v3.149l-6.977,4.025v-3.149Z" transform="translate(-528.291 -112.376)" fill="#fff"/><path d="M543.574,222.254,580.252,201.1v3.148L543.574,225.4Z" transform="translate(-498.623 -144.592)" fill="#fff"/><path d="M548.683,197.941l21.649-12.488V188.6L548.683,201.09Z" transform="translate(-488.703 -174.962)" fill="#fff"/><g transform="translate(24.493 24.544)"><path d="M536.618,209.135l32.773-18.9v3.149l-32.773,18.9Z" transform="translate(-536.618 -190.231)" fill="#fff"/></g><path d="M543.112,203.652l23.074-13.309v3.149L543.112,206.8Z" transform="translate(-499.519 -165.47)" fill="#fff"/><g transform="translate(0 39.748)"><path d="M534.881,207.8l21.5-12.4v3.149l-21.5,12.4Z" transform="translate(-515.497 -195.4)" fill="#fff"/><path d="M544.961,200.148V203.3l-16.669,9.615v-3.149Z" transform="translate(-528.291 -186.184)" fill="#fff"/></g><path d="M566.069,190.2v3.149l-17.385,10.028v-3.149Z" transform="translate(-488.703 -165.746)" fill="#fff"/><path d="M530.6,223.251l50.465-29.108v3.149L530.6,226.4Z" transform="translate(-523.802 -158.094)" fill="#fff"/><path d="M540.426,216.794l32.979-19.022v3.149l-32.979,19.023Z" transform="translate(-504.733 -151.048)" fill="#fff"/><path d="M530.6,219.871l26.178-15.1v3.148l-26.178,15.1Z" transform="translate(-523.802 -137.46)" fill="#fff"/><g transform="translate(9.692 79.227)"><path d="M531.586,227.594l32.544-18.772v3.149l-32.544,18.772Z" transform="translate(-531.586 -208.822)" fill="#fff"/></g><path d="M549.312,213.684v3.148l-17.725,10.224v-3.148Z" transform="translate(-521.894 -120.157)" fill="#fff"/><path d="M553.874,206.735l6.383-3.682V206.2l-6.383,3.682Z" transform="translate(-478.627 -140.796)" fill="#fff"/><g transform="translate(30.132 67.504)"><path d="M571.694,206.649V209.8l-33.159,19.126v-3.149Z" transform="translate(-538.535 -201.318)" fill="#fff"/><path d="M550.732,208.6l6.528-3.765v3.149l-6.528,3.765Z" transform="translate(-514.858 -204.837)" fill="#fff"/></g><path d="M540.621,227.711l36.267-20.918v3.148l-36.267,20.919Z" transform="translate(-504.355 -133.536)" fill="#fff"/></g><path d="M430.411,211.675l40.973-23.642a3,3,0,0,1,4.5,2.6v49.047a6.693,6.693,0,0,1-3.341,5.792l-40.967,23.683a3.076,3.076,0,0,1-4.615-2.662V217.652A6.9,6.9,0,0,1,430.411,211.675Z" transform="translate(-296.751 -55.171)" fill="#fff" opacity="0.2"/><path d="M430.411,211.675l40.973-23.642a3,3,0,0,1,4.5,2.6v49.047a6.693,6.693,0,0,1-3.341,5.792l-40.967,23.683a3.076,3.076,0,0,1-4.615-2.662V217.652A6.9,6.9,0,0,1,430.411,211.675Z" transform="translate(-91.339 -176.632)" fill="#fff" opacity="0.2"/><path d="M411.387,179.445l40.973-23.639a3,3,0,0,1,4.5,2.6v49.047a6.7,6.7,0,0,1-3.341,5.791l-40.967,23.684a3.076,3.076,0,0,1-4.615-2.662V185.422A6.9,6.9,0,0,1,411.387,179.445Z" transform="translate(-333.683 -117.734)" fill="#fff" opacity="0.2"/><path d="M489.623,225.6,530.6,201.962a3,3,0,0,1,4.5,2.6v49.044a6.689,6.689,0,0,1-3.341,5.791l-40.97,23.686a3.073,3.073,0,0,1-4.612-2.662V231.581A6.9,6.9,0,0,1,489.623,225.6Z" transform="translate(-181.801 -28.13)" fill="#fff" opacity="0.2"/><g transform="translate(436.567 214.398)"><path d="M534.936,215.486m-3.821,6.633" transform="translate(-531.115 -215.486)" fill="#0b3b56"/></g><g transform="translate(38.091 458.119)"><path d="M395.64,298.347" transform="translate(-395.64 -298.347)" fill="#fff"/></g><g transform="translate(51.215 390.213)"><path d="M400.1,275.26l.079.047.006-.012C400.161,275.281,400.128,275.275,400.1,275.26Z" transform="translate(-400.102 -275.26)" fill="#bbcee1"/></g><g transform="translate(169.374 261.739)"><path d="M440.274,231.581l.079.047.006-.012C440.333,231.6,440.3,231.6,440.274,231.581Z" transform="translate(-440.274 -231.581)" fill="#bbcee1"/></g><g transform="translate(287.012 136.268)"><path d="M480.269,188.923l.077.044.009-.009C480.328,188.944,480.3,188.938,480.269,188.923Z" transform="translate(-480.269 -188.923)" fill="#bbcee1"/></g><g transform="translate(428.419 231.611)"><path d="M528.713,223.9l4.356-2.515a.319.319,0,0,1,.479.276v5.215a.714.714,0,0,1-.356.618l-4.356,2.518a.326.326,0,0,1-.491-.282v-5.194A.728.728,0,0,1,528.713,223.9Z" transform="translate(-528.345 -221.338)" fill="#ebf2eb"/><path d="M528.713,226.55l4.356-2.515a.319.319,0,0,1,.479.277v5.215a.71.71,0,0,1-.356.618l-4.356,2.518a.326.326,0,0,1-.491-.282v-5.194A.729.729,0,0,1,528.713,226.55Z" transform="translate(-528.345 -216.188)" fill="#ebf2eb"/><path d="M528.713,229.2l4.356-2.515a.32.32,0,0,1,.479.277v5.218a.709.709,0,0,1-.356.615l-4.356,2.521a.328.328,0,0,1-.491-.285v-5.194A.732.732,0,0,1,528.713,229.2Z" transform="translate(-528.345 -211.037)" fill="#ebf2eb"/><path d="M528.713,231.855l4.356-2.515a.321.321,0,0,1,.479.277v5.218a.709.709,0,0,1-.356.615l-4.356,2.521a.327.327,0,0,1-.491-.285V232.49A.732.732,0,0,1,528.713,231.855Z" transform="translate(-528.345 -205.886)" fill="#ebf2eb"/></g><g transform="translate(124.263 261.825)" opacity="0.4"><path d="M467.6,231.61v3.148l-13.227,7.629v-3.149Z" transform="translate(-367.785 -231.61)" fill="#fff"/><path d="M467.6,233.566v3.149l-13.227,7.629v-3.149Z" transform="translate(-367.785 -227.814)" fill="#fff"/><path d="M467.6,235.521v3.149L454.377,246.3V243.15Z" transform="translate(-367.785 -224.018)" fill="#fff"/><path d="M424.937,291.276v-3.149l81.63-47.084v3.149Z" transform="translate(-424.937 -213.297)" fill="#fff"/><path d="M467.6,237.477v3.149l-13.227,7.629v-3.149Z" transform="translate(-367.785 -220.222)" fill="#fff"/><path d="M467.6,239.432v3.149l-13.227,7.629v-3.149Z" transform="translate(-367.785 -216.425)" fill="#fff"/><path d="M424.937,293.232v-3.149L506.567,243v3.148Z" transform="translate(-424.937 -209.501)" fill="#fff"/><path d="M467.6,245.3v3.149l-13.227,7.629v-3.149Z" transform="translate(-367.785 -205.037)" fill="#fff"/><path d="M467.6,247.254V250.4l-13.227,7.629v-3.149Z" transform="translate(-367.785 -201.241)" fill="#fff"/><path d="M467.6,255.076v3.149l-13.227,7.629V262.7Z" transform="translate(-367.785 -186.056)" fill="#fff"/><path d="M467.6,257.031v3.149l-13.227,7.629V264.66Z" transform="translate(-367.785 -182.259)" fill="#fff"/><g transform="translate(0 85.263)"><path d="M435.181,290.3l51.5-29.7v3.149l-51.5,29.7Z" transform="translate(-405.049 -260.598)" fill="#fff"/><path d="M452.354,271.229v3.149l-27.417,15.814v-3.149Z" transform="translate(-424.937 -239.959)" fill="#fff"/></g><g transform="translate(0 79.511)"><path d="M443.893,273.567l25.874-14.924v3.149l-25.874,14.924Z" transform="translate(-388.137 -258.643)" fill="#fff"/><path d="M477.979,264.249V267.4l-53.042,30.595v-3.149Z" transform="translate(-424.937 -247.759)" fill="#fff"/></g><path d="M431.914,267.416v3.149l-6.977,4.025V271.44Z" transform="translate(-424.937 -162.1)" fill="#fff"/><path d="M440.22,271.977,476.9,250.821v3.149L440.22,275.126Z" transform="translate(-395.268 -194.316)" fill="#fff"/><path d="M445.329,247.664l21.65-12.487v3.149l-21.65,12.488Z" transform="translate(-385.349 -224.686)" fill="#fff"/><g transform="translate(24.493 24.544)"><path d="M433.264,258.858l32.773-18.9V243.1l-32.773,18.9Z" transform="translate(-433.264 -239.955)" fill="#fff"/></g><path d="M439.758,253.376l23.074-13.31v3.149l-23.074,13.309Z" transform="translate(-396.164 -215.194)" fill="#fff"/><g transform="translate(0 39.748)"><path d="M431.527,257.522l21.5-12.4v3.149l-21.5,12.4Z" transform="translate(-412.143 -245.124)" fill="#fff"/><path d="M441.607,249.871v3.149l-16.67,9.615v-3.148Z" transform="translate(-424.937 -235.907)" fill="#fff"/></g><path d="M462.715,239.924v3.149L445.329,253.1v-3.149Z" transform="translate(-385.349 -215.47)" fill="#fff"/><path d="M427.249,272.974l50.465-29.108v3.149l-50.465,29.108Z" transform="translate(-420.448 -207.818)" fill="#fff"/><path d="M437.072,266.518,470.051,247.5v3.149l-32.979,19.023Z" transform="translate(-401.379 -200.772)" fill="#fff"/><path d="M427.249,269.595l26.178-15.1v3.149l-26.178,15.1Z" transform="translate(-420.448 -187.184)" fill="#fff"/><g transform="translate(9.692 79.227)"><path d="M428.232,277.318l32.545-18.772v3.149l-32.545,18.772Z" transform="translate(-428.232 -258.546)" fill="#fff"/></g><path d="M445.957,263.407v3.149l-17.725,10.224v-3.149Z" transform="translate(-418.54 -169.881)" fill="#fff"/><path d="M450.52,256.458l6.383-3.682v3.149l-6.383,3.682Z" transform="translate(-375.273 -190.52)" fill="#fff"/><g transform="translate(30.132 67.504)"><path d="M468.34,256.373v3.149l-33.159,19.126V275.5Z" transform="translate(-435.181 -251.042)" fill="#fff"/><path d="M447.377,258.326l6.528-3.765v3.149l-6.528,3.765Z" transform="translate(-411.504 -254.56)" fill="#fff"/></g><path d="M437.267,277.435l36.266-20.919v3.149l-36.266,20.918Z" transform="translate(-401.001 -183.26)" fill="#fff"/></g><g transform="translate(0 140.62)" opacity="0.4"><g transform="translate(0)"><path d="M426.267,164.594v3.149l-13.226,7.629v-3.149Z" transform="translate(-326.448 -164.594)" fill="#fff"/><path d="M426.267,166.549V169.7l-13.226,7.629v-3.149Z" transform="translate(-326.448 -160.797)" fill="#fff"/><path d="M426.267,168.5v3.149l-13.226,7.629v-3.149Z" transform="translate(-326.448 -157.001)" fill="#fff"/><path d="M383.6,224.26v-3.149l81.63-47.084v3.149Z" transform="translate(-383.601 -146.281)" fill="#fff"/><path d="M426.267,170.46v3.149l-13.226,7.629v-3.149Z" transform="translate(-326.448 -153.205)" fill="#fff"/><path d="M426.267,172.416v3.149l-13.226,7.629v-3.149Z" transform="translate(-326.448 -149.409)" fill="#fff"/><path d="M383.6,226.215v-3.148l81.63-47.084v3.149Z" transform="translate(-383.601 -142.484)" fill="#fff"/><path d="M426.267,178.282v3.149l-13.226,7.629v-3.148Z" transform="translate(-326.448 -138.02)" fill="#fff"/><path d="M426.267,180.238v3.149l-13.226,7.629v-3.149Z" transform="translate(-326.448 -134.224)" fill="#fff"/><path d="M426.267,188.059v3.149l-13.226,7.629v-3.149Z" transform="translate(-326.448 -119.039)" fill="#fff"/><path d="M426.267,190.015v3.149l-13.226,7.629v-3.149Z" transform="translate(-326.448 -115.243)" fill="#fff"/><g transform="translate(30.132 85.264)"><path d="M393.845,223.286l51.5-29.7v3.148l-51.5,29.7Z" transform="translate(-393.845 -193.582)" fill="#fff"/></g><g transform="translate(55.757 79.512)"><path d="M402.557,206.55l25.873-14.924v3.149L402.557,209.7Z" transform="translate(-402.557 -191.626)" fill="#fff"/></g><path d="M390.578,200.4v3.148l-6.978,4.025v-3.149Z" transform="translate(-383.601 -95.083)" fill="#fff"/><path d="M398.883,204.961,435.562,183.8v3.148L398.883,208.11Z" transform="translate(-353.932 -127.299)" fill="#fff"/><path d="M403.993,180.648l21.649-12.488v3.149L403.993,183.8Z" transform="translate(-344.012 -157.669)" fill="#fff"/><g transform="translate(24.493 24.544)"><path d="M391.928,191.842l32.773-18.9v3.149l-32.773,18.9Z" transform="translate(-391.928 -172.938)" fill="#fff"/></g><path d="M398.422,186.359,421.5,173.05V176.2l-23.074,13.309Z" transform="translate(-354.828 -148.177)" fill="#fff"/><g transform="translate(0 39.748)"><path d="M390.191,190.506l21.5-12.4v3.149l-21.5,12.4Z" transform="translate(-370.807 -178.107)" fill="#fff"/><path d="M400.27,182.855V186l-16.67,9.615V192.47Z" transform="translate(-383.601 -168.891)" fill="#fff"/></g><path d="M421.378,172.908v3.148l-17.385,10.028v-3.149Z" transform="translate(-344.012 -148.453)" fill="#fff"/><path d="M385.913,205.957l50.465-29.108V180l-50.465,29.108Z" transform="translate(-379.112 -140.801)" fill="#fff"/><path d="M395.736,199.5l32.979-19.022v3.149L395.736,202.65Z" transform="translate(-360.042 -133.755)" fill="#fff"/><path d="M385.913,202.578l26.178-15.1v3.148l-26.178,15.1Z" transform="translate(-379.112 -120.167)" fill="#fff"/><g transform="translate(9.692 79.227)"><path d="M386.9,210.3,419.44,191.53v3.149L386.9,213.45Z" transform="translate(-386.896 -191.53)" fill="#fff"/></g><path d="M404.621,196.391v3.148L386.9,209.764v-3.148Z" transform="translate(-377.204 -102.864)" fill="#fff"/><path d="M409.183,189.442l6.383-3.682v3.149l-6.383,3.682Z" transform="translate(-333.936 -123.503)" fill="#fff"/><g transform="translate(30.132 67.504)"><path d="M427,189.356v3.149l-33.159,19.126v-3.149Z" transform="translate(-393.845 -184.026)" fill="#fff"/><path d="M406.041,191.309l6.527-3.765v3.148l-6.527,3.766Z" transform="translate(-370.168 -187.544)" fill="#fff"/></g><path d="M395.931,210.418,432.2,189.5v3.148l-36.266,20.919Z" transform="translate(-359.664 -116.243)" fill="#fff"/></g></g></g><g transform="translate(649.512 385.978)"><g transform="translate(0 0)"><path d="M397.207,221.757l50.375-29.068a4.754,4.754,0,0,1,5.042.2v0l11.06,6.388-5.141,6.973-1.917,2.2V258.35a8.324,8.324,0,0,1-4.156,7.207l-37.7,21.795-.386,2.1-7.7,10.782-11.833-6.956-.058-.036-.08-.044v-.008a3.779,3.779,0,0,1-1.8-3.241l0-60.751A8.579,8.579,0,0,1,397.207,221.757Z" transform="translate(-392.91 -192.06)" fill="#00dd05"/><path d="M401.474,224.406,452.443,195a3.73,3.73,0,0,1,5.593,3.233v61.008a8.32,8.32,0,0,1-4.156,7.2l-50.96,29.465a3.826,3.826,0,0,1-5.74-3.312V231.839A8.576,8.576,0,0,1,401.474,224.406Z" transform="translate(-385.403 -187.785)" fill="#00a508"/><g transform="translate(0 34.317)"><path d="M404.687,274.992V214.238a8.468,8.468,0,0,1,.582-2.926l-11.821-6.81a8.508,8.508,0,0,0-.538,2.816l0,60.751a3.779,3.779,0,0,0,1.8,3.241v.008l.08.044.058.036,11.733,6.9A3.782,3.782,0,0,1,404.687,274.992Z" transform="translate(-392.91 -204.502)" fill="#006602"/></g></g><g transform="translate(23.671 32.164)"><path d="M418,204.316c.56.574.83,1.688.833,3.329l.022,7.293v.185c0,1.387.45,2.129,1.332,2.229a6.96,6.96,0,0,0,3.787-1.269l.014,5.075a12.785,12.785,0,0,0-3.779,3.114,6.256,6.256,0,0,0-1.318,3.961l.022,7.207a10.263,10.263,0,0,1-.814,4.3,10.839,10.839,0,0,1-2.6,3.5,27.286,27.286,0,0,1-4.929,3.473l-.014-4.8a8.074,8.074,0,0,0,2.75-2.452,5.477,5.477,0,0,0,.714-2.869l-.019-6.9v-.273c-.008-2.755,1.5-5.254,4.565-7.549l0-.27c-3.017,1.236-4.54.386-4.592-2.532l-.019-6.9c0-1.117-.257-1.785-.742-2.03s-1.4.014-2.742.736l-.014-4.8a19.413,19.413,0,0,1,4.9-2.2A2.613,2.613,0,0,1,418,204.316Z" transform="translate(-385.73 -203.721)" fill="#fff"/><path d="M405.273,229.411a5.952,5.952,0,0,0,1.288-3.74v-.188l-.022-7.29a9.8,9.8,0,0,1,1.87-6.062,21.35,21.35,0,0,1,6.5-5.194l.014,4.8a8.115,8.115,0,0,0-2.753,2.433,5.394,5.394,0,0,0-.714,2.871l.022,6.9q-.079,4.468-4.609,7.847v.27c1.5-.6,2.653-.72,3.437-.339s1.2,1.255,1.2,2.642l0,.2.019,6.9c0,1.117.24,1.809.728,2.055.485.226,1.415-.022,2.755-.745l.014,4.8c-3.078,1.776-5.243,2.535-6.512,2.3s-1.892-1.536-1.9-3.9l-.022-7.207c0-1.506-.45-2.317-1.3-2.449s-2.121.292-3.787,1.255l-.014-5.075A12.877,12.877,0,0,0,405.273,229.411Z" transform="translate(-401.492 -198.068)" fill="#fff"/></g></g><g transform="translate(649.31 284.525)"><g transform="translate(0)"><path d="M25.056,264.791l48.738-28.124a4.6,4.6,0,0,1,4.878.192h0l10.7,6.178L84.4,249.785l-1.855,2.124v48.285a8.055,8.055,0,0,1-4.022,6.97l-36.476,21.09-.374,2.028-7.445,10.431-11.448-6.733-.056-.032-.077-.045V333.9a3.659,3.659,0,0,1-1.745-3.135l0-58.78A8.3,8.3,0,0,1,25.056,264.791Z" transform="translate(-20.898 -236.058)" fill="#ffc73b"/><path d="M29.323,267.431l49.312-28.455a3.61,3.61,0,0,1,5.412,3.128v59.028a8.049,8.049,0,0,1-4.021,6.97l-49.3,28.505a3.7,3.7,0,0,1-5.553-3.2v-58.78A8.3,8.3,0,0,1,29.323,267.431Z" transform="translate(-13.773 -232.002)" fill="#f9b800"/><g transform="translate(0 33.203)"><path d="M25.867,275.26l.069.043.008-.011C25.918,275.279,25.891,275.273,25.867,275.26Z" transform="translate(-12.607 -203.849)" fill="#bbcee1"/><path d="M32.293,316.7V257.92a8.2,8.2,0,0,1,.563-2.834L21.418,248.5a8.2,8.2,0,0,0-.52,2.722l0,58.78a3.659,3.659,0,0,0,1.745,3.136v.005l.077.045.056.032,11.352,6.674A3.663,3.663,0,0,1,32.293,316.7Z" transform="translate(-20.898 -248.5)" fill="#ce8900"/></g><g transform="translate(17.65 42.471)"><path d="M54.473,254.514,39.2,271.1l-.012-4.227L49.713,255.8l-10.558.478-.012-4.253,15.322-.05Z" transform="translate(-8.104 -251.973)" fill="#fff"/><path d="M46.545,273.992l-4.262,2.461L33.8,255.41l4.274-2.468Z" transform="translate(-17.023 -250.356)" fill="#fff"/><path d="M42.8,255.4l.012,4.253-10.537,11.7,10.567-1.1.012,4.227-15.331,1.083-.007-2.541Z" transform="translate(-27.512 -246.254)" fill="#fff"/></g></g></g><g transform="translate(611.79 177.882)"><path d="M129.478,171.1v2.931l-12.313,7.1v-2.931Z" transform="translate(-63.827 -112.553)" fill="#fff"/><path d="M129.478,173.06v2.931l-12.313,7.1v-2.931Z" transform="translate(-63.827 -109.155)" fill="#fff"/><path d="M129.478,175.015v2.931l-12.313,7.1v-2.931Z" transform="translate(-63.827 -105.756)" fill="#fff"/><line y2="2.931" transform="translate(48.718 84.38)" fill="#fff"/><path d="M129.478,176.971V179.9L117.165,187v-2.931Z" transform="translate(-63.827 -102.357)" fill="#fff"/><path d="M129.478,178.926v2.931l-12.313,7.1v-2.931Z" transform="translate(-63.827 -98.958)" fill="#fff"/><line y2="2.931" transform="translate(48.718 89.734)" fill="#fff"/><path d="M129.478,184.792v2.931l-12.313,7.1v-2.931Z" transform="translate(-63.827 -88.762)" fill="#fff"/><line y2="2.931" transform="translate(48.718 111.151)" fill="#fff"/><line y2="2.931" transform="translate(34.79 81.705)" fill="#fff"/><line y2="2.931" transform="translate(36.656 102.046)" fill="#fff"/><path d="M97.685,153.393" transform="translate(-97.685 -143.337)" fill="#fff"/><line y2="2.598" transform="translate(51.059 11.967)" fill="#fff"/><line y2="2.597" transform="translate(51.059 16.817)" fill="#fff"/><line y2="2.597" transform="translate(51.059 21.917)" fill="#fff"/><line y2="2.597" transform="translate(51.059 33.245)" fill="#fff"/><line y2="2.597" transform="translate(51.059 38.346)" fill="#fff"/><line y2="2.598" transform="translate(51.059 43.195)" fill="#fff"/><line y2="2.598" transform="translate(51.059 48.295)" fill="#fff"/><g transform="translate(34.746)"><path d="M114.641,179.2l50.006-28.859a4.725,4.725,0,0,1,5.005.2h0l10.98,6.339-5.1,6.922-1.9,2.182v49.543a8.262,8.262,0,0,1-4.129,7.152L132.072,244.32l-.383,2.081-7.637,10.7L112.305,250.2l-.06-.033-.079-.047v-.006a3.754,3.754,0,0,1-1.791-3.217V186.582A8.515,8.515,0,0,1,114.641,179.2Z" transform="translate(-110.375 -149.72)" fill="#f94848"/><path d="M118.91,181.848l50.6-29.2a3.7,3.7,0,0,1,5.553,3.209v60.566a8.259,8.259,0,0,1-4.126,7.152l-50.591,29.248a3.8,3.8,0,0,1-5.7-3.286l0-60.314A8.516,8.516,0,0,1,118.91,181.848Z" transform="translate(-102.955 -145.495)" fill="#f70000"/><g transform="translate(0 34.067)"><path d="M115.344,188.923l.071.041.005-.008C115.4,188.942,115.369,188.937,115.344,188.923Z" transform="translate(-101.738 -115.649)" fill="#bbcee1"/><path d="M122.067,232.142l0-60.314a8.409,8.409,0,0,1,.581-2.905l-11.738-6.76a8.443,8.443,0,0,0-.531,2.8v60.312a3.751,3.751,0,0,0,1.793,3.217v.006l.077.047.06.033,11.648,6.848A3.752,3.752,0,0,1,122.067,232.142Z" transform="translate(-110.375 -162.162)" fill="#c40000"/></g></g><g transform="translate(51.665 38.346)"><path d="M126.2,191.209a11.546,11.546,0,0,0,2.281-1.785c.772-.756,1.542-1.561,2.314-2.426l1.418,3.25a24.819,24.819,0,0,1-6,5.12,8.85,8.85,0,0,1-5.123,1.481,4.166,4.166,0,0,1-3.349-2.314,11.821,11.821,0,0,1-1.186-5.761,21.783,21.783,0,0,1,2.341-10.328,17.452,17.452,0,0,1,6.842-7.07,14.472,14.472,0,0,1,5.643-2.048l.011,4.195a15.842,15.842,0,0,0-5.238,1.777q-5.142,2.969-5.128,10.857c.008,2.527.463,4.233,1.364,5.128S124.563,192.156,126.2,191.209Z" transform="translate(-116.554 -153.984)" fill="#fff"/><path d="M135.71,165.495l3.066-1.77.018,6.29,5.432-3.137.01,3.535-5.432,3.136.018,6.206-3.065,1.77-.018-6.206-5.432,3.136-.01-3.535,5.432-3.136Z" transform="translate(-92.67 -163.725)" fill="#fff"/><path d="M129.481,175.445l-.018-6.29,3.076-1.776.018,6.29,5.422-3.13.01,3.534-5.422,3.13.017,6.206-3.076,1.776-.018-6.206-5.422,3.13-.01-3.535Z" transform="translate(-103.509 -157.375)" fill="#fff"/></g></g><g transform="translate(260.592 278.956)"><g transform="translate(0 0)"><g transform="translate(0)"><g transform="translate(153.901 362.79)"><path d="M394.416,310.329l-60.437-34.966a9.173,9.173,0,0,0-9.185-.012L138.167,383.287a4.045,4.045,0,0,0-.012,7l58.949,34.1a10.887,10.887,0,0,0,10.916.012L394.41,316.6A3.621,3.621,0,0,0,394.416,310.329Z" transform="translate(-136.144 -274.125)" fill="#0f4463"/><path d="M394.41,283.726l-186.39,107.8a10.886,10.886,0,0,1-10.916-.012l-58.949-34.1a4.006,4.006,0,0,1-2.011-3.481v7.235h.012a3.994,3.994,0,0,0,2,3.414l58.949,34.1a10.9,10.9,0,0,0,10.916.012l186.39-107.8a3.586,3.586,0,0,0,1.81-3.159h0V280.6A3.587,3.587,0,0,1,394.41,283.726Z" transform="translate(-136.145 -241.252)" fill="#0b3b56"/><g transform="translate(53.641 6.661)"><path d="M182.332,279.611l-7.567-4.389-8.6,4.96,7.542,4.376Z" transform="translate(-37.439 -275.222)" fill="#1f5e77"/><path d="M180.565,280.628,173,276.238l-8.6,4.959,7.542,4.377Z" transform="translate(-46.4 -270.064)" fill="#1f5e77"/><path d="M178.8,281.644l-7.567-4.39-8.6,4.959,7.542,4.376Z" transform="translate(-55.361 -264.905)" fill="#1f5e77"/><path d="M177.033,282.661l-7.568-4.39-8.6,4.96,7.542,4.376Z" transform="translate(-64.323 -259.748)" fill="#1f5e77"/><path d="M175.268,283.677l-7.567-4.389-8.6,4.96,7.542,4.376Z" transform="translate(-73.284 -254.589)" fill="#1f5e77"/><path d="M173.5,284.694l-7.568-4.39-8.6,4.959,7.543,4.377Z" transform="translate(-82.245 -249.43)" fill="#1f5e77"/><path d="M171.737,285.711l-7.568-4.39-8.6,4.96,7.543,4.376Z" transform="translate(-91.207 -244.272)" fill="#1f5e77"/><path d="M169.972,286.727l-7.568-4.39-8.6,4.959,7.544,4.378Z" transform="translate(-100.169 -239.114)" fill="#1f5e77"/><path d="M168.2,287.744l-7.568-4.39-8.6,4.96,7.543,4.377Z" transform="translate(-109.129 -233.955)" fill="#1f5e77"/><path d="M166.439,288.759l-7.567-4.39-8.6,4.959,7.543,4.376Z" transform="translate(-118.091 -228.797)" fill="#1f5e77"/><path d="M164.674,289.776l-7.568-4.39-8.6,4.961,7.543,4.376Z" transform="translate(-127.052 -223.639)" fill="#1f5e77"/><path d="M162.908,290.794,155.34,286.4l-8.6,4.96,7.543,4.376Z" transform="translate(-136.014 -218.481)" fill="#1f5e77"/><path d="M153.575,287.419l-8.6,4.961,7.544,4.376,8.622-4.946Z" transform="translate(-144.975 -213.322)" fill="#1f5e77"/><path d="M175.321,285.491l8.623-4.945-7.567-4.39-8.6,4.96Z" transform="translate(-29.26 -270.484)" fill="#1f5e77"/><path d="M166.012,282.131l7.542,4.377,8.624-4.947-7.567-4.389Z" transform="translate(-38.221 -265.326)" fill="#1f5e77"/><path d="M164.246,283.148l7.542,4.376,8.623-4.945-7.566-4.39Z" transform="translate(-47.182 -260.167)" fill="#1f5e77"/><path d="M162.48,284.165l7.543,4.376,8.623-4.947-7.567-4.389Z" transform="translate(-56.144 -255.009)" fill="#1f5e77"/><path d="M160.714,285.181l7.543,4.377,8.622-4.947-7.567-4.389Z" transform="translate(-65.105 -249.85)" fill="#1f5e77"/><path d="M158.948,286.2l7.542,4.377,8.624-4.947-7.567-4.39Z" transform="translate(-74.065 -244.692)" fill="#1f5e77"/><path d="M157.182,287.215l7.543,4.376,8.623-4.947-7.568-4.39Z" transform="translate(-83.027 -239.535)" fill="#1f5e77"/><path d="M155.416,288.23l7.543,4.377,8.624-4.947-7.568-4.39Z" transform="translate(-91.989 -234.376)" fill="#1f5e77"/><path d="M153.651,289.246l7.542,4.376,8.624-4.946-7.569-4.39Z" transform="translate(-100.95 -229.218)" fill="#1f5e77"/><path d="M151.885,290.264l7.542,4.376,8.623-4.946-7.567-4.391Z" transform="translate(-109.912 -224.06)" fill="#1f5e77"/><path d="M150.119,291.28l7.544,4.376,8.622-4.946-7.567-4.39Z" transform="translate(-118.873 -218.901)" fill="#1f5e77"/><path d="M148.353,292.3l7.544,4.377,8.622-4.947-7.567-4.389Z" transform="translate(-127.834 -213.742)" fill="#1f5e77"/><path d="M155.186,288.353l-8.6,4.959,7.544,4.377,8.623-4.947Z" transform="translate(-136.795 -208.584)" fill="#1f5e77"/><path d="M176.933,286.426l8.624-4.946-7.568-4.39-8.6,4.96Z" transform="translate(-21.081 -265.746)" fill="#1f5e77"/><path d="M167.624,283.065l7.543,4.377,8.623-4.946-7.567-4.39Z" transform="translate(-30.042 -260.587)" fill="#1f5e77"/><path d="M182.024,283.512l-7.567-4.39-8.6,4.96,7.543,4.376Z" transform="translate(-39.003 -255.43)" fill="#1f5e77"/><path d="M164.092,285.1l7.542,4.376,8.622-4.947-7.566-4.39Z" transform="translate(-47.964 -250.271)" fill="#1f5e77"/><path d="M162.326,286.115l7.543,4.376,8.624-4.945-7.567-4.391Z" transform="translate(-56.926 -245.113)" fill="#1f5e77"/><path d="M160.56,287.132l7.543,4.375,8.624-4.946-7.567-4.39Z" transform="translate(-65.887 -239.954)" fill="#1f5e77"/><path d="M158.794,288.148l7.542,4.376,8.624-4.945-7.568-4.391Z" transform="translate(-74.847 -234.796)" fill="#1f5e77"/><path d="M157.028,289.164l7.544,4.377,8.623-4.946-7.568-4.39Z" transform="translate(-83.809 -229.638)" fill="#1f5e77"/><path d="M155.262,290.18l7.542,4.376,8.623-4.946-7.568-4.389Z" transform="translate(-92.77 -224.479)" fill="#1f5e77"/><path d="M153.5,291.2l7.543,4.376,8.623-4.947-7.567-4.389Z" transform="translate(-101.732 -219.321)" fill="#1f5e77"/><path d="M151.731,292.214l7.543,4.377,8.623-4.947-7.568-4.389Z" transform="translate(-110.693 -214.163)" fill="#1f5e77"/><path d="M166.13,292.66l-7.567-4.39-8.6,4.96,7.543,4.376Z" transform="translate(-119.654 -209.005)" fill="#1f5e77"/><path d="M156.8,289.287l-8.6,4.96,7.542,4.376,8.623-4.947Z" transform="translate(-128.616 -203.846)" fill="#1f5e77"/><path d="M178.544,287.359l8.623-4.947-7.567-4.389-8.6,4.959Z" transform="translate(-12.901 -261.008)" fill="#1f5e77"/><path d="M185.4,283.429l-7.567-4.39-8.6,4.959,7.544,4.377Z" transform="translate(-21.862 -255.849)" fill="#1f5e77"/><path d="M183.636,284.446l-7.568-4.391-8.6,4.959,7.543,4.376Z" transform="translate(-30.823 -250.691)" fill="#1f5e77"/><path d="M181.869,285.461l-7.567-4.389-8.6,4.959,7.542,4.377Z" transform="translate(-39.784 -245.533)" fill="#1f5e77"/><path d="M180.1,286.477l-7.567-4.389-8.6,4.96,7.544,4.377Z" transform="translate(-48.746 -240.375)" fill="#1f5e77"/><path d="M178.338,287.495l-7.568-4.39-8.6,4.96,7.543,4.376Z" transform="translate(-57.707 -235.216)" fill="#1f5e77"/><path d="M176.572,288.511,169,284.121l-8.6,4.961,7.543,4.375Z" transform="translate(-66.669 -230.058)" fill="#1f5e77"/><path d="M174.807,289.528l-7.568-4.39-8.6,4.96,7.544,4.377Z" transform="translate(-75.63 -224.899)" fill="#1f5e77"/><path d="M173.04,290.545l-7.568-4.39-8.6,4.96,7.544,4.376Z" transform="translate(-84.591 -219.741)" fill="#1f5e77"/><path d="M171.274,291.561l-7.567-4.39-8.6,4.96,7.543,4.376Z" transform="translate(-93.552 -214.583)" fill="#1f5e77"/><path d="M169.509,292.578l-7.567-4.39-8.6,4.96,7.544,4.376Z" transform="translate(-102.514 -209.425)" fill="#1f5e77"/><path d="M167.742,293.594l-7.567-4.39-8.6,4.96,7.542,4.376Z" transform="translate(-111.475 -204.267)" fill="#1f5e77"/><path d="M158.409,290.22l-8.6,4.96,7.543,4.376,8.623-4.946Z" transform="translate(-120.436 -199.108)" fill="#1f5e77"/><path d="M180.155,288.292l8.624-4.946-7.568-4.39-8.6,4.959Z" transform="translate(-4.721 -256.27)" fill="#1f5e77"/><path d="M187.013,284.363l-7.568-4.39-8.6,4.96,7.542,4.376Z" transform="translate(-13.682 -251.111)" fill="#1f5e77"/><path d="M185.246,285.379l-7.567-4.39-8.6,4.959,7.542,4.377Z" transform="translate(-22.644 -245.953)" fill="#1f5e77"/><path d="M183.481,286.4l-7.568-4.39-8.6,4.96,7.542,4.376Z" transform="translate(-31.605 -240.795)" fill="#1f5e77"/><path d="M181.715,287.412l-7.567-4.39-8.6,4.961,7.542,4.375Z" transform="translate(-40.566 -235.637)" fill="#1f5e77"/><path d="M179.95,288.43l-7.567-4.391-8.6,4.96,7.543,4.377Z" transform="translate(-49.528 -230.479)" fill="#1f5e77"/><path d="M178.184,289.445l-7.567-4.389-8.6,4.96,7.543,4.377Z" transform="translate(-58.489 -225.32)" fill="#1f5e77"/><path d="M176.418,290.461l-7.567-4.39-8.6,4.959,7.542,4.377Z" transform="translate(-67.45 -220.161)" fill="#1f5e77"/><path d="M174.652,291.479l-7.567-4.391-8.6,4.96,7.544,4.377Z" transform="translate(-76.412 -215.003)" fill="#1f5e77"/><path d="M172.887,292.495l-7.567-4.39-8.6,4.96,7.544,4.377Z" transform="translate(-85.374 -209.846)" fill="#1f5e77"/><path d="M171.121,293.511l-7.568-4.389-8.6,4.96,7.543,4.376Z" transform="translate(-94.334 -204.687)" fill="#1f5e77"/><path d="M169.355,294.527l-7.567-4.39-8.6,4.96,7.544,4.376Z" transform="translate(-103.296 -199.529)" fill="#1f5e77"/><path d="M160.022,291.154l-8.6,4.961,7.544,4.376,8.623-4.946Z" transform="translate(-112.258 -194.371)" fill="#1f5e77"/><path d="M182.824,279.89l-8.6,4.959,7.543,4.377,8.623-4.946Z" transform="translate(3.458 -251.531)" fill="#1f5e77"/><path d="M172.459,285.866,180,290.242l8.623-4.945-7.568-4.39Z" transform="translate(-5.503 -246.374)" fill="#1f5e77"/><path d="M170.693,286.883l7.543,4.375,8.623-4.945-7.567-4.391Z" transform="translate(-14.464 -241.215)" fill="#1f5e77"/><path d="M168.927,287.9l7.543,4.376,8.622-4.946-7.567-4.39Z" transform="translate(-23.426 -236.057)" fill="#1f5e77"/><path d="M167.161,288.916l7.543,4.376,8.622-4.946-7.567-4.391Z" transform="translate(-32.387 -230.899)" fill="#1f5e77"/><path d="M165.4,289.931l7.542,4.376,8.624-4.946-7.567-4.389Z" transform="translate(-41.348 -225.74)" fill="#1f5e77"/><path d="M208.073,285.989l-10.725,6.175h0l-2.112,1.218-8.612,4.96,0,0-4.372,2.522-6.349,3.656-.007,0-6.771,3.905-12.554,7.23,7.542,4.376,13.124-7.55,6.227-3.571-.01-.006,6.53-3.757,4.207-2.412-.007,0,8.483-4.88,2.251-1.29h0l10.729-6.174Z" transform="translate(-86.154 -220.582)" fill="#1f5e77"/><path d="M154.8,296.031l7.544,4.377,8.623-4.946-7.567-4.39Z" transform="translate(-95.117 -194.79)" fill="#1f5e77"/><path d="M153.034,297.048l7.543,4.376,8.624-4.946-7.568-4.39Z" transform="translate(-104.078 -189.632)" fill="#1f5e77"/></g><g transform="translate(10.734 93.098)"><path d="M157.609,293.84l-7.567-4.39-8.6,4.96,7.542,4.375Z" transform="translate(-119.989 -289.451)" fill="#1f5e77"/><path d="M155.844,294.857l-7.568-4.39-8.6,4.96,7.543,4.377Z" transform="translate(-128.95 -284.292)" fill="#1f5e77"/><path d="M154.079,295.874l-7.568-4.39-8.6,4.96,7.543,4.377Z" transform="translate(-137.912 -279.134)" fill="#1f5e77"/><path d="M143.056,295.344l7.543,4.376,8.623-4.946-7.568-4.389Z" transform="translate(-111.81 -284.713)" fill="#1f5e77"/><path d="M141.29,296.361l7.541,4.377,8.624-4.947-7.567-4.39Z" transform="translate(-120.77 -279.555)" fill="#1f5e77"/><path d="M139.524,297.378l7.543,4.376,8.622-4.947-7.567-4.389Z" transform="translate(-129.732 -274.396)" fill="#1f5e77"/><path d="M144.667,296.279l7.544,4.375,8.623-4.946-7.568-4.39Z" transform="translate(-103.631 -279.975)" fill="#1f5e77"/><path d="M142.9,297.294l7.543,4.376,8.624-4.946-7.567-4.389Z" transform="translate(-112.592 -274.816)" fill="#1f5e77"/><path d="M141.136,298.311l7.542,4.376,8.624-4.946-7.567-4.39Z" transform="translate(-121.553 -269.658)" fill="#1f5e77"/><path d="M162.446,296.641l-7.567-4.39-8.6,4.96,7.544,4.377Z" transform="translate(-95.451 -275.237)" fill="#1f5e77"/><path d="M160.68,297.659l-7.567-4.39-8.6,4.961,7.543,4.376Z" transform="translate(-104.412 -270.079)" fill="#1f5e77"/><path d="M158.914,298.675l-7.568-4.39-8.6,4.961,7.544,4.375Z" transform="translate(-113.374 -264.92)" fill="#1f5e77"/><path d="M164.057,297.575l-7.567-4.39-8.6,4.96,7.543,4.375Z" transform="translate(-87.272 -270.498)" fill="#1f5e77"/><path d="M162.291,298.592l-7.567-4.39-8.6,4.959,7.543,4.377Z" transform="translate(-96.233 -265.34)" fill="#1f5e77"/><path d="M160.526,299.608l-7.568-4.39-8.6,4.96,7.544,4.377Z" transform="translate(-105.195 -260.182)" fill="#1f5e77"/><path d="M149.5,299.079l7.542,4.377,8.622-4.946-7.566-4.391Z" transform="translate(-79.092 -265.761)" fill="#1f5e77"/><path d="M147.737,300.1l7.541,4.376,8.624-4.947-7.567-4.389Z" transform="translate(-88.053 -260.602)" fill="#1f5e77"/></g></g><g transform="translate(67.672 305.381)"><path d="M332.383,300.282l-59.447-34.511a8.133,8.133,0,0,0-8.146-.006L123.741,347.172a3.588,3.588,0,0,0-.006,6.208l58.129,33.739a9.66,9.66,0,0,0,9.683.012l140.83-81.286A3.215,3.215,0,0,0,332.383,300.282Z" transform="translate(-121.95 -264.674)" fill="#1f5e77"/><path d="M332.372,273.766l-140.83,81.286a9.661,9.661,0,0,1-9.683-.013L123.731,321.3a3.547,3.547,0,0,1-1.78-3.086v7.3l.006.006a3.535,3.535,0,0,0,1.774,3.025l58.129,33.745a9.66,9.66,0,0,0,9.683.012l140.83-81.291a3.183,3.183,0,0,0,1.6-2.8h0V271A3.16,3.16,0,0,1,332.372,273.766Z" transform="translate(-121.946 -232.595)" fill="#07304b"/><path d="M277.931,273.766,137.1,355.052a9.625,9.625,0,0,1-4.422,1.269v7.241A9.614,9.614,0,0,0,137.1,362.3l140.83-81.291a3.183,3.183,0,0,0,1.6-2.8h0V271A3.16,3.16,0,0,1,277.931,273.766Z" transform="translate(-67.504 -232.595)" fill="#0b3b56"/></g><g transform="translate(108.578 274.232)"><path d="M131.2,324.425l109.626-63.437V315.3L131.2,378.693Z" transform="translate(-115.904 -252.23)" fill="#0f4463"/><path d="M238.348,259.547l15.263,8.759L143.985,331.742l-15.3-8.783Z" transform="translate(-128.684 -259.547)" fill="#07304b"/><path d="M128.684,269.985l15.3,8.784,0,54.268-15.3-8.888Z" transform="translate(-128.684 -206.574)" fill="#07304b"/></g><path d="M445.857,215.486,112.634,408.754l.007,245.212,333.216-194.04Z" transform="translate(-101.554 -208.909)" fill="#3a3a3a"/><path d="M121.89,252.925l-11.08-6.731V491.4l11.088,6.732Z" transform="translate(-110.81 -53.08)" fill="#07304b"/><path d="M455.113,220.981,443.766,214.4,110.81,407.517l11.08,6.731Z" transform="translate(-110.81 -214.403)" fill="#1f5e77"/><path d="M112.634,408.752l.006,245.211L445.855,459.926V215.486Zm7.891,4.55L437.97,229.184v226.2L120.531,640.24Z" transform="translate(-101.555 -208.91)" fill="#0b3b56"/></g><g transform="translate(28.031 42.126)"><g transform="translate(68.66 15.381)"><path d="M183.484,223.87v6.5l-27.317,15.756v-6.5Z" transform="translate(22.671 -223.87)" fill="#f5d012"/><path d="M183.484,225.826v6.5l-27.317,15.756v-6.5Z" transform="translate(22.671 -213.947)" fill="#edf0f8"/><path d="M183.484,227.781v6.5l-27.317,15.757v-6.5Z" transform="translate(22.671 -204.023)" fill="#edf0f8"/><path d="M126.727,337.05v-6.5L295.317,233.3v6.5Z" transform="translate(-126.727 -175.999)" fill="#edf0f8"/><path d="M183.484,229.737v6.5L156.167,252v-6.5Z" transform="translate(22.671 -194.1)" fill="#edf0f8"/><path d="M183.484,231.692v6.5l-27.317,15.757v-6.5Z" transform="translate(22.671 -184.176)" fill="#edf0f8"/><path d="M126.727,339v-6.5l168.59-97.243v6.5Z" transform="translate(-126.727 -166.076)" fill="#ebf2eb"/><path d="M183.484,237.558v6.5l-27.317,15.756v-6.5Z" transform="translate(22.671 -154.406)" fill="#edf0f8"/><path d="M183.484,239.514v6.5l-27.317,15.756v-6.5Z" transform="translate(22.671 -144.483)" fill="#f5d012"/><path d="M183.484,247.336v6.5l-27.317,15.756v-6.5Z" transform="translate(22.671 -104.789)" fill="#edf0f8"/><path d="M183.484,249.291v6.5L156.167,271.55v-6.5Z" transform="translate(22.671 -94.865)" fill="#edf0f8"/><g transform="translate(0 176.094)"><path d="M136.972,314.206,243.33,252.858v6.5L136.972,320.709Z" transform="translate(-74.741 -252.858)" fill="#ebf2eb"/><path d="M183.353,263.49v6.5l-56.625,32.661v-6.5Z" transform="translate(-126.727 -198.908)" fill="#edf0f8"/></g><g transform="translate(0 164.215)"><path d="M145.684,281.724,199.119,250.9v6.5l-53.435,30.822Z" transform="translate(-30.529 -250.903)" fill="#edf0f8"/><path d="M236.275,256.509v6.5L126.727,326.2v-6.5Z" transform="translate(-126.727 -222.453)" fill="#edf0f8"/></g><path d="M141.138,259.676v6.5l-14.411,8.312v-6.5Z" transform="translate(-126.727 -42.167)" fill="#edf0f8"/><path d="M142.01,286.776l75.753-43.695v6.5L142.01,293.278Z" transform="translate(-49.173 -126.382)" fill="#ed5561"/><path d="M147.12,253.227l44.713-25.79v6.5L147.12,259.73Z" transform="translate(-23.243 -205.769)" fill="#edf0f8"/><g transform="translate(50.585 50.692)"><path d="M135.054,271.256l67.686-39.042v6.5l-67.686,39.041Z" transform="translate(-135.054 -232.215)" fill="#edf0f8"/></g><path d="M141.548,259.814,189.2,232.327v6.5l-47.655,27.487Z" transform="translate(-51.514 -180.957)" fill="#edf0f8"/><g transform="translate(0 82.091)"><path d="M133.318,262.99l44.394-25.607v6.5l-44.394,25.607Z" transform="translate(-93.284 -237.384)" fill="#ed5561"/><path d="M161.156,242.131v6.5l-34.428,19.858v-6.5Z" transform="translate(-126.727 -213.291)" fill="#edf0f8"/></g><path d="M183.025,232.184v6.5L147.12,259.4v-6.5Z" transform="translate(-23.243 -181.679)" fill="#ed5561"/><path d="M129.04,296.242l104.224-60.116v6.5L129.04,302.745Z" transform="translate(-114.993 -161.676)" fill="#edf0f8"/><path d="M138.863,279.043l68.112-39.288v6.5l-68.112,39.287Z" transform="translate(-65.144 -143.258)" fill="#edf0f8"/><path d="M129.04,277.939,183.1,246.755v6.5L129.04,284.443Z" transform="translate(-114.993 -107.737)" fill="#edf0f8"/><g transform="translate(20.017 163.627)"><path d="M130.022,289.575l67.214-38.769v6.5l-67.214,38.769Z" transform="translate(-130.022 -250.806)" fill="#edf0f8"/></g><path d="M166.63,255.668v6.5l-36.608,21.116v-6.5Z" transform="translate(-110.005 -62.508)" fill="#50e85e"/><path d="M152.31,252.641l13.183-7.6v6.5l-13.183,7.6Z" transform="translate(3.097 -116.459)" fill="#edf0f8"/><g transform="translate(62.231 139.415)"><path d="M205.454,248.633v6.5l-68.482,39.5v-6.5Z" transform="translate(-136.972 -237.623)" fill="#edf0f8"/><path d="M149.168,254.6l13.482-7.776v6.5L149.168,261.1Z" transform="translate(-75.08 -246.82)" fill="#edf0f8"/></g><path d="M139.057,291.979l74.9-43.2v6.5l-74.9,43.2Z" transform="translate(-64.156 -97.481)" fill="#edf0f8"/></g><g transform="translate(0 141.209)"><path d="M131.064,244.584v1.791l-7.527,4.342v-1.792Z" transform="translate(-74.26 -244.584)" fill="#edf0f8"/><path d="M131.064,245.122v1.792l-7.527,4.341v-1.792Z" transform="translate(-74.26 -241.849)" fill="#edf0f8"/><path d="M131.064,245.661v1.792l-7.527,4.342V250Z" transform="translate(-74.26 -239.115)" fill="#edf0f8"/><path d="M115.425,275.769v-1.792l46.453-26.793v1.791Z" transform="translate(-115.425 -231.393)" fill="#edf0f8"/><path d="M131.064,246.2v1.792l-7.527,4.342v-1.792Z" transform="translate(-74.26 -236.381)" fill="#edf0f8"/><path d="M131.064,246.739v1.792l-7.527,4.342V251.08Z" transform="translate(-74.26 -233.647)" fill="#edf0f8"/><path d="M115.425,276.308v-1.791l46.453-26.795v1.792Z" transform="translate(-115.425 -228.659)" fill="#edf0f8"/><path d="M131.064,248.355v1.792l-7.527,4.341V252.7Z" transform="translate(-74.26 -225.443)" fill="#edf0f8"/><path d="M131.064,248.894v1.791l-7.527,4.342v-1.792Z" transform="translate(-74.26 -222.709)" fill="#edf0f8"/><path d="M131.064,251.049v1.792l-7.527,4.342v-1.792Z" transform="translate(-74.26 -211.772)" fill="#edf0f8"/><path d="M131.064,251.588v1.792l-7.527,4.342V255.93Z" transform="translate(-74.26 -209.038)" fill="#edf0f8"/><g transform="translate(0 48.52)"><path d="M118.247,269.475l29.306-16.9v1.792l-29.306,16.9Z" transform="translate(-101.1 -252.571)" fill="#edf0f8"/><path d="M131.027,255.5v1.792l-15.6,9V264.5Z" transform="translate(-115.425 -237.705)" fill="#edf0f8"/></g><g transform="translate(0 45.248)"><path d="M120.648,260.525l14.723-8.492v1.791l-14.723,8.492Z" transform="translate(-88.918 -252.032)" fill="#edf0f8"/><path d="M145.61,253.577v1.791l-30.185,17.411v-1.792Z" transform="translate(-115.425 -244.193)" fill="#edf0f8"/></g><path d="M119.4,254.449v1.791l-3.971,2.291V256.74Z" transform="translate(-115.425 -194.517)" fill="#edf0f8"/><path d="M119.636,261.916l20.873-12.039v1.792l-20.873,12.039Z" transform="translate(-94.055 -217.722)" fill="#edf0f8"/><path d="M121.043,252.672l12.32-7.106v1.791l-12.32,7.107Z" transform="translate(-86.91 -239.596)" fill="#edf0f8"/><g transform="translate(13.938 13.968)"><path d="M117.719,257.641l18.65-10.758v1.791l-18.65,10.758Z" transform="translate(-117.719 -246.883)" fill="#edf0f8"/></g><path d="M119.508,254.487l13.13-7.573v1.791l-13.13,7.574Z" transform="translate(-94.7 -232.759)" fill="#edf0f8"/><g transform="translate(0 22.619)"><path d="M117.24,255.363l12.233-7.056V250.1l-12.233,7.056Z" transform="translate(-106.209 -248.307)" fill="#edf0f8"/><path d="M124.911,249.615v1.792l-9.486,5.471v-1.792Z" transform="translate(-115.425 -241.668)" fill="#edf0f8"/></g><path d="M130.937,246.874v1.792l-9.893,5.707v-1.792Z" transform="translate(-86.91 -232.958)" fill="#edf0f8"/><path d="M116.062,264.525l28.717-16.565v1.792l-28.717,16.564Z" transform="translate(-112.191 -227.447)" fill="#edf0f8"/><path d="M118.768,259.786l18.768-10.825v1.791l-18.768,10.826Z" transform="translate(-98.456 -222.372)" fill="#edf0f8"/><path d="M116.062,259.481l14.9-8.592v1.792l-14.9,8.593Z" transform="translate(-112.191 -212.584)" fill="#edf0f8"/><g transform="translate(5.516 45.086)"><path d="M116.333,262.688l18.52-10.682V253.8l-18.52,10.683Z" transform="translate(-116.333 -252.005)" fill="#edf0f8"/></g><path d="M126.42,253.345v1.792l-10.087,5.818v-1.791Z" transform="translate(-110.817 -200.122)" fill="#edf0f8"/><path d="M122.474,252.511l3.632-2.1v1.792l-3.632,2.095Z" transform="translate(-79.653 -214.987)" fill="#edf0f8"/><g transform="translate(17.147 38.415)"><path d="M137.117,251.407V253.2l-18.87,10.884v-1.792Z" transform="translate(-118.247 -248.374)" fill="#edf0f8"/><path d="M121.608,253.05l3.715-2.142V252.7l-3.715,2.143Z" transform="translate(-101.193 -250.907)" fill="#edf0f8"/></g><path d="M118.822,263.35l20.638-11.9v1.792l-20.638,11.9Z" transform="translate(-98.184 -209.759)" fill="#edf0f8"/></g><g transform="translate(0 196.592)"><path d="M131.064,253.7v1.792l-7.527,4.341v-1.792Z" transform="translate(-74.26 -253.701)" fill="#edf0f8"/><path d="M131.064,254.24v1.792l-7.527,4.341v-1.792Z" transform="translate(-74.26 -250.966)" fill="#edf0f8"/><path d="M131.064,254.778v1.791l-7.527,4.342v-1.792Z" transform="translate(-74.26 -248.232)" fill="#edf0f8"/><path d="M115.425,284.886v-1.792L161.878,256.3v1.792Z" transform="translate(-115.425 -240.51)" fill="#edf0f8"/><path d="M131.064,255.317v1.792l-7.527,4.342v-1.792Z" transform="translate(-74.26 -245.497)" fill="#edf0f8"/><path d="M131.064,255.856v1.792l-7.527,4.342V260.2Z" transform="translate(-74.26 -242.763)" fill="#edf0f8"/><path d="M115.425,285.425v-1.792l46.453-26.794v1.792Z" transform="translate(-115.425 -237.776)" fill="#edf0f8"/><path d="M131.064,257.472v1.792l-7.527,4.341v-1.792Z" transform="translate(-74.26 -234.56)" fill="#edf0f8"/><path d="M131.064,258.011V259.8l-7.527,4.342v-1.792Z" transform="translate(-74.26 -231.826)" fill="#edf0f8"/><path d="M131.064,260.166v1.791l-7.527,4.342v-1.791Z" transform="translate(-74.26 -220.889)" fill="#edf0f8"/><path d="M131.064,260.705V262.5l-7.527,4.341v-1.792Z" transform="translate(-74.26 -218.154)" fill="#edf0f8"/><g transform="translate(0 48.521)"><path d="M118.247,278.592l29.306-16.9v1.792l-29.306,16.9Z" transform="translate(-101.1 -261.688)" fill="#edf0f8"/><path d="M131.027,264.617v1.791l-15.6,9v-1.792Z" transform="translate(-115.425 -246.822)" fill="#edf0f8"/></g><g transform="translate(0 45.248)"><path d="M120.648,269.642l14.723-8.493v1.792l-14.723,8.492Z" transform="translate(-88.918 -261.149)" fill="#edf0f8"/><path d="M145.61,262.694v1.791L115.425,281.9V280.1Z" transform="translate(-115.425 -253.31)" fill="#edf0f8"/></g><path d="M119.4,263.567v1.792l-3.971,2.29v-1.792Z" transform="translate(-115.425 -203.634)" fill="#edf0f8"/><path d="M119.636,271.033l20.873-12.039v1.791l-20.873,12.04Z" transform="translate(-94.055 -226.838)" fill="#edf0f8"/><path d="M121.043,261.79l12.32-7.106v1.791l-12.32,7.106Z" transform="translate(-86.91 -248.713)" fill="#edf0f8"/><g transform="translate(13.938 13.968)"><path d="M117.719,266.757,136.369,256v1.791l-18.65,10.758Z" transform="translate(-117.719 -256)" fill="#edf0f8"/></g><path d="M119.508,263.6l13.13-7.573v1.791l-13.13,7.574Z" transform="translate(-94.7 -241.876)" fill="#edf0f8"/><g transform="translate(0 22.62)"><path d="M117.24,264.48l12.233-7.056v1.791l-12.233,7.057Z" transform="translate(-106.209 -257.424)" fill="#edf0f8"/><path d="M124.911,258.732v1.792L115.425,266V264.2Z" transform="translate(-115.425 -250.785)" fill="#edf0f8"/></g><path d="M130.937,255.991v1.792l-9.893,5.707V261.7Z" transform="translate(-86.91 -242.075)" fill="#edf0f8"/><path d="M116.062,273.642l28.717-16.565v1.792l-28.717,16.564Z" transform="translate(-112.191 -236.563)" fill="#edf0f8"/><path d="M118.768,268.9l18.768-10.826v1.792l-18.768,10.825Z" transform="translate(-98.456 -231.489)" fill="#edf0f8"/><path d="M116.062,268.6l14.9-8.592V261.8l-14.9,8.593Z" transform="translate(-112.191 -221.701)" fill="#edf0f8"/><g transform="translate(5.516 45.086)"><path d="M116.333,271.805l18.52-10.683v1.792L116.333,273.6Z" transform="translate(-116.333 -261.122)" fill="#edf0f8"/></g><path d="M126.42,262.462v1.792l-10.087,5.818V268.28Z" transform="translate(-110.817 -209.239)" fill="#edf0f8"/><path d="M122.474,261.628l3.632-2.1v1.792l-3.632,2.095Z" transform="translate(-79.653 -224.104)" fill="#edf0f8"/><g transform="translate(17.147 38.415)"><path d="M137.117,260.524v1.792L118.247,273.2v-1.792Z" transform="translate(-118.247 -257.491)" fill="#edf0f8"/><path d="M121.608,262.166l3.715-2.142v1.791l-3.715,2.143Z" transform="translate(-101.193 -260.024)" fill="#edf0f8"/></g><path d="M118.822,272.467l20.638-11.9v1.792l-20.638,11.9Z" transform="translate(-98.184 -218.875)" fill="#edf0f8"/></g><g transform="translate(0 251.975)"><path d="M131.064,262.818v1.792l-7.527,4.342v-1.792Z" transform="translate(-74.26 -262.818)" fill="#edf0f8"/><path d="M131.064,263.357v1.791l-7.527,4.342V267.7Z" transform="translate(-74.26 -260.083)" fill="#edf0f8"/><path d="M131.064,263.9v1.791l-7.527,4.342v-1.792Z" transform="translate(-74.26 -257.349)" fill="#edf0f8"/><path d="M115.425,294v-1.792l46.453-26.794v1.792Z" transform="translate(-115.425 -249.627)" fill="#edf0f8"/><path d="M131.064,264.434v1.792l-7.527,4.341v-1.792Z" transform="translate(-74.26 -254.615)" fill="#edf0f8"/><path d="M131.064,264.973v1.792l-7.527,4.342v-1.792Z" transform="translate(-74.26 -251.88)" fill="#edf0f8"/><path d="M115.425,294.541V292.75l46.453-26.794v1.791Z" transform="translate(-115.425 -246.893)" fill="#edf0f8"/><path d="M131.064,266.589v1.792l-7.527,4.341v-1.792Z" transform="translate(-74.26 -243.678)" fill="#edf0f8"/><path d="M131.064,267.128v1.791l-7.527,4.341v-1.791Z" transform="translate(-74.26 -240.943)" fill="#edf0f8"/><path d="M131.064,269.283v1.792l-7.527,4.341v-1.792Z" transform="translate(-74.26 -230.006)" fill="#edf0f8"/><path d="M131.064,269.822v1.792l-7.527,4.342v-1.792Z" transform="translate(-74.26 -227.271)" fill="#edf0f8"/><g transform="translate(0 48.521)"><path d="M118.247,287.709l29.306-16.9V272.6l-29.306,16.9Z" transform="translate(-101.1 -270.805)" fill="#edf0f8"/><path d="M131.027,273.734v1.791l-15.6,9v-1.792Z" transform="translate(-115.425 -255.939)" fill="#edf0f8"/></g><g transform="translate(0 45.248)"><path d="M120.648,278.759l14.723-8.493v1.792l-14.723,8.492Z" transform="translate(-88.918 -270.266)" fill="#edf0f8"/><path d="M145.61,271.811V273.6l-30.185,17.411v-1.792Z" transform="translate(-115.425 -262.427)" fill="#edf0f8"/></g><path d="M119.4,272.684v1.791l-3.971,2.291v-1.792Z" transform="translate(-115.425 -212.751)" fill="#edf0f8"/><path d="M119.636,280.15l20.873-12.039V269.9l-20.873,12.039Z" transform="translate(-94.055 -235.956)" fill="#edf0f8"/><path d="M121.043,270.907l12.32-7.106v1.791l-12.32,7.106Z" transform="translate(-86.91 -257.83)" fill="#edf0f8"/><g transform="translate(13.938 13.968)"><path d="M117.719,275.874l18.65-10.757v1.791l-18.65,10.758Z" transform="translate(-117.719 -265.117)" fill="#edf0f8"/></g><path d="M119.508,272.722l13.13-7.574v1.792l-13.13,7.574Z" transform="translate(-94.7 -250.993)" fill="#edf0f8"/><g transform="translate(0 22.619)"><path d="M117.24,273.6l12.233-7.056v1.792L117.24,275.39Z" transform="translate(-106.209 -266.541)" fill="#edf0f8"/><path d="M124.911,267.849v1.792l-9.486,5.471v-1.791Z" transform="translate(-115.425 -259.902)" fill="#edf0f8"/></g><path d="M130.937,265.109V266.9l-9.893,5.707v-1.792Z" transform="translate(-86.91 -251.192)" fill="#edf0f8"/><path d="M116.062,282.758l28.717-16.564v1.791l-28.717,16.564Z" transform="translate(-112.191 -245.68)" fill="#edf0f8"/><path d="M118.768,278.02l18.768-10.826v1.792l-18.768,10.825Z" transform="translate(-98.456 -240.606)" fill="#edf0f8"/><path d="M116.062,277.716l14.9-8.593v1.792l-14.9,8.592Z" transform="translate(-112.191 -230.818)" fill="#edf0f8"/><g transform="translate(5.516 45.086)"><path d="M116.333,280.922l18.52-10.683v1.792l-18.52,10.682Z" transform="translate(-116.333 -270.24)" fill="#edf0f8"/></g><path d="M126.42,271.579v1.792l-10.087,5.818V277.4Z" transform="translate(-110.817 -218.356)" fill="#edf0f8"/><path d="M122.474,270.745l3.632-2.1v1.791l-3.632,2.1Z" transform="translate(-79.653 -233.221)" fill="#edf0f8"/><g transform="translate(17.147 38.415)"><path d="M137.117,269.641v1.792l-18.87,10.884v-1.792Z" transform="translate(-118.247 -266.607)" fill="#edf0f8"/><path d="M121.608,271.284l3.715-2.143v1.792l-3.715,2.142Z" transform="translate(-101.193 -269.141)" fill="#edf0f8"/></g><path d="M118.822,281.584l20.638-11.9v1.792l-20.638,11.9Z" transform="translate(-98.184 -227.993)" fill="#edf0f8"/></g><g transform="translate(0 307.359)"><path d="M131.064,271.935v1.792l-7.527,4.342v-1.792Z" transform="translate(-74.26 -271.935)" fill="#edf0f8"/><path d="M131.064,272.474v1.792l-7.527,4.342v-1.792Z" transform="translate(-74.26 -269.201)" fill="#edf0f8"/><path d="M131.064,273.012V274.8l-7.527,4.342v-1.792Z" transform="translate(-74.26 -266.466)" fill="#edf0f8"/><path d="M115.425,303.12v-1.792l46.453-26.794v1.791Z" transform="translate(-115.425 -258.744)" fill="#edf0f8"/><path d="M131.064,273.551v1.792l-7.527,4.342v-1.792Z" transform="translate(-74.26 -263.732)" fill="#edf0f8"/><path d="M131.064,274.09v1.792l-7.527,4.341v-1.791Z" transform="translate(-74.26 -260.997)" fill="#edf0f8"/><path d="M115.425,303.659v-1.791l46.453-26.795v1.792Z" transform="translate(-115.425 -256.01)" fill="#edf0f8"/><path d="M131.064,275.706V277.5l-7.527,4.342v-1.792Z" transform="translate(-74.26 -252.795)" fill="#edf0f8"/><path d="M131.064,276.245v1.792l-7.527,4.341v-1.792Z" transform="translate(-74.26 -250.06)" fill="#edf0f8"/><path d="M119.4,281.8v1.791l-3.971,2.291v-1.792Z" transform="translate(-115.425 -221.869)" fill="#edf0f8"/><path d="M119.636,289.267l20.873-12.039v1.792l-20.873,12.039Z" transform="translate(-94.055 -245.073)" fill="#edf0f8"/><path d="M121.043,280.024l12.32-7.106v1.791l-12.32,7.106Z" transform="translate(-86.91 -266.947)" fill="#edf0f8"/><g transform="translate(13.938 13.967)"><path d="M117.719,284.992l18.65-10.758v1.792l-18.65,10.757Z" transform="translate(-117.719 -274.234)" fill="#edf0f8"/></g><path d="M119.508,281.838l13.13-7.573v1.792l-13.13,7.573Z" transform="translate(-94.7 -260.11)" fill="#edf0f8"/><g transform="translate(0 22.619)"><path d="M117.24,282.715l12.233-7.056v1.792l-12.233,7.056Z" transform="translate(-106.209 -275.658)" fill="#edf0f8"/><path d="M124.911,276.966v1.792l-9.486,5.472v-1.792Z" transform="translate(-115.425 -269.02)" fill="#edf0f8"/></g><path d="M130.937,274.226v1.792l-9.893,5.707v-1.791Z" transform="translate(-86.91 -260.31)" fill="#edf0f8"/><path d="M116.062,291.876l28.717-16.565V277.1l-28.717,16.565Z" transform="translate(-112.191 -254.798)" fill="#edf0f8"/><path d="M118.768,287.137l18.768-10.825V278.1l-18.768,10.825Z" transform="translate(-98.456 -249.723)" fill="#edf0f8"/><path d="M116.062,286.833l14.9-8.593v1.792l-14.9,8.592Z" transform="translate(-112.191 -239.935)" fill="#edf0f8"/><g transform="translate(5.516 45.086)"><path d="M116.333,290.039l18.52-10.682v1.792l-18.52,10.682Z" transform="translate(-116.333 -279.357)" fill="#edf0f8"/></g><path d="M126.42,280.7v1.792l-10.087,5.818v-1.791Z" transform="translate(-110.817 -227.473)" fill="#edf0f8"/><path d="M122.474,279.862l3.632-2.095v1.791l-3.632,2.1Z" transform="translate(-79.653 -242.338)" fill="#edf0f8"/><g transform="translate(17.147 38.415)"><path d="M137.117,278.758v1.791l-18.87,10.885v-1.792Z" transform="translate(-118.247 -275.724)" fill="#edf0f8"/><path d="M121.608,280.4l3.715-2.142v1.791l-3.715,2.143Z" transform="translate(-101.193 -278.258)" fill="#edf0f8"/></g><path d="M118.822,290.7l20.638-11.9v1.792l-20.638,11.9Z" transform="translate(-98.184 -237.11)" fill="#edf0f8"/></g><g transform="translate(291.551)"><path d="M164.178,226.622l9-5.194a.659.659,0,0,1,.99.571V232.77a1.474,1.474,0,0,1-.735,1.276l-9,5.2a.675.675,0,0,1-1.014-.583V227.934A1.515,1.515,0,0,1,164.178,226.622Z" transform="translate(-163.419 -221.338)" fill="#ebf2eb"/><path d="M164.178,229.275l9-5.194a.659.659,0,0,1,.99.571v10.77a1.467,1.467,0,0,1-.735,1.276l-9,5.2a.674.674,0,0,1-1.014-.583V230.587A1.516,1.516,0,0,1,164.178,229.275Z" transform="translate(-163.419 -207.875)" fill="#ebf2eb"/><path d="M164.178,231.928l9-5.194a.661.661,0,0,1,.99.571v10.776a1.464,1.464,0,0,1-.735,1.27l-9,5.2a.675.675,0,0,1-1.014-.583V233.24A1.515,1.515,0,0,1,164.178,231.928Z" transform="translate(-163.419 -194.411)" fill="#ebf2eb"/><path d="M164.178,234.581l9-5.194a.661.661,0,0,1,.99.571v10.776a1.464,1.464,0,0,1-.735,1.27l-9,5.206a.679.679,0,0,1-1.014-.589V235.893A1.523,1.523,0,0,1,164.178,234.581Z" transform="translate(-163.419 -180.948)" fill="#ebf2eb"/><path d="M164.178,237.232l9-5.194a.663.663,0,0,1,.99.571v10.776a1.464,1.464,0,0,1-.735,1.27l-9,5.206a.677.677,0,0,1-1.014-.589V238.544A1.523,1.523,0,0,1,164.178,237.232Z" transform="translate(-163.419 -167.483)" fill="#ebf2eb"/><path d="M164.178,239.884l9-5.194a.663.663,0,0,1,.99.571v10.776a1.464,1.464,0,0,1-.735,1.27l-9,5.206a.677.677,0,0,1-1.014-.583V241.2A1.523,1.523,0,0,1,164.178,239.884Z" transform="translate(-163.419 -154.02)" fill="#ebf2eb"/><path d="M164.178,242.541l9-5.194a.659.659,0,0,1,.99.571v10.77a1.482,1.482,0,0,1-.735,1.276l-9,5.2a.676.676,0,0,1-1.014-.583V243.853A1.508,1.508,0,0,1,164.178,242.541Z" transform="translate(-163.419 -140.554)" fill="#ebf2eb"/><path d="M164.178,245.194l9-5.194a.659.659,0,0,1,.99.571v10.771a1.474,1.474,0,0,1-.735,1.276l-9,5.2a.674.674,0,0,1-1.014-.583V246.506A1.515,1.515,0,0,1,164.178,245.194Z" transform="translate(-163.419 -127.091)" fill="#ebf2eb"/><path d="M164.178,247.847l9-5.194a.659.659,0,0,1,.99.571v10.77a1.467,1.467,0,0,1-.735,1.276l-9,5.2a.675.675,0,0,1-1.014-.583V249.159A1.516,1.516,0,0,1,164.178,247.847Z" transform="translate(-163.419 -113.628)" fill="#ebf2eb"/><path d="M164.178,250.5l9-5.194a.661.661,0,0,1,.99.571v10.776a1.464,1.464,0,0,1-.735,1.27l-9,5.206a.679.679,0,0,1-1.014-.589V251.812A1.523,1.523,0,0,1,164.178,250.5Z" transform="translate(-163.419 -100.164)" fill="#ebf2eb"/><path d="M164.178,253.152l9-5.194a.661.661,0,0,1,.99.571v10.777a1.464,1.464,0,0,1-.735,1.27l-9,5.206a.677.677,0,0,1-1.014-.589V254.465A1.523,1.523,0,0,1,164.178,253.152Z" transform="translate(-163.419 -86.701)" fill="#ebf2eb"/><path d="M164.178,255.8l9-5.194a.663.663,0,0,1,.99.571v10.777a1.464,1.464,0,0,1-.735,1.27l-9,5.206a.676.676,0,0,1-1.014-.583V257.116A1.523,1.523,0,0,1,164.178,255.8Z" transform="translate(-163.419 -73.236)" fill="#ebf2eb"/></g></g><path d="M142.155,303.644s15.393-6.877,33.5,5.115,30.307,28.77,22.944,34.948-21.674,12.8-30.963,9.464S112.431,322.828,142.155,303.644Z" transform="translate(296.402 9.7)" fill="#0f4463"/><g transform="translate(76.083 466.226)"><path d="M126.578,298.1h13.382v14.439H126.578a9.036,9.036,0,0,0-9.027,9.027v23.46a9.035,9.035,0,0,0,9.027,9.021h19.627v14.44H126.578a23.487,23.487,0,0,1-23.461-23.461V321.57A23.488,23.488,0,0,1,126.578,298.1Z" transform="translate(-103.118 -267.311)" fill="#a7bcce"/><path d="M107.808,296.791v81.292c0,12.6,18.789,22.817,41.958,22.817s41.958-10.212,41.958-22.817V296.791Z" transform="translate(-79.318 -273.974)" fill="#bbcee1"/><path d="M191.724,315.851c0,12.6-18.783,22.81-41.958,22.81s-41.958-10.211-41.958-22.81,18.789-22.816,41.958-22.816S191.724,303.253,191.724,315.851Z" transform="translate(-79.318 -293.035)" fill="#fff"/><path d="M176.393,311.648c0,9.853-15.041,17.842-33.605,17.842s-33.605-7.988-33.605-17.842,15.047-17.841,33.605-17.841S176.393,301.8,176.393,311.648Z" transform="translate(-72.34 -289.117)" fill="#a7bcce"/><path d="M141.22,295.729c14.707,0,27.172,5.018,31.728,12-4.556,6.98-17.021,12-31.728,12s-27.166-5.024-31.728-12C114.054,300.747,126.519,295.729,141.22,295.729Z" transform="translate(-70.772 -279.364)" fill="#52281c"/><path d="M128.628,307.884v81.292c-8.237-1.828-15.138-5.048-19.779-9.112v-81.3C113.49,302.836,120.391,306.05,128.628,307.884Z" transform="translate(-74.035 -263.952)" fill="#a7bcce"/></g></g></g><g transform="matrix(0.978, 0.208, -0.208, 0.978, 146.085, 795.168)" opacity="0.2"><path d="M154.041,89.365V64.676L136,61.667a60.4,60.4,0,0,0-6.432-15.485l10.64-14.9L122.751,13.83l-14.9,10.64a60.287,60.287,0,0,0-15.483-6.434L89.367,0H64.674L61.669,18.036A60.287,60.287,0,0,0,46.185,24.47L31.29,13.83,13.829,31.286l10.64,14.9a60.4,60.4,0,0,0-6.432,15.485L0,64.676V89.365l18.036,3.009a60.4,60.4,0,0,0,6.432,15.485l-10.64,14.9L31.29,140.211l14.9-10.64A60.288,60.288,0,0,0,61.669,136l3.005,18.036H89.367L92.372,136a60.288,60.288,0,0,0,15.483-6.434l14.9,10.64,17.461-17.456-10.64-14.9A60.4,60.4,0,0,0,136,92.374Zm-23.793-.5a54.083,54.083,0,0,1-7.228,17.406l-1.164,1.827,9.974,13.962-9.77,9.772-13.965-9.975-1.826,1.163a54.067,54.067,0,0,1-17.406,7.23l-2.115.47-2.817,16.9H70.112l-2.817-16.9-2.115-.47a54.066,54.066,0,0,1-17.406-7.23l-1.826-1.163L31.982,131.83l-9.77-9.772L32.186,108.1l-1.164-1.827a54.084,54.084,0,0,1-7.229-17.406l-.469-2.115L6.418,83.931V70.11l16.906-2.817.469-2.115a54.084,54.084,0,0,1,7.228-17.406l1.164-1.827L22.212,31.982l9.77-9.772,13.965,9.975,1.826-1.163a54.067,54.067,0,0,1,17.406-7.23l2.115-.47,2.817-16.9H83.929l2.817,16.9,2.115.47a54.067,54.067,0,0,1,17.406,7.23l1.826,1.163,13.965-9.975,9.77,9.772-9.974,13.962,1.164,1.827a54.084,54.084,0,0,1,7.228,17.406l.469,2.115,16.906,2.817V83.931l-16.906,2.817Z" fill="#fff"/><g transform="translate(44.929 44.929)"><path d="M32.092,0A32.092,32.092,0,1,0,64.184,32.092,32.129,32.129,0,0,0,32.092,0Zm0,57.765A25.673,25.673,0,1,1,57.765,32.092,25.7,25.7,0,0,1,32.092,57.765Z" fill="#fff"/></g></g><g transform="matrix(0.978, 0.208, -0.208, 0.978, 480.327, 111.294)" opacity="0.2"><path d="M154.041,89.365V64.676L136,61.667a60.4,60.4,0,0,0-6.432-15.485l10.64-14.9L122.751,13.83l-14.9,10.64a60.287,60.287,0,0,0-15.483-6.434L89.367,0H64.674L61.669,18.036A60.287,60.287,0,0,0,46.185,24.47L31.29,13.83,13.829,31.286l10.64,14.9a60.4,60.4,0,0,0-6.432,15.485L0,64.676V89.365l18.036,3.009a60.4,60.4,0,0,0,6.432,15.485l-10.64,14.9L31.29,140.211l14.9-10.64A60.288,60.288,0,0,0,61.669,136l3.005,18.036H89.367L92.372,136a60.288,60.288,0,0,0,15.483-6.434l14.9,10.64,17.461-17.456-10.64-14.9A60.4,60.4,0,0,0,136,92.374Zm-23.793-.5a54.083,54.083,0,0,1-7.228,17.406l-1.164,1.827,9.974,13.962-9.77,9.772-13.965-9.975-1.826,1.163a54.067,54.067,0,0,1-17.406,7.23l-2.115.47-2.817,16.9H70.112l-2.817-16.9-2.115-.47a54.066,54.066,0,0,1-17.406-7.23l-1.826-1.163L31.982,131.83l-9.77-9.772L32.186,108.1l-1.164-1.827a54.084,54.084,0,0,1-7.229-17.406l-.469-2.115L6.418,83.931V70.11l16.906-2.817.469-2.115a54.084,54.084,0,0,1,7.228-17.406l1.164-1.827L22.212,31.982l9.77-9.772,13.965,9.975,1.826-1.163a54.067,54.067,0,0,1,17.406-7.23l2.115-.47,2.817-16.9H83.929l2.817,16.9,2.115.47a54.067,54.067,0,0,1,17.406,7.23l1.826,1.163,13.965-9.975,9.77,9.772-9.974,13.962,1.164,1.827a54.084,54.084,0,0,1,7.228,17.406l.469,2.115,16.906,2.817V83.931l-16.906,2.817Z" fill="#fff"/><g transform="translate(44.929 44.929)"><path d="M32.092,0A32.092,32.092,0,1,0,64.184,32.092,32.129,32.129,0,0,0,32.092,0Zm0,57.765A25.673,25.673,0,1,1,57.765,32.092,25.7,25.7,0,0,1,32.092,57.765Z" fill="#fff"/></g></g><g transform="matrix(0.978, 0.208, -0.208, 0.978, -77.158, 165.961)" opacity="0.2"><path d="M216.576,125.644V90.932L191.218,86.7a84.925,84.925,0,0,0-9.044-21.771l14.959-20.943L172.584,19.445,151.641,34.4a84.762,84.762,0,0,0-21.769-9.046L125.647,0H90.93L86.7,25.358A84.762,84.762,0,0,0,64.935,34.4L43.992,19.445,19.443,43.988,34.4,64.931A84.926,84.926,0,0,0,25.358,86.7L0,90.932v34.712l25.358,4.23A84.926,84.926,0,0,0,34.4,151.646L19.443,172.589l24.549,24.543,20.943-14.959A84.761,84.761,0,0,0,86.7,191.218l4.226,25.358h34.717l4.226-25.358a84.762,84.762,0,0,0,21.769-9.046l20.943,14.959,24.549-24.543-14.959-20.943a84.926,84.926,0,0,0,9.044-21.771Zm-33.452-.7a76.04,76.04,0,0,1-10.163,24.472l-1.637,2.569,14.023,19.63L171.61,185.349l-19.634-14.025-2.567,1.635a76.016,76.016,0,0,1-24.472,10.165l-2.974.661L118,207.552H98.575l-3.961-23.767-2.974-.661a76.016,76.016,0,0,1-24.472-10.165L64.6,171.324,44.966,185.349,31.229,171.61l14.023-19.63-1.637-2.569a76.04,76.04,0,0,1-10.163-24.472l-.659-2.974L9.024,118V98.572l23.77-3.961.659-2.974A76.04,76.04,0,0,1,43.615,67.165L45.252,64.6,31.229,44.966,44.966,31.227,64.6,45.252l2.567-1.635A76.016,76.016,0,0,1,91.639,33.452l2.974-.661L98.575,9.024H118l3.961,23.767,2.974.661a76.017,76.017,0,0,1,24.472,10.165l2.567,1.635L171.61,31.227l13.736,13.739L171.324,64.6l1.637,2.569a76.04,76.04,0,0,1,10.163,24.472l.659,2.974,23.77,3.961V118l-23.77,3.961Z" fill="#fff"/><g transform="translate(63.168 63.168)"><path d="M45.12,0A45.12,45.12,0,1,0,90.24,45.12,45.172,45.172,0,0,0,45.12,0Zm0,81.216a36.1,36.1,0,1,1,36.1-36.1A36.137,36.137,0,0,1,45.12,81.216Z" fill="#fff"/></g></g><g transform="matrix(0.966, -0.259, 0.259, 0.966, 24.887, 772.345)" opacity="0.2"><path d="M118.323,68.644V49.679l-13.854-2.311a46.4,46.4,0,0,0-4.941-11.894L107.7,24.032,94.288,10.623,82.846,18.8a46.308,46.308,0,0,0-11.893-4.942L68.645,0H49.678L47.369,13.854A46.308,46.308,0,0,0,35.476,18.8L24.034,10.623,10.622,24.032l8.173,11.442a46.4,46.4,0,0,0-4.941,11.894L0,49.679V68.644l13.854,2.311a46.4,46.4,0,0,0,4.941,11.894L10.622,94.291,24.034,107.7l11.442-8.173a46.308,46.308,0,0,0,11.893,4.942l2.309,13.854H68.645l2.309-13.854a46.308,46.308,0,0,0,11.893-4.942L94.288,107.7,107.7,94.291,99.528,82.849a46.4,46.4,0,0,0,4.941-11.894Zm-18.276-.385a41.543,41.543,0,0,1-5.552,13.37l-.894,1.4,7.661,10.724-7.5,7.506L83.029,93.6l-1.4.893a41.53,41.53,0,0,1-13.37,5.554l-1.625.361-2.164,12.985H53.854L51.69,100.408l-1.625-.361A41.53,41.53,0,0,1,36.7,94.493l-1.4-.893-10.727,7.662-7.5-7.506,7.661-10.724-.894-1.4a41.543,41.543,0,0,1-5.552-13.37l-.36-1.625L4.93,64.469V53.853l12.986-2.164.36-1.625a41.543,41.543,0,0,1,5.552-13.37l.894-1.4L17.062,24.566l7.5-7.506,10.727,7.662,1.4-.893a41.53,41.53,0,0,1,13.37-5.554l1.625-.361L53.854,4.93H64.468l2.164,12.985,1.625.361a41.53,41.53,0,0,1,13.37,5.554l1.4.893L93.756,17.06l7.5,7.506L93.6,35.291l.894,1.4a41.543,41.543,0,0,1,5.552,13.37l.36,1.625,12.986,2.164V64.469l-12.986,2.164Z" fill="#fff"/><g transform="translate(34.511 34.511)"><path d="M24.651,0A24.651,24.651,0,1,0,49.3,24.651,24.679,24.679,0,0,0,24.651,0Zm0,44.371a19.72,19.72,0,1,1,19.72-19.72A19.743,19.743,0,0,1,24.651,44.371Z" fill="#fff"/></g></g><g transform="translate(67.994 618.746) rotate(-20)" opacity="0.2"><path d="M0,2.088Z" transform="translate(76.311 36.499)" fill="#666"/><path d="M0,0Z" transform="translate(69.394 50.734)"/><path d="M0,0ZM12.656,27.441Z" transform="translate(72.353 25.834)"/><path d="M0,0Z" transform="translate(99.841 50.734)"/><path d="M0,0Z" transform="translate(84.939 42.368)" fill="#f33052"/><path d="M0,0Z" transform="translate(0 50.734)"/><path d="M0,0Z" transform="translate(21.001 42.368)" fill="#f33052"/><g transform="translate(0.35 0)"><path d="M35.961,39.853,0,24.22V15.562L35.961,0V10.2L10.878,19.784l25.089,9.948V39.853Z" transform="translate(0 7.519)" fill="#fff"/><path d="M0,54.247,12.986,0h7.55L7.4,54.247Z" transform="translate(39.289 0)" fill="#fff"/><path d="M0,39.828V29.7l25.119-9.877L0,10.06V0L36,15.562v8.586Z" transform="translate(63.158 7.585)" fill="#fff"/></g></g><g transform="translate(218.22 60.89) rotate(22)" opacity="0.2"><path d="M110.643,93.784,94.489,67.406A10.5,10.5,0,0,0,91,47a10.373,10.373,0,0,0-4.86,1.251L66.2,17.145a10.492,10.492,0,1,0-15.522.833L31.948,47.221A10.349,10.349,0,0,0,29.814,47a10.491,10.491,0,0,0-3.289,20.464L10.918,92.937c-.137,0-.259-.041-.4-.041a10.572,10.572,0,1,0,3.929.777L29.928,68.418,45.809,94.336a10.474,10.474,0,1,0,3.648-.554L33.3,67.4A10.446,10.446,0,0,0,35.158,48.51L53.473,19.928a10.239,10.239,0,0,0,10.157-.5L83.4,50.29a10.438,10.438,0,0,0,4.307,17.175l-15.6,25.474c-.139,0-.259-.041-.4-.041a10.564,10.564,0,1,0,3.935.777L91.117,68.418,107,94.337a10.482,10.482,0,1,0,3.646-.553Zm-93,9.636A7.123,7.123,0,1,1,10.522,96.3,7.129,7.129,0,0,1,17.645,103.419Zm38.607.853a7.12,7.12,0,1,1-7.118-7.118A7.123,7.123,0,0,1,56.252,104.273ZM29.812,64.645a7.12,7.12,0,1,1,7.123-7.123A7.126,7.126,0,0,1,29.812,64.645ZM78.83,103.419A7.117,7.117,0,1,1,71.709,96.3,7.127,7.127,0,0,1,78.83,103.419ZM50.977,10.526A7.122,7.122,0,1,1,58.1,17.648,7.126,7.126,0,0,1,50.977,10.526Zm32.908,47A7.118,7.118,0,1,1,91,64.645,7.125,7.125,0,0,1,83.885,57.523Zm26.442,53.868a7.118,7.118,0,1,1,7.114-7.118A7.126,7.126,0,0,1,110.327,111.391Z" transform="translate(0 0)" fill="#fff"/></g><path d="M88.118,88.118H47.151V77.634L71.715,53.07V35.809a5.153,5.153,0,1,0-6.184,0v14.7L40.967,75.072V88.118H22.416V72.737a5.153,5.153,0,1,0-6.184,0V88.118H0V44.4H18.043l6.834,6.834a5.2,5.2,0,1,0,4.373-4.372l-8.645-8.646H0V23.963H32.674l6.864-5.957a5.153,5.153,0,1,0-4.067-5.037c0,.122.01.242.018.362l-5.124,4.447H0V0H75.179L88.118,12.939V68.622h-12.8a5.153,5.153,0,1,0,0,6.184h12.8V88.118Z" transform="matrix(-0.819, 0.574, -0.574, -0.819, 463.539, 41.242)" fill="#fff" opacity="0.2"/><path d="M56.24,56.24H30.094V49.549L45.771,33.871V22.854a3.289,3.289,0,1,0-3.947,0v9.382L26.147,47.914V56.24H14.307V46.424a3.289,3.289,0,1,0-3.947,0V56.24H0V28.34H11.516L15.878,32.7a3.316,3.316,0,1,0,2.791-2.79l-5.517-5.518H0v-9.1H20.854l4.381-3.8a3.289,3.289,0,1,0-2.6-3.215c0,.078.007.154.012.231l-3.27,2.838H0V0H47.982L56.24,8.258V43.8H48.068a3.289,3.289,0,1,0,0,3.947H56.24v8.5Z" transform="translate(21.384 447.535) rotate(40)" fill="#fff" opacity="0.2"/></g></svg>