<svg xmlns="http://www.w3.org/2000/svg" xmlns:xlink="http://www.w3.org/1999/xlink" viewBox="256 -427 1024 1366"><style><![CDATA[.i{fill:#fff}.j{fill:#edf0f8}.k{fill:#bbcee1}.l{fill:#ebf2eb}.m{fill:#0f4463}.n{fill:#0b3b56}.o{fill:#07304b}.p{fill:#ed5561}.q{fill:#a7bcce}]]></style><defs><path id="A" d="M256-427h1024V939H256z"/><path id="B" d="M687.05-118.425l5.9-3.4c.2-.1.5 0 .6.2 0 .1.1.1.1.2v7.1c0 .3-.2.7-.5.8l-5.9 3.4c-.2.1-.5 0-.6-.2 0-.1-.1-.1-.1-.2v-7c0-.4.2-.7.5-.9z"/><path id="C" d="M409.7-102.085v4.3l-17.9 10.3v-4.3l17.9-10.3z"/><path id="D" d="M409.7-78.685v4.3l-18 10.3v-4.3l18-10.3z"/><path id="E" d="M617.813 103.44l-6.2-3.6-7.1 4.1 6.2 3.6 7.1-4.1z"/><path id="F" d="M618.813 112.24l7.1-4.1-6.2-3.6-7.1 4.1 6.2 3.6z"/><path id="G" d="M603.713 113.64l6.2 3.6 7.1-4.1-6.2-3.6-7.1 4.1z"/><path id="H" d="M513.713 165.44l-7.1 4.1 6.2 3.6 7.1-4.1-6.2-3.6z"/><path id="I" d="M577.028-156.773v5.4l-22.5 13v-5.4l22.5-13z"/><path id="J" d="M577.028-146.973v5.4l-22.5 13v-5.3l22.5-13.1z"/><path id="K" d="M397.645-53.266v1.5l-6.2 3.6v-1.5l6.2-3.6z"/><path id="L" d="M350.945-16.766v-1.5l38.2-22v1.5l-38.2 22z"/><path id="M" d="M363.745 1.25v1.5l-12.8 7.4v-1.5l12.8-7.4z"/><path id="N" d="M377.045-9.043l12.1-7v1.5l-12.1 7v-1.5z"/><path id="O" d="M375.745-8.343v1.5l-24.8 14.3v-1.5l24.8-14.3z"/><path id="P" d="M354.245-3.966v1.5l-3.3 1.9v-1.5l3.3-1.9z"/><path id="Q" d="M371.945-16.866l17.2-9.9v1.5l-17.2 9.9v-1.5z"/><path id="R" d="M379.045-42.566l10.1-5.8v1.5l-10.1 5.8v-1.5z"/><path id="S" d="M371.345-35.366l10.8-6.2v1.5l-10.8 6.2v-1.5z"/><path id="T" d="M358.745-28.16v1.5l-7.8 4.5v-1.5l7.8-4.5z"/><path id="U" d="M387.145-41.866v1.5l-8.1 4.7v-1.5l8.1-4.7z"/><path id="V" d="M354.145-22.766l23.6-13.6v1.5l-23.6 13.6v-1.5z"/><path id="W" d="M367.645-22.466l15.4-8.9v1.5l-15.4 8.9v-1.5z"/><path id="X" d="M354.145-14.666l12.3-7.1v1.5l-12.3 7.1v-1.5z"/><path id="Y" d="M355.482-7.377l15.2-8.8v1.5l-15.2 8.8v-1.5z"/><path id="Z" d="M363.745-9.466v1.5l-8.3 4.8v-1.5l8.3-4.8z"/><path id="a" d="M386.145-22.366l3-1.7v1.5l-3 1.7v-1.5z"/><path id="b" d="M380.55-19.165v1.5l-15.5 9v-1.5l15.5-9z"/><path id="c" d="M381.85-19.865l3.1-1.8v1.5l-3.1 1.8v-1.5z"/><path id="d" d="M367.945-9.166l17-9.8v1.5l-17 9.8v-1.5z"/><path id="e" d="M591.385-151.826l7.4-4.3c.3-.2.6-.1.7.2 0 .1.1.2.1.3v8.9a1.1 1.1 0 0 1-.6 1l-7.4 4.3c-.3.2-.6.1-.8-.2 0-.1-.1-.2-.1-.3v-8.8c.1-.5.3-.9.7-1.1z"/><path id="f" d="M591.385-138.526l7.4-4.3c.3-.1.6-.1.7.2 0 .1.1.2.1.3v8.9a1.1 1.1 0 0 1-.6 1l-7.4 4.3c-.3.2-.6.1-.8-.2 0-.1-.1-.2-.1-.3v-8.8c.1-.5.3-.9.7-1.1z"/><path id="g" d="M591.385-125.326l7.4-4.3c.3-.1.6-.1.7.2 0 .1.1.2.1.3v8.9a1.1 1.1 0 0 1-.6 1l-7.4 4.3c-.3.2-.6.1-.8-.2 0-.1-.1-.2-.1-.3v-8.8c.1-.4.3-.9.7-1.1z"/><path id="h" d="M575.2-220v-34.9l-25.5-4.2c-2-7.7-5.1-15-9.1-21.9l15-21-24.6-24.6-21 15c-6.8-4-14.2-7.1-21.9-9.1l-4.2-25.5H449l-4.2 25.5c-7.7 2-15 5.1-21.9 9.1l-21-15-24.6 24.6 15 21c-4 6.8-7.1 14.2-9.1 21.9l-25.5 4.2v34.8l25.5 4.2c2 7.7 5.1 15 9.1 21.9l-15 21 24.6 24.6 21-15c6.8 4 14.2 7.1 21.9 9.1l4.2 25.5h34.9l4.2-25.5c7.7-2 15-5.1 21.9-9.1l21 15 24.6-24.6-15-21c4-6.8 7.1-14.2 9.1-21.9l25.5-4.1zm-33.5-.7c-1.9 8.7-5.4 17-10.2 24.6l-1.6 2.6 14.1 19.7-13.9 13.8-19.7-14.1-2.6 1.6c-7.5 4.8-15.8 8.3-24.6 10.2l-3 .7-4 23.9h-19.5l-4-23.9-3-.7c-8.7-1.9-17-5.4-24.6-10.2l-2.6-1.6-19.6 14.1-13.8-13.8 14.1-19.7-1.6-2.6c-4.8-7.5-8.3-15.8-10.2-24.6l-.7-3-23.9-4v-19.5l23.9-4 .7-3c1.9-8.7 5.4-17 10.2-24.6l1.6-2.6-14-19.6 13.8-13.8 19.7 14.1 2.6-1.6c7.5-4.8 15.8-8.3 24.6-10.2l3-.7 4-23.9h19.5l4 23.9 3 .7c8.7 1.9 17 5.4 24.6 10.2l2.6 1.6 19.7-14.1 13.8 13.8-14.1 19.7 1.6 2.6c4.8 7.5 8.3 15.8 10.2 24.6l.7 3 23.9 4v19.5l-23.9 4-.8 2.9z"/><path id="i" d="M466.52-282.68c-25 0-45.3 20.3-45.3 45.3s20.3 45.3 45.3 45.3 45.3-20.3 45.3-45.3-20.3-45.3-45.3-45.3zm0 81.5c-20 0-36.2-16.2-36.2-36.2s16.2-36.2 36.2-36.2 36.2 16.2 36.2 36.2-16.2 36.2-36.2 36.2z"/><path id="j" d="M665.73-225.2v2.3l-9.7 5.6v-2.3l9.7-5.6z"/></defs><clipPath id="k"><use xlink:href="#A"/></clipPath><g clip-path="url(#k)"><path d="M806.8-358.4l33.6-23.5 6 8.6-6 34.2 9.9 14.1c-.9 2.7.6 5.6 3.3 6.5s5.6-.6 6.5-3.3-.6-5.6-3.3-6.5c-.5-.2-.9-.2-1.4-.3l-8.4-12 6-34.2-7.5-10.7 15.2-10.6 8.8 12.6c-.5 1.5-.3 3.2.7 4.6 1.6 2.3 4.8 2.9 7.2 1.3 2.3-1.6 2.9-4.8 1.3-7.2-.9-1.3-2.4-2.1-4-2.2l-8.8-12.6 13.3-9.3 25.1 35.8-14.8 10.3-9.5-1.7c-1.3-2.6-4.4-3.6-7-2.3s-3.6 4.4-2.3 7 4.4 3.6 7 2.3c.5-.2.9-.5 1.3-.9l12 2.1 16.9-11.8 8.2 11.7-27.1 18.8-2.2 8.8c-2.6 1.1-3.9 4.1-2.8 6.7s4.1 3.9 6.7 2.8 3.9-4.1 2.8-6.7a4.67 4.67 0 0 0-.5-1c-.1-.1-.1-.2-.2-.3l1.6-6.6 24.9-17.4 10.2 14.6-61.6 43.1-18-3.2-31.9-45.6 10.5-7.3c2.7.9 5.6-.6 6.5-3.3s-.6-5.6-3.3-6.5-5.6.6-6.5 3.3c-.2.5-.2.9-.3 1.4l-10.5 7.3-7.6-10.9z" opacity=".2" enable-background="new" class="i"/><g transform="matrix(.93358 .358368 -.358368 .93358 -612.13 -1180.8)"><linearGradient id="l" gradientUnits="userSpaceOnUse" x1="1438.331" y1="-562.031" x2="711.153" y2="1905.041"><stop offset="0" stop-color="#2ba6f8"/><stop offset="1" stop-color="#090909"/><stop offset="1"/></linearGradient><path d="M2264.4-313.2s-398.6 8.7-890.9-149.1 1.6 394.7 207.1 516c129.7 65 168 191.3 159.4 308.9-11.2 154.3-237.4 159.9-427 258-457.9 236.9 59.4 39.6 233.8 152.9s68 197.7-173.3 189c-521.2-18.7-348.4 157.6-261.3 237.5s72.1 262.4-338.2 139-256 174.6-256 174.6H86V-313.2h2178.4z" fill="url(#l)"/><linearGradient id="m" gradientUnits="userSpaceOnUse" x1="808.773" y1="307.766" x2="408.144" y2="1128.972"><stop offset="0" stop-color="#2ba6f8"/><stop offset="1"/></linearGradient><path d="M569.9-313.2s589.4-30.7 694.4 356.6c114.3 422-251.4 620.5-375.4 523.6s-129.7-228.5 63.4-315.4S1126-103.1 703.7-36.3s-471 604.1-165.1 732.6S770 976.2 440.9 1137s-149.1 376.5-149.1 376.5H86V-313.3l483.9.1z" fill="url(#m)"/></g><g transform="matrix(.695 -.719 .719 .695 -1813.5 1176.1)"><linearGradient id="n" gradientUnits="userSpaceOnUse" x1="1837.521" y1="-12.764" x2="-535.718" y2="224.622"><stop offset="0" stop-color="#2ba6f8"/><stop offset="1" stop-color="#090909"/><stop offset="1"/></linearGradient><path d="M2663.3 64.5s-398.6 8.7-890.9-149.1 1.6 394.7 207.1 516c129.7 65 168 191.3 159.4 308.9-11.2 154.3-237.4 159.9-427 258-457.9 236.9 59.4 39.6 233.8 152.9s68 197.7-173.3 189c-521.2-18.7-881.1-550.8-794-470.9s466.2 727.4 56 604-117.4 418-117.4 418H485V64.4l2178.3.1z" fill="url(#n)"/><linearGradient id="o" gradientUnits="userSpaceOnUse" x1="1207.726" y1="196.244" x2="-99.789" y2="275.375"><stop offset="0" stop-color="#2ba6f8"/><stop offset="1"/></linearGradient><path d="M968.9 64.5s589.4-30.7 694.4 356.6c114.3 422-251.4 620.5-375.4 523.6s-129.7-228.5 63.4-315.4 173.7-354.7-248.5-287.9S631.6 945.5 937.5 1074s231.4 279.9-97.7 440.7-149.1 376.5-149.1 376.5H484.9V64.4l484 .1z" fill="url(#o)"/></g><path d="M663.3-190.215l.1.1c0-.1-.1-.1-.1-.1z" class="k"/><g opacity=".4" class="i"><path d="M695.83-157.565v4.3l-9.5 5.5v-4.3l9.5-5.5z"/></g><g class="k"><path d="M175.4 71.885l.1.1c0-.1-.1-.1-.1-.1zm160.12-174.1l.1.1c0-.1-.1-.1-.1-.1h0zm159.4-170.02l.1.1c0-.1-.1-.1-.1-.1z"/></g><g class="l"><path d="M687.05-139.525l5.9-3.4c.2-.1.5-.1.6.2 0 .1.1.1.1.2v7.1c0 .3-.2.7-.5.8l-5.9 3.4c-.2.1-.5.1-.6-.2 0-.1-.1-.1-.1-.2v-7c0-.4.2-.8.5-.9zm0 10.5l5.9-3.4c.2-.1.5-.1.6.2 0 .1.1.1.1.2v7.1c0 .3-.2.7-.5.8l-5.9 3.4c-.2.1-.5.1-.6-.2 0-.1-.1-.1-.1-.2v-7c0-.4.2-.7.5-.9z"/><use xlink:href="#B"/><path d="M687.05-107.825l5.9-3.4c.2-.1.5 0 .6.2 0 .1.1.1.1.2v7.1c0 .3-.2.7-.5.8l-5.9 3.4c-.2.1-.5 0-.6-.2 0-.1-.1-.1-.1-.2v-7c0-.4.2-.7.5-.9z"/></g><g opacity=".4" class="i"><use xlink:href="#C"/><path d="M409.7-94.285v4.3l-17.9 10.3v-4.3l17.9-10.3zm0 7.8v4.3l-17.9 10.3v-4.3l17.9-10.3z"/><use xlink:href="#D"/><path d="M409.7-70.885v4.3l-17.9 10.3v-4.3l17.9-10.3zm0 23.4v4.3l-17.9 10.3v-4.3l17.9-10.3zm0 7.8v4.3l-18 10.3v-4.3l18-10.3zm0 31.1v4.3l-17.9 10.3v-4.3l17.9-10.3zm0 7.8v4.3l-17.9 10.3v-4.3l17.9-10.3zM350 25.855l35.1-20.2v4.3l-35.1 20.2v-4.3zm-14.7-22.74l49.7-28.7v4.3l-49.7 28.7v-4.3zm20.4-74.1l29.3-16.9v4.3l-29.3 16.9v-4.3zm-48.12 27.76l44.4-25.6v4.3l-44.4 25.6v-4.3zm25.92-7.16l31.3-18v4.3l-31.3 18v-4.3zm45.7-18.6v4.3l-23.5 13.6v-4.3l23.5-13.6zm-2.8 56.2l8.6-5v4.3l-8.6 5v-4.3zm-12.58 7.272l8.8-5.1v4.3l-8.8 5.1v-4.3z"/></g><g opacity=".4" class="i"><path d="M241.3-266.325v4.3l-17.9 10.3v-4.3l17.9-10.3zm0 7.8v4.3l-17.9 10.3v-4.3l17.9-10.3zm0 7.8v4.3l-17.9 10.3v-4.3l17.9-10.3zm-135.3 90.1v-4.3l110.6-63.8v4.3l-110.6 63.8zm135.3-82.3v4.3l-18 10.3v-4.3l18-10.3zm0 7.8v4.3l-17.9 10.3v-4.3l17.9-10.3zm-135.3 82.3v-4.3l110.6-63.8v4.3l-110.6 63.8zm135.3-58.9v4.3l-17.9 10.3v-4.3l17.9-10.3zm0 7.8v4.3l-18 10.3v-4.3l18-10.3zm0 31.1v4.3l-17.9 10.3v-4.3l17.9-10.3zm0 7.8v4.3l-17.9 10.3v-4.3l17.9-10.3zm-94.46 54.44l69.8-40.3v4.3l-69.8 40.3v-4.3zm34.724-27.8l35.1-20.2v4.3l-35.1 20.2v-4.3zm-66.064 14.76v4.3l-9.5 5.5v-4.3l9.5-5.5zm51.4-37.5l49.7-28.7v4.3l-49.7 28.7v-4.3zm20.4-74.1l29.3-16.9v4.3l-29.3 16.9v-4.3zm-48.1 27.76l44.4-25.6v4.3l-44.4 25.6v-4.3zm25.9-7.16l31.3-18v4.3l-31.3 18v-4.3zm-32.8 18.96l29.1-16.8v4.3l-29.1 16.8v-4.3zm-3.7 2.1v4.3l-22.6 13v-4.3l22.6-13zm82.2-39.66v4.3l-23.5 13.6v-4.3l23.5-13.6zm-95.6 55.2l68.4-39.4v4.3l-68.4 39.4v-4.3zm39.2.8l44.7-25.8v4.3l-44.7 25.8v-4.3zm-39.2 22.6l35.5-20.5v4.3l-35.5 20.5v-4.3zm3.944 21.06l44.1-25.4v4.3l-44.1 25.4v-4.3zm24.056-6.06v4.3l-24 13.9v-4.3l24-13.9zm64.8-37.3l8.6-5v4.3l-8.6 5v-4.3zm-16.26 9.273v4.3l-44.9 25.9v-4.3l44.9-25.9zm3.7-2.1l8.8-5.1v4.3l-8.8 5.1v-4.3zm-40.34 31.027l49.1-28.3v4.3l-49.1 28.3v-4.3z"/></g><path d="M666.986 124.16l-49.7-28.8c-2.3-1.4-5.2-1.4-7.6 0l-153.5 88.8c-1.6.9-2.1 3-1.2 4.5.3.5.7.9 1.2 1.2l48.5 28c2.8 1.6 6.2 1.6 9 0l153.3-88.7c1.4-.8 1.9-2.6 1.1-4.1-.3-.3-.7-.6-1.1-.9h0z" class="m"/><path d="M666.986 129.26l-153.3 88.7c-2.8 1.6-6.2 1.6-9 0l-48.5-28c-1-.6-1.7-1.7-1.7-2.9v6a3.19 3.19 0 0 0 1.6 2.8l48.5 28.1c2.8 1.6 6.2 1.6 9 0l153.3-88.7c.9-.5 1.5-1.5 1.5-2.6h0v-5.9c.1 1-.5 2-1.4 2.5z" class="n"/><g fill="#1f5e77"><use xlink:href="#E"/><path d="M609.013 108.54l-6.2-3.6-7.1 4.1 6.2 3.6 7.1-4.1zm-8.9 5.1l-6.2-3.6-7.1 4.1 6.2 3.6 7.1-4.1zm-8.8 5.1l-6.2-3.6-7.1 4.1 6.2 3.6 7.1-4.1zm-8.8 5l-6.2-3.6-7.1 4.1 6.2 3.6 7.1-4.1zm-8.8 5.1l-6.2-3.6-7.1 4.1 6.2 3.6 7.1-4.1zm-8.8 5.1l-6.2-3.6-7.1 4.1 6.2 3.6 7.1-4.1zm-8.9 5.1l-6.2-3.6-7.1 4.1 6.2 3.6 7.1-4.1zm-8.8 5l-6.2-3.6-7.1 4.1 6.2 3.6 7.1-4.1zm-8.8 5.1l-6.2-3.6-7.1 4.1 6.2 3.6 7.1-4.1zm-8.9 5.1l-6.2-3.6-7.1 4.1 6.2 3.6 7.1-4.1zm-8.8 5.1l-6.2-3.6-7.1 4.1 6.2 3.6 7.1-4.1zm-15 1.5l-7.1 4 6.2 3.6 7.1-4.1-6.2-3.5z"/><use xlink:href="#F"/><use xlink:href="#G"/><path d="M594.913 118.74l6.2 3.6 7.1-4.1-6.2-3.6-7.1 4.1zm-8.8 5.1l6.2 3.6 7.1-4.1-6.2-3.6-7.1 4.1zm-8.9 5.1l6.2 3.6 7.1-4.1-6.2-3.6-7.1 4.1zm-8.8 5.1l6.2 3.6 7.1-4.1-6.2-3.6-7.1 4.1zm-8.8 5l6.2 3.6 7.1-4.1-6.2-3.6-7.1 4.1zm-8.8 5.1l6.2 3.6 7.1-4.1-6.2-3.6-7.1 4.1zm-8.9 5.1l6.2 3.6 7.1-4.1-6.2-3.6-7.1 4.1zm-8.8 5.1l6.2 3.6 7.1-4.1-6.2-3.6-7.1 4.1zm-8.8 5l6.2 3.6 7.1-4.1-6.2-3.6-7.1 4.1zm-8.8 5.1l6.2 3.6 7.1-4.1-6.2-3.6-7.1 4.1z"/><use xlink:href="#H"/><path d="M626.813 116.84l7.1-4.1-6.2-3.6-7.1 4.1 6.2 3.6zm-15 1.5l6.2 3.6 7.1-4.1-6.2-3.6-7.1 4.1zm4.5 4.6l-6.2-3.6-7.1 4.1 6.2 3.6 7.1-4.1zm-22.2 5.5l6.2 3.6 7.1-4.1-6.2-3.6-7.1 4.1zm-8.8 5.1l6.2 3.6 7.1-4.1-6.2-3.6-7.1 4.1zm-8.8 5.1l6.2 3.6 7.1-4.1-6.2-3.6-7.1 4.1zm-8.8 5.1l6.2 3.6 7.1-4.1-6.2-3.6-7.1 4.1zm-8.9 5.1l6.2 3.6 7.1-4.1-6.2-3.6-7.1 4.1zm-8.8 5l6.2 3.6 7.1-4.1-6.2-3.6-7.1 4.1zm-8.8 5.1l6.2 3.6 7.1-4.1-6.2-3.6-7.1 4.1zm-8.8 5.1l6.2 3.6 7.1-4.1-6.2-3.6-7.1 4.1zm4.4 4.6l-6.2-3.6-7.1 4.1 6.2 3.6 7.1-4.1zm-15 1.5l-7.1 4.1 6.2 3.6 7.1-4.1-6.2-3.6zm113.1-48.6l7.1-4.1-6.2-3.6-7.1 4.1 6.2 3.6zm-1.8 1l-6.2-3.6-7.1 4.1 6.2 3.6 7.1-4.1zm-8.8 5.1l-6.2-3.6-7.1 4.1 6.2 3.6 7.1-4.1zm-8.8 5l-6.2-3.6-7.1 4.1 6.2 3.6 7.1-4.1zm-8.8 5.1l-6.2-3.6-7.1 4.1 6.2 3.6 7.1-4.1zm-8.9 5.1l-6.2-3.6-7.1 4.1 6.2 3.6 7.1-4.1zm-8.8 5.1l-6.2-3.6-7.1 4.1 6.2 3.6 7.1-4.1zm-8.8 5.1l-6.2-3.6-7.1 4.1 6.2 3.6 7.1-4.1zm-8.8 5l-6.2-3.6-7.1 4.1 6.2 3.6 7.1-4.1zm-8.9 5.1l-6.2-3.6-7.1 4.1 6.2 3.6 7.1-4.1zm-8.8 5.1l-6.2-3.6-7.1 4.1 6.2 3.6 7.1-4.1zm-8.8 5.1l-6.2-3.6-7.1 4.1 6.2 3.6 7.1-4.1zm-15.1 1.5l-7.1 4.1 6.2 3.6 7.1-4.1-6.2-3.6zm113.1-48.6l7.1-4.1-6.2-3.6-7.1 4.1 6.2 3.6zm-1.7.9l-6.2-3.6-7.1 4.1 6.2 3.6 7.1-4.1zm-8.8 5.1l-6.2-3.6-7.1 4.1 6.2 3.6 7.1-4.1zm-8.9 5.1l-6.2-3.6-7.1 4.1 6.2 3.6 7.1-4.1zm-8.8 5.1l-6.2-3.6-7.1 4.1 6.2 3.6 7.1-4.1zm-8.8 5.1l-6.2-3.6-7.1 4.1 6.2 3.6 7.1-4.1zm-8.8 5.1l-6.2-3.6-7.1 4.1 6.2 3.6 7.1-4.1zm-8.9 5l-6.2-3.6-7.1 4.1 6.2 3.6 7.1-4.1zm-8.8 5.1l-6.2-3.6-7.1 4.1 6.2 3.6 7.1-4.1zm-8.8 5.1l-6.2-3.6-7.1 4.1 6.2 3.6 7.1-4.1zm-8.8 5.1l-6.2-3.6-7.1 4.1 6.2 3.6 7.1-4.1zm-8.8 5l-6.2-3.6-7.1 4.1 6.2 3.6 7.1-4.1zm-15.1 1.5l-7.1 4.1 6.2 3.6 7.1-4.1-6.2-3.6zm113.9-56.3l-7.1 4.1 6.2 3.6 7.1-4.1-6.2-3.6zm-15.9 9.2l6.2 3.6 7.1-4.1-6.2-3.6-7.1 4.1zm-8.8 5.1l6.2 3.6 7.1-4.1-6.2-3.6-7.1 4.1zm-8.8 5l6.2 3.6 7.1-4.1-6.2-3.6-7.1 4.1zm-8.8 5.1l6.2 3.6 7.1-4.1-6.2-3.6-7.1 4.1zm-8.9 5.1l6.2 3.6 7.1-4.1-6.2-3.6-7.1 4.1zm-1.7 1l-8.8 5.1-1.7 1-7.1 4.1-3.6 2.1-5.2 3-15.9 9.1 6.2 3.6 10.8-6.2 5.1-2.9 5.4-3.1 10.5-6 10.7-6.2-6.4-3.6zm-51.2 29.5l6.2 3.6 7.1-4.1-6.2-3.6-7.1 4.1zm-8.8 5.1l6.2 3.6 7.1-4.1-6.2-3.6-7.1 4.1zm-44.597-13.694l-6.2-3.6-7.1 4.1 6.2 3.6 7.1-4.1zm-8.9 5.1l-6.2-3.6-7.1 4.1 6.2 3.6 7.1-4.1zm-8.8 5.1l-6.2-3.6-7.1 4.1 6.2 3.6 7.1-4.1zm12.4-5.1l6.2 3.6 7.1-4.1-6.2-3.6-7.1 4.1zm-8.8 5.1l6.2 3.6 7.1-4.1-6.2-3.6-7.1 4.1zm-8.9 5.1l6.2 3.6 7.1-4.1-6.2-3.6-7.1 4.1zm25.8-5.5l6.2 3.6 7.1-4.1-6.2-3.6-7.1 4.1zm-8.9 5.1l6.2 3.6 7.1-4.1-6.2-3.6-7.1 4.1zm-8.8 5.1l6.2 3.6 7.1-4.1-6.2-3.6-7.1 4.1zm39-6l-6.2-3.6-7.1 4.1 6.2 3.6 7.1-4.1zm-8.8 5.1l-6.2-3.6-7.1 4.1 6.2 3.6 7.1-4.1zm-8.8 5.1l-6.2-3.6-7.1 4.1 6.2 3.6 7.1-4.1zm25.7-5.5l-6.2-3.6-7.1 4.1 6.2 3.6 7.1-4.1zm-8.9 5.1l-6.2-3.6-7.1 4.1 6.2 3.6 7.1-4.1zm-8.8 5l-6.2-3.6-7.1 4.1 6.2 3.6 7.1-4.1zm12.4-5l6.2 3.6 7.1-4.1-6.2-3.6-7.1 4.1zm-8.8 5.1l6.2 3.6 7.1-4.1-6.2-3.6-7.1 4.1zm44.24-127.006l-48.9-28.4c-2.1-1.2-4.6-1.2-6.7 0l-116 67c-1.4.8-1.9 2.6-1.1 4 .3.4.6.8 1.1 1.1l47.8 27.8c2.5 1.4 5.5 1.4 8 0l115.9-66.9c1.3-.7 1.7-2.3 1-3.6-.4-.4-.7-.8-1.1-1h0z"/></g><path d="M556.655 81.04l-115.9 66.9c-2.5 1.4-5.5 1.4-8 0l-47.7-27.8c-.9-.5-1.5-1.5-1.5-2.5v6c0 1 .6 2 1.5 2.5l47.8 27.8c2.5 1.4 5.5 1.4 8 0l115.9-66.9c.8-.5 1.3-1.4 1.3-2.3h0v-5.9c-.1.8-.6 1.7-1.4 2.2z" class="o"/><path d="M556.655 81.04l-115.8 66.9c-1.1.6-2.4 1-3.6 1v6c1.3 0 2.5-.4 3.6-1l115.9-66.9c.8-.5 1.3-1.4 1.3-2.3v-5.9c-.1.8-.6 1.7-1.4 2.2h0z" class="n"/><path d="M429.807 80.9l90.2-52.2v44.7l-90.2 52.1V80.9z" class="m"/><g class="o"><path d="M507.407 21.5l12.6 7.2-90.2 52.2-12.6-7.2 90.2-52.2z"/><path d="M417.207 73.7l12.6 7.2v44.6l-12.6-7.3V73.7z"/></g><path d="M611.086-198.68l-274.1 159v201.7l274.1-159.6v-201.1z" fill="#3a3a3a"/><path d="M336.986-39.68l-9.1-5.5v201.7l9.1 5.5v-201.7z" class="o"/><path d="M611.086-198.68l-9.3-5.4-273.9 158.9 9.1 5.5 274.1-159z" fill="#1f5e77"/><path d="M336.986-39.68v201.7l274.1-159.6v-201.1l-274.1 159zm6.5 3.7l261.1-151.5v186.1l-261.1 152.1v-186.7z" class="n"/><use xlink:href="#I" fill="#f5d012"/><g class="j"><use xlink:href="#J"/><path d="M577.028-137.273v5.4l-22.5 13v-5.4l22.5-13zm-169.6 113v-5.3l138.7-80v5.4l-138.7 79.9zm169.6-103.2v5.4l-22.5 13v-5.3l22.5-13.1zm0 9.8v5.4l-22.5 13v-5.4l22.5-13z"/></g><path d="M407.428-14.573v-5.4l138.7-80v5.4l-138.7 80z" class="l"/><path d="M577.028-88.373v5.4l-22.5 13v-5.4l22.5-13z" class="j"/><path d="M577.028-78.573v5.4l-22.5 13v-5.4l22.5-13z" fill="#f5d012"/><g class="j"><path d="M577.028-39.473v5.4l-22.5 13v-5.3l22.5-13.1zm0 9.7v5.3l-22.5 13v-5.3l22.5-13z"/></g><path d="M458.628 38.587l87.5-50.5v5.3l-87.5 50.5v-5.3z" class="l"/><g class="j"><path d="M454.028 41.187v5.4l-46.6 26.8v-5.4l46.6-26.8zm48.1-37.47l44-25.4v5.3l-44 25.4v-5.3zm-4.6 2.6v5.4l-90.1 52v-5.4l90.1-52zm-78.2 15.8v5.3l-11.9 6.8v-5.4l11.9-6.7z"/></g><path d="M483.828-24.773l62.3-35.9v5.4l-62.3 35.9v-5.4z" class="p"/><g class="j"><path d="M509.328-117.773l36.8-21.2v5.4l-36.8 21.2v-5.4zm-60.288 34.8l55.7-32.1v5.4l-55.7 32.1v-5.4zm32.488-8.9l39.2-22.6v5.4l-39.2 22.6v-5.4z"/></g><path d="M440.328-68.142l36.5-21.1v5.4l-36.5 21.1v-5.4z" class="p"/><path d="M435.728-65.542v5.4l-28.3 16.3v-5.4l28.3-16.3z" class="j"/><path d="M538.828-115.273v5.3l-29.5 17v-5.3l29.5-17z" class="p"/><g class="j"><path d="M419.028-46.073l85.7-49.5v5.3l-85.7 49.5v-5.3zm49 1l56-32.3v5.4l-56 32.3v-5.4zm-49 28.3l44.5-25.7v5.3l-44.5 25.7v-5.3zm4.867 26.5l55.3-31.9v5.4l-55.3 31.8v-5.3z"/></g><path d="M454.028 2.127v5.3l-30.1 17.4v-5.3l30.1-17.4z" fill="#50e85e"/><g class="j"><path d="M535.228-44.773l10.8-6.3v5.4l-10.8 6.3v-5.4zm-20.308 11.8v5.4l-56.3 32.4v-5.4l56.3-32.4zm4.6-2.7l11.1-6.4v5.4l-11.1 6.4v-5.4zm-50.492 38.9l61.6-35.5v5.3l-61.6 35.5v-5.3z"/><use xlink:href="#K"/><path d="M397.645-50.566v1.5l-6.2 3.6v-1.5l6.2-3.6zm0 2.7v1.5l-6.2 3.6v-1.5l6.2-3.6z"/><use xlink:href="#L"/><path d="M397.645-45.166v1.5l-6.2 3.6v-1.5l6.2-3.6zm0 2.7v1.5l-6.2 3.6v-1.5l6.2-3.6zm-46.7 28.4v-1.5l38.2-22v1.5l-38.2 22zm46.7-20.3v1.5l-6.2 3.6v-1.5l6.2-3.6zm0 2.6v1.5l-6.2 3.6v-1.5l6.2-3.6zm0 10.8v1.5l-6.2 3.6v-1.5l6.2-3.6zm0 2.7v1.5l-6.2 3.6v-1.5l6.2-3.6zM365.045.55l24.1-13.9v1.5l-24.1 13.9V.55z"/><use xlink:href="#M"/><use xlink:href="#N"/><use xlink:href="#O"/><use xlink:href="#P"/><use xlink:href="#Q"/><use xlink:href="#R"/><path d="M362.41-32.976l15.3-8.9v1.5l-15.3 8.9v-1.5z"/><use xlink:href="#S"/><path d="M360.045-28.86l10.1-5.8v1.5l-10.1 5.8v-1.5z"/><use xlink:href="#T"/><use xlink:href="#U"/><use xlink:href="#V"/><use xlink:href="#W"/><use xlink:href="#X"/><use xlink:href="#Y"/><use xlink:href="#Z"/><use xlink:href="#a"/><use xlink:href="#b"/><use xlink:href="#c"/><use xlink:href="#d"/><path d="M397.645-7.706v1.5l-6.2 3.6v-1.5l6.2-3.6zm0 2.7v1.5l-6.2 3.6v-1.5l6.2-3.6zm0 2.7v1.5l-6.2 3.6v-1.5l6.2-3.6zm-46.7 31.1v-1.5l38.2-22v1.5l-38.2 22zm46.7-28.4v1.5l-6.2 3.6v-1.5l6.2-3.6zm0 2.7v1.5l-6.2 3.6v-1.5l6.2-3.6zm-46.7 28.4v-1.5l38.2-22v1.5l-38.2 22zm46.7-20.3v1.5l-6.2 3.6v-1.5l6.2-3.6zm0 2.6v1.5l-6.2 3.6v-1.5l6.2-3.6zm0 10.8v1.5l-6.2 3.6v-1.5l6.2-3.6zm0 2.7v1.5l-6.2 3.6v-1.5l6.2-3.6zm-32.6 18.816l24.1-13.9v1.5l-24.1 13.9v-1.5zm-1.3.7v1.5l-12.8 7.4v-1.5l12.8-7.4zm13.3-10.293l12.1-7v1.5l-12.1 7v-1.5zm-1.3.7v1.5l-24.8 14.3v-1.5l24.8-14.3zm-21.5 4.377v1.5l-3.3 1.9v-1.5l3.3-1.9zm17.7-12.9l17.2-9.9v1.5l-17.2 9.9v-1.5zm7.1-25.6l10.1-5.8v1.5l-10.1 5.8v-1.5zm-16.635 9.59l15.3-8.8v1.5l-15.3 8.9v-1.6zm8.935-2.49l10.8-6.2v1.5l-10.8 6.2v-1.5zm-11.3 6.508l10.1-5.8v1.5l-10.1 5.8v-1.5zm-1.3.7v1.5l-7.8 4.5v-1.5l7.8-4.5zm28.4-13.608v1.5l-8.1 4.7v-1.5l8.1-4.7zm-33 19l23.6-13.6v1.5l-23.6 13.6v-1.5zm13.5.3l15.4-8.9v1.5l-15.4 8.9v-1.5zm-13.5 7.8l12.3-7.1v1.5l-12.3 7.1v-1.5zm1.337 7.29l15.2-8.8v1.5l-15.2 8.8v-1.5zm8.263-2.09v1.5l-8.3 4.8v-1.5l8.3-4.8zm22.4-12.9l3-1.7v1.5l-3 1.7v-1.5zm-5.595 3.202v1.5l-15.5 9v-1.5l15.5-9zm1.3-.7l3.1-1.8v1.5l-3.1 1.8v-1.5zm-13.905 10.698l17-9.8v1.5l-17 9.8v-1.5zm29.7 1.46v1.5l-6.2 3.6v-1.5l6.2-3.6zm0 2.7v1.5l-6.2 3.6v-1.5l6.2-3.6zm0 2.7v1.5l-6.2 3.6v-1.5l6.2-3.6zm-46.7 31.1v-1.5l38.2-22v1.5l-38.2 22zm46.7-28.4v1.5l-6.2 3.6v-1.5l6.2-3.6zm0 2.7v1.5l-6.2 3.6v-1.5l6.2-3.6zm-46.7 28.4v-1.5l38.2-22v1.5l-38.2 22zm46.7-20.3v1.5l-6.2 3.6v-1.5l6.2-3.6zm0 2.6v1.5l-6.2 3.6v-1.5l6.2-3.6zm0 10.8v1.5l-6.2 3.6v-1.5l6.2-3.6zm0 2.7v1.5l-6.2 3.6v-1.5l6.2-3.6zm-32.6 18.816l24.1-13.9v1.5l-24.1 13.9v-1.5zm-1.3.7v1.5l-12.8 7.4v-1.5l12.8-7.4zm13.3-10.293l12.1-7v1.5l-12.1 7v-1.5zm-1.3.7v1.5l-24.8 14.3v-1.5l24.8-14.3zm-21.5 4.377v1.5l-3.3 1.9v-1.5l3.3-1.9zm17.7-12.9l17.2-9.9v1.5l-17.2 9.9v-1.5zm7.1-25.6l10.1-5.8v1.5l-10.1 5.8v-1.5zm-16.635 9.59l15.3-8.8v1.5l-15.3 8.9v-1.6zm8.935-2.49l10.8-6.2v1.5l-10.8 6.2v-1.5zm-11.3 6.506l10.1-5.8v1.5l-10.1 5.8v-1.5zm-1.3.7v1.5l-7.8 4.5v-1.5l7.8-4.5zm28.4-13.706v1.5l-8.1 4.7v-1.5l8.1-4.7zm-33 19.1l23.6-13.6v1.5l-23.6 13.6v-1.5zm13.5.3l15.4-8.9v1.5l-15.4 8.9v-1.5zm-13.5 7.8l12.3-7.1v1.5l-12.3 7.1v-1.5zm1.337 7.29l15.2-8.8v1.5l-15.2 8.8v-1.5zm8.263-2.09v1.5l-8.3 4.8v-1.5l8.3-4.8zm22.4-12.9l3-1.7v1.5l-3 1.7v-1.5zm-5.595 3.2v1.5l-15.5 9v-1.5l15.5-9zm1.3-.7l3.1-1.8v1.5l-3.1 1.8v-1.5zm-13.905 10.7l17-9.8v1.5l-17 9.8v-1.5zm29.7 1.46v1.5l-6.2 3.6v-1.5l6.2-3.6zm0 2.7v1.5l-6.2 3.6v-1.5l6.2-3.6zm0 2.7v1.5l-6.2 3.6v-1.5l6.2-3.6zm-46.7 31.1v-1.5l38.2-22v1.5l-38.2 22zm46.7-28.4v1.5l-6.2 3.6v-1.5l6.2-3.6zm0 2.7v1.5l-6.2 3.6v-1.5l6.2-3.6zm-46.7 28.4v-1.5l38.2-22v1.5l-38.2 22zm46.7-20.3v1.5l-6.2 3.6v-1.5l6.2-3.6zm0 2.6v1.5l-6.2 3.6v-1.5l6.2-3.6zm-43.4 27.8v1.5l-3.3 1.9v-1.5l3.3-1.9zm17.7-12.9l17.2-9.9v1.5l-17.2 9.9v-1.5zm7.1-25.7l10.1-5.8v1.5l-10.1 5.8v-1.5zm-16.635 9.6l15.3-8.9v1.5l-15.3 8.8v-1.4zm8.935-2.4l10.8-6.2v1.5l-10.8 6.2v-1.5zm-11.3 6.506l10.1-5.8v1.5l-10.1 5.8v-1.5zm-1.3.7v1.5l-7.8 4.5v-1.5l7.8-4.5zm28.4-13.606v1.5l-8.1 4.7v-1.5l8.1-4.7zm-33 19l23.6-13.6v1.5l-23.6 13.6v-1.5zm13.5.3l15.4-8.9v1.5l-15.4 8.9v-1.5zm-13.5 7.8l12.3-7.1v1.5l-12.3 7.1v-1.5zm1.337 7.29l15.2-8.8v1.5l-15.2 8.8v-1.5zm8.263-2.09v1.5l-8.3 4.8v-1.5l8.3-4.8zm22.4-12.9l3-1.7v1.5l-3 1.7v-1.5zm-5.595 3.2v1.5l-15.5 9v-1.5l15.5-9zm1.3-.7l3.1-1.8v1.5l-3.1 1.8v-1.5zm-13.905 10.7l17-9.8v1.5l-17 9.8v-1.5z"/></g><g class="l"><path d="M591.385-165.126l7.4-4.3c.3-.2.6-.1.7.2 0 .1.1.2.1.3v8.9a1.1 1.1 0 0 1-.6 1l-7.4 4.3c-.3.2-.6.1-.8-.2 0-.1-.1-.2-.1-.3v-8.8c.1-.4.3-.8.7-1.1z"/><use xlink:href="#e"/><use xlink:href="#f"/><use xlink:href="#g"/><path d="M591.385-112.026l7.4-4.3c.3-.1.6-.1.7.2 0 .1.1.2.1.3v8.9a1.1 1.1 0 0 1-.6 1l-7.4 4.3c-.3.2-.6.1-.8-.2 0-.1-.1-.2-.1-.3v-8.8c.1-.5.3-.9.7-1.1zm0 13.2l7.4-4.3c.3-.1.6-.1.7.2 0 .1.1.2.1.3v8.9a1.1 1.1 0 0 1-.6 1l-7.4 4.3c-.3.2-.6.1-.8-.2 0-.1-.1-.2-.1-.3v-8.8c.1-.4.3-.8.7-1.1zm0 13.3l7.4-4.3c.3-.2.6-.1.7.2 0 .1.1.2.1.3v8.9a1.1 1.1 0 0 1-.6 1l-7.4 4.3c-.3.2-.6.1-.8-.2 0-.1-.1-.2-.1-.3v-8.8c.1-.5.3-.9.7-1.1zm0 13.3l7.4-4.3c.3-.2.6-.1.7.2 0 .1.1.2.1.3v8.9a1.1 1.1 0 0 1-.6 1l-7.4 4.3c-.3.2-.6.1-.8-.2 0-.1-.1-.2-.1-.3v-8.8c.1-.5.3-.9.7-1.1zm0 13.2l7.4-4.3c.3-.2.6-.1.7.2 0 .1.1.2.1.3v8.9a1.1 1.1 0 0 1-.6 1l-7.4 4.3c-.3.2-.6.1-.8-.2 0-.1-.1-.2-.1-.3v-8.8c.1-.5.3-.9.7-1.1zm0 13.3l7.4-4.3c.3-.1.6-.1.7.2 0 .1.1.2.1.3v8.9a1.1 1.1 0 0 1-.6 1l-7.4 4.3c-.3.2-.6.1-.8-.2 0-.1-.1-.2-.1-.3v-8.8c.1-.5.3-.9.7-1.1zm0 13.2l7.4-4.3c.3-.1.6-.1.7.2 0 .1.1.2.1.3v8.9a1.1 1.1 0 0 1-.6 1l-7.4 4.3c-.3.2-.6.1-.8-.2 0-.1-.1-.2-.1-.3v-8.8c.1-.4.3-.9.7-1.1zm0 13.3l7.4-4.3c.3-.1.6-.1.7.2 0 .1.1.2.1.3v8.9a1.1 1.1 0 0 1-.6 1l-7.4 4.3c-.3.2-.6.1-.8-.2 0-.1-.1-.2-.1-.3v-8.8c.1-.5.3-.9.7-1.1z"/></g><path d="M688.686 53.72s12.7-5.7 27.6 4.2 24.9 23.7 18.9 28.7c-6.1 5.1-17.8 10.5-25.5 7.8s-45.5-24.9-21-40.7h0z" class="m"/><path d="M353.075 203.75h11v11.9h-11c-4.1 0-7.4 3.3-7.4 7.4v19.3c0 4.1 3.3 7.4 7.4 7.4h16.1v11.9h-16.1a19.25 19.25 0 0 1-19.3-19.3v-19.3c0-10.6 8.7-19.3 19.3-19.3z" class="q"/><path d="M363.275 193.85v66.9c0 10.4 15.5 18.8 34.5 18.8s34.5-8.4 34.5-18.8v-66.9h-69z" class="k"/><path d="M432.275 193.85c0 10.4-15.5 18.8-34.5 18.8s-34.5-8.4-34.5-18.8 15.5-18.8 34.5-18.8 34.5 8.5 34.5 18.8z" class="i"/><path d="M425.375 193.65c0 8.1-12.4 14.7-27.6 14.7s-27.6-6.6-27.6-14.7 12.4-14.7 27.6-14.7c15.3 0 27.6 6.6 27.6 14.7z" class="q"/><path d="M397.475 187.95c12.1 0 22.4 4.1 26.1 9.9-3.7 5.7-14 9.9-26.1 9.9s-22.3-4.1-26.1-9.9c3.7-5.8 14-9.9 26.1-9.9z" fill="#52281c"/><path d="M385.375 211.95v66.9c-6.8-1.5-12.5-4.2-16.3-7.5v-66.9c3.9 3.3 9.5 6 16.3 7.5h0z" class="q"/><path d="M647.22-84.56l39.5-22.8c1.2-.7 2.8-.6 4 .2h0l8.7 5-4 5.5-1.5 1.7v39.1c0 2.3-1.2 4.5-3.3 5.7l-29.6 17.1-.3 1.6-6 8.5-9.3-5.5h-.1c-.9-.5-1.4-1.5-1.4-2.5v-47.7c-.1-2.5 1.2-4.7 3.3-5.9z" fill="#00dd05"/><path d="M656.42-79.16l40-23.1c1.4-.8 3.2-.3 4 1.1.3.4.4.9.4 1.5v47.9c0 2.3-1.2 4.5-3.3 5.7l-40 23.1c-1.4.8-3.3.3-4.1-1.1-.3-.5-.4-1-.4-1.5v-47.7c0-2.4 1.3-4.7 3.4-5.9h0z" fill="#00a508"/><path d="M653.02-25.64v-47.7c0-.8.2-1.6.5-2.3l-9.3-5.3c-.3.7-.4 1.5-.4 2.2v47.7c0 1 .5 2 1.4 2.5h.1l9.2 5.4c-.9-.4-1.5-1.4-1.5-2.5z" fill="#006602"/><g class="i"><path d="M687.688-82.13c.5.8.8 1.7.7 2.6v5.8c0 1.1.4 1.7 1 1.7 1.1 0 2.1-.4 3-1v4c-1.1.6-2.1 1.4-3 2.4-.7.9-1.1 2-1 3.1v5.7c0 1.2-.2 2.3-.6 3.4-.5 1-1.2 2-2 2.7-1.2 1-2.5 2-3.9 2.7v-3.8c.9-.5 1.6-1.1 2.2-1.9.4-.7.6-1.5.6-2.3v-5.6c0-2.2 1.2-4.1 3.6-5.9v-.2c-2.4 1-3.6.3-3.6-2v-5.4c0-.9-.2-1.4-.6-1.6s-1.1 0-2.2.6v-3.8c1.2-.8 2.5-1.3 3.8-1.7.7-.2 1.4 0 2 .5zm-22.3 24.1c.7-.8 1-1.9 1-2.9v-5.8c-.1-1.7.5-3.4 1.5-4.8 1.4-1.7 3.1-3.1 5.1-4.1v3.8c-.9.5-1.6 1.1-2.2 1.9-.4.7-.6 1.5-.6 2.3v5.4c0 2.3-1.2 4.4-3.6 6.2v.2c.8-.4 1.8-.5 2.7-.3.6.3.9 1 .9 2.1v5.6c0 .9.2 1.4.6 1.6s1.1 0 2.2-.6v3.8c-2.4 1.4-4.1 2-5.1 1.8s-1.5-1.2-1.5-3.1v-5.7c0-1.2-.4-1.8-1-1.9-1.1 0-2.1.4-3 1v-4c1.1-.7 2.1-1.5 3-2.5z"/></g><path d="M646.96-164.95l38.2-22.1c1.2-.7 2.7-.6 3.8.2h0l8.4 4.8-3.9 5.3-1.5 1.7v37.9c0 2.3-1.2 4.3-3.2 5.5l-28.6 16.5-.3 1.6-5.8 8.2-9-5.3h-.1c-.9-.5-1.4-1.5-1.4-2.5v-46.1c.1-2.3 1.3-4.5 3.4-5.7z" fill="#ffc73b"/><path d="M655.86-159.65l38.7-22.3c1.4-.8 3.1-.3 3.9 1 .2.4.4.9.4 1.4v46.3c0 2.3-1.2 4.3-3.2 5.5l-38.7 22.4c-1.4.8-3.2.3-4-1.1-.3-.4-.4-.9-.4-1.5v-46.1c0-2.3 1.3-4.4 3.3-5.6h0z" fill="#f9b800"/><path d="M654.06-105.404h0z" class="k"/><path d="M652.56-107.904v-46.1c0-.8.2-1.5.4-2.2l-9-5.2c-.3.7-.4 1.4-.4 2.1v46.1c0 1 .5 1.9 1.4 2.5h.1l8.9 5.2c-.8-.4-1.4-1.4-1.4-2.4z" fill="#ce8900"/><g class="i"><path d="M693.905-152.133l-12 13v-3.3l8.3-8.7-8.3.4v-3.3h12v1.9zm-13.2 16.5l-3.3 1.9-6.7-16.5 3.4-1.9 6.6 16.5zm-11.2-11.3v3.3l-8.3 9.2 8.3-.9v3.3l-12 .9v-2l12-13.8z"/></g><g transform="matrix(.966 -.259 .259 .966 -247.89 442.67)" opacity=".2" class="i"><use xlink:href="#h"/><use xlink:href="#i"/></g><g class="i"><use xlink:href="#j"/><path d="M665.73-221v2.3l-9.7 5.6v-2.3l9.7-5.6zm0 4.2v2.3l-9.7 5.6v-2.3l9.7-5.6zm0 4.2v2.3l-9.7 5.6v-2.3l9.7-5.6zm0 4.2v2.3l-9.7 5.6v-2.3l9.7-5.6zm0 12.6v2.3l-9.7 5.6v-2.3l9.7-5.6z"/></g><path d="M644.787-248l39.2-22.6c1.2-.7 2.8-.6 3.9.2h0l8.6 5-4 5.4-1.5 1.7v38.9c0 2.3-1.2 4.5-3.2 5.6l-29.4 17-.3 1.6-6 8.4-9.2-5.4h-.1c-.9-.5-1.4-1.5-1.4-2.5V-242c.1-2.6 1.4-4.8 3.4-6z" fill="#f94848"/><path d="M653.987-242.6l39.7-22.9c1.4-.8 3.2-.3 4 1.1.3.4.4.9.4 1.4v47.5c0 2.3-1.2 4.5-3.2 5.6l-39.7 22.9c-1.4.8-3.2.3-4.1-1.1-.3-.5-.4-1-.4-1.5v-47.3c0-2.3 1.2-4.5 3.3-5.7h0z" fill="#f70000"/><path d="M652.187-186.876h0z" class="k"/><path d="M650.687-189.476v-47.3c0-.8.2-1.6.5-2.3l-9.2-5.3c-.3.7-.4 1.4-.4 2.2v47.3c0 1 .5 2 1.4 2.5h.1l9.1 5.4c-1-.5-1.5-1.4-1.5-2.5z" fill="#c40000"/><g class="i"><path d="M662.36-211.82c.7-.4 1.3-.9 1.8-1.4l1.8-1.9 1.1 2.5c-1.3 1.6-2.9 2.9-4.7 4-1.2.8-2.6 1.2-4 1.2-1.1-.1-2.1-.8-2.6-1.8a8.88 8.88 0 0 1-.9-4.5c-.1-2.8.6-5.6 1.8-8.1 1.2-2.3 3.1-4.3 5.4-5.5 1.3-.8 2.9-1.4 4.4-1.6v3.3c-1.4.2-2.8.7-4.1 1.4-2.7 1.6-4 4.4-4 8.5 0 2 .4 3.3 1.1 4s1.6.6 2.9-.1zm26.2-27.8l2.4-1.4v4.9l4.3-2.5v2.8l-4.3 2.5v4.9l-2.4 1.4v-4.9l-4.3 2.5v-2.8l4.3-2.5v-4.9zm-13.4 12.8v-4.9l2.4-1.4v4.9l4.3-2.5v2.8l-4.3 2.5v4.9l-2.4 1.4v-4.9l-4.3 2.5v-2.8l4.3-2.5z"/></g><g transform="matrix(.966 -.259 .259 .966 424.69 -127)" opacity=".2" class="i"><use xlink:href="#h"/><use xlink:href="#i"/></g></g></svg>