<svg xmlns="http://www.w3.org/2000/svg" xmlns:xlink="http://www.w3.org/1999/xlink" width="1024" height="1366" viewBox="0 0 1024 1366">
  <defs>
    <linearGradient id="linear-gradient" x1="0.606" y1="0.047" x2="-0.079" y2="0.9" gradientUnits="objectBoundingBox">
      <stop offset="0" stop-color="#2ba6f8"/>
      <stop offset="1" stop-color="#090909"/>
      <stop offset="1"/>
    </linearGradient>
    <linearGradient id="linear-gradient-2" x1="0.606" y1="0.047" x2="-0.079" y2="0.9" gradientUnits="objectBoundingBox">
      <stop offset="0" stop-color="#2ba6f8"/>
      <stop offset="1"/>
    </linearGradient>
    <clipPath id="clip-Portfolio_Site_ProjectsPage_Top_Div_-_Tablet">
      <rect width="1024" height="1366"/>
    </clipPath>
  </defs>
  <g id="Portfolio_Site_ProjectsPage_Top_Div_-_Tablet" data-name="Portfolio Site ProjectsPage Top Div - Tablet" clip-path="url(#clip-Portfolio_Site_ProjectsPage_Top_Div_-_Tablet)">
    <rect width="1024" height="1366" fill="#fff"/>
    <g id="Group_444" data-name="Group 444" transform="translate(-800.126 -1004.775) rotate(21)">
      <path id="Path_1" data-name="Path 1" d="M2178.38,177.19S1779.792,185.9,1287.463,28.111s1.627,394.726,207.073,515.949c129.741,64.992,168,191.3,159.428,308.912-11.244,154.328-237.4,159.937-427.024,258.039-457.893,236.887,59.388,39.6,233.838,152.878s68.046,197.705-173.315,189.042c-521.239-18.7-348.352,157.613-261.278,237.478s72.092,262.378-338.146,138.985-256,174.554-256,174.554H0V177.19Z" transform="translate(0 0)" fill="url(#linear-gradient)"/>
      <path id="Path_2" data-name="Path 2" d="M483.949.576s589.424-30.725,694.364,356.588c114.338,422.032-251.376,620.467-375.431,523.6S673.2,652.225,866.316,565.337s173.7-354.7-248.543-287.864S146.693,881.555,452.6,1010.1s231.36,279.874-97.685,440.711-149.1,376.521-149.1,376.521H0V.576Z" transform="translate(0 176.614)" fill="url(#linear-gradient-2)"/>
    </g>
    <g id="gear" transform="matrix(0.978, 0.208, -0.208, 0.978, 32.085, 705.168)" opacity="0.2">
      <g id="Group_118" data-name="Group 118">
        <g id="Group_117" data-name="Group 117">
          <path id="Path_501" data-name="Path 501" d="M154.041,89.365V64.676L136,61.667a60.4,60.4,0,0,0-6.432-15.485l10.64-14.9L122.751,13.83l-14.9,10.64a60.287,60.287,0,0,0-15.483-6.434L89.367,0H64.674L61.669,18.036A60.287,60.287,0,0,0,46.185,24.47L31.29,13.83,13.829,31.286l10.64,14.9a60.4,60.4,0,0,0-6.432,15.485L0,64.676V89.365l18.036,3.009a60.4,60.4,0,0,0,6.432,15.485l-10.64,14.9L31.29,140.211l14.9-10.64A60.288,60.288,0,0,0,61.669,136l3.005,18.036H89.367L92.372,136a60.288,60.288,0,0,0,15.483-6.434l14.9,10.64,17.461-17.456-10.64-14.9A60.4,60.4,0,0,0,136,92.374Zm-23.793-.5a54.083,54.083,0,0,1-7.228,17.406l-1.164,1.827,9.974,13.962-9.77,9.772-13.965-9.975-1.826,1.163a54.067,54.067,0,0,1-17.406,7.23l-2.115.47-2.817,16.9H70.112l-2.817-16.9-2.115-.47a54.066,54.066,0,0,1-17.406-7.23l-1.826-1.163L31.982,131.83l-9.77-9.772L32.186,108.1l-1.164-1.827a54.084,54.084,0,0,1-7.229-17.406l-.469-2.115L6.418,83.931V70.11l16.906-2.817.469-2.115a54.084,54.084,0,0,1,7.228-17.406l1.164-1.827L22.212,31.982l9.77-9.772,13.965,9.975,1.826-1.163a54.067,54.067,0,0,1,17.406-7.23l2.115-.47,2.817-16.9H83.929l2.817,16.9,2.115.47a54.067,54.067,0,0,1,17.406,7.23l1.826,1.163,13.965-9.975,9.77,9.772-9.974,13.962,1.164,1.827a54.084,54.084,0,0,1,7.228,17.406l.469,2.115,16.906,2.817V83.931l-16.906,2.817Z" fill="#fff"/>
        </g>
      </g>
      <g id="Group_120" data-name="Group 120" transform="translate(44.929 44.929)">
        <g id="Group_119" data-name="Group 119">
          <path id="Path_502" data-name="Path 502" d="M32.092,0A32.092,32.092,0,1,0,64.184,32.092,32.129,32.129,0,0,0,32.092,0Zm0,57.765A25.673,25.673,0,1,1,57.765,32.092,25.7,25.7,0,0,1,32.092,57.765Z" fill="#fff"/>
        </g>
      </g>
    </g>
    <g id="Group_403" data-name="Group 403" transform="translate(-84.178 190.047)">
      <g id="Group_363" data-name="Group 363" transform="translate(205.777 106.863)" opacity="0.4">
        <g id="Group_362" data-name="Group 362">
          <path id="Path_1532" data-name="Path 1532" d="M452.65,230.77v-3.148l81.63-47.084v3.149Z" transform="translate(-452.65 -175.798)" fill="#fff"/>
          <path id="Path_1533" data-name="Path 1533" d="M495.317,178.926v3.149L482.09,189.7v-3.149Z" transform="translate(-395.498 -178.926)" fill="#fff"/>
          <path id="Path_1534" data-name="Path 1534" d="M452.65,232.726v-3.149l81.63-47.084v3.149Z" transform="translate(-452.65 -172.001)" fill="#fff"/>
          <path id="Path_1535" data-name="Path 1535" d="M495.317,184.792v3.148L482.09,195.57v-3.149Z" transform="translate(-395.498 -167.537)" fill="#fff"/>
          <path id="Path_1536" data-name="Path 1536" d="M495.317,186.748V189.9l-13.226,7.629v-3.149Z" transform="translate(-395.498 -163.741)" fill="#fff"/>
          <path id="Path_1537" data-name="Path 1537" d="M495.317,194.57v3.149l-13.226,7.629V202.2Z" transform="translate(-395.498 -148.556)" fill="#fff"/>
          <path id="Path_1538" data-name="Path 1538" d="M495.317,196.525v3.149L482.09,207.3v-3.149Z" transform="translate(-395.498 -144.76)" fill="#fff"/>
          <g id="Group_356" data-name="Group 356" transform="translate(30.132 62.257)">
            <path id="Path_1539" data-name="Path 1539" d="M462.895,229.8l51.5-29.7v3.149l-51.5,29.7Z" transform="translate(-462.895 -200.092)" fill="#fff"/>
          </g>
          <g id="Group_357" data-name="Group 357" transform="translate(0 56.505)">
            <path id="Path_1540" data-name="Path 1540" d="M471.606,213.06l25.874-14.924v3.149l-25.874,14.924Z" transform="translate(-415.85 -198.137)" fill="#fff"/>
            <path id="Path_1541" data-name="Path 1541" d="M505.692,203.743v3.148l-53.042,30.6v-3.149Z" transform="translate(-452.65 -187.253)" fill="#fff"/>
          </g>
          <path id="Path_1542" data-name="Path 1542" d="M459.628,206.91v3.149l-6.978,4.025v-3.149Z" transform="translate(-452.65 -124.6)" fill="#fff"/>
          <path id="Path_1543" data-name="Path 1543" d="M467.933,211.471l36.679-21.156v3.149L467.933,214.62Z" transform="translate(-422.982 -156.817)" fill="#fff"/>
          <g id="Group_358" data-name="Group 358" transform="translate(24.493 1.538)">
            <path id="Path_1544" data-name="Path 1544" d="M460.977,198.352l32.773-18.9V182.6l-32.773,18.9Z" transform="translate(-460.977 -179.449)" fill="#fff"/>
          </g>
          <path id="Path_1545" data-name="Path 1545" d="M467.471,192.87l23.074-13.309v3.149l-23.074,13.309Z" transform="translate(-423.878 -177.694)" fill="#fff"/>
          <g id="Group_359" data-name="Group 359" transform="translate(0 16.741)">
            <path id="Path_1546" data-name="Path 1546" d="M459.241,197.016l21.5-12.4v3.148l-21.5,12.4Z" transform="translate(-439.857 -184.618)" fill="#fff"/>
            <path id="Path_1547" data-name="Path 1547" d="M469.32,189.365v3.149l-16.669,9.615V198.98Z" transform="translate(-452.65 -175.401)" fill="#fff"/>
          </g>
          <path id="Path_1548" data-name="Path 1548" d="M490.428,179.418v3.149l-17.385,10.028v-3.149Z" transform="translate(-413.062 -177.97)" fill="#fff"/>
          <path id="Path_1549" data-name="Path 1549" d="M454.963,212.468l50.465-29.108v3.148l-50.465,29.108Z" transform="translate(-448.161 -170.319)" fill="#fff"/>
          <path id="Path_1550" data-name="Path 1550" d="M464.785,206.012l32.979-19.022v3.149L464.785,209.16Z" transform="translate(-429.092 -163.272)" fill="#fff"/>
          <path id="Path_1551" data-name="Path 1551" d="M454.963,209.088l26.178-15.1v3.149l-26.178,15.1Z" transform="translate(-448.161 -149.684)" fill="#fff"/>
          <g id="Group_360" data-name="Group 360" transform="translate(9.692 56.22)">
            <path id="Path_1552" data-name="Path 1552" d="M455.945,216.812,488.49,198.04v3.149L455.945,219.96Z" transform="translate(-455.945 -198.04)" fill="#fff"/>
          </g>
          <path id="Path_1553" data-name="Path 1553" d="M473.671,202.9v3.149l-17.725,10.224v-3.149Z" transform="translate(-446.253 -132.382)" fill="#fff"/>
          <path id="Path_1554" data-name="Path 1554" d="M478.233,195.952l6.383-3.682v3.149l-6.383,3.682Z" transform="translate(-402.986 -153.02)" fill="#fff"/>
          <g id="Group_361" data-name="Group 361" transform="translate(30.132 44.497)">
            <path id="Path_1555" data-name="Path 1555" d="M496.053,195.867v3.149l-33.159,19.126v-3.149Z" transform="translate(-462.895 -190.536)" fill="#fff"/>
            <path id="Path_1556" data-name="Path 1556" d="M475.091,197.819l6.528-3.765V197.2l-6.528,3.765Z" transform="translate(-439.218 -194.054)" fill="#fff"/>
          </g>
          <path id="Path_1557" data-name="Path 1557" d="M464.98,216.928l36.266-20.918v3.149L464.98,220.077Z" transform="translate(-428.714 -145.761)" fill="#fff"/>
        </g>
      </g>
      <g id="Group_364" data-name="Group 364" transform="translate(205.777 0)" opacity="0.4">
        <path id="Path_1558" data-name="Path 1558" d="M462.61,174.356l54.848-31.762v2.79L462.61,177.147Z" transform="translate(-433.314 -142.594)" fill="#fff"/>
        <path id="Path_1559" data-name="Path 1559" d="M536.794,147.247,452.65,195.916v-2.789l84.144-48.67Z" transform="translate(-452.65 -138.978)" fill="#fff"/>
        <path id="Path_1560" data-name="Path 1560" d="M478.278,154.1v2.79L452.65,171.727v-2.79Z" transform="translate(-452.65 -120.266)" fill="#fff"/>
        <path id="Path_1561" data-name="Path 1561" d="M462.61,177.992l54.848-31.763v2.79L462.61,180.781Z" transform="translate(-433.314 -135.54)" fill="#fff"/>
        <path id="Path_1562" data-name="Path 1562" d="M536.794,150.881,452.65,199.55v-2.789l84.144-48.67Z" transform="translate(-452.65 -131.923)" fill="#fff"/>
        <path id="Path_1563" data-name="Path 1563" d="M478.278,160.519,452.65,175.361v-2.79l25.628-14.841Z" transform="translate(-452.65 -113.211)" fill="#fff"/>
        <path id="Path_1564" data-name="Path 1564" d="M462.61,183.991l54.848-31.763v2.79L462.61,186.781Z" transform="translate(-433.314 -123.892)" fill="#fff"/>
        <path id="Path_1565" data-name="Path 1565" d="M536.794,156.881,452.65,205.55V202.76l84.144-48.669Z" transform="translate(-452.65 -120.276)" fill="#fff"/>
        <path id="Path_1566" data-name="Path 1566" d="M478.278,166.52,452.65,181.36v-2.79l25.628-14.841Z" transform="translate(-452.65 -101.564)" fill="#fff"/>
        <path id="Path_1567" data-name="Path 1567" d="M462.61,187.625l54.848-31.763v2.79L462.61,190.414Z" transform="translate(-433.314 -116.837)" fill="#fff"/>
        <path id="Path_1568" data-name="Path 1568" d="M536.794,160.515,452.65,209.184v-2.789l84.144-48.669Z" transform="translate(-452.65 -113.221)" fill="#fff"/>
        <path id="Path_1569" data-name="Path 1569" d="M478.278,170.153,452.65,184.995V182.2l25.628-14.841Z" transform="translate(-452.65 -94.509)" fill="#fff"/>
        <path id="Path_1570" data-name="Path 1570" d="M462.61,193.624l54.848-31.763v2.79L462.61,196.415Z" transform="translate(-433.314 -105.19)" fill="#fff"/>
        <path id="Path_1571" data-name="Path 1571" d="M536.794,166.515,452.65,215.183v-2.79l84.144-48.669Z" transform="translate(-452.65 -101.573)" fill="#fff"/>
        <path id="Path_1572" data-name="Path 1572" d="M478.278,176.153,452.65,190.994V188.2l25.628-14.841Z" transform="translate(-452.65 -82.862)" fill="#fff"/>
        <path id="Path_1573" data-name="Path 1573" d="M462.61,197.259,517.458,165.5v2.79L462.61,200.048Z" transform="translate(-433.314 -98.135)" fill="#fff"/>
        <path id="Path_1574" data-name="Path 1574" d="M478.278,179.788,452.65,194.628v-2.79L478.278,177Z" transform="translate(-452.65 -75.807)" fill="#fff"/>
      </g>
      <g id="Group_366" data-name="Group 366" transform="translate(411.257 196.791)">
        <g id="Group_365" data-name="Group 365">
          <path id="Path_1575" data-name="Path 1575" d="M522.51,209.5l.079.044.006-.009C522.566,209.521,522.536,209.515,522.51,209.5Z" transform="translate(-522.51 -209.5)" fill="#bbcee1"/>
        </g>
      </g>
      <g id="Group_374" data-name="Group 374" transform="translate(428.261 115.571)" opacity="0.4">
        <g id="Group_373" data-name="Group 373">
          <path id="Path_1576" data-name="Path 1576" d="M570.958,181.887v3.149l-13.227,7.629v-3.149Z" transform="translate(-471.139 -181.887)" fill="#fff"/>
          <path id="Path_1577" data-name="Path 1577" d="M570.958,183.842v3.149l-13.227,7.629v-3.149Z" transform="translate(-471.139 -178.09)" fill="#fff"/>
          <path id="Path_1578" data-name="Path 1578" d="M570.958,185.8v3.149l-13.227,7.629v-3.149Z" transform="translate(-471.139 -174.294)" fill="#fff"/>
          <path id="Path_1579" data-name="Path 1579" d="M528.291,241.553V238.4l81.63-47.084v3.148Z" transform="translate(-528.291 -163.573)" fill="#fff"/>
          <path id="Path_1580" data-name="Path 1580" d="M570.958,187.753V190.9l-13.227,7.629v-3.149Z" transform="translate(-471.139 -170.498)" fill="#fff"/>
          <path id="Path_1581" data-name="Path 1581" d="M570.958,189.709v3.148l-13.227,7.629v-3.149Z" transform="translate(-471.139 -166.702)" fill="#fff"/>
          <path id="Path_1582" data-name="Path 1582" d="M528.291,243.509V240.36l81.63-47.084v3.149Z" transform="translate(-528.291 -159.777)" fill="#fff"/>
          <path id="Path_1583" data-name="Path 1583" d="M570.958,195.575v3.149l-13.227,7.629V203.2Z" transform="translate(-471.139 -155.313)" fill="#fff"/>
          <path id="Path_1584" data-name="Path 1584" d="M570.958,197.53v3.149l-13.227,7.629v-3.149Z" transform="translate(-471.139 -151.517)" fill="#fff"/>
          <path id="Path_1585" data-name="Path 1585" d="M570.958,205.352V208.5l-13.227,7.629v-3.149Z" transform="translate(-471.139 -136.332)" fill="#fff"/>
          <path id="Path_1586" data-name="Path 1586" d="M570.958,207.308v3.149l-13.227,7.629v-3.149Z" transform="translate(-471.139 -132.536)" fill="#fff"/>
          <g id="Group_367" data-name="Group 367" transform="translate(0 85.264)">
            <path id="Path_1587" data-name="Path 1587" d="M538.535,240.579l51.5-29.7v3.148l-51.5,29.7Z" transform="translate(-508.404 -210.875)" fill="#fff"/>
            <path id="Path_1588" data-name="Path 1588" d="M555.708,221.506v3.149l-27.417,15.814V237.32Z" transform="translate(-528.291 -190.236)" fill="#fff"/>
          </g>
          <g id="Group_368" data-name="Group 368" transform="translate(0 79.512)">
            <path id="Path_1589" data-name="Path 1589" d="M547.247,223.843l25.873-14.924v3.149l-25.873,14.924Z" transform="translate(-491.491 -208.919)" fill="#fff"/>
            <path id="Path_1590" data-name="Path 1590" d="M581.333,214.525v3.149l-53.042,30.595V245.12Z" transform="translate(-528.291 -198.036)" fill="#fff"/>
          </g>
          <path id="Path_1591" data-name="Path 1591" d="M535.269,217.692v3.149l-6.977,4.025v-3.149Z" transform="translate(-528.291 -112.376)" fill="#fff"/>
          <path id="Path_1592" data-name="Path 1592" d="M543.574,222.254,580.252,201.1v3.148L543.574,225.4Z" transform="translate(-498.623 -144.592)" fill="#fff"/>
          <path id="Path_1593" data-name="Path 1593" d="M548.683,197.941l21.649-12.488V188.6L548.683,201.09Z" transform="translate(-488.703 -174.962)" fill="#fff"/>
          <g id="Group_369" data-name="Group 369" transform="translate(24.493 24.544)">
            <path id="Path_1594" data-name="Path 1594" d="M536.618,209.135l32.773-18.9v3.149l-32.773,18.9Z" transform="translate(-536.618 -190.231)" fill="#fff"/>
          </g>
          <path id="Path_1595" data-name="Path 1595" d="M543.112,203.652l23.074-13.309v3.149L543.112,206.8Z" transform="translate(-499.519 -165.47)" fill="#fff"/>
          <g id="Group_370" data-name="Group 370" transform="translate(0 39.748)">
            <path id="Path_1596" data-name="Path 1596" d="M534.881,207.8l21.5-12.4v3.149l-21.5,12.4Z" transform="translate(-515.497 -195.4)" fill="#fff"/>
            <path id="Path_1597" data-name="Path 1597" d="M544.961,200.148V203.3l-16.669,9.615v-3.149Z" transform="translate(-528.291 -186.184)" fill="#fff"/>
          </g>
          <path id="Path_1598" data-name="Path 1598" d="M566.069,190.2v3.149l-17.385,10.028v-3.149Z" transform="translate(-488.703 -165.746)" fill="#fff"/>
          <path id="Path_1599" data-name="Path 1599" d="M530.6,223.251l50.465-29.108v3.149L530.6,226.4Z" transform="translate(-523.802 -158.094)" fill="#fff"/>
          <path id="Path_1600" data-name="Path 1600" d="M540.426,216.794l32.979-19.022v3.149l-32.979,19.023Z" transform="translate(-504.733 -151.048)" fill="#fff"/>
          <path id="Path_1601" data-name="Path 1601" d="M530.6,219.871l26.178-15.1v3.148l-26.178,15.1Z" transform="translate(-523.802 -137.46)" fill="#fff"/>
          <g id="Group_371" data-name="Group 371" transform="translate(9.692 79.227)">
            <path id="Path_1602" data-name="Path 1602" d="M531.586,227.594l32.544-18.772v3.149l-32.544,18.772Z" transform="translate(-531.586 -208.822)" fill="#fff"/>
          </g>
          <path id="Path_1603" data-name="Path 1603" d="M549.312,213.684v3.148l-17.725,10.224v-3.148Z" transform="translate(-521.894 -120.157)" fill="#fff"/>
          <path id="Path_1604" data-name="Path 1604" d="M553.874,206.735l6.383-3.682V206.2l-6.383,3.682Z" transform="translate(-478.627 -140.796)" fill="#fff"/>
          <g id="Group_372" data-name="Group 372" transform="translate(30.132 67.504)">
            <path id="Path_1605" data-name="Path 1605" d="M571.694,206.649V209.8l-33.159,19.126v-3.149Z" transform="translate(-538.535 -201.318)" fill="#fff"/>
            <path id="Path_1606" data-name="Path 1606" d="M550.732,208.6l6.528-3.765v3.149l-6.528,3.765Z" transform="translate(-514.858 -204.837)" fill="#fff"/>
          </g>
          <path id="Path_1607" data-name="Path 1607" d="M540.621,227.711l36.267-20.918v3.148l-36.267,20.919Z" transform="translate(-504.355 -133.536)" fill="#fff"/>
        </g>
      </g>
      <path id="Path_1608" data-name="Path 1608" d="M430.411,211.675l40.973-23.642a3,3,0,0,1,4.5,2.6v49.047a6.693,6.693,0,0,1-3.341,5.792l-40.967,23.683a3.076,3.076,0,0,1-4.615-2.662V217.652A6.9,6.9,0,0,1,430.411,211.675Z" transform="translate(-296.751 -55.171)" fill="#fff" opacity="0.2"/>
      <path id="Path_1683" data-name="Path 1683" d="M430.411,211.675l40.973-23.642a3,3,0,0,1,4.5,2.6v49.047a6.693,6.693,0,0,1-3.341,5.792l-40.967,23.683a3.076,3.076,0,0,1-4.615-2.662V217.652A6.9,6.9,0,0,1,430.411,211.675Z" transform="translate(-91.339 -176.632)" fill="#fff" opacity="0.2"/>
      <path id="Path_1609" data-name="Path 1609" d="M411.387,179.445l40.973-23.639a3,3,0,0,1,4.5,2.6v49.047a6.7,6.7,0,0,1-3.341,5.791l-40.967,23.684a3.076,3.076,0,0,1-4.615-2.662V185.422A6.9,6.9,0,0,1,411.387,179.445Z" transform="translate(-333.683 -117.734)" fill="#fff" opacity="0.2"/>
      <path id="Path_1610" data-name="Path 1610" d="M489.623,225.6,530.6,201.962a3,3,0,0,1,4.5,2.6v49.044a6.689,6.689,0,0,1-3.341,5.791l-40.97,23.686a3.073,3.073,0,0,1-4.612-2.662V231.581A6.9,6.9,0,0,1,489.623,225.6Z" transform="translate(-181.801 -28.13)" fill="#fff" opacity="0.2"/>
      <g id="Group_377" data-name="Group 377" transform="translate(436.567 214.398)">
        <g id="Group_376" data-name="Group 376">
          <path id="Path_1612" data-name="Path 1612" d="M534.936,215.486m-3.821,6.633" transform="translate(-531.115 -215.486)" fill="#0b3b56"/>
        </g>
      </g>
      <g id="Group_378" data-name="Group 378" transform="translate(38.091 458.119)">
        <path id="Path_1613" data-name="Path 1613" d="M395.64,298.347" transform="translate(-395.64 -298.347)" fill="#fff"/>
      </g>
      <g id="Group_380" data-name="Group 380" transform="translate(51.215 390.213)">
        <g id="Group_379" data-name="Group 379">
          <path id="Path_1614" data-name="Path 1614" d="M400.1,275.26l.079.047.006-.012C400.161,275.281,400.128,275.275,400.1,275.26Z" transform="translate(-400.102 -275.26)" fill="#bbcee1"/>
        </g>
      </g>
      <g id="Group_382" data-name="Group 382" transform="translate(169.374 261.739)">
        <g id="Group_381" data-name="Group 381">
          <path id="Path_1615" data-name="Path 1615" d="M440.274,231.581l.079.047.006-.012C440.333,231.6,440.3,231.6,440.274,231.581Z" transform="translate(-440.274 -231.581)" fill="#bbcee1"/>
        </g>
      </g>
      <g id="Group_384" data-name="Group 384" transform="translate(287.012 136.268)">
        <g id="Group_383" data-name="Group 383">
          <path id="Path_1616" data-name="Path 1616" d="M480.269,188.923l.077.044.009-.009C480.328,188.944,480.3,188.938,480.269,188.923Z" transform="translate(-480.269 -188.923)" fill="#bbcee1"/>
        </g>
      </g>
      <g id="Group_386" data-name="Group 386" transform="translate(428.419 231.611)">
        <g id="Group_385" data-name="Group 385">
          <path id="Path_1617" data-name="Path 1617" d="M528.713,223.9l4.356-2.515a.319.319,0,0,1,.479.276v5.215a.714.714,0,0,1-.356.618l-4.356,2.518a.326.326,0,0,1-.491-.282v-5.194A.728.728,0,0,1,528.713,223.9Z" transform="translate(-528.345 -221.338)" fill="#ebf2eb"/>
          <path id="Path_1618" data-name="Path 1618" d="M528.713,226.55l4.356-2.515a.319.319,0,0,1,.479.277v5.215a.71.71,0,0,1-.356.618l-4.356,2.518a.326.326,0,0,1-.491-.282v-5.194A.729.729,0,0,1,528.713,226.55Z" transform="translate(-528.345 -216.188)" fill="#ebf2eb"/>
          <path id="Path_1619" data-name="Path 1619" d="M528.713,229.2l4.356-2.515a.32.32,0,0,1,.479.277v5.218a.709.709,0,0,1-.356.615l-4.356,2.521a.328.328,0,0,1-.491-.285v-5.194A.732.732,0,0,1,528.713,229.2Z" transform="translate(-528.345 -211.037)" fill="#ebf2eb"/>
          <path id="Path_1620" data-name="Path 1620" d="M528.713,231.855l4.356-2.515a.321.321,0,0,1,.479.277v5.218a.709.709,0,0,1-.356.615l-4.356,2.521a.327.327,0,0,1-.491-.285V232.49A.732.732,0,0,1,528.713,231.855Z" transform="translate(-528.345 -205.886)" fill="#ebf2eb"/>
        </g>
      </g>
      <g id="Group_394" data-name="Group 394" transform="translate(124.263 261.825)" opacity="0.4">
        <g id="Group_393" data-name="Group 393">
          <path id="Path_1621" data-name="Path 1621" d="M467.6,231.61v3.148l-13.227,7.629v-3.149Z" transform="translate(-367.785 -231.61)" fill="#fff"/>
          <path id="Path_1622" data-name="Path 1622" d="M467.6,233.566v3.149l-13.227,7.629v-3.149Z" transform="translate(-367.785 -227.814)" fill="#fff"/>
          <path id="Path_1623" data-name="Path 1623" d="M467.6,235.521v3.149L454.377,246.3V243.15Z" transform="translate(-367.785 -224.018)" fill="#fff"/>
          <path id="Path_1624" data-name="Path 1624" d="M424.937,291.276v-3.149l81.63-47.084v3.149Z" transform="translate(-424.937 -213.297)" fill="#fff"/>
          <path id="Path_1625" data-name="Path 1625" d="M467.6,237.477v3.149l-13.227,7.629v-3.149Z" transform="translate(-367.785 -220.222)" fill="#fff"/>
          <path id="Path_1626" data-name="Path 1626" d="M467.6,239.432v3.149l-13.227,7.629v-3.149Z" transform="translate(-367.785 -216.425)" fill="#fff"/>
          <path id="Path_1627" data-name="Path 1627" d="M424.937,293.232v-3.149L506.567,243v3.148Z" transform="translate(-424.937 -209.501)" fill="#fff"/>
          <path id="Path_1628" data-name="Path 1628" d="M467.6,245.3v3.149l-13.227,7.629v-3.149Z" transform="translate(-367.785 -205.037)" fill="#fff"/>
          <path id="Path_1629" data-name="Path 1629" d="M467.6,247.254V250.4l-13.227,7.629v-3.149Z" transform="translate(-367.785 -201.241)" fill="#fff"/>
          <path id="Path_1630" data-name="Path 1630" d="M467.6,255.076v3.149l-13.227,7.629V262.7Z" transform="translate(-367.785 -186.056)" fill="#fff"/>
          <path id="Path_1631" data-name="Path 1631" d="M467.6,257.031v3.149l-13.227,7.629V264.66Z" transform="translate(-367.785 -182.259)" fill="#fff"/>
          <g id="Group_387" data-name="Group 387" transform="translate(0 85.263)">
            <path id="Path_1632" data-name="Path 1632" d="M435.181,290.3l51.5-29.7v3.149l-51.5,29.7Z" transform="translate(-405.049 -260.598)" fill="#fff"/>
            <path id="Path_1633" data-name="Path 1633" d="M452.354,271.229v3.149l-27.417,15.814v-3.149Z" transform="translate(-424.937 -239.959)" fill="#fff"/>
          </g>
          <g id="Group_388" data-name="Group 388" transform="translate(0 79.511)">
            <path id="Path_1634" data-name="Path 1634" d="M443.893,273.567l25.874-14.924v3.149l-25.874,14.924Z" transform="translate(-388.137 -258.643)" fill="#fff"/>
            <path id="Path_1635" data-name="Path 1635" d="M477.979,264.249V267.4l-53.042,30.595v-3.149Z" transform="translate(-424.937 -247.759)" fill="#fff"/>
          </g>
          <path id="Path_1636" data-name="Path 1636" d="M431.914,267.416v3.149l-6.977,4.025V271.44Z" transform="translate(-424.937 -162.1)" fill="#fff"/>
          <path id="Path_1637" data-name="Path 1637" d="M440.22,271.977,476.9,250.821v3.149L440.22,275.126Z" transform="translate(-395.268 -194.316)" fill="#fff"/>
          <path id="Path_1638" data-name="Path 1638" d="M445.329,247.664l21.65-12.487v3.149l-21.65,12.488Z" transform="translate(-385.349 -224.686)" fill="#fff"/>
          <g id="Group_389" data-name="Group 389" transform="translate(24.493 24.544)">
            <path id="Path_1639" data-name="Path 1639" d="M433.264,258.858l32.773-18.9V243.1l-32.773,18.9Z" transform="translate(-433.264 -239.955)" fill="#fff"/>
          </g>
          <path id="Path_1640" data-name="Path 1640" d="M439.758,253.376l23.074-13.31v3.149l-23.074,13.309Z" transform="translate(-396.164 -215.194)" fill="#fff"/>
          <g id="Group_390" data-name="Group 390" transform="translate(0 39.748)">
            <path id="Path_1641" data-name="Path 1641" d="M431.527,257.522l21.5-12.4v3.149l-21.5,12.4Z" transform="translate(-412.143 -245.124)" fill="#fff"/>
            <path id="Path_1642" data-name="Path 1642" d="M441.607,249.871v3.149l-16.67,9.615v-3.148Z" transform="translate(-424.937 -235.907)" fill="#fff"/>
          </g>
          <path id="Path_1643" data-name="Path 1643" d="M462.715,239.924v3.149L445.329,253.1v-3.149Z" transform="translate(-385.349 -215.47)" fill="#fff"/>
          <path id="Path_1644" data-name="Path 1644" d="M427.249,272.974l50.465-29.108v3.149l-50.465,29.108Z" transform="translate(-420.448 -207.818)" fill="#fff"/>
          <path id="Path_1645" data-name="Path 1645" d="M437.072,266.518,470.051,247.5v3.149l-32.979,19.023Z" transform="translate(-401.379 -200.772)" fill="#fff"/>
          <path id="Path_1646" data-name="Path 1646" d="M427.249,269.595l26.178-15.1v3.149l-26.178,15.1Z" transform="translate(-420.448 -187.184)" fill="#fff"/>
          <g id="Group_391" data-name="Group 391" transform="translate(9.692 79.227)">
            <path id="Path_1647" data-name="Path 1647" d="M428.232,277.318l32.545-18.772v3.149l-32.545,18.772Z" transform="translate(-428.232 -258.546)" fill="#fff"/>
          </g>
          <path id="Path_1648" data-name="Path 1648" d="M445.957,263.407v3.149l-17.725,10.224v-3.149Z" transform="translate(-418.54 -169.881)" fill="#fff"/>
          <path id="Path_1649" data-name="Path 1649" d="M450.52,256.458l6.383-3.682v3.149l-6.383,3.682Z" transform="translate(-375.273 -190.52)" fill="#fff"/>
          <g id="Group_392" data-name="Group 392" transform="translate(30.132 67.504)">
            <path id="Path_1650" data-name="Path 1650" d="M468.34,256.373v3.149l-33.159,19.126V275.5Z" transform="translate(-435.181 -251.042)" fill="#fff"/>
            <path id="Path_1651" data-name="Path 1651" d="M447.377,258.326l6.528-3.765v3.149l-6.528,3.765Z" transform="translate(-411.504 -254.56)" fill="#fff"/>
          </g>
          <path id="Path_1652" data-name="Path 1652" d="M437.267,277.435l36.266-20.919v3.149l-36.266,20.918Z" transform="translate(-401.001 -183.26)" fill="#fff"/>
        </g>
      </g>
      <g id="Group_402" data-name="Group 402" transform="translate(0 140.62)" opacity="0.4">
        <g id="Group_401" data-name="Group 401" transform="translate(0)">
          <path id="Path_1653" data-name="Path 1653" d="M426.267,164.594v3.149l-13.226,7.629v-3.149Z" transform="translate(-326.448 -164.594)" fill="#fff"/>
          <path id="Path_1654" data-name="Path 1654" d="M426.267,166.549V169.7l-13.226,7.629v-3.149Z" transform="translate(-326.448 -160.797)" fill="#fff"/>
          <path id="Path_1655" data-name="Path 1655" d="M426.267,168.5v3.149l-13.226,7.629v-3.149Z" transform="translate(-326.448 -157.001)" fill="#fff"/>
          <path id="Path_1656" data-name="Path 1656" d="M383.6,224.26v-3.149l81.63-47.084v3.149Z" transform="translate(-383.601 -146.281)" fill="#fff"/>
          <path id="Path_1657" data-name="Path 1657" d="M426.267,170.46v3.149l-13.226,7.629v-3.149Z" transform="translate(-326.448 -153.205)" fill="#fff"/>
          <path id="Path_1658" data-name="Path 1658" d="M426.267,172.416v3.149l-13.226,7.629v-3.149Z" transform="translate(-326.448 -149.409)" fill="#fff"/>
          <path id="Path_1659" data-name="Path 1659" d="M383.6,226.215v-3.148l81.63-47.084v3.149Z" transform="translate(-383.601 -142.484)" fill="#fff"/>
          <path id="Path_1660" data-name="Path 1660" d="M426.267,178.282v3.149l-13.226,7.629v-3.148Z" transform="translate(-326.448 -138.02)" fill="#fff"/>
          <path id="Path_1661" data-name="Path 1661" d="M426.267,180.238v3.149l-13.226,7.629v-3.149Z" transform="translate(-326.448 -134.224)" fill="#fff"/>
          <path id="Path_1662" data-name="Path 1662" d="M426.267,188.059v3.149l-13.226,7.629v-3.149Z" transform="translate(-326.448 -119.039)" fill="#fff"/>
          <path id="Path_1663" data-name="Path 1663" d="M426.267,190.015v3.149l-13.226,7.629v-3.149Z" transform="translate(-326.448 -115.243)" fill="#fff"/>
          <g id="Group_395" data-name="Group 395" transform="translate(30.132 85.264)">
            <path id="Path_1664" data-name="Path 1664" d="M393.845,223.286l51.5-29.7v3.148l-51.5,29.7Z" transform="translate(-393.845 -193.582)" fill="#fff"/>
          </g>
          <g id="Group_396" data-name="Group 396" transform="translate(55.757 79.512)">
            <path id="Path_1665" data-name="Path 1665" d="M402.557,206.55l25.873-14.924v3.149L402.557,209.7Z" transform="translate(-402.557 -191.626)" fill="#fff"/>
          </g>
          <path id="Path_1666" data-name="Path 1666" d="M390.578,200.4v3.148l-6.978,4.025v-3.149Z" transform="translate(-383.601 -95.083)" fill="#fff"/>
          <path id="Path_1667" data-name="Path 1667" d="M398.883,204.961,435.562,183.8v3.148L398.883,208.11Z" transform="translate(-353.932 -127.299)" fill="#fff"/>
          <path id="Path_1668" data-name="Path 1668" d="M403.993,180.648l21.649-12.488v3.149L403.993,183.8Z" transform="translate(-344.012 -157.669)" fill="#fff"/>
          <g id="Group_397" data-name="Group 397" transform="translate(24.493 24.544)">
            <path id="Path_1669" data-name="Path 1669" d="M391.928,191.842l32.773-18.9v3.149l-32.773,18.9Z" transform="translate(-391.928 -172.938)" fill="#fff"/>
          </g>
          <path id="Path_1670" data-name="Path 1670" d="M398.422,186.359,421.5,173.05V176.2l-23.074,13.309Z" transform="translate(-354.828 -148.177)" fill="#fff"/>
          <g id="Group_398" data-name="Group 398" transform="translate(0 39.748)">
            <path id="Path_1671" data-name="Path 1671" d="M390.191,190.506l21.5-12.4v3.149l-21.5,12.4Z" transform="translate(-370.807 -178.107)" fill="#fff"/>
            <path id="Path_1672" data-name="Path 1672" d="M400.27,182.855V186l-16.67,9.615V192.47Z" transform="translate(-383.601 -168.891)" fill="#fff"/>
          </g>
          <path id="Path_1673" data-name="Path 1673" d="M421.378,172.908v3.148l-17.385,10.028v-3.149Z" transform="translate(-344.012 -148.453)" fill="#fff"/>
          <path id="Path_1674" data-name="Path 1674" d="M385.913,205.957l50.465-29.108V180l-50.465,29.108Z" transform="translate(-379.112 -140.801)" fill="#fff"/>
          <path id="Path_1675" data-name="Path 1675" d="M395.736,199.5l32.979-19.022v3.149L395.736,202.65Z" transform="translate(-360.042 -133.755)" fill="#fff"/>
          <path id="Path_1676" data-name="Path 1676" d="M385.913,202.578l26.178-15.1v3.148l-26.178,15.1Z" transform="translate(-379.112 -120.167)" fill="#fff"/>
          <g id="Group_399" data-name="Group 399" transform="translate(9.692 79.227)">
            <path id="Path_1677" data-name="Path 1677" d="M386.9,210.3,419.44,191.53v3.149L386.9,213.45Z" transform="translate(-386.896 -191.53)" fill="#fff"/>
          </g>
          <path id="Path_1678" data-name="Path 1678" d="M404.621,196.391v3.148L386.9,209.764v-3.148Z" transform="translate(-377.204 -102.864)" fill="#fff"/>
          <path id="Path_1679" data-name="Path 1679" d="M409.183,189.442l6.383-3.682v3.149l-6.383,3.682Z" transform="translate(-333.936 -123.503)" fill="#fff"/>
          <g id="Group_400" data-name="Group 400" transform="translate(30.132 67.504)">
            <path id="Path_1680" data-name="Path 1680" d="M427,189.356v3.149l-33.159,19.126v-3.149Z" transform="translate(-393.845 -184.026)" fill="#fff"/>
            <path id="Path_1681" data-name="Path 1681" d="M406.041,191.309l6.527-3.765v3.148l-6.527,3.766Z" transform="translate(-370.168 -187.544)" fill="#fff"/>
          </g>
          <path id="Path_1682" data-name="Path 1682" d="M395.931,210.418,432.2,189.5v3.148l-36.266,20.919Z" transform="translate(-359.664 -116.243)" fill="#fff"/>
        </g>
      </g>
    </g>
    <g id="gear-2" data-name="gear" transform="matrix(0.978, 0.208, -0.208, 0.978, 382.327, 0.294)" opacity="0.2">
      <g id="Group_118-2" data-name="Group 118">
        <g id="Group_117-2" data-name="Group 117">
          <path id="Path_501-2" data-name="Path 501" d="M154.041,89.365V64.676L136,61.667a60.4,60.4,0,0,0-6.432-15.485l10.64-14.9L122.751,13.83l-14.9,10.64a60.287,60.287,0,0,0-15.483-6.434L89.367,0H64.674L61.669,18.036A60.287,60.287,0,0,0,46.185,24.47L31.29,13.83,13.829,31.286l10.64,14.9a60.4,60.4,0,0,0-6.432,15.485L0,64.676V89.365l18.036,3.009a60.4,60.4,0,0,0,6.432,15.485l-10.64,14.9L31.29,140.211l14.9-10.64A60.288,60.288,0,0,0,61.669,136l3.005,18.036H89.367L92.372,136a60.288,60.288,0,0,0,15.483-6.434l14.9,10.64,17.461-17.456-10.64-14.9A60.4,60.4,0,0,0,136,92.374Zm-23.793-.5a54.083,54.083,0,0,1-7.228,17.406l-1.164,1.827,9.974,13.962-9.77,9.772-13.965-9.975-1.826,1.163a54.067,54.067,0,0,1-17.406,7.23l-2.115.47-2.817,16.9H70.112l-2.817-16.9-2.115-.47a54.066,54.066,0,0,1-17.406-7.23l-1.826-1.163L31.982,131.83l-9.77-9.772L32.186,108.1l-1.164-1.827a54.084,54.084,0,0,1-7.229-17.406l-.469-2.115L6.418,83.931V70.11l16.906-2.817.469-2.115a54.084,54.084,0,0,1,7.228-17.406l1.164-1.827L22.212,31.982l9.77-9.772,13.965,9.975,1.826-1.163a54.067,54.067,0,0,1,17.406-7.23l2.115-.47,2.817-16.9H83.929l2.817,16.9,2.115.47a54.067,54.067,0,0,1,17.406,7.23l1.826,1.163,13.965-9.975,9.77,9.772-9.974,13.962,1.164,1.827a54.084,54.084,0,0,1,7.228,17.406l.469,2.115,16.906,2.817V83.931l-16.906,2.817Z" fill="#fff"/>
        </g>
      </g>
      <g id="Group_120-2" data-name="Group 120" transform="translate(44.929 44.929)">
        <g id="Group_119-2" data-name="Group 119">
          <path id="Path_502-2" data-name="Path 502" d="M32.092,0A32.092,32.092,0,1,0,64.184,32.092,32.129,32.129,0,0,0,32.092,0Zm0,57.765A25.673,25.673,0,1,1,57.765,32.092,25.7,25.7,0,0,1,32.092,57.765Z" fill="#fff"/>
        </g>
      </g>
    </g>
    <g id="binaryTree" transform="translate(12.22 56.89) rotate(22)" opacity="0.2">
      <path id="Path_518" data-name="Path 518" d="M110.643,93.784,94.489,67.406A10.5,10.5,0,0,0,91,47a10.373,10.373,0,0,0-4.86,1.251L66.2,17.145a10.492,10.492,0,1,0-15.522.833L31.948,47.221A10.349,10.349,0,0,0,29.814,47a10.491,10.491,0,0,0-3.289,20.464L10.918,92.937c-.137,0-.259-.041-.4-.041a10.572,10.572,0,1,0,3.929.777L29.928,68.418,45.809,94.336a10.474,10.474,0,1,0,3.648-.554L33.3,67.4A10.446,10.446,0,0,0,35.158,48.51L53.473,19.928a10.239,10.239,0,0,0,10.157-.5L83.4,50.29a10.438,10.438,0,0,0,4.307,17.175l-15.6,25.474c-.139,0-.259-.041-.4-.041a10.564,10.564,0,1,0,3.935.777L91.117,68.418,107,94.337a10.482,10.482,0,1,0,3.646-.553Zm-93,9.636A7.123,7.123,0,1,1,10.522,96.3,7.129,7.129,0,0,1,17.645,103.419Zm38.607.853a7.12,7.12,0,1,1-7.118-7.118A7.123,7.123,0,0,1,56.252,104.273ZM29.812,64.645a7.12,7.12,0,1,1,7.123-7.123A7.126,7.126,0,0,1,29.812,64.645ZM78.83,103.419A7.117,7.117,0,1,1,71.709,96.3,7.127,7.127,0,0,1,78.83,103.419ZM50.977,10.526A7.122,7.122,0,1,1,58.1,17.648,7.126,7.126,0,0,1,50.977,10.526Zm32.908,47A7.118,7.118,0,1,1,91,64.645,7.125,7.125,0,0,1,83.885,57.523Zm26.442,53.868a7.118,7.118,0,1,1,7.114-7.118A7.126,7.126,0,0,1,110.327,111.391Z" transform="translate(0 0)" fill="#fff"/>
    </g>
    <path id="microchip" d="M88.118,88.118H47.151V77.634L71.715,53.07V35.809a5.153,5.153,0,1,0-6.184,0v14.7L40.967,75.072V88.118H22.416V72.737a5.153,5.153,0,1,0-6.184,0V88.118H0V44.4H18.043l6.834,6.834a5.2,5.2,0,1,0,4.373-4.372l-8.645-8.646H0V23.963H32.674l6.864-5.957a5.153,5.153,0,1,0-4.067-5.037c0,.122.01.242.018.362l-5.124,4.447H0V0H75.179L88.118,12.939V68.622h-12.8a5.153,5.153,0,1,0,0,6.184h12.8V88.118Z" transform="matrix(-0.819, 0.574, -0.574, -0.819, 298.539, -15.758)" fill="#fff" opacity="0.2"/>
    <g id="Group_420" data-name="Group 420" transform="matrix(0.695, -0.719, 0.719, 0.695, -1590.507, 1154.787)">
      <path id="Path_1-2" data-name="Path 1" d="M1896.708,154.279s-347.05,7.588-775.718-129.8,1.416,343.687,180.3,449.235C1414.252,530.3,1447.563,640.275,1440.1,742.68c-9.79,134.372-206.7,139.257-371.808,224.673-398.686,206.257,51.708,34.479,203.6,133.11s59.247,172.141-150.9,164.6c-453.841-16.286-767.16-479.579-691.345-410.041s405.949,633.335,48.757,525.9-102.228,363.913-102.228,363.913H0V154.279Z" transform="translate(0 0)" fill="url(#linear-gradient)"/>
      <path id="Path_2-2" data-name="Path 2" d="M421.373.5s513.209-26.752,604.58,310.48c99.554,367.462-218.872,540.239-326.886,455.9S586.154,567.89,754.3,492.237,905.534,183.4,537.893,241.595s-410.168,525.972-143.814,637.9,201.445,243.685-85.054,383.725-129.82,327.835-129.82,327.835H0V.5Z" transform="translate(0 153.777)" fill="url(#linear-gradient-2)"/>
    </g>
    <g id="Group_968" data-name="Group 968" transform="translate(-114.607 205.336)">
      <g id="Group_705" data-name="Group 705" transform="translate(153.057 36.356)">
        <path id="Path_2458" data-name="Path 2458" d="M192.571,70.938" transform="translate(47.967 139.575)" fill="#f4607c"/>
        <g id="Group_701" data-name="Group 701" transform="translate(202.047)">
          <path id="Path_2459" data-name="Path 2459" d="M219.845,244.049,190.99,260.714V55.755l28.863-16.662Z" transform="translate(-162.125 -22.43)" fill="#fa7dff"/>
          <path id="Path_2460" data-name="Path 2460" d="M215.112,260.718l-28.86-16.662,0-204.963,28.864,16.666Z" transform="translate(-186.248 -22.433)" fill="#bf42df"/>
          <path id="Path_2461" data-name="Path 2461" d="M186.248,53.015l28.866-16.659,28.862,16.664L215.112,69.681Z" transform="translate(-186.248 -36.356)" fill="#ffb6f0"/>
        </g>
        <g id="Group_702" data-name="Group 702" transform="translate(134.698 121.647)">
          <path id="Path_2462" data-name="Path 2462" d="M208.782,181.265,179.926,197.93V75.738l28.863-16.662Z" transform="translate(-151.061 -42.414)" fill="#ff6482"/>
          <path id="Path_2463" data-name="Path 2463" d="M204.048,197.933l-28.86-16.663,0-122.194,28.864,16.665Z" transform="translate(-175.184 -42.417)" fill="#f43b5f"/>
          <path id="Path_2464" data-name="Path 2464" d="M175.184,73,204.05,56.339,232.912,73,204.048,89.664Z" transform="translate(-175.184 -56.339)" fill="#ff8aa6"/>
        </g>
        <g id="Group_703" data-name="Group 703" transform="translate(67.349 87.96)">
          <path id="Path_2465" data-name="Path 2465" d="M197.718,248.3l-28.856,16.665V70.2l28.863-16.662Z" transform="translate(-139.998 -36.88)" fill="#fdcc59"/>
          <path id="Path_2466" data-name="Path 2466" d="M192.984,264.966,164.124,248.3l0-194.761,28.864,16.665Z" transform="translate(-164.12 -36.883)" fill="#f9b050"/>
          <path id="Path_2467" data-name="Path 2467" d="M164.12,67.465l28.866-16.659,28.861,16.663L192.984,84.13Z" transform="translate(-164.12 -50.805)" fill="#ffe780"/>
        </g>
        <g id="Group_704" data-name="Group 704" transform="translate(0 243.839)">
          <path id="Path_2468" data-name="Path 2468" d="M186.654,156.9,157.8,173.57V95.812L186.661,79.15Z" transform="translate(-128.934 -62.487)" fill="#93e85d"/>
          <path id="Path_2469" data-name="Path 2469" d="M181.92,173.573,153.06,156.91l0-77.761L181.92,95.815Z" transform="translate(-153.057 -62.49)" fill="#74d350"/>
          <path id="Path_2470" data-name="Path 2470" d="M153.057,93.072l28.866-16.659,28.861,16.663L181.92,109.737Z" transform="translate(-153.057 -76.413)" fill="#cdf46c"/>
        </g>
      </g>
      <path id="Path_2471" data-name="Path 2471" d="M186.161,80.628" transform="translate(168.414 225.228)" fill="none" stroke="#fff" stroke-linecap="round" stroke-linejoin="round" stroke-width="1"/>
    </g>
    <g id="Group_967" data-name="Group 967" transform="translate(-55.62 -108.616)">
      <g id="Group_700" data-name="Group 700" transform="translate(118.07 666.325)">
        <g id="Group_698" data-name="Group 698" transform="translate(0 0)">
          <path id="Path_2447" data-name="Path 2447" d="M356.235,257.7v27.829c-16.213-3.118-31.467-8.394-44.364-15.842-22.142-12.8-33.224-29.546-33.243-46.3V195.557c0,16.768,11.081,33.54,33.243,46.319C324.768,249.325,340.021,254.6,356.235,257.7Z" transform="translate(-278.627 -130.045)" fill="#ff6482"/>
          <path id="Path_2448" data-name="Path 2448" d="M392.106,247.832l-35.871,62.142c-16.213-3.1-31.467-8.374-44.364-15.822-22.162-12.779-33.243-29.551-33.243-46.319v-.317c.139-16.674,11.22-33.3,33.243-46,37-21.365,93.217-24.9,136.562-10.571Z" transform="translate(-278.627 -182.32)" fill="#ff8aa6"/>
          <path id="Path_2449" data-name="Path 2449" d="M294.309,285.53l35.863-62.178.007-27.795L294.309,257.7Z" transform="translate(-216.698 -130.044)" fill="#f43b5f"/>
          <path id="Path_2450" data-name="Path 2450" d="M357.9,184.064l-56.337,56.883-.007,27.795L357.9,211.856Z" transform="translate(-188.081 -175.434)" fill="#f43b5f"/>
        </g>
        <g id="Group_699" data-name="Group 699" transform="translate(123.323 10.626)">
          <path id="Path_2451" data-name="Path 2451" d="M303.545,235.295,355.7,184.467c24.434,8.795,38.767,23.746,43.647,30.932Z" transform="translate(-303.545 -184.467)" fill="#ffe780"/>
          <path id="Path_2452" data-name="Path 2452" d="M303.545,210.612v23.67l95.8-19.611V190.717Z" transform="translate(-303.544 -159.784)" fill="#f9b050"/>
        </g>
        <path id="Path_2453" data-name="Path 2453" d="M403.128,191.345c10.354,17.867,9.3,42.949-23.444,65.423l-76.6-44.834Z" transform="translate(-182.055 -146.678)" fill="#cdf46c"/>
        <path id="Path_2454" data-name="Path 2454" d="M347.863,195.558l.025,27.789c0,11.591-10.037,33.05-29.329,44.374V240.13c14.664-9.567,24.2-23.895,26.74-30.709A39.432,39.432,0,0,0,347.863,195.558Z" transform="translate(-120.93 -130.041)" fill="#93e85d"/>
        <path id="Path_2455" data-name="Path 2455" d="M303.081,195.505V223.3l76.6,44.632V240.335Z" transform="translate(-182.054 -130.248)" fill="#74d350"/>
        <path id="Path_2456" data-name="Path 2456" d="M407.4,232.73c-30.4,17.54-73.737,23.048-112.232,16.53a2.143,2.143,0,0,1-.1-.337V221.431c38.534,6.538,81.894,1.044,112.331-16.515Z" transform="translate(-213.687 -93.085)" fill="#8f59fa"/>
        <path id="Path_2457" data-name="Path 2457" d="M295.071,257.211c38.534,6.538,81.894,1.044,112.331-16.515l-77.667-44.839Z" transform="translate(-213.687 -128.864)" fill="#d48aff"/>
      </g>
      <g id="Group_714" data-name="Group 714" transform="translate(118.07 641.172)">
        <g id="Group_698-2" data-name="Group 698" transform="translate(0 0)">
          <path id="Path_2447-2" data-name="Path 2447" d="M356.235,257.7v27.829c-16.213-3.118-31.467-8.394-44.364-15.842-22.142-12.8-33.224-29.546-33.243-46.3V195.557c0,16.768,11.081,33.54,33.243,46.319C324.768,249.325,340.021,254.6,356.235,257.7Z" transform="translate(-278.627 -130.045)" fill="#ff6482"/>
          <path id="Path_2448-2" data-name="Path 2448" d="M392.106,247.832l-35.871,62.142c-16.213-3.1-31.467-8.374-44.364-15.822-22.162-12.779-33.243-29.551-33.243-46.319v-.317c.139-16.674,11.22-33.3,33.243-46,37-21.365,93.217-24.9,136.562-10.571Z" transform="translate(-278.627 -182.32)" fill="#ff8aa6"/>
          <path id="Path_2449-2" data-name="Path 2449" d="M294.309,285.53l35.863-62.178.007-27.795L294.309,257.7Z" transform="translate(-216.698 -130.044)" fill="#f43b5f"/>
          <path id="Path_2450-2" data-name="Path 2450" d="M357.9,184.064l-56.337,56.883-.007,27.795L357.9,211.856Z" transform="translate(-188.081 -175.434)" fill="#f43b5f"/>
        </g>
        <g id="Group_699-2" data-name="Group 699" transform="translate(123.323 10.626)">
          <path id="Path_2451-2" data-name="Path 2451" d="M303.545,235.295,355.7,184.467c24.434,8.795,38.767,23.746,43.647,30.932Z" transform="translate(-303.545 -184.467)" fill="#ffe780"/>
          <path id="Path_2452-2" data-name="Path 2452" d="M303.545,210.612v23.67l95.8-19.611V190.717Z" transform="translate(-303.544 -159.784)" fill="#f9b050"/>
        </g>
        <path id="Path_2453-2" data-name="Path 2453" d="M403.128,191.345c10.354,17.867,9.3,42.949-23.444,65.423l-76.6-44.834Z" transform="translate(-182.055 -146.678)" fill="#cdf46c"/>
        <path id="Path_2454-2" data-name="Path 2454" d="M347.863,195.558l.025,27.789c0,11.591-10.037,33.05-29.329,44.374V240.13c14.664-9.567,24.2-23.895,26.74-30.709A39.432,39.432,0,0,0,347.863,195.558Z" transform="translate(-120.93 -130.041)" fill="#93e85d"/>
        <path id="Path_2455-2" data-name="Path 2455" d="M303.081,195.505V223.3l76.6,44.632V240.335Z" transform="translate(-182.054 -130.248)" fill="#74d350"/>
        <path id="Path_2456-2" data-name="Path 2456" d="M407.4,232.73c-30.4,17.54-73.737,23.048-112.232,16.53a2.143,2.143,0,0,1-.1-.337V221.431c38.534,6.538,81.894,1.044,112.331-16.515Z" transform="translate(-213.687 -93.085)" fill="#8f59fa"/>
        <path id="Path_2457-2" data-name="Path 2457" d="M295.071,257.211c38.534,6.538,81.894,1.044,112.331-16.515l-77.667-44.839Z" transform="translate(-213.687 -128.864)" fill="#d48aff"/>
      </g>
    </g>
    <g id="Group_969" data-name="Group 969" transform="translate(-1377.694 288.691)">
      <g id="Group_709" data-name="Group 709" transform="translate(1424.8 614.995)">
        <g id="Group_695" data-name="Group 695" transform="translate(0 0)">
          <g id="Group_660" data-name="Group 660" transform="translate(0 0)">
            <g id="Group_659" data-name="Group 659">
              <path id="Path_2383" data-name="Path 2383" d="M317.424,140.63l-7.385,4.471a25.075,25.075,0,0,0-12.227-10.392l1.779-4.774,5.947-16-15.847-1.029-12.72,20.446a59.766,59.766,0,0,0-9.337,2.6A77.371,77.371,0,0,0,256,141.284c-.16.077-.3.172-.458.25L248.9,128.478l-18.625,14.209.771,17.52a137.881,137.881,0,0,0-18.077,21.979l-17.111,2.319-10.477,21.129,13.818,4.346a75.351,75.351,0,0,0-4.182,22.877l-17.549,16.331,3.807,15.677,14.165-8.615,4.578-2.782a25.106,25.106,0,0,0,10.066,9.393c.709.369,1.431.7,2.161,1l-7.718,20.79,15.846,1.028,7.545-12.122,5.19-8.341a71.927,71.927,0,0,0,21.425-8.163l5.342,10.481,1.3,2.556,10.3-7.86,8.316-6.332-.7-15.808c-16.944,12.241-33.347,13.959-42.065,5.66-11.477,1.29-20.328-3.823-23.065-15.113-.236-.969,7.746-.6,7.614-1.623-.577-4.186,1.07-8.6,2.042-13.389,1.688-8.519,6.259-17.318,11.9-25.939,5.6-8.62,7.427-14.91,15.819-21.307.591-.446-3.508-4.572-2.918-5.006,16.958-12.206,33.353-13.936,42.072-5.642,11.477-1.284,20.327,3.829,23.065,15.119a27.844,27.844,0,0,1,.549,3.008,63.184,63.184,0,0,0,.938-10.143L332.6,149.406l-3.807-15.683Zm-15.27,75.076,12.074-1.629L324.7,192.954l-11.24-3.537C311.769,197.936,307.816,207.08,302.154,215.706Z" transform="translate(-177.472 -112.905)" fill="#6d6d6d"/>
              <path id="Path_2384" data-name="Path 2384" d="M215.3,116.409l17.438,4.916L213.994,132.7l-17.438-4.916Z" transform="translate(-63.979 -95.59)" fill="#2b2b2b"/>
              <path id="Path_2385" data-name="Path 2385" d="M212.645,155.118,195.206,150.2l-6.641-13.048L206,142.07Z" transform="translate(-111.504 6.996)" fill="#383838"/>
              <path id="Path_2386" data-name="Path 2386" d="M189.092,138.3l20.849,1.369L198.806,164l-17.439-4.915Z" transform="translate(-154.305 12.654)" fill="#333"/>
              <path id="Path_2387" data-name="Path 2387" d="M335.087,150.232l-3.807-15.683-14.151,8.6-4.578,2.776a25.011,25.011,0,0,0-10.066-9.387,21.632,21.632,0,0,0-2.161-1l7.7-20.766-15.846-1.034-7.531,12.11-5.19,8.341a71.767,71.767,0,0,0-21.425,8.163l-5.342-10.487-1.3-2.556-10.331,7.889-8.274,6.32.688,15.773.083,1.748a136.684,136.684,0,0,0-18.1,21.985l-5.065.69-12.046,1.629-10.476,21.123,11.248,3.543,2.57.809a84.478,84.478,0,0,0-3.223,12.741,63.792,63.792,0,0,0-.938,10.131l-17.549,16.331,3.8,15.666,11.365-6.908,7.385-4.477a25.167,25.167,0,0,0,12.227,10.392l-1.779,4.78-5.947,15.992,15.854,1.046L235.6,266.05a58.761,58.761,0,0,0,9.337-2.6,78.576,78.576,0,0,0,11.595-5.3c.16-.083.34-.166.5-.262l6.635,13.044,18.612-14.191-.757-17.544A136.745,136.745,0,0,0,299.6,217.229l17.118-2.319L327.2,193.787l-13.818-4.352a75.066,75.066,0,0,0,4.175-22.889Zm-47.873,61.384A93.027,93.027,0,0,1,265.928,234.7c-.591.452-1.181.9-1.779,1.308-16.944,12.241-33.347,13.959-42.065,5.66a20.178,20.178,0,0,1-5.613-10.2c-4.634-19.108,10-48.626,32.687-65.938,9.282-7.087,18.459-11.022,26.393-11.884,11.477-1.284,20.327,3.829,23.065,15.119a27.838,27.838,0,0,1,.549,3.008,40.646,40.646,0,0,1-.646,13.555C296.829,193.846,292.876,202.99,287.214,211.616Z" transform="translate(-162.533 -108.815)" fill="#545454"/>
              <path id="Path_2388" data-name="Path 2388" d="M262.574,135.728a27.853,27.853,0,0,1,.549,3.008,40.646,40.646,0,0,1-.646,13.555c-1.688,8.519-5.641,17.663-11.3,26.29a93.028,93.028,0,0,1-21.286,23.079c-.59.452-1.181.9-1.778,1.308-16.944,12.241-33.347,13.959-42.065,5.66,7.934-.862,17.111-4.8,26.392-11.884,22.69-17.306,37.341-46.83,32.707-65.92a20.235,20.235,0,0,0-5.634-10.214C250.987,119.325,259.837,124.438,262.574,135.728Z" transform="translate(-126.492 -75.779)" fill="#333"/>
              <path id="Path_2389" data-name="Path 2389" d="M185.074,129.734l17.439,4.915,18.615-14.206-17.439-4.915Z" transform="translate(-132.264 -99.948)" fill="#878787"/>
              <path id="Path_2390" data-name="Path 2390" d="M189.085,124.951l17.439,4.916L196.049,151,178.61,146.08Z" transform="translate(-170.703 -53.35)" fill="#7c7c7c"/>
              <path id="Path_2391" data-name="Path 2391" d="M177.473,135.831l17.438,4.916,3.8,15.674-17.439-4.915Z" transform="translate(-177.467 0.453)" fill="#6d6d6d"/>
              <path id="Path_2392" data-name="Path 2392" d="M211.063,117.823l-17.438-4.915,15.851,1.038,17.439,4.915Z" transform="translate(-81.411 -112.908)" fill="#919191"/>
              <path id="Path_2393" data-name="Path 2393" d="M185.074,117.918l17.439,4.915.773,17.519-17.438-4.915Z" transform="translate(-132.264 -88.132)" fill="#3a3a3a"/>
              <path id="Path_2394" data-name="Path 2394" d="M180.118,126.88l17.119-2.319,17.439,4.916L197.557,131.8Z" transform="translate(-161.736 -55.279)" fill="#303030"/>
              <path id="Path_2395" data-name="Path 2395" d="M178.61,128.5l17.439,4.915,13.817,4.344-17.439-4.915Z" transform="translate(-170.703 -35.776)" fill="#0973ba"/>
              <path id="Path_2396" data-name="Path 2396" d="M195.029,133.085,212.468,138l-17.557,16.326-17.438-4.915Z" transform="translate(-177.467 -13.127)" fill="#3a3a3a"/>
              <path id="Path_2397" data-name="Path 2397" d="M221.948,117.823l-17.438-4.915-12.716,20.445,17.439,4.916Z" transform="translate(-92.297 -112.908)" fill="#303030"/>
            </g>
          </g>
          <path id="Path_2442" data-name="Path 2442" d="M195.35,145.47" transform="translate(-71.148 48.12)" fill="none" stroke="#fff" stroke-linecap="round" stroke-linejoin="round" stroke-width="1"/>
        </g>
        <g id="Group_708" data-name="Group 708" transform="translate(16.682 4.829)">
          <g id="Group_660-2" data-name="Group 660" transform="translate(0 0)">
            <g id="Group_659-2" data-name="Group 659">
              <path id="Path_2383-2" data-name="Path 2383" d="M317.424,140.63l-7.385,4.471a25.075,25.075,0,0,0-12.227-10.392l1.779-4.774,5.947-16-15.847-1.029-12.72,20.446a59.766,59.766,0,0,0-9.337,2.6A77.371,77.371,0,0,0,256,141.284c-.16.077-.3.172-.458.25L248.9,128.478l-18.625,14.209.771,17.52a137.881,137.881,0,0,0-18.077,21.979l-17.111,2.319-10.477,21.129,13.818,4.346a75.351,75.351,0,0,0-4.182,22.877l-17.549,16.331,3.807,15.677,14.165-8.615,4.578-2.782a25.106,25.106,0,0,0,10.066,9.393c.709.369,1.431.7,2.161,1l-7.718,20.79,15.846,1.028,7.545-12.122,5.19-8.341a71.927,71.927,0,0,0,21.425-8.163l5.342,10.481,1.3,2.556,10.3-7.86,8.316-6.332-.7-15.808c-16.944,12.241-33.347,13.959-42.065,5.66-11.477,1.29-20.328-3.823-23.065-15.113-.236-.969,7.746-.6,7.614-1.623-.577-4.186,1.07-8.6,2.042-13.389,1.688-8.519,6.259-17.318,11.9-25.939,5.6-8.62,7.427-14.91,15.819-21.307.591-.446-3.508-4.572-2.918-5.006,16.958-12.206,33.353-13.936,42.072-5.642,11.477-1.284,20.327,3.829,23.065,15.119a27.844,27.844,0,0,1,.549,3.008,63.184,63.184,0,0,0,.938-10.143L332.6,149.406l-3.807-15.683Zm-15.27,75.076,12.074-1.629L324.7,192.954l-11.24-3.537C311.769,197.936,307.816,207.08,302.154,215.706Z" transform="translate(-177.472 -112.905)" fill="#6d6d6d"/>
              <path id="Path_2384-2" data-name="Path 2384" d="M215.3,116.409l17.438,4.916L213.994,132.7l-17.438-4.916Z" transform="translate(-63.979 -95.59)" fill="#2b2b2b"/>
              <path id="Path_2385-2" data-name="Path 2385" d="M212.645,155.118,195.206,150.2l-6.641-13.048L206,142.07Z" transform="translate(-111.504 6.996)" fill="#383838"/>
              <path id="Path_2386-2" data-name="Path 2386" d="M189.092,138.3l20.849,1.369L198.806,164l-17.439-4.915Z" transform="translate(-154.305 12.654)" fill="#333"/>
              <path id="Path_2387-2" data-name="Path 2387" d="M335.087,150.232l-3.807-15.683-14.151,8.6-4.578,2.776a25.011,25.011,0,0,0-10.066-9.387,21.632,21.632,0,0,0-2.161-1l7.7-20.766-15.846-1.034-7.531,12.11-5.19,8.341a71.767,71.767,0,0,0-21.425,8.163l-5.342-10.487-1.3-2.556-10.331,7.889-8.274,6.32.688,15.773.083,1.748a136.684,136.684,0,0,0-18.1,21.985l-5.065.69-12.046,1.629-10.476,21.123,11.248,3.543,2.57.809a84.478,84.478,0,0,0-3.223,12.741,63.792,63.792,0,0,0-.938,10.131l-17.549,16.331,3.8,15.666,11.365-6.908,7.385-4.477a25.167,25.167,0,0,0,12.227,10.392l-1.779,4.78-5.947,15.992,15.854,1.046L235.6,266.05a58.761,58.761,0,0,0,9.337-2.6,78.576,78.576,0,0,0,11.595-5.3c.16-.083.34-.166.5-.262l6.635,13.044,18.612-14.191-.757-17.544A136.745,136.745,0,0,0,299.6,217.229l17.118-2.319L327.2,193.787l-13.818-4.352a75.066,75.066,0,0,0,4.175-22.889Zm-47.873,61.384A93.027,93.027,0,0,1,265.928,234.7c-.591.452-1.181.9-1.779,1.308-16.944,12.241-33.347,13.959-42.065,5.66a20.178,20.178,0,0,1-5.613-10.2c-4.634-19.108,10-48.626,32.687-65.938,9.282-7.087,18.459-11.022,26.393-11.884,11.477-1.284,20.327,3.829,23.065,15.119a27.838,27.838,0,0,1,.549,3.008,40.646,40.646,0,0,1-.646,13.555C296.829,193.846,292.876,202.99,287.214,211.616Z" transform="translate(-162.533 -108.815)" fill="#545454"/>
              <path id="Path_2388-2" data-name="Path 2388" d="M262.574,135.728a27.853,27.853,0,0,1,.549,3.008,40.646,40.646,0,0,1-.646,13.555c-1.688,8.519-5.641,17.663-11.3,26.29a93.028,93.028,0,0,1-21.286,23.079c-.59.452-1.181.9-1.778,1.308-16.944,12.241-33.347,13.959-42.065,5.66,7.934-.862,17.111-4.8,26.392-11.884,22.69-17.306,37.341-46.83,32.707-65.92a20.235,20.235,0,0,0-5.634-10.214C250.987,119.325,259.837,124.438,262.574,135.728Z" transform="translate(-126.492 -75.779)" fill="#333"/>
              <path id="Path_2389-2" data-name="Path 2389" d="M185.074,129.734l17.439,4.915,18.615-14.206-17.439-4.915Z" transform="translate(-132.264 -99.948)" fill="#878787"/>
              <path id="Path_2390-2" data-name="Path 2390" d="M189.085,124.951l17.439,4.916L196.049,151,178.61,146.08Z" transform="translate(-170.703 -53.35)" fill="#7c7c7c"/>
              <path id="Path_2391-2" data-name="Path 2391" d="M177.473,135.831l17.438,4.916,3.8,15.674-17.439-4.915Z" transform="translate(-177.467 0.453)" fill="#6d6d6d"/>
              <path id="Path_2392-2" data-name="Path 2392" d="M211.063,117.823l-17.438-4.915,15.851,1.038,17.439,4.915Z" transform="translate(-81.411 -112.908)" fill="#919191"/>
              <path id="Path_2393-2" data-name="Path 2393" d="M185.074,117.918l17.439,4.915.773,17.519-17.438-4.915Z" transform="translate(-132.264 -88.132)" fill="#3a3a3a"/>
              <path id="Path_2394-2" data-name="Path 2394" d="M180.118,126.88l17.119-2.319,17.439,4.916L197.557,131.8Z" transform="translate(-161.736 -55.279)" fill="#303030"/>
              <path id="Path_2395-2" data-name="Path 2395" d="M178.61,128.5l17.439,4.915,13.817,4.344-17.439-4.915Z" transform="translate(-170.703 -35.776)" fill="#0973ba"/>
              <path id="Path_2396-2" data-name="Path 2396" d="M195.029,133.085,212.468,138l-17.557,16.326-17.438-4.915Z" transform="translate(-177.467 -13.127)" fill="#3a3a3a"/>
              <path id="Path_2397-2" data-name="Path 2397" d="M221.948,117.823l-17.438-4.915-12.716,20.445,17.439,4.916Z" transform="translate(-92.297 -112.908)" fill="#303030"/>
            </g>
          </g>
          <path id="Path_2442-2" data-name="Path 2442" d="M195.35,145.47" transform="translate(-71.148 48.12)" fill="none" stroke="#fff" stroke-linecap="round" stroke-linejoin="round" stroke-width="1"/>
        </g>
        <g id="Group_707" data-name="Group 707" transform="translate(33.364 9.658)">
          <g id="Group_660-3" data-name="Group 660" transform="translate(0 0)">
            <g id="Group_659-3" data-name="Group 659">
              <path id="Path_2383-3" data-name="Path 2383" d="M317.424,140.63l-7.385,4.471a25.075,25.075,0,0,0-12.227-10.392l1.779-4.774,5.947-16-15.847-1.029-12.72,20.446a59.766,59.766,0,0,0-9.337,2.6A77.371,77.371,0,0,0,256,141.284c-.16.077-.3.172-.458.25L248.9,128.478l-18.625,14.209.771,17.52a137.881,137.881,0,0,0-18.077,21.979l-17.111,2.319-10.477,21.129,13.818,4.346a75.351,75.351,0,0,0-4.182,22.877l-17.549,16.331,3.807,15.677,14.165-8.615,4.578-2.782a25.106,25.106,0,0,0,10.066,9.393c.709.369,1.431.7,2.161,1l-7.718,20.79,15.846,1.028,7.545-12.122,5.19-8.341a71.927,71.927,0,0,0,21.425-8.163l5.342,10.481,1.3,2.556,10.3-7.86,8.316-6.332-.7-15.808c-16.944,12.241-33.347,13.959-42.065,5.66-11.477,1.29-20.328-3.823-23.065-15.113-.236-.969,7.746-.6,7.614-1.623-.577-4.186,1.07-8.6,2.042-13.389,1.688-8.519,6.259-17.318,11.9-25.939,5.6-8.62,7.427-14.91,15.819-21.307.591-.446-3.508-4.572-2.918-5.006,16.958-12.206,33.353-13.936,42.072-5.642,11.477-1.284,20.327,3.829,23.065,15.119a27.844,27.844,0,0,1,.549,3.008,63.184,63.184,0,0,0,.938-10.143L332.6,149.406l-3.807-15.683Zm-15.27,75.076,12.074-1.629L324.7,192.954l-11.24-3.537C311.769,197.936,307.816,207.08,302.154,215.706Z" transform="translate(-177.472 -112.905)" fill="#6d6d6d"/>
              <path id="Path_2384-3" data-name="Path 2384" d="M215.3,116.409l17.438,4.916L213.994,132.7l-17.438-4.916Z" transform="translate(-63.979 -95.59)" fill="#2b2b2b"/>
              <path id="Path_2385-3" data-name="Path 2385" d="M212.645,155.118,195.206,150.2l-6.641-13.048L206,142.07Z" transform="translate(-111.504 6.996)" fill="#383838"/>
              <path id="Path_2386-3" data-name="Path 2386" d="M189.092,138.3l20.849,1.369L198.806,164l-17.439-4.915Z" transform="translate(-154.305 12.654)" fill="#333"/>
              <path id="Path_2387-3" data-name="Path 2387" d="M335.087,150.232l-3.807-15.683-14.151,8.6-4.578,2.776a25.011,25.011,0,0,0-10.066-9.387,21.632,21.632,0,0,0-2.161-1l7.7-20.766-15.846-1.034-7.531,12.11-5.19,8.341a71.767,71.767,0,0,0-21.425,8.163l-5.342-10.487-1.3-2.556-10.331,7.889-8.274,6.32.688,15.773.083,1.748a136.684,136.684,0,0,0-18.1,21.985l-5.065.69-12.046,1.629-10.476,21.123,11.248,3.543,2.57.809a84.478,84.478,0,0,0-3.223,12.741,63.792,63.792,0,0,0-.938,10.131l-17.549,16.331,3.8,15.666,11.365-6.908,7.385-4.477a25.167,25.167,0,0,0,12.227,10.392l-1.779,4.78-5.947,15.992,15.854,1.046L235.6,266.05a58.761,58.761,0,0,0,9.337-2.6,78.576,78.576,0,0,0,11.595-5.3c.16-.083.34-.166.5-.262l6.635,13.044,18.612-14.191-.757-17.544A136.745,136.745,0,0,0,299.6,217.229l17.118-2.319L327.2,193.787l-13.818-4.352a75.066,75.066,0,0,0,4.175-22.889Zm-47.873,61.384A93.027,93.027,0,0,1,265.928,234.7c-.591.452-1.181.9-1.779,1.308-16.944,12.241-33.347,13.959-42.065,5.66a20.178,20.178,0,0,1-5.613-10.2c-4.634-19.108,10-48.626,32.687-65.938,9.282-7.087,18.459-11.022,26.393-11.884,11.477-1.284,20.327,3.829,23.065,15.119a27.838,27.838,0,0,1,.549,3.008,40.646,40.646,0,0,1-.646,13.555C296.829,193.846,292.876,202.99,287.214,211.616Z" transform="translate(-162.533 -108.815)" fill="#545454"/>
              <path id="Path_2388-3" data-name="Path 2388" d="M262.574,135.728a27.853,27.853,0,0,1,.549,3.008,40.646,40.646,0,0,1-.646,13.555c-1.688,8.519-5.641,17.663-11.3,26.29a93.028,93.028,0,0,1-21.286,23.079c-.59.452-1.181.9-1.778,1.308-16.944,12.241-33.347,13.959-42.065,5.66,7.934-.862,17.111-4.8,26.392-11.884,22.69-17.306,37.341-46.83,32.707-65.92a20.235,20.235,0,0,0-5.634-10.214C250.987,119.325,259.837,124.438,262.574,135.728Z" transform="translate(-126.492 -75.779)" fill="#333"/>
              <path id="Path_2389-3" data-name="Path 2389" d="M185.074,129.734l17.439,4.915,18.615-14.206-17.439-4.915Z" transform="translate(-132.264 -99.948)" fill="#878787"/>
              <path id="Path_2390-3" data-name="Path 2390" d="M189.085,124.951l17.439,4.916L196.049,151,178.61,146.08Z" transform="translate(-170.703 -53.35)" fill="#7c7c7c"/>
              <path id="Path_2391-3" data-name="Path 2391" d="M177.473,135.831l17.438,4.916,3.8,15.674-17.439-4.915Z" transform="translate(-177.467 0.453)" fill="#6d6d6d"/>
              <path id="Path_2392-3" data-name="Path 2392" d="M211.063,117.823l-17.438-4.915,15.851,1.038,17.439,4.915Z" transform="translate(-81.411 -112.908)" fill="#919191"/>
              <path id="Path_2393-3" data-name="Path 2393" d="M185.074,117.918l17.439,4.915.773,17.519-17.438-4.915Z" transform="translate(-132.264 -88.132)" fill="#3a3a3a"/>
              <path id="Path_2394-3" data-name="Path 2394" d="M180.118,126.88l17.119-2.319,17.439,4.916L197.557,131.8Z" transform="translate(-161.736 -55.279)" fill="#303030"/>
              <path id="Path_2395-3" data-name="Path 2395" d="M178.61,128.5l17.439,4.915,13.817,4.344-17.439-4.915Z" transform="translate(-170.703 -35.776)" fill="#0973ba"/>
              <path id="Path_2396-3" data-name="Path 2396" d="M195.029,133.085,212.468,138l-17.557,16.326-17.438-4.915Z" transform="translate(-177.467 -13.127)" fill="#3a3a3a"/>
              <path id="Path_2397-3" data-name="Path 2397" d="M221.948,117.823l-17.438-4.915-12.716,20.445,17.439,4.916Z" transform="translate(-92.297 -112.908)" fill="#303030"/>
            </g>
          </g>
          <path id="Path_2442-3" data-name="Path 2442" d="M195.35,145.47" transform="translate(-71.148 48.12)" fill="none" stroke="#fff" stroke-linecap="round" stroke-linejoin="round" stroke-width="1"/>
        </g>
      </g>
    </g>
  </g>
</svg>
