<?xml version="1.0" encoding="UTF-8"?>
<svg viewBox="0 0 375 667" xmlns="http://www.w3.org/2000/svg">
<defs>
<linearGradient id="b" x1=".606" x2="-.079" y1=".047" y2=".9">
<stop stop-color="#2ba6f8" offset="0"/>
<stop stop-color="#090909" offset="1"/>
<stop offset="1"/>
</linearGradient>
<linearGradient id="a" x1=".606" x2="-.079" y1=".047" y2=".9">
<stop stop-color="#2ba6f8" offset="0"/>
<stop offset="1"/>
</linearGradient>
<clipPath id="c">
<rect width="375" height="667"/>
</clipPath>
</defs>
<g clip-path="url(#c)" data-name="Portfolio Site HomePage Top Div - Phone">
<rect width="375" height="667" fill="#fff"/>
<g transform="translate(-124.62 -524.65) rotate(37)" data-name="Group 426">
<path transform="translate(0)" d="m531.28 193.74s110.67-127.63-98.192-186.09 113.79 235.54 200.95 280.45c55.041 24.077 71.271 70.869 67.635 114.44-4.768 57.172-100.71 59.252-181.16 95.593-194.25 87.757 25.194 14.67 99.2 56.635s28.867 73.242-73.526 70.033c-221.13-6.93-147.78 58.391-110.84 87.976s30.584 97.2-143.45 51.489-108.6 64.665-108.6 64.665h-183.28v-676.74z" fill="url(#b)" data-name="Path 1"/>
<path transform="translate(0 151.98)" d="m179.28 0.213s218.36-11.382 257.23 132.1c42.358 156.35-93.125 229.86-139.08 193.97s-48.041-84.664 23.5-116.85 64.347-131.4-92.075-106.64-174.52 223.79-61.19 271.41 85.71 103.68-36.189 163.27-55.235 139.49-55.235 139.49h-76.247v-676.74z" fill="url(#a)" data-name="Path 2"/>
</g>
<g transform="matrix(.695 -.719 .719 .695 -623.16 600.79)" data-name="Group 427">
<path transform="translate(0)" d="m743.14 60.447s-135.98 2.973-303.93-50.857 0.555 134.66 70.641 176.01c44.26 22.171 57.311 65.26 54.387 105.38-3.836 52.647-80.986 54.561-145.68 88.027-156.21 80.812 20.26 13.509 79.772 52.153s23.213 67.445-59.125 64.49c-177.82-6.381-300.58-187.9-270.87-160.65s159.05 248.14 19.1 206.05-40.053 142.58-40.053 142.58h-147.38v-623.18z" fill="url(#b)" data-name="Path 1"/>
<path transform="translate(0 60.25)" d="M165.095.2S366.171-10.285,401.971,121.843C440.976,265.816,316.216,333.51,273.9,300.464s-44.239-77.964,21.64-107.6,59.254-121-84.788-98.2S50.043,300.734,154.4,344.588s78.926,95.477-33.324,150.344S70.213,623.379,70.213,623.379H0V.2Z" fill="url(#a)" data-name="Path 2"/>
</g>
<g transform="translate(-10.78 584.59) rotate(-20)" opacity=".2">
<path transform="translate(49.039 25.78)" d="m0 1.511z" fill="#666" data-name="Path 517"/>
<path transform="translate(44.593 35.847)" d="m0 0z" data-name="Path 503"/>
<path transform="translate(44.265 17.824)" d="m0 0zm9.16 19.861z" data-name="Path 504"/>
<path transform="translate(64.159 35.847)" d="m0 0z" data-name="Path 505"/>
<path transform="translate(53.374 29.982)" d="m0 0z" fill="#f33052" data-name="Path 507"/>
<path transform="translate(0 35.847)" d="m0 0z" data-name="Path 508"/>
<path transform="translate(13.496 29.982)" d="m0 0z" fill="#f33052" data-name="Path 512"/>
<g transform="translate(13.668 -4.695)" fill="#fff" data-name="Group 121">
<path transform="translate(0 5.442)" d="M26.028,27.971,0,17V10.922L26.028,0V7.157L7.873,13.886l18.158,6.982v7.1Z" data-name="Path 514"/>
<path transform="translate(24.387)" d="M0,38.389,9.4,0h5.464L5.358,38.389Z" data-name="Path 515"/>
<path transform="translate(37.61 5.49)" d="M0,27.953V20.846l18.18-6.932L0,7.06V0L26.053,10.922v6.026Z" data-name="Path 516"/>
</g>
</g>
<g transform="translate(6.028 12.607)" data-name="Group 431">
<g transform="translate(67.208 34.902)" opacity=".4" data-name="Group 363">
<g data-name="Group 362">
<path transform="translate(-452.65 -178.99)" d="m452.65 196.94v-1.028l26.661-15.378v1.028z" fill="#fff" data-name="Path 1532"/>
<path transform="translate(-453.81 -178.93)" d="m486.41 178.93v1.028l-4.32 2.492v-1.028z" fill="#fff" data-name="Path 1533"/>
<path transform="translate(-452.65 -179.07)" d="m452.65 198.9v-1.028l26.661-15.378v1.028z" fill="#fff" data-name="Path 1534"/>
<path transform="translate(-453.81 -179.16)" d="m486.41 184.79v1.028l-4.32 2.492v-1.029z" fill="#fff" data-name="Path 1535"/>
<path transform="translate(-453.81 -179.23)" d="m486.41 186.75v1.028l-4.32 2.492v-1.028z" fill="#fff" data-name="Path 1536"/>
<path transform="translate(-453.81 -179.54)" d="m486.41 194.57v1.03l-4.32 2.492v-1.028z" fill="#fff" data-name="Path 1537"/>
<path transform="translate(-453.81 -179.62)" d="m486.41 196.52v1.028l-4.32 2.492v-1.028z" fill="#fff" data-name="Path 1538"/>
<g transform="translate(9.841 20.333)" data-name="Group 356">
<path transform="translate(-462.9 -200.09)" d="m462.9 209.79l16.82-9.7v1.028l-16.82 9.7z" fill="#fff" data-name="Path 1539"/>
</g>
<g transform="translate(0 18.455)" fill="#fff" data-name="Group 357">
<path transform="translate(-453.4 -198.14)" d="m471.61 203.01l8.451-4.874v1.028l-8.451 4.874z" data-name="Path 1540"/>
<path transform="translate(-452.65 -198.36)" d="m469.97 203.74v1.028l-17.324 9.993v-1.029z" data-name="Path 1541"/>
</g>
<path transform="translate(-452.65 -180.03)" d="m454.93 206.91v1.028l-2.279 1.314v-1.028z" fill="#fff" data-name="Path 1542"/>
<path transform="translate(-453.25 -179.37)" d="m467.93 197.22l11.979-6.91v1.028l-11.979 6.91z" fill="#fff" data-name="Path 1543"/>
<g transform="translate(8 .502)" data-name="Group 358">
<path transform="translate(-460.98 -179.45)" d="m460.98 185.62l10.7-6.174v1.028l-10.7 6.174z" fill="#fff" data-name="Path 1544"/>
</g>
<path transform="translate(-453.23 -178.95)" d="m467.47 183.91l7.536-4.347v1.028l-7.536 4.347z" fill="#fff" data-name="Path 1545"/>
<g transform="translate(0 5.468)" fill="#fff" data-name="Group 359">
<path transform="translate(-452.91 -184.62)" d="m459.24 188.67l7.021-4.049v1.028l-7.021 4.054z" data-name="Path 1546"/>
<path transform="translate(-452.65 -184.8)" d="m458.1 189.36v1.028l-5.444 3.14v-1.028z" data-name="Path 1547"/>
</g>
<path transform="translate(-453.45 -178.94)" d="m478.72 179.42v1.028l-5.678 3.275v-1.028z" fill="#fff" data-name="Path 1548"/>
<path transform="translate(-452.74 -179.1)" d="m454.96 192.87l16.482-9.507v1.028l-16.482 9.507z" fill="#fff" data-name="Path 1549"/>
<path transform="translate(-453.13 -179.24)" d="m464.78 193.2l10.771-6.213v1.028l-10.771 6.213z" fill="#fff" data-name="Path 1550"/>
<path transform="translate(-452.74 -179.52)" d="m454.96 198.92l8.55-4.932v1.028l-8.55 4.931z" fill="#fff" data-name="Path 1551"/>
<g transform="translate(3.165 18.362)" data-name="Group 360">
<path transform="translate(-455.94 -198.04)" d="m455.94 204.17l10.629-6.131v1.028l-10.629 6.132z" fill="#fff" data-name="Path 1552"/>
</g>
<path transform="translate(-452.78 -179.87)" d="m461.73 202.9v1.028l-5.789 3.339v-1.028z" fill="#fff" data-name="Path 1553"/>
<path transform="translate(-453.66 -179.45)" d="m478.23 193.47l2.085-1.2v1.027l-2.085 1.2z" fill="#fff" data-name="Path 1554"/>
<g transform="translate(9.841 14.533)" fill="#fff" data-name="Group 361">
<path transform="translate(-462.9 -194.13)" d="m473.72 195.87v1.033l-10.83 6.247v-1.028z" data-name="Path 1555"/>
<path transform="translate(-463.38 -194.05)" d="m475.09 195.28l2.132-1.23v1.028l-2.132 1.23z" data-name="Path 1556"/>
</g>
<path transform="translate(-453.14 -179.6)" d="m464.98 202.84l11.845-6.832v1.028l-11.845 6.832z" fill="#fff" data-name="Path 1557"/>
</g>
</g>
<g transform="translate(67.208)" fill="#fff" opacity=".4" data-name="Group 364">
<path transform="translate(-453.04 -142.59)" d="m462.61 152.97l17.914-10.374v0.911l-17.914 10.374z" data-name="Path 1558"/>
<path transform="translate(-452.65 -142.67)" d="m480.13 145.37l-27.482 15.9v-0.911l27.482-15.9z" data-name="Path 1559"/>
<path transform="translate(-452.65 -143.05)" d="M461.02,154.1v.911l-8.37,4.847v-.911Z" data-name="Path 1560"/>
<path transform="translate(-453.04 -142.74)" d="M462.61,156.6l17.914-10.374v.911L462.61,157.513Z" data-name="Path 1561"/>
<path transform="translate(-452.65 -142.81)" d="m480.13 149-27.482 15.9v-0.911l27.482-15.9z" data-name="Path 1562"/>
<path transform="translate(-452.65 -143.19)" d="m461.02 158.64l-8.37 4.847v-0.911l8.37-4.847z" data-name="Path 1563"/>
<path transform="translate(-453.04 -142.97)" d="M462.61,162.6l17.914-10.374v.911L462.61,163.513Z" data-name="Path 1564"/>
<path transform="translate(-452.65 -143.05)" d="m480.13 155-27.482 15.9v-0.911l27.482-15.9z" data-name="Path 1565"/>
<path transform="translate(-452.65 -143.43)" d="m461.02 164.64l-8.37 4.847v-0.911l8.37-4.847z" data-name="Path 1566"/>
<path transform="translate(-453.04 -143.12)" d="m462.61 166.24l17.914-10.374v0.911l-17.914 10.374z" data-name="Path 1567"/>
<path transform="translate(-452.65 -143.19)" d="m480.13 158.64l-27.482 15.9v-0.911l27.482-15.9z" data-name="Path 1568"/>
<path transform="translate(-452.65 -143.57)" d="m461.02 168.28l-8.37 4.847v-0.911l8.37-4.847z" data-name="Path 1569"/>
<path transform="translate(-453.04 -143.35)" d="m462.61 172.24l17.914-10.374v0.911l-17.914 10.374z" data-name="Path 1570"/>
<path transform="translate(-452.65 -143.43)" d="m480.13 164.64l-27.482 15.9v-0.911l27.482-15.9z" data-name="Path 1571"/>
<path transform="translate(-452.65 -143.8)" d="m461.02 174.27l-8.37 4.847v-0.911l8.37-4.847z" data-name="Path 1572"/>
<path transform="translate(-453.04 -143.5)" d="m462.61 175.87 17.914-10.37v0.911l-17.914 10.37z" data-name="Path 1573"/>
<path transform="translate(-452.65 -143.95)" d="m461.02 177.91l-8.37 4.847v-0.911l8.37-4.845z" data-name="Path 1574"/>
</g>
<g transform="translate(134.32 64.273)" data-name="Group 366">
<g data-name="Group 365">
<path transform="translate(-522.51 -209.5)" d="m522.51 209.5l0.026 0.014c-8e-3 -7e-3 -0.017-0.014-0.026-0.014z" fill="#bbcee1" data-name="Path 1575"/>
</g>
</g>
<g transform="translate(139.87 37.746)" opacity=".4" data-name="Group 374">
<g data-name="Group 373">
<path transform="translate(-529.45 -181.89)" d="m562.05 181.89v1.028l-4.32 2.492v-1.028z" fill="#fff" data-name="Path 1576"/>
<path transform="translate(-529.45 -181.96)" d="m562.05 183.84v1.028l-4.32 2.492v-1.028z" fill="#fff" data-name="Path 1577"/>
<path transform="translate(-529.45 -182.04)" d="m562.05 185.8v1.028l-4.32 2.492v-1.028z" fill="#fff" data-name="Path 1578"/>
<path transform="translate(-528.29 -182.26)" d="m528.29 207.73v-1.026l26.661-15.378v1.028z" fill="#fff" data-name="Path 1579"/>
<path transform="translate(-529.45 -182.12)" d="m562.05 187.75v1.028l-4.32 2.492v-1.028z" fill="#fff" data-name="Path 1580"/>
<path transform="translate(-529.45 -182.19)" d="m562.05 189.71v1.028l-4.32 2.492v-1.029z" fill="#fff" data-name="Path 1581"/>
<path transform="translate(-528.29 -182.34)" d="m528.29 209.68v-1.028l26.661-15.378v1.024z" fill="#fff" data-name="Path 1582"/>
<path transform="translate(-529.45 -182.42)" d="m562.05 195.58v1.025l-4.32 2.492v-1.028z" fill="#fff" data-name="Path 1583"/>
<path transform="translate(-529.45 -182.5)" d="m562.05 197.53v1.028l-4.32 2.492v-1.028z" fill="#fff" data-name="Path 1584"/>
<path transform="translate(-529.45 -182.81)" d="m562.05 205.35v1.028l-4.32 2.492v-1.028z" fill="#fff" data-name="Path 1585"/>
<path transform="translate(-529.45 -182.89)" d="m562.05 207.31v1.028l-4.32 2.492v-1.028z" fill="#fff" data-name="Path 1586"/>
<g transform="translate(0 27.848)" fill="#fff" data-name="Group 367">
<path transform="translate(-528.69 -210.88)" d="m538.54 220.58l16.82-9.7v1.024l-16.82 9.7z" data-name="Path 1587"/>
<path transform="translate(-528.29 -211.29)" d="m537.25 221.51v1.028l-8.955 5.165v-1.028z" data-name="Path 1588"/>
</g>
<g transform="translate(0 25.969)" fill="#fff" data-name="Group 368">
<path transform="translate(-529.04 -208.92)" d="m547.25 213.79l8.45-4.874v1.028l-8.45 4.874z" data-name="Path 1589"/>
<path transform="translate(-528.29 -209.14)" d="m545.62 214.52v1.028l-17.324 9.992v-1.028z" data-name="Path 1590"/>
</g>
<path transform="translate(-528.29 -183.3)" d="m530.57 217.69v1.028l-2.279 1.314v-1.028z" fill="#fff" data-name="Path 1591"/>
<path transform="translate(-528.89 -182.64)" d="m543.57 208.01l11.979-6.91v1.028l-11.979 6.91z" fill="#fff" data-name="Path 1592"/>
<path transform="translate(-529.09 -182.03)" d="m548.68 189.53l7.071-4.079v1.028l-7.071 4.078z" fill="#fff" data-name="Path 1593"/>
<g transform="translate(7.999 8.016)" data-name="Group 369">
<path transform="translate(-536.62 -190.23)" d="m536.62 196.4l10.7-6.174v1.028l-10.7 6.174z" fill="#fff" data-name="Path 1594"/>
</g>
<path transform="translate(-528.87 -182.22)" d="m543.11 194.69l7.536-4.347v1.028l-7.536 4.347z" fill="#fff" data-name="Path 1595"/>
<g transform="translate(0 12.982)" fill="#fff" data-name="Group 370">
<path transform="translate(-528.55 -195.4)" d="m534.88 199.45l7.02-4.049v1.028l-7.02 4.049z" data-name="Path 1596"/>
<path transform="translate(-528.29 -195.59)" d="m533.74 200.15v1.028l-5.444 3.14v-1.028z" data-name="Path 1597"/>
</g>
<path transform="translate(-529.09 -182.21)" d="m554.36 190.2v1.028l-5.678 3.275v-1.028z" fill="#fff" data-name="Path 1598"/>
<path transform="translate(-528.38 -182.37)" d="m530.6 203.65l16.482-9.507v1.028l-16.482 9.508z" fill="#fff" data-name="Path 1599"/>
<path transform="translate(-528.77 -182.51)" d="m540.43 203.98l10.771-6.213v1.028l-10.771 6.213z" fill="#fff" data-name="Path 1600"/>
<path transform="translate(-528.38 -182.79)" d="m530.6 209.7l8.55-4.932v1.032l-8.55 4.932z" fill="#fff" data-name="Path 1601"/>
<g transform="translate(3.165 25.876)" data-name="Group 371">
<path transform="translate(-531.59 -208.82)" d="m531.59 214.95l10.629-6.131v1.028l-10.629 6.131z" fill="#fff" data-name="Path 1602"/>
</g>
<path transform="translate(-528.42 -183.14)" d="m537.38 213.68v1.028l-5.789 3.339v-1.028z" fill="#fff" data-name="Path 1603"/>
<path transform="translate(-529.3 -182.72)" d="m553.87 204.26l2.085-1.2v1.028l-2.085 1.2z" fill="#fff" data-name="Path 1604"/>
<g transform="translate(9.841 22.047)" fill="#fff" data-name="Group 372">
<path transform="translate(-538.54 -204.91)" d="m549.36 206.65v1.028l-10.83 6.247v-1.024z" data-name="Path 1605"/>
<path transform="translate(-539.02 -204.84)" d="m550.73 206.07l2.132-1.23v1.028l-2.132 1.23z" data-name="Path 1606"/>
</g>
<path transform="translate(-528.78 -182.87)" d="m540.62 213.62l11.845-6.832v1.028l-11.845 6.832z" fill="#fff" data-name="Path 1607"/>
</g>
</g>
<path transform="translate(-384.43 -144.37)" d="M428.086,195.481l13.382-7.722a.98.98,0,0,1,1.469.848v16.019a2.186,2.186,0,0,1-1.091,1.892l-13.38,7.735a1,1,0,0,1-1.507-.869V197.433A2.253,2.253,0,0,1,428.086,195.481Z" fill="#fff" opacity=".2" data-name="Path 1608"/>
<path transform="translate(-317.34 -184.04)" d="M428.086,195.481l13.382-7.722a.98.98,0,0,1,1.469.848v16.019a2.186,2.186,0,0,1-1.091,1.892l-13.38,7.735a1,1,0,0,1-1.507-.869V197.433A2.253,2.253,0,0,1,428.086,195.481Z" fill="#fff" opacity=".2" data-name="Path 1683"/>
<path transform="translate(-383.68 -143.1)" d="M409.062,163.253l13.382-7.721a.98.98,0,0,1,1.469.848V172.4a2.187,2.187,0,0,1-1.091,1.892l-13.38,7.735a1,1,0,0,1-1.507-.869V165.205A2.255,2.255,0,0,1,409.062,163.253Z" fill="#fff" opacity=".2" data-name="Path 1609"/>
<path transform="translate(-386.76 -144.91)" d="M487.3,209.41l13.382-7.722a.98.98,0,0,1,1.469.849v16.018a2.184,2.184,0,0,1-1.091,1.892l-13.381,7.736a1,1,0,0,1-1.506-.869V211.362A2.253,2.253,0,0,1,487.3,209.41Z" fill="#fff" opacity=".2" data-name="Path 1610"/>
<g transform="translate(142.58 70.023)" data-name="Group 377">
<g data-name="Group 376">
<path transform="translate(-531.12 -215.49)" d="m532.36 215.49m-1.248 2.166" fill="#0b3b56" data-name="Path 1612"/>
</g>
</g>
<g transform="translate(12.441 149.62)" data-name="Group 378">
<path transform="translate(-395.64 -298.35)" d="m395.64 298.35" fill="#fff" data-name="Path 1613"/>
</g>
<g transform="translate(16.727 127.44)" data-name="Group 380">
<g data-name="Group 379">
<path transform="translate(-400.1 -275.26)" d="m400.1 275.26l0.026 0.015c-5e-3 -8e-3 -0.015-0.01-0.026-0.015z" fill="#bbcee1" data-name="Path 1614"/>
</g>
</g>
<g transform="translate(55.318 85.485)" data-name="Group 382">
<g data-name="Group 381">
<path transform="translate(-440.27 -231.58)" d="m440.27 231.58l0.026 0.015c-7e-3 -8e-3 -0.017-9e-3 -0.026-0.015z" fill="#bbcee1" data-name="Path 1615"/>
</g>
</g>
<g transform="translate(93.74 44.506)" data-name="Group 384">
<g data-name="Group 383">
<path transform="translate(-480.27 -188.92)" d="m480.27 188.92l0.025 0.014c-6e-3 -7e-3 -0.016-9e-3 -0.025-0.014z" fill="#bbcee1" data-name="Path 1616"/>
</g>
</g>
<g transform="translate(139.92 75.645)" data-name="Group 386">
<g fill="#ebf2eb" data-name="Group 385">
<path transform="translate(-528.34 -221.34)" d="M528.465,222.174l1.423-.821a.1.1,0,0,1,.157.09v1.7a.233.233,0,0,1-.116.2l-1.423.822a.107.107,0,0,1-.161-.092v-1.7A.238.238,0,0,1,528.465,222.174Z" data-name="Path 1617"/>
<path transform="translate(-528.34 -221.44)" d="M528.465,224.827l1.423-.821a.1.1,0,0,1,.157.09v1.7a.232.232,0,0,1-.116.2l-1.423.822a.107.107,0,0,1-.161-.092v-1.7A.238.238,0,0,1,528.465,224.827Z" data-name="Path 1618"/>
<path transform="translate(-528.34 -221.55)" d="M528.465,227.48l1.423-.821a.1.1,0,0,1,.157.09v1.7a.231.231,0,0,1-.116.2l-1.423.823a.107.107,0,0,1-.161-.093v-1.7A.239.239,0,0,1,528.465,227.48Z" data-name="Path 1619"/>
<path transform="translate(-528.34 -221.65)" d="M528.465,230.133l1.423-.821a.1.1,0,0,1,.157.09v1.7a.232.232,0,0,1-.116.2l-1.423.823a.107.107,0,0,1-.161-.093v-1.7A.239.239,0,0,1,528.465,230.133Z" data-name="Path 1620"/>
</g>
</g>
<g transform="translate(40.585 85.513)" opacity=".4" data-name="Group 394">
<g data-name="Group 393">
<path transform="translate(-426.1 -231.61)" d="m458.7 231.61v1.028l-4.32 2.492v-1.03z" fill="#fff" data-name="Path 1621"/>
<path transform="translate(-426.1 -231.69)" d="m458.7 233.57v1.028l-4.32 2.492v-1.028z" fill="#fff" data-name="Path 1622"/>
<path transform="translate(-426.1 -231.76)" d="m458.7 235.52v1.028l-4.32 2.492v-1.028z" fill="#fff" data-name="Path 1623"/>
<path transform="translate(-424.94 -231.98)" d="m424.94 257.45v-1.028l26.663-15.379v1.028z" fill="#fff" data-name="Path 1624"/>
<path transform="translate(-426.1 -231.84)" d="m458.7 237.48v1.023l-4.323 2.5v-1.028z" fill="#fff" data-name="Path 1625"/>
<path transform="translate(-426.1 -231.92)" d="m458.7 239.43v1.028l-4.32 2.492v-1.028z" fill="#fff" data-name="Path 1626"/>
<path transform="translate(-424.94 -232.06)" d="M424.937,259.405v-1.028L451.6,243v1.028Z" fill="#fff" data-name="Path 1627"/>
<path transform="translate(-426.1 -232.15)" d="m458.7 245.3v1.028l-4.32 2.492v-1.03z" fill="#fff" data-name="Path 1628"/>
<path transform="translate(-426.1 -232.23)" d="m458.7 247.25v1.028l-4.32 2.492v-1.028z" fill="#fff" data-name="Path 1629"/>
<path transform="translate(-426.1 -232.53)" d="m458.7 255.08v1.024l-4.32 2.492v-1.028z" fill="#fff" data-name="Path 1630"/>
<path transform="translate(-426.1 -232.61)" d="m458.7 257.03v1.028l-4.32 2.492v-1.028z" fill="#fff" data-name="Path 1631"/>
<g transform="translate(0 27.847)" fill="#fff" data-name="Group 387">
<path transform="translate(-425.34 -260.6)" d="m435.18 270.3 16.819-9.7v1.028l-16.82 9.7z" data-name="Path 1632"/>
<path transform="translate(-424.94 -261.02)" d="m433.89 271.23v1.028l-8.955 5.165v-1.028z" data-name="Path 1633"/>
</g>
<g transform="translate(0 25.969)" fill="#fff" data-name="Group 388">
<path transform="translate(-425.68 -258.64)" d="m443.89 263.52l8.45-4.874v1.028l-8.45 4.874z" data-name="Path 1634"/>
<path transform="translate(-424.94 -258.86)" d="m442.26 264.25v1.028l-17.324 9.992v-1.028z" data-name="Path 1635"/>
</g>
<path transform="translate(-424.94 -233.02)" d="m427.22 267.42v1.028l-2.279 1.314v-1.028z" fill="#fff" data-name="Path 1636"/>
<path transform="translate(-425.54 -232.37)" d="m440.22 257.73l11.979-6.91v1.028l-11.979 6.91z" fill="#fff" data-name="Path 1637"/>
<path transform="translate(-425.74 -231.75)" d="m445.33 239.26l7.071-4.078v1.028l-7.071 4.079z" fill="#fff" data-name="Path 1638"/>
<g transform="translate(7.999 8.016)" data-name="Group 389">
<path transform="translate(-433.26 -239.96)" d="m433.26 246.13l10.7-6.174v1.028l-10.7 6.174z" fill="#fff" data-name="Path 1639"/>
</g>
<path transform="translate(-425.52 -231.94)" d="m439.76 244.41l7.536-4.347v1.033l-7.536 4.347z" fill="#fff" data-name="Path 1640"/>
<g transform="translate(0 12.982)" fill="#fff" data-name="Group 390">
<path transform="translate(-425.2 -245.12)" d="m431.53 249.17l7.02-4.049v1.028l-7.02 4.049z" data-name="Path 1641"/>
<path transform="translate(-424.94 -245.31)" d="m430.38 249.87v1.029l-5.444 3.14v-1.028z" data-name="Path 1642"/>
</g>
<path transform="translate(-425.74 -231.94)" d="m451.01 239.92v1.029l-5.678 3.275v-1.028z" fill="#fff" data-name="Path 1643"/>
<path transform="translate(-425.03 -232.09)" d="m427.25 253.37l16.482-9.507v1.028l-16.482 9.506z" fill="#fff" data-name="Path 1644"/>
<path transform="translate(-425.41 -232.24)" d="m437.07 253.71l10.771-6.213v1.028l-10.771 6.213z" fill="#fff" data-name="Path 1645"/>
<path transform="translate(-425.03 -232.51)" d="m427.25 259.43l8.55-4.932v1.028l-8.55 4.931z" fill="#fff" data-name="Path 1646"/>
<g transform="translate(3.165 25.876)" data-name="Group 391">
<path transform="translate(-428.23 -258.55)" d="m428.23 264.68l10.629-6.131v1.028l-10.629 6.131z" fill="#fff" data-name="Path 1647"/>
</g>
<path transform="translate(-425.07 -232.86)" d="m434.02 263.41v1.028l-5.789 3.339v-1.028z" fill="#fff" data-name="Path 1648"/>
<path transform="translate(-425.94 -232.44)" d="m450.52 253.98l2.085-1.2v1.021l-2.085 1.2z" fill="#fff" data-name="Path 1649"/>
<g transform="translate(9.841 22.047)" fill="#fff" data-name="Group 392">
<path transform="translate(-435.18 -254.63)" d="m446.01 256.37v1.027l-10.83 6.247v-1.028z" data-name="Path 1650"/>
<path transform="translate(-435.66 -254.56)" d="m447.38 255.79l2.132-1.23v1.028l-2.132 1.23z" data-name="Path 1651"/>
</g>
<path transform="translate(-425.42 -232.59)" d="m437.27 263.35l11.845-6.832v1.028l-11.845 6.832z" fill="#fff" data-name="Path 1652"/>
</g>
</g>
<g transform="translate(0 45.927)" opacity=".4" data-name="Group 402">
<g data-name="Group 401">
<path transform="translate(-384.76 -164.59)" d="m417.36 164.59v1.029l-4.32 2.492v-1.028z" fill="#fff" data-name="Path 1653"/>
<path transform="translate(-384.76 -164.67)" d="m417.36 166.55v1.028l-4.32 2.492v-1.028z" fill="#fff" data-name="Path 1654"/>
<path transform="translate(-384.76 -164.75)" d="M417.36,168.5v1.028l-4.32,2.492V171Z" fill="#fff" data-name="Path 1655"/>
<path transform="translate(-383.6 -164.96)" d="m383.6 190.43v-1.033l26.661-15.378v1.028z" fill="#fff" data-name="Path 1656"/>
<path transform="translate(-384.76 -164.82)" d="m417.36 170.46v1.028l-4.32 2.492v-1.028z" fill="#fff" data-name="Path 1657"/>
<path transform="translate(-384.76 -164.9)" d="m417.36 172.42v1.028l-4.32 2.492v-1.028z" fill="#fff" data-name="Path 1658"/>
<path transform="translate(-383.6 -165.04)" d="m383.6 192.39v-1.028l26.661-15.378v1.028z" fill="#fff" data-name="Path 1659"/>
<path transform="translate(-384.76 -165.13)" d="m417.36 178.28v1.028l-4.32 2.492v-1.028z" fill="#fff" data-name="Path 1660"/>
<path transform="translate(-384.76 -165.21)" d="m417.36 180.24v1.028l-4.32 2.492v-1.028z" fill="#fff" data-name="Path 1661"/>
<path transform="translate(-384.76 -165.52)" d="m417.36 188.06v1.028l-4.32 2.492v-1.028z" fill="#fff" data-name="Path 1662"/>
<path transform="translate(-384.76 -165.59)" d="m417.36 190.02v1.028l-4.32 2.492v-1.028z" fill="#fff" data-name="Path 1663"/>
<g transform="translate(9.841 27.848)" data-name="Group 395">
<path transform="translate(-393.84 -193.58)" d="m393.84 203.28l16.82-9.7v1.028l-16.82 9.7z" fill="#fff" data-name="Path 1664"/>
</g>
<g transform="translate(18.21 25.969)" data-name="Group 396">
<path transform="translate(-402.56 -191.63)" d="m402.56 196.5l8.45-4.874v1.028l-8.45 4.874z" fill="#fff" data-name="Path 1665"/>
</g>
<path transform="translate(-383.6 -166)" d="m385.88 200.4v1.028l-2.279 1.315v-1.028z" fill="#fff" data-name="Path 1666"/>
<path transform="translate(-384.2 -165.35)" d="m398.88 190.71l11.979-6.91v1.028l-11.979 6.91z" fill="#fff" data-name="Path 1667"/>
<path transform="translate(-384.4 -164.73)" d="m403.99 172.24l7.071-4.079v1.028l-7.071 4.079z" fill="#fff" data-name="Path 1668"/>
<g transform="translate(8 8.016)" data-name="Group 397">
<path transform="translate(-391.93 -172.94)" d="m391.93 179.11l10.7-6.174v1.028l-10.7 6.174z" fill="#fff" data-name="Path 1669"/>
</g>
<path transform="translate(-384.18 -164.93)" d="m398.42 177.4l7.536-4.347v1.028l-7.536 4.347z" fill="#fff" data-name="Path 1670"/>
<g transform="translate(0 12.982)" fill="#fff" data-name="Group 398">
<path transform="translate(-383.86 -178.11)" d="m390.19 182.16l7.021-4.049v1.028l-7.021 4.049z" data-name="Path 1671"/>
<path transform="translate(-383.6 -178.29)" d="M389.045,182.855v1.028l-5.444,3.14V186Z" data-name="Path 1672"/>
</g>
<path transform="translate(-384.4 -164.92)" d="m409.67 172.91v1.028l-5.678 3.275v-1.028z" fill="#fff" data-name="Path 1673"/>
<path transform="translate(-383.69 -165.08)" d="m385.91 186.36l16.482-9.507v1.028l-16.482 9.507z" fill="#fff" data-name="Path 1674"/>
<path transform="translate(-384.08 -165.22)" d="m395.74 186.69l10.771-6.213v1.028l-10.771 6.213z" fill="#fff" data-name="Path 1675"/>
<path transform="translate(-383.69 -165.49)" d="m385.91 192.41l8.55-4.931v1.028l-8.55 4.932z" fill="#fff" data-name="Path 1676"/>
<g transform="translate(3.166 25.876)" data-name="Group 399">
<path transform="translate(-386.9 -191.53)" d="m386.9 197.66l10.629-6.131v1.028l-10.629 6.131z" fill="#fff" data-name="Path 1677"/>
</g>
<path transform="translate(-383.73 -165.84)" d="m392.68 196.39v1.028l-5.789 3.339v-1.028z" fill="#fff" data-name="Path 1678"/>
<path transform="translate(-384.61 -165.43)" d="m409.18 186.96l2.085-1.2v1.028l-2.085 1.2z" fill="#fff" data-name="Path 1679"/>
<g transform="translate(9.841 22.047)" fill="#fff" data-name="Group 400">
<path transform="translate(-393.84 -187.62)" d="m404.68 189.36v1.028l-10.83 6.247v-1.031z" data-name="Path 1680"/>
<path transform="translate(-394.32 -187.54)" d="m406.04 188.77l2.132-1.23v1.028l-2.132 1.23z" data-name="Path 1681"/>
</g>
<path transform="translate(-384.09 -165.57)" d="m395.93 196.33l11.845-6.832v1.028l-11.845 6.832z" fill="#fff" data-name="Path 1682"/>
</g>
</g>
</g>
<g transform="matrix(.966 -.259 .259 .966 148.42 101.78)" opacity=".2">
<g transform="translate(0)" data-name="Group 118">
<g transform="translate(0)" data-name="Group 117">
<path d="M101.921,59.128V42.793L89.988,40.8a39.966,39.966,0,0,0-4.256-10.246l7.04-9.856L81.218,9.151l-9.856,7.04a39.889,39.889,0,0,0-10.245-4.257L59.129,0H42.792L40.8,11.934a39.889,39.889,0,0,0-10.245,4.257L20.7,9.151,9.15,20.7l7.04,9.856A39.966,39.966,0,0,0,11.934,40.8L0,42.793V59.128l11.934,1.991A39.966,39.966,0,0,0,16.19,71.365L9.15,81.22,20.7,92.77l9.856-7.04A39.889,39.889,0,0,0,40.8,89.988l1.989,11.934H59.129l1.989-11.934A39.889,39.889,0,0,0,71.363,85.73l9.856,7.04L92.771,81.22l-7.04-9.856a39.966,39.966,0,0,0,4.256-10.246ZM86.178,58.8A35.785,35.785,0,0,1,81.4,70.313l-.77,1.209,6.6,9.238L80.76,87.226l-9.24-6.6-1.208.769A35.773,35.773,0,0,1,58.8,86.178l-1.4.311L55.532,97.674H46.389L44.525,86.489l-1.4-.311a35.773,35.773,0,0,1-11.517-4.784L30.4,80.625l-9.24,6.6L14.7,80.76l6.6-9.238-.77-1.209A35.785,35.785,0,0,1,15.743,58.8l-.31-1.4L4.247,55.533V46.388l11.186-1.864.31-1.4a35.785,35.785,0,0,1,4.783-11.517L21.3,30.4l-6.6-9.238L21.161,14.7l9.24,6.6,1.208-.769a35.773,35.773,0,0,1,11.517-4.784l1.4-.311L46.389,4.247h9.142L57.4,15.432l1.4.311a35.774,35.774,0,0,1,11.517,4.784l1.208.769,9.24-6.6,6.464,6.465-6.6,9.238.77,1.209a35.784,35.784,0,0,1,4.783,11.517l.31,1.4,11.186,1.864v9.145L86.488,57.4Z" fill="#fff" data-name="Path 501"/>
</g>
</g>
<g transform="translate(29.727 29.727)" data-name="Group 120">
<g transform="translate(0)" data-name="Group 119">
<path d="M21.234,0A21.234,21.234,0,1,0,42.467,21.234,21.258,21.258,0,0,0,21.234,0Zm0,38.22A16.987,16.987,0,1,1,38.22,21.234,17.006,17.006,0,0,1,21.234,38.22Z" fill="#fff" data-name="Path 502"/>
</g>
</g>
</g>
<g transform="matrix(.966 -.259 .259 .966 -82.575 118.78)" opacity=".2" data-name="gear">
<g transform="translate(0)" data-name="Group 118">
<g transform="translate(0)" data-name="Group 117">
<path d="M101.921,59.128V42.793L89.988,40.8a39.966,39.966,0,0,0-4.256-10.246l7.04-9.856L81.218,9.151l-9.856,7.04a39.889,39.889,0,0,0-10.245-4.257L59.129,0H42.792L40.8,11.934a39.889,39.889,0,0,0-10.245,4.257L20.7,9.151,9.15,20.7l7.04,9.856A39.966,39.966,0,0,0,11.934,40.8L0,42.793V59.128l11.934,1.991A39.966,39.966,0,0,0,16.19,71.365L9.15,81.22,20.7,92.77l9.856-7.04A39.889,39.889,0,0,0,40.8,89.988l1.989,11.934H59.129l1.989-11.934A39.889,39.889,0,0,0,71.363,85.73l9.856,7.04L92.771,81.22l-7.04-9.856a39.966,39.966,0,0,0,4.256-10.246ZM86.178,58.8A35.785,35.785,0,0,1,81.4,70.313l-.77,1.209,6.6,9.238L80.76,87.226l-9.24-6.6-1.208.769A35.773,35.773,0,0,1,58.8,86.178l-1.4.311L55.532,97.674H46.389L44.525,86.489l-1.4-.311a35.773,35.773,0,0,1-11.517-4.784L30.4,80.625l-9.24,6.6L14.7,80.76l6.6-9.238-.77-1.209A35.785,35.785,0,0,1,15.743,58.8l-.31-1.4L4.247,55.533V46.388l11.186-1.864.31-1.4a35.785,35.785,0,0,1,4.783-11.517L21.3,30.4l-6.6-9.238L21.161,14.7l9.24,6.6,1.208-.769a35.773,35.773,0,0,1,11.517-4.784l1.4-.311L46.389,4.247h9.142L57.4,15.432l1.4.311a35.774,35.774,0,0,1,11.517,4.784l1.208.769,9.24-6.6,6.464,6.465-6.6,9.238.77,1.209a35.784,35.784,0,0,1,4.783,11.517l.31,1.4,11.186,1.864v9.145L86.488,57.4Z" fill="#fff" data-name="Path 501"/>
</g>
</g>
<g transform="translate(29.727 29.727)" data-name="Group 120">
<g transform="translate(0)" data-name="Group 119">
<path d="M21.234,0A21.234,21.234,0,1,0,42.467,21.234,21.258,21.258,0,0,0,21.234,0Zm0,38.22A16.987,16.987,0,1,1,38.22,21.234,17.006,17.006,0,0,1,21.234,38.22Z" fill="#fff" data-name="Path 502"/>
</g>
</g>
</g>
<g transform="matrix(.966 -.259 .259 .966 107.42 -52.223)" opacity=".2" data-name="gear">
<g transform="translate(0)" data-name="Group 118">
<g transform="translate(0)" data-name="Group 117">
<path d="M101.921,59.128V42.793L89.988,40.8a39.966,39.966,0,0,0-4.256-10.246l7.04-9.856L81.218,9.151l-9.856,7.04a39.889,39.889,0,0,0-10.245-4.257L59.129,0H42.792L40.8,11.934a39.889,39.889,0,0,0-10.245,4.257L20.7,9.151,9.15,20.7l7.04,9.856A39.966,39.966,0,0,0,11.934,40.8L0,42.793V59.128l11.934,1.991A39.966,39.966,0,0,0,16.19,71.365L9.15,81.22,20.7,92.77l9.856-7.04A39.889,39.889,0,0,0,40.8,89.988l1.989,11.934H59.129l1.989-11.934A39.889,39.889,0,0,0,71.363,85.73l9.856,7.04L92.771,81.22l-7.04-9.856a39.966,39.966,0,0,0,4.256-10.246ZM86.178,58.8A35.785,35.785,0,0,1,81.4,70.313l-.77,1.209,6.6,9.238L80.76,87.226l-9.24-6.6-1.208.769A35.773,35.773,0,0,1,58.8,86.178l-1.4.311L55.532,97.674H46.389L44.525,86.489l-1.4-.311a35.773,35.773,0,0,1-11.517-4.784L30.4,80.625l-9.24,6.6L14.7,80.76l6.6-9.238-.77-1.209A35.785,35.785,0,0,1,15.743,58.8l-.31-1.4L4.247,55.533V46.388l11.186-1.864.31-1.4a35.785,35.785,0,0,1,4.783-11.517L21.3,30.4l-6.6-9.238L21.161,14.7l9.24,6.6,1.208-.769a35.773,35.773,0,0,1,11.517-4.784l1.4-.311L46.389,4.247h9.142L57.4,15.432l1.4.311a35.774,35.774,0,0,1,11.517,4.784l1.208.769,9.24-6.6,6.464,6.465-6.6,9.238.77,1.209a35.784,35.784,0,0,1,4.783,11.517l.31,1.4,11.186,1.864v9.145L86.488,57.4Z" fill="#fff" data-name="Path 501"/>
</g>
</g>
<g transform="translate(29.727 29.727)" data-name="Group 120">
<g transform="translate(0)" data-name="Group 119">
<path d="M21.234,0A21.234,21.234,0,1,0,42.467,21.234,21.258,21.258,0,0,0,21.234,0Zm0,38.22A16.987,16.987,0,1,1,38.22,21.234,17.006,17.006,0,0,1,21.234,38.22Z" fill="#fff" data-name="Path 502"/>
</g>
</g>
</g>
<g transform="translate(24.149 104.94)" data-name="Group 421">
<g transform="translate(0)" data-name="Group 115">
<g transform="translate(0)" data-name="Group 33">
<g transform="translate(51.814 122.14)" data-name="Group 28">
<g data-name="Group 25">
<path transform="translate(-136.14 -274.12)" d="m223.1 286.31-20.35-11.772a3.088 3.088 0 0 0 -3.092 0l-62.832 36.339a1.362 1.362 0 0 0 0 2.356l19.846 11.48a3.665 3.665 0 0 0 3.675 0l62.753-36.292a1.219 1.219 0 0 0 0 -2.111z" fill="#0f4463" data-name="Path 96"/>
<path transform="translate(-136.14 -267.35)" d="m223.1 281.65l-62.752 36.292a3.665 3.665 0 0 1 -3.675 0l-19.846-11.48a1.348 1.348 0 0 1 -0.677 -1.172v2.436a1.345 1.345 0 0 0 0.673 1.149l19.846 11.482a3.67 3.67 0 0 0 3.675 0l62.756-36.294a1.208 1.208 0 0 0 0.609 -1.063v-2.4a1.208 1.208 0 0 1 -0.609 1.05z" fill="#0b3b56" data-name="Path 97"/>
</g>
<g transform="translate(18.059 2.243)" fill="#1f5e77" data-name="Group 26">
<path transform="translate(-122.83 -275.22)" d="m171.61 276.7l-2.548-1.478-2.895 1.67 2.539 1.473z" data-name="Path 98"/>
<path transform="translate(-124.67 -274.16)" d="m169.84 277.72l-2.548-1.478-2.895 1.67 2.539 1.474z" data-name="Path 99"/>
<path transform="translate(-126.52 -273.1)" d="m168.08 278.73l-2.548-1.478-2.895 1.67 2.539 1.473z" data-name="Path 100"/>
<path transform="translate(-128.36 -272.04)" d="m166.31 279.75l-2.548-1.478-2.895 1.67 2.539 1.473z" data-name="Path 101"/>
<path transform="translate(-130.21 -270.97)" d="m164.54 280.76-2.545-1.478l-2.895 1.67 2.539 1.473z" data-name="Path 102"/>
<path transform="translate(-132.06 -269.91)" d="m162.78 281.78l-2.548-1.478-2.895 1.669 2.54 1.474z" data-name="Path 103"/>
<path transform="translate(-133.9 -268.85)" d="m161.01 282.8l-2.548-1.478-2.895 1.67 2.54 1.473z" data-name="Path 104"/>
<path transform="translate(-135.75 -267.78)" d="m159.25 283.82l-2.548-1.478-2.9 1.669 2.54 1.474z" data-name="Path 105"/>
<path transform="translate(-137.59 -266.72)" d="m157.48 284.83l-2.548-1.478-2.895 1.67 2.539 1.474z" data-name="Path 106"/>
<path transform="translate(-139.44 -265.66)" d="m155.72 285.85l-2.548-1.478-2.9 1.67 2.54 1.473z" data-name="Path 107"/>
<path transform="translate(-141.28 -264.6)" d="m153.95 286.86l-2.548-1.478-2.895 1.67 2.539 1.473z" data-name="Path 108"/>
<path transform="translate(-143.13 -263.54)" d="m152.18 287.88l-2.548-1.478-2.9 1.67 2.54 1.473z" data-name="Path 109"/>
<path transform="translate(-144.98 -262.47)" d="m147.87 287.42l-2.9 1.67 2.54 1.473 2.9-1.665z" data-name="Path 110"/>
<path transform="translate(-121.14 -274.25)" d="m170.32 279.3l2.9-1.665-2.548-1.478-2.9 1.67z" data-name="Path 111"/>
<path transform="translate(-122.99 -273.18)" d="m166.01 278.84l2.539 1.474 2.9-1.665-2.547-1.478z" data-name="Path 112"/>
<path transform="translate(-124.83 -272.12)" d="m164.25 279.86l2.539 1.473 2.9-1.665-2.547-1.478z" data-name="Path 113"/>
<path transform="translate(-126.68 -271.06)" d="m162.48 280.87l2.54 1.473 2.9-1.665-2.548-1.478z" data-name="Path 114"/>
<path transform="translate(-128.52 -270)" d="m160.71 281.89l2.54 1.474 2.9-1.666-2.548-1.478z" data-name="Path 115"/>
<path transform="translate(-130.37 -268.93)" d="m158.95 282.91l2.539 1.474 2.9-1.666-2.548-1.478z" data-name="Path 116"/>
<path transform="translate(-132.22 -267.87)" d="m157.18 283.92l2.54 1.473 2.9-1.665-2.548-1.478z" data-name="Path 117"/>
<path transform="translate(-134.06 -266.81)" d="m155.42 284.94l2.54 1.473 2.9-1.665-2.548-1.478z" data-name="Path 118"/>
<path transform="translate(-135.91 -265.75)" d="m153.65 285.96l2.539 1.473 2.9-1.665-2.548-1.478z" data-name="Path 119"/>
<path transform="translate(-137.75 -264.68)" d="m151.88 286.97l2.539 1.473 2.9-1.665-2.544-1.481z" data-name="Path 120"/>
<path transform="translate(-139.6 -263.62)" d="m150.12 287.99l2.54 1.473 2.9-1.665-2.548-1.478z" data-name="Path 121"/>
<path transform="translate(-141.44 -262.56)" d="m148.35 289.01l2.54 1.474 2.9-1.665-2.548-1.478z" data-name="Path 122"/>
<path transform="translate(-143.29 -261.5)" d="m149.48 288.35l-2.895 1.67 2.54 1.474 2.9-1.666z" data-name="Path 123"/>
<path transform="translate(-119.46 -273.27)" d="m171.93 280.23l2.9-1.665-2.548-1.478-2.9 1.67z" data-name="Path 124"/>
<path transform="translate(-121.3 -272.21)" d="m167.62 279.78l2.539 1.474 2.9-1.665-2.548-1.478z" data-name="Path 125"/>
<path transform="translate(-123.15 -271.14)" d="m171.3 280.6l-2.547-1.478-2.9 1.67 2.539 1.473z" data-name="Path 126"/>
<path transform="translate(-125 -270.08)" d="m164.09 281.81l2.539 1.473 2.9-1.665-2.547-1.478z" data-name="Path 127"/>
<path transform="translate(-126.84 -269.02)" d="m162.33 282.82l2.539 1.473 2.9-1.665-2.548-1.478z" data-name="Path 128"/>
<path transform="translate(-128.69 -267.96)" d="m160.56 283.84l2.54 1.473 2.9-1.665-2.548-1.478z" data-name="Path 129"/>
<path transform="translate(-130.53 -266.9)" d="m158.79 284.86l2.539 1.473 2.9-1.665-2.548-1.478z" data-name="Path 130"/>
<path transform="translate(-132.38 -265.83)" d="m157.03 285.87l2.54 1.474 2.9-1.665-2.548-1.478z" data-name="Path 131"/>
<path transform="translate(-134.22 -264.77)" d="m155.26 286.89l2.539 1.473 2.9-1.665-2.548-1.478z" data-name="Path 132"/>
<path transform="translate(-136.07 -263.71)" d="m153.5 287.91l2.539 1.473 2.9-1.665-2.548-1.478z" data-name="Path 133"/>
<path transform="translate(-137.91 -262.65)" d="m151.73 288.92l2.54 1.474 2.9-1.666-2.548-1.478z" data-name="Path 134"/>
<path transform="translate(-139.76 -261.58)" d="m155.41 289.75l-2.548-1.478-2.895 1.67 2.54 1.473z" data-name="Path 135"/>
<path transform="translate(-141.61 -260.52)" d="m151.09 289.29l-2.895 1.67 2.539 1.473 2.9-1.665z" data-name="Path 136"/>
<path transform="translate(-117.77 -272.29)" d="m173.54 281.17l2.9-1.665-2.548-1.478-2.893 1.669z" data-name="Path 137"/>
<path transform="translate(-119.62 -271.23)" d="m174.68 280.52l-2.548-1.478-2.895 1.669 2.54 1.474z" data-name="Path 138"/>
<path transform="translate(-121.46 -270.17)" d="m172.91 281.53l-2.548-1.478-2.895 1.67 2.539 1.473z" data-name="Path 139"/>
<path transform="translate(-123.31 -269.11)" d="m171.15 282.55l-2.548-1.478-2.895 1.67 2.539 1.474z" data-name="Path 140"/>
<path transform="translate(-125.16 -268.04)" d="m169.38 283.57l-2.547-1.478-2.9 1.67 2.54 1.474z" data-name="Path 141"/>
<path transform="translate(-127 -266.98)" d="m167.62 284.58l-2.548-1.478-2.895 1.67 2.54 1.473z" data-name="Path 142"/>
<path transform="translate(-128.85 -265.92)" d="m165.85 285.6l-2.548-1.478-2.895 1.67 2.54 1.473z" data-name="Path 143"/>
<path transform="translate(-130.69 -264.86)" d="m164.08 286.62l-2.548-1.478-2.895 1.67 2.54 1.474z" data-name="Path 144"/>
<path transform="translate(-132.54 -263.8)" d="m162.32 287.63l-2.548-1.478-2.895 1.67 2.54 1.473z" data-name="Path 145"/>
<path transform="translate(-134.38 -262.73)" d="m160.55 288.65-2.551-1.478l-2.895 1.67 2.539 1.473z" data-name="Path 146"/>
<path transform="translate(-136.23 -261.67)" d="m158.78 289.66l-2.548-1.478-2.9 1.67 2.54 1.473z" data-name="Path 147"/>
<path transform="translate(-138.08 -260.61)" d="m157.02 290.68l-2.548-1.478-2.895 1.67 2.539 1.473z" data-name="Path 148"/>
<path transform="translate(-139.92 -259.54)" d="m152.71 290.22l-2.895 1.67 2.539 1.473 2.9-1.665z" data-name="Path 149"/>
<path transform="translate(-116.09 -271.32)" d="m175.15 282.1l2.9-1.665-2.548-1.478-2.895 1.67z" data-name="Path 150"/>
<path transform="translate(-117.93 -270.26)" d="m176.29 281.45l-2.548-1.478-2.895 1.67 2.539 1.473z" data-name="Path 151"/>
<path transform="translate(-119.78 -269.19)" d="m174.52 282.47l-2.547-1.478-2.895 1.67 2.539 1.474z" data-name="Path 152"/>
<path transform="translate(-121.62 -268.13)" d="m172.76 283.48l-2.548-1.478-2.895 1.67 2.539 1.473z" data-name="Path 153"/>
<path transform="translate(-123.47 -267.07)" d="m170.99 284.5l-2.548-1.478-2.895 1.67 2.539 1.473z" data-name="Path 154"/>
<path transform="translate(-125.32 -266.01)" d="m169.23 285.52l-2.548-1.478-2.895 1.67 2.539 1.474z" data-name="Path 155"/>
<path transform="translate(-127.16 -264.94)" d="m167.46 286.53l-2.548-1.478-2.895 1.67 2.54 1.474z" data-name="Path 156"/>
<path transform="translate(-129.01 -263.88)" d="m165.7 287.55l-2.548-1.478-2.895 1.669 2.539 1.474z" data-name="Path 157"/>
<path transform="translate(-130.85 -262.82)" d="m163.93 288.57l-2.548-1.478-2.895 1.67 2.54 1.473z" data-name="Path 158"/>
<path transform="translate(-132.7 -261.76)" d="m162.16 289.58l-2.548-1.478-2.9 1.67 2.54 1.474z" data-name="Path 159"/>
<path transform="translate(-134.54 -260.69)" d="m160.4 290.6l-2.548-1.478-2.895 1.67 2.54 1.473z" data-name="Path 160"/>
<path transform="translate(-136.39 -259.63)" d="m158.63 291.62l-2.548-1.478-2.9 1.67 2.54 1.473z" data-name="Path 161"/>
<path transform="translate(-138.24 -258.57)" d="m154.32 291.15l-2.9 1.67 2.54 1.473 2.9-1.665z" data-name="Path 162"/>
<path transform="translate(-114.4 -270.34)" d="m177.12 279.89l-2.895 1.669 2.54 1.474 2.9-1.665z" data-name="Path 163"/>
<path transform="translate(-116.25 -269.28)" d="m172.46 282.58 2.541 1.473l2.9-1.665-2.548-1.478z" data-name="Path 164"/>
<path transform="translate(-118.1 -268.22)" d="m170.69 283.59l2.539 1.473 2.9-1.665-2.548-1.478z" data-name="Path 165"/>
<path transform="translate(-119.94 -267.16)" d="m168.93 284.61l2.54 1.473 2.9-1.665-2.547-1.478z" data-name="Path 166"/>
<path transform="translate(-121.79 -266.09)" d="m167.16 285.63l2.54 1.473 2.9-1.665-2.547-1.478z" data-name="Path 167"/>
<path transform="translate(-123.63 -265.03)" d="m165.4 286.64l2.539 1.473 2.9-1.665-2.548-1.478z" data-name="Path 168"/>
<path transform="translate(-132.86 -263.97)" d="m173.91 285.99l-3.611 2.079-0.711 0.41-2.9 1.67-1.472 0.849-2.137 1.231-2.28 1.315-4.227 2.434 2.539 1.473 4.418-2.542 2.1-1.2 2.2-1.265 1.416-0.812 2.856-1.643 0.758-0.434 3.612-2.079z" data-name="Path 169"/>
<path transform="translate(-134.71 -258.66)" d="m154.8 292.74l2.54 1.474 2.9-1.665-2.548-1.478z" data-name="Path 170"/>
<path transform="translate(-136.55 -257.59)" d="m153.03 293.76l2.54 1.473 2.9-1.665-2.548-1.478z" data-name="Path 171"/>
</g>
<g transform="translate(3.614 31.344)" fill="#1f5e77" data-name="Group 27">
<path transform="translate(-134.22 -289.45)" d="m146.89 290.93l-2.547-1.478-2.895 1.67 2.539 1.473z" data-name="Path 172"/>
<path transform="translate(-136.07 -288.39)" d="m145.12 291.94l-2.548-1.478-2.895 1.67 2.539 1.474z" data-name="Path 173"/>
<path transform="translate(-137.91 -287.33)" d="m143.36 292.96l-2.548-1.478-2.895 1.67 2.54 1.474z" data-name="Path 174"/>
<path transform="translate(-132.54 -288.48)" d="m143.06 292.05l2.539 1.473 2.9-1.665-2.548-1.478z" data-name="Path 175"/>
<path transform="translate(-134.38 -287.41)" d="m141.29 293.07l2.539 1.474 2.9-1.666-2.548-1.478z" data-name="Path 176"/>
<path transform="translate(-136.23 -286.35)" d="m139.52 294.09l2.54 1.473 2.9-1.665-2.548-1.478z" data-name="Path 177"/>
<path transform="translate(-130.85 -287.5)" d="m144.67 292.99l2.54 1.473 2.9-1.665-2.548-1.478z" data-name="Path 178"/>
<path transform="translate(-132.7 -286.44)" d="m142.9 294l2.539 1.473 2.9-1.665-2.547-1.478z" data-name="Path 179"/>
<path transform="translate(-134.54 -285.37)" d="m141.14 295.02l2.539 1.473 2.9-1.665-2.548-1.478z" data-name="Path 180"/>
<path transform="translate(-129.17 -286.52)" d="m151.72 293.73l-2.548-1.478-2.9 1.67 2.54 1.474z" data-name="Path 181"/>
<path transform="translate(-131.01 -285.46)" d="m149.96 294.75l-2.548-1.478-2.9 1.67 2.539 1.473z" data-name="Path 182"/>
<path transform="translate(-132.86 -284.4)" d="m148.19 295.76l-2.548-1.478-2.9 1.67 2.54 1.473z" data-name="Path 183"/>
<path transform="translate(-127.48 -285.55)" d="m153.33 294.66l-2.548-1.478-2.895 1.67 2.539 1.473z" data-name="Path 184"/>
<path transform="translate(-129.33 -284.48)" d="m151.57 295.68-2.548-1.48l-2.895 1.67 2.54 1.474z" data-name="Path 185"/>
<path transform="translate(-131.17 -283.42)" d="m149.8 296.7l-2.548-1.478-2.895 1.67 2.54 1.474z" data-name="Path 186"/>
<path transform="translate(-125.8 -284.57)" d="m149.5 295.79l2.539 1.473 2.9-1.665-2.547-1.478z" data-name="Path 187"/>
<path transform="translate(-127.64 -283.51)" d="m147.74 296.8l2.539 1.473 2.9-1.666-2.548-1.478z" data-name="Path 188"/>
</g>
</g>
<g transform="translate(22.783 102.81)" data-name="Group 29">
<path transform="translate(-121.95 -264.67)" d="m192.8 276.66l-20.014-11.619a2.738 2.738 0 0 0 -2.743 0l-47.487 27.408a1.208 1.208 0 0 0 0 2.09l19.57 11.359a3.252 3.252 0 0 0 3.26 0l47.413-27.367a1.082 1.082 0 0 0 1e-3 -1.871z" fill="#1f5e77" data-name="Path 189"/>
<path transform="translate(-121.95 -258.07)" d="m192.79 271.93-47.413 27.372a3.253 3.253 0 0 1 -3.26 0l-19.57-11.359a1.194 1.194 0 0 1 -0.6 -1.039v2.456a1.19 1.19 0 0 0 0.6 1.019l19.57 11.361a3.252 3.252 0 0 0 3.26 0l47.414-27.369a1.071 1.071 0 0 0 0.54 -0.943v-2.426a1.064 1.064 0 0 1 -0.541 0.928z" fill="#07304b" data-name="Path 190"/>
<path transform="translate(-110.74 -258.07)" d="M181.581,271.928,134.168,299.3a3.241,3.241,0,0,1-1.489.427v2.438a3.236,3.236,0,0,0,1.489-.425l47.413-27.369a1.071,1.071,0,0,0,.54-.943h0V271A1.064,1.064,0,0,1,181.581,271.928Z" fill="#0b3b56" data-name="Path 191"/>
</g>
<g transform="translate(36.555 92.326)" data-name="Group 30">
<path transform="translate(-126.05 -258.04)" d="m131.2 282.35l36.908-21.357v18.285l-36.908 21.342z" fill="#0f4463" data-name="Path 192"/>
<path transform="translate(-128.68 -259.55)" d="m165.6 259.55l5.139 2.949-36.908 21.357-5.151-2.957z" fill="#07304b" data-name="Path 193"/>
<path transform="translate(-128.68 -248.64)" d="m128.68 269.98l5.151 2.957v18.27l-5.151-2.992z" fill="#07304b" data-name="Path 194"/>
</g>
<g data-name="Group 32">
<g data-name="Group 31">
<path transform="translate(-108.9 -213.27)" d="m224.82 215.49-112.19 65.068v82.556l112.18-65.328z" fill="#3a3a3a" data-name="Path 195"/>
<path transform="translate(-110.81 -181.18)" d="m114.54 248.46l-3.73-2.266v82.556l3.733 2.266z" fill="#07304b" data-name="Path 196"/>
<path transform="translate(-110.81 -214.4)" d="m226.73 216.62l-3.82-2.214-112.1 65.016 3.73 2.266z" fill="#1f5e77" data-name="Path 197"/>
</g>
<path transform="translate(-108.9 -213.27)" d="m112.63 280.55v82.556l112.19-65.327v-82.3zm2.657 1.532l106.88-61.985v76.156l-106.87 62.233z" fill="#0b3b56" data-name="Path 198"/>
</g>
</g>
<g transform="translate(9.437 14.183)" data-name="Group 95">
<g transform="translate(23.116 5.178)" data-name="Group 67">
<path transform="translate(-95.957 -223.87)" d="m165.36 223.87v2.189l-9.2 5.3v-2.189z" fill="#f5d012" data-name="Path 247"/>
<path transform="translate(-95.957 -221.83)" d="m165.36 225.83v2.189l-9.2 5.3v-2.185z" fill="#edf0f8" data-name="Path 248"/>
<path transform="translate(-95.957 -219.78)" d="m165.36 227.78v2.189l-9.2 5.3v-2.19z" fill="#edf0f8" data-name="Path 249"/>
<path transform="translate(-126.73 -214.01)" d="m126.73 268.23v-2.19l56.76-32.739v2.189z" fill="#edf0f8" data-name="Path 250"/>
<path transform="translate(-95.957 -217.74)" d="m165.36 229.74v2.189l-9.2 5.3v-2.19z" fill="#edf0f8" data-name="Path 251"/>
<path transform="translate(-95.957 -215.7)" d="M165.364,231.692v2.189l-9.2,5.3V237Z" fill="#edf0f8" data-name="Path 252"/>
<path transform="translate(-126.73 -211.97)" d="M126.727,270.187V268l56.76-32.739v2.19Z" fill="#ebf2eb" data-name="Path 253"/>
<path transform="translate(-95.957 -209.56)" d="m165.36 237.56v2.19l-9.2 5.3v-2.189z" fill="#edf0f8" data-name="Path 254"/>
<path transform="translate(-95.957 -207.52)" d="m165.36 239.51v2.186l-9.2 5.3v-2.19z" fill="#f5d012" data-name="Path 255"/>
<path transform="translate(-95.957 -199.34)" d="m165.36 247.34v2.189l-9.2 5.3v-2.189z" fill="#edf0f8" data-name="Path 256"/>
<path transform="translate(-95.957 -197.3)" d="m165.36 249.29v2.189l-9.2 5.3v-2.18z" fill="#edf0f8" data-name="Path 257"/>
<g transform="translate(0 59.286)" data-name="Group 61">
<path transform="translate(-116.02 -252.86)" d="m136.97 273.51l35.808-20.654v2.189l-35.808 20.653z" fill="#ebf2eb" data-name="Path 258"/>
<path transform="translate(-126.73 -241.75)" d="m145.79 263.49v2.189l-19.064 11v-2.189z" fill="#edf0f8" data-name="Path 259"/>
</g>
<g transform="translate(0 55.287)" fill="#edf0f8" data-name="Group 62">
<path transform="translate(-106.91 -250.9)" d="m145.68 261.28l17.99-10.377v2.189l-17.99 10.377z" data-name="Path 260"/>
<path transform="translate(-126.73 -245.04)" d="m163.61 256.51v2.191l-36.882 21.273v-2.189z" data-name="Path 261"/>
</g>
<path transform="translate(-126.73 -186.45)" d="m131.58 259.68v2.189l-4.852 2.8v-2.189z" fill="#edf0f8" data-name="Path 262"/>
<path transform="translate(-110.75 -203.79)" d="m142.01 257.79l25.5-14.711v2.189l-25.5 14.711z" fill="#ed5561" data-name="Path 263"/>
<path transform="translate(-105.41 -220.14)" d="m147.12 236.12l15.054-8.683v2.189l-15.054 8.683z" fill="#edf0f8" data-name="Path 264"/>
<g transform="translate(17.031 17.066)" data-name="Group 63">
<path transform="translate(-135.05 -232.22)" d="m135.05 245.36l22.788-13.144v2.185l-22.788 13.144z" fill="#edf0f8" data-name="Path 265"/>
</g>
<path transform="translate(-111.24 -215.03)" d="m141.55 241.58l16.044-9.254v2.189l-16.044 9.254z" fill="#edf0f8" data-name="Path 266"/>
<g transform="translate(0 27.638)" data-name="Group 64">
<path transform="translate(-119.84 -237.38)" d="m133.32 246l14.946-8.621v2.189l-14.946 8.621z" fill="#ed5561" data-name="Path 267"/>
<path transform="translate(-126.73 -232.42)" d="m138.32 242.13v2.189l-11.591 6.686v-2.19z" fill="#edf0f8" data-name="Path 268"/>
</g>
<path transform="translate(-105.41 -215.18)" d="m159.21 232.18v2.189l-12.088 6.973v-2.189z" fill="#ed5561" data-name="Path 269"/>
<path transform="translate(-124.31 -211.06)" d="m129.04 256.36l35.089-20.24v2.189l-35.089 20.24z" fill="#edf0f8" data-name="Path 270"/>
<path transform="translate(-114.04 -207.27)" d="m138.86 252.98l22.931-13.227v2.19l-22.931 13.227z" fill="#edf0f8" data-name="Path 271"/>
<path transform="translate(-124.31 -199.95)" d="m129.04 257.25l18.2-10.5v2.189l-18.2 10.5z" fill="#edf0f8" data-name="Path 272"/>
<g transform="translate(6.739 55.089)" data-name="Group 65">
<path transform="translate(-130.02 -250.81)" d="m130.02 263.86l22.629-13.053v2.195l-22.629 13.053z" fill="#edf0f8" data-name="Path 273"/>
</g>
<path transform="translate(-123.28 -190.64)" d="m142.35 255.67v2.189l-12.325 7.109v-2.189z" fill="#50e85e" data-name="Path 274"/>
<path transform="translate(-99.989 -201.75)" d="m152.31 247.6l4.438-2.56v2.19l-4.438 2.56z" fill="#edf0f8" data-name="Path 275"/>
<g transform="translate(20.951 46.937)" fill="#edf0f8" data-name="Group 66">
<path transform="translate(-136.97 -244.93)" d="m160.03 248.63v2.189l-23.056 13.3v-2.19z" data-name="Path 276"/>
<path transform="translate(-124.22 -246.82)" d="m149.17 249.44l4.539-2.618v2.189l-4.539 2.618z" data-name="Path 277"/>
</g>
<path transform="translate(-113.84 -197.84)" d="m139.06 263.32l25.217-14.545v2.189l-25.217 14.545z" fill="#edf0f8" data-name="Path 278"/>
</g>
<g transform="translate(0 47.541)" data-name="Group 74">
<path transform="translate(-106.95 -244.58)" d="m126.07 244.58v0.6l-2.534 1.462v-0.6z" fill="#edf0f8" data-name="Path 279"/>
<path transform="translate(-106.95 -244.02)" d="m126.07 245.12v0.6l-2.534 1.462v-0.6z" fill="#edf0f8" data-name="Path 280"/>
<path transform="translate(-106.95 -243.46)" d="m126.07 245.66v0.6l-2.534 1.462v-0.6z" fill="#edf0f8" data-name="Path 281"/>
<path transform="translate(-115.42 -241.87)" d="m115.42 256.81v-0.6l15.639-9.021v0.6z" fill="#edf0f8" data-name="Path 282"/>
<path transform="translate(-106.95 -242.89)" d="M126.071,246.2v.6l-2.534,1.462v-.6Z" fill="#edf0f8" data-name="Path 283"/>
<path transform="translate(-106.95 -242.33)" d="m126.07 246.74v0.6l-2.534 1.462v-0.6z" fill="#edf0f8" data-name="Path 284"/>
<path transform="translate(-115.42 -241.3)" d="m115.42 257.35v-0.6l15.639-9.021v0.6z" fill="#edf0f8" data-name="Path 285"/>
<path transform="translate(-106.95 -240.64)" d="m126.07 248.36v0.6l-2.534 1.461v-0.6z" fill="#edf0f8" data-name="Path 286"/>
<path transform="translate(-106.95 -240.08)" d="m126.07 248.89v0.6l-2.534 1.462v-0.6z" fill="#edf0f8" data-name="Path 287"/>
<path transform="translate(-106.95 -237.83)" d="m126.07 251.05v0.6l-2.534 1.462v-0.6z" fill="#edf0f8" data-name="Path 288"/>
<path transform="translate(-106.95 -237.26)" d="m126.07 251.59v0.6l-2.534 1.462v-0.6z" fill="#edf0f8" data-name="Path 289"/>
<g transform="translate(0 16.336)" fill="#edf0f8" data-name="Group 68">
<path transform="translate(-112.47 -252.57)" d="m118.25 258.26l9.867-5.691v0.6l-9.867 5.691z" data-name="Path 290"/>
<path transform="translate(-115.42 -249.51)" d="M120.678,255.5v.6l-5.253,3.03v-.6Z" data-name="Path 291"/>
</g>
<g transform="translate(0 15.234)" fill="#edf0f8" data-name="Group 69">
<path transform="translate(-109.96 -252.03)" d="m120.65 254.89l4.957-2.859v0.6l-4.957 2.859z" data-name="Path 292"/>
<path transform="translate(-115.42 -250.42)" d="m125.59 253.58v0.6l-10.162 5.862v-0.6z" data-name="Path 293"/>
</g>
<path transform="translate(-115.42 -234.27)" d="M116.761,254.449v.6l-1.337.771v-.6Z" fill="#edf0f8" data-name="Path 294"/>
<path transform="translate(-111.02 -239.05)" d="m119.64 253.93l7.027-4.053v0.6l-7.027 4.053z" fill="#edf0f8" data-name="Path 295"/>
<path transform="translate(-109.55 -243.56)" d="m121.04 247.96l4.148-2.392v0.6l-4.148 2.393z" fill="#edf0f8" data-name="Path 296"/>
<g transform="translate(4.693 4.702)" data-name="Group 70">
<path transform="translate(-117.72 -246.88)" d="m117.72 250.5 6.281-3.617v0.6l-6.279 3.622z" fill="#edf0f8" data-name="Path 297"/>
</g>
<path transform="translate(-111.16 -242.15)" d="m119.51 249.46l4.421-2.55v0.6l-4.421 2.55z" fill="#edf0f8" data-name="Path 298"/>
<g transform="translate(0 7.615)" fill="#edf0f8" data-name="Group 71">
<path transform="translate(-113.53 -248.31)" d="m117.24 250.68l4.118-2.375v0.6l-4.118 2.375z" data-name="Path 299"/>
<path transform="translate(-115.42 -246.94)" d="m118.62 249.62v0.6l-3.194 1.842v-0.6z" data-name="Path 300"/>
</g>
<path transform="translate(-109.55 -242.19)" d="m124.37 246.87v0.6l-3.331 1.921v-0.6z" fill="#edf0f8" data-name="Path 301"/>
<path transform="translate(-114.76 -241.05)" d="m116.06 253.54l9.668-5.577v0.6l-9.668 5.577z" fill="#edf0f8" data-name="Path 302"/>
<path transform="translate(-111.93 -240.01)" d="m118.77 252.6l6.319-3.645v0.6l-6.319 3.645z" fill="#edf0f8" data-name="Path 303"/>
<path transform="translate(-114.76 -237.99)" d="m116.06 253.78l5.015-2.893v0.6l-5.015 2.893z" fill="#edf0f8" data-name="Path 304"/>
<g transform="translate(1.857 15.179)" data-name="Group 72">
<path transform="translate(-116.33 -252)" d="m116.33 255.6l6.235-3.6v0.6l-6.235 3.6z" fill="#edf0f8" data-name="Path 305"/>
</g>
<path transform="translate(-114.48 -235.43)" d="m119.73 253.34v0.6l-3.4 1.959v-0.6z" fill="#edf0f8" data-name="Path 306"/>
<path transform="translate(-108.06 -238.49)" d="M122.474,251.121l1.223-.705v.6l-1.223.705Z" fill="#edf0f8" data-name="Path 307"/>
<g transform="translate(5.773 12.933)" fill="#edf0f8" data-name="Group 73">
<path transform="translate(-118.25 -250.38)" d="M124.6,251.407v.6l-6.353,3.664v-.6Z" data-name="Path 308"/>
<path transform="translate(-114.74 -250.91)" d="M121.608,251.629l1.251-.721v.6l-1.251.721Z" data-name="Path 309"/>
</g>
<path transform="translate(-111.87 -237.41)" d="m118.82 255.45l6.948-4.008v0.6l-6.948 4.008z" fill="#edf0f8" data-name="Path 310"/>
</g>
<g transform="translate(0 66.187)" data-name="Group 81">
<path transform="translate(-106.95 -253.7)" d="M126.071,253.7v.6l-2.534,1.462v-.6Z" fill="#edf0f8" data-name="Path 311"/>
<path transform="translate(-106.95 -253.14)" d="m126.07 254.24v0.6l-2.534 1.462v-0.6z" fill="#edf0f8" data-name="Path 312"/>
<path transform="translate(-106.95 -252.57)" d="m126.07 254.78v0.6l-2.534 1.462v-0.6z" fill="#edf0f8" data-name="Path 313"/>
<path transform="translate(-115.42 -250.98)" d="m115.42 265.92v-0.6l15.639-9.021v0.6z" fill="#edf0f8" data-name="Path 314"/>
<path transform="translate(-106.95 -252.01)" d="m126.07 255.32v0.6l-2.534 1.462v-0.6z" fill="#edf0f8" data-name="Path 315"/>
<path transform="translate(-106.95 -251.45)" d="m126.07 255.86v0.6l-2.534 1.462v-0.6z" fill="#edf0f8" data-name="Path 316"/>
<path transform="translate(-115.42 -250.42)" d="m115.42 266.46v-0.6l15.639-9.021v0.6z" fill="#edf0f8" data-name="Path 317"/>
<path transform="translate(-106.95 -249.76)" d="m126.07 257.47v0.6l-2.534 1.462v-0.6z" fill="#edf0f8" data-name="Path 318"/>
<path transform="translate(-106.95 -249.2)" d="m126.07 258.01v0.6l-2.534 1.462v-0.6z" fill="#edf0f8" data-name="Path 319"/>
<path transform="translate(-106.95 -246.94)" d="m126.07 260.17v0.6l-2.534 1.462v-0.6z" fill="#edf0f8" data-name="Path 320"/>
<path transform="translate(-106.95 -246.38)" d="m126.07 260.7v0.6l-2.534 1.462v-0.6z" fill="#edf0f8" data-name="Path 321"/>
<g transform="translate(0 16.336)" fill="#edf0f8" data-name="Group 75">
<path transform="translate(-112.47 -261.69)" d="m118.25 267.38l9.867-5.691v0.6l-9.867 5.691z" data-name="Path 322"/>
<path transform="translate(-115.42 -258.63)" d="m120.68 264.62v0.6l-5.253 3.03v-0.6z" data-name="Path 323"/>
</g>
<g transform="translate(0 15.234)" fill="#edf0f8" data-name="Group 76">
<path transform="translate(-109.96 -261.15)" d="m120.65 264.01l4.957-2.859v0.6l-4.957 2.859z" data-name="Path 324"/>
<path transform="translate(-115.42 -259.54)" d="m125.59 262.69v0.6l-10.162 5.862v-0.6z" data-name="Path 325"/>
</g>
<path transform="translate(-115.42 -243.39)" d="M116.761,263.567v.6l-1.337.771v-.6Z" fill="#edf0f8" data-name="Path 326"/>
<path transform="translate(-111.02 -248.17)" d="m119.64 263.05l7.027-4.053v0.6l-7.027 4.054z" fill="#edf0f8" data-name="Path 327"/>
<path transform="translate(-109.55 -252.67)" d="m121.04 257.08l4.148-2.392v0.6l-4.148 2.392z" fill="#edf0f8" data-name="Path 328"/>
<g transform="translate(4.693 4.703)" data-name="Group 77">
<path transform="translate(-117.72 -256)" d="M117.719,259.622,124,256v.6l-6.279,3.622Z" fill="#edf0f8" data-name="Path 329"/>
</g>
<path transform="translate(-111.16 -251.26)" d="m119.51 258.58l4.421-2.55v0.6l-4.421 2.55z" fill="#edf0f8" data-name="Path 330"/>
<g transform="translate(0 7.615)" fill="#edf0f8" data-name="Group 78">
<path transform="translate(-113.53 -257.42)" d="M117.24,259.8l4.118-2.375v.6L117.24,260.4Z" data-name="Path 331"/>
<path transform="translate(-115.42 -256.06)" d="m118.62 258.73v0.6l-3.194 1.842v-0.6z" data-name="Path 332"/>
</g>
<path transform="translate(-109.55 -251.31)" d="m124.37 255.99v0.6l-3.331 1.921v-0.6z" fill="#edf0f8" data-name="Path 333"/>
<path transform="translate(-114.76 -250.17)" d="m116.06 262.65l9.668-5.577v0.6l-9.668 5.577z" fill="#edf0f8" data-name="Path 334"/>
<path transform="translate(-111.93 -249.13)" d="m118.77 261.72l6.319-3.645v0.6l-6.319 3.645z" fill="#edf0f8" data-name="Path 335"/>
<path transform="translate(-114.76 -247.11)" d="m116.06 262.9l5.015-2.893v0.6l-5.015 2.893z" fill="#edf0f8" data-name="Path 336"/>
<g transform="translate(1.857 15.179)" data-name="Group 79">
<path transform="translate(-116.33 -261.12)" d="m116.33 264.72l6.235-3.6v0.6l-6.235 3.6z" fill="#edf0f8" data-name="Path 337"/>
</g>
<path transform="translate(-114.48 -244.54)" d="m119.73 262.46v0.6l-3.4 1.959v-0.6z" fill="#edf0f8" data-name="Path 338"/>
<path transform="translate(-108.06 -247.6)" d="M122.474,260.238l1.223-.705v.6l-1.223.705Z" fill="#edf0f8" data-name="Path 339"/>
<g transform="translate(5.773 12.933)" fill="#edf0f8" data-name="Group 80">
<path transform="translate(-118.25 -259.5)" d="M124.6,260.524v.6l-6.353,3.664v-.6Z" data-name="Path 340"/>
<path transform="translate(-114.74 -260.02)" d="M121.608,260.745l1.251-.721v.6l-1.251.721Z" data-name="Path 341"/>
</g>
<path transform="translate(-111.87 -246.53)" d="m118.82 264.57l6.948-4.008v0.6l-6.948 4.008z" fill="#edf0f8" data-name="Path 342"/>
</g>
<g transform="translate(0 84.833)" data-name="Group 88">
<path transform="translate(-106.95 -262.82)" d="m126.07 262.82v0.6l-2.534 1.462v-0.6z" fill="#edf0f8" data-name="Path 343"/>
<path transform="translate(-106.95 -262.25)" d="m126.07 263.36v0.6l-2.534 1.462v-0.6z" fill="#edf0f8" data-name="Path 344"/>
<path transform="translate(-106.95 -261.69)" d="M126.071,263.9v.6l-2.534,1.462v-.6Z" fill="#edf0f8" data-name="Path 345"/>
<path transform="translate(-115.42 -260.1)" d="m115.42 275.04v-0.6l15.639-9.021v0.6z" fill="#edf0f8" data-name="Path 346"/>
<path transform="translate(-106.95 -261.13)" d="m126.07 264.43v0.6l-2.534 1.462v-0.6z" fill="#edf0f8" data-name="Path 347"/>
<path transform="translate(-106.95 -260.56)" d="m126.07 264.97v0.6l-2.534 1.462v-0.6z" fill="#edf0f8" data-name="Path 348"/>
<path transform="translate(-115.42 -259.54)" d="M115.425,275.58v-.6l15.639-9.021v.6Z" fill="#edf0f8" data-name="Path 349"/>
<path transform="translate(-106.95 -258.88)" d="m126.07 266.59v0.6l-2.534 1.462v-0.6z" fill="#edf0f8" data-name="Path 350"/>
<path transform="translate(-106.95 -258.31)" d="m126.07 267.13v0.6l-2.534 1.461v-0.6z" fill="#edf0f8" data-name="Path 351"/>
<path transform="translate(-106.95 -256.06)" d="m126.07 269.28v0.6l-2.534 1.462v-0.6z" fill="#edf0f8" data-name="Path 352"/>
<path transform="translate(-106.95 -255.5)" d="m126.07 269.82v0.6l-2.534 1.462v-0.6z" fill="#edf0f8" data-name="Path 353"/>
<g transform="translate(0 16.336)" fill="#edf0f8" data-name="Group 82">
<path transform="translate(-112.47 -270.8)" d="m118.25 276.5l9.867-5.691v0.6l-9.867 5.691z" data-name="Path 354"/>
<path transform="translate(-115.42 -267.74)" d="m120.68 273.73v0.6l-5.253 3.03v-0.6z" data-name="Path 355"/>
</g>
<g transform="translate(0 15.234)" fill="#edf0f8" data-name="Group 83">
<path transform="translate(-109.96 -270.27)" d="m120.65 273.13l4.957-2.859v0.6l-4.957 2.859z" data-name="Path 356"/>
<path transform="translate(-115.42 -268.65)" d="m125.59 271.81v0.6l-10.162 5.862v-0.6z" data-name="Path 357"/>
</g>
<path transform="translate(-115.42 -252.51)" d="M116.761,272.684v.6l-1.337.771v-.6Z" fill="#edf0f8" data-name="Path 358"/>
<path transform="translate(-111.02 -257.28)" d="m119.64 272.16l7.027-4.053v0.6l-7.027 4.053z" fill="#edf0f8" data-name="Path 359"/>
<path transform="translate(-109.55 -261.79)" d="m121.04 266.19l4.148-2.392v0.6l-4.148 2.392z" fill="#edf0f8" data-name="Path 360"/>
<g transform="translate(4.693 4.703)" data-name="Group 84">
<path transform="translate(-117.72 -265.12)" d="m117.72 268.74 6.281-3.622v0.6l-6.279 3.622z" fill="#edf0f8" data-name="Path 361"/>
</g>
<path transform="translate(-111.16 -260.38)" d="m119.51 267.7l4.421-2.55v0.6l-4.421 2.55z" fill="#edf0f8" data-name="Path 362"/>
<g transform="translate(0 7.615)" fill="#edf0f8" data-name="Group 85">
<path transform="translate(-113.53 -266.54)" d="m117.24 268.92l4.118-2.376v0.6l-4.118 2.376z" data-name="Path 363"/>
<path transform="translate(-115.42 -265.17)" d="m118.62 267.85v0.6l-3.194 1.842v-0.6z" data-name="Path 364"/>
</g>
<path transform="translate(-109.55 -260.42)" d="m124.37 265.11v0.6l-3.331 1.921v-0.6z" fill="#edf0f8" data-name="Path 365"/>
<path transform="translate(-114.76 -259.29)" d="m116.06 271.77l9.668-5.577v0.6l-9.668 5.577z" fill="#edf0f8" data-name="Path 366"/>
<path transform="translate(-111.93 -258.24)" d="m118.77 270.84l6.319-3.645v0.6l-6.319 3.645z" fill="#edf0f8" data-name="Path 367"/>
<path transform="translate(-114.76 -256.23)" d="m116.06 272.02l5.015-2.893v0.6l-5.015 2.893z" fill="#edf0f8" data-name="Path 368"/>
<g transform="translate(1.857 15.179)" data-name="Group 86">
<path transform="translate(-116.33 -270.24)" d="m116.33 273.84l6.235-3.6v0.6l-6.235 3.6z" fill="#edf0f8" data-name="Path 369"/>
</g>
<path transform="translate(-114.48 -253.66)" d="m119.73 271.58v0.6l-3.4 1.959v-0.6z" fill="#edf0f8" data-name="Path 370"/>
<path transform="translate(-108.06 -256.72)" d="M122.474,269.355l1.223-.705v.6l-1.223.705Z" fill="#edf0f8" data-name="Path 371"/>
<g transform="translate(5.773 12.933)" fill="#edf0f8" data-name="Group 87">
<path transform="translate(-118.25 -268.62)" d="M124.6,269.641v.6l-6.353,3.664v-.6Z" data-name="Path 372"/>
<path transform="translate(-114.74 -269.14)" d="M121.608,269.863l1.251-.721v.6l-1.251.721Z" data-name="Path 373"/>
</g>
<path transform="translate(-111.87 -255.64)" d="m118.82 273.69l6.948-4.008v0.6l-6.948 4.008z" fill="#edf0f8" data-name="Path 374"/>
</g>
<g transform="translate(0 103.48)" data-name="Group 93">
<path transform="translate(-106.95 -271.94)" d="M126.071,271.935v.6L123.536,274v-.6Z" fill="#edf0f8" data-name="Path 375"/>
<path transform="translate(-106.95 -271.37)" d="m126.07 272.47v0.6l-2.534 1.462v-0.6z" fill="#edf0f8" data-name="Path 376"/>
<path transform="translate(-106.95 -270.81)" d="m126.07 273.01v0.6l-2.534 1.462v-0.6z" fill="#edf0f8" data-name="Path 377"/>
<path transform="translate(-115.42 -269.22)" d="m115.42 284.16v-0.6l15.639-9.021v0.6z" fill="#edf0f8" data-name="Path 378"/>
<path transform="translate(-106.95 -270.24)" d="m126.07 273.55v0.6l-2.534 1.462v-0.6z" fill="#edf0f8" data-name="Path 379"/>
<path transform="translate(-106.95 -269.68)" d="M126.071,274.09v.6l-2.534,1.462v-.6Z" fill="#edf0f8" data-name="Path 380"/>
<path transform="translate(-115.42 -268.66)" d="M115.425,284.7v-.6l15.639-9.021v.6Z" fill="#edf0f8" data-name="Path 381"/>
<path transform="translate(-106.95 -267.99)" d="m126.07 275.71v0.6l-2.534 1.462v-0.6z" fill="#edf0f8" data-name="Path 382"/>
<path transform="translate(-106.95 -267.43)" d="m126.07 276.24v0.6l-2.534 1.461v-0.6z" fill="#edf0f8" data-name="Path 383"/>
<path transform="translate(-115.42 -261.62)" d="M116.761,281.8v.6l-1.337.771v-.6Z" fill="#edf0f8" data-name="Path 384"/>
<path transform="translate(-111.02 -266.4)" d="m119.64 281.28l7.027-4.053v0.6l-7.027 4.053z" fill="#edf0f8" data-name="Path 385"/>
<path transform="translate(-109.55 -270.91)" d="m121.04 275.31l4.148-2.393v0.6l-4.148 2.392z" fill="#edf0f8" data-name="Path 386"/>
<g transform="translate(4.693 4.702)" data-name="Group 89">
<path transform="translate(-117.72 -274.23)" d="m117.72 277.86 6.281-3.622v0.6l-6.279 3.622z" fill="#edf0f8" data-name="Path 387"/>
</g>
<path transform="translate(-111.16 -269.5)" d="m119.51 276.82l4.421-2.55v0.6l-4.421 2.55z" fill="#edf0f8" data-name="Path 388"/>
<g transform="translate(0 7.615)" fill="#edf0f8" data-name="Group 90">
<path transform="translate(-113.53 -275.66)" d="m117.24 278.03l4.118-2.376v0.6l-4.118 2.375z" data-name="Path 389"/>
<path transform="translate(-115.42 -274.29)" d="m118.62 276.97v0.6l-3.194 1.842v-0.6z" data-name="Path 390"/>
</g>
<path transform="translate(-109.55 -269.54)" d="m124.37 274.23v0.6l-3.331 1.921v-0.6z" fill="#edf0f8" data-name="Path 391"/>
<path transform="translate(-114.76 -268.4)" d="m116.06 280.89l9.668-5.577v0.6l-9.668 5.577z" fill="#edf0f8" data-name="Path 392"/>
<path transform="translate(-111.93 -267.36)" d="m118.77 279.96l6.319-3.645v0.6l-6.319 3.645z" fill="#edf0f8" data-name="Path 393"/>
<path transform="translate(-114.76 -265.34)" d="m116.06 281.13l5.015-2.893v0.6l-5.015 2.893z" fill="#edf0f8" data-name="Path 394"/>
<g transform="translate(1.857 15.179)" data-name="Group 91">
<path transform="translate(-116.33 -279.36)" d="m116.33 282.95l6.235-3.6v0.6l-6.235 3.6z" fill="#edf0f8" data-name="Path 395"/>
</g>
<path transform="translate(-114.48 -262.78)" d="M119.729,280.7v.6l-3.4,1.959v-.6Z" fill="#edf0f8" data-name="Path 396"/>
<path transform="translate(-108.06 -265.84)" d="M122.474,278.472l1.223-.705v.6l-1.223.705Z" fill="#edf0f8" data-name="Path 397"/>
<g transform="translate(5.773 12.933)" fill="#edf0f8" data-name="Group 92">
<path transform="translate(-118.25 -277.74)" d="M124.6,278.758v.6l-6.353,3.665v-.6Z" data-name="Path 398"/>
<path transform="translate(-114.74 -278.26)" d="M121.608,278.98l1.251-.721v.6l-1.251.722Z" data-name="Path 399"/>
</g>
<path transform="translate(-111.87 -264.76)" d="m118.82 282.8l6.948-4.008v0.6l-6.948 4.008z" fill="#edf0f8" data-name="Path 400"/>
</g>
<g transform="translate(98.157)" fill="#ebf2eb" data-name="Group 94">
<path transform="translate(-163.42 -221.34)" d="M163.675,223.117l3.031-1.749a.222.222,0,0,1,.333.192v3.626a.5.5,0,0,1-.247.429l-3.031,1.751a.227.227,0,0,1-.342-.2v-3.612A.51.51,0,0,1,163.675,223.117Z" data-name="Path 401"/>
<path transform="translate(-163.42 -218.56)" d="M163.675,225.77l3.031-1.749a.222.222,0,0,1,.333.192v3.626a.494.494,0,0,1-.247.43l-3.031,1.751a.227.227,0,0,1-.342-.2v-3.612A.51.51,0,0,1,163.675,225.77Z" data-name="Path 402"/>
<path transform="translate(-163.42 -215.79)" d="M163.675,228.423l3.031-1.749a.223.223,0,0,1,.333.192v3.628a.493.493,0,0,1-.247.427l-3.031,1.751a.227.227,0,0,1-.342-.2v-3.612A.51.51,0,0,1,163.675,228.423Z" data-name="Path 403"/>
<path transform="translate(-163.42 -213.02)" d="M163.675,231.076l3.031-1.749a.223.223,0,0,1,.333.192v3.628a.493.493,0,0,1-.247.427l-3.031,1.753a.229.229,0,0,1-.342-.2v-3.612A.513.513,0,0,1,163.675,231.076Z" data-name="Path 404"/>
<path transform="translate(-163.42 -210.25)" d="M163.675,233.729l3.031-1.749a.223.223,0,0,1,.333.192V235.8a.493.493,0,0,1-.247.427l-3.031,1.753a.228.228,0,0,1-.342-.2V234.17A.513.513,0,0,1,163.675,233.729Z" data-name="Path 405"/>
<path transform="translate(-163.42 -207.47)" d="M163.675,236.382l3.031-1.749a.223.223,0,0,1,.333.192v3.628a.493.493,0,0,1-.247.427l-3.031,1.753a.228.228,0,0,1-.342-.2v-3.614A.513.513,0,0,1,163.675,236.382Z" data-name="Path 406"/>
<path transform="translate(-163.42 -204.7)" d="M163.675,239.036l3.031-1.749a.222.222,0,0,1,.333.192v3.626a.5.5,0,0,1-.247.43l-3.031,1.751a.228.228,0,0,1-.342-.2v-3.612A.508.508,0,0,1,163.675,239.036Z" data-name="Path 407"/>
<path transform="translate(-163.42 -201.93)" d="M163.675,241.689l3.031-1.749a.222.222,0,0,1,.333.192v3.626a.5.5,0,0,1-.247.429l-3.031,1.751a.227.227,0,0,1-.342-.2v-3.612A.51.51,0,0,1,163.675,241.689Z" data-name="Path 408"/>
<path transform="translate(-163.42 -199.15)" d="M163.675,244.342l3.031-1.749a.222.222,0,0,1,.333.192v3.626a.494.494,0,0,1-.247.429l-3.031,1.751a.227.227,0,0,1-.342-.2v-3.612A.51.51,0,0,1,163.675,244.342Z" data-name="Path 409"/>
<path transform="translate(-163.42 -196.38)" d="M163.675,246.995l3.031-1.749a.223.223,0,0,1,.333.192v3.628a.493.493,0,0,1-.247.427l-3.031,1.753a.229.229,0,0,1-.342-.2v-3.612A.513.513,0,0,1,163.675,246.995Z" data-name="Path 410"/>
<path transform="translate(-163.42 -193.61)" d="M163.675,249.648l3.031-1.749a.223.223,0,0,1,.333.192v3.628a.493.493,0,0,1-.247.427L163.76,253.9a.228.228,0,0,1-.342-.2V250.09A.513.513,0,0,1,163.675,249.648Z" data-name="Path 411"/>
<path transform="translate(-163.42 -190.84)" d="M163.675,252.3l3.031-1.749a.223.223,0,0,1,.333.192v3.628a.493.493,0,0,1-.247.427l-3.031,1.753a.228.228,0,0,1-.342-.2v-3.614A.513.513,0,0,1,163.675,252.3Z" data-name="Path 412"/>
</g>
</g>
<path transform="translate(12.05 -196.85)" d="m135.6 302.34s5.183-2.315 11.279 1.722 10.2 9.686 7.725 11.766-7.3 4.309-10.424 3.186-18.587-10.217-8.58-16.674z" fill="#0f4463" data-name="Path 477"/>
<g transform="translate(25.615 156.97)" data-name="Group 114">
<path transform="translate(-103.12 -287.74)" d="m111.02 298.1h4.505v4.861h-4.505a3.042 3.042 0 0 0 -3.039 3.039v7.9a3.042 3.042 0 0 0 3.039 3.037h6.608v4.863h-6.608a7.908 7.908 0 0 1 -7.9 -7.9v-7.9a7.908 7.908 0 0 1 7.9 -7.9z" fill="#a7bcce" data-name="Path 495"/>
<path transform="translate(-98.216 -289.11)" d="m107.81 296.79v27.369c0 4.244 6.326 7.682 14.126 7.682s14.126-3.438 14.126-7.682v-27.369z" fill="#bbcee1" data-name="Path 496"/>
<path transform="translate(-98.216 -293.04)" d="m136.06 300.72c0 4.242-6.324 7.68-14.126 7.68s-14.126-3.438-14.126-7.68 6.326-7.682 14.126-7.682 14.126 3.44 14.126 7.682z" fill="#fff" data-name="Path 497"/>
<path transform="translate(-96.779 -292.23)" d="m131.81 299.81c0 3.317-5.064 6.007-11.314 6.007s-11.314-2.689-11.314-6.007 5.066-6.007 11.314-6.007 11.314 2.693 11.314 6.007z" fill="#a7bcce" data-name="Path 498"/>
<path transform="translate(-96.456 -290.22)" d="m120.17 295.73c4.951 0 9.148 1.689 10.682 4.041-1.534 2.35-5.731 4.041-10.682 4.041s-9.146-1.691-10.682-4.041c1.536-2.352 5.733-4.041 10.682-4.041z" fill="#52281c" data-name="Path 499"/>
<path transform="translate(-97.128 -287.04)" d="m115.51 301.84v27.364a15.183 15.183 0 0 1 -6.659 -3.068v-27.366a15.185 15.185 0 0 0 6.659 3.07z" fill="#a7bcce" data-name="Path 500"/>
</g>
</g>
</g>
<g transform="translate(151.49 151.58)" data-name="Group 430">
<g transform="translate(0)" data-name="Group 168">
<g data-name="Group 166">
<g data-name="Group 165">
<path transform="translate(-392.91 -192.06)" d="M394.479,202.9l18.387-10.61a1.735,1.735,0,0,1,1.84.073h0l4.037,2.332-1.877,2.545-.7.8v18.216a3.038,3.038,0,0,1-1.517,2.631l-13.761,7.955-.141.765-2.809,3.935L393.62,229l-.021-.013-.029-.016v0a1.379,1.379,0,0,1-.658-1.183V205.613A3.131,3.131,0,0,1,394.479,202.9Z" fill="#00dd05" data-name="Path 743"/>
<path transform="translate(-392.88 -192.04)" d="m398.75 205.41l18.6-10.735a1.361 1.361 0 0 1 2.042 1.18v22.268a3.036 3.036 0 0 1 -1.517 2.63l-18.6 10.755a1.4 1.4 0 0 1 -2.095 -1.209v-22.176a3.13 3.13 0 0 1 1.57 -2.713z" fill="#00a508" data-name="Path 744"/>
</g>
</g>
<g transform="translate(0 12.526)" data-name="Group 167">
<path transform="translate(-392.91 -204.5)" d="M397.209,230.231V208.056a3.091,3.091,0,0,1,.212-1.068l-4.315-2.486a3.106,3.106,0,0,0-.2,1.028V227.7a1.379,1.379,0,0,0,.658,1.183v0l.029.016.021.013,4.283,2.517A1.38,1.38,0,0,1,397.209,230.231Z" fill="#006602" data-name="Path 746"/>
</g>
</g>
<g transform="translate(8.64 11.74)" fill="#fff" data-name="Group 178">
<path transform="translate(-401.43 -203.72)" d="M413.211,203.938a1.782,1.782,0,0,1,.3,1.215l.008,2.662v.067c0,.506.164.777.486.813a2.541,2.541,0,0,0,1.382-.463l.005,1.852a4.666,4.666,0,0,0-1.379,1.137,2.283,2.283,0,0,0-.481,1.446l.008,2.631a3.746,3.746,0,0,1-.3,1.569,3.955,3.955,0,0,1-.949,1.278,9.959,9.959,0,0,1-1.8,1.267l-.005-1.754a2.948,2.948,0,0,0,1-.895,2,2,0,0,0,.261-1.047l-.007-2.519v-.1a3.47,3.47,0,0,1,1.666-2.755v-.1c-1.1.451-1.657.141-1.676-.924l-.007-2.519c0-.408-.094-.651-.271-.741s-.511.005-1,.269l-.005-1.754a7.086,7.086,0,0,1,1.79-.8A.954.954,0,0,1,413.211,203.938Z" data-name="Path 759"/>
<path transform="translate(-401.49 -203.7)" d="M402.872,215.14a2.173,2.173,0,0,0,.47-1.365v-.068l-.008-2.661a3.577,3.577,0,0,1,.682-2.213,7.794,7.794,0,0,1,2.374-1.9l.005,1.754a2.962,2.962,0,0,0-1,.888,1.968,1.968,0,0,0-.261,1.048l.008,2.519a3.628,3.628,0,0,1-1.682,2.864v.1a1.626,1.626,0,0,1,1.254-.124c.291.141.437.458.438.964v.075l.007,2.519c0,.408.088.66.266.75s.516-.008,1.006-.272l.005,1.754a4.3,4.3,0,0,1-2.377.841c-.458-.089-.691-.561-.693-1.424l-.008-2.631c0-.55-.164-.846-.476-.894a2.432,2.432,0,0,0-1.382.458l-.005-1.852A4.7,4.7,0,0,0,402.872,215.14Z" data-name="Path 760"/>
</g>
</g>
<g transform="translate(151.42 114.55)" data-name="Group 428">
<g transform="translate(0)" data-name="Group 348">
<g data-name="Group 278">
<g data-name="Group 276">
<g data-name="Group 275">
<path transform="translate(-20.898 -236.06)" d="M22.416,246.545,40.2,236.28a1.681,1.681,0,0,1,1.781.07h0l3.906,2.255-1.816,2.463-.677.775v17.624a2.94,2.94,0,0,1-1.468,2.544l-13.314,7.7-.136.74-2.717,3.807L21.585,271.8l-.02-.012-.028-.017v0a1.336,1.336,0,0,1-.637-1.145V249.17A3.029,3.029,0,0,1,22.416,246.545Z" fill="#ffc73b" data-name="Path 1239"/>
<path transform="translate(-21.009 -236.12)" d="m26.685 249.05l18-10.386a1.318 1.318 0 0 1 1.975 1.142v21.545a2.938 2.938 0 0 1 -1.468 2.544l-18 10.4a1.351 1.351 0 0 1 -2.027 -1.169v-21.45a3.03 3.03 0 0 1 1.52 -2.626z" fill="#f9b800" data-name="Path 1240"/>
</g>
</g>
<g transform="translate(0 12.119)" data-name="Group 277">
<path transform="translate(-21.027 -249.2)" d="m25.867 275.26l0.025 0.016c-6e-3 -9e-3 -0.016-0.011-0.025-0.016z" fill="#bbcee1" data-name="Path 1241"/>
<path transform="translate(-20.898 -248.5)" d="M25.057,273.393V251.938a2.991,2.991,0,0,1,.206-1.034l-4.175-2.4a2.994,2.994,0,0,0-.19.993v21.455a1.335,1.335,0,0,0,.637,1.144v0l.028.017.02.012,4.143,2.436A1.337,1.337,0,0,1,25.057,273.393Z" fill="#ce8900" data-name="Path 1242"/>
</g>
</g>
<g transform="translate(6.442 15.502)" fill="#fff" data-name="Group 293">
<path transform="translate(-27.814 -251.97)" d="M44.739,252.9l-5.575,6.054,0-1.543L43,253.369l-3.853.174,0-1.552,5.593-.018Z" data-name="Path 1261"/>
<path transform="translate(-27.675 -252)" d="M38.451,260.625l-1.556.9-3.1-7.681,1.56-.9Z" data-name="Path 1262"/>
<path transform="translate(-27.512 -252.06)" d="M33.091,255.4l0,1.552-3.846,4.271,3.857-.4,0,1.543-5.6.4,0-.927Z" data-name="Path 1263"/>
</g>
</g>
</g>
<g transform="translate(137.72 75.624)" data-name="Group 429">
<path transform="translate(-97.697 -149.73)" d="m121.66 171.1v1.07l-4.494 2.592v-1.062z" fill="#fff" data-name="Path 1518"/>
<path transform="translate(-97.697 -149.73)" d="m121.66 173.06v1.07l-4.494 2.592v-1.07z" fill="#fff" data-name="Path 1519"/>
<path transform="translate(-97.697 -149.74)" d="m121.66 175.02v1.07l-4.494 2.592v-1.07z" fill="#fff" data-name="Path 1520"/>
<line transform="translate(17.782 30.798)" y2="1.07" fill="#fff" data-name="Line 1"/>
<path transform="translate(-97.697 -149.74)" d="m121.66 176.97v1.07l-4.494 2.592v-1.07z" fill="#fff" data-name="Path 1521"/>
<path transform="translate(-97.697 -149.74)" d="m121.66 178.93v1.074l-4.494 2.592v-1.07z" fill="#fff" data-name="Path 1522"/>
<line transform="translate(17.782 32.753)" y2="1.07" fill="#fff" data-name="Line 2"/>
<path transform="translate(-97.697 -149.74)" d="m121.66 184.79v1.07l-4.494 2.592v-1.07z" fill="#fff" data-name="Path 1523"/>
<line transform="translate(17.782 40.57)" y2="1.07" fill="#fff" data-name="Line 3"/>
<line transform="translate(12.698 29.822)" y2="1.07" fill="#fff" data-name="Line 4"/>
<line transform="translate(13.379 37.246)" y2="1.07" fill="#fff" data-name="Line 5"/>
<path transform="translate(-97.685 -149.72)" d="m97.685 153.39" fill="#fff" data-name="Path 1524"/>
<line transform="translate(18.636 4.368)" y2=".948" fill="#fff" data-name="Line 6"/>
<line transform="translate(18.636 6.138)" y2=".948" fill="#fff" data-name="Line 7"/>
<line transform="translate(18.636 8)" y2=".948" fill="#fff" data-name="Line 8"/>
<line transform="translate(18.636 12.134)" y2=".948" fill="#fff" data-name="Line 9"/>
<line transform="translate(18.636 13.996)" y2=".948" fill="#fff" data-name="Line 10"/>
<line transform="translate(18.636 15.766)" y2=".948" fill="#fff" data-name="Line 11"/>
<line transform="translate(18.636 17.628)" y2=".948" fill="#fff" data-name="Line 12"/>
<g transform="translate(12.682)" data-name="Group 353">
<g data-name="Group 351">
<g data-name="Group 350">
<path transform="translate(-110.38 -149.72)" d="M111.932,160.481l18.252-10.534a1.725,1.725,0,0,1,1.827.073h0l4.008,2.314-1.863,2.526-.695.8V173.74a3.016,3.016,0,0,1-1.507,2.61l-13.661,7.9-.14.76-2.787,3.906-4.287-2.52-.022-.012-.029-.017v0a1.37,1.37,0,0,1-.654-1.174V163.175A3.108,3.108,0,0,1,111.932,160.481Z" fill="#f94848" data-name="Path 1525"/>
<path transform="translate(-110.38 -149.72)" d="M116.2,162.99l18.468-10.656a1.352,1.352,0,0,1,2.027,1.171v22.107a3.015,3.015,0,0,1-1.506,2.61L116.724,188.9a1.386,1.386,0,0,1-2.079-1.2V165.684A3.108,3.108,0,0,1,116.2,162.99Z" fill="#f70000" data-name="Path 1526"/>
</g>
</g>
<g transform="translate(0 12.434)" data-name="Group 352">
<path transform="translate(-110.38 -162.18)" d="m115.34 188.92l0.026 0.015c-7e-3 -8e-3 -0.017-0.01-0.026-0.015z" fill="#bbcee1" data-name="Path 1527"/>
<path transform="translate(-110.38 -162.16)" d="M114.642,187.7V165.69a3.069,3.069,0,0,1,.212-1.06l-4.284-2.467a3.081,3.081,0,0,0-.194,1.02V185.2a1.369,1.369,0,0,0,.655,1.174v0l.028.017.022.012,4.251,2.5A1.37,1.37,0,0,1,114.642,187.7Z" fill="#c40000" data-name="Path 1528"/>
</g>
</g>
<g transform="translate(18.857 13.996)" fill="#fff" data-name="Group 354">
<path transform="translate(-116.55 -163.73)" d="M120.075,177.315a4.214,4.214,0,0,0,.833-.652c.282-.276.563-.57.844-.885l.518,1.186a9.058,9.058,0,0,1-2.191,1.869,3.23,3.23,0,0,1-1.87.541,1.521,1.521,0,0,1-1.222-.844,4.315,4.315,0,0,1-.433-2.1,7.95,7.95,0,0,1,.855-3.77,6.37,6.37,0,0,1,2.5-2.58,5.283,5.283,0,0,1,2.06-.748l0,1.531a5.782,5.782,0,0,0-1.912.649q-1.877,1.084-1.872,3.963a2.67,2.67,0,0,0,.5,1.872Q119.177,177.835,120.075,177.315Z" data-name="Path 1529"/>
<path transform="translate(-116.56 -163.72)" d="M132.272,164.371l1.119-.646.007,2.3,1.983-1.145,0,1.29-1.983,1.145.006,2.265-1.119.646-.007-2.265L130.3,169.1l0-1.29,1.983-1.145Z" data-name="Path 1530"/>
<path transform="translate(-116.56 -163.73)" d="M126.038,170.323l-.006-2.3,1.123-.648.007,2.3,1.979-1.143,0,1.29-1.979,1.142.006,2.265-1.123.648-.006-2.265-1.979,1.143,0-1.29Z" data-name="Path 1531"/>
</g>
</g>
<g transform="matrix(.966 -.259 .259 .966 -61.278 -85.429)" opacity=".2" data-name="gear">
<g transform="translate(0)" data-name="Group 118">
<g transform="translate(0)" data-name="Group 117">
<path d="M101.921,59.128V42.793L89.988,40.8a39.966,39.966,0,0,0-4.256-10.246l7.04-9.856L81.218,9.151l-9.856,7.04a39.889,39.889,0,0,0-10.245-4.257L59.129,0H42.792L40.8,11.934a39.889,39.889,0,0,0-10.245,4.257L20.7,9.151,9.15,20.7l7.04,9.856A39.966,39.966,0,0,0,11.934,40.8L0,42.793V59.128l11.934,1.991A39.966,39.966,0,0,0,16.19,71.365L9.15,81.22,20.7,92.77l9.856-7.04A39.889,39.889,0,0,0,40.8,89.988l1.989,11.934H59.129l1.989-11.934A39.889,39.889,0,0,0,71.363,85.73l9.856,7.04L92.771,81.22l-7.04-9.856a39.966,39.966,0,0,0,4.256-10.246ZM86.178,58.8A35.785,35.785,0,0,1,81.4,70.313l-.77,1.209,6.6,9.238L80.76,87.226l-9.24-6.6-1.208.769A35.773,35.773,0,0,1,58.8,86.178l-1.4.311L55.532,97.674H46.389L44.525,86.489l-1.4-.311a35.773,35.773,0,0,1-11.517-4.784L30.4,80.625l-9.24,6.6L14.7,80.76l6.6-9.238-.77-1.209A35.785,35.785,0,0,1,15.743,58.8l-.31-1.4L4.247,55.533V46.388l11.186-1.864.31-1.4a35.785,35.785,0,0,1,4.783-11.517L21.3,30.4l-6.6-9.238L21.161,14.7l9.24,6.6,1.208-.769a35.773,35.773,0,0,1,11.517-4.784l1.4-.311L46.389,4.247h9.142L57.4,15.432l1.4.311a35.774,35.774,0,0,1,11.517,4.784l1.208.769,9.24-6.6,6.464,6.465-6.6,9.238.77,1.209a35.784,35.784,0,0,1,4.783,11.517l.31,1.4,11.186,1.864v9.145L86.488,57.4Z" fill="#fff" data-name="Path 501"/>
</g>
</g>
<g transform="translate(29.727 29.727)" data-name="Group 120">
<g transform="translate(0)" data-name="Group 119">
<path d="M21.234,0A21.234,21.234,0,1,0,42.467,21.234,21.258,21.258,0,0,0,21.234,0Zm0,38.22A16.987,16.987,0,1,1,38.22,21.234,17.006,17.006,0,0,1,21.234,38.22Z" fill="#fff" data-name="Path 502"/>
</g>
</g>
</g>
<g transform="translate(-3.231 277.94) rotate(22)" opacity=".2">
<path transform="translate(0)" d="M51.97,40.152,44.382,28.859a4.553,4.553,0,0,0,3.307-4.231,4.748,4.748,0,0,0-4.947-4.505,5.248,5.248,0,0,0-2.283.536L31.1,7.341a4.237,4.237,0,0,0,1.131-2.835A4.744,4.744,0,0,0,27.288,0a4.745,4.745,0,0,0-4.943,4.505A4.309,4.309,0,0,0,23.806,7.7l-8.8,12.52a5.316,5.316,0,0,0-1-.1,4.744,4.744,0,0,0-4.943,4.505,4.559,4.559,0,0,0,3.4,4.256L5.128,39.79c-.064,0-.122-.017-.186-.017A4.745,4.745,0,0,0,0,44.278a4.744,4.744,0,0,0,4.943,4.505,4.744,4.744,0,0,0,4.943-4.505,4.536,4.536,0,0,0-3.1-4.173l7.27-10.813,7.459,11.1a4.559,4.559,0,0,0-3.382,4.253,4.745,4.745,0,0,0,4.945,4.5,4.742,4.742,0,0,0,4.94-4.5,4.72,4.72,0,0,0-4.79-4.49L15.64,28.858a4.55,4.55,0,0,0,3.305-4.231,4.436,4.436,0,0,0-2.431-3.858l8.6-12.237a5.216,5.216,0,0,0,4.771-.212l9.288,13.211a4.272,4.272,0,0,0-1.372,3.1A4.559,4.559,0,0,0,41.2,28.884L33.87,39.79c-.065,0-.122-.017-.188-.017a4.747,4.747,0,0,0-4.943,4.505,4.746,4.746,0,0,0,4.943,4.505,4.745,4.745,0,0,0,4.943-4.505,4.536,4.536,0,0,0-3.094-4.173L42.8,29.293l7.459,11.1a4.559,4.559,0,0,0-3.38,4.253,4.964,4.964,0,0,0,9.886,0A4.724,4.724,0,0,0,51.97,40.152ZM8.288,44.278a3.211,3.211,0,0,1-3.346,3.049,3.061,3.061,0,1,1,0-6.1A3.211,3.211,0,0,1,8.288,44.278Zm18.134.365a3.208,3.208,0,0,1-3.344,3.048,3.061,3.061,0,1,1,0-6.1A3.208,3.208,0,0,1,26.422,44.643ZM14,27.677a3.209,3.209,0,0,1-3.344-3.049A3.208,3.208,0,0,1,14,21.58a3.21,3.21,0,0,1,3.346,3.048A3.211,3.211,0,0,1,14,27.677Zm23.024,16.6a3.357,3.357,0,1,1-3.345-3.048A3.21,3.21,0,0,1,37.027,44.278ZM23.944,4.506a3.209,3.209,0,0,1,3.344-3.049,3.213,3.213,0,0,1,3.347,3.049,3.212,3.212,0,0,1-3.347,3.049A3.21,3.21,0,0,1,23.944,4.506ZM39.4,24.628a3.358,3.358,0,0,1,6.687,0,3.358,3.358,0,0,1-6.687,0Zm12.42,23.063a3.061,3.061,0,1,1,3.342-3.048A3.21,3.21,0,0,1,51.822,47.691Z" fill="#fff" data-name="Path 518"/>
</g>
</g>
</svg>
