<svg xmlns="http://www.w3.org/2000/svg" width="236.963" height="103.11" viewBox="0 0 236.963 103.11">
  <g id="Logos_All" data-name="Logos All" transform="translate(-12.187 -12)">
    <path id="Path_2472" data-name="Path 2472" d="M12.21,98.88H25.06c4.64,0,5.37,1.53,5.37,4.55v1.31c0,2.26-1.28,2.88-2.95,3h0c2.22.4,2.75,1.55,2.75,3v4.1h-2v-3.52c0-2.51-1.22-2.82-3.19-2.82H14.39v6.34H12.21Zm12.61,7.94c2.42,0,3.44-.64,3.44-2.33V103c0-1.8-.78-2.38-4-2.38h-9.9v6.17Z" fill="#898a8d"/>
    <path id="Path_2473" data-name="Path 2473" d="M45,104.72c0-4.07,1.37-6,5.72-6h9.25c4.35,0,5.73,2,5.73,6v4.39c0,4.06-1.38,6-5.73,6H50.69c-4.35,0-5.72-2-5.72-6Zm18.52-.83c0-2.79-1.68-3.41-3.77-3.41H50.91c-2.08,0-3.77.62-3.77,3.41v6c0,2.8,1.69,3.42,3.77,3.42h8.81c2.09,0,3.77-.62,3.77-3.42Z" fill="#898a8d"/>
    <path id="Path_2474" data-name="Path 2474" d="M80.64,98.88H94.36c3.33,0,4.26,1.73,4.26,3.57v1.38c0,1.15-.65,2.33-2.6,2.53v.09c1.71.08,3.22.73,3.22,3.17v1.91c0,2.24-2,3.41-4.66,3.41H80.64Zm15.8,3.46c0-1.46-1.62-1.69-2.28-1.69H82.82v5.13H94.05c1.17,0,2.39-.38,2.39-2Zm.63,7.52c0-2-1.12-2.3-3.09-2.3H82.82v5.61H94.31c2,0,2.76-.73,2.76-2.15Z" fill="#898a8d"/>
    <path id="Path_2475" data-name="Path 2475" d="M113.81,104.72c0-4.07,1.38-6,5.73-6h9.25c4.35,0,5.73,2,5.73,6v4.39c0,4.06-1.38,6-5.73,6h-9.25c-4.35,0-5.73-2-5.73-6Zm18.53-.83c0-2.79-1.68-3.41-3.77-3.41h-8.81c-2.08,0-3.77.62-3.77,3.41v6c0,2.8,1.69,3.42,3.77,3.42h8.81c2.09,0,3.77-.62,3.77-3.42Z" fill="#898a8d"/>
    <path id="Path_2476" data-name="Path 2476" d="M155.86,100.65h-8.12V98.88h18.42v1.77H158v14.29h-2.18Z" fill="#898a8d"/>
    <path id="Path_2477" data-name="Path 2477" d="M179.87,98.88H182v16.06h-2.17Z" fill="#898a8d"/>
    <path id="Path_2478" data-name="Path 2478" d="M197.09,104.72c0-4.07,1.37-6,5.72-6h8.32c4,0,5,1.84,5,4v1.38h-1.91v-.73c0-2.73-1.68-2.86-3.68-2.86H203c-2.08,0-3.77.62-3.77,3.41v6c0,2.8,1.69,3.42,3.77,3.42h7.61c2.93,0,3.78-.62,3.78-2.8v-1h2v1.09c0,2.91-.93,4.48-5.44,4.48h-8.21c-4.35,0-5.72-2-5.72-6Z" fill="#898a8d"/>
    <path id="Path_2479" data-name="Path 2479" d="M230.7,109.89h2V111c0,1.57.85,2.33,3.55,2.33H243c3.15,0,4.08-.67,4.08-3,0-2-.8-2.53-3.5-2.53h-4.13c-6.64,0-8.81-.4-8.81-4.66,0-3.66,2.17-4.48,6.66-4.48H242c5.39,0,6.74,1.38,6.74,4.24v.55h-2c0-2.55-.31-3-6-3H238.4c-4.19,0-5.68.22-5.68,2.86,0,1.91.6,2.55,4,2.55h6.43c4.24,0,6,1.22,6,4v1c0,4-3.24,4.24-6.45,4.24h-6c-3.17,0-6-.55-6-4.06Z" fill="#898a8d"/>
    <path id="Path_2480" data-name="Path 2480" d="M216.05,63.73l29.63-20a.892.892,0,0,0,.38-.72.757.757,0,0,0,0-.26.869.869,0,0,0-.83-.62l-18.16.01a.9.9,0,0,0-.5.16L205.93,56.65,185.19,42.3a.868.868,0,0,0-.49-.16H166.48a.87.87,0,0,0-.84.62.757.757,0,0,0,0,.26.892.892,0,0,0,.38.72l29.53,20-32,21.47a.871.871,0,0,0-.38.72.757.757,0,0,0,0,.26.86.86,0,0,0,.83.61h18.62a.841.841,0,0,0,.49-.15l22.86-15.82,22.65,15.82a.89.89,0,0,0,.5.15H247.4a.871.871,0,0,0,.84-.61,1.131,1.131,0,0,0,0-.26.879.879,0,0,0-.39-.72" fill="#898a8d"/>
    <path id="Path_2481" data-name="Path 2481" d="M83.82,42.14a.9.9,0,0,0-.68.32s-26,31.81-27.3,33.39L29,42.47a.878.878,0,0,0-.68-.33H13.06a.88.88,0,0,0-.68,1.43l35.33,42.9a.892.892,0,0,0,.68.31h14.9a.851.851,0,0,0,.66-.31L99.79,43.58a.88.88,0,0,0-.67-1.44Z" fill="#898a8d"/>
    <path id="Path_2482" data-name="Path 2482" d="M108,42.14A25.713,25.713,0,0,1,105.18,30c0-9.77,4.9-18,10.86-18h37.7c2,0,3.66,2.73,3.66,6.05s-1.65,6.06-3.66,6.06H116c-2,0-3.55,2.73-3.55,5.86s1.42,6.16,3.55,6.16h37.7c2,0,3.66,2.69,3.66,6h0c0,3.28-1.65,6-3.66,6H116c-2.13,0-3.55,3-3.55,6.15S114,60.12,116,60.12h37.7c2,0,3.66,2.74,3.66,6.06s-1.65,6.06-3.66,6.06H116c-6,0-10.86-8.21-10.86-18A25.628,25.628,0,0,1,108,42.15Z" fill="#d7282f"/>
  </g>
</svg>
