<svg xmlns="http://www.w3.org/2000/svg" width="512" height="512" xmlns:v="https://vecta.io/nano"><defs><clipPath id="A"><path d="M0 0h512v512H0z"/></clipPath></defs><g clip-path="url(#A)"><g transform="matrix(.375 .927 -.927 .375 389.95 152.56)"><path d="M0 65.142h120.525v121.17H0z" fill="#fff18f"/><path d="M120.525 65.142h0L178.036 0v112.758l-57.51 73.554z" fill="#978400"/><path d="M52.51 21.187L74.228 2.642 178.045.05l-57.52 65.093H0z" fill="#ffe52e"/></g><g transform="matrix(.945519 -.325568 .325568 .945519 25.88 148.517)"><path d="M0 88.475h163.695v164.57H0z" fill="#2e99ff"/><path d="M163.695 88.475h0L241.805 0v153.145l-78.1 99.9z" fill="#02529e"/><path d="M71.32 28.775l29.5-25.187 141-3.52-78.125 88.407H0z" fill="#0082ff"/></g><g transform="matrix(.914 .407 -.407 .914 227.124 284.723)"><path d="M0 46.064h85.227v85.683H0z" fill="#ff6b6b"/><path d="M85.227 46.064h0L125.895 0v79.734l-40.668 52.012z" fill="#ac0000"/><path d="M37.132 14.98L52.49 1.868 125.9.035l-40.673 46.03H0z" fill="#ff2e2e"/></g></g></svg>