<?xml version="1.0" encoding="utf-8"?>
<svg version="1.1" id="ps_x5F_cc_x5F_app_x5F_RGB.svg"
	 xmlns="http://www.w3.org/2000/svg" xmlns:xlink="http://www.w3.org/1999/xlink" x="0px" y="0px" viewBox="770 -939 2500 2438"
	 style="enable-background:new 770 -939 2500 2438;" xml:space="preserve">
<style type="text/css">
	.st0x{fill:#FF26BE;}
</style>
<path class="st0x" d="M770-938.8v2437.5h2500V-938.8H770z M874.2-834.6h2291.7v2229.2H874.2V-834.6z"/>
<path class="st0x" d="M2585.6,85.2c-15.6-7.3-35.4-10.4-60.4-10.4c-131.3,0-218.8,101-218.8,268.8c0,191.7,89.6,268.8,206.3,268.8
	c25,0,52.1-3.1,71.9-11.5V85.2H2585.6z M2119,351.9c0-242.7,156.3-432.3,412.5-432.3c21.9,0,33.3,0,54.2,2.1v-270.8
	c0-6.3,5.2-10.4,10.4-10.4h167.7c8.3,0,10.4,3.1,10.4,8.3v952.1c0,28.1,0,63.5,5.2,102.1c0,7.3,0,8.3-6.3,11.5
	c-87.5,41.7-179.2,60.4-266.7,60.4C2280.4,774.8,2119,635.2,2119,351.9L2119,351.9z M1763.8,183.1l291.7,565.6
	c5.2,8.3,2.1,16.7-6.3,16.7h-181.3c-11.5,0-16.7-3.1-21.9-13.5c-66.7-137.5-134.4-280.2-204.2-428.1h-2.1
	c-62.5,139.6-131.3,291.7-197.9,429.2c-5.2,8.3-10.4,11.5-18.8,11.5h-172.9c-10.4,0-11.5-8.3-6.3-14.6l285.4-549l-276-545.8
	c-6.3-8.3,0-15.6,7.3-15.6h179.2c10.4,0,15.6,2.1,18.8,11.5c65.6,138.5,132.3,275,194.8,414.6h2.1c60.4-137.5,127.1-276,190.6-412.5
	c5.2-8.3,8.3-13.5,18.8-13.5h167.7c8.3,0,11.5,6.2,6.3,15.6L1763.8,183.1L1763.8,183.1z"/>
</svg>
