<svg xmlns="http://www.w3.org/2000/svg" viewBox="770 -939 2500 2438" fill="#ff26be"><path d="M770-938.8v2437.5h2500V-938.8H770zm104.2 104.2h2291.7v2229.2H874.2V-834.6zM2585.6 85.2c-15.6-7.3-35.4-10.4-60.4-10.4-131.3 0-218.8 101-218.8 268.8 0 191.7 89.6 268.8 206.3 268.8 25 0 52.1-3.1 71.9-11.5V85.2h1zM2119 351.9c0-242.7 156.3-432.3 412.5-432.3 21.9 0 33.3 0 54.2 2.1v-270.8c0-6.3 5.2-10.4 10.4-10.4h167.7c8.3 0 10.4 3.1 10.4 8.3v952.1c0 28.1 0 63.5 5.2 102.1 0 7.3 0 8.3-6.3 11.5-87.5 41.7-179.2 60.4-266.7 60.4-226-.1-387.4-139.7-387.4-423zm-355.2-168.8l291.7 565.6c5.2 8.3 2.1 16.7-6.3 16.7h-181.3c-11.5 0-16.7-3.1-21.9-13.5l-204.2-428.1h-2.1L1441.8 753c-5.2 8.3-10.4 11.5-18.8 11.5h-172.9c-10.4 0-11.5-8.3-6.3-14.6l285.4-549-276-545.8c-6.3-8.3 0-15.6 7.3-15.6h179.2c10.4 0 15.6 2.1 18.8 11.5l194.8 414.6h2.1c60.4-137.5 127.1-276 190.6-412.5 5.2-8.3 8.3-13.5 18.8-13.5h167.7c8.3 0 11.5 6.2 6.3 15.6l-275 527.9z"/></svg>