<svg xmlns="http://www.w3.org/2000/svg" width="187" height="187" xmlns:v="https://vecta.io/nano"><defs><clipPath id="A"><path d="M0 0h187v187H0z"/></clipPath></defs><g clip-path="url(#A)"><path d="M137.984 169.973a80.71 80.71 0 0 0 34.768-33.129l-.33-.188-.356.752-37.514-17.745a36.55 36.55 0 0 1-11.98 11.671zm-15.1 5.79l-15.524-38.915c-2.657.432-5.346.647-8.038.643-2.865.004-5.725-.249-8.545-.755l-15.113 39.023a91.39 91.39 0 0 0 23.982 3.135 86.96 86.96 0 0 0 23.235-3.131zM55.984 93.5c0 16.433 7.625 29.923 19.692 37.459l-15.143 39.1C32.438 156.274 14.252 127.647 14.252 93.5c0-48.194 36.228-85.394 85.394-85.394 31.7 0 59.193 16.82 72.456 41.727l-.026.015-.03-.062-37.594 17.893c-7.035-11.413-19.993-18.493-35.129-18.493-24.907 0-43.344 18.437-43.344 44.314z" fill="none" stroke="#ff464c" stroke-width="2"/></g></svg>