<svg xmlns="http://www.w3.org/2000/svg" width="187" height="187" fill="none" xmlns:v="https://vecta.io/nano"><g clip-path="url(#B)"><mask id="A" maskUnits="userSpaceOnUse" x="0" y="0" width="187" height="187"><path d="M0 0H187V187H0V0Z" fill="#fff"/></mask><g mask="url(#A)"><path d="M93.502.903C47.64.906 8.549 34.169 1.206 79.439s19.228 89.184 62.737 103.685c4.673.865 6.388-2.028 6.388-4.5l-.127-17.408c-26.012 5.656-31.5-11.032-31.5-11.032-4.254-10.805-10.382-13.681-10.382-13.681-8.483-5.8.639-5.685.639-5.685 9.389.66 14.333 9.636 14.333 9.636 8.339 14.294 21.873 10.161 27.208 7.773.839-6.044 3.262-10.168 5.936-12.5-20.767-2.365-42.6-10.382-42.6-46.208a36.18 36.18 0 0 1 9.634-25.1c-.971-2.355-4.171-11.865.906-24.744 0 0 7.851-2.513 25.719 9.584a88.7 88.7 0 0 1 46.825 0c17.846-12.1 25.687-9.584 25.687-9.584 5.089 12.879 1.888 22.388.917 24.744 6.318 6.817 9.764 15.807 9.622 25.1 0 35.911-21.873 43.819-42.693 46.133 3.353 2.9 6.342 8.592 6.342 17.315l-.109 25.659c0 2.488 1.683 5.4 6.423 4.486 43.488-14.526 70.03-58.439 62.676-103.695S139.352.911 93.502.903z" fill="#949494"/></g></g><defs><clipPath id="B"><path fill="#fff" d="M0 0h187v187H0z"/></clipPath></defs></svg>