<svg xmlns="http://www.w3.org/2000/svg" width="187" height="187" xmlns:v="https://vecta.io/nano"><defs><clipPath id="A"><path d="M0 0h187v187H0z"/></clipPath></defs><g clip-path="url(#A)"><path d="M2.873 57.249v4.96h35.281v-4.96zm40.28 0v4.96H93.43s-5.136-4.96-11.938-4.96zm60.14 0v4.96h30.417l-1.806-4.96zm52.224 0l-1.805 4.96h30.141v-4.96zM2.873 66.896v4.96h35.281v-4.96zm40.28.007v4.954h56.111s-.655-3.818-1.8-4.954H43.153zm60.14 0v4.954h33.752l-1.672-4.954h-32.081zm48.613 0l-1.671 4.954h33.617v-4.954zm-138.894 9.64v4.967h15.279v-4.967H13.012zm40.28 0v4.967h15.281v-4.967H53.292zm30.141 0v4.967h15.279a16.9 16.9 0 0 0 .97-4.967h-16.25zm30 0v4.967h27.089l-1.805-4.967h-25.285zm35.146 0l-1.813 4.967h27.224v-4.967h-25.412zM13.012 86.197v4.96h15.279v-4.96H13.012zm40.28 0v4.96h39.026s3.265-2.545 4.3-4.96zm60.14 0v4.96h15.279v-2.761l.97 2.761h27.992l1.041-2.761v2.761h15.279v-4.96h-28.686l-1.522 4.2-1.529-4.2zm-100.42 9.646v4.96h15.279v-4.96zm40.28 0v4.96h43.331c-1.04-2.407-4.3-4.96-4.3-4.96zm60.14 0v4.96h15.279v-4.96zm18.055 0l1.848 4.96h20.986l1.756-4.96zm27.224 0v4.96h15.279v-4.96zm-145.7 9.647v4.959h15.28v-4.96zm40.28 0v4.959h15.282v-4.96zm30.141 0v4.959h16.25a16.84 16.84 0 0 0-.97-4.96h-15.28zm30 0v4.959h15.279v-4.96zm21.524 0l1.791 4.96h14.068l1.805-4.96zm23.754 0v4.959h15.279v-4.96zM3.149 115.137v4.967H38.43v-4.967zm40 0v4.967h54.316c1.143-1.137 1.8-4.967 1.8-4.967zm60.416 0v4.967h25.142v-4.967zm34.863 0l1.841 4.967h7.158l1.728-4.967zm20.278 0v4.967h25.418v-4.967zM3.149 124.791v4.958H38.43v-4.96zm40 0v4.953h38.34c6.8 0 11.937-4.953 11.937-4.953zm60.416 0v4.958h25.142v-4.96zm38.354 0l1.77 4.946.3.007 1.8-4.953zm16.787 0v4.958h25.418v-4.96z" fill="none" stroke="#1f70c1" stroke-width="2"/></g></svg>