<svg xmlns="http://www.w3.org/2000/svg" xmlns:xlink="http://www.w3.org/1999/xlink" width="16" height="16" fill="none" xmlns:v="https://vecta.io/nano"><g clip-path="url(#D)"><mask id="A" maskUnits="userSpaceOnUse" x="0" y="0" width="16" height="16"><path d="M0 0H16V16H0V0Z" fill="#fff"/></mask><g mask="url(#A)"><mask id="B" maskUnits="userSpaceOnUse" x="0" y="0" width="16" height="16"><path d="M0 0H16V16H0V0Z" fill="#fff"/></mask><g mask="url(#B)"><mask id="C" maskUnits="userSpaceOnUse" x="0" y="0" width="16" height="16"><path d="M0 0H16V16H0V0Z" fill="#fff"/></mask><g mask="url(#C)"><path d="M13.44 13.57H2.558a1 1 0 0 1-1-1V5.001a.43.43 0 0 1 .429-.429h12.025a.43.43 0 0 1 .429.429v7.564a1 1 0 0 1-.618.929c-.122.05-.251.076-.383.076z" fill="#8d8d8d"/><path d="M14.012 4.57H8v9h5.44a1 1 0 0 0 1-1V5.001a.43.43 0 0 0-.428-.431z" fill="#757575"/><path d="M14.442 5.429H1.558v-2a1 1 0 0 1 1-1h10.88a1 1 0 0 1 1 1l.004 2z" fill="#515c6a"/><path d="M5.129 11.434L3.482 9.787a.43.43 0 0 1 0-.607l1.647-1.647a.43.43 0 0 1 .607 0 .43.43 0 0 1 0 .607L4.393 9.483l1.343 1.343a.43.43 0 0 1 .001.607.43.43 0 0 1-.608.001zm1.367-.019l2.458-4.258a.43.43 0 0 1 .587-.158.43.43 0 0 1 .158.587L7.24 11.844a.43.43 0 0 1-.587.158.43.43 0 0 1-.157-.587z" fill="#fff"/><path d="M14.442 3.431a1 1 0 0 0-1-1H8v3h6.442v-2z" fill="#3b434d"/><path d="M10.264 10.827l1.343-1.343-1.343-1.343a.43.43 0 0 1 0-.607.43.43 0 0 1 .607 0l1.647 1.648a.43.43 0 0 1 0 .607l-1.647 1.647a.43.43 0 0 1-.607-.609zm-1.31-3.671L8 8.809v1.718l1.7-2.941a.43.43 0 0 0-.168-.571.43.43 0 0 0-.578.141z" fill="#dfdfdf"/></g></g></g><use xlink:href="#E" fill="#ff5a54"/><use xlink:href="#F" fill="#e5be3d"/><path d="M5.755 3.925c0 .179-.146.325-.325.325s-.325-.146-.325-.325.146-.325.325-.325.325.145.325.325z" fill="#55c233"/></g><defs><clipPath id="D"><path fill="#fff" d="M0 0h16v16H0z"/></clipPath><path id="E" d="M3.69 3.925c0 .179-.146.325-.325.325s-.325-.146-.325-.325.146-.325.325-.325.325.145.325.325z"/><path id="F" d="M4.73 3.925c0 .179-.146.325-.325.325s-.325-.146-.325-.325.146-.325.325-.325.325.145.325.325z"/></defs></svg>