<svg xmlns="http://www.w3.org/2000/svg" width="573.063" height="610.411" viewBox="0 0 573.063 610.411">
  <g id="Group_981" data-name="Group 981" transform="translate(-686.102 -357.593)">
    <g id="Group_974" data-name="Group 974" transform="translate(377.953 179.418)">
      <g id="Group_437" data-name="Group 437" transform="translate(467.149 410.974)">
        <path id="Path_1684" data-name="Path 1684" d="M591.009,429.751l-123.86-71.9V404.2l123.871,71.7Z" transform="translate(-467.149 -284.281)" fill="#5b5b5b"/>
        <path id="Path_1685" data-name="Path 1685" d="M595.17,346.683l-128.021,73.57,123.86,71.9,128.2-73.679Z" transform="translate(-467.149 -346.683)" fill="#3d3d3d"/>
        <path id="Path_1686" data-name="Path 1686" d="M614.155,357.581l-128.2,73.68.01,46.142,128.192-74.169Z" transform="translate(-362.092 -285.792)" fill="#303030"/>
      </g>
      <g id="Group_438" data-name="Group 438" transform="translate(467.149 335.175)">
        <path id="Path_1687" data-name="Path 1687" d="M591.009,418.243l-123.86-71.9v46.344l123.871,71.7Z" transform="translate(-467.149 -272.774)" fill="#5b5b5b"/>
        <path id="Path_1688" data-name="Path 1688" d="M595.17,335.175l-128.021,73.57,123.86,71.9,128.2-73.679Z" transform="translate(-467.149 -335.175)" fill="#3d3d3d"/>
        <path id="Path_1689" data-name="Path 1689" d="M614.155,346.074l-128.2,73.68.01,46.143,128.192-74.169Z" transform="translate(-362.092 -274.285)" fill="#303030"/>
      </g>
      <g id="Group_439" data-name="Group 439" transform="translate(534.462 372.462)">
        <path id="Path_1690" data-name="Path 1690" d="M572.563,403.6l-7.786-4.492a72.021,72.021,0,0,1-18.213,4.38l.033,6.344-18.891.007-.046-6.35a72.928,72.928,0,0,1-18.239-4.38l-7.733,4.492-13.417-7.746L496,391.365a24.581,24.581,0,0,1-7.621-10.552H477.427l-.059-10.948h10.954a24.286,24.286,0,0,1,7.5-10.565l-7.773-4.486,13.319-7.74,7.766,4.486a72.825,72.825,0,0,1,18.206-4.374l-.026-6.35h18.905l.026,6.35a72.635,72.635,0,0,1,18.253,4.374l7.733-4.492,13.411,7.746-7.733,4.492a24.419,24.419,0,0,1,7.615,10.559H596.5l.053,10.941-10.968.007a23.96,23.96,0,0,1-7.489,10.559l7.779,4.492Zm-53.072-18.114c9.716,5.612,25.413,5.612,35.063,0s9.6-14.7-.119-20.3-25.406-5.612-35.056,0-9.6,14.7.112,20.3" transform="translate(-477.368 -340.836)" fill="#67bcf4"/>
      </g>
    </g>
    <g id="Group_975" data-name="Group 975" transform="translate(377.953 22.418)">
      <g id="Group_437-2" data-name="Group 437" transform="translate(467.149 410.974)">
        <path id="Path_1684-2" data-name="Path 1684" d="M591.009,429.751l-123.86-71.9V404.2l123.871,71.7Z" transform="translate(-467.149 -284.281)" fill="#5b5b5b"/>
        <path id="Path_1685-2" data-name="Path 1685" d="M595.17,346.683l-128.021,73.57,123.86,71.9,128.2-73.679Z" transform="translate(-467.149 -346.683)" fill="#3d3d3d"/>
        <path id="Path_1686-2" data-name="Path 1686" d="M614.155,357.581l-128.2,73.68.01,46.142,128.192-74.169Z" transform="translate(-362.092 -285.792)" fill="#303030"/>
      </g>
      <g id="Group_438-2" data-name="Group 438" transform="translate(467.149 335.175)">
        <path id="Path_1687-2" data-name="Path 1687" d="M591.009,418.243l-123.86-71.9v46.344l123.871,71.7Z" transform="translate(-467.149 -272.774)" fill="#5b5b5b"/>
        <path id="Path_1688-2" data-name="Path 1688" d="M595.17,335.175l-128.021,73.57,123.86,71.9,128.2-73.679Z" transform="translate(-467.149 -335.175)" fill="#3d3d3d"/>
        <path id="Path_1689-2" data-name="Path 1689" d="M614.155,346.074l-128.2,73.68.01,46.143,128.192-74.169Z" transform="translate(-362.092 -274.285)" fill="#303030"/>
      </g>
      <g id="Group_439-2" data-name="Group 439" transform="translate(534.462 372.462)">
        <path id="Path_1690-2" data-name="Path 1690" d="M572.563,403.6l-7.786-4.492a72.021,72.021,0,0,1-18.213,4.38l.033,6.344-18.891.007-.046-6.35a72.928,72.928,0,0,1-18.239-4.38l-7.733,4.492-13.417-7.746L496,391.365a24.581,24.581,0,0,1-7.621-10.552H477.427l-.059-10.948h10.954a24.286,24.286,0,0,1,7.5-10.565l-7.773-4.486,13.319-7.74,7.766,4.486a72.825,72.825,0,0,1,18.206-4.374l-.026-6.35h18.905l.026,6.35a72.635,72.635,0,0,1,18.253,4.374l7.733-4.492,13.411,7.746-7.733,4.492a24.419,24.419,0,0,1,7.615,10.559H596.5l.053,10.941-10.968.007a23.96,23.96,0,0,1-7.489,10.559l7.779,4.492Zm-53.072-18.114c9.716,5.612,25.413,5.612,35.063,0s9.6-14.7-.119-20.3-25.406-5.612-35.056,0-9.6,14.7.112,20.3" transform="translate(-477.368 -340.836)" fill="#67bcf4"/>
      </g>
    </g>
    <g id="Group_978" data-name="Group 978" transform="translate(539.953 269.418)">
      <g id="Group_437-3" data-name="Group 437" transform="translate(467.149 410.974)">
        <path id="Path_1684-3" data-name="Path 1684" d="M591.009,429.751l-123.86-71.9V404.2l123.871,71.7Z" transform="translate(-467.149 -284.281)" fill="#5b5b5b"/>
        <path id="Path_1685-3" data-name="Path 1685" d="M595.17,346.683l-128.021,73.57,123.86,71.9,128.2-73.679Z" transform="translate(-467.149 -346.683)" fill="#3d3d3d"/>
        <path id="Path_1686-3" data-name="Path 1686" d="M614.155,357.581l-128.2,73.68.01,46.142,128.192-74.169Z" transform="translate(-362.092 -285.792)" fill="#303030"/>
      </g>
      <g id="Group_438-3" data-name="Group 438" transform="translate(467.149 335.175)">
        <path id="Path_1687-3" data-name="Path 1687" d="M591.009,418.243l-123.86-71.9v46.344l123.871,71.7Z" transform="translate(-467.149 -272.774)" fill="#5b5b5b"/>
        <path id="Path_1688-3" data-name="Path 1688" d="M595.17,335.175l-128.021,73.57,123.86,71.9,128.2-73.679Z" transform="translate(-467.149 -335.175)" fill="#3d3d3d"/>
        <path id="Path_1689-3" data-name="Path 1689" d="M614.155,346.074l-128.2,73.68.01,46.143,128.192-74.169Z" transform="translate(-362.092 -274.285)" fill="#303030"/>
      </g>
      <g id="Group_439-3" data-name="Group 439" transform="translate(534.462 372.462)">
        <path id="Path_1690-3" data-name="Path 1690" d="M572.563,403.6l-7.786-4.492a72.021,72.021,0,0,1-18.213,4.38l.033,6.344-18.891.007-.046-6.35a72.928,72.928,0,0,1-18.239-4.38l-7.733,4.492-13.417-7.746L496,391.365a24.581,24.581,0,0,1-7.621-10.552H477.427l-.059-10.948h10.954a24.286,24.286,0,0,1,7.5-10.565l-7.773-4.486,13.319-7.74,7.766,4.486a72.825,72.825,0,0,1,18.206-4.374l-.026-6.35h18.905l.026,6.35a72.635,72.635,0,0,1,18.253,4.374l7.733-4.492,13.411,7.746-7.733,4.492a24.419,24.419,0,0,1,7.615,10.559H596.5l.053,10.941-10.968.007a23.96,23.96,0,0,1-7.489,10.559l7.779,4.492Zm-53.072-18.114c9.716,5.612,25.413,5.612,35.063,0s9.6-14.7-.119-20.3-25.406-5.612-35.056,0-9.6,14.7.112,20.3" transform="translate(-477.368 -340.836)" fill="#67bcf4"/>
      </g>
    </g>
    <g id="Group_977" data-name="Group 977" transform="translate(218.953 269.418)">
      <g id="Group_437-4" data-name="Group 437" transform="translate(467.149 410.974)">
        <path id="Path_1684-4" data-name="Path 1684" d="M591.009,429.751l-123.86-71.9V404.2l123.871,71.7Z" transform="translate(-467.149 -284.281)" fill="#5b5b5b"/>
        <path id="Path_1685-4" data-name="Path 1685" d="M595.17,346.683l-128.021,73.57,123.86,71.9,128.2-73.679Z" transform="translate(-467.149 -346.683)" fill="#3d3d3d"/>
        <path id="Path_1686-4" data-name="Path 1686" d="M614.155,357.581l-128.2,73.68.01,46.142,128.192-74.169Z" transform="translate(-362.092 -285.792)" fill="#303030"/>
      </g>
      <g id="Group_438-4" data-name="Group 438" transform="translate(467.149 335.175)">
        <path id="Path_1687-4" data-name="Path 1687" d="M591.009,418.243l-123.86-71.9v46.344l123.871,71.7Z" transform="translate(-467.149 -272.774)" fill="#5b5b5b"/>
        <path id="Path_1688-4" data-name="Path 1688" d="M595.17,335.175l-128.021,73.57,123.86,71.9,128.2-73.679Z" transform="translate(-467.149 -335.175)" fill="#3d3d3d"/>
        <path id="Path_1689-4" data-name="Path 1689" d="M614.155,346.074l-128.2,73.68.01,46.143,128.192-74.169Z" transform="translate(-362.092 -274.285)" fill="#303030"/>
      </g>
      <g id="Group_439-4" data-name="Group 439" transform="translate(534.462 372.462)">
        <path id="Path_1690-4" data-name="Path 1690" d="M572.563,403.6l-7.786-4.492a72.021,72.021,0,0,1-18.213,4.38l.033,6.344-18.891.007-.046-6.35a72.928,72.928,0,0,1-18.239-4.38l-7.733,4.492-13.417-7.746L496,391.365a24.581,24.581,0,0,1-7.621-10.552H477.427l-.059-10.948h10.954a24.286,24.286,0,0,1,7.5-10.565l-7.773-4.486,13.319-7.74,7.766,4.486a72.825,72.825,0,0,1,18.206-4.374l-.026-6.35h18.905l.026,6.35a72.635,72.635,0,0,1,18.253,4.374l7.733-4.492,13.411,7.746-7.733,4.492a24.419,24.419,0,0,1,7.615,10.559H596.5l.053,10.941-10.968.007a23.96,23.96,0,0,1-7.489,10.559l7.779,4.492Zm-53.072-18.114c9.716,5.612,25.413,5.612,35.063,0s9.6-14.7-.119-20.3-25.406-5.612-35.056,0-9.6,14.7.112,20.3" transform="translate(-477.368 -340.836)" fill="#67bcf4"/>
      </g>
    </g>
    <g id="Group_979" data-name="Group 979" transform="translate(218.953 107.418)">
      <g id="Group_437-5" data-name="Group 437" transform="translate(467.149 410.974)">
        <path id="Path_1684-5" data-name="Path 1684" d="M591.009,429.751l-123.86-71.9V404.2l123.871,71.7Z" transform="translate(-467.149 -284.281)" fill="#5b5b5b"/>
        <path id="Path_1685-5" data-name="Path 1685" d="M595.17,346.683l-128.021,73.57,123.86,71.9,128.2-73.679Z" transform="translate(-467.149 -346.683)" fill="#3d3d3d"/>
        <path id="Path_1686-5" data-name="Path 1686" d="M614.155,357.581l-128.2,73.68.01,46.142,128.192-74.169Z" transform="translate(-362.092 -285.792)" fill="#303030"/>
      </g>
      <g id="Group_438-5" data-name="Group 438" transform="translate(467.149 335.175)">
        <path id="Path_1687-5" data-name="Path 1687" d="M591.009,418.243l-123.86-71.9v46.344l123.871,71.7Z" transform="translate(-467.149 -272.774)" fill="#5b5b5b"/>
        <path id="Path_1688-5" data-name="Path 1688" d="M595.17,335.175l-128.021,73.57,123.86,71.9,128.2-73.679Z" transform="translate(-467.149 -335.175)" fill="#3d3d3d"/>
        <path id="Path_1689-5" data-name="Path 1689" d="M614.155,346.074l-128.2,73.68.01,46.143,128.192-74.169Z" transform="translate(-362.092 -274.285)" fill="#303030"/>
      </g>
      <g id="Group_439-5" data-name="Group 439" transform="translate(534.462 372.462)">
        <path id="Path_1690-5" data-name="Path 1690" d="M572.563,403.6l-7.786-4.492a72.021,72.021,0,0,1-18.213,4.38l.033,6.344-18.891.007-.046-6.35a72.928,72.928,0,0,1-18.239-4.38l-7.733,4.492-13.417-7.746L496,391.365a24.581,24.581,0,0,1-7.621-10.552H477.427l-.059-10.948h10.954a24.286,24.286,0,0,1,7.5-10.565l-7.773-4.486,13.319-7.74,7.766,4.486a72.825,72.825,0,0,1,18.206-4.374l-.026-6.35h18.905l.026,6.35a72.635,72.635,0,0,1,18.253,4.374l7.733-4.492,13.411,7.746-7.733,4.492a24.419,24.419,0,0,1,7.615,10.559H596.5l.053,10.941-10.968.007a23.96,23.96,0,0,1-7.489,10.559l7.779,4.492Zm-53.072-18.114c9.716,5.612,25.413,5.612,35.063,0s9.6-14.7-.119-20.3-25.406-5.612-35.056,0-9.6,14.7.112,20.3" transform="translate(-477.368 -340.836)" fill="#67bcf4"/>
      </g>
    </g>
    <g id="Group_980" data-name="Group 980" transform="translate(539.953 107.418)">
      <g id="Group_437-6" data-name="Group 437" transform="translate(467.149 410.974)">
        <path id="Path_1684-6" data-name="Path 1684" d="M591.009,429.751l-123.86-71.9V404.2l123.871,71.7Z" transform="translate(-467.149 -284.281)" fill="#5b5b5b"/>
        <path id="Path_1685-6" data-name="Path 1685" d="M595.17,346.683l-128.021,73.57,123.86,71.9,128.2-73.679Z" transform="translate(-467.149 -346.683)" fill="#3d3d3d"/>
        <path id="Path_1686-6" data-name="Path 1686" d="M614.155,357.581l-128.2,73.68.01,46.142,128.192-74.169Z" transform="translate(-362.092 -285.792)" fill="#303030"/>
      </g>
      <g id="Group_438-6" data-name="Group 438" transform="translate(467.149 335.175)">
        <path id="Path_1687-6" data-name="Path 1687" d="M591.009,418.243l-123.86-71.9v46.344l123.871,71.7Z" transform="translate(-467.149 -272.774)" fill="#5b5b5b"/>
        <path id="Path_1688-6" data-name="Path 1688" d="M595.17,335.175l-128.021,73.57,123.86,71.9,128.2-73.679Z" transform="translate(-467.149 -335.175)" fill="#3d3d3d"/>
        <path id="Path_1689-6" data-name="Path 1689" d="M614.155,346.074l-128.2,73.68.01,46.143,128.192-74.169Z" transform="translate(-362.092 -274.285)" fill="#303030"/>
      </g>
      <g id="Group_439-6" data-name="Group 439" transform="translate(534.462 372.462)">
        <path id="Path_1690-6" data-name="Path 1690" d="M572.563,403.6l-7.786-4.492a72.021,72.021,0,0,1-18.213,4.38l.033,6.344-18.891.007-.046-6.35a72.928,72.928,0,0,1-18.239-4.38l-7.733,4.492-13.417-7.746L496,391.365a24.581,24.581,0,0,1-7.621-10.552H477.427l-.059-10.948h10.954a24.286,24.286,0,0,1,7.5-10.565l-7.773-4.486,13.319-7.74,7.766,4.486a72.825,72.825,0,0,1,18.206-4.374l-.026-6.35h18.905l.026,6.35a72.635,72.635,0,0,1,18.253,4.374l7.733-4.492,13.411,7.746-7.733,4.492a24.419,24.419,0,0,1,7.615,10.559H596.5l.053,10.941-10.968.007a23.96,23.96,0,0,1-7.489,10.559l7.779,4.492Zm-53.072-18.114c9.716,5.612,25.413,5.612,35.063,0s9.6-14.7-.119-20.3-25.406-5.612-35.056,0-9.6,14.7.112,20.3" transform="translate(-477.368 -340.836)" fill="#67bcf4"/>
      </g>
    </g>
    <g id="Group_976" data-name="Group 976" transform="translate(377.953 365.418)">
      <g id="Group_437-7" data-name="Group 437" transform="translate(467.149 410.974)">
        <path id="Path_1684-7" data-name="Path 1684" d="M591.009,429.751l-123.86-71.9V404.2l123.871,71.7Z" transform="translate(-467.149 -284.281)" fill="#5b5b5b"/>
        <path id="Path_1685-7" data-name="Path 1685" d="M595.17,346.683l-128.021,73.57,123.86,71.9,128.2-73.679Z" transform="translate(-467.149 -346.683)" fill="#3d3d3d"/>
        <path id="Path_1686-7" data-name="Path 1686" d="M614.155,357.581l-128.2,73.68.01,46.142,128.192-74.169Z" transform="translate(-362.092 -285.792)" fill="#303030"/>
      </g>
      <g id="Group_438-7" data-name="Group 438" transform="translate(467.149 335.175)">
        <path id="Path_1687-7" data-name="Path 1687" d="M591.009,418.243l-123.86-71.9v46.344l123.871,71.7Z" transform="translate(-467.149 -272.774)" fill="#5b5b5b"/>
        <path id="Path_1688-7" data-name="Path 1688" d="M595.17,335.175l-128.021,73.57,123.86,71.9,128.2-73.679Z" transform="translate(-467.149 -335.175)" fill="#3d3d3d"/>
        <path id="Path_1689-7" data-name="Path 1689" d="M614.155,346.074l-128.2,73.68.01,46.143,128.192-74.169Z" transform="translate(-362.092 -274.285)" fill="#303030"/>
      </g>
      <g id="Group_439-7" data-name="Group 439" transform="translate(534.462 372.462)">
        <path id="Path_1690-7" data-name="Path 1690" d="M572.563,403.6l-7.786-4.492a72.021,72.021,0,0,1-18.213,4.38l.033,6.344-18.891.007-.046-6.35a72.928,72.928,0,0,1-18.239-4.38l-7.733,4.492-13.417-7.746L496,391.365a24.581,24.581,0,0,1-7.621-10.552H477.427l-.059-10.948h10.954a24.286,24.286,0,0,1,7.5-10.565l-7.773-4.486,13.319-7.74,7.766,4.486a72.825,72.825,0,0,1,18.206-4.374l-.026-6.35h18.905l.026,6.35a72.635,72.635,0,0,1,18.253,4.374l7.733-4.492,13.411,7.746-7.733,4.492a24.419,24.419,0,0,1,7.615,10.559H596.5l.053,10.941-10.968.007a23.96,23.96,0,0,1-7.489,10.559l7.779,4.492Zm-53.072-18.114c9.716,5.612,25.413,5.612,35.063,0s9.6-14.7-.119-20.3-25.406-5.612-35.056,0-9.6,14.7.112,20.3" transform="translate(-477.368 -340.836)" fill="#67bcf4"/>
      </g>
    </g>
  </g>
</svg>
