<svg xmlns="http://www.w3.org/2000/svg" viewBox="-3 218.4 89.1 76.2"><path d="M85.4 254.6c-.2-.2-4.3-5.6-11.7-11-3-2.2-6.1-4.1-9.3-5.6l14.2-14.2a3.14 3.14 0 0 0 0-4.4 3.14 3.14 0 0 0-4.4 0l-16.1 16.1c-5.4-1.8-11-2.8-16.6-2.8-11.3 0-22.4 3.8-32.3 11-7.4 5.4-11.5 10.8-11.7 11-.8 1.1-.8 2.6 0 3.8.2.2 4.3 5.6 11.7 11 3 2.2 6.1 4.1 9.3 5.6L4.3 289.2a3.14 3.14 0 0 0 0 4.4c.6.6 1.4.9 2.2.9s1.6-.3 2.2-.9l16.1-16.1c5.4 1.8 11 2.8 16.6 2.8 11.3 0 22.4-3.8 32.3-11 7.4-5.4 11.5-10.8 11.7-11 .9-1 .9-2.6 0-3.7zm-26.3 1.9c0 9.7-7.9 17.6-17.6 17.6-3.7 0-7.2-1.2-10-3.1l7.2-7.2c.9.3 1.8.5 2.8.5 4.3 0 7.8-3.5 7.8-7.8 0-1-.2-1.9-.5-2.8l7.2-7.2c1.9 2.8 3.1 6.3 3.1 10zm-35.2 0c0-9.7 7.9-17.6 17.6-17.6 3.7 0 7.2 1.2 10 3.1l-7.2 7.2c-.9-.3-1.8-.5-2.8-.5-4.3 0-7.8 3.5-7.8 7.8 0 1 .2 1.9.5 2.8l-7.2 7.2c-1.9-2.8-3.1-6.3-3.1-10zm-19.7 0c1.7-1.9 4.7-4.9 8.9-7.9 2.7-2 5.5-3.6 8.4-5-2.4 3.7-3.8 8.2-3.8 13s1.4 9.2 3.8 13c-2.9-1.4-5.7-3-8.4-5-4.2-3.2-7.2-6.2-8.9-8.1zm65.7 7.9c-2.7 2-5.5 3.6-8.4 5 2.4-3.7 3.8-8.2 3.8-13s-1.4-9.2-3.8-13c2.9 1.4 5.7 3 8.4 5 4.2 3 7.2 6.1 8.9 7.9-1.7 2.1-4.7 5.1-8.9 8.1z"/></svg>