<svg xmlns="http://www.w3.org/2000/svg" fill="none" viewBox="0 0 187 187" xmlns:v="https://vecta.io/nano"><g clip-path="url(#A)"><path fill="#ee6400" d="M77 9a29 29 0 0 1 30 30h59c0 10-2 15-8 22l-4 3-1 1a29 29 0 0 1-6 3h-1l-8 1h-31v25h15l12 1h1c7 2 13 5 18 10l1 1c7 5 12 15 13 23v8c0 4 0 8-2 12v1a31 31 0 0 1-1 1v1l-5 9-1 1c-5 7-13 12-22 14v1h-20c-4 0-8 0-12-2h-1c-5-2-10-6-14-10a41 41 0 0 1-12-29v-12h-9l-16-1v-1c-11-2-21-9-27-19l-5-13c-2-10 0-20 4-29l1-1 6-8c7-8 17-12 28-13h18V9zm3 2v83h25V40c0-7-2-14-7-19v-1l-4-3-1-1c-3-3-9-5-13-5zm27 30v26h25c9 0 18-1 25-9 5-4 8-10 8-16l-58-1zm-39 0h-3c-8 0-14 1-21 5h-1a40 40 0 0 0-22 35v1l1 8v1c3 8 7 15 13 21h1c8 6 17 9 26 9h63c4 1 7 2 10 5a15 15 0 0 1 0 20c-3 3-6 4-10 4h-4c-5 0-8-1-12-4-3-4-4-8-4-13v-10H79v10l2 14v1c2 6 6 11 10 16a39 39 0 0 0 31 12h1a43 43 0 0 0 33-16h1a40 40 0 0 0-8-56c-9-6-18-8-29-8H72a994 994 0 0 1-5 0h-2c-5 0-10-1-14-4-3-3-4-7-4-11s2-8 5-11l9-3h16V41h-9zM52 73c-2 2-3 6-3 9 0 4 2 7 5 9s6 3 10 3h13V69H64c-4 0-8 1-12 4zm55 51v10c0 5 1 8 4 11 2 2 5 3 8 3h4c4 0 8-1 11-3 2-3 3-6 3-10 0-3-1-5-3-7v-1a12 12 0 0 0-9-3h-18z"/></g><defs><clipPath id="A"><path fill="#fff" d="M19 9h148v169H19z"/></clipPath></defs></svg>