<svg xmlns="http://www.w3.org/2000/svg" viewBox="0 0 187 187" xmlns:v="https://vecta.io/nano"><defs><clipPath id="A"><path d="M0 0h187v187H0z"/></clipPath></defs><g clip-path="url(#A)"><path fill="none" stroke="#1f70c1" stroke-width="2" d="M3 57v5h35v-5zm40 0v5h50s-5-5-12-5zm60 0v5h31l-2-5zm53 0-2 5h30v-5zM3 67v5h35v-5zm40 0v5h56l-2-5H43zm60 0v5h34l-2-5h-32zm49 0-2 5h34v-5zM13 77v5h15v-5H13zm40 0v5h16v-5H53zm30 0v5h16a17 17 0 0 0 1-5H83zm30 0v5h28l-2-5h-26zm36 0-2 5h27v-5h-25zM13 86v5h15v-5H13zm40 0v5h39l5-5zm60 0v5h16v-3l1 3h28l1-3v3h15v-5h-29l-1 4-2-4zM13 96v5h15v-5zm40 0v5h44c-1-3-5-5-5-5zm60 0v5h16v-5zm18 0 2 5h21l2-5zm28 0v5h15v-5zm-146 9v5h15v-5zm40 0v5h16v-5zm30 0v5h17a17 17 0 0 0-1-5H83zm30 0v5h16v-5zm22 0 2 5h14l2-5zm24 0v5h15v-5zM3 115v5h35v-5zm40 0v5h54c2-1 2-5 2-5zm61 0v5h25v-5zm34 0 2 5h7l2-5zm21 0v5h25v-5zM3 125v5h35v-5zm40 0v5h38c7 0 12-5 12-5zm61 0v5h25v-5zm38 0 2 5 2-5zm17 0v5h25v-5z"/></g></svg>