<svg xmlns="http://www.w3.org/2000/svg" viewBox="0 0 187 187" xmlns:v="https://vecta.io/nano"><defs><clipPath id="A"><path d="M0 0h187v187H0z"/></clipPath></defs><g fill="none" clip-path="url(#A)" stroke-width="2"><path stroke="#95bf46" d="M153 38a2 2 0 0 0-1-1l-15-1-10-11h-4l-6 1c-3-9-9-17-18-17h-1c-3-4-7-6-10-6-23 0-34 29-38 44l-16 5c-5 2-5 2-6 7L15 164l102 20 56-12-20-134zm-41-10-9 3v-2a43 43 0 0 0-2-14c5 1 8 7 11 13zM95 16l2 16v1l-18 5c3-13 10-19 16-22zm-7-6a5 5 0 0 1 3 1c-8 3-16 12-19 30l-14 4c4-13 13-35 30-35z"/><path stroke="#5e8e3e" d="m152 37-15-1-10-11a3 3 0 0 0-2 0l-8 159 56-12-20-134a2 2 0 0 0-1-1"/><path stroke="#95bf46" d="m99 68-7 20a32 32 0 0 0-14-3c-11 0-11 7-11 9 0 9 24 12 24 34 0 17-11 29-25 29-18 0-27-11-27-11l5-16s9 8 17 8a7 7 0 0 0 7-7c0-12-20-13-20-33 0-17 12-33 36-33 10 0 15 3 15 3"/></g></svg>