<svg xmlns="http://www.w3.org/2000/svg" viewBox="0 0 187 187" xmlns:v="https://vecta.io/nano"><defs><clipPath id="A"><path d="M0 0h187v187H0z"/></clipPath></defs><g clip-path="url(#A)"><path fill="none" stroke="#ff464c" stroke-width="2" d="M138 170a81 81 0 0 0 35-33h-1l-37-17a37 37 0 0 1-12 11zm-15 6-16-39a50 50 0 0 1-16 0l-15 39a91 91 0 0 0 24 3 87 87 0 0 0 23-3zM56 94c0 16 8 29 20 37l-15 39a84 84 0 0 1-47-76c0-49 36-86 86-86 31 0 59 17 72 42l-38 18c-7-12-20-19-35-19-25 0-43 19-43 45z"/></g></svg>