<svg xmlns="http://www.w3.org/2000/svg" viewBox="0 0 187 187" xmlns:v="https://vecta.io/nano"><defs><clipPath id="A"><path d="M0 0h187v187H0z"/></clipPath></defs><g clip-path="url(#A)"><path fill="none" stroke="#f5bd00" stroke-width="2" d="M47 136C19 118 9 111 9 99a46 46 0 0 1 1-9l-3-2a21 21 0 0 0-3 12 28 28 0 0 0 5 15c4 6 8 11 18 18 11 8 18 18 23 28h1v-12c15 9 28 16 35 31h2c-3-15-12-26-41-44m82-38a39 39 0 0 0-15 12l13-1c0-6 1-10 2-11zm45 44 2-9-18-1a47 47 0 0 1-4 13l20-3zm-20-46a92 92 0 0 1 3 11l11-1-14-10zm-5 11-5-13h-6a92 92 0 0 0-4 14l15-1zm9 6a101 101 0 0 1 1 13l18-1a36 36 0 0 0-4-11zm-6 13a54 54 0 0 0-1-13l-18-1-3 15zm3-38 2-3-3-4 1-1 9 5-2 6a55 55 0 0 1 5 3l6-10-15-8h-35L96 92a62 62 0 0 1 13 12c7-11 20-18 33-18a50 50 0 0 1 13 2zm-67 0 14-9a20 20 0 0 0-10-3l-18 3 14 9zm3-34c-5-2-8-1-11 2a17 17 0 0 0 5 1 11 11 0 0 0 6-3zm85 126h-2c0-10-10-13-20-13h-31v17h-2c-3-23-16-35-34-48v11h-2c-5-11-15-21-26-29l-8-5v11h-1c-5-11-13-20-24-30C14 83 9 76 7 69c-3-5-3-9-3-14 0-8 4-17 10-20v4c-3 5-4 9-4 14s1 9 3 14c7 13 29 29 44 38 46 31 55 36 62 53a50 50 0 0 1 2 7l35-6h4l10-10-17-2a35 35 0 0 1-2 5h-2l2-6h-5v-1l5-1a56 56 0 0 0 1-14l-22-1v7h-1l-2-7h-4v-1h4a145 145 0 0 1 0-16l-13-1 1 4c3 7 3 14 2 21h-2a36 36 0 0 0-4-15c-3-8-11-16-25-24v11h-1c-5-14-16-22-33-31-13-7-17-15-17-28l5 3c1 12 11 19 20 19a75 75 0 0 0 17-2c8-2 14-3 20 0v-8h-3a16 16 0 0 1-10 3c-5 0-15-3-15-14 0-10 8-11 14-11h12l4-1V23H68v12l-12-4v-3h6v-5H41V13h-7c-4 0-8 3-8 7-1 6 1 10 6 10h1v6h-1a16 16 0 0 1-16-16c0-10 8-17 18-17h16v10h59v16a39 39 0 0 1-1 8c0 2 0 4-3 7l-9 1a65 65 0 0 1-11 0c-6-1-9 2-9 5v1c3-2 8-4 13-2 9 3 11 3 16-1v2c0 1-1 2-3 2h5v24l13-8h39l18 9c3 2 3 3 4 5l-1 6-7 11a40 40 0 0 1 10 28 40 40 0 0 1-15 32c5 1 8 4 11 8l-3 13"/></g></svg>