<svg xmlns="http://www.w3.org/2000/svg" width="187" height="187" xmlns:v="https://vecta.io/nano"><defs><clipPath id="A"><path d="M0 0h187v187H0z"/></clipPath></defs><g clip-path="url(#A)"><path d="M46.554 135.693C18.623 118.459 9.115 110.734 8.521 98.849a45.87 45.87 0 0 1 1.189-8.914l-2.377-1.783a21.42 21.42 0 0 0-3.566 11.885 28.02 28.02 0 0 0 4.754 15.451c4.16 5.943 8.32 10.1 18.422 17.234 10.7 8.32 18.422 17.828 22.582 27.93h1.783v-11.291c14.856 8.32 27.93 16.045 34.467 30.307h1.782c-2.971-14.262-11.291-25.553-41-43.975m82.008-38.033a39.27 39.27 0 0 0-14.262 11.885l12.479-.594c.591-5.943 1.185-9.508 1.779-11.291zm45.164 44.569c1.189-2.971 2.377-6.537 2.377-9.508l-18.422-1.189a47.21 47.21 0 0 1-3.566 13.074l19.611-2.377zm-19.615-45.756a91.65 91.65 0 0 1 2.971 10.1l10.7-.594c-3.568-4.159-8.318-7.13-13.671-9.506zm-4.754 10.7c-1.267-4.551-3.062-8.939-5.348-13.074h-5.945a91.94 91.94 0 0 0-4.16 13.668l15.451-.594zm8.914 5.943a100.73 100.73 0 0 1 .593 13.069l17.828-1.189a35.85 35.85 0 0 0-3.566-11.291zm-5.943 13.074a53.99 53.99 0 0 0-1.783-13.668l-17.828-.594c-1.189 5.348-1.783 10.7-2.377 15.451zm2.377-38.033l2.377-2.971-2.971-4.16.594-1.189 8.914 4.754-1.783 5.943a54.81 54.81 0 0 1 4.754 2.971l5.943-9.508-14.856-7.725h-34.467l-27.336 16.04a61.79 61.79 0 0 1 13.074 11.291c7.131-10.7 20.2-17.233 32.684-17.233a49.5 49.5 0 0 1 13.074 1.783zm-67.151-.599l14.856-8.914a19.53 19.53 0 0 0-10.1-2.377c-5.348 0-13.668 2.377-17.828 2.971 1.783 1.189 8.914 5.348 13.074 8.32zm3.566-33.873c-5.348-1.189-8.32-.594-11.291 2.377a17.35 17.35 0 0 0 5.348 1.189 11.3 11.3 0 0 0 5.943-3.566zm84.385 126.577h-1.783c0-10.7-9.508-13.074-19.611-13.074h-31.5c1.189 4.754 1.189 10.7.594 16.639h-1.783c-2.971-23.176-16.045-35.061-34.467-47.541v10.7H85.18c-4.754-11.291-15.451-21.393-26.147-28.524l-8.32-5.943v11.291h-1.188c-4.16-11.291-12.479-20.2-23.176-30.307C14.467 82.804 9.115 76.267 6.738 68.541c-2.377-4.16-2.377-8.32-2.971-13.074 0-8.914 4.16-17.234 10.1-20.2v4.16c-2.377 4.16-4.16 8.914-4.16 13.668.13 4.701 1.138 9.337 2.971 13.668 7.134 13.069 29.716 29.11 44.572 38.622 45.758 30.307 54.672 35.655 61.8 52.295a49.54 49.54 0 0 1 2.377 7.131c6.537-1.189 30.307-4.754 35.061-5.348.594 0 2.377-.594 3.566-.594 4.16-2.377 7.131-5.943 10.1-10.1l-17.234-1.783a35.28 35.28 0 0 1-2.377 4.754h-1.189c.594-1.783.594-3.566 1.189-5.348l-4.754-.594v-1.188l4.754-.594a55.53 55.53 0 0 0 1.189-13.668l-21.988-1.189v6.537h-1.189c-.594-2.377-.594-4.16-1.189-6.537h-4.754v-1.189h4.754a144.81 144.81 0 0 1-.594-16.045l-13.074-.594 1.783 3.566c2.397 6.673 2.81 13.897 1.189 20.8h-1.783a36.03 36.03 0 0 0-3.566-14.262c-3.554-8.324-11.284-16.05-24.954-24.369v10.7h-1.781c-4.16-14.266-15.451-21.993-32.09-30.311-13.668-7.131-17.829-15.45-17.229-28.524l4.754 2.971c1.189 11.885 10.7 19.016 20.2 19.016a75.15 75.15 0 0 0 16.639-1.783c7.725-1.783 14.262-2.971 20.2-.594V61.41H93.5a16.2 16.2 0 0 1-9.508 2.971c-5.348 0-15.451-2.971-15.451-14.262 0-10.1 8.32-11.291 14.856-11.291h11.886c1.783 0 2.377-.594 3.566-1.189 0-1.189.594-1.783.594-2.971V22.783H67.947v12.48l-11.885-4.754v-2.971h5.943v-4.754h-20.8v-10.1h-7.131c-4.16 0-8.32 2.971-8.32 7.725-.594 5.348 1.189 9.508 6.537 9.508h1.189v5.943h-1.189a15.98 15.98 0 0 1-16.045-16.048c0-9.508 7.721-16.639 17.828-16.639h15.451v10.1h59.426v15.453a39.25 39.25 0 0 1-.594 8.32c0 1.783-.594 4.16-3.566 6.537q-2.674 1.783-8.914 1.783a64.59 64.59 0 0 1-10.7-.594c-6.533-.599-8.91 2.376-8.91 4.753v1.783c2.971-2.377 7.725-4.16 12.479-2.377 8.914 2.971 11.291 2.971 16.045-.594l.594 1.189c-.828 1.141-1.83 2.143-2.971 2.971h4.16v23.77l13.668-8.32h38.625l18.422 9.508c2.377 1.189 2.971 2.971 3.566 4.754 0 1.783 0 4.16-1.189 5.348-.594 1.189-4.754 8.32-7.131 11.885a39.67 39.67 0 0 1 10.7 27.336 40.29 40.29 0 0 1-15.451 32.09c4.754 1.189 8.32 4.16 11.291 8.32l-3.566 13.074" fill="none" stroke="#f5bd00" stroke-width="2"/></g></svg>