<svg xmlns="http://www.w3.org/2000/svg" fill="none" viewBox="0 0 895 895" xmlns:v="https://vecta.io/nano"><style><![CDATA[.H{fill:#2a1e17}.I{fill:#a0c6f4}.J{fill:#fff}.K{fill:#ff6d66}.L{fill:#91ba83}.M{fill:#ffe7cf}.N{fill:#2a1e33}]]></style><defs><path id="A" d="M0 0h895v895H0V0Z" class="J"/></defs><g clip-path="url(#D)"><mask id="B" width="895" height="895" x="0" y="0" maskUnits="userSpaceOnUse"><use href="#A" class="J"/></mask><g mask="url(#B)"><mask id="C" width="895" height="895" x="0" y="0" maskUnits="userSpaceOnUse"><use href="#A" class="J"/></mask><g mask="url(#C)"><path d="m480 692 8-12 23 40-5 5-26-33m160-100s12-20 7-29l-39 4 32 25" class="M"/><path fill="#000" d="m640 592-3 6 8 28v6l-3 4-37-53c-3-5-2-12 3-16l7-8 25 33"/><path d="M657 315c4-4 8-7 13-7s10 3 13 8 6 12 6 22c0 19-8 48-29 88a846 846 0 0 1-209 242c-30 19-54 27-73 27-9 0-18-2-24-6s-10-10-12-18c-2-10-4-19-4-27 0-19 6-33 13-42l12-11 9-3a5 5 0 0 1 3 1 4 4 0 0 1 1 1v2l-1 5-5 6c-12 13-30 23-51 30s-46 10-72 10c-41 0-84-8-122-27-19-9-32-20-39-30a53 53 0 0 1-10-32c0-13 5-24 10-33l6-11 4-3 1-3h2l-1 2-1 2c-5 5-9 11-12 17a63 63 0 0 0-7 29 52 52 0 0 0 10 31c7 10 19 20 37 29 38 18 82 28 122 28 24 0 49-4 72-11 21-7 38-16 50-29l4-7 2-3a4 4 0 0 0-1-2h-2l-8 3c-10 7-24 23-24 51l3 27a28 28 0 0 0 12 17c6 3 14 5 23 5 19 0 42-7 72-26s63-49 99-91c54-63 89-112 110-152s29-68 29-86c0-10-3-16-6-21l-5-5a15 15 0 0 0-7-2c-4 0-8 2-12 6h-1a2 2 0 0 1-1 0l1-1" class="H"/><path fill="#7595ec" d="M602 567s20-57 3-82c-13-21-58 13-64 17l-31-57s7-9 25-19 91-41 126 14c13 20 14 108-11 141l-48-14z"/><path d="M671 228c33-13 64-19 91-19 28 0 52 6 69 18s27 31 26 54c0 28-14 62-47 102s-84 85-159 134c-26 17-68 23-68 23l-1-2 1-1h3c8-1 41-8 64-23 75-48 127-93 159-132s46-74 46-101c0-23-10-39-26-52s-39-19-67-19a238 238 0 0 0-92 19l1-1" class="H"/><path d="m715 564-50-99 22-12 33-24 22-26 11-26 17 32 17 44v38l-19 36-35 28-18 9zm-379 51-43-74h4l20 5 26-5 34-21 59 99-3 3-24 14-26 3-24-5-23-19z" class="J"/><path d="M272 512c15 25 34 30 48 30a53 53 0 0 0 19-4l38-23 63 105a90 90 0 0 1-55 22c-35 0-55-30-55-30l-58-100zm103 11-33 21h-1a52 52 0 0 1-44-1l39 66c1 1 18 26 49 26 15 0 31-6 47-18l-57-94" class="K"/><path d="m404 126 12 1c4 2 41 102 41 102s-88 10-161 80l-70-86s12-40 88-74c44-20 74-23 90-23zm0 8c-14 0-43 3-87 23-58 26-77 55-82 65l62 75a305 305 0 0 1 151-74c-15-39-31-79-37-89h-7" class="I"/><path d="M445 238a4 4 0 0 0-1 0 279 279 0 0 0-140 58v-1a2 2 0 0 1 0-1c54-49 140-58 140-58l1 1v1" class="H"/><path d="m370 233-33-63-33 66 66-3z" class="I"/><path d="M363 233h-1l-31-62-32 63 64-2v1l-66 3v-1l33-66 1-1v1l33 63a1 1 0 0 1 0 1h-1m31-110h-1a258 258 0 0 0-157 81 2 2 0 0 1-1 0 2 2 0 0 1 0-1v-1c30-36 70-56 102-67s57-13 57-13h1l-1 1m-50 278 9-6c-1-2-25-27-38-47 0 0 27 55 29 53m333-180-3 2-2 1-7-1h-2l-11 3a22 22 0 0 0-8 10 25 25 0 0 0-2 9v1l1 1h1l10 2 4 2 1 1 1 1-1 2c-1 1-1-1-1-2h-1a30 30 0 0 0-8-3l-4-1h-3l-2-2-1-2 3-9c1-5 5-8 9-11s8-4 12-4h2l7 1 1-1s2 0 3-2l1-1v3" class="H"/><path d="M659 253c-11 0-26-1-23-9s14-30 38-23c0 0 9 6-2 19s-13 13-13 13z" class="N"/><path d="M601 567v-1c2-6 10-31 10-53 0-10-2-20-7-27l-5-6-8-1c-9 0-20 6-29 11a204 204 0 0 0-21 13v-2l19-13c10-6 22-11 31-11l9 2c2 1 4 3 5 6 5 7 7 17 7 28 0 26-9 55-9 55h-1l-1-1" class="H"/><path fill="#7595ec" d="M510 445c14 15 56 89 66 124 13 47 8 87-63 164l-34-50s24-37 20-71c-6-50-41-98-59-128l70-39"/><path d="m505 452-57 44-18-25 75-19z" class="H"/><path d="M179 405c-9 2-16 5-21 10s-3 8-1 9 9 0 14-5 8-14 8-14" class="M"/><path d="M353 395c-1-2-25-27-38-47 0 0-42 46-46 48h-24c-21 0-49-1-55 2-10 5-16 7-19 14s-3 12 2 12c7 1 11-8 11-8l21 10s53 19 88 9c10-2 60-40 60-40zm318-183c5 2 8 3 6 7s-5 3-12 3-19 5-22 14-2 11 0 12 15 3 16 5-5 12-19 11l-3-1-32 32c-4 4-34 24-50 29-13 3-39-1-54-4a75 75 0 0 1-12-3s11-20 13-51c0 0 28 3 46 7l63-34s18-22 26-25 28-5 34-2" class="M"/><path d="m501 320-12-3s14-18 17-49c0 0 6 7 4 25-2 22-9 27-9 27" class="H"/><path fill="#919191" d="M506 264s-1 39-11 55l-4-1s49 57 65 94c3 7-101 73-116 72l-68-100-19 14s-36-37-38-50c0 0 35-43 63-55s55-35 86-34c27 0 42 5 42 5"/><path d="m353 398 19-14-3-9-16 23z" class="H"/><path d="M325 246c3 10 12 39 23 43s21-2 21-2l12 6c1 4 9 7 20 8 9 0 14-11 11-19l-5-21s-8-34-17-40-16-14-38-5c-34 14-27 30-27 30" class="M"/><path d="M392 247c1 6 7 19 12 16s6-7 3-18-5-36-13-41c0 0-4-8-14-11a14 14 0 0 0-9-2s-2 0-16 1-20 13-20 13 1-1-5-1-17 6-15 17c0 0 8-16 0-4s-5 14 0 18c21 6 9 5 12 2s7-7 19-2 25-9 25-9 1 16 3 18 7 3 6-5-3-7-3-9 5-7 12-2c8 6 3 19 3 19z" class="N"/><path d="M388 249c3-2 6-7 6-11a14 14 0 0 0-2-6c-3-5-7-6-9-6a2 2 0 0 0-2 1l-3 6 2 5-2 1h-1a20 20 0 0 1-1-6 10 10 0 0 1 2-7 6 6 0 0 1 2-2 6 6 0 0 1 3 0c3 0 8 3 11 8l1 6c0 5-2 9-6 12h-1v-1" class="N"/><path fill="#000" d="m506 725-4 5 8 29v5l-3 5-36-54c-4-5-3-11 2-15l7-8 26 33z"/><path d="M556 410 456 270v-1h1l101 140v1h-2M416 279l2 4 1 6c0 3-1 7-3 10-2 2-3 4-6 5a16 16 0 0 1-6 2 33 33 0 0 1-4 0c-14 0-24-5-24-5v-3h1c7 5 15 7 23 7l4-1c5-1 8-3 10-6 2-2 3-6 3-9l-1-6-1-3v-1h1m222-64-2 2-5 10-6 8-1 1-1-1 3-6 11-15h1v1M209 419c-1 0-3 2-9 2-4 0-9-1-16-4-2-1-3-3-3-5l2-4 5-1h3l4 1a31 31 0 0 0 7-1h2l1-1 1 1v1a64 64 0 0 1-11 1h-7l-4 1-1 2a4 4 0 0 0 1 2 4 4 0 0 0 1 2l15 3 5-1h2v-1c1-1 1 0 2 1v1m-32-12-5 5-3 7v1h-1v-1l1-4a85 85 0 0 1 6-10 2 2 0 0 1 1-1l1 1a2 2 0 0 1 0 2m106-1-4-6c-3-2-7-4-10-4a1 1 0 0 1-1-1h1a19 19 0 0 1 11 4l5 6-1 1h-1m281-117v-2a35 35 0 0 0-5-6c-2-4-6-6-11-7l-1-1 1-1c7 1 11 5 14 9l4 6-1 2h-1m-32 182 14 28 19 37c9 22 17 49 17 75 0 9-1 17-3 25l-1 1-1-1c2-8 3-17 3-25 0-25-8-53-17-75l-12-26-5-7-1-2v-1l-15-28c-1-1 0-1 1-1h1m-45 96-48-82-33-48-23-36-9-13-5-8-22-41v-2l2 1 22 40 4 9c8 13 24 38 39 58l18 27 6 8 2 4 48 82v1h-1" class="H"/><path d="M551 419a1082 1082 0 0 1-83 54c-11 6-22 11-28 12l-1-1v-1c6-1 17-5 28-11 18-10 38-23 54-34l21-15 5-4 2-1h3c1 1-1 1-1 1m-44-155a179 179 0 0 1-1 22c-2 12-5 26-10 34h-1v-1c5-7 7-21 8-33a182 182 0 0 0 2-22 1 1 0 1 1 2 0m-189 77c1 4 3 9 7 14l19 25 9 8 2 2 2 2a1 1 0 0 1 0 1 1 1 0 0 1-1 0 1 1 0 0 1-1 0l-18-19a188 188 0 0 1-13-18c-4-5-7-9-8-14l1-1h1m261 196c0 3 2 6 4 6a6 6 0 0 0 6-6c0-2-3-4-6-4s-4 2-4 4zm-460 78c0 3 2 5 5 5s4-2 4-5-1-5-4-5a6 6 0 0 0-5 5zm530-296c0 3 2 6 5 6a6 6 0 0 0 5-6 6 6 0 0 0-5-5c-3 0-5 2-5 5z" class="H"/><path d="M513 214c0 6 5 11 11 11s11-5 11-11-5-11-11-11-11 5-11 11" class="K"/><path d="m165 506 52-25c4-1 3-8-1-9l-95-43-2-1a6 6 0 0 0-3 1l-65 28 114 49z" class="N"/><path fill="#c6cbcb" d="m168 426-3 80-114-49 2-81c0-5 5-7 10-5l98 45a10 10 0 0 1 5 4l2 6"/><path d="M165 507 51 458l-1-1 2-81a9 9 0 0 1 1-3 14 14 0 0 1 3-3 5 5 0 0 1 3-1 22 22 0 0 1 5 1v1h-5l-2 1a7 7 0 0 0-2 3l-1 1-2 80 114 49v1l-1 1m-56-60-8-18v-1l2 1 8 17-1 1h-1m-8 0-8-18v-1l3 1 7 17-1 1h-1" class="H"/><path d="M696 642c1 2 3 5 6 5 2 0 4-3 4-5a4 4 0 0 0-4-5c-3 0-6 2-6 5zm-405 24a7 7 0 0 0 0 2l2 2a7 7 0 0 0 2 2h2a7 7 0 0 0 7-6 7 7 0 0 0-7-7l-2 1a7 7 0 0 0-2 1l-2 2a7 7 0 0 0 0 3z" class="K"/><path d="M177 338h16v-18h-16v18z" class="L"/><path d="m191 554-4 9-6 9h21l-6-9-5-9" class="I"/><path d="m268 237-58 44h-5l-9-12c0-1 0-4 2-5l57-45h4l9 14v4" class="J"/><path d="M268 237v1l-57 44a4 4 0 0 1-2 1l-4-2-9-12-1-2 1-2a2 2 0 0 1 0-1l57-46a7 7 0 0 1 4-1l2 2 10 14 1 2-2 3v-1l-1-1 1-1v-1l-10-13-1-2a7 7 0 0 0-2 2l-56 45-1 1v1l8 12 3 1h1l57-45 1 1" class="H"/><path d="m263 235-14 10-8-10 14-12 8 12z" class="K"/><path d="m244 249-14 11-7-10 14-11 7 10z" class="L"/><path d="m225 264-14 10-7-8 13-11 8 9z" class="I"/><path d="M153 176h1l-13 110c-1 3-3 5-6 5h-1l-22-4c-3 0-5-2-5-5h1l10-112c0-3 2-4 5-4a10 10 0 0 1 1 0l24 3c3 0 6 3 6 6v1h-1l-1-1a4 4 0 0 0-4-4l-24-3h-1c-2 0-3 0-3 2l-11 112a4 4 0 0 0 3 3l22 4h1a4 4 0 0 0 3-4l14-110 1 1" class="H"/><path d="m146 178-4 26-20-2 2-27 22 3z" class="K"/><path d="m139 214-2 26-18-1 3-27 17 2" class="L"/><path d="m137 250-4 26-17-2 2-26 19 2" class="I"/><path d="m181 199-36 107-1 1a3 3 0 0 1-1 1 3 3 0 0 1-1 0 3 3 0 0 1-1 0l-23-9-2-1a4 4 0 0 1-1-3l34-107a3 3 0 0 1 5-3l25 9 2 2a4 4 0 0 1 0 3" class="J"/><path d="M181 199h1l-37 107-3 3a9 9 0 0 1-3 0l-23-8-2-5v-1l34-108a5 5 0 0 1 5-4l1 1 25 9a5 5 0 0 1 2 2l1 3v1h-2a4 4 0 0 0 0-1l-1-3-25-10h-1l-3 3-34 108 2 2 23 9h1l2-1 36-107h1" class="H"/><path d="m173 201-8 24-20-6 8-26 20 8" class="I"/><path fill="#f9865f" d="m160 235-7 25-18-4 8-28 17 7z"/><path d="m150 270-9 24-16-4 7-27 18 7m606 55h17v-16h-17v16z" class="L"/><path d="M189 147h17v-15h-17v15z" class="I"/><path d="M830 234a6 6 0 0 0 6 5 6 6 0 0 0 5-5 6 6 0 0 0-5-6 6 6 0 0 0-6 6zm-17 349-14 73c0 2-2 2-4 2l-14-2-4-5c0 1 0 0 0 0l13-72c0-2 2-3 4-3l16 3 3 2a5 5 0 0 1 1 2h-3l-2-2-15-3-2 1-12 72 1 3 14 3 2-2 14-72h2" class="H"/><path d="m807 585-3 17-13-2 3-18 13 3z" class="K"/><path d="m803 609-4 17-12-2 4-19 12 4z" class="L"/><path d="m798 632-3 17-11-2 2-18 12 3z" class="I"/><path d="M704 440c26-19 52-49 41-79 0 0-19-12-48 3l-28 16 35 60" class="L"/><path d="M745 361s55 76 45 128-76 79-76 79l-54-106c17-6 28-11 44-22 26-19 52-49 41-79zm7 23c-3 20-18 41-45 60-14 10-25 16-39 21l49 95c15-7 59-31 67-72 7-34-16-79-32-104z" class="L"/><path d="M760 405a59 59 0 0 1-6 17 65 65 0 0 1-28 30h-1v-1c15-8 23-20 27-30a60 60 0 0 0 5-11l1-4v-1l1-1 1 1m-50 58-30 16c-1 1-1 0-1-1v-1l29-15h3c1 1-1 1-2 1m47-14c-1 0-11 22-42 36l-1-1v-1c15-7 26-16 33-23a65 65 0 0 0 6-9l1-2v-2h3v2m25 2-4 13c-2 7-6 15-14 19l-1-2 1-1c7-3 11-11 13-17a51 51 0 0 0 3-8v-4h2m-35-78v1c0 6-3 32-42 66h-1v-1c39-34 40-60 40-65v-1l2-1 1 1m-17 7h-1c-3 0-15 0-33 13h-2l1-1c18-14 31-15 34-15h1v3m67 91v4c0 9-2 26-13 44s-30 37-65 52h-1v-1c35-15 54-35 65-52 8-13 12-28 12-43v-4a1 1 0 0 1 1-2 1 1 0 0 1 1 2" class="H"/><path d="m312 442 31 64s-21 8-4 32c0 0-41 17-67-26s40-70 40-70z" class="K"/><path d="M344 507a31 31 0 0 0-6 4c-3 2-6 6-6 11 0 4 3 10 8 16v2h-2c-6-8-8-13-8-18l2-7 5-6 6-3h1v1" class="H"/><path d="M378 513a190 190 0 0 1-35 25c-5 3-11 6-16 6-10 0-20-2-29-6-9-3-17-11-24-21l1-2h1c7 11 15 18 24 21 8 4 18 6 27 6 4 0 10-2 15-5 9-4 18-11 24-16l8-7 2-1 1-1h1v1m-4 39s-16 15-37 15l-11-1v-1l1-1 10 1a52 52 0 0 0 25-7l9-5 1-1 1-1h1v1m-23 30s-5 4-14 4c-6 0-11-1-16-4v-1h2a32 32 0 0 0 14 4 25 25 0 0 0 12-4l1-1h1v2m54 12s-16 16-42 16c-9 0-18-2-28-7l-2-1h2c9 4 18 6 28 6a62 62 0 0 0 30-8c3-2 6-3 7-5l3-2h1v-1a1 1 0 0 1 1 0 2 2 0 0 1 0 1v1m-15-26-6 4a67 67 0 0 1-12 6h-1v-1l12-7 4-2a11 11 0 0 0 2-2l1 1v1m-84-106c-1 0-6 1-12 7s-13 17-14 32l-1 1-1-1a49 49 0 0 1 28-41h1l-1 2m-11 39h-1a30 30 0 0 0-2 12c0 6 2 14 11 22v1l-1 1a2 2 0 0 1-1-1c-9-8-11-16-11-23 0-4 1-9 3-13h1l1 1m144 124s-26 21-56 21c-18 0-36-8-53-31v-1h1c17 23 35 31 52 31 14 0 28-6 38-11l12-8 2-2h2v-1l2 1v1" class="H"/></g></g></g><defs><clipPath id="D"><path d="M0 0h895v895H0z" class="J"/></clipPath></defs></svg>