<svg xmlns="http://www.w3.org/2000/svg" viewBox="0 0 1407 1407" xmlns:v="https://vecta.io/nano"><style><![CDATA[.G{fill:#2a1e17}.H{fill:#a0c6f4}.I{fill:#ff6d66}.J{fill:#91ba83}.K{fill:#101011}.L{fill:#5381ff}]]></style><defs><path id="A" d="M144 134a4 4 0 1 0 1-3 4 4 0 0 0-1 3"/><path id="B" d="M117 134a4 4 0 1 0 1-3 4 4 0 0 0-1 3"/><path id="C" d="M227 186a4 4 0 0 0 8 0 4 4 0 0 0-8 0"/><path id="D" d="M172 186a4 4 0 1 0 1-3 4 4 0 0 0-1 3"/><path id="E" d="M62 186a4 4 0 1 0 8 0 4 4 0 1 0-8 0"/><path id="F" d="m269 135-1-1-133 133L3 135 135 3l133 133 1-1-1-1 1 1 1-1L136 0a1 1 0 0 0-2 0L0 134a1 1 0 0 0 0 2l134 134h2l134-134v-2l-1 1"/><path id="G" d="m224 135-1-1-88 88-87-87 87-87 88 88 1-1-1-1 1 1v-1l-88-88a1 1 0 0 0-2 0l-88 88a1 1 0 0 0 0 2l88 88 1 1 1-1 88-88 1-1-1-1v1"/><path id="H" d="m178 135-1-1-42 42-41-41 41-41 42 42 1-1-1-1 1 1 1-1-43-43a1 1 0 0 0-2 0l-43 43a1 1 0 0 0 0 2l43 43 1 1 1-1 43-43 1-1-1-1-1 1"/><path id="I" d="M430 963a3 3 0 1 1-4-4 3 3 0 0 1 4 4"/><path id="J" d="M492 1025a3 3 0 1 1 0-4 3 3 0 0 1 0 4"/><path id="K" d="M523 1056a3 3 0 0 1-3 0 3 3 0 0 1 0-4 3 3 0 0 1 3 0 3 3 0 0 1 0 4"/><path id="L" d="M409 1109a3 3 0 1 1-4-4 3 3 0 1 1 4 4"/><clipPath id="M"><path d="M0 0h1407v1407H0z"/></clipPath></defs><g clip-path="url(#M)"><path d="M200 970c0 5 4 7 9 7s7-2 7-7-3-8-7-8c-5 0-9 4-9 8m833-464c0 4 2 8 7 8s8-4 8-8c0-5-3-9-8-9s-7 4-7 9" class="G"/><path d="M820 341c0 9 7 17 17 17 9 0 17-8 17-17a17 17 0 0 0-17-18c-10 0-17 8-17 18" class="I"/><path d="M1148 210c4 0 7 4 7 8a6 6 0 0 1-7 7c-4 0-8-2-8-7s4-8 8-8" class="H"/><path d="M131 1137c0 4 3 9 7 9s9-5 9-9-5-7-9-7a6 6 0 0 0-7 7" class="J"/><path d="m185 707-12-29v-2c1-1 3 1 3 2l12 27-2 2h-1m-12 0-12-29v-2c1-1 3 1 3 2l12 27-2 2h-1" class="G"/><path d="M1107 1012c0 4 4 8 9 8s6-4 6-8a6 6 0 0 0-6-7c-5 0-9 3-9 7m-637 38a10 10 0 0 0 11 10c2 0 5-1 7-3s3-5 3-7a10 10 0 0 0-3-8c-2-2-5-3-7-3a10 10 0 0 0-11 11" class="I"/><path d="M291 535h26v-27h-26v27" class="J"/><path d="m314 874-7 14-9 15h33l-9-15-8-14" class="H"/><path fill="#fff" d="m434 377-91 69c-2 1-5 2-7 0l-14-19c-1-2 0-6 2-7l90-71c2-1 5-2 6 0l14 21c2 2 2 5 0 7"/><path d="M434 377v2l-89 68-4 2c-2 0-4-2-5-3l-14-19-1-4 1-3 90-72a11 11 0 0 1 5-2c2 0 2 2 3 3l16 21 2 3c0 2-2 4-4 6v-2l-2-2 2-2v-1l-15-21-2-2a11 11 0 0 0-3 2l-88 71-2 1v2l14 19 3 2h2l89-71 2 2" class="G"/><path d="m427 373-22 16-12-16 21-19 13 19" class="I"/><path d="m396 396-20 17-12-16 22-17 10 16" class="J"/><path d="m367 420-22 15-11-13 21-18 12 16" class="H"/><path fill="#fff" d="m254 280-21 172c-1 4-5 8-9 7l-34-5c-4 0-7-3-7-7l17-175c1-4 5-6 9-5l38 5c3 0 7 5 7 8"/><path d="M254 280h1l-20 174c-1 4-5 7-9 7h-2l-34-5c-4-1-9-5-9-9h2l15-175c1-5 5-7 9-7a15 15 0 0 1 2 0l38 5c4 1 8 5 8 9v1h-1l-2-1c0-3-3-5-5-5l-38-6h-2c-3 0-5 1-5 4l-17 175c0 3 2 5 5 5l34 6h2c3 0 5-3 5-6l21-173 2 1" class="G"/><path d="m243 284-7 41-31-3 4-43 34 5" class="I"/><path d="m233 341-4 41-29-2 5-43 28 4" class="J"/><path d="m229 397-6 42-26-4 1-41 31 3" class="H"/><path fill="#fff" d="m298 317-57 168a5 5 0 0 1-6 4l-37-14a6 6 0 0 1-3-7l53-169a5 5 0 0 1 7-3l40 14a6 6 0 0 1 3 7"/><path d="M298 317h2l-59 168c0 3-2 5-5 5a14 14 0 0 1-3 0l-36-13c-3-1-4-4-4-7v-2l54-170a8 8 0 0 1 7-6l1 2 40 14c3 1 5 4 5 7v2h-3a7 7 0 0 0 0-2l-2-4-40-15a6 6 0 0 0-1 0c-2 0-3 2-4 3l-53 171s0-1 0 0l1 3 37 14a6 6 0 0 0 1 0c2 0 3 0 4-2l57-168h1" class="G"/><path d="m286 320-14 38-31-9 13-41 32 12" class="H"/><path fill="#f9865f" d="m266 373-12 40-28-7 12-43 28 10"/><path d="m250 428-15 38-24-7 10-41 29 10m881-31 5-5 16 14-5 5c-2 2-5 2-7 0l-7-7c-2-2-4-4-2-7" class="J"/><path d="M1159 365v1l-21 25s0-1 0 0v1l14 14h3l21-24v-2s0 1 0 0l-16-14h0-1v-1h-2a5 5 0 0 1 3-2 6 6 0 0 1 4 2l14 14 1 1a6 6 0 0 1-1 4l-21 24a5 5 0 0 1-4 1 6 6 0 0 1-3-1l-14-14a5 5 0 0 1-1-3v-4l22-22h2" class="G"/><path d="M1200 514h27v-24h-27v24" class="I"/><path d="M1227 475v14h16a2 2 0 0 1 2 1 2 2 0 0 1-2 2h-16l-1-2c0-1 0 1 0 0v-15l1-2v2" class="G"/><path d="M310 236h28v-24h-28v24" class="H"/><path d="M338 196v14h15a2 2 0 0 1 2 2 2 2 0 0 1-2 1h-17v-17l2-2v2" class="G"/><path fill="#fff" d="m1289 921-22 111a4 4 0 0 1-5 4l-23-4c-2 0-3-2-3-5l19-113a4 4 0 0 1 5-4l26 5a4 4 0 0 1 3 6"/><path d="M1289 921l-20 113c-1 3-4 4-7 4-1 0 0 0 0 0l-23-4c-2-1-5-4-5-7 0 0 0 1 0 0l19-113c1-3 4-6 7-6h0l26 6c3 0 5 4 5 7h-3c0-2-2-4-4-4l-24-5c-1 0-3 0-3 2l-19 113 1 4 23 5c1 0 3-2 3-4l23-111h1" class="G"/><path d="m1281 922-5 28-21-4 5-27 21 3" class="I"/><path d="m1274 960-5 28-19-4 5-29 19 5" class="J"/><path d="m1267 996-5 28-17-4 3-27 19 3" class="H"/><g class="G"><path d="m680 1189-3 9s-1 2-2 1v-1l2-9 2-2c1 0 2 1 1 2"/><path d="m680 1196-7-2-1-3h1l9 1v4h-2m4 26-5 15-2 2v-2l5-17h2v2"/><path d="m687 1232-14-3c0-1-2-1-1-2l1-2 14 5 2 2h-2m19-36-7 20h-2l-1-1 7-21h1l2 2"/><path d="m710 1210-19-7-2-2h3l19 5v2l-1 2"/></g><path d="M138 396h-22l-2-2a2 2 0 0 1 2-2h22a2 2 0 0 1 2 2l-2 2" class="I"/><path d="M747 239h-22v-3h22z" class="J"/><path d="m95 513-22 3v-2l22-5m893 570h-24l2-2h22l2 2h-2" class="H"/><g transform="rotate(16 -24 3120)" class="K"><use href="#A"/><use href="#B"/><path d="M89 134a4 4 0 1 0 1-3 4 4 0 0 0-1 3m-27 0a4 4 0 1 0 1-3 4 4 0 0 0-1 3m-28 0a4 4 0 1 0 1-3 4 4 0 0 0-1 3"/><use href="#C"/><path d="M199 186a4 4 0 0 0 9 0 4 4 0 0 0-9 0"/><use href="#D"/><path d="M144 186a4 4 0 1 0 1-3 4 4 0 0 0-1 3m-27 0a4 4 0 0 0 8 0 4 4 0 0 0-8 0m-28 0a4 4 0 0 0 9 0 4 4 0 0 0-9 0"/><use href="#E"/><path d="M34 186a4 4 0 1 0 1-3 4 4 0 0 0-1 3m193-26a4 4 0 1 0 1-3 4 4 0 0 0-1 3m-28 0a4 4 0 1 0 1-3 4 4 0 0 0-1 3m-27 0a4 4 0 1 0 1-3 4 4 0 0 0-1 3m-28 0a4 4 0 1 0 1-3 4 4 0 0 0-1 3m-27 0a4 4 0 1 0 1-3 4 4 0 0 0-1 3m-28 0a4 4 0 1 0 1-3 4 4 0 0 0-1 3m-27 0a4 4 0 1 0 1-3 4 4 0 0 0-1 3m-28 0a4 4 0 1 0 1-3 4 4 0 0 0-1 3m193-26a4 4 0 1 0 1-3 4 4 0 0 0-1 3m-28 0a4 4 0 1 0 1-3 4 4 0 0 0-1 3m28-26a4 4 0 0 0 8 0 4 4 0 0 0-8 0m-28 0a4 4 0 0 0 9 0 4 4 0 0 0-9 0m-27 0a4 4 0 1 0 1-3 4 4 0 0 0-1 3m-28 0a4 4 0 1 0 1-3 4 4 0 0 0-1 3m-27 0a4 4 0 0 0 8 0 4 4 0 0 0-8 0m-28 0a4 4 0 0 0 9 0 4 4 0 0 0-9 0m-27 0a4 4 0 1 0 8 0 4 4 0 1 0-8 0m-28 0a4 4 0 1 0 1-3 4 4 0 0 0-1 3m193-26a4 4 0 1 0 8 0 4 4 0 0 0-8 0m-28 0a4 4 0 0 0 9 0 4 4 0 0 0-9 0m-27 0a4 4 0 1 0 1-3 4 4 0 0 0-1 3m-28 0a4 4 0 1 0 1-3 4 4 0 0 0-1 3m-27 0a4 4 0 0 0 8 0 4 4 0 0 0-8 0m-28 0a4 4 0 0 0 9 0 4 4 0 0 0-9 0m-27 0a4 4 0 1 0 8 0 4 4 0 1 0-8 0m-28 0a4 4 0 1 0 1-3 4 4 0 0 0-1 3m193-26a4 4 0 1 0 1-3 4 4 0 0 0-1 3m-28 0a4 4 0 1 0 1-3 4 4 0 0 0-1 3m-27 0a4 4 0 1 0 1-3 4 4 0 0 0-1 3m-28 0a4 4 0 1 0 1-3 4 4 0 0 0-1 3m-27 0a4 4 0 1 0 1-3 4 4 0 0 0-1 3m-28 0a4 4 0 1 0 1-3 4 4 0 0 0-1 3m-27 0a4 4 0 1 0 1-3 4 4 0 0 0-1 3m-28 0a4 4 0 1 0 1-3 4 4 0 0 0-1 3m193-26a4 4 0 1 0 1-3 4 4 0 0 0-1 3m-28 0a4 4 0 1 0 1-3 4 4 0 0 0-1 3m-27 0a4 4 0 1 0 1-3 4 4 0 0 0-1 3m-28 0a4 4 0 1 0 1-3 4 4 0 0 0-1 3m-27 0a4 4 0 1 0 1-3 4 4 0 0 0-1 3m-28 0a4 4 0 1 0 1-3 4 4 0 0 0-1 3m-27 0a4 4 0 1 0 1-3 4 4 0 0 0-1 3m-28 0a4 4 0 1 0 1-3 4 4 0 0 0-1 3M227 4a4 4 0 1 0 8 0 4 4 0 0 0-8 0m-28 0a4 4 0 0 0 9 0 4 4 0 0 0-9 0m-27 0a4 4 0 1 0 1-3 4 4 0 0 0-1 3m-28 0a4 4 0 1 0 1-3 4 4 0 0 0-1 3m-27 0a4 4 0 1 0 4-4 4 4 0 0 0-4 4M89 4a4 4 0 0 0 9 0 4 4 0 0 0-5-4 4 4 0 0 0-4 4M62 4a4 4 0 1 0 8 0 4 4 0 1 0-8 0M34 4a4 4 0 1 0 1-3 4 4 0 0 0-1 3"/></g><path d="m805 351 1-2 169 49a6 6 0 0 0 7-4l48-169a6 6 0 0 0-4-7l-169-49a6 6 0 0 0-7 4l-48 169c-1 3 1 6 4 7l-1 4a10 10 0 0 1-7-12l48-169a10 10 0 0 1 12-7l170 49a10 10 0 0 1 6 12l-48 169a10 10 0 0 1-12 7l-169-49v-2" class="L"/><path d="M987 304a4 4 0 1 0 2-3 4 4 0 0 0-2 3" class="K"/><g transform="rotate(350 6392 -4190)"><g class="L"><use href="#F"/><use href="#G"/></g><use href="#H" class="K"/></g><path fill="none" stroke="#5381ff" stroke-miterlimit="10" stroke-width="2.4" d="m422 1247-120-120a5 5 0 0 1 0-7l120-119a5 5 0 0 1 7 0l120 119a5 5 0 0 1 0 7l-120 120c-2 2-5 2-7 0z"/><g fill="#010101"><use href="#I"/><path d="M461 994a3 3 0 1 1-4-4 3 3 0 0 1 4 0 3 3 0 0 1 0 4"/><use href="#J"/><use href="#K"/><path d="M555 1087a3 3 0 1 1-4-4 3 3 0 0 1 4 4m-153-96a3 3 0 1 1-4-4 3 3 0 0 1 4 4m32 31a3 3 0 1 1-4-4 3 3 0 0 1 4 4m31 31a3 3 0 0 1-4 0 3 3 0 0 1 0-4 3 3 0 0 1 4 0 3 3 0 0 1 0 4m31 31a3 3 0 1 1-4-4 3 3 0 0 1 4 4m31 31a3 3 0 1 1-4-4 3 3 0 0 1 4 4m-152-96a3 3 0 1 1-4-4 3 3 0 0 1 4 4m31 31a3 3 0 1 1-4-4 3 3 0 0 1 4 4m31 31a3 3 0 0 1-4 0 3 3 0 0 1 0-4 3 3 0 0 1 4 0 3 3 0 0 1 0 4m31 31a3 3 0 1 1-4-4 3 3 0 0 1 4 4m31 31a3 3 0 1 1-4-4 3 3 0 0 1 4 4m-152-97a3 3 0 1 1-4-4 3 3 0 0 1 4 4m31 31a3 3 0 1 1-4-3 3 3 0 0 1 4 3"/><use href="#L"/><path d="M440 1140a3 3 0 1 1-4-4 3 3 0 0 1 4 4m31 31a3 3 0 1 1-4-4 3 3 0 0 1 4 4m-152-97a3 3 0 1 1-4-4 3 3 0 0 1 4 4m31 31a3 3 0 0 1-4 0 3 3 0 0 1 0-4 3 3 0 1 1 4 4m31 31a3 3 0 1 1-4-4 3 3 0 1 1 4 4m31 31a3 3 0 1 1 0-4 3 3 0 0 1 0 4m31 32a3 3 0 1 1-4-4 3 3 0 0 1 4 4m-152-97a3 3 0 1 1-4-4 3 3 0 0 1 4 4m31 31a3 3 0 1 1 0-4 3 3 0 0 1 0 4m31 31a3 3 0 0 1-4 0 3 3 0 0 1 0-4 3 3 0 0 1 4 0 3 3 0 0 1 0 4m32 31a3 3 0 1 1-4-4 3 3 0 0 1 4 0 3 3 0 0 1 0 4m31 31a3 3 0 0 1-4 0 3 3 0 1 1 4 0"/></g><g transform="rotate(350 971 -2017)"><g class="L"><use href="#F"/><use href="#G"/></g><use href="#H" class="K"/></g></g></svg>