<svg xmlns="http://www.w3.org/2000/svg" fill="none" viewBox="0 0 16 16" xmlns:v="https://vecta.io/nano"><defs><path id="A" fill="#fff" d="M0 0h16v16H0V0Z"/></defs><g clip-path="url(#G)"><mask id="B" width="16" height="16" x="0" y="0" maskUnits="userSpaceOnUse"><use href="#A"/></mask><g mask="url(#B)"><mask id="C" width="16" height="16" x="0" y="0" maskUnits="userSpaceOnUse"><use href="#A"/></mask><g mask="url(#C)"><mask id="D" width="16" height="16" x="0" y="0" maskUnits="userSpaceOnUse"><use href="#A"/></mask><g mask="url(#D)"><path fill="#8d8d8d" d="M13 14H3a1 1 0 0 1-1-1V5h12v8l-1 1z"/><path fill="#757575" d="M14 5H8v9h5a1 1 0 0 0 1-1V5z"/><path fill="#515c6a" d="M14 5H2V3a1 1 0 0 1 1-1h10a1 1 0 0 1 1 1v2z"/><path fill="#fff" d="m5 11-2-1V9l2-1h1L4 9l2 2H5zm1 0 3-4h1v1l-3 4-1-1z"/><path fill="#3b434d" d="M14 3a1 1 0 0 0-1-1H8v3h6V3z"/><path fill="#dfdfdf" d="m10 11 2-2-2-1h1l2 1v1l-2 1h-1zM9 7 8 9v2l2-3V7H9z"/></g></g></g><use href="#E" fill="#ff5a54"/><use href="#F" fill="#e5be3d"/><path fill="#55c233" d="M6 4H5h1z"/></g><defs><path id="E" d="M4 4H3h1z"/><path id="F" d="M5 4H4h1z"/><clipPath id="G"><path fill="#fff" d="M0 0h16v16H0z"/></clipPath></defs></svg>