<svg xmlns="http://www.w3.org/2000/svg" width="187" height="187" xmlns:v="https://vecta.io/nano"><defs><clipPath id="A"><path d="M0 0h187v187H0z"/></clipPath></defs><g clip-path="url(#A)" stroke="#5381ff"><g fill="none"><path d="M108.612 2.607h23.486v181.786h-23.486zM75.813 58.056h23.486v126.337H75.813zm66.07-16.063h23.486v142.4h-23.486zm-98.869-5.601H66.5v148H43.014zM10.215 80.274h23.486v104.119H10.215z"/></g><path d="M176.784 3.998L158.07 18.151l7.139.455-44.674 78.625-24.738-37.08-34.991 81.618-22.509-31.972-28.047 39.654 1.765 7.1 26.275-36.962 23.791 33.791 34.862-81.318 24 35.981 49.458-87.046 4.592 4.938z" fill="#e1e9fe"/></g></svg>