<svg xmlns="http://www.w3.org/2000/svg" viewBox="0 0 187 187" xmlns:v="https://vecta.io/nano"><defs><clipPath id="A"><path fill="#fff" d="M0 0h249v249H0Z"/></clipPath><clipPath id="B"><path d="M0 0h187v187H0z"/></clipPath></defs><g clip-path="url(#B)"><g stroke="#5381ff" clip-path="url(#A)" transform="translate(-31 -31)"><path fill="#e1e9fe" d="M34 38h28v28H34z"/><path fill="none" d="M73 38h27v28H73zm38 0h29v28h-29zm36 0h30v28h-30zm40 0h29v28h-29zM34 74h28v29H34z"/><path fill="#e1e9fe" d="M73 74h27v29H73z"/><path fill="none" d="M111 74h29v29h-29zm36 0h30v29h-30zm40 0h29v29h-29zM34 111h28v30H34zm39 0h27v30H73z"/><path fill="#e1e9fe" d="M111 110h29v31h-29z"/><path fill="none" d="M147 111h30v30h-30zm40 0h29v30h-29zM34 147h28v28H34zm39 0h27v28H73zm38 0h29v28h-29z"/><path fill="#e1e9fe" d="M147 147h31v29h-31z"/><path fill="none" d="M187 147h29v28h-29zM34 183h28v29H34zm39 0h27v29H73zm38 0h29v29h-29zm36 0h30v29h-30z"/><path fill="#e1e9fe" d="M187 183h29v29h-29z"/><text fill="#fff" font-family="Arial-BoldMT, Arial" font-size="24" font-weight="700"><tspan x="40" y="61">S</tspan><tspan x="193" y="206">E</tspan></text></g></g></svg>