<svg xmlns="http://www.w3.org/2000/svg" viewBox="0 0 187 187" xmlns:v="https://vecta.io/nano"><defs><clipPath id="A"><path d="M0 0h187v187H0z"/></clipPath></defs><g clip-path="url(#A)"><g fill="#e1e9fe"><path d="m1 91 71 16v72L2 163z"/><path fill="#5381ff" d="M73 179h-1L2 164v-1L1 91v-1 1l71 15v1l1 72zM3 163l69 15-1-71L2 92l1 71z"/></g><g fill="#c6d6ff"><path d="m72 107 34-31v67l-34 36z"/><path fill="#5381ff" d="M72 180v-1l-1-72v-1l34-30 1-1v68l-33 36-1 1zm0-73 1 71 32-36V77l-33 30z"/></g><path fill="#5381ff" d="M72 107 1 92l-1-1h1l30-20 13-8v-1l62 14h1l-1 1-34 30zM2 91l70 15 33-29-61-13-12 8L2 91z"/><g fill="#e1e9fe"><path d="m81 96 71 16v72l-70-16z"/><path fill="#5381ff" d="M153 185h-1l-70-16v-1l-1-72 71 15v1l1 72v1zm-70-17 69 16-1-72-69-15 1 71z"/></g><g fill="#c6d6ff"><path d="m152 112 34-30v66l-34 36z"/><path fill="#5381ff" d="M152 185v-1l-1-72v-1l34-30 1-1v68l-33 36-1 1zm0-73 1 71 32-35V83l-33 29z"/></g><path fill="#5381ff" d="M152 112 81 97h-1l1-1 30-20 13-8 62 13h1l-1 1-34 30zM82 96l70 15 33-29-61-13-12 8-30 19z"/><g fill="#e1e9fe"><path d="m31 30 71 16 1 73-71-16z"/><path fill="#5381ff" d="m103 119-71-16-1-73 71 15h1v74zm-70-16 69 15V46L32 31l1 72z"/></g><g fill="#c6d6ff"><path d="m102 46 34-31 1 67-34 37z"/><path fill="#5381ff" d="M102 120V45l34-30 1-1v68l-34 37-1 1zm1-74v71l33-35V16l-33 30z"/></g><path fill="#5381ff" d="M102 46 31 31h-1l1-1 30-20 13-9 62 13 1 1-35 31zM32 30l70 15 33-30L74 2l-12 9-30 19z"/></g></svg>