<svg xmlns="http://www.w3.org/2000/svg" viewBox="0 0 187 187" xmlns:v="https://vecta.io/nano"><defs><clipPath id="A"><path d="M0 0h187v187H0z"/></clipPath></defs><g fill="#e1e9fe" clip-path="url(#A)"><path stroke="#5381ff" d="M93 134c-16 0-34-7-52-19a132 132 0 0 1-21-19 4 4 0 0 1 0-5 132 132 0 0 1 21-19c18-12 36-19 52-19s35 7 53 19a132 132 0 0 1 21 19 4 4 0 0 1 0 5 132 132 0 0 1-21 19 91 91 0 0 1-53 19zM29 94a133 133 0 0 0 17 14c12 8 29 18 48 18s35-10 47-18c6-4 12-9 17-15a133 133 0 0 0-17-14c-12-8-29-18-47-18S58 71 46 79a133 133 0 0 0-17 15zm64 26c-11 0-21-8-25-19a26 26 0 0 1 11-29c10-7 23-6 32 2a4 4 0 0 1 0 6 4 4 0 0 1-6 0 18 18 0 1 0 6 14 4 4 0 0 1 4-5 4 4 0 0 1 5 5c0 14-12 26-27 26zm0-18a8 8 0 1 1 1-17 8 8 0 0 1-1 17z"/><path d="M185 185h-35v-7h28v-28h7v35zm-148 0H2v-35h7v28h28v7zM185 37h-7V11h-28V2h35v35zM9 37H2V2h35v9H9v26z"/><path fill="#5381ff" d="M184 184v-33h-6v27h-27v6h33m-148 0v-6H9v-27H3v33h33M184 36V3h-33v7h27v26h6M9 36V10h27V3H3v33h6m176 149h-35v-8h27v-27h8v35zm-148 0H2v-35h8v27h27v8zM185 37h-8V11h-27V2h35v35zM10 37H2V2h35v9H10v26z"/></g></svg>