<svg xmlns="http://www.w3.org/2000/svg" width="187" height="187" fill="none"><g clip-path="url(#a)"><mask id="b" width="187" height="187" x="0" y="0" maskUnits="userSpaceOnUse"><path fill="#fff" d="M0 0h187v187H0V0Z"/></mask><g mask="url(#b)"><path fill="#949494" d="M94 1a94 94 0 0 0-30 182c5 1 6-2 6-4v-18c-26 6-31-11-31-11-5-11-11-13-11-13-8-6 1-6 1-6 9 0 14 9 14 9 9 15 22 11 28 8 0-6 3-10 5-12-20-3-42-11-42-46a36 36 0 0 1 9-26c0-2-4-11 1-24 0 0 8-3 26 9a89 89 0 0 1 47 0c18-12 26-9 26-9 5 13 1 22 1 24 6 7 9 16 9 26 0 35-22 43-43 46 4 3 7 8 7 17v26c0 2 1 5 6 4A94 94 0 0 0 94 1z"/></g></g><defs><clipPath id="a"><path fill="#fff" d="M0 0h187v187H0z"/></clipPath></defs></svg>