<svg xmlns="http://www.w3.org/2000/svg" width="187" height="187"><defs><clipPath id="a"><path d="M0 0h187v187H0z"/></clipPath></defs><g clip-path="url(#a)"><path fill="#949494" d="M173 187H14c-8 0-14-6-14-13V14C0 7 6 1 14 1h159c8 0 14 6 14 13v160c0 7-6 13-14 13zM72 73v84h28v-47a18 18 0 0 1 1-7 17 17 0 0 1 5-7c3-2 6-3 10-3s8 2 10 5c3 3 4 8 4 14v45h28v-48c0-24-12-38-32-38-15 0-22 8-26 14V73zm-43 0v84h28V73zm14-40c-9 0-16 6-16 14s7 15 16 15a17 17 0 0 0 11-4c3-3 5-7 5-11-1-9-7-14-16-14z"/></g></svg>