<svg xmlns="http://www.w3.org/2000/svg" width="187" height="187" xmlns:v="https://vecta.io/nano"><defs><clipPath id="A"><path d="M0 0h187v187H0z"/></clipPath></defs><g clip-path="url(#A)"><path d="M173.179 187.188H13.821C6.327 187.311.146 181.348 0 173.855V14.337C.144 6.842 6.326.877 13.821 1h159.358C180.674.877 186.856 6.842 187 14.337v159.516c-.145 7.494-6.326 13.458-13.821 13.335zM72.318 73c.355 7.647.012 80.7 0 83.806v.017h27.981v-46.814a18.36 18.36 0 0 1 .923-6.8 17.37 17.37 0 0 1 5.038-6.973c2.632-2.135 5.932-3.274 9.32-3.218 4.837 0 8.5 1.767 10.883 5.252 2.184 3.193 3.291 7.8 3.291 13.7v44.838h27.98v-48.055c0-23.622-12.042-37.725-32.213-37.725-14.527 0-21.351 7.894-25.219 13.832V73zm-43.474 0v83.822H56.83V73zm14.183-40.414c-9.322 0-15.833 5.955-15.833 14.482 0 8.391 6.5 14.481 15.464 14.481h.182a16.76 16.76 0 0 0 11.412-4.042c2.888-2.694 4.494-6.488 4.42-10.437-.193-8.663-6.48-14.484-15.645-14.484z" fill="#949494"/></g></svg>